<?xml version="1.0" encoding="UTF-8" standalone="no"?>
<!-- Created with Inkscape (http://www.inkscape.org/) -->

<svg
   xmlns:dc="http://purl.org/dc/elements/1.1/"
   xmlns:cc="http://creativecommons.org/ns#"
   xmlns:rdf="http://www.w3.org/1999/02/22-rdf-syntax-ns#"
   xmlns:svg="http://www.w3.org/2000/svg"
   xmlns="http://www.w3.org/2000/svg"
   xmlns:xlink="http://www.w3.org/1999/xlink"
   xmlns:sodipodi="http://sodipodi.sourceforge.net/DTD/sodipodi-0.dtd"
   xmlns:inkscape="http://www.inkscape.org/namespaces/inkscape"
   height="600"
   id="svg559"
   version="1.0"
   width="900"
   x="0.00000000"
   y="0.00000000"
   sodipodi:version="0.32"
   inkscape:version="0.47 r22583"
   sodipodi:docname="Flag_of_the_British_Virgin_Islands.svg">
  <sodipodi:namedview
     inkscape:window-height="557"
     inkscape:window-width="921"
     inkscape:pageshadow="2"
     inkscape:pageopacity="0.0"
     borderopacity="1.0"
     bordercolor="#666666"
     pagecolor="#ffffff"
     id="base"
     showgrid="false"
     inkscape:zoom="0.47022578"
     inkscape:cx="500.00024"
     inkscape:cy="250.00011"
     inkscape:window-x="44"
     inkscape:window-y="60"
     inkscape:current-layer="svg559"
     inkscape:window-maximized="0">
    <inkscape:grid
       id="GridFromPre046Settings"
       type="xygrid"
       originx="0px"
       originy="0px"
       spacingx="20px"
       spacingy="20px"
       color="#0000ff"
       empcolor="#0000ff"
       opacity="0.2"
       empopacity="0.4"
       empspacing="5"
       visible="true"
       enabled="true"
       snapvisiblegridlinesonly="true" />
  </sodipodi:namedview>
  <metadata
     id="metadata1572">
    <rdf:RDF>
      <cc:Work
         rdf:about="">
        <dc:title>British Virgin Islands</dc:title>
        <dc:description />
        <dc:subject>
          <rdf:Bag>
            <rdf:li />
            <rdf:li>united_kingdom</rdf:li>
            <rdf:li>flags</rdf:li>
            <rdf:li>caribbean</rdf:li>
            <rdf:li>america</rdf:li>
            <rdf:li>signs_and_symbols</rdf:li>
            <rdf:li>sign</rdf:li>
          </rdf:Bag>
        </dc:subject>
        <dc:publisher>
          <cc:Agent
             rdf:about="http://www.openclipart.org">
            <dc:title>Tobias Jakobs</dc:title>
          </cc:Agent>
        </dc:publisher>
        <dc:creator>
          <cc:Agent>
            <dc:title>Tobias Jakobs</dc:title>
          </cc:Agent>
        </dc:creator>
        <dc:rights>
          <cc:Agent>
            <dc:title>Tobias Jakobs</dc:title>
          </cc:Agent>
        </dc:rights>
        <dc:date />
        <dc:format>image/svg+xml</dc:format>
        <dc:type
           rdf:resource="http://purl.org/dc/dcmitype/StillImage" />
        <cc:license
           rdf:resource="http://web.resource.org/cc/PublicDomain" />
        <dc:language>en</dc:language>
      </cc:Work>
      <cc:License
         rdf:about="http://web.resource.org/cc/PublicDomain">
        <cc:permits
           rdf:resource="http://web.resource.org/cc/Reproduction" />
        <cc:permits
           rdf:resource="http://web.resource.org/cc/Distribution" />
        <cc:permits
           rdf:resource="http://web.resource.org/cc/DerivativeWorks" />
      </cc:License>
    </rdf:RDF>
  </metadata>
  <defs
     id="defs1574">
    <inkscape:perspective
       sodipodi:type="inkscape:persp3d"
       inkscape:vp_x="0 : 250 : 1"
       inkscape:vp_y="0 : 1000 : 0"
       inkscape:vp_z="1000 : 250 : 1"
       inkscape:persp3d-origin="500 : 166.66667 : 1"
       id="perspective3745" />
    <linearGradient
       id="linearGradient570">
      <stop
         id="stop571"
         offset="0.00000000"
         style="stop-color:#ff0000;stop-opacity:1.0000000" />
      <stop
         id="stop572"
         offset="1.0000000"
         style="stop-color:#ffff00;stop-opacity:1.0000000" />
    </linearGradient>
    <linearGradient
       id="linearGradient573"
       x1="0.96899199"
       x2="0.023255819"
       xlink:href="#linearGradient570"
       y1="0.640625"
       y2="0.63281202" />
    <linearGradient
       id="linearGradient574"
       x1="103.08268"
       x2="92.551147"
       xlink:href="#linearGradient570"
       y1="111.27607"
       y2="107.76426"
       gradientTransform="scale(0.665002,1.503755)"
       gradientUnits="userSpaceOnUse" />
    <linearGradient
       inkscape:collect="always"
       xlink:href="#linearGradient570"
       id="linearGradient2125"
       gradientUnits="userSpaceOnUse"
       gradientTransform="matrix(0.73317039,0,0,1.2427699,47.856225,-14.764726)"
       x1="103.08268"
       y1="111.27607"
       x2="92.551147"
       y2="107.76426" />
    <linearGradient
       inkscape:collect="always"
       xlink:href="#linearGradient570"
       id="linearGradient2127"
       gradientUnits="userSpaceOnUse"
       gradientTransform="matrix(0.73317039,0,0,1.2427699,47.802453,-9.8667617)"
       x1="103.08268"
       y1="111.27607"
       x2="92.551147"
       y2="107.76426" />
    <linearGradient
       inkscape:collect="always"
       xlink:href="#linearGradient570"
       id="linearGradient2129"
       gradientUnits="userSpaceOnUse"
       gradientTransform="matrix(0.73317039,0,0,1.2427699,57.968406,-5.4144666)"
       x1="103.08268"
       y1="111.27607"
       x2="92.551147"
       y2="107.76426" />
    <linearGradient
       inkscape:collect="always"
       xlink:href="#linearGradient570"
       id="linearGradient2131"
       gradientUnits="userSpaceOnUse"
       gradientTransform="matrix(0.73317039,0,0,1.2427699,48.039049,-0.65347946)"
       x1="103.08268"
       y1="111.27607"
       x2="92.551147"
       y2="107.76426" />
    <linearGradient
       inkscape:collect="always"
       xlink:href="#linearGradient570"
       id="linearGradient2133"
       gradientUnits="userSpaceOnUse"
       gradientTransform="matrix(0.73317039,0,0,1.2427699,48.060565,4.0259962)"
       x1="103.08268"
       y1="111.27607"
       x2="92.551147"
       y2="107.76426" />
    <linearGradient
       inkscape:collect="always"
       xlink:href="#linearGradient570"
       id="linearGradient2135"
       gradientUnits="userSpaceOnUse"
       gradientTransform="matrix(0.73317039,0,0,1.2427699,48.113017,8.7738288)"
       x1="103.08268"
       y1="111.27607"
       x2="92.551147"
       y2="107.76426" />
    <linearGradient
       inkscape:collect="always"
       xlink:href="#linearGradient570"
       id="linearGradient2137"
       gradientUnits="userSpaceOnUse"
       gradientTransform="matrix(0.73317039,0,0,1.2427699,58.044453,8.6965793)"
       x1="103.08268"
       y1="111.27607"
       x2="92.551147"
       y2="107.76426" />
    <linearGradient
       inkscape:collect="always"
       xlink:href="#linearGradient570"
       id="linearGradient2139"
       gradientUnits="userSpaceOnUse"
       gradientTransform="matrix(0.73317039,0,0,1.2427699,57.953196,4.0358024)"
       x1="103.08268"
       y1="111.27607"
       x2="92.551147"
       y2="107.76426" />
    <linearGradient
       inkscape:collect="always"
       xlink:href="#linearGradient570"
       id="linearGradient2141"
       gradientUnits="userSpaceOnUse"
       gradientTransform="matrix(0.73317039,0,0,1.2427699,57.831525,-0.72796319)"
       x1="103.08268"
       y1="111.27607"
       x2="92.551147"
       y2="107.76426" />
    <linearGradient
       inkscape:collect="always"
       xlink:href="#linearGradient570"
       id="linearGradient2143"
       gradientUnits="userSpaceOnUse"
       gradientTransform="matrix(0.823581,0,0,1.862346,700.8017,106.2668)"
       x1="103.08268"
       y1="111.27607"
       x2="92.551147"
       y2="107.76426" />
    <linearGradient
       inkscape:collect="always"
       xlink:href="#linearGradient570"
       id="linearGradient2145"
       gradientUnits="userSpaceOnUse"
       gradientTransform="matrix(0.73317039,0,0,1.2427699,57.937985,-10.100985)"
       x1="103.08268"
       y1="111.27607"
       x2="92.551147"
       y2="107.76426" />
    <linearGradient
       inkscape:collect="always"
       xlink:href="#linearGradient570"
       id="linearGradient2147"
       gradientUnits="userSpaceOnUse"
       gradientTransform="matrix(0.73317039,0,0,1.2427699,49.852892,-5.7211993)"
       x1="103.08268"
       y1="111.27607"
       x2="92.551147"
       y2="107.76426" />
    <linearGradient
       inkscape:collect="always"
       xlink:href="#linearGradient570"
       id="linearGradient2243"
       gradientUnits="userSpaceOnUse"
       gradientTransform="matrix(0.830118,0,0,1.877127,706.364,107.11)"
       x1="103.08268"
       y1="111.27607"
       x2="92.551147"
       y2="107.76426" />
  </defs>
  <rect
     height="600.23767"
     id="rect877"
     style="font-size:12px;fill:#000066;fill-opacity:1;stroke-width:1pt"
     width="899.88129"
     x="0.059351355"
     y="-0.11881128" />
  <path
     style="fill:#ffffff;fill-opacity:1;fill-rule:evenodd;stroke:none"
     id="path824"
     d="m 582.17723,144.00607 187.77614,-0.92951 -0.34839,223.08003 c 0,0 6.61913,33.92686 -78.73363,85.51407 30.6573,-4.18272 64.1017,-47.86927 64.1017,-47.86927 0,0 13.58677,-23.23733 20.20601,-10.22446 6.61914,13.01287 12.88999,19.5194 17.76731,24.63178 4.87731,5.11223 8.70934,19.05479 1.39343,29.27923 -7.31591,10.22447 -18.81247,11.61876 -21.94783,-0.92951 -4.87731,3.25333 -34.83795,51.58735 -96.15255,53.911 -62.35972,-1.39428 -96.50084,-54.37577 -96.50084,-54.37577 0,0 -8.36109,17.66065 -20.20596,3.7181 -11.4965,-18.12542 -2.78703,-29.74415 -2.78703,-29.74415 0,0 9.7546,-7.4359 12.54163,-12.54828 4.52894,-6.97127 5.92245,-16.2662 13.58677,-16.2662 9.05784,0.92952 12.54163,10.68922 12.54163,10.68922 0,0 31.35408,44.15147 65.14682,49.72831 -76.29499,-48.7988 -79.08196,-79.00756 -78.7336,-86.4436 l 0.34839,-221.22099 z" />
  <path
     style="fill:#006129;fill-opacity:1;fill-rule:evenodd;stroke:#000000;stroke-width:1.25820074pt;stroke-linecap:butt;stroke-linejoin:miter;stroke-opacity:1"
     id="path779"
     d="m 586.70615,150.04784 179.06668,-1.39427 0,214.71459 c 0.34838,27.8851 -34.83783,56.23482 -89.88168,92.4852 -56.78578,-39.0391 -89.53338,-62.74119 -89.88175,-92.94996 l 0.69675,-212.85556 z" />
  <g
     transform="matrix(1.132231,0,0,1.5104386,529.22367,129.06225)"
     id="g584">
    <path
       style="fill:none;stroke:#f7c600;stroke-width:0.96212378pt;stroke-linecap:butt;stroke-linejoin:miter;stroke-opacity:1"
       id="path585"
       d="m 69.78628,170.5296 9.33539,-13.7109 9.38089,13.7396" />
    <path
       transform="matrix(1.086991,0,0,1.087005,-6.965268,-4.956314)"
       style="fill:#f7c600;fill-opacity:1;fill-rule:evenodd;stroke:#000000;stroke-width:0.55322123;stroke-linecap:butt;stroke-linejoin:miter;stroke-opacity:1;stroke-dasharray:none"
       id="path586"
       d="m 80.922043,156.72391 c 3.23e-4,0.94218 -0.763404,1.70614 -1.70562,1.70614 -0.942216,0 -1.705943,-0.76396 -1.70562,-1.70614 -3.23e-4,-0.94218 0.763404,-1.70614 1.70562,-1.70614 0.942216,0 1.705943,0.76396 1.70562,1.70614 z" />
    <path
       style="fill:#f7c600;fill-opacity:1;fill-rule:evenodd;stroke:#000000;stroke-width:0.60132736;stroke-linecap:butt;stroke-linejoin:miter;stroke-opacity:1;stroke-dasharray:none"
       id="path587"
       d="m 71.54115,180.6562 14.4728,0.0412 c 0,0 0.22693,-1.8783 -1.51173,-3.0199 7.58054,-1.0424 5.61121,-7.7289 11.95988,-8.1079 1.23184,0.1895 -3.31647,2.8427 -3.31647,2.8427 0,0 -3.82774,2.7012 -2.08465,4.0745 1.38387,1.0903 1.98989,-0.6632 2.17941,-1.9898 0.18951,-1.3266 6.15915,-2.1794 5.30636,-5.9696 -1.42135,-3.127 -9.75992,2.0845 -9.75992,2.0845 l -5.94908,-0.033 c -0.37093,-0.6677 -2.01046,-3.3452 -3.70363,-3.3576 -2.00875,0.0733 -3.42369,3.3906 -3.42369,3.3906 l -8.62284,0 -4.83258,0 c 0,0 -0.46132,3.4524 6.36116,4.1157 1.53604,2.0061 2.72675,2.5666 4.06206,3.0859 -0.89021,0.7419 -1.14082,1.6394 -1.13708,2.8427 z" />
    <path
       style="fill:none;stroke:#000000;stroke-width:0.60132736;stroke-linecap:butt;stroke-linejoin:miter;stroke-opacity:1;stroke-dasharray:none"
       id="path588"
       d="m 72.58347,177.7187 12.05464,-0.0411" />
    <path
       style="fill:none;stroke:#000000;stroke-width:0.60132736;stroke-linecap:butt;stroke-linejoin:miter;stroke-opacity:1;stroke-dasharray:none"
       id="path589"
       d="m 67.06232,170.6113 c 0,0 0.96439,5.6381 5.41543,6.9734" />
    <path
       style="fill:url(#linearGradient2125);fill-opacity:1;fill-rule:evenodd;stroke:#000000;stroke-width:0.60132736;stroke-linecap:butt;stroke-linejoin:miter;stroke-opacity:1;stroke-dasharray:none"
       id="path590"
       d="m 66.32047,170.5373 c 0.4451,-2.1513 1.26113,-2.5223 2.15134,-5.2671 0.14837,-2.6706 -2.15134,-2.3739 -1.48368,-4.0801 1.18694,-1.8546 0.59347,-3.635 -1.63205,-5.0445 0.44511,2.4481 -2.89317,4.7478 -2.89317,6.7507 0,2.003 1.70623,1.5579 1.48368,4.5995 0.14837,1.7803 -0.4451,1.3353 -0.59347,3.0415 l 2.96735,0 z" />
    <path
       transform="translate(-0.07418633,0.445068)"
       style="fill:#f7c600;fill-opacity:1;fill-rule:evenodd;stroke:#000000;stroke-width:0.60132736;stroke-linecap:butt;stroke-linejoin:miter;stroke-opacity:1;stroke-dasharray:none"
       id="path591"
       d="m 80.922043,156.72391 c 3.23e-4,0.94218 -0.763404,1.70614 -1.70562,1.70614 -0.942216,0 -1.705943,-0.76396 -1.70562,-1.70614 -3.23e-4,-0.94218 0.763404,-1.70614 1.70562,-1.70614 0.942216,0 1.705943,0.76396 1.70562,1.70614 z" />
  </g>
  <g
     transform="matrix(1.132231,0,0,1.5104386,528.62975,86.435658)"
     id="g592">
    <path
       style="fill:none;stroke:#f7c600;stroke-width:0.96212378pt;stroke-linecap:butt;stroke-linejoin:miter;stroke-opacity:1"
       id="path593"
       d="m 69.78628,170.5296 9.33539,-13.7109 9.38089,13.7396" />
    <path
       transform="matrix(1.086991,0,0,1.087005,-6.965268,-4.956314)"
       style="fill:#f7c600;fill-opacity:1;fill-rule:evenodd;stroke:#000000;stroke-width:0.55322123;stroke-linecap:butt;stroke-linejoin:miter;stroke-opacity:1;stroke-dasharray:none"
       id="path594"
       d="m 80.922043,156.72391 c 3.23e-4,0.94218 -0.763404,1.70614 -1.70562,1.70614 -0.942216,0 -1.705943,-0.76396 -1.70562,-1.70614 -3.23e-4,-0.94218 0.763404,-1.70614 1.70562,-1.70614 0.942216,0 1.705943,0.76396 1.70562,1.70614 z" />
    <path
       style="fill:#f7c600;fill-opacity:1;fill-rule:evenodd;stroke:#000000;stroke-width:0.60132736;stroke-linecap:butt;stroke-linejoin:miter;stroke-opacity:1;stroke-dasharray:none"
       id="path595"
       d="m 71.54115,180.6562 14.4728,0.0412 c 0,0 0.22693,-1.8783 -1.51173,-3.0199 7.58054,-1.0424 5.61121,-7.7289 11.95988,-8.1079 1.23184,0.1895 -3.31647,2.8427 -3.31647,2.8427 0,0 -3.82774,2.7012 -2.08465,4.0745 1.38387,1.0903 1.98989,-0.6632 2.17941,-1.9898 0.18951,-1.3266 6.15915,-2.1794 5.30636,-5.9696 -1.42135,-3.127 -9.75992,2.0845 -9.75992,2.0845 l -5.94908,-0.033 c -0.37093,-0.6677 -2.01046,-3.3452 -3.70363,-3.3576 -2.00875,0.0733 -3.42369,3.3906 -3.42369,3.3906 l -8.62284,0 -4.83258,0 c 0,0 -0.46132,3.4524 6.36116,4.1157 1.53604,2.0061 2.72675,2.5666 4.06206,3.0859 -0.89021,0.7419 -1.14082,1.6394 -1.13708,2.8427 z" />
    <path
       style="fill:none;stroke:#000000;stroke-width:0.60132736;stroke-linecap:butt;stroke-linejoin:miter;stroke-opacity:1;stroke-dasharray:none"
       id="path596"
       d="m 72.58347,177.7187 12.05464,-0.0411" />
    <path
       style="fill:none;stroke:#000000;stroke-width:0.60132736;stroke-linecap:butt;stroke-linejoin:miter;stroke-opacity:1;stroke-dasharray:none"
       id="path597"
       d="m 67.06232,170.6113 c 0,0 0.96439,5.6381 5.41543,6.9734" />
    <path
       style="fill:url(#linearGradient2127);fill-opacity:1;fill-rule:evenodd;stroke:#000000;stroke-width:0.60132736;stroke-linecap:butt;stroke-linejoin:miter;stroke-opacity:1;stroke-dasharray:none"
       id="path598"
       d="m 66.32047,170.5373 c 0.4451,-2.1513 1.26113,-2.5223 2.15134,-5.2671 0.14837,-2.6706 -2.15134,-2.3739 -1.48368,-4.0801 1.18694,-1.8546 0.59347,-3.635 -1.63205,-5.0445 0.44511,2.4481 -2.89317,4.7478 -2.89317,6.7507 0,2.003 1.70623,1.5579 1.48368,4.5995 0.14837,1.7803 -0.4451,1.3353 -0.59347,3.0415 l 2.96735,0 z" />
    <path
       transform="translate(-0.07418633,0.445068)"
       style="fill:#f7c600;fill-opacity:1;fill-rule:evenodd;stroke:#000000;stroke-width:0.60132736;stroke-linecap:butt;stroke-linejoin:miter;stroke-opacity:1;stroke-dasharray:none"
       id="path599"
       d="m 80.922043,156.72391 c 3.23e-4,0.94218 -0.763404,1.70614 -1.70562,1.70614 -0.942216,0 -1.705943,-0.76396 -1.70562,-1.70614 -3.23e-4,-0.94218 0.763404,-1.70614 1.70562,-1.70614 0.942216,0 1.705943,0.76396 1.70562,1.70614 z" />
  </g>
  <g
     transform="matrix(1.132231,0,0,1.5104386,640.91553,47.687692)"
     id="g600">
    <path
       style="fill:none;stroke:#f7c600;stroke-width:0.96212378pt;stroke-linecap:butt;stroke-linejoin:miter;stroke-opacity:1"
       id="path601"
       d="m 69.78628,170.5296 9.33539,-13.7109 9.38089,13.7396" />
    <path
       transform="matrix(1.086991,0,0,1.087005,-6.965268,-4.956314)"
       style="fill:#f7c600;fill-opacity:1;fill-rule:evenodd;stroke:#000000;stroke-width:0.55322123;stroke-linecap:butt;stroke-linejoin:miter;stroke-opacity:1;stroke-dasharray:none"
       id="path602"
       d="m 80.922043,156.72391 c 3.23e-4,0.94218 -0.763404,1.70614 -1.70562,1.70614 -0.942216,0 -1.705943,-0.76396 -1.70562,-1.70614 -3.23e-4,-0.94218 0.763404,-1.70614 1.70562,-1.70614 0.942216,0 1.705943,0.76396 1.70562,1.70614 z" />
    <path
       style="fill:#f7c600;fill-opacity:1;fill-rule:evenodd;stroke:#000000;stroke-width:0.60132736;stroke-linecap:butt;stroke-linejoin:miter;stroke-opacity:1;stroke-dasharray:none"
       id="path603"
       d="m 71.54115,180.6562 14.4728,0.0412 c 0,0 0.22693,-1.8783 -1.51173,-3.0199 7.58054,-1.0424 5.61121,-7.7289 11.95988,-8.1079 1.23184,0.1895 -3.31647,2.8427 -3.31647,2.8427 0,0 -3.82774,2.7012 -2.08465,4.0745 1.38387,1.0903 1.98989,-0.6632 2.17941,-1.9898 0.18951,-1.3266 6.15915,-2.1794 5.30636,-5.9696 -1.42135,-3.127 -9.75992,2.0845 -9.75992,2.0845 l -5.94908,-0.033 c -0.37093,-0.6677 -2.01046,-3.3452 -3.70363,-3.3576 -2.00875,0.0733 -3.42369,3.3906 -3.42369,3.3906 l -8.62284,0 -4.83258,0 c 0,0 -0.46132,3.4524 6.36116,4.1157 1.53604,2.0061 2.72675,2.5666 4.06206,3.0859 -0.89021,0.7419 -1.14082,1.6394 -1.13708,2.8427 z" />
    <path
       style="fill:none;stroke:#000000;stroke-width:0.60132736;stroke-linecap:butt;stroke-linejoin:miter;stroke-opacity:1;stroke-dasharray:none"
       id="path604"
       d="m 72.58347,177.7187 12.05464,-0.0411" />
    <path
       style="fill:none;stroke:#000000;stroke-width:0.60132736;stroke-linecap:butt;stroke-linejoin:miter;stroke-opacity:1;stroke-dasharray:none"
       id="path605"
       d="m 67.06232,170.6113 c 0,0 0.96439,5.6381 5.41543,6.9734" />
    <path
       style="fill:url(#linearGradient2129);fill-opacity:1;fill-rule:evenodd;stroke:#000000;stroke-width:0.60132736;stroke-linecap:butt;stroke-linejoin:miter;stroke-opacity:1;stroke-dasharray:none"
       id="path606"
       d="m 66.32047,170.5373 c 0.4451,-2.1513 1.26113,-2.5223 2.15134,-5.2671 0.14837,-2.6706 -2.15134,-2.3739 -1.48368,-4.0801 1.18694,-1.8546 0.59347,-3.635 -1.63205,-5.0445 0.44511,2.4481 -2.89317,4.7478 -2.89317,6.7507 0,2.003 1.70623,1.5579 1.48368,4.5995 0.14837,1.7803 -0.4451,1.3353 -0.59347,3.0415 l 2.96735,0 z" />
    <path
       transform="translate(-0.07418633,0.445068)"
       style="fill:#f7c600;fill-opacity:1;fill-rule:evenodd;stroke:#000000;stroke-width:0.60132736;stroke-linecap:butt;stroke-linejoin:miter;stroke-opacity:1;stroke-dasharray:none"
       id="path607"
       d="m 80.922043,156.72391 c 3.23e-4,0.94218 -0.763404,1.70614 -1.70562,1.70614 -0.942216,0 -1.705943,-0.76396 -1.70562,-1.70614 -3.23e-4,-0.94218 0.763404,-1.70614 1.70562,-1.70614 0.942216,0 1.705943,0.76396 1.70562,1.70614 z" />
  </g>
  <g
     transform="matrix(1.132231,0,0,1.5104386,531.243,6.2531962)"
     id="g608">
    <path
       style="fill:none;stroke:#f7c600;stroke-width:0.96212378pt;stroke-linecap:butt;stroke-linejoin:miter;stroke-opacity:1"
       id="path609"
       d="m 69.78628,170.5296 9.33539,-13.7109 9.38089,13.7396" />
    <path
       transform="matrix(1.086991,0,0,1.087005,-6.965268,-4.956314)"
       style="fill:#f7c600;fill-opacity:1;fill-rule:evenodd;stroke:#000000;stroke-width:0.55322123;stroke-linecap:butt;stroke-linejoin:miter;stroke-opacity:1;stroke-dasharray:none"
       id="path610"
       d="m 80.922043,156.72391 c 3.23e-4,0.94218 -0.763404,1.70614 -1.70562,1.70614 -0.942216,0 -1.705943,-0.76396 -1.70562,-1.70614 -3.23e-4,-0.94218 0.763404,-1.70614 1.70562,-1.70614 0.942216,0 1.705943,0.76396 1.70562,1.70614 z" />
    <path
       style="fill:#f7c600;fill-opacity:1;fill-rule:evenodd;stroke:#000000;stroke-width:0.60132736;stroke-linecap:butt;stroke-linejoin:miter;stroke-opacity:1;stroke-dasharray:none"
       id="path611"
       d="m 71.54115,180.6562 14.4728,0.0412 c 0,0 0.22693,-1.8783 -1.51173,-3.0199 7.58054,-1.0424 5.61121,-7.7289 11.95988,-8.1079 1.23184,0.1895 -3.31647,2.8427 -3.31647,2.8427 0,0 -3.82774,2.7012 -2.08465,4.0745 1.38387,1.0903 1.98989,-0.6632 2.17941,-1.9898 0.18951,-1.3266 6.15915,-2.1794 5.30636,-5.9696 -1.42135,-3.127 -9.75992,2.0845 -9.75992,2.0845 l -5.94908,-0.033 c -0.37093,-0.6677 -2.01046,-3.3452 -3.70363,-3.3576 -2.00875,0.0733 -3.42369,3.3906 -3.42369,3.3906 l -8.62284,0 -4.83258,0 c 0,0 -0.46132,3.4524 6.36116,4.1157 1.53604,2.0061 2.72675,2.5666 4.06206,3.0859 -0.89021,0.7419 -1.14082,1.6394 -1.13708,2.8427 z" />
    <path
       style="fill:none;stroke:#000000;stroke-width:0.60132736;stroke-linecap:butt;stroke-linejoin:miter;stroke-opacity:1;stroke-dasharray:none"
       id="path612"
       d="m 72.58347,177.7187 12.05464,-0.0411" />
    <path
       style="fill:none;stroke:#000000;stroke-width:0.60132736;stroke-linecap:butt;stroke-linejoin:miter;stroke-opacity:1;stroke-dasharray:none"
       id="path613"
       d="m 67.06232,170.6113 c 0,0 0.96439,5.6381 5.41543,6.9734" />
    <path
       style="fill:url(#linearGradient2131);fill-opacity:1;fill-rule:evenodd;stroke:#000000;stroke-width:0.60132736;stroke-linecap:butt;stroke-linejoin:miter;stroke-opacity:1;stroke-dasharray:none"
       id="path614"
       d="m 66.32047,170.5373 c 0.4451,-2.1513 1.26113,-2.5223 2.15134,-5.2671 0.14837,-2.6706 -2.15134,-2.3739 -1.48368,-4.0801 1.18694,-1.8546 0.59347,-3.635 -1.63205,-5.0445 0.44511,2.4481 -2.89317,4.7478 -2.89317,6.7507 0,2.003 1.70623,1.5579 1.48368,4.5995 0.14837,1.7803 -0.4451,1.3353 -0.59347,3.0415 l 2.96735,0 z" />
    <path
       transform="translate(-0.07418633,0.445068)"
       style="fill:#f7c600;fill-opacity:1;fill-rule:evenodd;stroke:#000000;stroke-width:0.60132736;stroke-linecap:butt;stroke-linejoin:miter;stroke-opacity:1;stroke-dasharray:none"
       id="path615"
       d="m 80.922043,156.72391 c 3.23e-4,0.94218 -0.763404,1.70614 -1.70562,1.70614 -0.942216,0 -1.705943,-0.76396 -1.70562,-1.70614 -3.23e-4,-0.94218 0.763404,-1.70614 1.70562,-1.70614 0.942216,0 1.705943,0.76396 1.70562,1.70614 z" />
  </g>
  <g
     transform="matrix(1.132231,0,0,1.5104386,531.48066,-34.471903)"
     id="g616">
    <path
       style="fill:none;stroke:#f7c600;stroke-width:0.96212378pt;stroke-linecap:butt;stroke-linejoin:miter;stroke-opacity:1"
       id="path617"
       d="m 69.78628,170.5296 9.33539,-13.7109 9.38089,13.7396" />
    <path
       transform="matrix(1.086991,0,0,1.087005,-6.965268,-4.956314)"
       style="fill:#f7c600;fill-opacity:1;fill-rule:evenodd;stroke:#000000;stroke-width:0.55322123;stroke-linecap:butt;stroke-linejoin:miter;stroke-opacity:1;stroke-dasharray:none"
       id="path618"
       d="m 80.922043,156.72391 c 3.23e-4,0.94218 -0.763404,1.70614 -1.70562,1.70614 -0.942216,0 -1.705943,-0.76396 -1.70562,-1.70614 -3.23e-4,-0.94218 0.763404,-1.70614 1.70562,-1.70614 0.942216,0 1.705943,0.76396 1.70562,1.70614 z" />
    <path
       style="fill:#f7c600;fill-opacity:1;fill-rule:evenodd;stroke:#000000;stroke-width:0.60132736;stroke-linecap:butt;stroke-linejoin:miter;stroke-opacity:1;stroke-dasharray:none"
       id="path619"
       d="m 71.54115,180.6562 14.4728,0.0412 c 0,0 0.22693,-1.8783 -1.51173,-3.0199 7.58054,-1.0424 5.61121,-7.7289 11.95988,-8.1079 1.23184,0.1895 -3.31647,2.8427 -3.31647,2.8427 0,0 -3.82774,2.7012 -2.08465,4.0745 1.38387,1.0903 1.98989,-0.6632 2.17941,-1.9898 0.18951,-1.3266 6.15915,-2.1794 5.30636,-5.9696 -1.42135,-3.127 -9.75992,2.0845 -9.75992,2.0845 l -5.94908,-0.033 c -0.37093,-0.6677 -2.01046,-3.3452 -3.70363,-3.3576 -2.00875,0.0733 -3.42369,3.3906 -3.42369,3.3906 l -8.62284,0 -4.83258,0 c 0,0 -0.46132,3.4524 6.36116,4.1157 1.53604,2.0061 2.72675,2.5666 4.06206,3.0859 -0.89021,0.7419 -1.14082,1.6394 -1.13708,2.8427 z" />
    <path
       style="fill:none;stroke:#000000;stroke-width:0.60132736;stroke-linecap:butt;stroke-linejoin:miter;stroke-opacity:1;stroke-dasharray:none"
       id="path620"
       d="m 72.58347,177.7187 12.05464,-0.0411" />
    <path
       style="fill:none;stroke:#000000;stroke-width:0.60132736;stroke-linecap:butt;stroke-linejoin:miter;stroke-opacity:1;stroke-dasharray:none"
       id="path621"
       d="m 67.06232,170.6113 c 0,0 0.96439,5.6381 5.41543,6.9734" />
    <path
       style="fill:url(#linearGradient2133);fill-opacity:1;fill-rule:evenodd;stroke:#000000;stroke-width:0.60132736;stroke-linecap:butt;stroke-linejoin:miter;stroke-opacity:1;stroke-dasharray:none"
       id="path622"
       d="m 66.32047,170.5373 c 0.4451,-2.1513 1.26113,-2.5223 2.15134,-5.2671 0.14837,-2.6706 -2.15134,-2.3739 -1.48368,-4.0801 1.18694,-1.8546 0.59347,-3.635 -1.63205,-5.0445 0.44511,2.4481 -2.89317,4.7478 -2.89317,6.7507 0,2.003 1.70623,1.5579 1.48368,4.5995 0.14837,1.7803 -0.4451,1.3353 -0.59347,3.0415 l 2.96735,0 z" />
    <path
       transform="translate(-0.07418633,0.445068)"
       style="fill:#f7c600;fill-opacity:1;fill-rule:evenodd;stroke:#000000;stroke-width:0.60132736;stroke-linecap:butt;stroke-linejoin:miter;stroke-opacity:1;stroke-dasharray:none"
       id="path623"
       d="m 80.922043,156.72391 c 3.23e-4,0.94218 -0.763404,1.70614 -1.70562,1.70614 -0.942216,0 -1.705943,-0.76396 -1.70562,-1.70614 -3.23e-4,-0.94218 0.763404,-1.70614 1.70562,-1.70614 0.942216,0 1.705943,0.76396 1.70562,1.70614 z" />
  </g>
  <g
     transform="matrix(1.132231,0,0,1.5104386,532.06001,-75.79191)"
     id="g624">
    <path
       style="fill:none;stroke:#f7c600;stroke-width:0.96212378pt;stroke-linecap:butt;stroke-linejoin:miter;stroke-opacity:1"
       id="path625"
       d="m 69.78628,170.5296 9.33539,-13.7109 9.38089,13.7396" />
    <path
       transform="matrix(1.086991,0,0,1.087005,-6.965268,-4.956314)"
       style="fill:#f7c600;fill-opacity:1;fill-rule:evenodd;stroke:#000000;stroke-width:0.55322123;stroke-linecap:butt;stroke-linejoin:miter;stroke-opacity:1;stroke-dasharray:none"
       id="path626"
       d="m 80.922043,156.72391 c 3.23e-4,0.94218 -0.763404,1.70614 -1.70562,1.70614 -0.942216,0 -1.705943,-0.76396 -1.70562,-1.70614 -3.23e-4,-0.94218 0.763404,-1.70614 1.70562,-1.70614 0.942216,0 1.705943,0.76396 1.70562,1.70614 z" />
    <path
       style="fill:#f7c600;fill-opacity:1;fill-rule:evenodd;stroke:#000000;stroke-width:0.60132736;stroke-linecap:butt;stroke-linejoin:miter;stroke-opacity:1;stroke-dasharray:none"
       id="path627"
       d="m 71.54115,180.6562 14.4728,0.0412 c 0,0 0.22693,-1.8783 -1.51173,-3.0199 7.58054,-1.0424 5.61121,-7.7289 11.95988,-8.1079 1.23184,0.1895 -3.31647,2.8427 -3.31647,2.8427 0,0 -3.82774,2.7012 -2.08465,4.0745 1.38387,1.0903 1.98989,-0.6632 2.17941,-1.9898 0.18951,-1.3266 6.15915,-2.1794 5.30636,-5.9696 -1.42135,-3.127 -9.75992,2.0845 -9.75992,2.0845 l -5.94908,-0.033 c -0.37093,-0.6677 -2.01046,-3.3452 -3.70363,-3.3576 -2.00875,0.0733 -3.42369,3.3906 -3.42369,3.3906 l -8.62284,0 -4.83258,0 c 0,0 -0.46132,3.4524 6.36116,4.1157 1.53604,2.0061 2.72675,2.5666 4.06206,3.0859 -0.89021,0.7419 -1.14082,1.6394 -1.13708,2.8427 z" />
    <path
       style="fill:none;stroke:#000000;stroke-width:0.60132736;stroke-linecap:butt;stroke-linejoin:miter;stroke-opacity:1;stroke-dasharray:none"
       id="path628"
       d="m 72.58347,177.7187 12.05464,-0.0411" />
    <path
       style="fill:none;stroke:#000000;stroke-width:0.60132736;stroke-linecap:butt;stroke-linejoin:miter;stroke-opacity:1;stroke-dasharray:none"
       id="path629"
       d="m 67.06232,170.6113 c 0,0 0.96439,5.6381 5.41543,6.9734" />
    <path
       style="fill:url(#linearGradient2135);fill-opacity:1;fill-rule:evenodd;stroke:#000000;stroke-width:0.60132736;stroke-linecap:butt;stroke-linejoin:miter;stroke-opacity:1;stroke-dasharray:none"
       id="path630"
       d="m 66.32047,170.5373 c 0.4451,-2.1513 1.26113,-2.5223 2.15134,-5.2671 0.14837,-2.6706 -2.15134,-2.3739 -1.48368,-4.0801 1.18694,-1.8546 0.59347,-3.635 -1.63205,-5.0445 0.44511,2.4481 -2.89317,4.7478 -2.89317,6.7507 0,2.003 1.70623,1.5579 1.48368,4.5995 0.14837,1.7803 -0.4451,1.3353 -0.59347,3.0415 l 2.96735,0 z" />
    <path
       transform="translate(-0.07418633,0.445068)"
       style="fill:#f7c600;fill-opacity:1;fill-rule:evenodd;stroke:#000000;stroke-width:0.60132736;stroke-linecap:butt;stroke-linejoin:miter;stroke-opacity:1;stroke-dasharray:none"
       id="path631"
       d="m 80.922043,156.72391 c 3.23e-4,0.94218 -0.763404,1.70614 -1.70562,1.70614 -0.942216,0 -1.705943,-0.76396 -1.70562,-1.70614 -3.23e-4,-0.94218 0.763404,-1.70614 1.70562,-1.70614 0.942216,0 1.705943,0.76396 1.70562,1.70614 z" />
  </g>
  <g
     transform="matrix(1.132231,0,0,1.5104386,641.75548,-75.119608)"
     id="g632">
    <path
       style="fill:none;stroke:#f7c600;stroke-width:0.96212378pt;stroke-linecap:butt;stroke-linejoin:miter;stroke-opacity:1"
       id="path633"
       d="m 69.78628,170.5296 9.33539,-13.7109 9.38089,13.7396" />
    <path
       transform="matrix(1.086991,0,0,1.087005,-6.965268,-4.956314)"
       style="fill:#f7c600;fill-opacity:1;fill-rule:evenodd;stroke:#000000;stroke-width:0.55322123;stroke-linecap:butt;stroke-linejoin:miter;stroke-opacity:1;stroke-dasharray:none"
       id="path634"
       d="m 80.922043,156.72391 c 3.23e-4,0.94218 -0.763404,1.70614 -1.70562,1.70614 -0.942216,0 -1.705943,-0.76396 -1.70562,-1.70614 -3.23e-4,-0.94218 0.763404,-1.70614 1.70562,-1.70614 0.942216,0 1.705943,0.76396 1.70562,1.70614 z" />
    <path
       style="fill:#f7c600;fill-opacity:1;fill-rule:evenodd;stroke:#000000;stroke-width:0.60132736;stroke-linecap:butt;stroke-linejoin:miter;stroke-opacity:1;stroke-dasharray:none"
       id="path635"
       d="m 71.54115,180.6562 14.4728,0.0412 c 0,0 0.22693,-1.8783 -1.51173,-3.0199 7.58054,-1.0424 5.61121,-7.7289 11.95988,-8.1079 1.23184,0.1895 -3.31647,2.8427 -3.31647,2.8427 0,0 -3.82774,2.7012 -2.08465,4.0745 1.38387,1.0903 1.98989,-0.6632 2.17941,-1.9898 0.18951,-1.3266 6.15915,-2.1794 5.30636,-5.9696 -1.42135,-3.127 -9.75992,2.0845 -9.75992,2.0845 l -5.94908,-0.033 c -0.37093,-0.6677 -2.01046,-3.3452 -3.70363,-3.3576 -2.00875,0.0733 -3.42369,3.3906 -3.42369,3.3906 l -8.62284,0 -4.83258,0 c 0,0 -0.46132,3.4524 6.36116,4.1157 1.53604,2.0061 2.72675,2.5666 4.06206,3.0859 -0.89021,0.7419 -1.14082,1.6394 -1.13708,2.8427 z" />
    <path
       style="fill:none;stroke:#000000;stroke-width:0.60132736;stroke-linecap:butt;stroke-linejoin:miter;stroke-opacity:1;stroke-dasharray:none"
       id="path636"
       d="m 72.58347,177.7187 12.05464,-0.0411" />
    <path
       style="fill:none;stroke:#000000;stroke-width:0.60132736;stroke-linecap:butt;stroke-linejoin:miter;stroke-opacity:1;stroke-dasharray:none"
       id="path637"
       d="m 67.06232,170.6113 c 0,0 0.96439,5.6381 5.41543,6.9734" />
    <path
       style="fill:url(#linearGradient2137);fill-opacity:1;fill-rule:evenodd;stroke:#000000;stroke-width:0.60132736;stroke-linecap:butt;stroke-linejoin:miter;stroke-opacity:1;stroke-dasharray:none"
       id="path638"
       d="m 66.32047,170.5373 c 0.4451,-2.1513 1.26113,-2.5223 2.15134,-5.2671 0.14837,-2.6706 -2.15134,-2.3739 -1.48368,-4.0801 1.18694,-1.8546 0.59347,-3.635 -1.63205,-5.0445 0.44511,2.4481 -2.89317,4.7478 -2.89317,6.7507 0,2.003 1.70623,1.5579 1.48368,4.5995 0.14837,1.7803 -0.4451,1.3353 -0.59347,3.0415 l 2.96735,0 z" />
    <path
       transform="translate(-0.07418633,0.445068)"
       style="fill:#f7c600;fill-opacity:1;fill-rule:evenodd;stroke:#000000;stroke-width:0.60132736;stroke-linecap:butt;stroke-linejoin:miter;stroke-opacity:1;stroke-dasharray:none"
       id="path639"
       d="m 80.922043,156.72391 c 3.23e-4,0.94218 -0.763404,1.70614 -1.70562,1.70614 -0.942216,0 -1.705943,-0.76396 -1.70562,-1.70614 -3.23e-4,-0.94218 0.763404,-1.70614 1.70562,-1.70614 0.942216,0 1.705943,0.76396 1.70562,1.70614 z" />
  </g>
  <g
     transform="matrix(1.132231,0,0,1.5104386,640.74753,-34.557245)"
     id="g640">
    <path
       style="fill:none;stroke:#f7c600;stroke-width:0.96212378pt;stroke-linecap:butt;stroke-linejoin:miter;stroke-opacity:1"
       id="path641"
       d="m 69.78628,170.5296 9.33539,-13.7109 9.38089,13.7396" />
    <path
       transform="matrix(1.086991,0,0,1.087005,-6.965268,-4.956314)"
       style="fill:#f7c600;fill-opacity:1;fill-rule:evenodd;stroke:#000000;stroke-width:0.55322123;stroke-linecap:butt;stroke-linejoin:miter;stroke-opacity:1;stroke-dasharray:none"
       id="path642"
       d="m 80.922043,156.72391 c 3.23e-4,0.94218 -0.763404,1.70614 -1.70562,1.70614 -0.942216,0 -1.705943,-0.76396 -1.70562,-1.70614 -3.23e-4,-0.94218 0.763404,-1.70614 1.70562,-1.70614 0.942216,0 1.705943,0.76396 1.70562,1.70614 z" />
    <path
       style="fill:#f7c600;fill-opacity:1;fill-rule:evenodd;stroke:#000000;stroke-width:0.60132736;stroke-linecap:butt;stroke-linejoin:miter;stroke-opacity:1;stroke-dasharray:none"
       id="path643"
       d="m 71.54115,180.6562 14.4728,0.0412 c 0,0 0.22693,-1.8783 -1.51173,-3.0199 7.58054,-1.0424 5.61121,-7.7289 11.95988,-8.1079 1.23184,0.1895 -3.31647,2.8427 -3.31647,2.8427 0,0 -3.82774,2.7012 -2.08465,4.0745 1.38387,1.0903 1.98989,-0.6632 2.17941,-1.9898 0.18951,-1.3266 6.15915,-2.1794 5.30636,-5.9696 -1.42135,-3.127 -9.75992,2.0845 -9.75992,2.0845 l -5.94908,-0.033 c -0.37093,-0.6677 -2.01046,-3.3452 -3.70363,-3.3576 -2.00875,0.0733 -3.42369,3.3906 -3.42369,3.3906 l -8.62284,0 -4.83258,0 c 0,0 -0.46132,3.4524 6.36116,4.1157 1.53604,2.0061 2.72675,2.5666 4.06206,3.0859 -0.89021,0.7419 -1.14082,1.6394 -1.13708,2.8427 z" />
    <path
       style="fill:none;stroke:#000000;stroke-width:0.60132736;stroke-linecap:butt;stroke-linejoin:miter;stroke-opacity:1;stroke-dasharray:none"
       id="path644"
       d="m 72.58347,177.7187 12.05464,-0.0411" />
    <path
       style="fill:none;stroke:#000000;stroke-width:0.60132736;stroke-linecap:butt;stroke-linejoin:miter;stroke-opacity:1;stroke-dasharray:none"
       id="path645"
       d="m 67.06232,170.6113 c 0,0 0.96439,5.6381 5.41543,6.9734" />
    <path
       style="fill:url(#linearGradient2139);fill-opacity:1;fill-rule:evenodd;stroke:#000000;stroke-width:0.60132736;stroke-linecap:butt;stroke-linejoin:miter;stroke-opacity:1;stroke-dasharray:none"
       id="path646"
       d="m 66.32047,170.5373 c 0.4451,-2.1513 1.26113,-2.5223 2.15134,-5.2671 0.14837,-2.6706 -2.15134,-2.3739 -1.48368,-4.0801 1.18694,-1.8546 0.59347,-3.635 -1.63205,-5.0445 0.44511,2.4481 -2.89317,4.7478 -2.89317,6.7507 0,2.003 1.70623,1.5579 1.48368,4.5995 0.14837,1.7803 -0.4451,1.3353 -0.59347,3.0415 l 2.96735,0 z" />
    <path
       transform="translate(-0.07418633,0.445068)"
       style="fill:#f7c600;fill-opacity:1;fill-rule:evenodd;stroke:#000000;stroke-width:0.60132736;stroke-linecap:butt;stroke-linejoin:miter;stroke-opacity:1;stroke-dasharray:none"
       id="path647"
       d="m 80.922043,156.72391 c 3.23e-4,0.94218 -0.763404,1.70614 -1.70562,1.70614 -0.942216,0 -1.705943,-0.76396 -1.70562,-1.70614 -3.23e-4,-0.94218 0.763404,-1.70614 1.70562,-1.70614 0.942216,0 1.705943,0.76396 1.70562,1.70614 z" />
  </g>
  <g
     transform="matrix(1.132231,0,0,1.5104386,639.40364,6.9014165)"
     id="g648">
    <path
       style="fill:none;stroke:#f7c600;stroke-width:0.96212378pt;stroke-linecap:butt;stroke-linejoin:miter;stroke-opacity:1"
       id="path649"
       d="m 69.78628,170.5296 9.33539,-13.7109 9.38089,13.7396" />
    <path
       transform="matrix(1.086991,0,0,1.087005,-6.965268,-4.956314)"
       style="fill:#f7c600;fill-opacity:1;fill-rule:evenodd;stroke:#000000;stroke-width:0.55322123;stroke-linecap:butt;stroke-linejoin:miter;stroke-opacity:1;stroke-dasharray:none"
       id="path650"
       d="m 80.922043,156.72391 c 3.23e-4,0.94218 -0.763404,1.70614 -1.70562,1.70614 -0.942216,0 -1.705943,-0.76396 -1.70562,-1.70614 -3.23e-4,-0.94218 0.763404,-1.70614 1.70562,-1.70614 0.942216,0 1.705943,0.76396 1.70562,1.70614 z" />
    <path
       style="fill:#f7c600;fill-opacity:1;fill-rule:evenodd;stroke:#000000;stroke-width:0.60132736;stroke-linecap:butt;stroke-linejoin:miter;stroke-opacity:1;stroke-dasharray:none"
       id="path651"
       d="m 71.54115,180.6562 14.4728,0.0412 c 0,0 0.22693,-1.8783 -1.51173,-3.0199 7.58054,-1.0424 5.61121,-7.7289 11.95988,-8.1079 1.23184,0.1895 -3.31647,2.8427 -3.31647,2.8427 0,0 -3.82774,2.7012 -2.08465,4.0745 1.38387,1.0903 1.98989,-0.6632 2.17941,-1.9898 0.18951,-1.3266 6.15915,-2.1794 5.30636,-5.9696 -1.42135,-3.127 -9.75992,2.0845 -9.75992,2.0845 l -5.94908,-0.033 c -0.37093,-0.6677 -2.01046,-3.3452 -3.70363,-3.3576 -2.00875,0.0733 -3.42369,3.3906 -3.42369,3.3906 l -8.62284,0 -4.83258,0 c 0,0 -0.46132,3.4524 6.36116,4.1157 1.53604,2.0061 2.72675,2.5666 4.06206,3.0859 -0.89021,0.7419 -1.14082,1.6394 -1.13708,2.8427 z" />
    <path
       style="fill:none;stroke:#000000;stroke-width:0.60132736;stroke-linecap:butt;stroke-linejoin:miter;stroke-opacity:1;stroke-dasharray:none"
       id="path652"
       d="m 72.58347,177.7187 12.05464,-0.0411" />
    <path
       style="fill:none;stroke:#000000;stroke-width:0.60132736;stroke-linecap:butt;stroke-linejoin:miter;stroke-opacity:1;stroke-dasharray:none"
       id="path653"
       d="m 67.06232,170.6113 c 0,0 0.96439,5.6381 5.41543,6.9734" />
    <path
       style="fill:url(#linearGradient2141);fill-opacity:1;fill-rule:evenodd;stroke:#000000;stroke-width:0.60132736;stroke-linecap:butt;stroke-linejoin:miter;stroke-opacity:1;stroke-dasharray:none"
       id="path654"
       d="m 66.32047,170.5373 c 0.4451,-2.1513 1.26113,-2.5223 2.15134,-5.2671 0.14837,-2.6706 -2.15134,-2.3739 -1.48368,-4.0801 1.18694,-1.8546 0.59347,-3.635 -1.63205,-5.0445 0.44511,2.4481 -2.89317,4.7478 -2.89317,6.7507 0,2.003 1.70623,1.5579 1.48368,4.5995 0.14837,1.7803 -0.4451,1.3353 -0.59347,3.0415 l 2.96735,0 z" />
    <path
       transform="translate(-0.07418633,0.445068)"
       style="fill:#f7c600;fill-opacity:1;fill-rule:evenodd;stroke:#000000;stroke-width:0.60132736;stroke-linecap:butt;stroke-linejoin:miter;stroke-opacity:1;stroke-dasharray:none"
       id="path655"
       d="m 80.922043,156.72391 c 3.23e-4,0.94218 -0.763404,1.70614 -1.70562,1.70614 -0.942216,0 -1.705943,-0.76396 -1.70562,-1.70614 -3.23e-4,-0.94218 0.763404,-1.70614 1.70562,-1.70614 0.942216,0 1.705943,0.76396 1.70562,1.70614 z" />
  </g>
  <path
     style="font-size:12px;fill:none;stroke:#f7c600;stroke-width:1.25820076"
     id="path657"
     d="m 719.7617,387.05898 10.56982,-20.70946 10.62133,20.7528" />
  <path
     style="font-size:12px;fill:#f7c600;fill-rule:evenodd;stroke:#000000;stroke-width:0.78640544"
     id="path658"
     d="m 732.45396,379.31608 c 4.1e-4,1.54693 -0.93954,2.80122 -2.09913,2.80122 -1.15961,0 -2.09956,-1.25429 -2.09915,-2.80122 -4.1e-4,-1.54692 0.93954,-2.80123 2.09915,-2.80123 1.15959,0 2.09954,1.25431 2.09913,2.80123 z" />
  <path
     style="font-size:12px;fill:#f7c600;fill-rule:evenodd;stroke:#000000;stroke-width:0.78637546"
     id="path659"
     d="m 721.74863,402.35458 16.38654,0.0622 c 0,0 0.25694,-2.83705 -1.71163,-4.56137 8.58292,-1.57448 6.35318,-11.67403 13.54135,-12.24648 1.39472,0.28624 -3.75501,4.29372 -3.75501,4.29372 0,0 -4.33389,4.08001 -2.36031,6.15428 1.56686,1.64683 2.25302,-1.00172 2.46761,-3.00547 0.21455,-2.00375 6.97357,-3.29186 6.00801,-9.01672 -1.60929,-4.72313 -11.05048,3.14852 -11.05048,3.14852 l -6.73573,-0.0498 c -0.41999,-1.00853 -2.2763,-5.05272 -4.19336,-5.07145 -2.27437,0.11068 -3.87641,5.1213 -3.87641,5.1213 l -9.76305,0 -5.47159,0 c 0,0 -0.52232,5.21463 7.2023,6.2165 1.73915,3.03009 3.08731,3.87669 4.59919,4.66107 -1.00793,1.1206 -1.29167,2.47621 -1.28743,4.29372 z" />
  <path
     style="font-size:12px;fill:none;stroke:#000000;stroke-width:0.78637546"
     id="path660"
     d="m 722.92877,397.91767 13.64864,-0.0621" />
  <path
     style="font-size:12px;fill:none;stroke:#000000;stroke-width:0.78637546"
     id="path661"
     d="m 716.67755,387.18238 c 0,0 1.09192,8.516 6.13153,10.53289" />
  <path
     style="font-size:12px;fill:url(#linearGradient2243);fill-rule:evenodd;stroke:#000000;stroke-width:0.78637546;stroke-dasharray:none"
     id="path662"
     d="m 715.83761,387.07062 c 0.50395,-3.24941 1.42789,-3.80978 2.43581,-7.95565 0.16799,-4.03377 -2.43581,-3.58562 -1.67987,-6.16273 1.34389,-2.80126 0.67195,-5.49044 -1.84785,-7.6194 0.50396,3.6977 -3.27574,7.17125 -3.27574,10.19651 0,3.02541 1.93185,2.35312 1.67987,6.94725 0.16799,2.68904 -0.50395,2.0169 -0.67194,4.59402 l 3.35972,0 z" />
  <path
     style="font-size:12px;fill:#f7c600;fill-rule:evenodd;stroke:#000000;stroke-width:0.78637546"
     id="path663"
     d="m 732.28596,366.8785 c 3.7e-4,1.4231 -0.86434,2.57701 -1.93114,2.57701 -1.06682,0 -1.93153,-1.15391 -1.93116,-2.57701 -3.7e-4,-1.42312 0.86434,-2.57703 1.93116,-2.57703 1.0668,0 1.93151,1.15391 1.93114,2.57703 z" />
  <g
     transform="matrix(1.132231,0,0,1.5104386,640.57952,88.474088)"
     id="g664">
    <path
       style="fill:none;stroke:#f7c600;stroke-width:0.96212378pt;stroke-linecap:butt;stroke-linejoin:miter;stroke-opacity:1"
       id="path665"
       d="m 69.78628,170.5296 9.33539,-13.7109 9.38089,13.7396" />
    <path
       transform="matrix(1.086991,0,0,1.087005,-6.965268,-4.956314)"
       style="fill:#f7c600;fill-opacity:1;fill-rule:evenodd;stroke:#000000;stroke-width:0.55322123;stroke-linecap:butt;stroke-linejoin:miter;stroke-opacity:1;stroke-dasharray:none"
       id="path666"
       d="m 80.922043,156.72391 c 3.23e-4,0.94218 -0.763404,1.70614 -1.70562,1.70614 -0.942216,0 -1.705943,-0.76396 -1.70562,-1.70614 -3.23e-4,-0.94218 0.763404,-1.70614 1.70562,-1.70614 0.942216,0 1.705943,0.76396 1.70562,1.70614 z" />
    <path
       style="fill:#f7c600;fill-opacity:1;fill-rule:evenodd;stroke:#000000;stroke-width:0.60132736;stroke-linecap:butt;stroke-linejoin:miter;stroke-opacity:1;stroke-dasharray:none"
       id="path667"
       d="m 71.54115,180.6562 14.4728,0.0412 c 0,0 0.22693,-1.8783 -1.51173,-3.0199 7.58054,-1.0424 5.61121,-7.7289 11.95988,-8.1079 1.23184,0.1895 -3.31647,2.8427 -3.31647,2.8427 0,0 -3.82774,2.7012 -2.08465,4.0745 1.38387,1.0903 1.98989,-0.6632 2.17941,-1.9898 0.18951,-1.3266 6.15915,-2.1794 5.30636,-5.9696 -1.42135,-3.127 -9.75992,2.0845 -9.75992,2.0845 l -5.94908,-0.033 c -0.37093,-0.6677 -2.01046,-3.3452 -3.70363,-3.3576 -2.00875,0.0733 -3.42369,3.3906 -3.42369,3.3906 l -8.62284,0 -4.83258,0 c 0,0 -0.46132,3.4524 6.36116,4.1157 1.53604,2.0061 2.72675,2.5666 4.06206,3.0859 -0.89021,0.7419 -1.14082,1.6394 -1.13708,2.8427 z" />
    <path
       style="fill:none;stroke:#000000;stroke-width:0.60132736;stroke-linecap:butt;stroke-linejoin:miter;stroke-opacity:1;stroke-dasharray:none"
       id="path668"
       d="m 72.58347,177.7187 12.05464,-0.0411" />
    <path
       style="fill:none;stroke:#000000;stroke-width:0.60132736;stroke-linecap:butt;stroke-linejoin:miter;stroke-opacity:1;stroke-dasharray:none"
       id="path669"
       d="m 67.06232,170.6113 c 0,0 0.96439,5.6381 5.41543,6.9734" />
    <path
       style="fill:url(#linearGradient2145);fill-opacity:1;fill-rule:evenodd;stroke:#000000;stroke-width:0.60132736;stroke-linecap:butt;stroke-linejoin:miter;stroke-opacity:1;stroke-dasharray:none"
       id="path670"
       d="m 66.32047,170.5373 c 0.4451,-2.1513 1.26113,-2.5223 2.15134,-5.2671 0.14837,-2.6706 -2.15134,-2.3739 -1.48368,-4.0801 1.18694,-1.8546 0.59347,-3.635 -1.63205,-5.0445 0.44511,2.4481 -2.89317,4.7478 -2.89317,6.7507 0,2.003 1.70623,1.5579 1.48368,4.5995 0.14837,1.7803 -0.4451,1.3353 -0.59347,3.0415 l 2.96735,0 z" />
    <path
       transform="translate(-0.07418633,0.445068)"
       style="fill:#f7c600;fill-opacity:1;fill-rule:evenodd;stroke:#000000;stroke-width:0.60132736;stroke-linecap:butt;stroke-linejoin:miter;stroke-opacity:1;stroke-dasharray:none"
       id="path671"
       d="m 80.922043,156.72391 c 3.23e-4,0.94218 -0.763404,1.70614 -1.70562,1.70614 -0.942216,0 -1.705943,-0.76396 -1.70562,-1.70614 -3.23e-4,-0.94218 0.763404,-1.70614 1.70562,-1.70614 0.942216,0 1.705943,0.76396 1.70562,1.70614 z" />
  </g>
  <g
     transform="matrix(1.132231,0,0,1.5104386,551.27741,50.357164)"
     id="g576">
    <path
       style="fill:none;stroke:#f7c600;stroke-width:0.96212378pt;stroke-linecap:butt;stroke-linejoin:miter;stroke-opacity:1"
       id="path563"
       d="m 69.78628,170.5296 9.33539,-13.7109 9.38089,13.7396" />
    <path
       transform="matrix(1.086991,0,0,1.087005,-6.965268,-4.956314)"
       style="fill:#f7c600;fill-opacity:1;fill-rule:evenodd;stroke:#000000;stroke-width:0.55322123;stroke-linecap:butt;stroke-linejoin:miter;stroke-opacity:1;stroke-dasharray:none"
       id="path564"
       d="m 80.922043,156.72391 c 3.23e-4,0.94218 -0.763404,1.70614 -1.70562,1.70614 -0.942216,0 -1.705943,-0.76396 -1.70562,-1.70614 -3.23e-4,-0.94218 0.763404,-1.70614 1.70562,-1.70614 0.942216,0 1.705943,0.76396 1.70562,1.70614 z" />
    <path
       style="fill:#f7c600;fill-opacity:1;fill-rule:evenodd;stroke:#000000;stroke-width:0.60132736;stroke-linecap:butt;stroke-linejoin:miter;stroke-opacity:1;stroke-dasharray:none"
       id="path565"
       d="m 71.54115,180.6562 14.4728,0.0412 c 0,0 0.22693,-1.8783 -1.51173,-3.0199 7.58054,-1.0424 5.61121,-7.7289 11.95988,-8.1079 1.23184,0.1895 -3.31647,2.8427 -3.31647,2.8427 0,0 -3.82774,2.7012 -2.08465,4.0745 1.38387,1.0903 1.98989,-0.6632 2.17941,-1.9898 0.18951,-1.3266 6.15915,-2.1794 5.30636,-5.9696 -1.42135,-3.127 -9.75992,2.0845 -9.75992,2.0845 l -5.94908,-0.033 c -0.37093,-0.6677 -2.01046,-3.3452 -3.70363,-3.3576 -2.00875,0.0733 -3.42369,3.3906 -3.42369,3.3906 l -8.62284,0 -4.83258,0 c 0,0 -0.46132,3.4524 6.36116,4.1157 1.53604,2.0061 2.72675,2.5666 4.06206,3.0859 -0.89021,0.7419 -1.14082,1.6394 -1.13708,2.8427 z" />
    <path
       style="fill:none;stroke:#000000;stroke-width:0.60132736;stroke-linecap:butt;stroke-linejoin:miter;stroke-opacity:1;stroke-dasharray:none"
       id="path566"
       d="m 72.58347,177.7187 12.05464,-0.0411" />
    <path
       style="fill:none;stroke:#000000;stroke-width:0.60132736;stroke-linecap:butt;stroke-linejoin:miter;stroke-opacity:1;stroke-dasharray:none"
       id="path568"
       d="m 67.06232,170.6113 c 0,0 0.96439,5.6381 5.41543,6.9734" />
    <path
       style="fill:url(#linearGradient2147);fill-opacity:1;fill-rule:evenodd;stroke:#000000;stroke-width:0.60132736;stroke-linecap:butt;stroke-linejoin:miter;stroke-opacity:1;stroke-dasharray:none"
       id="path569"
       d="m 66.32047,170.5373 c 0.4451,-2.1513 1.26113,-2.5223 2.15134,-5.2671 0.14837,-2.6706 -2.15134,-2.3739 -1.48368,-4.0801 1.18694,-1.8546 0.59347,-3.635 -1.63205,-5.0445 0.44511,2.4481 -2.89317,4.7478 -2.89317,6.7507 0,2.003 1.70623,1.5579 1.48368,4.5995 0.14837,1.7803 -0.4451,1.3353 -0.59347,3.0415 l 2.96735,0 z" />
    <path
       transform="translate(-0.07418633,0.445068)"
       style="fill:#f7c600;fill-opacity:1;fill-rule:evenodd;stroke:#000000;stroke-width:0.60132736;stroke-linecap:butt;stroke-linejoin:miter;stroke-opacity:1;stroke-dasharray:none"
       id="path575"
       d="m 80.922043,156.72391 c 3.23e-4,0.94218 -0.763404,1.70614 -1.70562,1.70614 -0.942216,0 -1.705943,-0.76396 -1.70562,-1.70614 -3.23e-4,-0.94218 0.763404,-1.70614 1.70562,-1.70614 0.942216,0 1.705943,0.76396 1.70562,1.70614 z" />
  </g>
  <g
     id="g729"
     transform="matrix(1.132231,0,0,1.5104386,529.22367,128.58686)">
    <path
       style="fill:#f7c600;fill-opacity:1;fill-rule:evenodd;stroke:#000000;stroke-width:0.60132736;stroke-linecap:butt;stroke-linejoin:miter;stroke-opacity:1;stroke-dasharray:none"
       id="path718"
       d="m 139.2183,183.9001 c 0,0 3.7768,8.7077 8.0782,3.3572 4.3014,-5.3505 2.7278,-7.6586 2.7278,-7.6586 l -9.652,-5.2456 -2.8326,5.98 1.6786,3.567 z" />
    <path
       style="fill:#ffc6b5;fill-opacity:1;fill-rule:evenodd;stroke:#000000;stroke-width:0.60132736;stroke-linecap:butt;stroke-linejoin:miter;stroke-opacity:1;stroke-dasharray:none"
       id="path678"
       d="m 147.5064,182.746 c 0,0 0.6294,0.105 1.154,-0.8392 0.5246,-0.9442 -1.154,-1.364 -1.8884,-2.4131 l -0.8393,1.6787 1.5737,1.5736 z" />
    <path
       style="fill:#ffc6b5;fill-opacity:1;fill-rule:evenodd;stroke:#000000;stroke-width:0.60132736;stroke-linecap:butt;stroke-linejoin:miter;stroke-opacity:1;stroke-dasharray:none"
       id="path675"
       d="m 125.6847,180.438 -8.4979,4.6161 c 0,0 -4.1965,0.8392 -4.5112,0 -0.3148,-0.8393 0.1049,-1.5737 2.308,-1.6786 2.2032,-0.1049 8.1832,-5.5604 8.1832,-5.5604 l 2.5179,2.6229 z" />
    <path
       style="fill:#ffc6b5;fill-opacity:1;fill-rule:evenodd;stroke:#000000;stroke-width:0.60132736;stroke-linecap:butt;stroke-linejoin:miter;stroke-opacity:1;stroke-dasharray:none"
       id="path674"
       d="m 125.7896,29.4695 c 0,0 0.2098,1.99333 0.3147,3.04245 0.1049,1.04912 -1.6786,3.25226 -1.7835,3.14735 -0.1049,-0.1049 -0.9442,0.10491 -0.8393,0.73441 0.1049,0.6295 1.3639,0.83931 1.3639,0.83931 0,0 -0.5246,2.20314 0,2.30804 0.5245,0.10491 -1.3639,2.83272 0,3.56705 1.3638,0.73433 3.6719,1.67854 4.721,1.46873 1.0491,-0.20981 0,4.09157 0,4.09157 l -2.9375,6.29471 16.1564,-1.67854 -3.3572,-5.35057 c 0,0 -1.5736,-1.04912 -1.154,-4.09157 0.4197,-3.04245 -0.2098,-16.78589 -0.2098,-16.78589 l -11.5403,-1.57372 -0.7344,3.98667 z" />
    <path
       style="fill:#ffc6b5;fill-opacity:1;fill-rule:evenodd;stroke:#000000;stroke-width:0.60132736;stroke-linecap:butt;stroke-linejoin:miter;stroke-opacity:1;stroke-dasharray:none"
       id="path672"
       d="m 122.852,53.38951 c 0,0 -5.2456,2.41303 -5.0358,8.91754 -1.3638,6.29471 -2.0982,12.58942 -2.0982,12.58942 0,0 -6.1898,7.02904 -8.0782,9.54697 -1.8884,2.51792 -4.7211,7.65853 -5.7702,9.02244 -1.0491,1.36391 -5.14066,5.87517 -5.03576,7.55372 0.10491,1.6785 -0.94421,9.1274 3.14735,9.9666 1.04911,0.4196 4.40631,-8.6028 4.40631,-8.6028 0,0 0.2098,-3.88166 -0.9442,-4.61607 -1.154,-0.7344 2.5179,-3.25233 2.5179,-3.25233 0,0 7.0291,-5.14069 8.6028,-6.39961 1.5737,-1.25893 5.8751,-6.0849 5.8751,-6.0849 l 2.4129,-28.64098 z" />
    <path
       style="fill:#ffffff;fill-opacity:1;fill-rule:evenodd;stroke:#000000;stroke-width:0.60132736;stroke-linecap:butt;stroke-linejoin:miter;stroke-opacity:1;stroke-dasharray:none"
       id="path679"
       d="m 128.832,48.45863 c 0,0 1.3639,3.67195 4.4063,3.04245 3.0425,-0.6295 6.6095,-3.46206 6.6095,-3.46206 0,0 2.8326,-0.10491 3.2523,0.31471 0.4196,0.41962 7.6585,7.44865 7.4487,9.65187 -0.2098,2.20322 -3.3572,1.57364 -4.5112,3.04245 -1.154,1.46881 -3.0425,5.14069 -2.5179,7.86842 0.5246,2.72774 2.0982,6.29479 1.8884,7.65862 -0.2098,1.36383 -1.3638,1.78345 -1.3638,2.51785 0,0.73441 0.9442,1.99341 0.9442,3.35724 0,1.36383 -1.259,3.35709 -1.0491,4.72099 0.2098,1.36391 0.3147,5.3505 0.3147,5.3505 l -0.3147,18.46453 c 0,0 1.0491,0.6294 1.154,1.6786 0.1049,1.0491 7.134,31.5785 7.134,31.5785 0,0 -0.3147,0.9442 -1.0491,0.8393 -0.7344,-0.1049 2.8326,4.721 2.9375,6.0849 0.1049,1.3639 3.672,12.065 3.567,13.5337 -0.1049,1.4687 -0.6294,4.721 -0.9442,4.8259 -0.3147,0.1049 2.3081,6.7144 1.8884,7.7635 -0.4196,1.0491 -4.721,0.9442 -4.721,0.9442 l -1.154,-0.2098 c 0,0 0.1049,1.3639 -0.7344,1.4688 -0.8393,0.1049 -7.0291,-0.3148 -7.0291,-0.3148 0,0 -1.7835,2.7277 -2.8326,2.6228 -1.0492,-0.1049 -2.413,-1.9933 -2.7278,-1.6785 -0.3147,0.3147 0.9443,2.0981 0.6295,2.6227 -0.3147,0.5246 -5.6652,1.6787 -6.7144,-0.8392 -1.0491,-2.5179 0.6295,-1.8885 0.3148,-2.413 -0.3148,-0.5246 -2.7277,-1.8884 -3.4621,-1.4688 -0.7344,0.4196 1.8884,1.0491 1.7835,2.0983 -0.1049,1.0491 -2.3081,2.6227 -3.1474,2.6227 -0.8393,0 -2.8326,-3.8817 -5.7701,-3.462 -2.9376,0.4196 -4.826,1.154 -4.826,1.154 0,0 -3.4621,1.4687 -4.9309,1.154 -1.4687,-0.3147 -2.0982,-1.4688 -2.0982,-2.0982 0,-0.6295 1.0491,-3.3572 0.9442,-4.1965 -0.1049,-0.8393 -0.9442,-1.6786 -0.9442,-2.9376 0,-1.2589 2.413,-5.5603 2.413,-5.5603 l -0.1049,-19.3038 c 0,0 -2.2032,-1e-4 -2.3081,-1.3639 -0.1049,-1.3638 3.3572,-30.5294 3.8817,-32.4178 0.5246,-1.8884 1.8885,-8.6028 1.8885,-8.6028 0,0 -1.5737,0.7344 -1.6786,0 -0.1049,-0.7344 4.721,-17.41533 4.721,-17.41533 0,0 0.8393,-8.28812 0.8393,-10.49126 0,-2.20314 -0.4196,-5.24559 -0.4196,-5.24559 0,0 -4.3072,-1.82335 -4.4064,-4.61609 -0.3939,-4.44335 4.0916,-6.92428 4.6162,-8.39302 0.5245,-1.46873 2.0982,-5.87501 2.0982,-5.87501 0,0 2.3081,-3.98667 6.0849,-4.61617 z" />
    <path
       style="fill:#f7c600;fill-opacity:1;fill-rule:evenodd;stroke:#000000;stroke-width:0.60132736;stroke-linecap:butt;stroke-linejoin:miter;stroke-opacity:1;stroke-dasharray:none"
       id="path717"
       d="m 127.2583,181.6969 c 0,0 -10.1764,5.3506 -11.6452,5.7702 -1.4688,0.4196 -2.413,-1.7835 -0.9442,-2.2032 1.4688,-0.4196 3.7768,-0.6295 3.7768,-0.6295 0,0 -3.4621,-2.7277 -3.3572,-2.8326 0.105,-0.1049 4.7211,-1.7834 4.826,-1.7834 0.1049,0 1.4688,2.7276 2.413,2.5178 0.9442,-0.2098 3.6719,-2.308 3.6719,-2.308 0,0 1.4688,1.6786 1.2589,1.4687 z" />
    <path
       style="fill:#ffc6b5;fill-opacity:1;fill-rule:evenodd;stroke:#000000;stroke-width:0.60132736;stroke-linecap:butt;stroke-linejoin:miter;stroke-opacity:1;stroke-dasharray:none"
       id="path676"
       d="m 141.5953,184.6344 c 0.9622,1.2409 1.3384,3.3932 3.5416,2.1343 2.2031,-1.2589 -1.1286,-3.5956 -1.1286,-3.5956 l -2.413,1.4613 z" />
    <path
       style="fill:#ffc6b5;fill-opacity:1;fill-rule:evenodd;stroke:#000000;stroke-width:0.60132736;stroke-linecap:butt;stroke-linejoin:miter;stroke-opacity:1;stroke-dasharray:none"
       id="path677"
       d="m 145.618,184.4246 c 0,0 1.0491,0.8393 1.9933,-0.1049 0.9442,-0.9442 -1.8885,-2.9375 -1.8885,-2.9375 l -1.3638,1.5737 1.259,1.4687 z" />
    <path
       style="fill:none;stroke:#000000;stroke-width:0.60132736;stroke-linecap:butt;stroke-linejoin:miter;stroke-opacity:1;stroke-dasharray:none"
       id="path680"
       d="m 142.4706,52.55017 c 0,0 -9.3372,5.98 -9.1274,8.07823" />
    <path
       style="fill:none;stroke:#000000;stroke-width:0.60132736;stroke-linecap:butt;stroke-linejoin:miter;stroke-opacity:1;stroke-dasharray:none"
       id="path681"
       d="m 144.5688,53.59929 c 0,0 -2.0982,2.30804 -2.2031,2.30804" />
    <path
       style="fill:none;stroke:#000000;stroke-width:0.60132736;stroke-linecap:butt;stroke-linejoin:miter;stroke-opacity:1;stroke-dasharray:none"
       id="path682"
       d="m 147.4015,56.11722 c 0,0 -4.6162,3.77685 -3.8818,6.1898" />
    <path
       style="fill:none;stroke:#000000;stroke-width:0.60132736;stroke-linecap:butt;stroke-linejoin:miter;stroke-opacity:1;stroke-dasharray:none"
       id="path683"
       d="m 125.5797,52.02565 c 0,0 -1.3638,2.83257 -1.0491,3.77678 0.3148,0.94421 2.6228,4.51126 2.9376,6.7144 0.3147,2.20314 0,3.77686 0,3.77686" />
    <path
       style="fill:none;stroke:#000000;stroke-width:0.60132736;stroke-linecap:butt;stroke-linejoin:miter;stroke-opacity:1;stroke-dasharray:none"
       id="path684"
       d="m 123.1668,57.27124 c 0,0 0.4196,3.35724 1.0491,3.98666 0.6295,0.62943 2.3081,3.46207 2.5179,4.61609" />
    <path
       style="fill:none;stroke:#000000;stroke-width:0.60132736;stroke-linecap:butt;stroke-linejoin:miter;stroke-opacity:1;stroke-dasharray:none"
       id="path685"
       d="m 122.3275,71.22449 c 0,0 2.7277,1.36398 5.2456,-3.88169" />
    <path
       style="fill:none;stroke:#000000;stroke-width:0.60132736;stroke-linecap:butt;stroke-linejoin:miter;stroke-opacity:1;stroke-dasharray:none"
       id="path686"
       d="m 131.6646,63.67085 c -0.1049,0 -1.9933,5.14069 1.3639,7.02912 3.3572,1.88842 5.8751,1.67854 7.3438,1.15402 1.4688,-0.52452 3.0425,-1.46874 3.0425,-1.46874" />
    <path
       style="fill:none;stroke:#000000;stroke-width:0.60132736;stroke-linecap:butt;stroke-linejoin:miter;stroke-opacity:1;stroke-dasharray:none"
       id="path687"
       d="m 130.1959,69.96556 c 0,0 0.2098,6.92429 10.3863,13.74352" />
    <path
       style="fill:none;stroke:#000000;stroke-width:0.60132736;stroke-linecap:butt;stroke-linejoin:miter;stroke-opacity:1;stroke-dasharray:none"
       id="path688"
       d="m 130.6155,76.47015 c 0,0 -0.1049,6.08483 3.8818,8.81256" />
    <path
       style="fill:none;stroke:#000000;stroke-width:0.60132736;stroke-linecap:butt;stroke-linejoin:miter;stroke-opacity:1;stroke-dasharray:none"
       id="path689"
       d="m 128.5173,69.33614 c 0,0 -3.0425,9.02237 -5.4554,9.96658" />
    <path
       style="fill:none;stroke:#000000;stroke-width:0.60132736;stroke-linecap:butt;stroke-linejoin:miter;stroke-opacity:1;stroke-dasharray:none"
       id="path690"
       d="m 127.5731,75.94556 c 0,0 -0.1049,6.50459 -0.9442,8.81263" />
    <path
       style="fill:none;stroke:#000000;stroke-width:0.60132736;stroke-linecap:butt;stroke-linejoin:miter;stroke-opacity:1;stroke-dasharray:none"
       id="path691"
       d="m 125.7896,86.33183 c 0,0 2.0982,2.62284 4.4063,2.41303 2.308,-0.20981 3.2522,-2.93762 4.8259,-2.51793 1.5737,0.41969 3.0425,1.67869 6.7144,1.36391" />
    <path
       style="fill:none;stroke:#000000;stroke-width:0.60132736;stroke-linecap:butt;stroke-linejoin:miter;stroke-opacity:1;stroke-dasharray:none"
       id="path692"
       d="m 136.4906,90.3185 c 0,0 0,5.35049 0.9442,5.87509 0.9442,0.5246 0.5246,5.45541 0.5246,5.45541" />
    <path
       style="fill:none;stroke:#000000;stroke-width:0.60132736;stroke-linecap:butt;stroke-linejoin:miter;stroke-opacity:1;stroke-dasharray:none"
       id="path693"
       d="m 123.6913,87.80064 c 0,0 -0.1049,5.03586 -0.7344,6.81931 -0.6294,1.78345 -1.8884,4.82597 -1.6785,7.44875" />
    <path
       style="fill:none;stroke:#000000;stroke-width:0.60132736;stroke-linecap:butt;stroke-linejoin:miter;stroke-opacity:1;stroke-dasharray:none"
       id="path694"
       d="m 117.2917,105.0061 c 0.5245,-0.2098 2.3081,-1.7834 2.3081,-1.7834" />
    <path
       style="fill:none;stroke:#000000;stroke-width:0.60132736;stroke-linecap:butt;stroke-linejoin:miter;stroke-opacity:1;stroke-dasharray:none"
       id="path695"
       d="m 120.544,104.3767 c 0,0 -4.5113,19.3039 -3.2523,30.8442" />
    <path
       style="fill:none;stroke:#000000;stroke-width:0.60132736;stroke-linecap:butt;stroke-linejoin:miter;stroke-opacity:1;stroke-dasharray:none"
       id="path696"
       d="m 121.5931,105.3209 c 0,0 -2.3081,14.4779 -1.259,17.2056" />
    <path
       style="fill:none;stroke:#000000;stroke-width:0.60132736;stroke-linecap:butt;stroke-linejoin:miter;stroke-opacity:1;stroke-dasharray:none"
       id="path697"
       d="m 120.4391,104.9013 c 0.1049,0 8.8126,0.6294 8.8126,0.6294" />
    <path
       style="fill:none;stroke:#000000;stroke-width:0.60132736;stroke-linecap:butt;stroke-linejoin:miter;stroke-opacity:1;stroke-dasharray:none"
       id="path698"
       d="m 130.5106,104.3767 c 0,0 2.413,1.259 5.7702,1.0491" />
    <path
       style="fill:none;stroke:#000000;stroke-width:0.60132736;stroke-linecap:butt;stroke-linejoin:miter;stroke-opacity:1;stroke-dasharray:none"
       id="path699"
       d="m 129.4615,111.4058 c 0,0 -0.4197,24.7593 -1.0491,30.2147" />
    <path
       style="fill:none;stroke:#000000;stroke-width:0.60132736;stroke-linecap:butt;stroke-linejoin:miter;stroke-opacity:1;stroke-dasharray:none"
       id="path700"
       d="m 142.3657,117.0711 c 0,0 2.7277,21.7168 4.3014,23.7101" />
    <path
       style="fill:none;stroke:#000000;stroke-width:0.60132736;stroke-linecap:butt;stroke-linejoin:miter;stroke-opacity:1;stroke-dasharray:none"
       id="path701"
       d="m 137.1201,119.7988 c 0,0 1.6786,19.1989 2.6228,20.8775" />
    <path
       style="fill:none;stroke:#000000;stroke-width:0.60132736;stroke-linecap:butt;stroke-linejoin:miter;stroke-opacity:1;stroke-dasharray:none"
       id="path702"
       d="m 113.3051,147.3907 c 0,0 3.2522,-1.0492 6.1897,-4.1965 3.3573,4.5112 8.4979,0.2099 8.4979,0.2099 0,0 7.9733,5.4554 11.5404,-0.6295 5.4554,3.567 8.1831,-0.5246 8.1831,-0.5246 0,0 1.9934,3.0424 3.4621,2.7277" />
    <path
       style="fill:none;stroke:#000000;stroke-width:0.60132736;stroke-linecap:butt;stroke-linejoin:miter;stroke-opacity:1;stroke-dasharray:none"
       id="path703"
       d="m 142.4706,147.0759 c 0,0 4.0916,19.199 10.1765,24.6544" />
    <path
       style="fill:none;stroke:#000000;stroke-width:0.60132736;stroke-linecap:butt;stroke-linejoin:miter;stroke-opacity:1;stroke-dasharray:none"
       id="path704"
       d="m 121.3833,145.0826 c 0,0 0.5245,16.0516 1.4687,27.382" />
    <path
       style="fill:none;stroke:#000000;stroke-width:0.60132736;stroke-linecap:butt;stroke-linejoin:miter;stroke-opacity:1;stroke-dasharray:none"
       id="path705"
       d="m 120.6489,163.2324 c 0,0 -0.5246,10.4912 -1.1541,11.2256" />
    <path
       style="fill:none;stroke:#000000;stroke-width:0.60132736;stroke-linecap:butt;stroke-linejoin:miter;stroke-opacity:1;stroke-dasharray:none"
       id="path707"
       d="m 114.4591,175.5071 c 0,0 1.154,4.5113 6.9242,0.3148 5.7701,-4.1966 5.875,1.5737 6.0849,2.2031 0.2098,0.6294 1.154,5.1407 3.3571,1.3639" />
    <path
       style="fill:none;stroke:#000000;stroke-width:0.60132736;stroke-linecap:butt;stroke-linejoin:miter;stroke-opacity:1;stroke-dasharray:none"
       id="path708"
       d="m 135.4415,173.1991 c 0,0 -0.9442,9.337 7.3438,2.5178 8.2881,-6.8192 9.6519,-0.1048 9.8617,1.9934" />
    <path
       style="fill:#9c5100;fill-opacity:1;fill-rule:evenodd;stroke:#000000;stroke-width:0.60132736;stroke-linecap:butt;stroke-linejoin:miter;stroke-opacity:1;stroke-dasharray:none"
       id="path709"
       d="m 125.4748,28.8401 c 0,0 2.3081,0.31464 3.567,-0.41969 1.259,-0.73433 2.7278,-1.04904 3.7769,0.41969 1.0491,1.46874 1.7835,1.36383 1.7835,1.36383 0,0 -1.5737,3.88169 0,4.30138 1.5737,0.41969 2.308,0.41962 2.413,0.94421 0.1049,0.5246 -1.3639,1.67855 -0.9443,2.20314 0.4197,0.5246 1.1541,1.1541 1.259,1.57372 0.1049,0.41962 -0.9442,2.20306 -0.6295,2.62276 0.3148,0.41969 1.259,2.09831 1.8884,2.09831 0.6295,0 0.2099,2.62283 2.0983,1.99333 1.8884,-0.6295 1.7835,-2.30812 1.7835,-2.30812 0,0 1.9933,-0.31471 2.5179,-2.09824 0.5245,-1.78352 1.7835,-2.20314 1.7835,-2.20314 0,0 2.5179,-1.36383 -0.8393,-3.46206 0,-14.68773 -9.6519,-13.11402 -9.6519,-13.11402 0,0 -1.1541,-2.62291 -3.0425,-2.30812 -1.8884,0.31479 -1.9933,2.51801 -3.3572,2.30812 -1.3638,-0.20988 -1.6785,-1.15402 -1.7835,-1.04911 -0.1049,0.1049 -1.2589,2.20306 -1.2589,2.72766 0,0.52459 -3.6719,-0.73441 -3.3572,1.99333 0.3147,2.72774 2.0982,2.62283 1.9933,2.41302 z" />
    <path
       style="fill:none;stroke:#000000;stroke-width:0.60132736;stroke-linecap:butt;stroke-linejoin:miter;stroke-opacity:1;stroke-dasharray:none"
       id="path710"
       d="m 135.5464,25.27306 c 0,0 -0.7344,4.61608 4.1965,4.19647 -0.6295,2.51793 1.2589,3.35724 1.2589,3.35724" />
    <path
       style="fill:none;stroke:#000000;stroke-width:0.60132736;stroke-linecap:butt;stroke-linejoin:miter;stroke-opacity:1;stroke-dasharray:none"
       id="path711"
       d="m 144.6737,35.6593 c 0.105,0 2.2032,1.36383 -0.1049,3.04245" />
    <path
       style="fill:none;stroke:#000000;stroke-width:0.60132736;stroke-linecap:butt;stroke-linejoin:miter;stroke-opacity:1;stroke-dasharray:none"
       id="path712"
       d="m 137.5398,39.33121 c 0,0 1.049,1.259 2.2031,0.94429 1.154,-0.31472 3.0424,1.15402 3.0424,1.15402 0,0 1.5737,0.52452 1.7835,0.20981" />
    <path
       style="fill:none;stroke:#000000;stroke-width:0.60132736;stroke-linecap:butt;stroke-linejoin:miter;stroke-opacity:1;stroke-dasharray:none"
       id="path713"
       d="m 131.1401,43.31792 c 0,0 3.567,1.3639 5.8751,-4.30138" />
    <path
       style="fill:none;stroke:#000000;stroke-width:0.60132736;stroke-linecap:butt;stroke-linejoin:miter;stroke-opacity:1;stroke-dasharray:none"
       id="path714"
       d="m 124.5306,37.33792 2.0983,0.10491" />
    <path
       style="fill:none;stroke:#000000;stroke-width:0.60132736;stroke-linecap:butt;stroke-linejoin:round;stroke-opacity:1;stroke-dasharray:none"
       id="path715"
       d="m 124.8454,39.43616 1.8884,0 -1.6786,0.7344" />
    <path
       style="fill:none;stroke:#000000;stroke-width:1.08238935;stroke-linecap:butt;stroke-linejoin:round;stroke-opacity:1;stroke-dasharray:none"
       id="path716"
       d="m 127.4682,33.56107 c 0.3147,0 1.4687,-0.4197 1.6786,-0.10491 0.2098,0.31479 -1.259,0.5246 -1.6786,0.10491 z" />
    <path
       style="fill:#ffc6b5;fill-opacity:1;fill-rule:evenodd;stroke:#000000;stroke-width:0.60132736;stroke-linecap:butt;stroke-linejoin:miter;stroke-opacity:1;stroke-dasharray:none"
       id="path673"
       d="m 150.1292,58.48671 c 0.1049,0 3.4621,10.38635 3.8817,13.00911 0.4197,2.62276 1.7835,13.11394 1.259,14.58275 -0.5246,1.46881 -5.8751,8.49785 -6.5046,10.28137 -0.6295,1.78352 -4.4063,8.60286 -4.4063,8.60286 0,0 -0.9442,6.7144 -1.3639,7.0291 -0.4196,0.3148 1.0831,1.9628 0.9443,2.5179 -0.2082,0.6245 -3.0425,3.567 -4.3014,3.2523 -1.259,-0.3148 -3.2523,-1.7836 -3.3572,-3.1474 -0.1049,-1.3638 0.1049,-5.8751 1.0491,-7.0291 0.9442,-1.154 5.8751,-12.7993 6.1898,-13.5337 0.3147,-0.73441 4.5112,-9.86168 4.6161,-11.4354 0.105,-1.57371 -1.3054,-5.21271 -2.7891,-6.548 -3.302,-9.71817 -2.0046,-15.57877 4.7825,-17.58179 z" />
    <path
       style="fill:none;stroke:#000000;stroke-width:0.60132736;stroke-linecap:butt;stroke-linejoin:miter;stroke-opacity:1;stroke-dasharray:none"
       id="path726"
       d="m 101.2544,103.5006 0.1642,4.5977" />
    <path
       style="fill:none;stroke:#000000;stroke-width:0.60132736;stroke-linecap:butt;stroke-linejoin:miter;stroke-opacity:1;stroke-dasharray:none"
       id="path727"
       d="m 96.94218,103.1597 c 0,0 2.94772,4.9298 2.70141,7.557" />
    <path
       style="fill:none;stroke:#000000;stroke-width:0.60132736;stroke-linecap:butt;stroke-linejoin:round;stroke-opacity:1;stroke-dasharray:none"
       id="path728"
       d="m 136.4511,113.4604 c 0,0 2.204,-0.2316 2.1346,3.4481 1.4074,-4.5711 4.2692,-4.6797 4.2692,-4.6797" />
  </g>
  <path
     style="fill:#f7c600;fill-opacity:1;fill-rule:evenodd;stroke:#000000;stroke-width:1.25820074pt;stroke-linecap:butt;stroke-linejoin:miter;stroke-opacity:1"
     id="path780"
     d="m 675.19437,458.64193 c 50.16655,-1.85906 82.56566,-50.19308 82.21728,-50.65784 -0.34828,-0.46477 6.61924,-13.47779 12.19334,-11.61875 5.57407,1.85905 13.58676,23.70226 23.34138,28.34972 4.8772,10.22445 -1.39354,19.51955 -3.48387,21.37859 -2.09022,1.85904 -11.49645,6.97128 -12.89,-0.46476 -1.39344,-7.43604 -4.18053,-6.04175 -4.18053,-6.04175 0,0 -44.59245,58.09371 -96.15255,55.77006 -53.30188,0.46476 -97.19759,-55.77006 -97.19759,-55.77006 l -3.83218,5.57698 c 0,0 -4.18054,6.04177 -6.27081,5.577 -2.09026,-0.46476 -11.14811,-8.36541 -11.84487,-16.26622 -0.69676,-7.90079 5.57406,-13.01301 5.57406,-13.01301 0,0 15.32867,-15.80162 17.07055,-24.16702 3.48378,-4.64746 10.10298,3.25318 10.10298,3.25318 0,0 40.41194,61.81181 85.35281,58.09388 z" />
  <path
     style="fill:none;stroke:#000000;stroke-width:1.25820074pt;stroke-linecap:butt;stroke-linejoin:miter;stroke-opacity:1"
     id="path782"
     d="m 561.62664,422.69439 c 0,0 4.14537,-1.47478 5.66534,0.82954 1.51997,2.30418 11.95248,15.94509 11.95248,15.94509" />
  <path
     style="fill:none;stroke:#000000;stroke-width:1.25820074pt;stroke-linecap:butt;stroke-linejoin:miter;stroke-opacity:1"
     id="path783"
     d="m 571.0919,429.14624 -4.14537,4.1475 c 0,0 10.43252,2.76471 8.08348,11.88958" />
  <path
     style="fill:none;stroke:#000000;stroke-width:1.25820074pt;stroke-linecap:butt;stroke-linejoin:miter;stroke-opacity:1"
     id="path784"
     d="m 789.20741,422.23357 c 0,0 -2.07278,-1.4748 -5.3199,1.75119 -3.24725,3.22584 -11.46894,15.48426 -11.46894,15.48426" />
  <path
     style="fill:none;stroke:#000000;stroke-width:1.25820074pt;stroke-linecap:butt;stroke-linejoin:miter;stroke-opacity:1"
     id="path785"
     d="m 779.88031,428.77753 4.49077,4.60835 c 0,0 -9.39615,0.82953 -7.32349,12.71925" />
  <rect
     style="fill:#000066;fill-opacity:1;fill-rule:evenodd;stroke:none"
     id="rect3207"
     width="449.94043"
     height="300.11871"
     x="0.059351355"
     y="-0.11856399" />
  <g
     id="g878"
     style="font-size:12px"
     transform="matrix(7.4990113,0,0,10.003968,0.05935136,-0.1188353)">
    <path
       d="M 0,0 0,3.3541 53.2918,30 60,30 60,26.6459 6.7082,0 0,0 z M 60,0 60,3.35405 6.7082,30 0,30 0,26.6458 53.2918,0 60,0 z"
       id="path879"
       style="font-size:12px;fill:#ffffff;stroke-width:1pt" />
    <path
       d="M 25,0 25,30 35,30 35,0 25,0 z M 0,10 0,20 60,20 60,10 0,10 z"
       id="path880"
       style="font-size:12px;fill:#ffffff;stroke-width:1pt" />
    <path
       d="m 0,12 0,6 60,0 0,-6 -60,0 z m 27,-12 0,30 6,0 0,-30 -6,0 z"
       id="path881"
       style="font-size:12px;fill:#cc0000;stroke-width:1pt" />
    <path
       d="M 0,30 20,20 24.4721,20 4.47214,30 0,30 z M 0,0 20,10 15.5279,10 0,2.23607 0,0 z m 35.5279,10 20,-10 L 60,0 40,10 35.5279,10 z M 60,30 40,20 44.4721,20 60,27.7639 60,30 z"
       id="path882"
       style="font-size:12px;fill:#cc0000;stroke-width:1pt" />
  </g>
  <path
     style="font-size:32px;font-style:normal;font-variant:normal;font-weight:bold;font-stretch:normal;text-align:center;line-height:100%;writing-mode:lr-tb;text-anchor:middle;fill:#000000;fill-opacity:1;stroke:none;font-family:Times New Roman"
     d="m 614.72658,437.44999 -0.30207,0.56505 c -0.6301,-0.41511 -1.34878,-0.49216 -2.15606,-0.23115 -0.59269,0.20411 -1.70919,0.9466 -3.3495,2.22747 l -13.804,10.73534 -0.37778,-0.3594 3.47759,-21.52726 c 0.42024,-2.5952 0.61223,-4.17117 0.57597,-4.7279 -0.0286,-0.54945 -0.31994,-1.15679 -0.87385,-1.82203 l 0.30206,-0.56505 7.44103,7.0792 -0.30207,0.56505 -0.25185,-0.23961 c -0.67161,-0.63892 -1.1894,-0.96257 -1.55334,-0.97095 -0.25718,-0.0143 -0.46469,0.12623 -0.62251,0.42146 -0.098,0.18328 -0.18447,0.43121 -0.25947,0.74381 -0.0696,0.30245 -0.22002,1.16535 -0.45131,2.58872 l -2.2023,13.45592 7.97455,-6.25948 c 0.95956,-0.76123 1.58201,-1.29026 1.86736,-1.5871 0.28531,-0.29683 0.49874,-0.5776 0.64026,-0.84231 0.16326,-0.30543 0.24643,-0.63331 0.24954,-0.98366 0.003,-0.35034 -0.0811,-0.69913 -0.25231,-1.04639 -0.23567,-0.48528 -0.62442,-0.98569 -1.16626,-1.50121 l 0.30208,-0.56505 5.09424,4.84653 m 4.95701,31.99886 -0.24962,0.60892 -8.74648,-6.38111 0.24963,-0.60892 0.55514,0.405 c 0.48522,0.35401 0.92309,0.52382 1.31362,0.50942 0.2768,0.002 0.54923,-0.14091 0.81729,-0.42993 0.19841,-0.19731 0.527,-0.85552 0.98577,-1.9746 l 6.01792,-14.67979 c 0.46774,-1.14102 0.71486,-1.88716 0.74135,-2.23843 0.0265,-0.35124 -0.0574,-0.7331 -0.25154,-1.14558 -0.18146,-0.41742 -0.50657,-0.79713 -0.97535,-1.13916 l -0.55513,-0.40501 0.24963,-0.60891 8.74647,6.3811 -0.24962,0.60892 -0.55514,-0.405 c -0.48525,-0.354 -0.92312,-0.52381 -1.31363,-0.50943 -0.27682,-0.002 -0.55336,0.13794 -0.82962,0.42095 -0.19843,0.19732 -0.52702,0.85552 -0.98577,1.9746 l -6.01792,14.67978 c -0.46777,1.14103 -0.71489,1.88717 -0.74135,2.23843 -0.0183,0.35726 0.0634,0.74461 0.24479,1.16205 0.19416,0.41244 0.52563,0.78968 0.99443,1.13168 l 0.55513,0.40502 m 31.95303,-9.99779 -2.25514,8.44625 -0.49009,-0.23287 c 0.0248,-2.59 -0.39399,-4.7669 -1.25641,-6.53073 -0.86247,-1.76378 -1.99571,-2.97926 -3.39971,-3.64643 -1.34223,-0.63775 -2.5945,-0.66199 -3.75684,-0.0727 -1.15923,0.57753 -2.16488,1.67934 -3.01697,3.30544 -0.85211,1.62612 -1.53135,3.38747 -2.03773,5.28404 -0.61333,2.29709 -0.94807,4.40798 -1.00422,6.33265 -0.0562,1.92467 0.25759,3.5074 0.94127,4.7482 0.69249,1.245 1.66127,2.1633 2.90637,2.75492 0.43267,0.2056 0.88991,0.35649 1.37172,0.45269 0.49377,0.0886 1.01052,0.12839 1.55028,0.11932 l 1.33045,-4.98293 c 0.2516,-0.94239 0.36501,-1.57214 0.34023,-1.88925 -0.0217,-0.32887 -0.15713,-0.67864 -0.40642,-1.04932 -0.24048,-0.36647 -0.57706,-0.65252 -1.00974,-0.85811 l -0.46359,-0.22029 0.17457,-0.65379 8.72877,4.14764 -0.17456,0.65379 c -0.67802,-0.25579 -1.17464,-0.35238 -1.48985,-0.28978 -0.30328,0.055 -0.58217,0.261 -0.83665,0.61795 -0.13926,0.18605 -0.32526,0.71494 -0.55798,1.58666 l -1.33044,4.98293 c -1.33039,0.13777 -2.66372,0.0816 -3.99999,-0.16834 -1.33062,-0.23403 -2.6626,-0.66783 -3.99598,-1.30141 -1.70426,-0.8098 -3.03975,-1.78952 -4.00647,-2.93916 -0.95476,-1.15721 -1.73115,-2.44206 -2.32916,-3.85457 -0.58606,-1.42007 -0.95364,-2.87573 -1.10277,-4.36696 -0.18408,-1.91935 -0.007,-3.88622 0.53064,-5.9006 0.96245,-3.60467 2.72475,-6.19873 5.28693,-7.78221 2.56216,-1.58344 5.28259,-1.69124 8.16129,-0.3234 0.89184,0.42381 1.67024,0.89987 2.33519,1.4282 0.36335,0.27888 0.91797,0.84772 1.66384,1.70654 0.7578,0.85127 1.21619,1.31465 1.37516,1.39018 0.24723,0.11752 0.50826,0.10876 0.78312,-0.0262 0.27796,-0.14667 0.59489,-0.51378 0.9508,-1.10133 l 0.49008,0.23287 m 13.46171,28.82465 -0.0779,0.68619 -9.85655,-1.99183 0.0779,-0.6862 0.62559,0.12642 c 0.54681,0.11056 1.00178,0.0696 1.36492,-0.12257 0.26062,-0.12441 0.47967,-0.38367 0.65717,-0.77784 0.13563,-0.27612 0.27505,-1.04475 0.41826,-2.30587 l 1.87847,-16.54289 c 0.14601,-1.28582 0.18629,-2.09977 0.12085,-2.44186 -0.0654,-0.34204 -0.24239,-0.66236 -0.53083,-0.96098 -0.27777,-0.30906 -0.68079,-0.51699 -1.20906,-0.62376 l -0.62559,-0.12642 0.0779,-0.6862 9.85655,1.99184 -0.0779,0.68619 -0.62559,-0.12641 c -0.54682,-0.11044 -1.0018,-0.0696 -1.36492,0.12257 -0.26064,0.12442 -0.48432,0.38276 -0.67106,0.77501 -0.13566,0.27616 -0.27508,1.04478 -0.41828,2.30587 l -1.87846,16.5429 c -0.14602,1.28585 -0.1863,2.09979 -0.12085,2.44186 0.0747,0.34393 0.25094,0.67045 0.52872,0.97952 0.28843,0.2986 0.69679,0.50128 1.22507,0.60803 l 0.6256,0.12643 m 25.58511,-8.29087 -0.3751,8.96568 -16.90702,1.15081 -0.0266,-0.69312 0.63191,-0.043 c 0.55233,-0.0376 0.99199,-0.199 1.31898,-0.4842 0.23671,-0.19141 0.41248,-0.50388 0.52731,-0.93742 0.0915,-0.30674 0.11289,-1.09702 0.0642,-2.37088 l -0.63912,-16.70988 c -0.0497,-1.2988 -0.13221,-2.10706 -0.2476,-2.42478 -0.1154,-0.31767 -0.33678,-0.58433 -0.66415,-0.79997 -0.31848,-0.22873 -0.74453,-0.32494 -1.27814,-0.28864 l -0.63191,0.043 -0.0265,-0.69313 10.15263,-0.69105 0.0266,0.69313 -0.8285,0.0564 c -0.55235,0.0376 -0.99201,0.19903 -1.31899,0.4842 -0.23672,0.19143 -0.41716,0.50423 -0.54134,0.93838 -0.0915,0.30676 -0.11291,1.09705 -0.0642,2.37088 l 0.61904,16.18535 c 0.0497,1.29883 0.13761,2.1255 0.26381,2.48002 0.1257,0.34204 0.35573,0.58933 0.69008,0.74187 0.23832,0.0965 0.80685,0.11417 1.70557,0.0529 l 1.58679,-0.10804 c 1.01104,-0.0688 1.8445,-0.36345 2.5004,-0.88391 0.65587,-0.52044 1.20763,-1.30927 1.65527,-2.36648 0.45698,-1.05784 0.86726,-2.60083 1.23085,-4.62898 l 0.57574,-0.0391 m 18.49434,-4.28047 -6.45324,2.57177 -0.23667,2.67842 c -0.0744,0.89102 -0.0539,1.59413 0.0615,2.10934 0.15293,0.68296 0.4722,1.10387 0.9578,1.26272 0.28543,0.0951 0.9149,8.3e-4 1.88841,-0.28273 l 0.14892,0.66497 -6.07603,2.42145 -0.14891,-0.66498 c 0.62614,-0.3931 1.08454,-0.96731 1.3752,-1.72265 0.28798,-0.76731 0.53389,-2.20304 0.73773,-4.30719 l 2.1794,-22.05034 0.25598,-0.10204 11.06339,17.36006 c 1.05262,1.64257 1.83603,2.62894 2.35022,2.95911 0.38853,0.24974 0.86794,0.2936 1.43824,0.13158 l 0.14891,0.66499 -8.83785,3.52209 -0.14891,-0.66498 0.36375,-0.14497 c 0.70953,-0.28276 1.17849,-0.61322 1.40689,-0.99137 0.15464,-0.27044 0.19174,-0.58539 0.11125,-0.94485 -0.0483,-0.21566 -0.12488,-0.42658 -0.22975,-0.63277 -0.0421,-0.1006 -0.27746,-0.49629 -0.70602,-1.18688 l -1.65017,-2.65079 m -0.75588,-1.14742 -4.60093,-7.30866 -0.92273,9.50997 5.52366,-2.20131 m 24.36546,-33.12165 2.4436,6.06321 -0.44584,0.31977 c -0.82793,-1.20925 -1.52496,-2.00131 -2.09109,-2.37617 -0.57057,-0.38581 -1.2098,-0.55913 -1.9177,-0.51995 -0.39363,0.0268 -0.98261,0.32146 -1.76694,0.88398 l -1.25081,0.89712 6.96459,17.28097 c 0.46163,1.14547 0.79556,1.8288 1.0018,2.05003 0.21447,0.2153 0.50233,0.3354 0.86357,0.36025 0.36503,0.008 0.78699,-0.15982 1.26585,-0.50328 l 0.5573,-0.39971 0.24635,0.61127 -8.79278,6.30653 -0.24636,-0.61128 0.55728,-0.39971 c 0.48711,-0.34938 0.83267,-0.7463 1.03669,-1.19078 0.1525,-0.30815 0.21522,-0.69387 0.18814,-1.15718 -0.0158,-0.32946 -0.24996,-1.05592 -0.70271,-2.17936 l -6.96459,-17.28095 -1.21365,0.87047 c -1.13109,0.81129 -1.82384,1.71989 -2.07827,2.72583 -0.35873,1.40733 -0.30013,3.00513 0.1758,4.79341 l -0.4706,0.33754 -2.4436,-6.06322 15.08397,-10.81879 m 11.4369,-9.04562 4.67398,8.26613 0.30308,-0.30499 c 0.96537,-0.97141 1.43645,-2.07983 1.41326,-3.32527 -0.0232,-1.24538 -0.42087,-2.71701 -1.19303,-4.41488 l 0.42656,-0.42924 6.01182,10.63216 -0.42656,0.42925 c -0.74462,-1.06768 -1.47171,-1.82407 -2.18129,-2.26915 -0.70209,-0.45258 -1.31453,-0.61165 -1.8373,-0.47719 -0.52843,0.12451 -1.15559,0.55199 -1.88149,1.28243 l 3.23453,5.72039 c 0.63222,1.11814 1.05257,1.7681 1.26105,1.9499 0.21595,0.17428 0.46637,0.24339 0.75127,0.20732 0.28488,-0.036 0.64434,-0.27247 1.07839,-0.70924 l 0.90925,-0.91495 c 1.42185,-1.43079 2.31097,-3.0147 2.66734,-4.75171 0.36384,-1.74452 0.22481,-3.70354 -0.41709,-5.87706 l 0.41533,-0.41794 2.9647,7.14321 -13.15596,13.23862 -0.3133,-0.55407 0.50513,-0.50831 c 0.44153,-0.44429 0.73772,-0.90682 0.88859,-1.38756 0.11553,-0.33556 0.12973,-0.72578 0.0426,-1.17064 -0.0532,-0.32242 -0.36762,-0.99278 -0.9434,-2.01108 l -7.55288,-13.35757 c -0.51932,-0.91845 -0.85696,-1.46367 -1.01293,-1.63569 -0.2724,-0.27409 -0.56326,-0.40432 -0.87257,-0.3907 -0.44242,0.007 -0.91059,0.25847 -1.40451,0.75547 l -0.50513,0.5083 -0.3133,-0.55406 12.74063,-12.82069 3.39541,6.00492 -0.42657,0.42924 c -1.04682,-1.24913 -1.94917,-1.99361 -2.70707,-2.23345 -0.75042,-0.24731 -1.5695,-0.15927 -2.45726,0.26414 -0.52069,0.24203 -1.35725,0.94289 -2.50971,2.10256 l -1.57154,1.5814"
     id="text2325" />
  <path
     style="fill:none;stroke:none"
     d="m 583.94185,439.3587 c 62.31382,67.42675 123.38724,68.66417 183.1507,0"
     id="path2329"
     sodipodi:nodetypes="cc" />
</svg>
