<?xml version="1.0" encoding="UTF-8" standalone="no"?>
<!-- Generator: Adobe Illustrator 13.0.0, SVG Export Plug-In  -->

<svg
   xmlns:dc="http://purl.org/dc/elements/1.1/"
   xmlns:cc="http://creativecommons.org/ns#"
   xmlns:rdf="http://www.w3.org/1999/02/22-rdf-syntax-ns#"
   xmlns:svg="http://www.w3.org/2000/svg"
   xmlns="http://www.w3.org/2000/svg"
   xmlns:sodipodi="http://sodipodi.sourceforge.net/DTD/sodipodi-0.dtd"
   xmlns:inkscape="http://www.inkscape.org/namespaces/inkscape"
   version="1.1"
   x="0px"
   y="0px"
   width="900"
   height="600"
   viewBox="0 0 900 600"
   enable-background="new 0 0 1000 500"
   xml:space="preserve"
   id="svg2913"
   inkscape:version="0.47 r22583"
   sodipodi:docname="Flag_of_Anguilla.svg"><metadata
   id="metadata2948"><rdf:RDF><cc:Work
       rdf:about=""><dc:format>image/svg+xml</dc:format><dc:type
         rdf:resource="http://purl.org/dc/dcmitype/StillImage" /></cc:Work></rdf:RDF></metadata><sodipodi:namedview
   pagecolor="#ffffff"
   bordercolor="#666666"
   borderopacity="1"
   objecttolerance="10"
   gridtolerance="10"
   guidetolerance="10"
   inkscape:pageopacity="0"
   inkscape:pageshadow="2"
   inkscape:window-width="1114"
   inkscape:window-height="953"
   id="namedview2946"
   showgrid="false"
   inkscape:zoom="0.502"
   inkscape:cx="500"
   inkscape:cy="250"
   inkscape:window-x="0"
   inkscape:window-y="0"
   inkscape:window-maximized="0"
   inkscape:current-layer="svg2913" />
<defs
   id="defs2915"><inkscape:perspective
   sodipodi:type="inkscape:persp3d"
   inkscape:vp_x="0 : 250 : 1"
   inkscape:vp_y="0 : 1000 : 0"
   inkscape:vp_z="1000 : 250 : 1"
   inkscape:persp3d-origin="500 : 166.66667 : 1"
   id="perspective2950" />
</defs>
<rect
   width="900"
   height="600"
   id="rect2917"
   x="0"
   y="0"
   style="fill:#08296b" />
<polygon
   points="0,27.949 110.765,83.332 0,83.332 0,166.666 110.765,166.666 0,222.049 0,250 55.902,250 208.333,173.783 208.333,250 291.667,250 291.667,173.783 444.098,250 499.999,250 499.999,222.049 389.234,166.666 499.999,166.666 499.999,83.332 389.234,83.332 499.999,27.949 499.999,0 444.098,0 291.667,76.215 291.667,0 208.333,0 208.333,76.215 55.902,0 0,0 "
   id="polygon2919"
   style="fill:#ffffff"
   transform="scale(0.9,1.2)" />
<polygon
   points="499.999,0 462.731,0 296.065,83.332 333.333,83.332 "
   id="polygon2921"
   style="fill:#cf142b"
   transform="scale(0.9,1.2)" />
<polygon
   points="166.667,83.332 0,0 0,18.633 129.399,83.332 "
   id="polygon2923"
   style="fill:#cf142b"
   transform="scale(0.9,1.2)" />
<polygon
   points="0,250 37.268,250 203.934,166.666 166.667,166.666 "
   id="polygon2925"
   style="fill:#cf142b"
   transform="scale(0.9,1.2)" />
<polygon
   points="333.333,166.666 499.999,250 499.999,231.365 370.601,166.666 "
   id="polygon2927"
   style="fill:#cf142b"
   transform="scale(0.9,1.2)" />
<path
   id="path2938_1_"
   d="m 202.5,0 45,0 0,120 202.5,0 0,60 -202.5,0 0,120 -45,0 0,-120 -202.5,0 0,-60 202.5,0 0,-120 z"
   style="fill:#cf142b" />
<path
   d="m 675,137.2524 c -34.7787,26.6604 -72.2718,25.794 -95.7465,4.3428 0,81.1608 0,134.4888 0,165.7932 0,57.3924 26.1918,121.7352 95.7465,155.3592 69.5529,-33.624 95.7465,-97.9668 95.7465,-155.3592 0,-31.3044 0,-84.6324 0,-165.7932 -23.4747,21.4512 -60.9651,22.3176 -95.7465,-4.3428 z"
   id="path2930"
   style="fill:#ffffff" />
<path
   d="m 587.5938,362.5368 c 12.474,39.744 39.771,77.1816 87.4062,100.2108 47.6397,-23.028 74.9322,-60.4668 87.4089,-100.2108 l -174.8151,0 z"
   id="path2932"
   style="fill:#0073bd" />
<path
   d="M 737.9262,213.6252 C 726.732,199.8576 713.583,206.0904 703.1466,194.0616 694.161,183.696 680.9787,179.5668 670.977,180.726 c 0.6552,-1.7376 1.5228,-3.7656 2.1753,-5.5032 -47.385,15.0708 -52.5987,98.5452 -9.3465,108.1116 0.5427,-8.8416 -4.7826,-14.2044 -5.0013,-22.8996 2.0655,0.5772 4.4568,1.7412 6.0876,3.192 -0.6516,-9.858 -7.1694,-11.8752 -6.9561,-24.06 0.4338,-24.6372 9.8154,-39.9072 26.7354,-41.7384 8.0442,-0.8688 18.9855,3.3936 22.3902,12.4656 1.3023,3.48 3.9096,8.2596 5.8653,10.866 1.8504,2.4672 1.9026,1.5972 2.1771,-1.8828 0.5733,-7.3488 10.4013,-10.6308 21.9528,-3.4752 3.0411,1.8804 3.1383,0.6156 0.8694,-2.1768 z"
   id="path2934"
   style="fill:#e77329" />
<path
   d="m 696.4101,259.854 c -3.4749,2.754 -7.9335,13.1868 -14.9976,14.2032 0.1089,-3.4752 0,-9.1308 -0.4329,-11.3004 -4.0221,8.2596 -5.0031,18.8364 -15.2172,28.1124 -11.466,10.4112 -31.8159,13.7448 -42.1668,-1.1592 -5.436,-7.8252 -8.9136,-18.2592 -5.8725,-33.0468 2.0349,-9.8508 8.3718,-10.368 11.8485,-14.49 0.9783,-1.1556 0.0999,-1.3548 -1.4112,-1.5936 -6.4143,-1.014 -8.2809,-12.8724 -2.8269,-30.7212 1.1952,-3.9156 -0.4338,-3.7704 -3.9105,4.4928 -4.9536,11.7588 -4.8942,22.8456 -7.6104,32.7504 -6.5214,23.7672 -3.0969,57.0264 13.4217,68.91 -0.8145,1.596 -1.7919,3.696 -2.8269,5.2896 37.4427,11.8824 74.8278,-8.9832 72.0027,-61.4472 z"
   id="path2936"
   style="fill:#e77329" />
<path
   d="m 685.9782,222.1764 c 2.1726,5.796 8.4771,9.8544 10.4319,17.6784 -1.7379,0 -5.0013,1.1616 -6.7383,2.61 4.6737,2.8992 7.1739,3.336 11.5182,7.9728 l 1.0863,0.7248 c 13.9104,19.7052 19.9665,39.2352 14.7834,56.8056 -2.6064,8.8416 -8.0343,18.7248 -16.8462,22.4628 -11.9547,5.0736 -15.2154,-7.9716 -25.974,-5.6508 -0.7578,0.1632 -0.1692,0.99 0.8694,1.596 6.7401,3.9108 4.3983,13.884 -8.3673,21.4464 -0.9792,0.5772 -1.0467,0.6888 1.1124,1.0164 7.6878,1.1592 17.4159,-2.1936 22.4694,-5.7984 6.3045,-4.494 14.0436,-7.5204 20.7603,-11.7396 13.149,-8.2584 20.3202,-22.896 22.3875,-43.1868 2.4993,2.466 3.2589,4.638 4.455,7.3932 5.4342,-32.7516 -11.7387,-74.7828 -51.948,-73.3308 z"
   id="path2938"
   style="fill:#e77329" />
<circle
   cx="719.93298"
   cy="215.819"
   r="2.4679999"
   id="circle2940"
   sodipodi:cx="719.93298"
   sodipodi:cy="215.819"
   sodipodi:rx="2.4679999"
   sodipodi:ry="2.4679999"
   style="fill:#ffffff"
   transform="scale(0.9,1.2)" />
<path
   d="m 689.4531,277.4712 c -1.2213,0 -2.2167,1.326 -2.2167,2.9592 0,1.638 0.9945,2.9664 2.2167,2.9664 1.2276,0 2.2212,-1.3272 2.2212,-2.9664 -9e-4,-1.6332 -0.9936,-2.9592 -2.2212,-2.9592 z"
   id="path2942"
   style="fill:#ffffff" />
<path
   d="m 706.8447,228.9456 c -1.2267,0 -2.2239,1.3212 -2.2239,2.9592 0,1.6368 0.9963,2.9616 2.2239,2.9616 1.2249,0 2.2185,-1.3248 2.2185,-2.9616 0,-1.638 -0.9936,-2.9592 -2.2185,-2.9592 z"
   id="path2944"
   style="fill:#ffffff" />
</svg>