<?xml version="1.0" encoding="UTF-8" standalone="no"?>
<!-- Created with Inkscape (http://www.inkscape.org/) -->

<svg
   xmlns:dc="http://purl.org/dc/elements/1.1/"
   xmlns:cc="http://creativecommons.org/ns#"
   xmlns:rdf="http://www.w3.org/1999/02/22-rdf-syntax-ns#"
   xmlns:svg="http://www.w3.org/2000/svg"
   xmlns="http://www.w3.org/2000/svg"
   xmlns:xlink="http://www.w3.org/1999/xlink"
   xmlns:sodipodi="http://sodipodi.sourceforge.net/DTD/sodipodi-0.dtd"
   xmlns:inkscape="http://www.inkscape.org/namespaces/inkscape"
   version="1.0"
   width="900"
   height="600"
   id="svg548"
   inkscape:version="0.47 r22583"
   sodipodi:docname="Flag_of_the_British_Indian_Ocean_Territory.svg">
  <metadata
     id="metadata3558">
    <rdf:RDF>
      <cc:Work
         rdf:about="">
        <dc:format>image/svg+xml</dc:format>
        <dc:type
           rdf:resource="http://purl.org/dc/dcmitype/StillImage" />
      </cc:Work>
    </rdf:RDF>
  </metadata>
  <sodipodi:namedview
     pagecolor="#ffffff"
     bordercolor="#666666"
     borderopacity="1"
     objecttolerance="10"
     gridtolerance="10"
     guidetolerance="10"
     inkscape:pageopacity="0"
     inkscape:pageshadow="2"
     inkscape:window-width="812"
     inkscape:window-height="653"
     id="namedview3556"
     showgrid="false"
     inkscape:zoom="0.83666667"
     inkscape:cx="300"
     inkscape:cy="150"
     inkscape:window-x="0"
     inkscape:window-y="0"
     inkscape:window-maximized="0"
     inkscape:current-layer="svg548" />
  <defs
     id="defs550">
    <inkscape:perspective
       sodipodi:type="inkscape:persp3d"
       inkscape:vp_x="0 : 150 : 1"
       inkscape:vp_y="0 : 1000 : 0"
       inkscape:vp_z="600 : 150 : 1"
       inkscape:persp3d-origin="300 : 100 : 1"
       id="perspective3560" />
  </defs>
  <g
     id="g42903"
     transform="matrix(1.4999997,0,0,1.9999987,0,3.1182024e-4)">
    <rect
       width="600.00006"
       height="300.00003"
       x="2.270937e-05"
       y="-0.0001209102"
       id="rect576"
       style="font-size:12px;fill:#ffffff;fill-rule:evenodd;stroke:none" />
    <path
       d="m 600.00013,260.88144 c -6.72314,4.04453 -12.49922,13.4973 -30.35966,13.4973 -35.7112,0 -44.64172,-19.90137 -71.42784,-19.90137 -17.85559,0 -26.7843,19.90137 -44.64111,19.90137 -35.71422,0 -44.64292,-19.90137 -71.42844,-19.90137 -17.85741,0 -26.78612,19.90137 -44.64292,19.90137 -35.71422,0 -44.64293,-19.90137 -71.42844,-19.90137 -17.85742,0 -26.78612,19.90137 -44.64293,19.90137 -35.71422,0 -44.64293,-19.90137 -71.42844,-19.90137 -17.85802,0 -26.78612,19.90137 -44.64292,19.90137 -35.714225,0 -44.643536,-19.90137 -71.428868,-19.90137 -17.85711,0 -23.214273,14.1814 -33.92853929063,14.1814 l 0,25.62134 C 10.714289,294.28011 16.071391,280.0987 33.928562,280.0987 c 26.785332,0 35.714643,19.90137 71.428868,19.90137 17.8568,0 26.7849,-19.90137 44.64292,-19.90137 26.78491,0 35.71422,19.90137 71.42844,19.90137 17.85681,0 26.78551,-19.90137 44.64293,-19.90137 26.78551,0 35.71422,19.90137 71.42844,19.90137 17.8568,0 26.78551,-19.90137 44.64292,-19.90137 26.78552,0 35.71422,19.90137 71.42844,19.90137 17.85681,0 26.78552,-19.90137 44.64111,-19.90137 26.78612,0 35.71664,19.90137 71.42784,19.90137 17.86044,0 23.63652,-5.63964 30.35966,-9.68417 l 0,-29.43446 z"
       id="path570"
       style="font-size:12px;fill:#002b7f;fill-opacity:1;fill-rule:evenodd;stroke:none" />
    <use
       transform="translate(0,49.75348)"
       id="use3398"
       x="0"
       y="0"
       width="600"
       height="300"
       xlink:href="#use3396" />
    <use
       transform="translate(0,-99.50701)"
       id="use3396"
       x="0"
       y="0"
       width="600"
       height="300"
       xlink:href="#path570" />
    <path
       d="m 266.07172,130.83824 c 26.78551,0 35.71422,19.90137 71.42844,19.90137 17.8568,0 26.78551,-19.90137 44.64292,-19.90137 26.78552,0 35.71422,19.90137 71.42844,19.90137 17.85681,0 26.78552,-19.90137 44.64111,-19.90137 26.78612,0 35.71664,19.90137 71.42784,19.90137 17.86044,0 23.63652,-5.63964 30.35966,-9.68417 l 0,-29.43446 c -6.72314,4.04453 -12.49922,13.4973 -30.35966,13.4973 -35.7112,0 -44.64172,-19.90137 -71.42784,-19.90137 -17.85559,0 -26.7843,19.90137 -44.64111,19.90137 -35.71422,0 -44.64292,-19.90137 -71.42844,-19.90137 -17.85741,0 -26.78612,19.90137 -44.64292,19.90137 -35.71422,0 -44.64293,-19.90137 -71.42844,-19.90137"
       id="path573"
       style="font-size:12px;fill:#002b7f;fill-opacity:1;fill-rule:evenodd;stroke:none" />
    <use
       transform="translate(0,-49.75352)"
       id="use2595"
       x="0"
       y="0"
       width="600"
       height="300"
       xlink:href="#path573" />
    <use
       transform="translate(0,-99.507016)"
       id="use2597"
       x="0"
       y="0"
       width="600"
       height="300"
       xlink:href="#path573" />
    <g
       transform="matrix(0.5,0,0,0.5,0,154.7222)"
       id="g6773">
      <rect
         width="600"
         height="300"
         x="0"
         y="-309.4444"
         id="rect3179"
         style="fill:#ffffff;fill-opacity:1;fill-rule:evenodd;stroke-opacity:1" />
      <path
         d="m -238.28967,473.03977 -0.21429,-94.29896 81.77244,46.9639 -81.55815,47.33506 z"
         transform="matrix(2.849371,0,0,2.449656,679.5863,-1202.729)"
         id="path4054"
         style="fill:#002b7f;fill-opacity:1;fill-rule:evenodd;stroke-opacity:1" />
      <use
         transform="matrix(-1,0,0,1,600,-2.006206e-6)"
         id="use6675"
         x="0"
         y="0"
         width="600"
         height="600"
         xlink:href="#path4054" />
      <use
         transform="matrix(0,-0.502146,2.017316,0,621.6497,-9.4444)"
         id="use6677"
         x="0"
         y="0"
         width="600"
         height="600"
         xlink:href="#path4054" />
      <use
         transform="matrix(1,0,0,-1,-4.715239e-8,-318.8888)"
         id="use6679"
         x="0"
         y="0"
         width="600"
         height="600"
         xlink:href="#use6677" />
    </g>
    <path
       d="M 177.64,50 200,50 300,0 l -22.36,0 -100,50 z"
       id="path3141"
       style="fill:#ce1126;fill-opacity:1;fill-rule:evenodd;stroke:none" />
    <path
       d="M 0,0 0,11.18 77.64,50 100,50 0,0 z"
       id="path3143"
       style="fill:#ce1126;fill-opacity:1;fill-rule:evenodd;stroke:none" />
    <path
       d="m 300,150.00001 0,-11.18 -77.64,-38.82 -22.36,0 100,50 z"
       id="path3145"
       style="fill:#ce1126;fill-opacity:1;fill-rule:evenodd;stroke:none" />
    <path
       d="m 0,150 22.36,0 100,-50 L 100,100 0,150 z"
       id="path3147"
       style="fill:#ce1126;fill-opacity:1;fill-rule:evenodd;stroke:none" />
    <g
       transform="matrix(0.5,0,0,0.5,0,5e-6)"
       id="g6767">
      <use
         transform="matrix(1,0,0,0.333333,0,203.1481)"
         id="use6763"
         x="0"
         y="0"
         width="600"
         height="300"
         xlink:href="#rect3179" />
      <use
         transform="matrix(0,0.5,-1,0,450,0)"
         id="use6765"
         x="0"
         y="0"
         width="600"
         height="300"
         xlink:href="#use6763" />
    </g>
    <rect
       width="300"
       height="30"
       rx="3.7007513e-15"
       ry="3.7751515e-16"
       x="0"
       y="60.000004"
       id="use3168"
       style="fill:#ce1124;fill-opacity:1;fill-rule:evenodd;stroke-opacity:1" />
    <use
       transform="matrix(0,0.5,-1,0,225,5e-6)"
       id="use6771"
       x="0"
       y="0"
       width="600"
       height="300"
       xlink:href="#use3168" />
    <g
       id="g2838">
      <g
         transform="matrix(0.604762,0,0,0.604762,0,-1.160721e-4)"
         id="Palm">
        <path
           d="M 814.961,-301.181 797.244,407.48 c 0,37.298 80.097,37.298 88.583,0 l -17.717,-708.661 -53.149,0 z"
           transform="matrix(0.200004,0,0,0.475,575.1662,274.5648)"
           id="path861"
           style="fill:#a24300;fill-opacity:1;fill-rule:evenodd;stroke:#ffffff;stroke-width:4.0038681;stroke-linecap:butt;stroke-linejoin:miter;stroke-opacity:1;stroke-dasharray:none" />
        <g
           transform="matrix(0.725195,0,0,0.6231,202.0636,41.43416)"
           id="g862">
          <g
             transform="matrix(-0.314512,0.10485,-0.138292,-0.303235,1046.472,373.319)"
             id="g852">
            <path
               d="m 496.063,549.213 17.717,70.866 35.433,-53.15 -17.717,88.583 35.433,-35.433 -35.433,88.582 35.433,-35.433 -35.433,88.583 35.433,-35.433 -35.433,106.299 35.433,-35.433 -35.433,106.299 35.433,-35.433 -35.433,106.299 -17.716,53.151 -17.717,17.72 -17.717,-17.72 -17.716,-53.151 -35.433,-106.299 35.433,35.433 -35.433,-106.299 35.433,35.433 -35.433,-106.299 35.433,35.433 -35.433,-88.583 35.433,35.433 -35.433,-88.582 35.433,35.433 -17.717,-88.583 35.433,53.15 17.717,-70.866 z"
               transform="translate(177.1655,-224.0517)"
               id="path853"
               style="font-size:12px;fill:#006d00;fill-rule:evenodd;stroke:#ffffff;stroke-width:4.76314163;stroke-dasharray:none" />
            <path
               d="m 496.063,549.213 0,496.067"
               transform="translate(177.1655,-224.0517)"
               id="path854"
               style="font-size:12px;fill:none;stroke:#000000;stroke-width:0.57735052pt" />
            <path
               d="M 425.197,868.11 496.063,974.409 566.929,868.11"
               transform="translate(177.1655,-224.0517)"
               id="path855"
               style="font-size:12px;fill:none;stroke:#000000;stroke-width:0.57735052pt" />
            <path
               d="m 425.197,797.244 70.866,106.299 70.866,-106.299"
               transform="translate(177.1655,-224.0517)"
               id="path856"
               style="font-size:12px;fill:none;stroke:#000000;stroke-width:0.57735052pt" />
            <path
               d="m 425.197,726.378 70.866,106.299 70.866,-106.299"
               transform="translate(177.1655,-224.0517)"
               id="path857"
               style="font-size:12px;fill:none;stroke:#000000;stroke-width:0.57735052pt" />
            <path
               d="m 425.197,673.228 70.866,88.583 70.866,-88.583"
               transform="translate(177.1655,-224.0517)"
               id="path858"
               style="font-size:12px;fill:none;stroke:#000000;stroke-width:0.57735052pt" />
            <path
               d="m 425.197,620.079 70.866,88.582 70.866,-88.582"
               transform="translate(177.1655,-224.0517)"
               id="path859"
               style="font-size:12px;fill:none;stroke:#000000;stroke-width:0.57735052pt" />
            <path
               d="m 442.913,566.929 53.15,106.299 53.15,-106.299"
               transform="translate(177.1655,-224.0517)"
               id="path860"
               style="font-size:12px;fill:none;stroke:#000000;stroke-width:0.57735052pt" />
          </g>
          <g
             transform="matrix(0.236516,-0.281856,0.294964,0.227618,354.5673,204.654)"
             id="g738">
            <path
               d="m 496.063,549.213 17.717,70.866 35.433,-53.15 -17.717,88.583 35.433,-35.433 -35.433,88.582 35.433,-35.433 -35.433,88.583 35.433,-35.433 -35.433,106.299 35.433,-35.433 -35.433,106.299 35.433,-35.433 -35.433,106.299 -17.716,53.151 -17.717,17.72 -17.717,-17.72 -17.716,-53.151 -35.433,-106.299 35.433,35.433 -35.433,-106.299 35.433,35.433 -35.433,-106.299 35.433,35.433 -35.433,-88.583 35.433,35.433 -35.433,-88.582 35.433,35.433 -17.717,-88.583 35.433,53.15 17.717,-70.866 z"
               transform="translate(177.1655,-224.0517)"
               id="path739"
               style="font-size:12px;fill:#006d00;fill-rule:evenodd;stroke:#ffffff;stroke-width:4.76314163;stroke-dasharray:none" />
            <path
               d="m 496.063,549.213 0,496.067"
               transform="translate(177.1655,-224.0517)"
               id="path740"
               style="font-size:12px;fill:none;stroke:#000000;stroke-width:0.57735052pt" />
            <path
               d="M 425.197,868.11 496.063,974.409 566.929,868.11"
               transform="translate(177.1655,-224.0517)"
               id="path741"
               style="font-size:12px;fill:none;stroke:#000000;stroke-width:0.57735052pt" />
            <path
               d="m 425.197,797.244 70.866,106.299 70.866,-106.299"
               transform="translate(177.1655,-224.0517)"
               id="path742"
               style="font-size:12px;fill:none;stroke:#000000;stroke-width:0.57735052pt" />
            <path
               d="m 425.197,726.378 70.866,106.299 70.866,-106.299"
               transform="translate(177.1655,-224.0517)"
               id="path743"
               style="font-size:12px;fill:none;stroke:#000000;stroke-width:0.57735052pt" />
            <path
               d="m 425.197,673.228 70.866,88.583 70.866,-88.583"
               transform="translate(177.1655,-224.0517)"
               id="path744"
               style="font-size:12px;fill:none;stroke:#000000;stroke-width:0.57735052pt" />
            <path
               d="m 425.197,620.079 70.866,88.582 70.866,-88.582"
               transform="translate(177.1655,-224.0517)"
               id="path745"
               style="font-size:12px;fill:none;stroke:#000000;stroke-width:0.57735052pt" />
            <path
               d="m 442.913,566.929 53.15,106.299 53.15,-106.299"
               transform="translate(177.1655,-224.0517)"
               id="path746"
               style="font-size:12px;fill:none;stroke:#000000;stroke-width:0.57735052pt" />
          </g>
          <g
             transform="matrix(0.15164,0.335243,-0.332899,0.167308,907.5388,-153.4696)"
             id="g747">
            <path
               d="m 496.063,549.213 17.717,70.866 35.433,-53.15 -17.717,88.583 35.433,-35.433 -35.433,88.582 35.433,-35.433 -35.433,88.583 35.433,-35.433 -35.433,106.299 35.433,-35.433 -35.433,106.299 35.433,-35.433 -35.433,106.299 -17.716,53.151 -17.717,17.72 -17.717,-17.72 -17.716,-53.151 -35.433,-106.299 35.433,35.433 -35.433,-106.299 35.433,35.433 -35.433,-106.299 35.433,35.433 -35.433,-88.583 35.433,35.433 -35.433,-88.582 35.433,35.433 -17.717,-88.583 35.433,53.15 17.717,-70.866 z"
               transform="translate(177.1655,-224.0517)"
               id="path748"
               style="font-size:12px;fill:#006d00;fill-rule:evenodd;stroke:#ffffff;stroke-width:4.76314163;stroke-dasharray:none" />
            <path
               d="m 496.063,549.213 0,496.067"
               transform="translate(177.1655,-224.0517)"
               id="path749"
               style="font-size:12px;fill:none;stroke:#000000;stroke-width:0.57735052pt" />
            <path
               d="M 425.197,868.11 496.063,974.409 566.929,868.11"
               transform="translate(177.1655,-224.0517)"
               id="path750"
               style="font-size:12px;fill:none;stroke:#000000;stroke-width:0.57735052pt" />
            <path
               d="m 425.197,797.244 70.866,106.299 70.866,-106.299"
               transform="translate(177.1655,-224.0517)"
               id="path751"
               style="font-size:12px;fill:none;stroke:#000000;stroke-width:0.57735052pt" />
            <path
               d="m 425.197,726.378 70.866,106.299 70.866,-106.299"
               transform="translate(177.1655,-224.0517)"
               id="path752"
               style="font-size:12px;fill:none;stroke:#000000;stroke-width:0.57735052pt" />
            <path
               d="m 425.197,673.228 70.866,88.583 70.866,-88.583"
               transform="translate(177.1655,-224.0517)"
               id="path753"
               style="font-size:12px;fill:none;stroke:#000000;stroke-width:0.57735052pt" />
            <path
               d="m 425.197,620.079 70.866,88.582 70.866,-88.582"
               transform="translate(177.1655,-224.0517)"
               id="path754"
               style="font-size:12px;fill:none;stroke:#000000;stroke-width:0.57735052pt" />
            <path
               d="m 442.913,566.929 53.15,106.299 53.15,-106.299"
               transform="translate(177.1655,-224.0517)"
               id="path755"
               style="font-size:12px;fill:none;stroke:#000000;stroke-width:0.57735052pt" />
          </g>
          <g
             transform="matrix(-0.209517,0.302465,-0.314697,-0.199448,1141.363,167.5798)"
             id="g756">
            <path
               d="m 496.063,549.213 17.717,70.866 35.433,-53.15 -17.717,88.583 35.433,-35.433 -35.433,88.582 35.433,-35.433 -35.433,88.583 35.433,-35.433 -35.433,106.299 35.433,-35.433 -35.433,106.299 35.433,-35.433 -35.433,106.299 -17.716,53.151 -17.717,17.72 -17.717,-17.72 -17.716,-53.151 -35.433,-106.299 35.433,35.433 -35.433,-106.299 35.433,35.433 -35.433,-106.299 35.433,35.433 -35.433,-88.583 35.433,35.433 -35.433,-88.582 35.433,35.433 -17.717,-88.583 35.433,53.15 17.717,-70.866 z"
               transform="translate(177.1655,-224.0517)"
               id="path757"
               style="font-size:12px;fill:#006d00;fill-rule:evenodd;stroke:#ffffff;stroke-width:4.76314163;stroke-dasharray:none" />
            <path
               d="m 496.063,549.213 0,496.067"
               transform="translate(177.1655,-224.0517)"
               id="path758"
               style="font-size:12px;fill:none;stroke:#000000;stroke-width:0.57735052pt" />
            <path
               d="M 425.197,868.11 496.063,974.409 566.929,868.11"
               transform="translate(177.1655,-224.0517)"
               id="path759"
               style="font-size:12px;fill:none;stroke:#000000;stroke-width:0.57735052pt" />
            <path
               d="m 425.197,797.244 70.866,106.299 70.866,-106.299"
               transform="translate(177.1655,-224.0517)"
               id="path760"
               style="font-size:12px;fill:none;stroke:#000000;stroke-width:0.57735052pt" />
            <path
               d="m 425.197,726.378 70.866,106.299 70.866,-106.299"
               transform="translate(177.1655,-224.0517)"
               id="path761"
               style="font-size:12px;fill:none;stroke:#000000;stroke-width:0.57735052pt" />
            <path
               d="m 425.197,673.228 70.866,88.583 70.866,-88.583"
               transform="translate(177.1655,-224.0517)"
               id="path762"
               style="font-size:12px;fill:none;stroke:#000000;stroke-width:0.57735052pt" />
            <path
               d="m 425.197,620.079 70.866,88.582 70.866,-88.582"
               transform="translate(177.1655,-224.0517)"
               id="path763"
               style="font-size:12px;fill:none;stroke:#000000;stroke-width:0.57735052pt" />
            <path
               d="m 442.913,566.929 53.15,106.299 53.15,-106.299"
               transform="translate(177.1655,-224.0517)"
               id="path764"
               style="font-size:12px;fill:none;stroke:#000000;stroke-width:0.57735052pt" />
          </g>
          <g
             transform="matrix(-0.207724,-0.258384,0.236176,-0.235153,689.9856,567.2772)"
             id="g765">
            <path
               d="m 496.063,549.213 17.717,70.866 35.433,-53.15 -17.717,88.583 35.433,-35.433 -35.433,88.582 35.433,-35.433 -35.433,88.583 35.433,-35.433 -35.433,106.299 35.433,-35.433 -35.433,106.299 35.433,-35.433 -35.433,106.299 -17.716,53.151 -17.717,17.72 -17.717,-17.72 -17.716,-53.151 -35.433,-106.299 35.433,35.433 -35.433,-106.299 35.433,35.433 -35.433,-106.299 35.433,35.433 -35.433,-88.583 35.433,35.433 -35.433,-88.582 35.433,35.433 -17.717,-88.583 35.433,53.15 17.717,-70.866 z"
               transform="translate(177.1655,-224.0517)"
               id="path766"
               style="font-size:12px;fill:#006d00;fill-rule:evenodd;stroke:#ffffff;stroke-width:4.76314163;stroke-dasharray:none" />
            <path
               d="m 496.063,549.213 0,496.067"
               transform="translate(177.1655,-224.0517)"
               id="path767"
               style="font-size:12px;fill:none;stroke:#000000;stroke-width:0.57735052pt" />
            <path
               d="M 425.197,868.11 496.063,974.409 566.929,868.11"
               transform="translate(177.1655,-224.0517)"
               id="path768"
               style="font-size:12px;fill:none;stroke:#000000;stroke-width:0.57735052pt" />
            <path
               d="m 425.197,797.244 70.866,106.299 70.866,-106.299"
               transform="translate(177.1655,-224.0517)"
               id="path769"
               style="font-size:12px;fill:none;stroke:#000000;stroke-width:0.57735052pt" />
            <path
               d="m 425.197,726.378 70.866,106.299 70.866,-106.299"
               transform="translate(177.1655,-224.0517)"
               id="path770"
               style="font-size:12px;fill:none;stroke:#000000;stroke-width:0.57735052pt" />
            <path
               d="m 425.197,673.228 70.866,88.583 70.866,-88.583"
               transform="translate(177.1655,-224.0517)"
               id="path771"
               style="font-size:12px;fill:none;stroke:#000000;stroke-width:0.57735052pt" />
            <path
               d="m 425.197,620.079 70.866,88.582 70.866,-88.582"
               transform="translate(177.1655,-224.0517)"
               id="path772"
               style="font-size:12px;fill:none;stroke:#000000;stroke-width:0.57735052pt" />
            <path
               d="m 442.913,566.929 53.15,106.299 53.15,-106.299"
               transform="translate(177.1655,-224.0517)"
               id="path773"
               style="font-size:12px;fill:none;stroke:#000000;stroke-width:0.57735052pt" />
          </g>
          <g
             transform="matrix(-0.362184,-0.09947167,-0.209809,0.317733,1222.415,-24.22945)"
             id="g791">
            <path
               d="m 460.63,549.213 28.643,70.866 42.223,-53.15 -10.184,88.583 27.9,-35.433 -17.716,88.582 25.249,-35.433 -25.249,88.583 35.433,-35.433 -35.433,106.299 35.433,-35.433 -35.433,106.299 35.433,-35.433 -35.433,106.299 -17.716,53.151 -17.717,17.72 -17.717,-17.72 -17.716,-53.151 -35.433,-106.299 35.433,35.433 -35.433,-106.299 35.433,35.433 -35.433,-106.299 35.433,35.433 -45.617,-88.583 45.617,35.433 -53.15,-88.582 42.966,35.433 -25.25,-88.583 35.433,53.15 10e-4,-70.866 z"
               transform="translate(283.4647,-124.0162)"
               id="path775"
               style="font-size:12px;fill:#006d00;fill-rule:evenodd;stroke:#ffffff;stroke-width:4.76314163" />
            <path
               d="m 467.208,584.646 28.855,124.016 0,336.618"
               transform="translate(283.4647,-124.0162)"
               id="path776"
               style="font-size:12px;fill:none;stroke:#000000;stroke-width:0.57735052pt" />
            <path
               d="m 436.23,885.827 59.833,88.582 60.682,-88.582"
               transform="translate(283.4647,-124.0162)"
               id="path777"
               style="font-size:12px;fill:none;stroke:#000000;stroke-width:0.57735052pt" />
            <path
               d="m 434.533,814.961 61.53,88.582 60.682,-88.582"
               transform="translate(283.4647,-124.0162)"
               id="path778"
               style="font-size:12px;fill:none;stroke:#000000;stroke-width:0.57735052pt" />
            <path
               d="m 435.381,744.095 60.682,88.582 59.833,-88.582"
               transform="translate(283.4647,-124.0162)"
               id="path779"
               style="font-size:12px;fill:none;stroke:#000000;stroke-width:0.57735052pt" />
            <path
               d="m 432.835,690.945 63.228,70.866 53.149,-70.866"
               transform="translate(283.4647,-124.0162)"
               id="path780"
               style="font-size:12px;fill:none;stroke:#000000;stroke-width:0.57735052pt" />
            <path
               d="m 425.197,637.796 70.866,70.865 45.406,-70.865"
               transform="translate(283.4647,-124.0162)"
               id="path781"
               style="font-size:12px;fill:none;stroke:#000000;stroke-width:0.57735052pt" />
            <path
               d="m 436.124,593.238 53.15,86.886 35.327,-95.478"
               transform="translate(283.4647,-124.0162)"
               id="path782"
               style="font-size:12px;fill:none;stroke:#000000;stroke-width:0.57735052pt" />
          </g>
          <g
             transform="matrix(0.360878,0.10411,0.01321056,0.380525,452.7614,-239.2657)"
             id="g800">
            <path
               d="m 460.63,549.213 28.643,70.866 42.223,-53.15 -10.184,88.583 27.9,-35.433 -17.716,88.582 25.249,-35.433 -25.249,88.583 35.433,-35.433 -35.433,106.299 35.433,-35.433 -35.433,106.299 35.433,-35.433 -35.433,106.299 -17.716,53.151 -17.717,17.72 -17.717,-17.72 -17.716,-53.151 -35.433,-106.299 35.433,35.433 -35.433,-106.299 35.433,35.433 -35.433,-106.299 35.433,35.433 -45.617,-88.583 45.617,35.433 -53.15,-88.582 42.966,35.433 -25.25,-88.583 35.433,53.15 10e-4,-70.866 z"
               transform="translate(283.4647,-124.0162)"
               id="path801"
               style="font-size:12px;fill:#006d00;fill-rule:evenodd;stroke:#ffffff;stroke-width:4.76314163" />
            <path
               d="m 467.208,584.646 28.855,124.016 0,336.618"
               transform="translate(283.4647,-124.0162)"
               id="path802"
               style="font-size:12px;fill:none;stroke:#000000;stroke-width:0.57735052pt" />
            <path
               d="m 436.23,885.827 59.833,88.582 60.682,-88.582"
               transform="translate(283.4647,-124.0162)"
               id="path803"
               style="font-size:12px;fill:none;stroke:#000000;stroke-width:0.57735052pt" />
            <path
               d="m 434.533,814.961 61.53,88.582 60.682,-88.582"
               transform="translate(283.4647,-124.0162)"
               id="path804"
               style="font-size:12px;fill:none;stroke:#000000;stroke-width:0.57735052pt" />
            <path
               d="m 435.381,744.095 60.682,88.582 59.833,-88.582"
               transform="translate(283.4647,-124.0162)"
               id="path805"
               style="font-size:12px;fill:none;stroke:#000000;stroke-width:0.57735052pt" />
            <path
               d="m 432.835,690.945 63.228,70.866 53.149,-70.866"
               transform="translate(283.4647,-124.0162)"
               id="path806"
               style="font-size:12px;fill:none;stroke:#000000;stroke-width:0.57735052pt" />
            <path
               d="m 425.197,637.796 70.866,70.865 45.406,-70.865"
               transform="translate(283.4647,-124.0162)"
               id="path807"
               style="font-size:12px;fill:none;stroke:#000000;stroke-width:0.57735052pt" />
            <path
               d="m 436.124,593.238 53.15,86.886 35.327,-95.478"
               transform="translate(283.4647,-124.0162)"
               id="path808"
               style="font-size:12px;fill:none;stroke:#000000;stroke-width:0.57735052pt" />
          </g>
          <g
             transform="matrix(0.04613187,-0.364743,0.326017,0.06479648,379.5799,479.5432)"
             id="g843">
            <path
               d="m 354.331,531.496 88.583,88.583 17.716,-53.149 0,88.582 35.433,-35.433 -17.716,88.583 35.432,-35.434 -17.716,88.584 35.433,-35.433 -17.716,106.299 35.433,-35.433 -35.433,106.299 35.433,-35.433 -17.717,106.298 -17.716,53.151 -17.717,17.72 -17.717,-17.72 -17.716,-53.151 -53.15,-82.294 35.434,11.429 -35.433,-106.299 35.433,35.433 -53.15,-106.299 35.433,35.433 -53.15,-88.584 53.15,35.434 -70.866,-88.583 53.149,35.433 -70.866,-70.866 70.866,35.433 -53.149,-88.583 z"
               transform="translate(442.9136,-42.96583)"
               id="path810"
               style="font-size:12px;fill:#006d00;fill-rule:evenodd;stroke:#ffffff;stroke-width:4.76314163" />
            <path
               d="m 378.962,560.015 63.952,95.497 17.716,53.15 8.859,45.205 8.858,78.811 9.315,70.866 8.401,141.736"
               transform="translate(442.9136,-42.96583)"
               id="path811"
               style="font-size:12px;fill:none;stroke:#000000;stroke-width:0.57735052pt" />
            <path
               d="m 425.197,903.544 63.665,70.866 50.749,-88.583"
               transform="translate(442.9136,-42.96583)"
               id="path812"
               style="font-size:12px;fill:none;stroke:#000000;stroke-width:0.57735052pt" />
            <path
               d="m 417.082,814.961 70.579,88.583 50.75,-88.583"
               transform="translate(442.9136,-42.96583)"
               id="path813"
               style="font-size:12px;fill:none;stroke:#000000;stroke-width:0.57735052pt" />
            <path
               d="m 407.48,752.443 70.867,80.235 45.948,-88.583"
               transform="translate(442.9136,-42.96583)"
               id="path814"
               style="font-size:12px;fill:none;stroke:#000000;stroke-width:0.57735052pt" />
            <path
               d="m 372.047,637.796 88.583,70.866 25.831,-70.866"
               transform="translate(442.9136,-42.96583)"
               id="path815"
               style="font-size:12px;fill:none;stroke:#000000;stroke-width:0.57735052pt" />
            <path
               d="m 360.618,602.363 82.296,53.149 10.515,-53.149"
               transform="translate(442.9136,-42.96583)"
               id="path816"
               style="font-size:12px;fill:none;stroke:#000000;stroke-width:0.57735052pt" />
            <path
               d="m 389.764,690.945 81.095,70.866 33.946,-70.866"
               transform="translate(442.9136,-42.96583)"
               id="path817"
               style="font-size:12px;fill:none;stroke:#000000;stroke-width:0.57735052pt" />
          </g>
        </g>
      </g>
      <g
         transform="matrix(0.253333,0,0,0.253333,412,157.1807)"
         id="g3550">
        <path
           d="m 52.503965,257.67359 98.536255,-17.67999 102.64195,17.67999 -47.62586,19.8016 -87.8615,1.4144 -65.690845,-21.216 z"
           id="path2533"
           style="fill:#9d9d9d;fill-opacity:1;fill-rule:evenodd;stroke:#000000;stroke-width:0.58176106px;stroke-linecap:butt;stroke-linejoin:miter;stroke-opacity:1" />
        <path
           d="m 151.78901,98.44529 c -17.22351,5.98669 -36.30201,-8.425482 -67.359484,15.09326 0,0 -54.143803,-23.162693 -58.256392,30.3711 -0.165278,2.16755 8.570168,15.22347 9.785872,14.29016 6.804262,-5.22372 -3.229737,5.07266 -3.229737,6.56006 0,1.50011 0.99794,2.33284 1.334824,2.9939 0.330533,0.66741 1.163228,1.66538 1.328494,4.49398 0.165267,2.82862 -6.136844,10.54403 -3.473494,13.37264 2.656988,2.8286 2.822255,10.98389 2.822255,13.31034 0,2.32646 1.665379,8.81637 2.828606,10.15119 1.163239,1.3285 3.159161,4.65292 3.159161,7.48153 0,2.82861 1.163217,10.647 0.661055,12.63655 -0.495799,1.99592 2.993883,4.49399 6.159374,5.49194 3.15914,0.99798 43.935293,1.70594 101.162186,0.70799 57.23325,-0.99795 76.32826,8.05754 99.97415,-0.54272 3.65496,-1.32847 4.32239,-4.32236 3.99185,-5.98774 -0.33689,-1.65902 0,-6.97934 0.99796,-8.31418 0.99795,-1.32851 7.65313,-11.97551 6.31827,-13.97143 1.25644,-1.13426 10.58914,5.38966 4.64504,-0.43547 -1.52437,-1.49386 0.85327,-17.21632 1.67324,-20.528 0.82637,-3.31804 2.09568,-9.54978 3.62121,-10.70664 1.5319,-1.15687 -2.59829,-5.48781 -2.30588,-6.26964 0.29876,-0.7882 1.41112,-3.22907 2.9621,-4.34144 0,0 2.88582,-13.52646 1.10601,-20.17526 -1.76708,-6.65519 -8.26925,-36.58296 -48.86138,-30.58886 0,0 -54.34078,-20.899572 -71.04529,-15.09326 z"
           id="path560"
           style="font-size:12px;fill:#cc0000;fill-opacity:1;stroke:#000000;stroke-width:0.94031256;stroke-miterlimit:4;stroke-opacity:1;stroke-dasharray:none" />
        <g
           transform="translate(0,-2.600445e-4)"
           id="g2053">
          <g
             transform="matrix(1.085779,0,0,1.085779,6.91471,26.11235)"
             id="g34262">
            <g
               id="g33323">
              <g
                 id="g33297">
                <g
                   id="g33273">
                  <g
                     id="g33265">
                    <g
                       transform="matrix(0.496967,-0.04459677,0.08946727,0.726775,44.70009,100.5425)"
                       id="g14434"
                       style="stroke-width:1.2411145;stroke-miterlimit:4;stroke-dasharray:none">
                      <path
                         d="m 49.75,0.125 c -5.092827,0.8900867 -15.156033,29.245307 -12.609258,38.75 1.763064,6.579846 4.498063,11.119728 6.046758,13.90625 -3.404145,-4.685606 -11.382431,-13.75 -22.25,-13.75 -13.6630805,-10e-7 -15.4303299,29.947882 -15.09375,31.875 0.00142,0.0068 -0.00148,0.02533 0,0.03125 0.00155,0.005 0.029638,0.02718 0.03125,0.03125 0.00168,-9.45e-4 0.029413,0.0013 0.03125,0 C 6.5192136,70.254323 12.047657,57.875 25.5625,57.875 c 8.896453,10e-7 15.829233,7.035483 18.375,10.03125 -7.26e-4,0.944335 0.0228,1.85815 0.03125,2.78125 -2.003906,2.828474 -3.281413,9.53125 -9.468913,17.96875 C 27.023275,98.851565 4.1284837,99.896789 0.28125,100 c 0.9705601,0 37.52514,0 49.53125,0 0.04742,0 0.109467,0.003 0.15625,0 0.02188,0.002 0.04048,-0.0014 0.0625,0 0.04678,0.003 0.108831,0 0.15625,0 12.00611,0 48.56069,0 49.53125,0 -3.847233,-0.103212 -27.179506,-1.148439 -34.656066,-11.34375 -6.1875,-8.4375 -7.027528,-15.140277 -9.031434,-17.96875 0.0085,-0.9231 0.03198,-1.836915 0.03125,-2.78125 2.545766,-2.995768 9.478545,-10.031251 18.375,-10.03125 13.514843,0 19.043288,12.379327 19.65625,13.09375 0.0018,0.0013 0.02957,-9.45e-4 0.03125,0 0.0016,-0.0041 0.0297,-0.02625 0.03125,-0.03125 0.0015,-0.0059 -0.0014,-0.02442 0,-0.03125 0.33658,-1.927117 -1.430666,-31.875 -15.09375,-31.875 -10.867569,0 -18.845855,9.064394 -22.25,13.75 C 58.361195,49.994728 61.102733,44.205918 62.531148,38.875 65.118348,29.219439 55.091155,0.1322067 50,0.125 c -0.07955,1.1261e-4 -0.169161,-0.0141284 -0.25,0 z m -6.4375,52.84375 c 0.352307,0.490387 0.662214,0.912414 0.90625,1.28125 0.0052,0.0078 0.541741,2.976504 0.546849,2.984237 -0.0024,0.0637 2.627231,10.185847 2.624878,10.249531 C 47.126088,67.092089 43.653445,53.568624 43.3125,52.96875 z m 13.375,0 c -0.340945,0.599874 -4.032328,14.123339 -4.296717,14.515018 -0.0024,-0.06368 3.392848,-13.138815 3.390467,-13.202518 -3.97e-4,-0.01062 -0.437082,2.963605 -0.43748,2.952987 0.244036,-0.368836 0.991423,-3.7751 1.34373,-4.265487 z"
                         id="path13497"
                         style="fill:#f7d917;fill-opacity:1;fill-rule:evenodd;stroke:#000000;stroke-width:0.7165581;stroke-linecap:butt;stroke-linejoin:miter;stroke-miterlimit:4;stroke-opacity:1;stroke-dasharray:none" />
                      <path
                         d="m 42,67.578191 c 0,0 4,-1.859288 8,-1.859288 4,0 8,1.859288 8,1.859288 l 0,4.952988 c 0,0 -4,-1.859289 -8,-1.859289 -4,0 -8,1.859289 -8,1.859289 l 0,-4.952988 z"
                         id="path13500"
                         style="fill:#f7d917;fill-opacity:1;fill-rule:evenodd;stroke:#000000;stroke-width:0.7165581;stroke-linecap:butt;stroke-linejoin:miter;stroke-miterlimit:4;stroke-opacity:1;stroke-dasharray:none" />
                    </g>
                    <g
                       transform="matrix(0.495379,0.05970303,-0.06359282,0.729495,168.9189,96.59048)"
                       id="g27449"
                       style="stroke-width:1.24111438;stroke-miterlimit:4;stroke-dasharray:none">
                      <path
                         d="m 49.75,0.125 c -5.092827,0.8900867 -15.156033,29.245307 -12.609258,38.75 1.763064,6.579846 4.498063,11.119728 6.046758,13.90625 -3.404145,-4.685606 -11.382431,-13.75 -22.25,-13.75 -13.6630805,-10e-7 -15.4303299,29.947882 -15.09375,31.875 0.00142,0.0068 -0.00148,0.02533 0,0.03125 0.00155,0.005 0.029638,0.02718 0.03125,0.03125 0.00168,-9.45e-4 0.029413,0.0013 0.03125,0 C 6.5192136,70.254323 12.047657,57.875 25.5625,57.875 c 8.896453,10e-7 15.829233,7.035483 18.375,10.03125 -7.26e-4,0.944335 0.0228,1.85815 0.03125,2.78125 -2.003906,2.828474 -3.281413,9.53125 -9.468913,17.96875 C 27.023275,98.851565 4.1284837,99.896789 0.28125,100 c 0.9705601,0 37.52514,0 49.53125,0 0.04742,0 0.109467,0.003 0.15625,0 0.02188,0.002 0.04048,-0.0014 0.0625,0 0.04678,0.003 0.108831,0 0.15625,0 12.00611,0 48.56069,0 49.53125,0 -3.847233,-0.103212 -27.179506,-1.148439 -34.656066,-11.34375 -6.1875,-8.4375 -7.027528,-15.140277 -9.031434,-17.96875 0.0085,-0.9231 0.03198,-1.836915 0.03125,-2.78125 2.545766,-2.995768 9.478545,-10.031251 18.375,-10.03125 13.514843,0 19.043288,12.379327 19.65625,13.09375 0.0018,0.0013 0.02957,-9.45e-4 0.03125,0 0.0016,-0.0041 0.0297,-0.02625 0.03125,-0.03125 0.0015,-0.0059 -0.0014,-0.02442 0,-0.03125 0.33658,-1.927117 -1.430666,-31.875 -15.09375,-31.875 -10.867569,0 -18.845855,9.064394 -22.25,13.75 C 58.361195,49.994728 61.102733,44.205918 62.531148,38.875 65.118348,29.219439 55.091155,0.1322067 50,0.125 c -0.07955,1.1261e-4 -0.169161,-0.0141284 -0.25,0 z m -6.4375,52.84375 c 0.352307,0.490387 0.662214,0.912414 0.90625,1.28125 0.0052,0.0078 0.541741,2.976504 0.546849,2.984237 -0.0024,0.0637 2.627231,10.185847 2.624878,10.249531 C 47.126088,67.092089 43.653445,53.568624 43.3125,52.96875 z m 13.375,0 c -0.340945,0.599874 -4.032328,14.123339 -4.296717,14.515018 -0.0024,-0.06368 3.392848,-13.138815 3.390467,-13.202518 -3.97e-4,-0.01062 -0.437082,2.963605 -0.43748,2.952987 0.244036,-0.368836 0.991423,-3.7751 1.34373,-4.265487 z"
                         id="path27451"
                         style="fill:#f7d917;fill-opacity:1;fill-rule:evenodd;stroke:#000000;stroke-width:0.71655804;stroke-linecap:butt;stroke-linejoin:miter;stroke-miterlimit:4;stroke-opacity:1;stroke-dasharray:none" />
                      <path
                         d="m 42,67.578191 c 0,0 4,-1.859288 8,-1.859288 4,0 8,1.859288 8,1.859288 l 0,4.952988 c 0,0 -4,-1.859289 -8,-1.859289 -4,0 -8,1.859289 -8,1.859289 l 0,-4.952988 z"
                         id="path27453"
                         style="fill:#f7d917;fill-opacity:1;fill-rule:evenodd;stroke:#000000;stroke-width:0.71655804;stroke-linecap:butt;stroke-linejoin:miter;stroke-miterlimit:4;stroke-opacity:1;stroke-dasharray:none" />
                    </g>
                  </g>
                  <g
                     id="g33161">
                    <g
                       id="g33067">
                      <g
                         id="g33040">
                        <path
                           d="m 24.307772,134.55964 9.689857,-11.8136 c 0,0 0.903669,1.16821 0,0 C 14.132028,97.064775 13.127166,82.331049 15.363287,74.869821 c 2.236121,-7.461228 6.708363,-15.544226 18.634342,-25.49253 11.925978,-9.948305 20.156178,-4.419053 31.336783,-4.419053 11.180604,0 14.162099,2.487076 23.851958,3.730614 9.689855,1.243538 35.77793,2.487077 35.77793,2.487077 l 0,-6.83946 c 0,0 1.02874,0.191785 0,0 -11.51866,-2.147409 -26.088075,0 -35.77793,-2.487076 -9.689859,-2.487077 -17.888969,-3.108845 -28.3242,-3.108845 -10.435231,0 -17.920056,-3.042176 -24.628419,1.310207 -6.708363,4.352383 -14.907474,11.813612 -20.870464,18.031303 -5.9629899,6.21769 -8.9444837,18.65307 -8.1991107,26.736068 0.7453739,8.082998 3.7268687,14.922457 8.1991107,21.140144 4.472243,6.21769 3.726869,11.19184 5.217616,15.54422 1.490747,4.35239 3.726869,13.67892 3.726869,13.05715 z"
                           id="path28377"
                           style="fill:#f7d917;fill-opacity:1;fill-rule:evenodd;stroke:#000000;stroke-width:0.41269612;stroke-linecap:butt;stroke-linejoin:miter;stroke-miterlimit:4;stroke-opacity:1;stroke-dasharray:none" />
                        <path
                           d="m 239.25473,134.55964 -9.68986,-11.8136 c 0,0 -0.90367,1.16821 0,0 19.8656,-25.681265 20.87046,-40.414991 18.63434,-47.876219 -2.23612,-7.461228 -6.70836,-15.544226 -18.63434,-25.49253 -11.92598,-9.948305 -20.15618,-4.419053 -31.33678,-4.419053 -11.18061,0 -14.1621,2.487076 -23.85196,3.730614 -9.68986,1.243538 -35.77793,2.487077 -35.77793,2.487077 l 0,-6.83946 c 0,0 -1.02874,0.191785 0,0 11.51866,-2.147409 26.08807,0 35.77793,-2.487076 9.68986,-2.487077 17.88897,-3.108845 28.3242,-3.108845 10.43523,0 17.92006,-3.042176 24.62842,1.310207 6.70836,4.352383 14.90747,11.813612 20.87046,18.031303 5.96299,6.21769 8.94449,18.65307 8.19911,26.736068 -0.74537,8.082998 -3.72686,14.922457 -8.19911,21.140144 -4.47224,6.21769 -3.72687,11.19184 -5.21761,15.54422 -1.49075,4.35239 -3.72687,13.67892 -3.72687,13.05715 z"
                           id="path29282"
                           style="fill:#f7d917;fill-opacity:1;fill-rule:evenodd;stroke:#000000;stroke-width:0.41269612;stroke-linecap:butt;stroke-linejoin:miter;stroke-miterlimit:4;stroke-opacity:1;stroke-dasharray:none" />
                        <rect
                           width="34.563435"
                           height="70.893784"
                           x="115.55334"
                           y="38.701004"
                           id="rect29364"
                           style="fill:#f7d917;fill-opacity:1;fill-rule:evenodd;stroke:#000000;stroke-width:0.48206493;stroke-linecap:butt;stroke-linejoin:miter;stroke-miterlimit:4;stroke-opacity:1;stroke-dasharray:none" />
                      </g>
                      <g
                         transform="translate(0,-8)"
                         id="g33061">
                        <path
                           d="m 119.68386,-15.799146 c 0,0 3.72042,3.028232 6.5756,6.9216745 2.85519,3.8934409 4.84517,8.6520918 4.84517,8.6520918 0,0 -4.75866,-1.9899814 -8.65209,-4.8451713 -3.89345,-2.8551915 -6.92168,-6.57559 -6.92168,-6.57559 l 0,26.302362 c 0,0 3.02823,-3.720401 6.92168,-6.575592 3.89343,-2.8551899 8.65209,-4.8451713 8.65209,-4.8451713 0,0 -1.53331,3.926624 -2.52374,8.6520923 -0.8909,4.250585 -8.18274,14.064531 -8.18274,14.064531 l 21.30238,1.428571 c 0,0 -3.54183,-11.242517 -4.96846,-15.493102 -1.53625,-4.5772182 -2.1666,-8.6520923 -2.1666,-8.6520923 0,0 4.75866,1.9899814 8.65209,4.8451713 3.89345,2.855191 6.92168,6.575592 6.92168,6.575592 l 0,-26.302362 c 0,0 -3.02823,3.7203985 -6.92168,6.57559 -3.89343,2.8551899 -8.65209,4.8451713 -8.65209,4.8451713 0,0 1.98998,-4.7586509 4.84517,-8.6520918 2.8552,-3.8934425 6.5756,-6.9216745 6.5756,-6.9216745 l -26.30238,0 z"
                           id="path29388"
                           style="fill:#f7d917;fill-opacity:1;fill-rule:evenodd;stroke:#000000;stroke-width:0.28867525;stroke-linecap:butt;stroke-linejoin:miter;stroke-miterlimit:4;stroke-opacity:1;stroke-dasharray:none" />
                        <g
                           id="g33057">
                          <path
                             d="m 150,23.076468 a 17.142857,17.142857 0 1 1 -34.28571,0 17.142857,17.142857 0 1 1 34.28571,0 z"
                             transform="translate(-0.02209282,8)"
                             id="path29366"
                             style="fill:#f7d917;fill-opacity:1;fill-rule:evenodd;stroke:#000000;stroke-width:0.4330129;stroke-linecap:butt;stroke-linejoin:miter;stroke-miterlimit:4;stroke-opacity:1;stroke-dasharray:none" />
                          <path
                             d="m 116.07419,33.53461 34.10162,0 c 0,0 0.49381,-6.595881 -1.97431,-9.064002 -2.3786,0 -10.594,0 -10.594,0 l -0.17857,-9.888001 -3.94496,0 -6.09693,0 -0.17857,9.888001 c 0,0 -7.12717,0.357143 -10.41089,0.357143 -1.48893,4.041643 -1.2591,4.380859 -1.2591,4.380859 l 0.53571,4.326 z"
                             id="path31255"
                             style="fill:#f7d917;fill-opacity:1;fill-rule:evenodd;stroke:#000000;stroke-width:0.28867525;stroke-linecap:butt;stroke-linejoin:miter;stroke-miterlimit:4;stroke-opacity:1;stroke-dasharray:none" />
                        </g>
                      </g>
                    </g>
                    <g
                       id="g33156">
                      <path
                         d="m 110.87688,107.22088 c 0,0 6.21185,5.05616 10.97908,11.55693 4.76724,6.50078 8.08986,14.44617 8.08986,14.44617 0,0 -7.94539,-3.32262 -14.44617,-8.08986 -6.50077,-4.76723 -11.55693,-10.97908 -11.55693,-10.97908 l 0,43.91634 c 0,0 5.05616,-6.21184 11.55693,-10.97908 6.50078,-4.76724 14.44617,-8.08986 14.44617,-8.08986 0,0 -3.32262,7.94539 -8.08986,14.44617 -4.76723,6.50078 -10.97908,11.55694 -10.97908,11.55694 l 43.91634,0 c 0,0 -6.21185,-5.05616 -10.97908,-11.55694 -4.76724,-6.50078 -8.08986,-14.44617 -8.08986,-14.44617 0,0 7.94539,3.32262 14.44617,8.08986 6.50077,4.76724 11.55694,10.97908 11.55694,10.97908 l 0,-43.91634 c 0,0 -5.05617,6.21185 -11.55694,10.97908 -6.50078,4.76724 -14.44617,8.08986 -14.44617,8.08986 0,0 3.32262,-7.94539 8.08986,-14.44617 4.76723,-6.50077 10.97908,-11.55693 10.97908,-11.55693 l -43.91634,0 z"
                         id="path11917"
                         style="fill:#f7d917;fill-opacity:1;fill-rule:evenodd;stroke:#000000;stroke-width:0.4330129;stroke-linecap:butt;stroke-linejoin:miter;stroke-miterlimit:4;stroke-opacity:1;stroke-dasharray:none" />
                      <path
                         d="m 27.240452,181.77981 21.624576,-3.81299 c 0,0 -6.995471,-3.90067 -12.819124,-9.47487 -5.823664,-5.5742 -10.475508,-12.82191 -10.475508,-12.82191 0,0 8.401648,1.89244 15.63149,5.4584 7.229831,3.56597 13.287861,8.80544 13.287861,8.80544 l -7.625993,-43.24915 c 0,0 -3.900679,6.99548 -9.474866,12.81913 -5.574196,5.82366 -12.821911,10.47551 -12.821911,10.47551 0,0 1.892439,-8.40165 5.458406,-15.63149 3.565958,-7.22983 8.805443,-13.28786 8.805443,-13.28786 l -21.624576,3.813 10.034202,56.90679 z"
                         id="path27435"
                         style="fill:#f7d917;fill-opacity:1;fill-rule:evenodd;stroke:#000000;stroke-width:0.4330129;stroke-linecap:butt;stroke-linejoin:miter;stroke-miterlimit:4;stroke-opacity:1;stroke-dasharray:none" />
                      <path
                         d="m 226.83929,121.06002 c 0,0 5.23948,6.05801 8.80544,13.28784 3.56596,7.22984 5.4584,15.63149 5.4584,15.63149 0,0 -7.24771,-4.65184 -12.82191,-10.4755 -5.57418,-5.82366 -9.47485,-12.81913 -9.47485,-12.81913 l -7.626,43.24915 c 0,0 6.05802,-5.23947 13.28786,-8.80544 7.22984,-3.56596 15.63149,-5.4584 15.63149,-5.4584 0,0 -4.65185,7.24771 -10.47551,12.82191 -5.82366,5.57419 -12.81913,9.47486 -12.81913,9.47486 l 21.62458,3.813 10.0342,-56.90679 -21.62457,-3.81299 z"
                         id="path27433"
                         style="fill:#f7d917;fill-opacity:1;fill-rule:evenodd;stroke:#000000;stroke-width:0.4330129;stroke-linecap:butt;stroke-linejoin:miter;stroke-miterlimit:4;stroke-opacity:1;stroke-dasharray:none" />
                    </g>
                  </g>
                </g>
                <path
                   d="m 27.463842,179.53267 0.149886,31.50653 c 0,0 52.648135,-17.92822 105.296282,-17.92822 52.64812,0 105.29626,17.92822 105.29626,17.92822 l 0,-31.50653 c 0,0 -52.68561,-17.92822 -105.37121,-17.92822 -52.685611,0 -105.371218,17.92822 -105.371218,17.92822 z"
                   id="path14537"
                   style="fill:#f7d917;fill-opacity:1;fill-rule:evenodd;stroke:#000000;stroke-width:0.4330129;stroke-linecap:butt;stroke-linejoin:miter;stroke-miterlimit:4;stroke-opacity:1;stroke-dasharray:none" />
              </g>
              <g
                 id="g31151">
                <path
                   d="m 2.0203056,723.05243 a 12.121831,12.121831 0 1 1 -24.2436616,0 12.121831,12.121831 0 1 1 24.2436616,0 z"
                   transform="matrix(0.661234,0,0,0.661234,21.24618,-360.3206)"
                   id="path23567"
                   style="fill:#ffffff;fill-opacity:1;fill-rule:evenodd;stroke:#000000;stroke-width:0.86602581;stroke-linecap:butt;stroke-linejoin:miter;stroke-miterlimit:4;stroke-opacity:1;stroke-dasharray:none" />
                <path
                   d="m 2.0203056,723.05243 a 12.121831,12.121831 0 1 1 -24.2436616,0 12.121831,12.121831 0 1 1 24.2436616,0 z"
                   transform="matrix(0.661234,0,0,0.661234,10.96519,-378.6019)"
                   id="path29252"
                   style="fill:#ffffff;fill-opacity:1;fill-rule:evenodd;stroke:#000000;stroke-width:0.86602581;stroke-linecap:butt;stroke-linejoin:miter;stroke-miterlimit:4;stroke-opacity:1;stroke-dasharray:none" />
                <path
                   d="m 2.0203056,723.05243 a 12.121831,12.121831 0 1 1 -24.2436616,0 12.121831,12.121831 0 1 1 24.2436616,0 z"
                   transform="matrix(0.661234,0,0,0.661234,8.822333,-400.0304)"
                   id="path29254"
                   style="fill:#ffffff;fill-opacity:1;fill-rule:evenodd;stroke:#000000;stroke-width:0.86602581;stroke-linecap:butt;stroke-linejoin:miter;stroke-miterlimit:4;stroke-opacity:1;stroke-dasharray:none" />
                <path
                   d="m 2.0203056,723.05243 a 12.121831,12.121831 0 1 1 -24.2436616,0 12.121831,12.121831 0 1 1 24.2436616,0 z"
                   transform="matrix(0.661234,0,0,0.661234,15.25091,-420.0304)"
                   id="path29256"
                   style="fill:#ffffff;fill-opacity:1;fill-rule:evenodd;stroke:#000000;stroke-width:0.86602581;stroke-linecap:butt;stroke-linejoin:miter;stroke-miterlimit:4;stroke-opacity:1;stroke-dasharray:none" />
                <path
                   d="m 2.0203056,723.05243 a 12.121831,12.121831 0 1 1 -24.2436616,0 12.121831,12.121831 0 1 1 24.2436616,0 z"
                   transform="matrix(0.661234,0,0,0.661234,28.82233,-436.459)"
                   id="path29258"
                   style="fill:#ffffff;fill-opacity:1;fill-rule:evenodd;stroke:#000000;stroke-width:0.86602581;stroke-linecap:butt;stroke-linejoin:miter;stroke-miterlimit:4;stroke-opacity:1;stroke-dasharray:none" />
                <path
                   d="m 2.0203056,723.05243 a 12.121831,12.121831 0 1 1 -24.2436616,0 12.121831,12.121831 0 1 1 24.2436616,0 z"
                   transform="matrix(0.661234,0,0,0.661234,47.39376,-447.8875)"
                   id="path29260"
                   style="fill:#ffffff;fill-opacity:1;fill-rule:evenodd;stroke:#000000;stroke-width:0.86602581;stroke-linecap:butt;stroke-linejoin:miter;stroke-miterlimit:4;stroke-opacity:1;stroke-dasharray:none" />
                <path
                   d="m 2.0203056,723.05243 a 12.121831,12.121831 0 1 1 -24.2436616,0 12.121831,12.121831 0 1 1 24.2436616,0 z"
                   transform="matrix(0.661234,0,0,0.661234,68.10805,-446.459)"
                   id="path29262"
                   style="fill:#ffffff;fill-opacity:1;fill-rule:evenodd;stroke:#000000;stroke-width:0.86602581;stroke-linecap:butt;stroke-linejoin:miter;stroke-miterlimit:4;stroke-opacity:1;stroke-dasharray:none" />
                <path
                   d="m 2.0203056,723.05243 a 12.121831,12.121831 0 1 1 -24.2436616,0 12.121831,12.121831 0 1 1 24.2436616,0 z"
                   transform="matrix(0.661234,0,0,0.661234,88.82233,-443.0304)"
                   id="path29264"
                   style="fill:#ffffff;fill-opacity:1;fill-rule:evenodd;stroke:#000000;stroke-width:0.86602581;stroke-linecap:butt;stroke-linejoin:miter;stroke-miterlimit:4;stroke-opacity:1;stroke-dasharray:none" />
                <path
                   d="m 2.0203056,723.05243 a 12.121831,12.121831 0 1 1 -24.2436616,0 12.121831,12.121831 0 1 1 24.2436616,0 z"
                   transform="matrix(0.661234,0,0,0.661234,109.5366,-440.8875)"
                   id="path29266"
                   style="fill:#ffffff;fill-opacity:1;fill-rule:evenodd;stroke:#000000;stroke-width:0.86602581;stroke-linecap:butt;stroke-linejoin:miter;stroke-miterlimit:4;stroke-opacity:1;stroke-dasharray:none" />
                <path
                   d="m 2.0203056,723.05243 a 12.121831,12.121831 0 1 1 -24.2436616,0 12.121831,12.121831 0 1 1 24.2436616,0 z"
                   transform="matrix(-0.661234,0,0,0.661234,242.3163,-360.3206)"
                   id="path29284"
                   style="fill:#ffffff;fill-opacity:1;fill-rule:evenodd;stroke:#000000;stroke-width:0.86602581;stroke-linecap:butt;stroke-linejoin:miter;stroke-miterlimit:4;stroke-opacity:1;stroke-dasharray:none" />
                <path
                   d="m 2.0203056,723.05243 a 12.121831,12.121831 0 1 1 -24.2436616,0 12.121831,12.121831 0 1 1 24.2436616,0 z"
                   transform="matrix(-0.661234,0,0,0.661234,252.5973,-378.6019)"
                   id="path29286"
                   style="fill:#ffffff;fill-opacity:1;fill-rule:evenodd;stroke:#000000;stroke-width:0.86602581;stroke-linecap:butt;stroke-linejoin:miter;stroke-miterlimit:4;stroke-opacity:1;stroke-dasharray:none" />
                <path
                   d="m 2.0203056,723.05243 a 12.121831,12.121831 0 1 1 -24.2436616,0 12.121831,12.121831 0 1 1 24.2436616,0 z"
                   transform="matrix(-0.661234,0,0,0.661234,254.7402,-400.0304)"
                   id="path29288"
                   style="fill:#ffffff;fill-opacity:1;fill-rule:evenodd;stroke:#000000;stroke-width:0.86602581;stroke-linecap:butt;stroke-linejoin:miter;stroke-miterlimit:4;stroke-opacity:1;stroke-dasharray:none" />
                <path
                   d="m 2.0203056,723.05243 a 12.121831,12.121831 0 1 1 -24.2436616,0 12.121831,12.121831 0 1 1 24.2436616,0 z"
                   transform="matrix(-0.661234,0,0,0.661234,248.3116,-420.0304)"
                   id="path29290"
                   style="fill:#ffffff;fill-opacity:1;fill-rule:evenodd;stroke:#000000;stroke-width:0.86602581;stroke-linecap:butt;stroke-linejoin:miter;stroke-miterlimit:4;stroke-opacity:1;stroke-dasharray:none" />
                <path
                   d="m 2.0203056,723.05243 a 12.121831,12.121831 0 1 1 -24.2436616,0 12.121831,12.121831 0 1 1 24.2436616,0 z"
                   transform="matrix(-0.661234,0,0,0.661234,234.7402,-436.459)"
                   id="path29292"
                   style="fill:#ffffff;fill-opacity:1;fill-rule:evenodd;stroke:#000000;stroke-width:0.86602581;stroke-linecap:butt;stroke-linejoin:miter;stroke-miterlimit:4;stroke-opacity:1;stroke-dasharray:none" />
                <path
                   d="m 2.0203056,723.05243 a 12.121831,12.121831 0 1 1 -24.2436616,0 12.121831,12.121831 0 1 1 24.2436616,0 z"
                   transform="matrix(-0.661234,0,0,0.661234,216.1687,-447.8875)"
                   id="path29294"
                   style="fill:#ffffff;fill-opacity:1;fill-rule:evenodd;stroke:#000000;stroke-width:0.86602581;stroke-linecap:butt;stroke-linejoin:miter;stroke-miterlimit:4;stroke-opacity:1;stroke-dasharray:none" />
                <path
                   d="m 2.0203056,723.05243 a 12.121831,12.121831 0 1 1 -24.2436616,0 12.121831,12.121831 0 1 1 24.2436616,0 z"
                   transform="matrix(-0.661234,0,0,0.661234,195.4544,-446.459)"
                   id="path29296"
                   style="fill:#ffffff;fill-opacity:1;fill-rule:evenodd;stroke:#000000;stroke-width:0.86602581;stroke-linecap:butt;stroke-linejoin:miter;stroke-miterlimit:4;stroke-opacity:1;stroke-dasharray:none" />
                <path
                   d="m 2.0203056,723.05243 a 12.121831,12.121831 0 1 1 -24.2436616,0 12.121831,12.121831 0 1 1 24.2436616,0 z"
                   transform="matrix(-0.661234,0,0,0.661234,174.7402,-443.0304)"
                   id="path29298"
                   style="fill:#ffffff;fill-opacity:1;fill-rule:evenodd;stroke:#000000;stroke-width:0.86602581;stroke-linecap:butt;stroke-linejoin:miter;stroke-miterlimit:4;stroke-opacity:1;stroke-dasharray:none" />
                <path
                   d="m 2.0203056,723.05243 a 12.121831,12.121831 0 1 1 -24.2436616,0 12.121831,12.121831 0 1 1 24.2436616,0 z"
                   transform="matrix(-0.661234,0,0,0.661234,154.0259,-440.8875)"
                   id="path29300"
                   style="fill:#ffffff;fill-opacity:1;fill-rule:evenodd;stroke:#000000;stroke-width:0.86602581;stroke-linecap:butt;stroke-linejoin:miter;stroke-miterlimit:4;stroke-opacity:1;stroke-dasharray:none" />
                <g
                   transform="translate(1.040326,0)"
                   id="g29354">
                  <path
                     d="m 2.0203056,723.05243 a 12.121831,12.121831 0 1 1 -24.2436616,0 12.121831,12.121831 0 1 1 24.2436616,0 z"
                     transform="matrix(0.661234,0,0,0.661234,138.4742,-378.3206)"
                     id="path29306"
                     style="fill:#ffffff;fill-opacity:1;fill-rule:evenodd;stroke:#000000;stroke-width:0.86602581;stroke-linecap:butt;stroke-linejoin:miter;stroke-miterlimit:4;stroke-opacity:1;stroke-dasharray:none" />
                  <path
                     d="m 2.0203056,723.05243 a 12.121831,12.121831 0 1 1 -24.2436616,0 12.121831,12.121831 0 1 1 24.2436616,0 z"
                     transform="matrix(0.661234,0,0,0.661234,138.4742,-392.6019)"
                     id="path29308"
                     style="fill:#ffffff;fill-opacity:1;fill-rule:evenodd;stroke:#000000;stroke-width:0.86602581;stroke-linecap:butt;stroke-linejoin:miter;stroke-miterlimit:4;stroke-opacity:1;stroke-dasharray:none" />
                  <path
                     d="m 2.0203056,723.05243 a 12.121831,12.121831 0 1 1 -24.2436616,0 12.121831,12.121831 0 1 1 24.2436616,0 z"
                     transform="matrix(0.661234,0,0,0.661234,138.4742,-404.0304)"
                     id="path29312"
                     style="fill:#ffffff;fill-opacity:1;fill-rule:evenodd;stroke:#000000;stroke-width:0.86602581;stroke-linecap:butt;stroke-linejoin:miter;stroke-miterlimit:4;stroke-opacity:1;stroke-dasharray:none" />
                  <path
                     d="m 2.0203056,723.05243 a 12.121831,12.121831 0 1 1 -24.2436616,0 12.121831,12.121831 0 1 1 24.2436616,0 z"
                     transform="matrix(0.661234,0,0,0.661234,138.4742,-414.459)"
                     id="path29314"
                     style="fill:#ffffff;fill-opacity:1;fill-rule:evenodd;stroke:#000000;stroke-width:0.86602581;stroke-linecap:butt;stroke-linejoin:miter;stroke-miterlimit:4;stroke-opacity:1;stroke-dasharray:none" />
                  <path
                     d="m 2.0203056,723.05243 a 12.121831,12.121831 0 1 1 -24.2436616,0 12.121831,12.121831 0 1 1 24.2436616,0 z"
                     transform="matrix(0.661234,0,0,0.661234,138.4742,-447.8875)"
                     id="path29316"
                     style="fill:#ffffff;fill-opacity:1;fill-rule:evenodd;stroke:#000000;stroke-width:0.86602581;stroke-linecap:butt;stroke-linejoin:miter;stroke-miterlimit:4;stroke-opacity:1;stroke-dasharray:none" />
                  <path
                     d="m 2.0203056,723.05243 a 12.121831,12.121831 0 1 1 -24.2436616,0 12.121831,12.121831 0 1 1 24.2436616,0 z"
                     transform="matrix(0.661234,0,0,0.661234,138.4742,-446.459)"
                     id="path29318"
                     style="fill:#ffffff;fill-opacity:1;fill-rule:evenodd;stroke:#000000;stroke-width:0.86602581;stroke-linecap:butt;stroke-linejoin:miter;stroke-miterlimit:4;stroke-opacity:1;stroke-dasharray:none" />
                  <path
                     d="m 2.0203056,723.05243 a 12.121831,12.121831 0 1 1 -24.2436616,0 12.121831,12.121831 0 1 1 24.2436616,0 z"
                     transform="matrix(0.661234,0,0,0.661234,138.4742,-439.0304)"
                     id="path29320"
                     style="fill:#ffffff;fill-opacity:1;fill-rule:evenodd;stroke:#000000;stroke-width:0.86602581;stroke-linecap:butt;stroke-linejoin:miter;stroke-miterlimit:4;stroke-opacity:1;stroke-dasharray:none" />
                  <path
                     d="m 2.0203056,723.05243 a 12.121831,12.121831 0 1 1 -24.2436616,0 12.121831,12.121831 0 1 1 24.2436616,0 z"
                     transform="matrix(0.661234,0,0,0.661234,138.4742,-428.8875)"
                     id="path29322"
                     style="fill:#ffffff;fill-opacity:1;fill-rule:evenodd;stroke:#000000;stroke-width:0.86602581;stroke-linecap:butt;stroke-linejoin:miter;stroke-miterlimit:4;stroke-opacity:1;stroke-dasharray:none" />
                </g>
              </g>
            </g>
            <g
               id="g34257">
              <path
                 d="m 143.57142,136.29076 a 10.357142,10.357142 0 1 1 -20.71428,0 10.357142,10.357142 0 1 1 20.71428,0 z"
                 transform="translate(-0.457137,-2)"
                 id="path33378"
                 style="fill:#ffffff;fill-opacity:1;fill-rule:evenodd;stroke:#000000;stroke-width:0.5773505;stroke-linecap:butt;stroke-linejoin:miter;stroke-miterlimit:4;stroke-opacity:1;stroke-dasharray:none" />
              <path
                 d="m 143.57142,136.29076 a 10.357142,10.357142 0 1 1 -20.71428,0 10.357142,10.357142 0 1 1 20.71428,0 z"
                 transform="translate(-108.7143,16.78571)"
                 id="path34253"
                 style="fill:#ffffff;fill-opacity:1;fill-rule:evenodd;stroke:#000000;stroke-width:0.5773505;stroke-linecap:butt;stroke-linejoin:miter;stroke-miterlimit:4;stroke-opacity:1;stroke-dasharray:none" />
              <path
                 d="m 143.57142,136.29076 a 10.357142,10.357142 0 1 1 -20.71428,0 10.357142,10.357142 0 1 1 20.71428,0 z"
                 transform="translate(107.2857,16.78571)"
                 id="path34255"
                 style="fill:#ffffff;fill-opacity:1;fill-rule:evenodd;stroke:#000000;stroke-width:0.5773505;stroke-linecap:butt;stroke-linejoin:miter;stroke-miterlimit:4;stroke-opacity:1;stroke-dasharray:none" />
            </g>
          </g>
          <g
             id="g2038">
            <rect
               width="34.761723"
               height="15.152546"
               x="134.79076"
               y="210.09613"
               id="rect36472"
               style="fill:#002b7f;fill-opacity:1;fill-rule:evenodd;stroke:#000000;stroke-width:0.48578963;stroke-linecap:butt;stroke-linejoin:miter;stroke-miterlimit:4;stroke-opacity:1;stroke-dasharray:none" />
            <path
               d="m 16.04278,233.11084 a 22.994652,8.5561495 0 1 1 -45.989304,0 22.994652,8.5561495 0 1 1 45.989304,0 z"
               transform="matrix(-0.678154,-0.06882792,0.02382547,0.957698,195.4766,-0.830297)"
               id="path37350"
               style="fill:#3e8225;fill-opacity:1;fill-rule:evenodd;stroke:#000000;stroke-width:0.86602581;stroke-linecap:butt;stroke-linejoin:miter;stroke-miterlimit:4;stroke-opacity:1;stroke-dasharray:none" />
            <path
               d="m 36.937037,229.28499 -8.709457,8.70946 10.101295,5.83199 23.492924,-6.29491 -4.186959,-13.30341 -20.697803,5.05687 z"
               id="path37352"
               style="fill:#cc0000;fill-opacity:1;fill-rule:evenodd;stroke:#000000;stroke-width:0.62687504px;stroke-linecap:butt;stroke-linejoin:miter;stroke-opacity:1" />
            <path
               d="m 267.40617,229.28499 8.70946,8.70946 -10.1013,5.83199 -23.49292,-6.29491 4.18696,-13.30341 20.6978,5.05687 z"
               id="path37354"
               style="fill:#cc0000;fill-opacity:1;fill-rule:evenodd;stroke:#000000;stroke-width:0.62687504px;stroke-linecap:butt;stroke-linejoin:miter;stroke-opacity:1" />
            <path
               d="m 16.04278,233.11084 a 22.994652,8.5561495 0 1 1 -45.989304,0 22.994652,8.5561495 0 1 1 45.989304,0 z"
               transform="matrix(0.678154,-0.06882792,-0.02382547,0.957698,108.8665,-0.830297)"
               id="path37356"
               style="fill:#3e8225;fill-opacity:1;fill-rule:evenodd;stroke:#000000;stroke-width:0.86602581;stroke-linecap:butt;stroke-linejoin:miter;stroke-miterlimit:4;stroke-opacity:1;stroke-dasharray:none" />
            <path
               d="m 126.20321,214.70358 a 4.278075,4.278075 0 1 1 -8.55615,0 4.278075,4.278075 0 1 1 8.55615,0 z"
               transform="translate(1.069518,-3.475935)"
               id="path1994"
               style="fill:#ffffff;fill-opacity:1;fill-rule:evenodd;stroke:#000000;stroke-width:0.40414536;stroke-linecap:butt;stroke-linejoin:miter;stroke-miterlimit:4;stroke-opacity:1;stroke-dasharray:none" />
            <path
               d="m 126.20321,214.70358 a 4.278075,4.278075 0 1 1 -8.55615,0 4.278075,4.278075 0 1 1 8.55615,0 z"
               transform="translate(2.406416,10.16042)"
               id="path1996"
               style="fill:#ffffff;fill-opacity:1;fill-rule:evenodd;stroke:#000000;stroke-width:0.40414536;stroke-linecap:butt;stroke-linejoin:miter;stroke-miterlimit:4;stroke-opacity:1;stroke-dasharray:none" />
            <path
               d="m 126.20321,214.70358 a 4.278075,4.278075 0 1 1 -8.55615,0 4.278075,4.278075 0 1 1 8.55615,0 z"
               transform="translate(-52.40642,6.149728)"
               id="path1998"
               style="fill:#ffffff;fill-opacity:1;fill-rule:evenodd;stroke:#000000;stroke-width:0.40414536;stroke-linecap:butt;stroke-linejoin:miter;stroke-miterlimit:4;stroke-opacity:1;stroke-dasharray:none" />
            <path
               d="m 126.20321,214.70358 a 4.278075,4.278075 0 1 1 -8.55615,0 4.278075,4.278075 0 1 1 8.55615,0 z"
               transform="translate(-47.05882,18.98396)"
               id="path2000"
               style="fill:#ffffff;fill-opacity:1;fill-rule:evenodd;stroke:#000000;stroke-width:0.40414536;stroke-linecap:butt;stroke-linejoin:miter;stroke-miterlimit:4;stroke-opacity:1;stroke-dasharray:none" />
            <path
               d="m 126.20321,214.70358 a 4.278075,4.278075 0 1 1 -8.55615,0 4.278075,4.278075 0 1 1 8.55615,0 z"
               transform="matrix(-1,0,0,1,303.0748,-3.475943)"
               id="path2020"
               style="fill:#ffffff;fill-opacity:1;fill-rule:evenodd;stroke:#000000;stroke-width:0.40414536;stroke-linecap:butt;stroke-linejoin:miter;stroke-miterlimit:4;stroke-opacity:1;stroke-dasharray:none" />
            <path
               d="m 126.20321,214.70358 a 4.278075,4.278075 0 1 1 -8.55615,0 4.278075,4.278075 0 1 1 8.55615,0 z"
               transform="matrix(-1,0,0,1,301.7379,10.16041)"
               id="path2022"
               style="fill:#ffffff;fill-opacity:1;fill-rule:evenodd;stroke:#000000;stroke-width:0.40414536;stroke-linecap:butt;stroke-linejoin:miter;stroke-miterlimit:4;stroke-opacity:1;stroke-dasharray:none" />
            <path
               d="m 126.20321,214.70358 a 4.278075,4.278075 0 1 1 -8.55615,0 4.278075,4.278075 0 1 1 8.55615,0 z"
               transform="matrix(-1,0,0,1,356.5507,6.14972)"
               id="path2024"
               style="fill:#ffffff;fill-opacity:1;fill-rule:evenodd;stroke:#000000;stroke-width:0.40414536;stroke-linecap:butt;stroke-linejoin:miter;stroke-miterlimit:4;stroke-opacity:1;stroke-dasharray:none" />
            <path
               d="m 126.20321,214.70358 a 4.278075,4.278075 0 1 1 -8.55615,0 4.278075,4.278075 0 1 1 8.55615,0 z"
               transform="matrix(-1,0,0,1,351.2031,18.98395)"
               id="path2026"
               style="fill:#ffffff;fill-opacity:1;fill-rule:evenodd;stroke:#000000;stroke-width:0.40414536;stroke-linecap:butt;stroke-linejoin:miter;stroke-miterlimit:4;stroke-opacity:1;stroke-dasharray:none" />
          </g>
        </g>
        <g
           transform="translate(0,-2.600445e-4)"
           id="g2237">
          <path
             d="m 238.53778,280.60328 c 3.26745,-0.56746 22.97756,-5.25285 27.12681,-7.76016 -2.67744,-4.82848 -7.48355,-8.60556 -3.74331,-7.01791 2.01404,0.85492 3.6064,-5.7989 -2.23942,-10.88476 -16.97325,5.56663 -57.67963,15.73854 -108.82886,15.73854 -52.344495,0 -93.561679,-10.70667 -110.534924,-16.2733 -5.845812,5.08586 -4.025177,10.86453 -4.378457,13.0238 -0.0031,0.0166 0.0036,2.72419 1.069519,4.87887 5.753539,6.25063 24.394119,9.33174 27.661565,9.8992 15.352393,2.66622 30.705416,6.69782 86.148367,6.69782 51.28882,0 72.36633,-5.63588 87.71871,-8.3021 z"
             id="path2159"
             style="font-size:12px;fill:#ffffff;fill-opacity:1;stroke:#000000;stroke-width:0.98943263;stroke-miterlimit:4;stroke-opacity:1;stroke-dasharray:none" />
          <g
             transform="matrix(1.085779,0,0,1.085779,-81.34112,-69.11104)"
             id="g35393">
            <path
               d="m 132.90625,289.65528 c -3.00931,0.52263 -22.1473,7.30043 -25.96875,9.60965 0.003,0.0144 -0.003,0.0455 0,0.0608 0.32537,1.98868 -3.32149,11.25092 2.0625,15.93499 15.63232,-5.12685 59.52546,-20.4053 106.63379,-20.4053 48.20916,0 88.14014,15.27845 103.77246,20.4053 5.38398,-4.68407 1.73713,-13.94631 2.0625,-15.93499 0.003,-0.0153 -0.003,-0.0464 0,-0.0608 -3.82146,-2.30922 -22.95944,-9.08702 -25.96875,-9.60965 -14.13952,-2.45558 -28.77213,-11.58631 -79.83496,-11.58631 -47.23689,0 -68.61928,9.13073 -82.75879,11.58631 z"
               id="path34451"
               style="font-size:12px;fill:#ffffff;fill-opacity:1;stroke:#000000;stroke-width:0.91126525;stroke-miterlimit:4;stroke-opacity:1;stroke-dasharray:none" />
            <g
               transform="matrix(1.384389,-0.143242,0.15642,1.267764,-86.62648,-64.7552)"
               id="g35337">
              <path
                 d="m 115.50802,301.56003 a 1.87166,1.87166 0 1 1 -3.74332,0 1.87166,1.87166 0 1 1 3.74332,0 z"
                 transform="matrix(0.4996,0,0,0.4996,56.86367,150.9007)"
                 id="path35329"
                 style="fill:#000000;fill-opacity:1;fill-rule:evenodd;stroke:#000000;stroke-width:0.92376083;stroke-linecap:butt;stroke-linejoin:miter;stroke-miterlimit:4;stroke-opacity:1;stroke-dasharray:none" />
              <path
                 d="m 115.50802,301.56003 a 1.87166,1.87166 0 1 1 -3.74332,0 1.87166,1.87166 0 1 1 3.74332,0 z"
                 transform="matrix(0.4996,0,0,0.4996,55.52674,153.307)"
                 id="path35331"
                 style="fill:#000000;fill-opacity:1;fill-rule:evenodd;stroke:#000000;stroke-width:0.92376083;stroke-linecap:butt;stroke-linejoin:miter;stroke-miterlimit:4;stroke-opacity:1;stroke-dasharray:none" />
              <path
                 d="m 115.50802,301.56003 a 1.87166,1.87166 0 1 1 -3.74332,0 1.87166,1.87166 0 1 1 3.74332,0 z"
                 transform="matrix(0.4996,0,0,0.4996,57.3984,154.9114)"
                 id="path35333"
                 style="fill:#000000;fill-opacity:1;fill-rule:evenodd;stroke:#000000;stroke-width:0.92376083;stroke-linecap:butt;stroke-linejoin:miter;stroke-miterlimit:4;stroke-opacity:1;stroke-dasharray:none" />
              <path
                 d="m 113.51808,303.66868 8.52596,-3.1661 -4.18461,2.39247 2.68584,-0.0834 -2.49243,1.16873 4.00125,0.27504 -8.53601,-0.58675 z"
                 id="path35335"
                 style="fill:#000000;fill-opacity:1;fill-rule:evenodd;stroke:#000000;stroke-width:0.5773505px;stroke-linecap:butt;stroke-linejoin:miter;stroke-opacity:1" />
            </g>
            <g
               transform="matrix(1.384389,-0.143242,0.15642,1.267764,-45.03159,-76.65847)"
               id="g35343">
              <path
                 d="m 115.50802,301.56003 a 1.87166,1.87166 0 1 1 -3.74332,0 1.87166,1.87166 0 1 1 3.74332,0 z"
                 transform="matrix(0.4996,0,0,0.4996,56.86367,150.9007)"
                 id="path35345"
                 style="fill:#000000;fill-opacity:1;fill-rule:evenodd;stroke:#000000;stroke-width:0.92376083;stroke-linecap:butt;stroke-linejoin:miter;stroke-miterlimit:4;stroke-opacity:1;stroke-dasharray:none" />
              <path
                 d="m 115.50802,301.56003 a 1.87166,1.87166 0 1 1 -3.74332,0 1.87166,1.87166 0 1 1 3.74332,0 z"
                 transform="matrix(0.4996,0,0,0.4996,55.52674,153.307)"
                 id="path35347"
                 style="fill:#000000;fill-opacity:1;fill-rule:evenodd;stroke:#000000;stroke-width:0.92376083;stroke-linecap:butt;stroke-linejoin:miter;stroke-miterlimit:4;stroke-opacity:1;stroke-dasharray:none" />
              <path
                 d="m 115.50802,301.56003 a 1.87166,1.87166 0 1 1 -3.74332,0 1.87166,1.87166 0 1 1 3.74332,0 z"
                 transform="matrix(0.4996,0,0,0.4996,57.3984,154.9114)"
                 id="path35349"
                 style="fill:#000000;fill-opacity:1;fill-rule:evenodd;stroke:#000000;stroke-width:0.92376083;stroke-linecap:butt;stroke-linejoin:miter;stroke-miterlimit:4;stroke-opacity:1;stroke-dasharray:none" />
              <path
                 d="m 113.51808,303.66868 8.52596,-3.1661 -4.18461,2.39247 2.68584,-0.0834 -2.49243,1.16873 4.00125,0.27504 -8.53601,-0.58675 z"
                 id="path35351"
                 style="fill:#000000;fill-opacity:1;fill-rule:evenodd;stroke:#000000;stroke-width:0.5773505px;stroke-linecap:butt;stroke-linejoin:miter;stroke-opacity:1" />
            </g>
            <g
               transform="matrix(1.378425,0.192343,-0.151629,1.268346,100.1696,-120.8592)"
               id="g35353">
              <path
                 d="m 115.50802,301.56003 a 1.87166,1.87166 0 1 1 -3.74332,0 1.87166,1.87166 0 1 1 3.74332,0 z"
                 transform="matrix(0.4996,0,0,0.4996,56.86367,150.9007)"
                 id="path35355"
                 style="fill:#000000;fill-opacity:1;fill-rule:evenodd;stroke:#000000;stroke-width:0.92376083;stroke-linecap:butt;stroke-linejoin:miter;stroke-miterlimit:4;stroke-opacity:1;stroke-dasharray:none" />
              <path
                 d="m 115.50802,301.56003 a 1.87166,1.87166 0 1 1 -3.74332,0 1.87166,1.87166 0 1 1 3.74332,0 z"
                 transform="matrix(0.4996,0,0,0.4996,55.52674,153.307)"
                 id="path35357"
                 style="fill:#000000;fill-opacity:1;fill-rule:evenodd;stroke:#000000;stroke-width:0.92376083;stroke-linecap:butt;stroke-linejoin:miter;stroke-miterlimit:4;stroke-opacity:1;stroke-dasharray:none" />
              <path
                 d="m 115.50802,301.56003 a 1.87166,1.87166 0 1 1 -3.74332,0 1.87166,1.87166 0 1 1 3.74332,0 z"
                 transform="matrix(0.4996,0,0,0.4996,57.3984,154.9114)"
                 id="path35359"
                 style="fill:#000000;fill-opacity:1;fill-rule:evenodd;stroke:#000000;stroke-width:0.92376083;stroke-linecap:butt;stroke-linejoin:miter;stroke-miterlimit:4;stroke-opacity:1;stroke-dasharray:none" />
              <path
                 d="m 113.51808,303.66868 8.52596,-3.1661 -4.18461,2.39247 2.68584,-0.0834 -2.49243,1.16873 4.00125,0.27504 -8.53601,-0.58675 z"
                 id="path35361"
                 style="fill:#000000;fill-opacity:1;fill-rule:evenodd;stroke:#000000;stroke-width:0.5773505px;stroke-linecap:butt;stroke-linejoin:miter;stroke-opacity:1" />
            </g>
            <g
               transform="matrix(1.384389,0.143242,0.15642,-1.267764,54.4337,659.4577)"
               id="g35373">
              <path
                 d="m 115.50802,301.56003 a 1.87166,1.87166 0 1 1 -3.74332,0 1.87166,1.87166 0 1 1 3.74332,0 z"
                 transform="matrix(0.4996,0,0,0.4996,56.86367,150.9007)"
                 id="path35375"
                 style="fill:#000000;fill-opacity:1;fill-rule:evenodd;stroke:#000000;stroke-width:0.92376083;stroke-linecap:butt;stroke-linejoin:miter;stroke-miterlimit:4;stroke-opacity:1;stroke-dasharray:none" />
              <path
                 d="m 115.50802,301.56003 a 1.87166,1.87166 0 1 1 -3.74332,0 1.87166,1.87166 0 1 1 3.74332,0 z"
                 transform="matrix(0.4996,0,0,0.4996,55.52674,153.307)"
                 id="path35377"
                 style="fill:#000000;fill-opacity:1;fill-rule:evenodd;stroke:#000000;stroke-width:0.92376083;stroke-linecap:butt;stroke-linejoin:miter;stroke-miterlimit:4;stroke-opacity:1;stroke-dasharray:none" />
              <path
                 d="m 115.50802,301.56003 a 1.87166,1.87166 0 1 1 -3.74332,0 1.87166,1.87166 0 1 1 3.74332,0 z"
                 transform="matrix(0.4996,0,0,0.4996,57.3984,154.9114)"
                 id="path35379"
                 style="fill:#000000;fill-opacity:1;fill-rule:evenodd;stroke:#000000;stroke-width:0.92376083;stroke-linecap:butt;stroke-linejoin:miter;stroke-miterlimit:4;stroke-opacity:1;stroke-dasharray:none" />
              <path
                 d="m 113.51808,303.66868 8.52596,-3.1661 -4.18461,2.39247 2.68584,-0.0834 -2.49243,1.16873 4.00125,0.27504 -8.53601,-0.58675 z"
                 id="path35381"
                 style="fill:#000000;fill-opacity:1;fill-rule:evenodd;stroke:#000000;stroke-width:0.5773505px;stroke-linecap:butt;stroke-linejoin:miter;stroke-opacity:1" />
            </g>
            <g
               transform="matrix(1.384389,0.143242,0.15642,-1.267764,96.41226,670.4203)"
               id="g35383">
              <path
                 d="m 115.50802,301.56003 a 1.87166,1.87166 0 1 1 -3.74332,0 1.87166,1.87166 0 1 1 3.74332,0 z"
                 transform="matrix(0.4996,0,0,0.4996,56.86367,150.9007)"
                 id="path35385"
                 style="fill:#000000;fill-opacity:1;fill-rule:evenodd;stroke:#000000;stroke-width:0.92376083;stroke-linecap:butt;stroke-linejoin:miter;stroke-miterlimit:4;stroke-opacity:1;stroke-dasharray:none" />
              <path
                 d="m 115.50802,301.56003 a 1.87166,1.87166 0 1 1 -3.74332,0 1.87166,1.87166 0 1 1 3.74332,0 z"
                 transform="matrix(0.4996,0,0,0.4996,55.52674,153.307)"
                 id="path35387"
                 style="fill:#000000;fill-opacity:1;fill-rule:evenodd;stroke:#000000;stroke-width:0.92376083;stroke-linecap:butt;stroke-linejoin:miter;stroke-miterlimit:4;stroke-opacity:1;stroke-dasharray:none" />
              <path
                 d="m 115.50802,301.56003 a 1.87166,1.87166 0 1 1 -3.74332,0 1.87166,1.87166 0 1 1 3.74332,0 z"
                 transform="matrix(0.4996,0,0,0.4996,57.3984,154.9114)"
                 id="path35389"
                 style="fill:#000000;fill-opacity:1;fill-rule:evenodd;stroke:#000000;stroke-width:0.92376083;stroke-linecap:butt;stroke-linejoin:miter;stroke-miterlimit:4;stroke-opacity:1;stroke-dasharray:none" />
              <path
                 d="m 113.51808,303.66868 8.52596,-3.1661 -4.18461,2.39247 2.68584,-0.0834 -2.49243,1.16873 4.00125,0.27504 -8.53601,-0.58675 z"
                 id="path35391"
                 style="fill:#000000;fill-opacity:1;fill-rule:evenodd;stroke:#000000;stroke-width:0.5773505px;stroke-linecap:butt;stroke-linejoin:miter;stroke-opacity:1" />
            </g>
          </g>
        </g>
      </g>
    </g>
  </g>
</svg>
