<?xml version="1.0" encoding="UTF-8" standalone="no"?>
<!-- Created with Sodipodi ("http://www.sodipodi.com/") -->

<svg
   xmlns:dc="http://purl.org/dc/elements/1.1/"
   xmlns:cc="http://creativecommons.org/ns#"
   xmlns:rdf="http://www.w3.org/1999/02/22-rdf-syntax-ns#"
   xmlns:svg="http://www.w3.org/2000/svg"
   xmlns="http://www.w3.org/2000/svg"
   xmlns:sodipodi="http://sodipodi.sourceforge.net/DTD/sodipodi-0.dtd"
   xmlns:inkscape="http://www.inkscape.org/namespaces/inkscape"
   height="600"
   id="svg697"
   sodipodi:docname="Flag_of_Christmas_Island.svg"
   sodipodi:version="0.32"
   width="900"
   inkscape:version="0.47 r22583"
   version="1.0">
  <defs
     id="defs699">
    <inkscape:perspective
       sodipodi:type="inkscape:persp3d"
       inkscape:vp_x="0 : 250 : 1"
       inkscape:vp_y="0 : 1000 : 0"
       inkscape:vp_z="1000 : 250 : 1"
       inkscape:persp3d-origin="500 : 166.66667 : 1"
       id="perspective3709" />
  </defs>
  <sodipodi:namedview
     id="base"
     showgrid="true"
     snaptogrid="false"
     inkscape:zoom="0.67027778"
     inkscape:cx="496.06299"
     inkscape:cy="248.03149"
     inkscape:window-width="1098"
     inkscape:window-height="926"
     inkscape:window-x="22"
     inkscape:window-y="31"
     inkscape:current-layer="g4031"
     inkscape:window-maximized="0" />
  <g
     id="g4031"
     transform="matrix(1.007936,0,0,1.007936,0,100.00004)">
    <rect
       y="-99.212845"
       x="0"
       width="892.91382"
       style="font-size:12px;fill:#0021ad;fill-opacity:1;fill-rule:evenodd;stroke-width:1pt"
       id="rect3447"
       height="595.27582" />
    <path
       style="font-size:12px;fill:#1c8a42;fill-opacity:1;fill-rule:evenodd;stroke:none"
       sodipodi:nodetypes="cccc"
       id="path3446"
       d="M 1.1123645e-6,-99.212891 892.91384,496.063 892.40264,-98.771881 1.1123645e-6,-99.212891 z" />
    <path
       transform="matrix(2.3094497,0,0,3.0792649,2.5975516,-101.46268)"
       style="fill:#ffc639;fill-opacity:1;fill-rule:evenodd;stroke:none"
       sodipodi:type="arc"
       sodipodi:ry="34.921875"
       sodipodi:rx="34.921883"
       sodipodi:cy="97.283752"
       sodipodi:cx="192.57819"
       id="path733"
       d="m 227.50007,97.283752 a 34.921883,34.921875 0 1 1 -69.84377,0 34.921883,34.921875 0 1 1 69.84377,0 z" />
    <path
       style="fill:#1c8a42;fill-opacity:1;fill-rule:evenodd;stroke:none"
       sodipodi:nodetypes="cccccccccccccccccccccccccccccccccccccccccc"
       id="path732"
       d="m 397.20799,150.11726 c 5.51701,10.1016 13.87351,27.01441 20.60011,22.60321 5.24251,0.0228 7.95421,0.5184 8.66521,5.1672 12.3768,2.8128 33.17941,-4.1508 46.11422,-26.61961 0,0 1.0935,0.1884 0.7128,-8.35441 0.072,-3.726 3.8169,-2.9736 3.9069,-1.7724 0.5238,1.8504 0.4293,3.23881 1.1313,3.28441 1.6002,-0.714 3.77641,-5.47441 5.60071,-8.49601 0.4995,-1.3332 0.2277,-2.7432 0.3438,-4.4148 0.9612,-3.1608 3.3624,-2.4708 3.8709,-0.8196 0.4545,1.0656 0.4617,1.8876 0.9162,2.9532 2.4372,2.1648 6.8409,0.144 7.1847,0.144 0.432,-2.6472 1.71,-2.3988 1.71,-2.3988 1.6236,-0.4788 0.99,-0.2856 2.0529,0.456 -0.9405,14.29201 2.10871,14.92201 1.8567,22.26001 0.1089,8.178 -1.8567,10.5036 -1.8567,13.63561 0.6237,3.8052 9.67681,3.9372 6.48991,7.1652 -2.7999,1.9956 0.0153,5.73 -4.2039,7.176 -12.25171,8.2968 -14.60071,15.41281 -14.60071,15.41281 0,0 -3.078,7.7544 -3.42,7.7544 -2.0574,5.1732 -4.65841,2.346 -6.10111,4.8708 -0.7227,3.1692 -1.5345,10.18561 -0.09,13.83481 0.7209,5.0136 -0.09,7.7484 -0.9936,12.7656 -0.8118,10.46161 -3.9213,12.04681 -4.2804,15.72601 -1.4445,3.9216 0.3033,22.34761 -1.0638,22.34761 -9.1269,0.24 -16.12171,-2.328 -19.73071,-3.288 3.519,-20.21041 2.1564,-37.98002 2.1564,-39.80282 -0.9036,-14.4576 -16.24951,-10.938 -18.59311,-12.8616 -1.9494,-0.552 -3.1734,-2.66641 -3.8592,-3.57961 -2.1672,-0.3036 -2.979,-0.9696 -5.1462,-1.2708 -1.0836,0.72 -0.4302,1.4688 -2.8449,2.45761 -6.11641,0.984 -8.82271,-7.11001 -8.82271,-7.11001 0.2988,-2.7288 -13.7547,0.5556 -21.39481,-1.8084 -3.1329,2.328 -4.5,9.21241 -7.0686,10.03321 -0.0729,2.1336 -4.2174,-1.75321 -5.0535,-3.85321 -0.1791,-6.1092 3.9933,-8.8164 3.9933,-8.8164 3.3075,-3.1008 5.2749,-3.6108 6.8688,-5.7504 0.7992,-5.3208 0.3951,-9.25441 2.0961,-13.25401 1.4391,-3.0516 3.5613,-1.62 5.0004,-2.9904 1.55161,-1.3668 2.20321,-10.3152 0.77851,-12.768 0,0 -6.19381,-7.45081 -6.53491,-7.90561 -2.0169,-7.7076 2.3544,-12.6708 3.609,-12.1128 z" />
    <path
       style="fill:#ffc639;fill-opacity:1;fill-rule:evenodd;stroke:none"
       sodipodi:nodetypes="cccccccccccccccccccccscccccccccc"
       id="path3443"
       d="m 783.91748,16.931963 c -3.6549,-19.2795679 -36.36002,-60.802945 -60.93813,-87.225996 -5.8716,-5.330162 -9.6957,-2.155441 -8.9316,5.444042 3.0627,6.805323 5.3559,14.287806 8.4204,21.093009 0.8505,4.535762 2.466,7.710483 3.3165,12.246245 0,0 0.2538,7.824243 0.7677,8.504644 7.65271,11.230804 8.67331,20.7540081 8.67331,20.7540081 4.4226,11.3412047 8.334,19.6184479 16.07581,28.9168919 8.6751,7.257603 2.2932,29.826012 2.5497,41.848817 0,7.598403 -4.0806,6.691203 -7.65361,5.781603 -28.15201,-34.474815 -56.05022,-34.586415 -80.63284,-44.565619 -9.6084,-1.362 -9.7794,4.762802 -6.6321,8.162404 17.18011,24.49681 33.34232,41.167217 54.60573,55.116022 3.5721,2.949601 7.1424,5.898003 10.7154,8.847606 4.08331,4.5348 8.16391,9.0708 12.24721,13.6068 9.441,8.16601 10.2078,15.65161 10.2078,16.32841 0.2529,15.31081 -5.8707,27.21721 -7.6572,31.98121 -3.2238,16.23721 -9.6939,19.05241 -9.6939,19.05241 -52.56273,47.29082 -80.12254,59.53683 -165.34538,44.90762 -1.27531,-0.9072 -9.44191,0.9072 0,5.4444 21.69091,9.63841 74.96913,25.09201 126.51396,-7.4544 12.3759,-11.56921 20.65591,-7.7736 29.62081,-14.69881 14.71861,-12.1032 35.74622,-27.17641 39.57302,-28.87681 11.48221,-8.166 43.63112,-17.35201 51.03183,-25.51801 8.505,-0.9084 17.316,-2.3952 17.9118,-12.1476 2.79721,-2.40481 6.87691,-0.6504 9.91441,-8.58841 6.7347,-1.5636 5.6007,-4.782 5.6007,-4.782 -1.7001,-6.348 -7.9956,-8.958 -12.501,-13.60561 -6.63571,-2.9508 -11.22661,-3.8568 -16.07671,-0.6828 -1.5309,0.9096 -3.0618,1.8156 -4.5927,2.72281 0,0 -7.14421,-1.35961 -7.14421,-2.04001 -15.87691,-1.1616 -14.3316,-71.313625 -19.94671,-100.572877 z" />
    <path
       transform="matrix(1.8064998,0.75645631,-0.6066579,2.2525653,225.78527,-302.73413)"
       style="fill:#1c8a42;fill-opacity:1;fill-rule:evenodd;stroke:none"
       sodipodi:type="arc"
       sodipodi:ry="1.367188"
       sodipodi:rx="2.070312"
       sodipodi:cy="73.88562"
       sodipodi:cx="352.30469"
       id="path3445"
       d="m 354.375,73.88562 a 2.070312,1.367188 0 1 1 -4.14062,0 2.070312,1.367188 0 1 1 4.14062,0 z" />
    <polygon
       d="m 73.826341,356.02127 -13.802536,-12.92086 -13.96742,12.74244 1.496193,-18.84728 -18.670985,-2.97538 15.668257,-10.58132 -9.314917,-16.45269 18.041805,5.6526 7.055472,-17.54078 6.829506,17.62999 18.112948,-5.42031 -9.525551,16.33164 15.531004,10.78177 -18.707674,2.73523 1.253898,18.86495 z"
       inkscape:randomized="0"
       inkscape:rounded="0"
       inkscape:flatsided="false"
       transform="matrix(0.8249143,0,0,1.0998845,107.10716,-263.47203)"
       style="font-size:12px;fill:#ffffff;fill-opacity:1;fill-rule:evenodd;stroke-width:1pt"
       sodipodi:type="star"
       sodipodi:sides="7"
       sodipodi:r2="16.001135"
       sodipodi:r1="32.00227"
       sodipodi:cy="327.09961"
       sodipodi:cx="60.126606"
       sodipodi:arg2="1.577221"
       sodipodi:arg1="1.1284221"
       points="73.8263,356.021 60.0238,343.1 46.0564,355.843 47.5526,336.996 28.8816,334.02 44.5499,323.439 35.2349,306.986 53.2767,312.639 60.3322,295.098 67.1617,312.728 85.2747,307.308 75.7491,323.639 91.2801,334.421 72.5724,337.156 73.8263,356.021 "
       id="polygon3451" />
    <polygon
       d="m 159.75957,320.13498 -12.93016,-8.8571 -12.58938,9.33513 4.42796,-15.03431 -12.76857,-9.0885 15.66679,-0.43461 4.69798,-14.95213 5.25464,14.7657 15.67208,-0.15243 -12.41924,9.56032 4.9879,14.85793 z"
       inkscape:randomized="0"
       inkscape:rounded="0"
       inkscape:flatsided="false"
       transform="matrix(0.94969846,0,0,1.2331805,56.673028,-94.520579)"
       style="font-size:12px;fill:#ffffff;fill-opacity:1;fill-rule:evenodd;stroke-width:1pt"
       sodipodi:type="star"
       sodipodi:sides="5"
       sodipodi:r2="8.4676905"
       sodipodi:r1="21.712027"
       sodipodi:cy="302.81168"
       sodipodi:cx="146.67082"
       sodipodi:arg2="1.5520667"
       sodipodi:arg1="0.92374814"
       points="159.76,320.135 146.829,311.278 134.24,320.613 138.668,305.579 125.899,296.49 141.566,296.056 146.264,281.103 151.519,295.869 167.191,295.717 154.772,305.277 159.76,320.135 "
       id="polygon3461" />
    <polygon
       d="m 73.826341,356.02127 -13.802536,-12.92086 -13.96742,12.74244 1.496193,-18.84728 -18.670985,-2.97538 15.668257,-10.58132 -9.314917,-16.45269 18.041805,5.6526 7.055472,-17.54078 6.829506,17.62999 18.112948,-5.42031 -9.525551,16.33164 15.531004,10.78177 -18.707674,2.73523 1.253898,18.86495 z"
       inkscape:randomized="0"
       inkscape:rounded="0"
       inkscape:flatsided="false"
       transform="matrix(0.8249143,0,0,1.0998845,203.92372,-162.24282)"
       style="font-size:12px;fill:#ffffff;fill-opacity:1;fill-rule:evenodd;stroke-width:1pt"
       sodipodi:type="star"
       sodipodi:sides="7"
       sodipodi:r2="16.001135"
       sodipodi:r1="32.00227"
       sodipodi:cy="327.09961"
       sodipodi:cx="60.126606"
       sodipodi:arg2="1.577221"
       sodipodi:arg1="1.1284221"
       points="73.8263,356.021 60.0238,343.1 46.0564,355.843 47.5526,336.996 28.8816,334.02 44.5499,323.439 35.2349,306.986 53.2767,312.639 60.3322,295.098 67.1617,312.728 85.2747,307.308 75.7491,323.639 91.2801,334.421 72.5724,337.156 73.8263,356.021 "
       id="polygon1880" />
    <polygon
       d="m 73.826341,356.02127 -13.802536,-12.92086 -13.96742,12.74244 1.496193,-18.84728 -18.670985,-2.97538 15.668257,-10.58132 -9.314917,-16.45269 18.041805,5.6526 7.055472,-17.54078 6.829506,17.62999 18.112948,-5.42031 -9.525551,16.33164 15.531004,10.78177 -18.707674,2.73523 1.253898,18.86495 z"
       inkscape:randomized="0"
       inkscape:rounded="0"
       inkscape:flatsided="false"
       transform="matrix(0.8249143,0,0,1.0998845,7.0421452,-116.76885)"
       style="font-size:12px;fill:#ffffff;fill-opacity:1;fill-rule:evenodd;stroke-width:1pt"
       sodipodi:type="star"
       sodipodi:sides="7"
       sodipodi:r2="16.001135"
       sodipodi:r1="32.00227"
       sodipodi:cy="327.09961"
       sodipodi:cx="60.126606"
       sodipodi:arg2="1.577221"
       sodipodi:arg1="1.1284221"
       points="73.8263,356.021 60.0238,343.1 46.0564,355.843 47.5526,336.996 28.8816,334.02 44.5499,323.439 35.2349,306.986 53.2767,312.639 60.3322,295.098 67.1617,312.728 85.2747,307.308 75.7491,323.639 91.2801,334.421 72.5724,337.156 73.8263,356.021 "
       id="polygon1881" />
    <polygon
       d="m 73.826341,356.02127 -13.802536,-12.92086 -13.96742,12.74244 1.496193,-18.84728 -18.670985,-2.97538 15.668257,-10.58132 -9.314917,-16.45269 18.041805,5.6526 7.055472,-17.54078 6.829506,17.62999 18.112948,-5.42031 -9.525551,16.33164 15.531004,10.78177 -18.707674,2.73523 1.253898,18.86495 z"
       inkscape:randomized="0"
       inkscape:rounded="0"
       inkscape:flatsided="false"
       transform="matrix(0.8249143,0,0,1.0998845,109.35851,56.858859)"
       style="font-size:12px;fill:#ffffff;fill-opacity:1;fill-rule:evenodd;stroke-width:1pt"
       sodipodi:type="star"
       sodipodi:sides="7"
       sodipodi:r2="16.001135"
       sodipodi:r1="32.00227"
       sodipodi:cy="327.09961"
       sodipodi:cx="60.126606"
       sodipodi:arg2="1.577221"
       sodipodi:arg1="1.1284221"
       points="73.8263,356.021 60.0238,343.1 46.0564,355.843 47.5526,336.996 28.8816,334.02 44.5499,323.439 35.2349,306.986 53.2767,312.639 60.3322,295.098 67.1617,312.728 85.2747,307.308 75.7491,323.639 91.2801,334.421 72.5724,337.156 73.8263,356.021 "
       id="polygon1883" />
  </g>
  <metadata
     id="metadata4029">
    <rdf:RDF>
      <cc:Work
         rdf:about="">
        <dc:title />
        <dc:description />
        <dc:subject>
          <rdf:Bag>
            <rdf:li>oceania</rdf:li>
            <rdf:li>flags</rdf:li>
            <rdf:li>signs_and_symbols</rdf:li>
            <rdf:li />
            <rdf:li>australia</rdf:li>
          </rdf:Bag>
        </dc:subject>
        <dc:publisher>
          <cc:Agent
             rdf:about="http://www.openclipart.org">
            <dc:title />
          </cc:Agent>
        </dc:publisher>
        <dc:creator>
          <cc:Agent
             rdf:about="">
            <dc:title />
          </cc:Agent>
        </dc:creator>
        <dc:rights>
          <cc:Agent
             rdf:about="">
            <dc:title />
          </cc:Agent>
        </dc:rights>
        <dc:date />
        <dc:format>image/svg+xml</dc:format>
        <dc:type
           rdf:resource="http://purl.org/dc/dcmitype/StillImage" />
        <cc:license
           rdf:resource="">
          <dc:date />
        </cc:license>
        <dc:language>en</dc:language>
      </cc:Work>
    </rdf:RDF>
  </metadata>
</svg>
