<?xml version="1.0" encoding="UTF-8" standalone="no"?>
<!-- Created with Inkscape (http://www.inkscape.org/) -->
<svg
   xmlns:svg="http://www.w3.org/2000/svg"
   xmlns="http://www.w3.org/2000/svg"
   version="1.0"
   width="450"
   height="300"
   id="svg2"
   xml:space="preserve"
   style="overflow:visible"><defs
     id="defs62"><clipPath
       id="XMLID_3_"><path
         d="M 171.821,258.249 C 145.059,245.356 106.777,219.77 106.777,169.155 C 106.777,118.541 109.197,95.522 109.197,95.522 L 171.822,95.522 L 234.449,95.522 C 234.449,95.522 236.871,118.541 236.871,169.155 C 236.87,219.771 198.585,245.356 171.821,258.249 z"
         id="use53" /></clipPath></defs><rect
     width="450"
     height="100"
     x="0"
     y="100"
     id="rect21"
     style="fill:#0f218b" /><rect
     width="450"
     height="100"
     x="0"
     y="-2.7734376e-07"
     id="rect27"
     style="fill:#ffffff" /><rect
     width="450"
     height="100"
     x="0"
     y="200"
     id="rect33"
     style="fill:#ff0000" /><path
     d="M 87.456909,146.27493 C 87.456909,101.97386 90.082048,77.136139 90.082048,77.136139 L 149.14463,77.136139 L 208.20896,77.136139 C 208.20896,77.136139 210.83496,101.97473 210.83496,146.27493 C 210.83496,193.43283 175.00811,216.95061 151.41918,228.31203 L 149.14377,229.40808 L 146.87096,228.31203 C 123.28463,216.95147 87.456909,193.43283 87.456909,146.27493 z"
     id="path43"
     style="fill:#ffffff;fill-rule:evenodd" /><path
     d="M 149.1455,223.59199 C 125.92105,212.40326 92.699376,190.19936 92.699376,146.27493 C 92.699376,102.35136 94.799488,82.375139 94.799488,82.375139 L 149.14637,82.375139 L 203.49499,82.375139 C 203.49499,82.375139 205.59684,102.35136 205.59684,146.27493 C 205.59597,190.20022 172.37169,212.40326 149.1455,223.59199 z"
     id="use50"
     style="fill:#ff0000" /><path
     d="M 154.11287,134.75903 C 160.40106,134.86056 172.67195,135.10702 183.59687,131.45092 C 183.59687,131.45092 183.30789,135.36042 183.30789,139.91471 C 183.30789,144.46987 183.59687,148.37938 183.59687,148.37938 C 173.57535,145.02614 161.19945,144.95585 154.11287,145.0461 L 154.11287,169.30672 L 144.17987,169.30672 L 144.17987,145.0461 C 137.09243,144.95585 124.71826,145.02614 114.69587,148.37938 C 114.69587,148.37938 114.98485,144.46987 114.98485,139.91471 C 114.98485,135.36042 114.69587,131.45092 114.69587,131.45092 C 125.62079,135.10702 137.89082,134.86056 144.17987,134.75903 L 144.17987,119.52281 C 138.44795,119.47161 130.1881,119.74584 120.84954,122.87084 C 120.84954,122.87084 121.13853,118.96133 121.13853,114.40617 C 121.13853,109.85188 120.84954,105.94238 120.84954,105.94238 C 130.17508,109.06217 138.42365,109.34074 144.15383,109.29041 C 143.85964,99.642049 141.04879,87.482229 141.04879,87.482229 C 141.04879,87.482229 146.83364,87.934359 149.1455,87.934359 C 151.46083,87.934359 157.24395,87.482229 157.24395,87.482229 C 157.24395,87.482229 154.43396,99.642909 154.13891,109.29041 C 159.86995,109.33987 168.11853,109.06217 177.44407,105.94238 C 177.44407,105.94238 177.15508,109.85188 177.15508,114.40617 C 177.15508,118.96133 177.44407,122.87084 177.44407,122.87084 C 168.10465,119.74584 159.84479,119.47161 154.11287,119.52281 L 154.11287,134.75903 L 154.11287,134.75903 z"
     id="path57"
     style="fill:#ffffff" /><g
     transform="matrix(0.8678145,0,0,0.8678145,3.6747574e-2,-0.520237)"
     clip-path="url(#XMLID_3_)"
     id="g55"><path
       d="M 170.643,274.853 L 115.189,225.423 C 115.189,225.423 122.278,202.496 136.116,202.496 C 147.112,202.496 151.125,211.361 151.125,211.361 C 151.125,211.361 158.345,192.672 171.821,192.672 C 185.3,192.672 192.52,211.361 192.52,211.361 C 192.52,211.361 196.533,202.496 207.53,202.496 C 221.368,202.496 228.457,225.423 228.457,225.423 L 170.643,274.853 z"
       id="path59"
       style="fill:#0f218b;fill-rule:evenodd" /></g></svg>