<?xml version="1.0" encoding="UTF-8" standalone="no"?>
<!-- Created with Inkscape (http://www.inkscape.org/) -->

<svg
   xmlns:dc="http://purl.org/dc/elements/1.1/"
   xmlns:cc="http://creativecommons.org/ns#"
   xmlns:rdf="http://www.w3.org/1999/02/22-rdf-syntax-ns#"
   xmlns:svg="http://www.w3.org/2000/svg"
   xmlns="http://www.w3.org/2000/svg"
   xmlns:sodipodi="http://sodipodi.sourceforge.net/DTD/sodipodi-0.dtd"
   xmlns:inkscape="http://www.inkscape.org/namespaces/inkscape"
   version="1.0"
   width="900"
   height="600"
   id="svg1307"
   inkscape:version="0.47 r22583"
   sodipodi:docname="Flag_of_the_Philippines.svg">
  <metadata
     id="metadata24">
    <rdf:RDF>
      <cc:Work
         rdf:about="">
        <dc:format>image/svg+xml</dc:format>
        <dc:type
           rdf:resource="http://purl.org/dc/dcmitype/StillImage" />
      </cc:Work>
    </rdf:RDF>
  </metadata>
  <sodipodi:namedview
     pagecolor="#ffffff"
     bordercolor="#666666"
     borderopacity="1"
     objecttolerance="10"
     gridtolerance="10"
     guidetolerance="10"
     inkscape:pageopacity="0"
     inkscape:pageshadow="2"
     inkscape:window-width="746"
     inkscape:window-height="720"
     id="namedview22"
     showgrid="false"
     inkscape:zoom="0.55777778"
     inkscape:cx="450"
     inkscape:cy="225"
     inkscape:window-x="0"
     inkscape:window-y="0"
     inkscape:window-maximized="0"
     inkscape:current-layer="svg1307" />
  <defs
     id="defs3">
    <inkscape:perspective
       sodipodi:type="inkscape:persp3d"
       inkscape:vp_x="0 : 225 : 1"
       inkscape:vp_y="0 : 1000 : 0"
       inkscape:vp_z="900 : 225 : 1"
       inkscape:persp3d-origin="450 : 150 : 1"
       id="perspective26" />
  </defs>
  <rect
     width="900"
     height="600"
     x="0"
     y="0"
     id="blue"
     style="fill:#0038a8" />
  <rect
     width="900"
     height="300"
     x="0"
     y="300"
     id="red"
     style="fill:#ce1126" />
  <path
     d="M 389.983,300.00053 0,600 7.8142663e-4,0 389.983,300.00053 z"
     id="path279"
     style="fill:#ffffff" />
  <path
     d="m 151.91574,243.38429 8.08404,-41.31733 -5.38769,-8.94667 -6.64357,50.264 3.94722,0 z m -16.78966,0 -4.68526,-55.99733 9.45035,-14.05333 9.32628,14.05333 -4.70583,55.99733 -9.38554,0 z m -7.41036,0 -7.71594,-41.31733 5.47505,-8.94667 6.19434,50.264 -3.95345,0 z"
     id="path426-7-1"
     style="fill:#fcd116;fill-opacity:1" />
  <circle
     cx="82.530502"
     cy="149.8075"
     r="30.915501"
     transform="matrix(1.4555805,0,0,1.940774,19.86999,9.2575067)"
     id="circle1323-7"
     style="fill:#fcd116;fill-opacity:1"
     sodipodi:cx="82.530502"
     sodipodi:cy="149.8075"
     sodipodi:rx="30.915501"
     sodipodi:ry="30.915501" />
  <path
     d="m 128.08382,356.61571 -8.08404,41.31733 5.38769,8.94667 6.64357,-50.264 -3.94722,0 z m 16.78966,0 4.68526,55.99733 -9.45035,14.05333 -9.32628,-14.05333 4.70583,-55.99733 9.38554,0 z m 7.41036,0 7.71594,41.31733 -5.47505,8.94667 -6.19434,-50.264 3.95345,0 z"
     id="path2879"
     style="fill:#fcd116;fill-opacity:1" />
  <path
     d="m 182.46156,315.88795 30.988,10.77872 6.71,-7.18359 -37.698,-8.85809 0,5.26296 z m 0,-22.38622 41.998,-6.24701 10.54,12.60047 -10.54,12.43504 -41.998,-6.27444 0,-12.51406 z m 0,-9.88048 30.988,-10.28792 6.71,7.30007 -37.698,8.25912 0,-5.27127 z"
     id="path2894"
     style="fill:#fcd116;fill-opacity:1" />
  <circle
     cx="82.530502"
     cy="149.8075"
     r="30.915501"
     transform="matrix(0,1.940774,-1.4555805,0,358.05665,139.82695)"
     id="circle2896"
     style="fill:#fcd116;fill-opacity:1"
     sodipodi:cx="82.530502"
     sodipodi:cy="149.8075"
     sodipodi:rx="30.915501"
     sodipodi:ry="30.915501" />
  <path
     d="m 97.538,284.11205 -30.988,-10.77872 -6.71,7.18359 37.698,8.85809 0,-5.26296 z m 0,22.38622 -41.998,6.24701 -10.54,-12.60047 10.54,-12.43504 41.998,6.27444 0,12.51406 z m 0,9.88048 -30.988,10.28792 -6.71,-7.30007 37.698,-8.25912 0,5.27127 z"
     id="path2898"
     style="fill:#fcd116;fill-opacity:1" />
  <path
     d="m 118.40063,248.73217 -16.19555,-36.83748 -8.55436,-1.24668 21.9588,41.80563 2.79111,-3.72147 z m -11.87208,15.82944 -33.01005,-35.17878 -0.7705,-18.84708 14.04758,1.1443 26.36955,44.03279 -6.63658,8.84877 z m -5.23992,6.98656 -27.36782,-21.9411 -0.87324,-11.48819 31.03657,29.70195 -2.79551,3.72734 z"
     id="path2954"
     style="fill:#fcd116;fill-opacity:1" />
  <circle
     cx="82.530502"
     cy="149.8075"
     r="30.915501"
     transform="matrix(1.0292508,-1.3723344,1.0292508,1.3723344,-99.13432,207.67347)"
     id="circle2956"
     style="fill:#fcd116;fill-opacity:1"
     sodipodi:cx="82.530502"
     sodipodi:cy="149.8075"
     sodipodi:rx="30.915501"
     sodipodi:ry="30.915501" />
  <path
     d="m 161.59894,351.26783 16.19555,36.83746 8.55436,1.24668 -21.9588,-41.80562 -2.79111,3.72148 z m 11.87208,-15.82946 33.01005,35.17879 0.7705,18.84709 -14.04758,-1.1443 -26.36954,-44.0328 6.63657,-8.84878 z m 5.23992,-6.98654 27.36782,21.9411 0.87324,11.48818 -31.03657,-29.70194 2.79551,-3.72734 z"
     id="path2958"
     style="fill:#fcd116;fill-opacity:1" />
  <path
     d="m 178.45065,271.20112 27.62811,-21.59405 0.93501,-11.40582 -31.35422,29.2784 2.7911,3.72147 z m -11.87208,-15.82944 26.38409,-44.0134 14.13531,-1.02733 -0.85822,18.7301 -33.0246,35.1594 -6.63658,-8.84877 z m -5.23991,-6.98656 16.45583,-36.49043 8.61613,-1.16432 -22.27645,41.3821 -2.79551,-3.72735 z"
     id="path2960"
     style="fill:#fcd116;fill-opacity:1" />
  <circle
     cx="82.530502"
     cy="149.8075"
     r="30.915501"
     transform="matrix(1.0292508,1.3723344,-1.0292508,1.3723344,209.24469,-18.84544)"
     id="circle2962"
     style="fill:#fcd116;fill-opacity:1"
     sodipodi:cx="82.530502"
     sodipodi:cy="149.8075"
     sodipodi:rx="30.915501"
     sodipodi:ry="30.915501" />
  <path
     d="m 101.54892,328.79887 -27.62811,21.59406 -0.93501,11.40582 31.35422,-29.2784 -2.7911,-3.72148 z m 11.87208,15.82945 -26.38409,44.0134 -14.13531,1.02732 0.85823,-18.73011 33.02459,-35.15938 6.63658,8.84877 z m 5.23991,6.98655 -16.45583,36.49042 -8.61613,1.16432 22.27645,-41.38209 2.79551,3.72735 z"
     id="path2964"
     style="fill:#fcd116;fill-opacity:1" />
  <path
     d="m 295.51186,321.69897 11.91752,-21.66525 -11.95037,-21.63312 19.13642,8.41747 11.73784,-21.83892 -0.0792,26.8675 19.20489,8.13588 -19.19223,8.1876 0.11873,26.86719 -11.77069,-21.80731 -19.12375,8.46896 z"
     id="path2036"
     style="fill:#fcd116" />
  <path
     d="M 60.74334,97.537227 40.712585,94.608693 32.636646,119.22435 28.535741,92.918787 8.4820252,90.284547 25.972583,76.942253 21.654547,50.698413 36.568665,68.765893 53.96005,55.1952 45.681134,79.69048 60.74376,97.5382 z"
     id="path3879"
     style="fill:#fcd116" />
  <path
     d="m 60.74334,502.46277 -20.030755,2.92854 -8.075939,-24.61566 -4.100905,26.30556 -20.0537158,2.63423 17.4905578,13.34231 -4.318036,26.24384 L 36.568665,531.23411 53.96005,544.8048 45.681134,520.30952 60.74376,502.4618 z"
     id="path3899"
     style="fill:#fcd116;fill-opacity:1" />
</svg>
