<?xml version="1.0" encoding="UTF-8" standalone="no"?>
<svg
   xmlns:dc="http://purl.org/dc/elements/1.1/"
   xmlns:cc="http://creativecommons.org/ns#"
   xmlns:rdf="http://www.w3.org/1999/02/22-rdf-syntax-ns#"
   xmlns:svg="http://www.w3.org/2000/svg"
   xmlns="http://www.w3.org/2000/svg"
   xmlns:sodipodi="http://sodipodi.sourceforge.net/DTD/sodipodi-0.dtd"
   xmlns:inkscape="http://www.inkscape.org/namespaces/inkscape"
   viewBox="0 0 30 20"
   width="900"
   height="600"
   id="svg2849"
   version="1.1"
   inkscape:version="0.47 r22583"
   sodipodi:docname="Flag_of_Greece.svg">
  <metadata
     id="metadata2859">
    <rdf:RDF>
      <cc:Work
         rdf:about="">
        <dc:format>image/svg+xml</dc:format>
        <dc:type
           rdf:resource="http://purl.org/dc/dcmitype/StillImage" />
      </cc:Work>
    </rdf:RDF>
  </metadata>
  <defs
     id="defs2857">
    <inkscape:perspective
       sodipodi:type="inkscape:persp3d"
       inkscape:vp_x="0 : 270 : 1"
       inkscape:vp_y="0 : 1000 : 0"
       inkscape:vp_z="810 : 270 : 1"
       inkscape:persp3d-origin="405 : 180 : 1"
       id="perspective2861" />
  </defs>
  <sodipodi:namedview
     pagecolor="#ffffff"
     bordercolor="#666666"
     borderopacity="1"
     objecttolerance="10"
     gridtolerance="10"
     guidetolerance="10"
     inkscape:pageopacity="0"
     inkscape:pageshadow="2"
     inkscape:window-width="1121"
     inkscape:window-height="911"
     id="namedview2855"
     showgrid="false"
     inkscape:zoom="0.46481481"
     inkscape:cx="405"
     inkscape:cy="270"
     inkscape:window-x="0"
     inkscape:window-y="0"
     inkscape:window-maximized="0"
     inkscape:current-layer="svg2849" />
  <rect
     width="30"
     height="20"
     id="rect2851"
     x="0"
     y="-2.6645353e-15"
     style="fill:#000080" />
  <path
     d="m 4.4444444,0 2.2222223,0 0,4.4444444 4.4444443,0 0,2.2222223 -4.4444443,0 0,4.4444443 23.3333333,0 0,2.222222 -30,0 0,-2.222222 4.4444444,0 0,-4.4444443 -4.4444444,0 0,-2.2222223 4.4444444,0 0,-4.4444444 z m 6.6666666,2.2222222 18.888889,0 0,2.2222222 -18.888889,0 0,-2.2222222 z m 0,4.4444445 18.888889,0 0,2.2222222 -18.888889,0 0,-2.2222222 z M 0,11.111111 0,13.333333 0,11.111111 z m 0,4.444445 30,0 0,2.222222 -30,0 0,-2.222222 z"
     id="path2853"
     style="fill:#ffffff" />
</svg>
