<?xml version="1.0" encoding="UTF-8" standalone="no"?>
<!-- Created with Inkscape (http://www.inkscape.org/) -->

<svg
   xmlns:dc="http://purl.org/dc/elements/1.1/"
   xmlns:cc="http://creativecommons.org/ns#"
   xmlns:rdf="http://www.w3.org/1999/02/22-rdf-syntax-ns#"
   xmlns:svg="http://www.w3.org/2000/svg"
   xmlns="http://www.w3.org/2000/svg"
   xmlns:sodipodi="http://sodipodi.sourceforge.net/DTD/sodipodi-0.dtd"
   xmlns:inkscape="http://www.inkscape.org/namespaces/inkscape"
   version="1.0"
   width="900"
   height="600"
   id="Flag of Macedonia"
   inkscape:version="0.47 r22583"
   sodipodi:docname="Flag_of_Macedonia.svg">
  <metadata
     id="metadata2831">
    <rdf:RDF>
      <cc:Work
         rdf:about="">
        <dc:format>image/svg+xml</dc:format>
        <dc:type
           rdf:resource="http://purl.org/dc/dcmitype/StillImage" />
      </cc:Work>
    </rdf:RDF>
  </metadata>
  <sodipodi:namedview
     pagecolor="#ffffff"
     bordercolor="#666666"
     borderopacity="1"
     objecttolerance="10"
     gridtolerance="10"
     guidetolerance="10"
     inkscape:pageopacity="0"
     inkscape:pageshadow="2"
     inkscape:window-width="818"
     inkscape:window-height="778"
     id="namedview2829"
     showgrid="false"
     inkscape:zoom="0.6275"
     inkscape:cx="400"
     inkscape:cy="200"
     inkscape:window-x="0"
     inkscape:window-y="0"
     inkscape:window-maximized="0"
     inkscape:current-layer="Flag of Macedonia" />
  <defs
     id="defs15">
    <inkscape:perspective
       sodipodi:type="inkscape:persp3d"
       inkscape:vp_x="0 : 200 : 1"
       inkscape:vp_y="0 : 1000 : 0"
       inkscape:vp_z="800 : 200 : 1"
       inkscape:persp3d-origin="400 : 133.33333 : 1"
       id="perspective2833" />
  </defs>
  <rect
     width="900"
     height="600"
     x="0"
     y="9.9999997e-06"
     id="red background"
     style="fill:#d20000" />
  <polygon
     points="800,400 0,0 0,0 120,0 680,400 "
     transform="matrix(1.125,0,0,1.5,0,2.4999999e-5)"
     id="yellow ray 1"
     style="fill:#ffe600" />
  <polygon
     points="440,400 360,0 360,0 440,0 360,400 "
     transform="matrix(1.125,0,0,1.5,0,2.4999999e-5)"
     id="yellow ray 2"
     style="fill:#ffe600" />
  <polygon
     points="120,400 680,0 680,0 800,0 0,400 "
     transform="matrix(1.125,0,0,1.5,0,2.4999999e-5)"
     id="yellow ray 3"
     style="fill:#ffe600" />
  <polygon
     points="800,240 0,160 0,160 0,240 800,160 "
     transform="matrix(1.125,0,0,1.5,0,2.4999999e-5)"
     id="yellow ray 4"
     style="fill:#ffe600" />
  <circle
     cx="400"
     cy="200"
     r="60"
     transform="matrix(1.3392858,0,0,1.7857144,-85.714329,-57.142849)"
     id="outer circle"
     style="fill:#d20000"
     sodipodi:cx="400"
     sodipodi:cy="200"
     sodipodi:rx="60"
     sodipodi:ry="60" />
  <circle
     cx="400"
     cy="200"
     r="50"
     transform="matrix(1.2857143,0,0,1.7142858,-64.285715,-42.857119)"
     id="inner circle"
     style="fill:#ffe600"
     sodipodi:cx="400"
     sodipodi:cy="200"
     sodipodi:rx="50"
     sodipodi:ry="50" />
</svg>
