<?xml version="1.0" encoding="UTF-8" standalone="no"?>
<!-- Created with Inkscape (http://www.inkscape.org/) -->

<svg
   xmlns:dc="http://purl.org/dc/elements/1.1/"
   xmlns:cc="http://creativecommons.org/ns#"
   xmlns:rdf="http://www.w3.org/1999/02/22-rdf-syntax-ns#"
   xmlns:svg="http://www.w3.org/2000/svg"
   xmlns="http://www.w3.org/2000/svg"
   xmlns:xlink="http://www.w3.org/1999/xlink"
   xmlns:sodipodi="http://sodipodi.sourceforge.net/DTD/sodipodi-0.dtd"
   xmlns:inkscape="http://www.inkscape.org/namespaces/inkscape"
   version="1.0"
   width="900"
   height="600"
   id="svg1353"
   inkscape:version="0.47 r22583"
   sodipodi:docname="Flag_of_Samoa.svg">
  <metadata
     id="metadata3359">
    <rdf:RDF>
      <cc:Work
         rdf:about="">
        <dc:format>image/svg+xml</dc:format>
        <dc:type
           rdf:resource="http://purl.org/dc/dcmitype/StillImage" />
      </cc:Work>
    </rdf:RDF>
  </metadata>
  <sodipodi:namedview
     pagecolor="#ffffff"
     bordercolor="#666666"
     borderopacity="1"
     objecttolerance="10"
     gridtolerance="10"
     guidetolerance="10"
     inkscape:pageopacity="0"
     inkscape:pageshadow="2"
     inkscape:window-width="927"
     inkscape:window-height="814"
     id="namedview3357"
     showgrid="false"
     inkscape:zoom="0.17430556"
     inkscape:cx="1440"
     inkscape:cy="720"
     inkscape:window-x="0"
     inkscape:window-y="0"
     inkscape:window-maximized="0"
     inkscape:current-layer="svg1353" />
  <defs
     id="defs1358">
    <inkscape:perspective
       sodipodi:type="inkscape:persp3d"
       inkscape:vp_x="0 : 720 : 1"
       inkscape:vp_y="0 : 1000 : 0"
       inkscape:vp_z="2880 : 720 : 1"
       inkscape:persp3d-origin="1440 : 480 : 1"
       id="perspective3361" />
  </defs>
  <rect
     width="900"
     height="600"
     x="0"
     y="0"
     id="red area"
     style="fill:#ce1126" />
  <rect
     width="450"
     height="300"
     x="0"
     y="0"
     id="blue quarter"
     style="fill:#002b7f" />
  <polygon
     points="-0.95105652,-0.30901699 0.95105652,-0.30901699 -0.58778525,0.80901699 0,-1 0,-1 0.58778525,0.80901699 "
     transform="matrix(32.858194,0,0,43.810925,224.99998,252.05622)"
     id="polygon1441"
     style="fill:#ffffff" />
  <polygon
     points="-0.95105652,-0.30901699 0.95105652,-0.30901699 -0.58778525,0.80901699 0,-1 0,-1 0.58778525,0.80901699 "
     transform="matrix(26.286549,0,0,34.54915,156.24998,122.04917)"
     id="polygon1449"
     style="fill:#ffffff" />
  <polygon
     points="-0.95105652,-0.30901699 0.95105652,-0.30901699 -0.58778525,0.80901699 0,-1 0,-1 0.58778525,0.80901699 "
     transform="matrix(24.643643,0,0,32.245874,295.31247,107.24588)"
     id="polygon1451"
     style="fill:#ffffff" />
  <use
     transform="translate(68.75,-75)"
     id="use2402"
     x="0"
     y="0"
     width="288"
     height="144"
     xlink:href="#polygon1449" />
  <polygon
     points="-0.95105652,-0.30901699 0.95105652,-0.30901699 -0.58778525,0.80901699 0,-1 0,-1 0.58778525,0.80901699 "
     transform="matrix(16.429092,0,0,21.905456,259.37497,173.9447)"
     id="polygon1455"
     style="fill:#ffffff" />
</svg>
