<?xml version="1.0" encoding="UTF-8" standalone="no"?>
<svg
   xmlns:dc="http://purl.org/dc/elements/1.1/"
   xmlns:cc="http://creativecommons.org/ns#"
   xmlns:rdf="http://www.w3.org/1999/02/22-rdf-syntax-ns#"
   xmlns:svg="http://www.w3.org/2000/svg"
   xmlns="http://www.w3.org/2000/svg"
   xmlns:xlink="http://www.w3.org/1999/xlink"
   xmlns:sodipodi="http://sodipodi.sourceforge.net/DTD/sodipodi-0.dtd"
   xmlns:inkscape="http://www.inkscape.org/namespaces/inkscape"
   width="900"
   height="600"
   viewBox="-125 -75 281.25 187.5"
   id="svg2"
   version="1.1"
   inkscape:version="0.47 r22583"
   sodipodi:docname="Flag_of_Burundi.svg">
  <metadata
     id="metadata53">
    <rdf:RDF>
      <cc:Work
         rdf:about="">
        <dc:format>image/svg+xml</dc:format>
        <dc:type
           rdf:resource="http://purl.org/dc/dcmitype/StillImage" />
      </cc:Work>
    </rdf:RDF>
  </metadata>
  <sodipodi:namedview
     pagecolor="#ffffff"
     bordercolor="#666666"
     borderopacity="1"
     objecttolerance="10"
     gridtolerance="10"
     guidetolerance="10"
     inkscape:pageopacity="0"
     inkscape:pageshadow="2"
     inkscape:window-width="807"
     inkscape:window-height="684"
     id="namedview51"
     showgrid="false"
     inkscape:zoom="0.52291667"
     inkscape:cx="400"
     inkscape:cy="240"
     inkscape:window-x="0"
     inkscape:window-y="0"
     inkscape:window-maximized="0"
     inkscape:current-layer="svg2" />
  <defs
     id="defs4">
    <inkscape:perspective
       sodipodi:type="inkscape:persp3d"
       inkscape:vp_x="0 : 240 : 1"
       inkscape:vp_y="0 : 1000 : 0"
       inkscape:vp_z="800 : 240 : 1"
       inkscape:persp3d-origin="400 : 160 : 1"
       id="perspective55" />
    <clipPath
       id="frame">
      <rect
         width="250"
         height="150"
         x="-125"
         y="-75"
         id="rect7" />
    </clipPath>
    <g
       id="star">
      <g
         id="triangle">
        <g
           id="cone">
          <path
             id="helper"
             d="M 0,0 V 10 H 10"
             transform="matrix(0.8660254,0.5,-0.5,0.8660254,0,-10)" />
          <use
             xlink:href="#helper"
             transform="scale(-1,1)"
             id="use13"
             x="0"
             y="0"
             width="250"
             height="150" />
        </g>
        <use
           xlink:href="#cone"
           transform="matrix(-0.5,0.8660254,-0.8660254,-0.5,0,0)"
           id="use15"
           x="0"
           y="0"
           width="250"
           height="150" />
        <use
           xlink:href="#cone"
           transform="matrix(-0.5,-0.8660254,0.8660254,-0.5,0,0)"
           id="use17"
           x="0"
           y="0"
           width="250"
           height="150" />
      </g>
      <use
         xlink:href="#triangle"
         transform="scale(-1,-1)"
         id="use19"
         x="0"
         y="0"
         width="250"
         height="150" />
    </g>
  </defs>
  <path
     d="m 15.625,18.75 -141.9837,-96.634615 283.9674,0 z m 0,0 141.9837,96.63462 -283.9674,0 z"
     id="path21"
     style="fill:#ce1126" />
  <path
     d="m 15.625,18.75 -141.9837,-96.634615 0,193.269235 z m 0,0 141.9837,96.63462 0,-193.269235 z"
     id="path23"
     style="fill:#1eb53a" />
  <g
     clip-path="url(#frame)"
     id="g25"
     style="stroke:#ffffff;stroke-width:16.53217697"
     transform="matrix(1.1358696,0,0,1.2884615,15.625,18.75)">
    <line
       x1="-150"
       y1="-90"
       x2="150"
       y2="90"
       id="line27"
       style="stroke-width:16.53217697" />
    <line
       x1="-150"
       y1="90"
       x2="150"
       y2="-90"
       id="line29"
       style="stroke-width:16.53217697" />
  </g>
  <circle
     r="42.5"
     id="circle31"
     cx="0"
     cy="0"
     sodipodi:cx="0"
     sodipodi:cy="0"
     sodipodi:rx="42.5"
     sodipodi:ry="42.5"
     style="fill:#ffffff"
     transform="matrix(1.1358696,0,0,1.2884615,15.625,18.75)" />
  <g
     id="g33"
     style="fill:#1eb53a"
     transform="matrix(1.1358696,0,0,1.2884615,15.625,18.75)">
    <use
       xlink:href="#star"
       transform="translate(0,-22)"
       id="use35"
       x="0"
       y="0"
       width="250"
       height="150" />
    <use
       xlink:href="#star"
       transform="matrix(-0.5,0.8660254,-0.8660254,-0.5,19.052559,11)"
       id="use37"
       x="0"
       y="0"
       width="250"
       height="150" />
    <use
       xlink:href="#star"
       transform="matrix(-0.5,-0.8660254,0.8660254,-0.5,-19.052559,11)"
       id="use39"
       x="0"
       y="0"
       width="250"
       height="150" />
  </g>
  <comment
     id="comment41">The size of the red stars needs to be precisely 82% of the size of the green stars</comment>
  <g
     id="g43"
     style="fill:#ce1126"
     transform="matrix(1.1358696,0,0,1.2884615,15.625,18.75)">
    <use
       xlink:href="#star"
       transform="matrix(0.82,0,0,0.82,0,-22)"
       id="use45"
       x="0"
       y="0"
       width="250"
       height="150" />
    <use
       xlink:href="#star"
       transform="matrix(-0.41,0.71014083,-0.71014083,-0.41,19.052559,11)"
       id="use47"
       x="0"
       y="0"
       width="250"
       height="150" />
    <use
       xlink:href="#star"
       transform="matrix(-0.41,-0.71014083,0.71014083,-0.41,-19.052559,11)"
       id="use49"
       x="0"
       y="0"
       width="250"
       height="150" />
  </g>
</svg>
