<?xml version="1.0" encoding="UTF-8" standalone="no"?>
<!-- Created with Inkscape (http://www.inkscape.org/) -->

<svg
   xmlns:dc="http://purl.org/dc/elements/1.1/"
   xmlns:cc="http://creativecommons.org/ns#"
   xmlns:rdf="http://www.w3.org/1999/02/22-rdf-syntax-ns#"
   xmlns:svg="http://www.w3.org/2000/svg"
   xmlns="http://www.w3.org/2000/svg"
   xmlns:sodipodi="http://sodipodi.sourceforge.net/DTD/sodipodi-0.dtd"
   xmlns:inkscape="http://www.inkscape.org/namespaces/inkscape"
   width="900"
   height="600"
   id="svg2"
   sodipodi:version="0.32"
   inkscape:version="0.47 r22583"
   sodipodi:docname="Flag_of_Kyrgyzstan.svg"
   inkscape:output_extension="org.inkscape.output.svg.inkscape"
   version="1.0">
  <defs
     id="defs4">
    <inkscape:perspective
       sodipodi:type="inkscape:persp3d"
       inkscape:vp_x="0 : 300 : 1"
       inkscape:vp_y="0 : 1000 : 0"
       inkscape:vp_z="1000 : 300 : 1"
       inkscape:persp3d-origin="500 : 200 : 1"
       id="perspective3040" />
    <clipPath
       id="clip">
      <circle
         id="circle8"
         r="46"
         cy="-39"
         cx="0"
         sodipodi:cx="0"
         sodipodi:cy="-39"
         sodipodi:rx="46"
         sodipodi:ry="46" />
    </clipPath>
    <clipPath
       id="clipPath2448">
      <circle
         id="circle2398"
         r="46"
         cy="-39"
         cx="0"
         sodipodi:cx="0"
         sodipodi:cy="-39"
         sodipodi:rx="46"
         sodipodi:ry="46" />
    </clipPath>
  </defs>
  <sodipodi:namedview
     id="base"
     pagecolor="#ffffff"
     bordercolor="#666666"
     borderopacity="1.0"
     gridtolerance="10000"
     guidetolerance="10"
     objecttolerance="10"
     inkscape:pageopacity="0.0"
     inkscape:pageshadow="2"
     inkscape:zoom="0.49497475"
     inkscape:cx="556.21815"
     inkscape:cy="452.02072"
     inkscape:document-units="px"
     inkscape:current-layer="layer1"
     showborder="true"
     inkscape:window-width="1110"
     inkscape:window-height="926"
     inkscape:window-x="-4"
     inkscape:window-y="-4"
     showguides="true"
     inkscape:guide-bbox="true"
     showgrid="false"
     inkscape:window-maximized="0" />
  <metadata
     id="metadata7">
    <rdf:RDF>
      <cc:Work
         rdf:about="">
        <dc:format>image/svg+xml</dc:format>
        <dc:type
           rdf:resource="http://purl.org/dc/dcmitype/StillImage" />
      </cc:Work>
    </rdf:RDF>
  </metadata>
  <g
     inkscape:label="Layer 1"
     inkscape:groupmode="layer"
     id="layer1"
     transform="translate(697.89051,382.42592)">
    <g
       id="g7179"
       transform="matrix(1.8,0,0,2,558.3124,-217.57407)">
      <rect
         id="rect2400"
         height="300"
         width="500"
         x="-697.8905"
         y="-82.425926"
         style="fill:#e8112d" />
      <g
         transform="translate(-447.55054,67.87669)"
         id="g2479"
         style="fill:#ffef00;fill-opacity:1">
        <path
           style="fill:#ffef00;fill-opacity:1"
           d="M 4.2,-54 C 0,-65 9,-82 0,-90 c 3,12 -7,25 -4.2,36 2.8,11 12.6,11 8.4,0 z"
           id="path2482" />
        <path
           style="fill:#ffef00;fill-opacity:1"
           d="m 12.595754,-52.678143 c -2.427511,-11.521596 9.12107,-26.904387 1.483351,-36.213804 1.085851,12.321563 -10.8246806,23.597166 -9.7799329,34.899754 1.0447478,11.302588 10.7240929,12.835646 8.2965819,1.31405 z"
           id="path2484" />
        <path
           style="fill:#ffef00;fill-opacity:1"
           d="m 20.681355,-50.05918 c -0.59525,-11.759492 13.217547,-25.1463 7.130175,-35.535905 -0.855035,12.339729 -14.38282,21.613293 -15.119049,32.940163 -0.736229,11.326869 8.584125,14.355235 7.988874,2.595742 z"
           id="path2486" />
        <path
           style="fill:#ffef00;fill-opacity:1"
           d="m 28.257714,-46.207591 c 1.251669,-11.707832 16.988566,-22.769028 12.601431,-33.982994 -2.774866,12.054049 -17.586808,19.097229 -20.085885,30.169474 -2.499078,11.072245 6.232786,15.521352 7.484454,3.81352 z"
           id="path2488" />
        <path
           style="fill:#ffef00;fill-opacity:1"
           d="m 35.138278,-41.21822 c 3.067766,-11.367885 20.34127,-19.831106 17.762399,-31.59331 -4.626373,11.47156 -20.357752,16.110928 -24.558142,26.655914 -4.200391,10.544986 3.727976,16.305282 6.795743,4.937396 z"
           id="path2490" />
        <path
           style="fill:#ffef00;fill-opacity:1"
           d="m 41.153616,-35.213919 c 4.808326,-10.748023 23.193103,-16.404877 22.485996,-28.425693 -6.363961,10.606602 -22.627418,12.727922 -28.425693,22.485996 -5.798276,9.758074 1.131371,16.687721 5.939697,5.939697 z"
           id="path2492" />
        <path
           style="fill:#ffef00;fill-opacity:1"
           d="m 46.155616,-28.342535 c 6.430489,-9.863509 25.473846,-12.574707 26.655914,-24.558142 -7.944848,9.480475 -24.339922,9.031514 -31.59331,17.762399 -7.253388,8.730886 -1.493092,16.659253 4.937396,6.795743 z"
           id="path2494" />
        <path
           style="fill:#ffef00;fill-opacity:1"
           d="m 50.021111,-20.77326 c 7.894312,-8.736123 27.127337,-8.434903 30.169474,-20.085885 -9.330107,8.120906 -25.453096,5.112717 -33.982994,12.601431 -8.529898,7.488713 -4.080791,16.220577 3.81352,7.484454 z"
           id="path2497" />
        <path
           style="fill:#ffef00;fill-opacity:1"
           d="m 52.654922,-12.692481 c 9.16375,-7.393624 28.112864,-4.087404 32.940163,-15.119049 -10.485627,6.561374 -25.939532,1.068029 -35.535905,7.130175 -9.596374,6.062145 -6.568008,15.3824986 2.595742,7.988874 z"
           id="path2499" />
        <path
           style="fill:#ffef00;fill-opacity:1"
           d="m 53.992193,-4.2991721 c 10.207546,-5.8690709 28.406158,0.3607378 34.899754,-9.7799329 -11.382956,4.8402789 -25.787249,-3.002956 -36.213804,1.483351 -10.426554,4.4863069 -8.893496,14.1656522 1.31405,8.2965819 z"
           id="path2501" />
      </g>
      <g
         style="fill:#ffef00;fill-opacity:1"
         id="g2503"
         transform="matrix(0,1,-1,0,-447.55054,67.87669)">
        <path
           style="fill:#ffef00;fill-opacity:1"
           d="M 4.2,-54 C 0,-65 9,-82 0,-90 c 3,12 -7,25 -4.2,36 2.8,11 12.6,11 8.4,0 z"
           id="path2505" />
        <path
           style="fill:#ffef00;fill-opacity:1"
           d="m 12.595754,-52.678143 c -2.427511,-11.521596 9.12107,-26.904387 1.483351,-36.213804 1.085851,12.321563 -10.8246806,23.597166 -9.7799329,34.899754 1.0447478,11.302588 10.7240929,12.835646 8.2965819,1.31405 z"
           id="path2507" />
        <path
           style="fill:#ffef00;fill-opacity:1"
           d="m 20.681355,-50.05918 c -0.59525,-11.759492 13.217547,-25.1463 7.130175,-35.535905 -0.855035,12.339729 -14.38282,21.613293 -15.119049,32.940163 -0.736229,11.326869 8.584125,14.355235 7.988874,2.595742 z"
           id="path2509" />
        <path
           style="fill:#ffef00;fill-opacity:1"
           d="m 28.257714,-46.207591 c 1.251669,-11.707832 16.988566,-22.769028 12.601431,-33.982994 -2.774866,12.054049 -17.586808,19.097229 -20.085885,30.169474 -2.499078,11.072245 6.232786,15.521352 7.484454,3.81352 z"
           id="path2511" />
        <path
           style="fill:#ffef00;fill-opacity:1"
           d="m 35.138278,-41.21822 c 3.067766,-11.367885 20.34127,-19.831106 17.762399,-31.59331 -4.626373,11.47156 -20.357752,16.110928 -24.558142,26.655914 -4.200391,10.544986 3.727976,16.305282 6.795743,4.937396 z"
           id="path2513" />
        <path
           style="fill:#ffef00;fill-opacity:1"
           d="m 41.153616,-35.213919 c 4.808326,-10.748023 23.193103,-16.404877 22.485996,-28.425693 -6.363961,10.606602 -22.627418,12.727922 -28.425693,22.485996 -5.798276,9.758074 1.131371,16.687721 5.939697,5.939697 z"
           id="path2515" />
        <path
           style="fill:#ffef00;fill-opacity:1"
           d="m 46.155616,-28.342535 c 6.430489,-9.863509 25.473846,-12.574707 26.655914,-24.558142 -7.944848,9.480475 -24.339922,9.031514 -31.59331,17.762399 -7.253388,8.730886 -1.493092,16.659253 4.937396,6.795743 z"
           id="path2517" />
        <path
           style="fill:#ffef00;fill-opacity:1"
           d="m 50.021111,-20.77326 c 7.894312,-8.736123 27.127337,-8.434903 30.169474,-20.085885 -9.330107,8.120906 -25.453096,5.112717 -33.982994,12.601431 -8.529898,7.488713 -4.080791,16.220577 3.81352,7.484454 z"
           id="path2519" />
        <path
           style="fill:#ffef00;fill-opacity:1"
           d="m 52.654922,-12.692481 c 9.16375,-7.393624 28.112864,-4.087404 32.940163,-15.119049 -10.485627,6.561374 -25.939532,1.068029 -35.535905,7.130175 -9.596374,6.062145 -6.568008,15.3824986 2.595742,7.988874 z"
           id="path2521" />
        <path
           style="fill:#ffef00;fill-opacity:1"
           d="m 53.992193,-4.2991721 c 10.207546,-5.8690709 28.406158,0.3607378 34.899754,-9.7799329 -11.382956,4.8402789 -25.787249,-3.002956 -36.213804,1.483351 -10.426554,4.4863069 -8.893496,14.1656522 1.31405,8.2965819 z"
           id="path2523" />
      </g>
      <g
         style="fill:#ffef00;fill-opacity:1"
         id="g2525"
         transform="matrix(-1,0,0,-1,-447.55054,67.87669)">
        <path
           style="fill:#ffef00;fill-opacity:1"
           d="M 4.2,-54 C 0,-65 9,-82 0,-90 c 3,12 -7,25 -4.2,36 2.8,11 12.6,11 8.4,0 z"
           id="path2527" />
        <path
           style="fill:#ffef00;fill-opacity:1"
           d="m 12.595754,-52.678143 c -2.427511,-11.521596 9.12107,-26.904387 1.483351,-36.213804 1.085851,12.321563 -10.8246806,23.597166 -9.7799329,34.899754 1.0447478,11.302588 10.7240929,12.835646 8.2965819,1.31405 z"
           id="path2529" />
        <path
           style="fill:#ffef00;fill-opacity:1"
           d="m 20.681355,-50.05918 c -0.59525,-11.759492 13.217547,-25.1463 7.130175,-35.535905 -0.855035,12.339729 -14.38282,21.613293 -15.119049,32.940163 -0.736229,11.326869 8.584125,14.355235 7.988874,2.595742 z"
           id="path2531" />
        <path
           style="fill:#ffef00;fill-opacity:1"
           d="m 28.257714,-46.207591 c 1.251669,-11.707832 16.988566,-22.769028 12.601431,-33.982994 -2.774866,12.054049 -17.586808,19.097229 -20.085885,30.169474 -2.499078,11.072245 6.232786,15.521352 7.484454,3.81352 z"
           id="path2533" />
        <path
           style="fill:#ffef00;fill-opacity:1"
           d="m 35.138278,-41.21822 c 3.067766,-11.367885 20.34127,-19.831106 17.762399,-31.59331 -4.626373,11.47156 -20.357752,16.110928 -24.558142,26.655914 -4.200391,10.544986 3.727976,16.305282 6.795743,4.937396 z"
           id="path2535" />
        <path
           style="fill:#ffef00;fill-opacity:1"
           d="m 41.153616,-35.213919 c 4.808326,-10.748023 23.193103,-16.404877 22.485996,-28.425693 -6.363961,10.606602 -22.627418,12.727922 -28.425693,22.485996 -5.798276,9.758074 1.131371,16.687721 5.939697,5.939697 z"
           id="path2537" />
        <path
           style="fill:#ffef00;fill-opacity:1"
           d="m 46.155616,-28.342535 c 6.430489,-9.863509 25.473846,-12.574707 26.655914,-24.558142 -7.944848,9.480475 -24.339922,9.031514 -31.59331,17.762399 -7.253388,8.730886 -1.493092,16.659253 4.937396,6.795743 z"
           id="path2539" />
        <path
           style="fill:#ffef00;fill-opacity:1"
           d="m 50.021111,-20.77326 c 7.894312,-8.736123 27.127337,-8.434903 30.169474,-20.085885 -9.330107,8.120906 -25.453096,5.112717 -33.982994,12.601431 -8.529898,7.488713 -4.080791,16.220577 3.81352,7.484454 z"
           id="path2541" />
        <path
           style="fill:#ffef00;fill-opacity:1"
           d="m 52.654922,-12.692481 c 9.16375,-7.393624 28.112864,-4.087404 32.940163,-15.119049 -10.485627,6.561374 -25.939532,1.068029 -35.535905,7.130175 -9.596374,6.062145 -6.568008,15.3824986 2.595742,7.988874 z"
           id="path2543" />
        <path
           style="fill:#ffef00;fill-opacity:1"
           d="m 53.992193,-4.2991721 c 10.207546,-5.8690709 28.406158,0.3607378 34.899754,-9.7799329 -11.382956,4.8402789 -25.787249,-3.002956 -36.213804,1.483351 -10.426554,4.4863069 -8.893496,14.1656522 1.31405,8.2965819 z"
           id="path2545" />
      </g>
      <g
         style="fill:#ffef00;fill-opacity:1"
         id="g2547"
         transform="matrix(0,-1,1,0,-447.55054,67.87669)">
        <path
           style="fill:#ffef00;fill-opacity:1"
           d="M 4.2,-54 C 0,-65 9,-82 0,-90 c 3,12 -7,25 -4.2,36 2.8,11 12.6,11 8.4,0 z"
           id="path2549" />
        <path
           style="fill:#ffef00;fill-opacity:1"
           d="m 12.595754,-52.678143 c -2.427511,-11.521596 9.12107,-26.904387 1.483351,-36.213804 1.085851,12.321563 -10.8246806,23.597166 -9.7799329,34.899754 1.0447478,11.302588 10.7240929,12.835646 8.2965819,1.31405 z"
           id="path2551" />
        <path
           style="fill:#ffef00;fill-opacity:1"
           d="m 20.681355,-50.05918 c -0.59525,-11.759492 13.217547,-25.1463 7.130175,-35.535905 -0.855035,12.339729 -14.38282,21.613293 -15.119049,32.940163 -0.736229,11.326869 8.584125,14.355235 7.988874,2.595742 z"
           id="path2553" />
        <path
           style="fill:#ffef00;fill-opacity:1"
           d="m 28.257714,-46.207591 c 1.251669,-11.707832 16.988566,-22.769028 12.601431,-33.982994 -2.774866,12.054049 -17.586808,19.097229 -20.085885,30.169474 -2.499078,11.072245 6.232786,15.521352 7.484454,3.81352 z"
           id="path2555" />
        <path
           style="fill:#ffef00;fill-opacity:1"
           d="m 35.138278,-41.21822 c 3.067766,-11.367885 20.34127,-19.831106 17.762399,-31.59331 -4.626373,11.47156 -20.357752,16.110928 -24.558142,26.655914 -4.200391,10.544986 3.727976,16.305282 6.795743,4.937396 z"
           id="path2557" />
        <path
           style="fill:#ffef00;fill-opacity:1"
           d="m 41.153616,-35.213919 c 4.808326,-10.748023 23.193103,-16.404877 22.485996,-28.425693 -6.363961,10.606602 -22.627418,12.727922 -28.425693,22.485996 -5.798276,9.758074 1.131371,16.687721 5.939697,5.939697 z"
           id="path2559" />
        <path
           style="fill:#ffef00;fill-opacity:1"
           d="m 46.155616,-28.342535 c 6.430489,-9.863509 25.473846,-12.574707 26.655914,-24.558142 -7.944848,9.480475 -24.339922,9.031514 -31.59331,17.762399 -7.253388,8.730886 -1.493092,16.659253 4.937396,6.795743 z"
           id="path2561" />
        <path
           style="fill:#ffef00;fill-opacity:1"
           d="m 50.021111,-20.77326 c 7.894312,-8.736123 27.127337,-8.434903 30.169474,-20.085885 -9.330107,8.120906 -25.453096,5.112717 -33.982994,12.601431 -8.529898,7.488713 -4.080791,16.220577 3.81352,7.484454 z"
           id="path2563" />
        <path
           style="fill:#ffef00;fill-opacity:1"
           d="m 52.654922,-12.692481 c 9.16375,-7.393624 28.112864,-4.087404 32.940163,-15.119049 -10.485627,6.561374 -25.939532,1.068029 -35.535905,7.130175 -9.596374,6.062145 -6.568008,15.3824986 2.595742,7.988874 z"
           id="path2565" />
        <path
           style="fill:#ffef00;fill-opacity:1"
           d="m 53.992193,-4.2991721 c 10.207546,-5.8690709 28.406158,0.3607378 34.899754,-9.7799329 -11.382956,4.8402789 -25.787249,-3.002956 -36.213804,1.483351 -10.426554,4.4863069 -8.893496,14.1656522 1.31405,8.2965819 z"
           id="path2567" />
      </g>
      <circle
         transform="translate(-447.55054,67.87669)"
         id="circle2569"
         r="54"
         cx="0"
         cy="0"
         sodipodi:cx="0"
         sodipodi:cy="0"
         sodipodi:rx="54"
         sodipodi:ry="54"
         style="fill:#e8112d"
         d="M 54,0 C 54,29.823376 29.823376,54 0,54 -29.823376,54 -54,29.823376 -54,0 c 0,-29.823376 24.176624,-54 54,-54 29.823376,0 54,24.176624 54,54 z" />
      <path
         transform="matrix(1.3676861,0,0,1.3676861,-176.98695,-86.201383)"
         d="m -158.95836,112.0634 c 0,21.44258 -17.38264,38.82523 -38.82522,38.82523 -21.44258,0 -38.82523,-17.38265 -38.82523,-38.82523 0,-21.44258 17.38265,-38.825226 38.82523,-38.825226 21.44258,0 38.82522,17.382646 38.82522,38.825226 z"
         sodipodi:ry="38.825226"
         sodipodi:rx="38.825226"
         sodipodi:cy="112.0634"
         sodipodi:cx="-197.78358"
         id="path2571"
         style="fill:none;stroke:#ffef00;stroke-width:8.43274021;stroke-linecap:round;stroke-linejoin:round;stroke-miterlimit:4;stroke-opacity:1;stroke-dasharray:none"
         sodipodi:type="arc" />
      <circle
         transform="matrix(0.8899531,0,0,0.8997326,-447.55054,67.626029)"
         id="circle2573"
         r="45"
         cy="-3"
         cx="0"
         sodipodi:cx="0"
         sodipodi:cy="-3"
         sodipodi:rx="45"
         sodipodi:ry="45"
         style="fill:#ffef00;fill-opacity:1"
         d="M 45,-3 C 45,21.852814 24.852814,42 0,42 -24.852814,42 -45,21.852814 -45,-3 c 0,-24.852814 20.147186,-45 45,-45 24.852814,0 45,20.147186 45,45 z" />
      <g
         id="g2575"
         clip-path="url(#clip)"
         transform="matrix(0.8899531,0,0,0.8997326,-447.55054,100.01639)">
        <g
           id="g2577"
           style="fill:#e8112d">
          <path
             id="path2579"
             d="m 45,-63.63961 c -35.1471861,0 -63.63961,28.492424 -63.63961,63.63961 0,35.147186 28.4924239,63.63961 63.63961,63.63961 l -3.6,2.4651 C 4.8913768,66.10471 -24.70471,36.508623 -24.70471,0 c 0,-36.508623 29.5960868,-66.10471 66.10471,-66.10471 l 3.6,2.4651 z" />
          <path
             id="path2581"
             d="m 39,-67.84916 c -37.4720564,0 -67.84916,30.377104 -67.84916,67.84916 0,37.472056 30.3771036,67.84916 67.84916,67.84916 l -3.6,2.75325 C -3.5926343,70.60241 -35.20241,38.992634 -35.20241,0 c 0,-38.992634 31.6097757,-70.60241 70.60241,-70.60241 l 3.6,2.75325 z" />
          <path
             id="path2583"
             d="m 33,-72.5209 c -40.0521871,0 -72.5209,32.468713 -72.5209,72.5209 0,40.052187 32.4687129,72.5209 72.5209,72.5209 l -3.6,2.98957 c -41.703281,0 -75.51047,-33.807189 -75.51047,-75.51047 0,-41.703281 33.807189,-75.51047 75.51047,-75.51047 l 3.6,2.98957 z" />
        </g>
        <g
           style="fill:#e8112d"
           id="g2585"
           transform="scale(-1,1)">
          <path
             id="path2587"
             d="m 45,-63.63961 c -35.1471861,0 -63.63961,28.492424 -63.63961,63.63961 0,35.147186 28.4924239,63.63961 63.63961,63.63961 l -3.6,2.4651 C 4.8913768,66.10471 -24.70471,36.508623 -24.70471,0 c 0,-36.508623 29.5960868,-66.10471 66.10471,-66.10471 l 3.6,2.4651 z" />
          <path
             id="path2589"
             d="m 39,-67.84916 c -37.4720564,0 -67.84916,30.377104 -67.84916,67.84916 0,37.472056 30.3771036,67.84916 67.84916,67.84916 l -3.6,2.75325 C -3.5926343,70.60241 -35.20241,38.992634 -35.20241,0 c 0,-38.992634 31.6097757,-70.60241 70.60241,-70.60241 l 3.6,2.75325 z" />
          <path
             id="path2591"
             d="m 33,-72.5209 c -40.0521871,0 -72.5209,32.468713 -72.5209,72.5209 0,40.052187 32.4687129,72.5209 72.5209,72.5209 l -3.6,2.98957 c -41.703281,0 -75.51047,-33.807189 -75.51047,-75.51047 0,-41.703281 33.807189,-75.51047 75.51047,-75.51047 l 3.6,2.98957 z" />
        </g>
      </g>
    </g>
  </g>
</svg>
