<?xml version="1.0" encoding="UTF-8" standalone="no"?>
<svg
   xmlns:dc="http://purl.org/dc/elements/1.1/"
   xmlns:cc="http://creativecommons.org/ns#"
   xmlns:rdf="http://www.w3.org/1999/02/22-rdf-syntax-ns#"
   xmlns:svg="http://www.w3.org/2000/svg"
   xmlns="http://www.w3.org/2000/svg"
   xmlns:xlink="http://www.w3.org/1999/xlink"
   xmlns:sodipodi="http://sodipodi.sourceforge.net/DTD/sodipodi-0.dtd"
   xmlns:inkscape="http://www.inkscape.org/namespaces/inkscape"
   version="1.1"
   width="900"
   height="600"
   id="Flag_of_England"
   sodipodi:version="0.32"
   inkscape:version="0.47 r22583"
   sodipodi:docname="Flag_of_Herm.svg">
  <metadata
     id="metadata3183">
    <rdf:RDF>
      <cc:Work
         rdf:about="">
        <dc:format>image/svg+xml</dc:format>
        <dc:type
           rdf:resource="http://purl.org/dc/dcmitype/StillImage" />
      </cc:Work>
    </rdf:RDF>
  </metadata>
  <defs
     id="defs3181">
    <inkscape:perspective
       sodipodi:type="inkscape:persp3d"
       inkscape:vp_x="0 : 240 : 1"
       inkscape:vp_y="0 : 1000 : 0"
       inkscape:vp_z="800 : 240 : 1"
       inkscape:persp3d-origin="400 : 160 : 1"
       id="perspective3077" />
  </defs>
  <sodipodi:namedview
     inkscape:window-height="853"
     inkscape:window-width="947"
     inkscape:pageshadow="2"
     inkscape:pageopacity="0.0"
     borderopacity="1.0"
     bordercolor="#666666"
     pagecolor="#ffffff"
     id="base"
     showguides="true"
     inkscape:guide-bbox="true"
     inkscape:zoom="0.77708333"
     inkscape:cx="400"
     inkscape:cy="240"
     inkscape:window-x="-26"
     inkscape:window-y="89"
     inkscape:current-layer="Flag_of_England"
     showgrid="false"
     inkscape:window-maximized="0" />
  <path
     style="fill:#ffffff"
     d="M 0,0 900,0 900,600 0,600 0,0 z"
     id="rect3172" />
  <path
     id="path4078"
     d="M 0,0 450,0 450,300 0,300 0,0 z"
     style="fill:#0000c0;fill-opacity:1" />
  <path
     style="fill:#ce1124"
     d="m 396,0 0,240 -396,0 0,120 396,0 0,240 108,0 0,-240 396,0 0,-120 -396,0 0,-240 -108,0 z"
     id="rect3176" />
  <path
     style="fill:#ffc000;fill-opacity:1"
     d="M 0,0 0,53.398437 307.89844,240 396,240 396,186.60156 88.101562,0 0,0 z"
     id="path4194" />
  <g
     id="g4138"
     transform="matrix(0.860832,0,0,0.95648,39.708461,184.08062)">
    <path
       d="m 177.98371,-25.095439 c 0.51382,-2.515108 0.98677,-6.335211 0.40726,-8.832802 -0.36201,-1.556068 -1.05392,-2.916533 -2.01296,-4.166058 -0.66856,-0.874376 -1.90933,-2.747205 -3.06835,-1.964791 -1.56336,1.052462 -0.55177,8.381746 -0.75176,10.021019 -0.23647,1.934136 0.1343,1.672846 -1.38966,2.846465 -0.77803,0.599948 -2.11222,1.286019 -3.01287,1.646571 -0.12116,0.04671 3.63326,0.976557 4.15292,0.982396 1.89035,0.01606 3.79237,-0.175167 5.65936,-0.456894 0.006,-0.02482 0.0102,-0.04817 0.0161,-0.07591 z"
       id="path1698" />
    <path
       d="m 187.23545,-36.203954 c -0.0584,-2.650863 0.0482,-7.648964 -2.68882,-9.094093 -1.9137,4.116427 -1.24806,8.100019 -1.43783,12.543425 -0.10364,2.377894 1.51228,6.764371 -1.60424,6.857793 -1.26412,-2.453799 -0.59264,-6.441771 -1.43783,-9.140804 -0.97655,-3.116515 -3.56611,-5.762998 -4.4507,-8.552535 -1.08312,-3.412839 -0.55616,-8.059147 -0.55616,-11.651533 0,-1.697661 -0.0467,-3.209937 0.47296,-4.79228 0.55323,-1.687443 2.44358,-3.770472 2.26257,-5.514845 -1.48454,-0.598488 -3.13111,0.350334 -4.42297,-0.03357 -2.19251,-0.655417 -1.921,-6.218432 -1.68744,-8.015355 0.50652,-3.89017 1.86699,-7.629988 2.90047,-11.394621 1.25391,-4.573322 2.88734,-10.38887 7.61685,-12.505473 0.19123,1.499139 0.15181,3.369048 0.79993,4.787901 0.27443,0.598488 0.51383,1.563367 1.26996,1.747292 0.32406,0.07883 1.94874,-0.344495 1.79547,-0.815986 -1.6962,-5.17035 -5.3207,-9.786012 -4.88862,-15.505212 0.25837,-3.43766 5.01999,-8.18469 9.09847,-7.42709 4.64339,0.86562 3.62742,8.20512 3.67413,11.60336 0.0365,2.60562 -0.0146,4.949939 -1.36923,7.251927 -1.25974,2.147257 -2.82165,3.656614 -2.47861,6.33667 0.2175,0.07883 0.8408,0.2175 1.06414,0.21458 1.77357,-1.442209 2.2144,-3.88725 3.89601,-5.38055 2.68006,3.903307 2.37643,10.107143 2.15893,14.646891 -0.14305,2.964703 -2.90485,5.055031 -2.37935,8.101479 0.59119,3.431816 2.4465,6.538113 2.72093,10.165532 0.54448,7.180392 1.56483,14.404576 1.45973,21.601025 -0.0365,2.477155 -0.31676,5.11488 -0.0409,7.577438 0.16787,1.510816 0.96926,2.922371 0.46274,4.514933 -0.54594,1.718097 -0.11094,0.554695 -1.6349,1.577963 -2.03485,1.367764 -3.64639,2.973462 -5.24333,4.783522 -0.98532,1.11961 -4.2624,4.341226 -4.67405,1.125449 -0.1737,-1.367763 1.94582,-3.214316 2.41585,-4.387936 -1.26996,-0.06861 -2.27863,0.262751 -2.972,-0.891893 -1.25391,-2.088868 -0.0482,-7.897117 -0.10218,-10.3334 z"
       id="path1700" />
    <path
       d="m 190.44539,-110.5478 c 0.9459,0.31092 1.85093,-1.03203 1.63197,-1.89034 -0.13867,-0.53864 -0.93568,-1.25391 -1.52979,-0.95029 -0.72549,0.36931 -0.14452,2.19689 -0.10218,2.84063 z"
       id="path1702"
       style="fill:#ffffff" />
    <path
       d="m 192.44959,-106.25766 c 0.53572,-0.36932 0.89773,-1.72102 0.0701,-1.96042 -0.74738,-0.21312 -1.65533,1.40572 -1.35755,2.05968 0.20436,0.44667 1.02911,0.0788 1.28748,-0.0993 z"
       id="path1704"
       style="fill:#ffffff" />
    <path
       d="m 187.35223,-107.71301 c -0.19123,-0.56783 -0.49339,-2.28155 -1.27872,-2.23484 -0.3372,0.019 -0.91963,0.76927 -1.22617,0.95466 -0.37515,0.2248 -0.79263,0.44376 -1.24369,0.42332 -0.3007,-0.0131 -0.9605,-0.25253 -1.23055,-0.16641 -0.53864,0.17079 -0.39412,0.5109 -0.63936,0.97948 0.95904,0.40434 2.21295,-0.0511 3.23183,0.0219 1.36485,0.0963 1.51666,1.17362 1.56191,2.48592 -0.94298,0.14159 -1.57212,-1.06122 -2.39249,-1.28602 -0.93422,-0.25691 -1.22033,0.80139 -1.93268,1.22617 0.52988,1.51957 0.89773,3.41138 1.91224,4.71053 0.68462,0.878758 1.77941,0.51821 2.59686,-0.0642 -0.0993,0.39266 -0.24816,0.713801 -0.24232,1.163397 0.0117,1.029107 0.69921,2.218783 0.35472,3.234753 0.54739,0.179546 1.11669,0.179546 1.65387,0.443756 -0.43792,-1.229089 0.2861,-3.028931 0.28464,-4.342686 -10e-4,-1.02765 -0.0306,-2.01442 -0.20582,-3.00411 -0.26567,-1.51374 -0.71089,-3.07857 -1.20427,-4.54559 z"
       id="path1706"
       style="fill:#ffffff" />
    <path
       d="m 181.42428,-78.287855 c 0.1197,-0.706507 0.16933,-1.474323 0.49193,-2.113683 0.3153,-0.627682 0.76051,-1.16924 1.01743,-1.853852 -0.58097,-0.716725 -1.25829,-0.540099 -1.9283,0.07445 -1.3123,1.204274 -2.21879,3.41138 -2.63627,5.078387 -0.50652,2.02172 -0.99991,3.990891 -0.88167,6.113332 0.0628,1.123989 -0.19123,2.66546 0.62476,3.449333 0.089,0.08466 0.22918,-0.100721 0.34888,0.01168 0.17808,0.169328 0.21895,0.494847 0.3226,0.700668 0.25691,0.510904 0.68461,1.569206 1.37214,1.675766 1.55461,0.242314 0.93714,-2.582256 0.90211,-3.309199 -0.16203,-3.271246 -0.18393,-6.593583 0.36639,-9.826876 z"
       id="path1708"
       style="fill:#ffffff" />
    <path
       d="m 180.06235,-83.379379 c -1.18529,1.648031 -2.09616,3.336934 -2.96762,5.187866 -0.85832,1.823198 -1.58964,3.57195 -1.96479,5.555717 -0.26713,1.413015 -0.34595,2.722389 -0.45835,4.139783 -0.99408,-0.945902 -0.43938,-3.72814 -0.28757,-4.885703 0.28465,-2.167693 0.93569,-4.636089 1.98815,-6.565847 0.69045,-1.264123 1.20719,-2.61145 2.01442,-3.814264 0.29049,-0.433539 0.80431,-1.307915 1.38236,-1.413015 1.15318,-0.208741 0.69775,1.233469 0.2934,1.795463 z"
       id="path1710"
       style="fill:#ffffff" />
    <path
       d="m 183.48395,-85.605461 c 0.8919,0.411643 1.7181,0.925466 2.38665,1.643651 1.90933,2.047996 0.49047,5.945464 -0.5182,8.091262 -0.24377,0.516743 -0.47441,0.947362 0.16641,1.22325 1.33273,0.573672 2.53263,-2.262575 2.8596,-3.134032 0.84519,-2.250897 1.77503,-4.779143 0.12992,-6.821299 2.46402,0.810148 3.89017,3.275625 4.31057,5.671035 0.0467,0.270049 -0.0248,1.084577 0.27151,1.22617 0.56783,0.272969 0.83496,-1.048083 0.92839,-1.414475 0.97509,-3.869733 -0.97364,-7.793477 -5.07693,-8.640118 -1.05976,-0.217499 -2.25674,-0.302163 -3.32234,-0.414562 -1.10063,-0.118238 -1.77648,-0.608706 -2.78516,-0.928386 -1.00721,-0.31968 -3.00849,0.147433 -2.64648,1.569206 0.39705,1.557527 2.17061,1.411555 3.29606,1.928298 z"
       id="path1712"
       style="fill:#ffffff" />
    <path
       d="m 185.06338,-65.490437 c 0.0307,-0.610165 0.5328,-3.074183 -0.76052,-2.602691 -0.60287,0.218959 -1.18968,1.70496 -1.18822,2.297608 0.004,1.645112 -0.0365,3.290223 -0.0788,4.90322 0.59265,0.04233 1.22909,0.04233 1.82173,0 0.19269,-0.548857 0.12262,-1.175079 0.089,-1.741453 -0.0613,-0.982396 0.0686,-1.877208 0.11678,-2.856684 z"
       id="path1714"
       style="fill:#ffffff" />
    <path
       d="m 180.782,-57.858989 c 0.60141,0.175167 1.80276,0.313841 2.0334,-0.04233 0.10072,-0.153272 0.0832,-1.607159 -0.15619,-1.573585 0.5182,-0.07153 1.21303,0.05547 1.73853,0.09196 0.0861,0.564914 -0.10364,1.156103 -0.0657,1.734154 0.60579,-0.03211 1.21012,-0.15765 1.82612,0.02627 0.0584,0.554696 -0.0292,1.126909 -0.19122,1.65241 -0.57076,-0.202902 -1.2977,-0.204362 -1.91224,-0.167868 -0.11386,0.0073 -0.11532,3.183662 -0.11678,3.477067 0,0.382448 0.18392,1.33273 -0.073,1.618836 -0.2321,0.261291 -1.13421,0.118238 -1.47286,0.252533 -0.092,-0.945903 -0.004,-1.913701 0.0365,-2.861063 0.019,-0.458354 0.37807,-1.54731 0.22626,-1.954573 -0.25107,-0.674394 -0.83788,-0.256912 -1.44805,-0.461274 -0.50944,-0.173707 -0.50507,-0.113858 -0.58535,-0.750299 -0.0467,-0.357633 -0.0248,-0.731323 0.003,-1.091875 0.0467,0.01606 0.0993,0.03357 0.15765,0.04963 z"
       id="path1716"
       style="fill:#ffffff" />
    <path
       d="m 189.13455,-68.304789 c -0.0423,-0.710886 0.23356,-2.8742 -1.23639,-2.34286 -0.53863,0.194144 -0.38828,0.782413 -0.45251,1.38674 -0.15765,1.497679 -0.38683,2.989519 -0.44376,4.494496 -0.019,0.484629 -0.35325,1.885966 -0.0949,2.320965 0.19852,0.334277 0.51236,0.197063 0.76782,0.436458 0.70358,0.656876 0.55615,2.567658 0.92692,3.542755 0.56784,1.49038 1.08896,2.996817 1.77649,4.437567 0.42332,-0.195604 0.41894,-1.481622 0.94298,-1.913701 -1.45389,-2.414387 -1.63781,-5.517764 -1.9356,-8.254751 -0.14743,-1.360464 -0.16932,-2.741365 -0.25107,-4.107669 z"
       id="path1718"
       style="fill:#ffffff" />
    <path
       d="m 173.28923,-26.26176 c 0.84226,0.52842 2.50635,0.553236 3.31649,-0.06569 1.47287,-1.131288 -0.91087,-2.374974 -1.99544,-2.214404 -0.36493,0.985315 -2.59977,1.478702 -1.32105,2.280092 z"
       id="path1720"
       style="fill:#ffffff" />
    <path
       d="m 192.98969,-23.190497 c -0.009,0.02044 -1.20574,-0.499226 -1.36485,-0.499226 -0.41748,0 -0.62622,0.172248 -0.92546,0.462733 -0.6452,0.626222 -0.70651,1.22325 0.19268,1.636353 0.93423,0.4277 1.78525,-0.884594 2.09763,-1.59986 z"
       id="path1722"
       style="fill:#ffffff" />
  </g>
  <use
     x="0"
     y="0"
     xlink:href="#g4138"
     id="use4244"
     width="800"
     height="480"
     transform="translate(-111.375,-67.5)" />
  <use
     x="0"
     y="0"
     xlink:href="#g4138"
     id="use4246"
     transform="translate(111.375,67.5)"
     width="800"
     height="480" />
  <g
     id="g4080"
     transform="matrix(0.62791987,0.69768875,-0.62791987,0.69768875,-209.05211,57.509412)">
    <path
       d="m 331.18049,-138.79934 c 2.74136,2.84939 6.31477,4.48574 9.8911,6.01699 -2.58809,1.60716 -7.3176,2.95303 -8.62844,5.98196 -1.99252,4.6069 4.35145,8.07958 6.95122,10.57426 1.32543,1.27142 2.15893,2.72968 2.82019,4.41713 2.39249,6.10895 1.24952,11.1523 -4.4726,14.751988 -1.10064,0.691911 -1.62614,1.037866 -2.13558,0.01022 -0.70651,-1.429071 0.35909,-3.942718 0.009,-5.514848 -0.25254,-1.12983 -0.9605,-2.30053 -1.83488,-3.08732 -1.69182,-1.52541 -3.13987,-1.67139 -3.64785,-4.00111 -0.57514,-2.63626 -1.26997,-5.37179 -4.00695,-6.5819 -2.4611,-1.0875 -4.30765,-0.003 -5.07255,2.46547 -0.71819,2.32389 0.21896,4.92074 -0.58827,7.25046 -1.03932,2.9939 -4.00841,4.35583 -5.15721,7.262143 -0.57367,1.449508 -0.8846,5.11342 0.76052,5.981957 -5.03022,0.645199 -8.75252,-5.345517 -8.75982,-9.78601 -0.007,-4.34852 2.26404,-8.33795 4.74411,-11.76101 1.12837,-1.55461 2.04654,-2.39833 2.12536,-4.30035 0.0876,-2.07719 0.47441,-4.20255 0.40289,-6.2812 -0.0949,-2.76326 -1.45389,-3.39824 -3.37781,-5.06087 -1.21595,-1.04954 -2.40417,-2.17645 -3.69603,-3.10484 -1.92684,-1.38382 -5.01562,-1.96187 -7.34242,-2.37789 -0.99261,-0.17809 -2.30491,-0.31092 -3.28146,-0.31384 -1.51082,-0.006 -3.41284,-0.0161 -4.86527,0.11386 -0.86562,0.0774 -2.54722,1.68014 -3.26541,1.44804 2.68298,0.86708 2.94865,4.32517 2.68882,6.61548 -0.18685,1.64511 -0.24232,3.68435 2.00274,2.92383 1.44659,-0.49047 2.20711,-2.06113 3.85514,-1.98085 1.82758,0.0876 2.8815,1.90933 2.92237,3.60553 0.0336,1.36922 -0.77657,3.14133 -1.87429,3.98651 -1.3809,1.0656 -2.95594,0.28757 -4.47114,0.21166 -1.11815,-0.054 -3.28,1.30062 -2.76764,2.67422 0.38829,1.04078 2.57934,1.22325 3.5048,1.41155 1.85677,0.37953 5.05357,0.0482 4.67988,2.85231 -0.31676,2.37789 -3.61574,2.65816 -5.46375,2.42898 -3.19096,-0.39704 -4.69594,-2.18813 -5.83161,-5.14699 -0.73424,-1.91662 -0.14159,-3.77485 -0.88021,-5.6652 -0.79847,-2.04507 -1.88013,-4.6901 -3.66829,-6.03597 -1.58526,-1.19113 -2.69612,-0.0146 -2.32972,1.71664 0.19998,0.94298 0.85686,1.46703 1.3809,2.21003 0.85686,1.21741 1.4568,2.57203 2.06259,3.92374 1.60424,3.58801 1.94144,7.81099 1.30353,11.66175 -0.39266,2.37206 -1.76334,7.705897 -4.9616,7.646048 -1.34295,-0.02627 -1.75167,-1.681608 -1.68745,-2.887338 0.0803,-1.48746 1.39988,-2.16769 1.82904,-3.49459 0.58973,-1.82465 0.39996,-3.65807 0.55032,-5.52798 0.11531,-1.42615 1.09625,-3.82594 0.12845,-5.13969 -0.80869,-1.09772 -1.78086,-0.61747 -2.53554,0.3839 -1.62176,2.14872 -1.1707,5.57032 -1.65679,8.07667 -0.35034,1.81006 -0.56346,3.68727 -0.99845,5.47105 -0.5547,2.28155 -1.91662,5.003944 -4.01571,6.249091 -2.44796,1.453887 -5.92065,1.38236 -6.66219,-1.818819 -0.29632,-1.27726 0.10364,-2.395412 0.98824,-3.328182 0.59994,-0.63498 1.83779,-0.85685 1.58234,-1.94289 -2.62605,0.71818 -4.46238,-2.14434 -3.22454,-4.58938 0.66564,-1.31521 3.02602,-1.52249 2.67714,-3.43327 -2.94135,-1.19844 -2.67568,-3.09024 -1.64219,-5.62141 0.75176,-1.83488 0.76052,-1.61884 -0.95466,-2.15456 -1.36485,-0.42624 -2.82603,-1.20719 -3.80697,-2.25235 -1.19551,-1.27434 -2.31366,-2.61583 -3.01579,-4.23613 -0.8408,-1.93997 -1.05246,-4.03322 -0.86562,-6.12501 0.0745,-0.82912 1.4028,-4.9076 0.92985,-5.3966 -0.39559,-0.40873 -2.76034,0.3912 -3.5194,0.15181 -0.61893,-0.19415 -3.58655,-2.93259 -3.83032,-2.82165 1.73561,-0.79263 3.35883,-2.03778 5.27253,-2.37352 1.78962,-0.31238 3.61428,0.60579 5.37325,0.15473 4.42005,-1.12545 2.9939,-6.6111 3.30482,-9.91154 0.38829,-4.14124 0.37953,-8.42116 1.14004,-12.50693 0.23648,-1.26704 1.48455,-6.24617 3.47561,-4.23758 0.6233,0.62768 0.50507,2.6494 0.53718,3.5121 0.0701,1.87137 0.0219,4.0303 0.67585,5.80825 1.16341,3.15884 4.0741,2.70779 6.30748,0.91233 2.16915,-1.74438 3.41284,-4.73681 3.84492,-7.44169 0.38683,-2.4173 0.59995,-5.64038 2.67422,-7.35556 0.99115,-0.8189 2.11222,-0.54301 3.21431,-0.12845 -0.32114,2.46547 -0.48463,6.30455 1.26559,8.40072 1.17362,1.40572 3.72668,2.4392 5.56593,2.21295 1.91662,-0.23648 3.19534,-2.0699 4.2697,-3.49021 2.16331,-2.85814 3.58801,-5.43018 6.81984,-7.36578 1.07874,-0.64666 4.47844,-1.50497 4.2551,1.12691 -0.0584,0.68461 -1.90932,2.1166 -2.18229,3.08002 -2.08157,7.32637 6.13523,6.45491 10.58739,5.4769 2.26696,-0.49777 5.62871,-2.90194 7.97157,-2.53555 0.27151,0.0423 -2.01005,4.31495 -2.18521,4.63171 -0.98386,1.79255 -1.5911,3.31066 -1.28018,5.36304 0.65541,4.33684 4.25948,4.77476 7.98324,5.19224 -1.39842,4.41713 -2.41293,9.10139 1.11523,12.76968 z m -62.13178,13.27037 c 3.99965,0.16057 2.3341,-7.18185 -1.08166,-4.96015 -2.19834,1.43054 -1.55022,4.85067 1.08166,4.96015 z m 3.82302,-14.07759 c 2.09179,-1.36047 3.87266,-4.0522 5.44332,-5.72943 1.30938,-1.39842 2.68152,-2.42898 4.51931,-2.98806 0.55178,-0.16787 0.17517,3.91791 0.15328,4.17336 -0.11678,1.40279 -0.32844,2.86544 1.14004,3.53837 2.37206,1.08604 4.3675,-0.71672 6.32791,-1.63635 2.51511,-1.18092 5.39223,-1.40863 8.11608,-1.70496 2.20419,-0.23939 4.27554,0.37223 6.40966,0.58827 2.11806,0.21458 3.75879,0.86854 5.41266,2.31221 4.0668,3.55151 6.74102,7.90879 9.57288,12.42081 0.72257,1.15172 2.99828,5.76299 4.51202,5.99509 0.99115,0.15181 2.59393,-1.85385 3.05228,-2.60707 1.47725,-2.43044 0.90503,-6.35419 0.41895,-8.99921 -1.29478,-7.05632 -4.54559,-12.17412 -9.6342,-17.16054 -6.08559,-5.96298 -13.29518,-8.3146 -21.76889,-6.75415 -5.12656,0.94298 -10.34654,2.7691 -14.58996,5.84036 -3.26249,2.36184 -6.18924,5.1178 -9.4926,7.40373 -1.34003,0.92839 -2.67714,1.85969 -4.05366,2.73553 -0.68753,0.43792 -4.08431,1.64803 -3.77485,2.72531 0.50507,1.75897 5.42726,0.86561 6.61402,0.57659 0.55907,-0.13576 1.09917,-0.39267 1.62175,-0.72986 z"
       id="path1558"
       style="fill:#ffffff" />
    <path
       d="m 272.43528,-141.21372 c 1.7035,-0.30509 2.08594,-4.03177 -0.20437,-2.35016 -0.94736,0.69483 -1.68744,2.69027 0.20437,2.35016 z"
       id="path1560"
       style="fill:#ffffff" />
    <path
       d="m 276.31815,-145.95345 c 1.61737,0.97071 4.29013,-3.10338 2.34286,-2.87712 -0.48317,0.0569 -2.76618,2.62458 -2.34286,2.87712 z"
       id="path1562"
       style="fill:#ffffff" />
    <path
       d="m 282.73072,-149.47431 c 1.64657,1.03348 5.37909,-2.49905 2.48008,-2.67714 -1.09772,-0.0671 -4.3821,1.48454 -2.48008,2.67714 z"
       id="path1564"
       style="fill:#ffffff" />
    <path
       d="m 286.19319,-145.81186 c -0.0934,-0.2102 4.97621,-1.84363 4.1573,-3.83178 -0.69629,-1.69182 -3.55297,0.12262 -4.20693,1.11961 -0.55907,0.84956 -0.32114,1.88305 0.0496,2.71217 z"
       id="path1566"
       style="fill:#ffffff" />
    <path
       d="m 286.19465,-141.48231 c 0.82767,-0.37661 2.93405,-1.24953 2.78078,-2.46986 -0.15619,-1.24077 -1.77649,-1.17216 -2.50781,-0.49047 -0.40434,0.37515 -0.92838,3.25811 -0.27297,2.96033 z"
       id="path1568"
       style="fill:#ffffff" />
    <path
       d="m 290.16511,-144.30104 c 0.91817,1.07144 4.44048,-1.69621 3.57049,-2.76618 -1.42615,-1.7546 -5.21706,0.84226 -3.57049,2.76618 z"
       id="path1570"
       style="fill:#ffffff" />
    <path
       d="m 299.85477,-152.40982 c -1.79984,-0.95466 -5.09444,-1.23347 -6.64759,0.32552 -1.14881,1.15318 -1.22179,3.10483 0.83204,2.97784 1.25245,-0.0803 2.54284,-0.48755 3.82156,-0.562 0.72111,-0.0409 1.4933,0.24816 2.16186,0.19123 1.83925,-0.15181 1.20427,-2.20565 -0.16787,-2.93259 z"
       id="path1572"
       style="fill:#ffffff" />
    <path
       d="m 291.24093,-155.06506 c -0.17955,-0.98678 -3.35591,1.16632 -3.56174,1.74291 -0.82912,2.31367 4.05658,0.97218 3.56174,-1.74291 z"
       id="path1574"
       style="fill:#ffffff" />
    <path
       d="m 299.81244,-155.48984 c 0.60286,-4.27116 -6.44031,0.67439 -4.86965,1.27726 2.17499,0.83204 2.99828,-0.89336 4.86965,-1.27726 z"
       id="path1576"
       style="fill:#ffffff" />
    <path
       d="m 300.57003,-147.0643 c -1.57796,-1.83488 -5.91772,0.41164 -4.02592,1.60569 0.58243,0.36785 2.55014,0.0993 3.07272,-0.36347 0.74154,-0.65833 0.82913,-2.17499 -0.50652,-1.78962"
       id="path1578"
       style="fill:#ffffff" />
    <path
       d="m 304.22373,-145.23381 c 1.35317,-0.743 -0.34304,-1.59548 -1.27434,-1.50352 -0.29633,0.0292 -1.98815,1.16195 -1.44805,1.32835 0.93422,0.28757 1.76335,0.70067 2.72239,0.17517 z"
       id="path1580"
       style="fill:#ffffff" />
    <path
       d="m 306.54761,-149.47723 c 0.86416,-0.9824 1.87137,-1.75897 0.0307,-2.36914 -0.98824,-0.32698 -2.15602,0.13284 -2.93113,0.74154 -1.44805,1.13567 -1.84364,3.20994 0.56199,3.12674 1.44951,-0.0496 1.54877,-0.59995 2.33848,-1.49914 z"
       id="path1582"
       style="fill:#ffffff" />
    <path
       d="m 302.70707,-153.94545 c 0.90357,0.34887 3.83178,0.4204 4.08432,-0.9751 0.22042,-1.21887 -1.48162,-1.5984 -2.3633,-1.56629 -1.25828,0.0438 -4.06096,1.63928 -1.72102,2.54139 z"
       id="path1584"
       style="fill:#ffffff" />
    <path
       d="m 309.87287,-154.71765 c -0.25399,0.006 -0.50069,0.0555 -0.73424,0.15765 -1.34879,0.59119 -0.56346,1.86407 0.37369,2.39395 0.66563,0.37515 2.4538,0.97364 3.24497,0.94882 1.68452,-0.0511 0.66417,-1.53709 -0.0131,-2.18521 -0.67731,-0.64373 -1.82466,-1.34148 -2.87128,-1.31521 z"
       id="path1586"
       style="fill:#ffffff" />
    <path
       d="m 309.82762,-147.97663 c 1.82757,1.5692 4.50033,-0.435 1.55023,-1.23639 -1.05976,-0.28757 -3.0844,-0.0832 -1.55023,1.23639 z"
       id="path1588"
       style="fill:#ffffff" />
    <path
       d="m 308.08033,-144.55504 c 0.53863,1.95312 3.51939,1.29478 2.42314,-0.44813 -0.67147,-1.06852 -2.91361,-1.32981 -2.42314,0.44813 z"
       id="path1590"
       style="fill:#ffffff" />
    <path
       d="m 312.09895,-145.20169 c -0.0934,2.90485 5.38493,3.29898 4.12665,0.75175 -0.5547,-1.12252 -4.04928,-3.14425 -4.12665,-0.75175 z"
       id="path1592"
       style="fill:#ffffff" />
    <path
       d="m 316.63578,-147.43362 c 6.55125,2.08741 -1.30208,-4.80541 -2.07135,-1.56482 -0.29049,1.21887 1.23785,1.29769 2.07135,1.56482 z"
       id="path1594"
       style="fill:#ffffff" />
    <path
       d="m 315.23736,-141.34364 c -2.4319,-1.46264 -1.70496,2.42461 0.0102,2.37935 1.63343,-0.0438 0.37369,-2.29177 -0.56637,-2.37935"
       id="path1596"
       style="fill:#ffffff" />
    <path
       d="m 322.23821,-142.44719 c 1.70204,-1.08458 -0.90211,-3.07856 -2.06114,-3.22746 -2.70487,-0.34887 0.20291,4.4113 2.06114,3.22746 z"
       id="path1598"
       style="fill:#ffffff" />
    <path
       d="m 320.39165,-138.42127 c 0.81307,-1.13274 -1.18383,-3.53399 -2.01442,-1.91662 -0.55031,1.0729 1.14589,3.1282 2.01442,1.91662 z"
       id="path1600"
       style="fill:#ffffff" />
    <path
       d="m 324.87155,-138.32784 c 0.87438,-0.91233 -0.59848,-3.34132 -1.80568,-2.89902 -1.50643,0.55324 0.41602,4.34998 1.80568,2.89902 z"
       id="path1602"
       style="fill:#ffffff" />
    <path
       d="m 317.01823,-135.17922 c 0.6379,2.28448 2.47569,1.32981 1.8159,-0.64519 -0.6379,-1.91517 -2.40271,-1.46557 -1.8159,0.64519 z"
       id="path1604"
       style="fill:#ffffff" />
    <path
       d="m 322.33747,-136.88855 c -1.46265,0.308 -0.83788,2.86982 0.39413,2.7472 1.48162,-0.15035 0.23647,-2.70487 -0.81161,-2.7472"
       id="path1606"
       style="fill:#ffffff" />
    <path
       d="m 320.08949,-130.34168 c 1.06852,2.12098 2.30929,-0.62477 1.35025,-1.42908 -1.04809,-0.87729 -1.79547,0.54156 -1.35025,1.42908 z"
       id="path1608"
       style="fill:#ffffff" />
    <path
       d="m 326.93415,-131.89629 c 1.06706,-0.80431 0.2788,-3.42014 -1.18676,-3.01872 -1.93852,0.53134 -0.3007,4.14271 1.18676,3.01872 z"
       id="path1610"
       style="fill:#ffffff" />
  </g>
  <g
     transform="matrix(0.62791987,0.69768875,-0.62791987,0.69768875,67.75524,-54.874638)"
     id="g4276">
    <path
       style="fill:#ffffff"
       id="path4278"
       d="m 331.18049,-138.79934 c 2.74136,2.84939 6.31477,4.48574 9.8911,6.01699 -2.58809,1.60716 -7.3176,2.95303 -8.62844,5.98196 -1.99252,4.6069 4.35145,8.07958 6.95122,10.57426 1.32543,1.27142 2.15893,2.72968 2.82019,4.41713 2.39249,6.10895 1.24952,11.1523 -4.4726,14.751988 -1.10064,0.691911 -1.62614,1.037866 -2.13558,0.01022 -0.70651,-1.429071 0.35909,-3.942718 0.009,-5.514848 -0.25254,-1.12983 -0.9605,-2.30053 -1.83488,-3.08732 -1.69182,-1.52541 -3.13987,-1.67139 -3.64785,-4.00111 -0.57514,-2.63626 -1.26997,-5.37179 -4.00695,-6.5819 -2.4611,-1.0875 -4.30765,-0.003 -5.07255,2.46547 -0.71819,2.32389 0.21896,4.92074 -0.58827,7.25046 -1.03932,2.9939 -4.00841,4.35583 -5.15721,7.262143 -0.57367,1.449508 -0.8846,5.11342 0.76052,5.981957 -5.03022,0.645199 -8.75252,-5.345517 -8.75982,-9.78601 -0.007,-4.34852 2.26404,-8.33795 4.74411,-11.76101 1.12837,-1.55461 2.04654,-2.39833 2.12536,-4.30035 0.0876,-2.07719 0.47441,-4.20255 0.40289,-6.2812 -0.0949,-2.76326 -1.45389,-3.39824 -3.37781,-5.06087 -1.21595,-1.04954 -2.40417,-2.17645 -3.69603,-3.10484 -1.92684,-1.38382 -5.01562,-1.96187 -7.34242,-2.37789 -0.99261,-0.17809 -2.30491,-0.31092 -3.28146,-0.31384 -1.51082,-0.006 -3.41284,-0.0161 -4.86527,0.11386 -0.86562,0.0774 -2.54722,1.68014 -3.26541,1.44804 2.68298,0.86708 2.94865,4.32517 2.68882,6.61548 -0.18685,1.64511 -0.24232,3.68435 2.00274,2.92383 1.44659,-0.49047 2.20711,-2.06113 3.85514,-1.98085 1.82758,0.0876 2.8815,1.90933 2.92237,3.60553 0.0336,1.36922 -0.77657,3.14133 -1.87429,3.98651 -1.3809,1.0656 -2.95594,0.28757 -4.47114,0.21166 -1.11815,-0.054 -3.28,1.30062 -2.76764,2.67422 0.38829,1.04078 2.57934,1.22325 3.5048,1.41155 1.85677,0.37953 5.05357,0.0482 4.67988,2.85231 -0.31676,2.37789 -3.61574,2.65816 -5.46375,2.42898 -3.19096,-0.39704 -4.69594,-2.18813 -5.83161,-5.14699 -0.73424,-1.91662 -0.14159,-3.77485 -0.88021,-5.6652 -0.79847,-2.04507 -1.88013,-4.6901 -3.66829,-6.03597 -1.58526,-1.19113 -2.69612,-0.0146 -2.32972,1.71664 0.19998,0.94298 0.85686,1.46703 1.3809,2.21003 0.85686,1.21741 1.4568,2.57203 2.06259,3.92374 1.60424,3.58801 1.94144,7.81099 1.30353,11.66175 -0.39266,2.37206 -1.76334,7.705897 -4.9616,7.646048 -1.34295,-0.02627 -1.75167,-1.681608 -1.68745,-2.887338 0.0803,-1.48746 1.39988,-2.16769 1.82904,-3.49459 0.58973,-1.82465 0.39996,-3.65807 0.55032,-5.52798 0.11531,-1.42615 1.09625,-3.82594 0.12845,-5.13969 -0.80869,-1.09772 -1.78086,-0.61747 -2.53554,0.3839 -1.62176,2.14872 -1.1707,5.57032 -1.65679,8.07667 -0.35034,1.81006 -0.56346,3.68727 -0.99845,5.47105 -0.5547,2.28155 -1.91662,5.003944 -4.01571,6.249091 -2.44796,1.453887 -5.92065,1.38236 -6.66219,-1.818819 -0.29632,-1.27726 0.10364,-2.395412 0.98824,-3.328182 0.59994,-0.63498 1.83779,-0.85685 1.58234,-1.94289 -2.62605,0.71818 -4.46238,-2.14434 -3.22454,-4.58938 0.66564,-1.31521 3.02602,-1.52249 2.67714,-3.43327 -2.94135,-1.19844 -2.67568,-3.09024 -1.64219,-5.62141 0.75176,-1.83488 0.76052,-1.61884 -0.95466,-2.15456 -1.36485,-0.42624 -2.82603,-1.20719 -3.80697,-2.25235 -1.19551,-1.27434 -2.31366,-2.61583 -3.01579,-4.23613 -0.8408,-1.93997 -1.05246,-4.03322 -0.86562,-6.12501 0.0745,-0.82912 1.4028,-4.9076 0.92985,-5.3966 -0.39559,-0.40873 -2.76034,0.3912 -3.5194,0.15181 -0.61893,-0.19415 -3.58655,-2.93259 -3.83032,-2.82165 1.73561,-0.79263 3.35883,-2.03778 5.27253,-2.37352 1.78962,-0.31238 3.61428,0.60579 5.37325,0.15473 4.42005,-1.12545 2.9939,-6.6111 3.30482,-9.91154 0.38829,-4.14124 0.37953,-8.42116 1.14004,-12.50693 0.23648,-1.26704 1.48455,-6.24617 3.47561,-4.23758 0.6233,0.62768 0.50507,2.6494 0.53718,3.5121 0.0701,1.87137 0.0219,4.0303 0.67585,5.80825 1.16341,3.15884 4.0741,2.70779 6.30748,0.91233 2.16915,-1.74438 3.41284,-4.73681 3.84492,-7.44169 0.38683,-2.4173 0.59995,-5.64038 2.67422,-7.35556 0.99115,-0.8189 2.11222,-0.54301 3.21431,-0.12845 -0.32114,2.46547 -0.48463,6.30455 1.26559,8.40072 1.17362,1.40572 3.72668,2.4392 5.56593,2.21295 1.91662,-0.23648 3.19534,-2.0699 4.2697,-3.49021 2.16331,-2.85814 3.58801,-5.43018 6.81984,-7.36578 1.07874,-0.64666 4.47844,-1.50497 4.2551,1.12691 -0.0584,0.68461 -1.90932,2.1166 -2.18229,3.08002 -2.08157,7.32637 6.13523,6.45491 10.58739,5.4769 2.26696,-0.49777 5.62871,-2.90194 7.97157,-2.53555 0.27151,0.0423 -2.01005,4.31495 -2.18521,4.63171 -0.98386,1.79255 -1.5911,3.31066 -1.28018,5.36304 0.65541,4.33684 4.25948,4.77476 7.98324,5.19224 -1.39842,4.41713 -2.41293,9.10139 1.11523,12.76968 z m -62.13178,13.27037 c 3.99965,0.16057 2.3341,-7.18185 -1.08166,-4.96015 -2.19834,1.43054 -1.55022,4.85067 1.08166,4.96015 z m 3.82302,-14.07759 c 2.09179,-1.36047 3.87266,-4.0522 5.44332,-5.72943 1.30938,-1.39842 2.68152,-2.42898 4.51931,-2.98806 0.55178,-0.16787 0.17517,3.91791 0.15328,4.17336 -0.11678,1.40279 -0.32844,2.86544 1.14004,3.53837 2.37206,1.08604 4.3675,-0.71672 6.32791,-1.63635 2.51511,-1.18092 5.39223,-1.40863 8.11608,-1.70496 2.20419,-0.23939 4.27554,0.37223 6.40966,0.58827 2.11806,0.21458 3.75879,0.86854 5.41266,2.31221 4.0668,3.55151 6.74102,7.90879 9.57288,12.42081 0.72257,1.15172 2.99828,5.76299 4.51202,5.99509 0.99115,0.15181 2.59393,-1.85385 3.05228,-2.60707 1.47725,-2.43044 0.90503,-6.35419 0.41895,-8.99921 -1.29478,-7.05632 -4.54559,-12.17412 -9.6342,-17.16054 -6.08559,-5.96298 -13.29518,-8.3146 -21.76889,-6.75415 -5.12656,0.94298 -10.34654,2.7691 -14.58996,5.84036 -3.26249,2.36184 -6.18924,5.1178 -9.4926,7.40373 -1.34003,0.92839 -2.67714,1.85969 -4.05366,2.73553 -0.68753,0.43792 -4.08431,1.64803 -3.77485,2.72531 0.50507,1.75897 5.42726,0.86561 6.61402,0.57659 0.55907,-0.13576 1.09917,-0.39267 1.62175,-0.72986 z" />
    <path
       style="fill:#ffffff"
       id="path4280"
       d="m 272.43528,-141.21372 c 1.7035,-0.30509 2.08594,-4.03177 -0.20437,-2.35016 -0.94736,0.69483 -1.68744,2.69027 0.20437,2.35016 z" />
    <path
       style="fill:#ffffff"
       id="path4282"
       d="m 276.31815,-145.95345 c 1.61737,0.97071 4.29013,-3.10338 2.34286,-2.87712 -0.48317,0.0569 -2.76618,2.62458 -2.34286,2.87712 z" />
    <path
       style="fill:#ffffff"
       id="path4284"
       d="m 282.73072,-149.47431 c 1.64657,1.03348 5.37909,-2.49905 2.48008,-2.67714 -1.09772,-0.0671 -4.3821,1.48454 -2.48008,2.67714 z" />
    <path
       style="fill:#ffffff"
       id="path4286"
       d="m 286.19319,-145.81186 c -0.0934,-0.2102 4.97621,-1.84363 4.1573,-3.83178 -0.69629,-1.69182 -3.55297,0.12262 -4.20693,1.11961 -0.55907,0.84956 -0.32114,1.88305 0.0496,2.71217 z" />
    <path
       style="fill:#ffffff"
       id="path4288"
       d="m 286.19465,-141.48231 c 0.82767,-0.37661 2.93405,-1.24953 2.78078,-2.46986 -0.15619,-1.24077 -1.77649,-1.17216 -2.50781,-0.49047 -0.40434,0.37515 -0.92838,3.25811 -0.27297,2.96033 z" />
    <path
       style="fill:#ffffff"
       id="path4290"
       d="m 290.16511,-144.30104 c 0.91817,1.07144 4.44048,-1.69621 3.57049,-2.76618 -1.42615,-1.7546 -5.21706,0.84226 -3.57049,2.76618 z" />
    <path
       style="fill:#ffffff"
       id="path4292"
       d="m 299.85477,-152.40982 c -1.79984,-0.95466 -5.09444,-1.23347 -6.64759,0.32552 -1.14881,1.15318 -1.22179,3.10483 0.83204,2.97784 1.25245,-0.0803 2.54284,-0.48755 3.82156,-0.562 0.72111,-0.0409 1.4933,0.24816 2.16186,0.19123 1.83925,-0.15181 1.20427,-2.20565 -0.16787,-2.93259 z" />
    <path
       style="fill:#ffffff"
       id="path4294"
       d="m 291.24093,-155.06506 c -0.17955,-0.98678 -3.35591,1.16632 -3.56174,1.74291 -0.82912,2.31367 4.05658,0.97218 3.56174,-1.74291 z" />
    <path
       style="fill:#ffffff"
       id="path4296"
       d="m 299.81244,-155.48984 c 0.60286,-4.27116 -6.44031,0.67439 -4.86965,1.27726 2.17499,0.83204 2.99828,-0.89336 4.86965,-1.27726 z" />
    <path
       style="fill:#ffffff"
       id="path4298"
       d="m 300.57003,-147.0643 c -1.57796,-1.83488 -5.91772,0.41164 -4.02592,1.60569 0.58243,0.36785 2.55014,0.0993 3.07272,-0.36347 0.74154,-0.65833 0.82913,-2.17499 -0.50652,-1.78962" />
    <path
       style="fill:#ffffff"
       id="path4300"
       d="m 304.22373,-145.23381 c 1.35317,-0.743 -0.34304,-1.59548 -1.27434,-1.50352 -0.29633,0.0292 -1.98815,1.16195 -1.44805,1.32835 0.93422,0.28757 1.76335,0.70067 2.72239,0.17517 z" />
    <path
       style="fill:#ffffff"
       id="path4302"
       d="m 306.54761,-149.47723 c 0.86416,-0.9824 1.87137,-1.75897 0.0307,-2.36914 -0.98824,-0.32698 -2.15602,0.13284 -2.93113,0.74154 -1.44805,1.13567 -1.84364,3.20994 0.56199,3.12674 1.44951,-0.0496 1.54877,-0.59995 2.33848,-1.49914 z" />
    <path
       style="fill:#ffffff"
       id="path4304"
       d="m 302.70707,-153.94545 c 0.90357,0.34887 3.83178,0.4204 4.08432,-0.9751 0.22042,-1.21887 -1.48162,-1.5984 -2.3633,-1.56629 -1.25828,0.0438 -4.06096,1.63928 -1.72102,2.54139 z" />
    <path
       style="fill:#ffffff"
       id="path4306"
       d="m 309.87287,-154.71765 c -0.25399,0.006 -0.50069,0.0555 -0.73424,0.15765 -1.34879,0.59119 -0.56346,1.86407 0.37369,2.39395 0.66563,0.37515 2.4538,0.97364 3.24497,0.94882 1.68452,-0.0511 0.66417,-1.53709 -0.0131,-2.18521 -0.67731,-0.64373 -1.82466,-1.34148 -2.87128,-1.31521 z" />
    <path
       style="fill:#ffffff"
       id="path4308"
       d="m 309.82762,-147.97663 c 1.82757,1.5692 4.50033,-0.435 1.55023,-1.23639 -1.05976,-0.28757 -3.0844,-0.0832 -1.55023,1.23639 z" />
    <path
       style="fill:#ffffff"
       id="path4310"
       d="m 308.08033,-144.55504 c 0.53863,1.95312 3.51939,1.29478 2.42314,-0.44813 -0.67147,-1.06852 -2.91361,-1.32981 -2.42314,0.44813 z" />
    <path
       style="fill:#ffffff"
       id="path4312"
       d="m 312.09895,-145.20169 c -0.0934,2.90485 5.38493,3.29898 4.12665,0.75175 -0.5547,-1.12252 -4.04928,-3.14425 -4.12665,-0.75175 z" />
    <path
       style="fill:#ffffff"
       id="path4314"
       d="m 316.63578,-147.43362 c 6.55125,2.08741 -1.30208,-4.80541 -2.07135,-1.56482 -0.29049,1.21887 1.23785,1.29769 2.07135,1.56482 z" />
    <path
       style="fill:#ffffff"
       id="path4316"
       d="m 315.23736,-141.34364 c -2.4319,-1.46264 -1.70496,2.42461 0.0102,2.37935 1.63343,-0.0438 0.37369,-2.29177 -0.56637,-2.37935" />
    <path
       style="fill:#ffffff"
       id="path4318"
       d="m 322.23821,-142.44719 c 1.70204,-1.08458 -0.90211,-3.07856 -2.06114,-3.22746 -2.70487,-0.34887 0.20291,4.4113 2.06114,3.22746 z" />
    <path
       style="fill:#ffffff"
       id="path4320"
       d="m 320.39165,-138.42127 c 0.81307,-1.13274 -1.18383,-3.53399 -2.01442,-1.91662 -0.55031,1.0729 1.14589,3.1282 2.01442,1.91662 z" />
    <path
       style="fill:#ffffff"
       id="path4322"
       d="m 324.87155,-138.32784 c 0.87438,-0.91233 -0.59848,-3.34132 -1.80568,-2.89902 -1.50643,0.55324 0.41602,4.34998 1.80568,2.89902 z" />
    <path
       style="fill:#ffffff"
       id="path4324"
       d="m 317.01823,-135.17922 c 0.6379,2.28448 2.47569,1.32981 1.8159,-0.64519 -0.6379,-1.91517 -2.40271,-1.46557 -1.8159,0.64519 z" />
    <path
       style="fill:#ffffff"
       id="path4326"
       d="m 322.33747,-136.88855 c -1.46265,0.308 -0.83788,2.86982 0.39413,2.7472 1.48162,-0.15035 0.23647,-2.70487 -0.81161,-2.7472" />
    <path
       style="fill:#ffffff"
       id="path4328"
       d="m 320.08949,-130.34168 c 1.06852,2.12098 2.30929,-0.62477 1.35025,-1.42908 -1.04809,-0.87729 -1.79547,0.54156 -1.35025,1.42908 z" />
    <path
       style="fill:#ffffff"
       id="path4330"
       d="m 326.93415,-131.89629 c 1.06706,-0.80431 0.2788,-3.42014 -1.18676,-3.01872 -1.93852,0.53134 -0.3007,4.14271 1.18676,3.01872 z" />
  </g>
</svg>
