<?xml version="1.0" encoding="UTF-8" standalone="no"?>
<svg
   xmlns:dc="http://purl.org/dc/elements/1.1/"
   xmlns:cc="http://creativecommons.org/ns#"
   xmlns:rdf="http://www.w3.org/1999/02/22-rdf-syntax-ns#"
   xmlns:svg="http://www.w3.org/2000/svg"
   xmlns="http://www.w3.org/2000/svg"
   xmlns:sodipodi="http://sodipodi.sourceforge.net/DTD/sodipodi-0.dtd"
   xmlns:inkscape="http://www.inkscape.org/namespaces/inkscape"
   version="1.1"
   width="900"
   height="600"
   id="Flag of Maldives"
   inkscape:version="0.47 r22583"
   sodipodi:docname="Flag_of_Maldives.svg">
  <metadata
     id="metadata2869">
    <rdf:RDF>
      <cc:Work
         rdf:about="">
        <dc:format>image/svg+xml</dc:format>
        <dc:type
           rdf:resource="http://purl.org/dc/dcmitype/StillImage" />
      </cc:Work>
    </rdf:RDF>
  </metadata>
  <defs
     id="defs2867">
    <inkscape:perspective
       sodipodi:type="inkscape:persp3d"
       inkscape:vp_x="0 : 240 : 1"
       inkscape:vp_y="0 : 1000 : 0"
       inkscape:vp_z="720 : 240 : 1"
       inkscape:persp3d-origin="360 : 160 : 1"
       id="perspective2871" />
  </defs>
  <sodipodi:namedview
     pagecolor="#ffffff"
     bordercolor="#666666"
     borderopacity="1"
     objecttolerance="10"
     gridtolerance="10"
     guidetolerance="10"
     inkscape:pageopacity="0"
     inkscape:pageshadow="2"
     inkscape:window-width="948"
     inkscape:window-height="862"
     id="namedview2865"
     showgrid="false"
     inkscape:zoom="0.52291667"
     inkscape:cx="360"
     inkscape:cy="240"
     inkscape:window-x="0"
     inkscape:window-y="0"
     inkscape:window-maximized="0"
     inkscape:current-layer="Flag of Maldives" />
  <rect
     width="900"
     height="600"
     id="red background"
     x="0"
     y="0"
     style="fill:#d21034" />
  <g
     id="g2860"
     style="fill:#007e3a"
     transform="scale(1.25,1.25)">
    <rect
       width="480"
       height="240"
       x="120"
       y="120"
       id="green field" />
    <circle
       cx="390"
       cy="240"
       r="80"
       id="white crescent arc"
       sodipodi:cx="390"
       sodipodi:cy="240"
       sodipodi:rx="80"
       sodipodi:ry="80"
       style="fill:#ffffff"
       d="m 470,240 c 0,44.18278 -35.81722,80 -80,80 -44.18278,0 -80,-35.81722 -80,-80 0,-44.18278 35.81722,-80 80,-80 44.18278,0 80,35.81722 80,80 z" />
    <circle
       cx="420"
       cy="240"
       r="80"
       id="green crescent arc"
       sodipodi:cx="420"
       sodipodi:cy="240"
       sodipodi:rx="80"
       sodipodi:ry="80"
       d="m 500,240 c 0,44.18278 -35.81722,80 -80,80 -44.18278,0 -80,-35.81722 -80,-80 0,-44.18278 35.81722,-80 80,-80 44.18278,0 80,35.81722 80,80 z" />
  </g>
</svg>
