<?xml version="1.0" encoding="UTF-8" standalone="no"?>
<svg
   xmlns:svg="http://www.w3.org/2000/svg"
   xmlns="http://www.w3.org/2000/svg"
   xmlns:xlink="http://www.w3.org/1999/xlink"
   version="1.1"
   width="900"
   height="600"
   id="svg2">
  <rect
     width="900"
     height="600"
     x="0"
     y="0"
     id="rect3936"
     style="fill:#de2910" />
  <g
     id="petal">
    <path
       d="m 449.96406,299.9134 c -105.26305,-44.48626 -58.60174,-181.58185 42.06956,-174.6907 -20.36609,10.46694 -23.31775,29.99772 -11.68704,48.09021 13.02444,20.2558 -1.19897,52.84856 -18.80577,60.7674 -28.93485,13.02443 -34.72791,47.74999 -11.57675,65.83309 z"
       id="path3961"
       style="fill:#fff" />
    <path
       d="m 444.27188,200.91974 -5.91976,9.29378 -2.14454,-10.8142 -10.67812,-2.75928 9.62461,-5.3895 -0.67104,-10.99955 8.08542,7.48945 10.25578,-4.04271 -4.61053,10.00942 7.00143,8.50541 z"
       id="path3963"
       style="fill:#de2910" />
    <path
       d="m 450.56002,298.75902 c -12.73114,-6.53451 -22.9963,-20.15491 -27.46839,-36.43134 -5.11498,-18.66969 -2.17269,-38.74247 8.08308,-55.03768 l -2.20789,-1.39371 c -10.64057,16.92871 -13.69313,37.74293 -8.38575,57.11886 4.72784,17.22201 15.21355,31.09815 28.78703,38.06438 z"
       id="path3965"
       style="fill:#de2910" />
  </g>
  <use
     transform="matrix(-0.809017,-0.58778525,0.58778525,-0.809017,637.70988,807.33155)"
     id="use3967"
     x="0"
     y="0"
     width="900"
     height="600"
     xlink:href="#petal" />
  <use
     transform="matrix(-0.80901699,0.58778526,-0.58778526,-0.80901699,990.3791,278.06866)"
     id="use3969"
     x="0"
     y="0"
     width="900"
     height="600"
     xlink:href="#petal" />
  <use
     transform="matrix(0.30901699,0.95105652,-0.95105652,0.30901699,596.79675,-220.70502)"
     id="use3971"
     x="0"
     y="0"
     width="900"
     height="600"
     xlink:href="#petal" />
  <use
     transform="matrix(0.30901699,-0.95105652,0.95105652,0.30901699,25.219923,635.18378)"
     id="use3975"
     x="0"
     y="0"
     width="900"
     height="600"
     xlink:href="#petal" />
</svg>