<?xml version="1.0" encoding="UTF-8" standalone="no"?>
<!-- Created with Inkscape (http://www.inkscape.org/) -->

<svg
   xmlns:dc="http://purl.org/dc/elements/1.1/"
   xmlns:cc="http://creativecommons.org/ns#"
   xmlns:rdf="http://www.w3.org/1999/02/22-rdf-syntax-ns#"
   xmlns:svg="http://www.w3.org/2000/svg"
   xmlns="http://www.w3.org/2000/svg"
   xmlns:sodipodi="http://sodipodi.sourceforge.net/DTD/sodipodi-0.dtd"
   xmlns:inkscape="http://www.inkscape.org/namespaces/inkscape"
   version="1.0"
   width="900"
   height="600"
   id="svg2"
   xml:space="preserve"
   style="fill-rule:evenodd"
   inkscape:version="0.47 r22583"
   sodipodi:docname="Flag_of_Brunei.svg"><metadata
     id="metadata3673"><rdf:RDF><cc:Work
         rdf:about=""><dc:format>image/svg+xml</dc:format><dc:type
           rdf:resource="http://purl.org/dc/dcmitype/StillImage" /></cc:Work></rdf:RDF></metadata><sodipodi:namedview
     pagecolor="#ffffff"
     bordercolor="#666666"
     borderopacity="1"
     objecttolerance="10"
     gridtolerance="10"
     guidetolerance="10"
     inkscape:pageopacity="0"
     inkscape:pageshadow="2"
     inkscape:window-width="972"
     inkscape:window-height="832"
     id="namedview3671"
     showgrid="false"
     inkscape:zoom="0.34861111"
     inkscape:cx="720"
     inkscape:cy="360"
     inkscape:window-x="0"
     inkscape:window-y="0"
     inkscape:window-maximized="0"
     inkscape:current-layer="svg2" /><defs
     id="defs4"><inkscape:perspective
   sodipodi:type="inkscape:persp3d"
   inkscape:vp_x="0 : 360 : 1"
   inkscape:vp_y="0 : 1000 : 0"
   inkscape:vp_z="1440 : 360 : 1"
   inkscape:persp3d-origin="720 : 240 : 1"
   id="perspective3675" />
  <style
   type="text/css"
   id="style6" />
 
  
  
  
  
  
 
   
   
   
   
   
   
   
   
   
   
   
   
   
   
   
   
   
   
   
   
   
   
   
   
   
   
   
   
   
   
   
   
   
   
   
   
   
   
   
   
   
   
   
   
   
   
   
   
  
    
    
    
    
    
    
    
    
    
   
    
    
    
    
    
    
    
    
    
   
    
    
    
    
    
    
    
    
    
    
    
    
    
    
    
    
    
    
    
   </defs><rect
     width="899.58087"
     height="599.8136"
     x="0.20955206"
     y="0.093206592"
     id="rect2533"
     style="fill:#f7e017;fill-rule:nonzero" /><polygon
     points="0,550 0,125.001 0,125.001 3600,875 3600,1300 "
     transform="matrix(0.24988358,0,0,0.33322977,0.20955207,0.09320659)"
     id="path2535"
     style="fill:#ffffff" /><polygon
     points="0,925 0,550 0,550 3600,1300 3600,1675 "
     transform="matrix(0.24988358,0,0,0.33322977,0.20955207,0.09320659)"
     id="path3422"
     style="fill:#000000" /><rect
     width="8.0947227"
     height="28.827864"
     x="445.54712"
     y="249.83649"
     id="rect694"
     style="fill:#cf1126;stroke:#000000;stroke-width:2.00051713" /><path
     d="m 461.74625,325.92787 c -0.0933,-19.7899 0.43543,-38.82098 1.4563,-44.21936 1.02114,-5.39892 2.5353,-6.52092 4.41463,-9.20189 -4.45182,-0.61531 -9.36508,5.09778 -11.62376,12.62138 -1.43355,-8.48852 -4.1141,-14.24139 -6.47289,-17.13061 -2.35845,2.88922 -5.13968,8.73025 -6.40674,17.2054 -2.32395,-6.3154 -6.40173,-13.3174 -11.22495,-12.53084 1.7149,2.72387 3.27954,3.73327 4.32253,9.01173 1.04268,5.27886 1.56375,24.18181 1.18913,43.98204 m 24.34572,0.26218 0,0 0,0 z"
     id="path611"
     style="fill:#cf1126;stroke:#000000;stroke-width:2.00051713" /><path
     d="m 462.4686,375.45095 c -0.10155,-23.74992 0.57743,-44.0257 1.55048,-50.46969 0.9736,-6.44297 2.52703,-7.64607 4.74704,-10.43373 -4.85422,-0.73815 -9.47964,1.24207 -12.18705,12.28006 -1.51476,-10.26009 -4.48607,-15.3 -7.05829,-18.76712 -2.57161,3.46715 -5.60496,8.68498 -6.98625,18.85612 -2.97401,-10.94903 -7.12765,-13.40167 -12.3869,-12.45762 2.18664,3.05377 3.90538,4.19388 4.97554,10.51088 1.07043,6.31778 1.20565,26.40336 0.79706,50.16705 m 26.54825,0.31415 0,0 0,0 z"
     id="path610"
     style="fill:#cf1126;stroke:#000000;stroke-width:2.00051713" /><path
     d="m 467.38758,388.60693 c -0.16531,-5.52767 0.40297,-12.95089 1.3444,-15.81924 0.94203,-2.86955 2.25603,-4.96471 3.58183,-7.39648 -5.68612,-1.09404 -11.4682,-0.5358 -14.53814,10.59119 -1.98886,-10.17151 -4.97169,-15.47873 -8.20667,-18.94588 -3.23466,3.46715 -6.04362,8.77434 -8.03219,18.94588 -3.06993,-11.12699 -8.88033,-11.80136 -14.74064,-10.59119 1.32553,2.43177 2.69086,4.52693 3.68308,7.39648 0.99192,2.86835 1.6113,10.2916 1.44538,15.81924 m 35.4629,0 0,0 0,0 z"
     id="path609"
     style="fill:#cf1126;stroke:#000000;stroke-width:2.00051713" /><polygon
     points="1786.28,581.594 1786.28,649.972 1810.4,649.972 1810.4,581.594 1786.28,581.594 "
     transform="matrix(0.24994818,0,0,0.33331591,0.09441827,-0.03279591)"
     id="path689"
     style="fill:#cf1126;stroke:#000000;stroke-width:6.93089342" /><path
     d="m 488.43572,474.92576 c 1.49202,1.33023 7.44323,2.72427 18.23037,0.21929 18.8329,-4.40134 18.67556,-29.18784 48.00905,-17.68924 -1.3258,-3.53802 -5.96599,-14.37128 -17.40141,-14.80986 1.16018,-5.08753 1.98886,-12.60248 -0.16532,-17.25107 -2.20997,6.5595 -5.63091,9.60893 -8.1119,11.75293 -0.76401,-0.55154 -5.19694,-5.38436 -5.67727,-12.66588 -0.66631,-14.43428 -5.94532,-16.98178 -6.50623,-16.59953 -3.38847,-0.12756 -23.79517,42.91476 -67.49276,43.19774 -43.05583,0.27596 -64.60436,-42.81543 -67.03511,-43.19774 -0.5606,-0.38228 -5.83964,2.16522 -6.50592,16.59953 -0.4806,7.28152 -4.96523,11.90175 -5.71889,12.54581 -2.47036,-2.05226 -5.86089,-5.07336 -8.07028,-11.63286 -2.15448,4.64859 -1.3261,12.16354 -0.16562,17.25107 -11.43513,0.43854 -16.07559,11.27184 -17.40142,14.80986 29.33368,-11.4986 29.39241,13.28787 48.22526,17.68924 10.78744,2.50498 16.37938,1.33023 17.8714,0.007 m 77.91635,-0.22636 0,0 0,0 z"
     id="path660"
     style="fill:#cf1126;fill-opacity:1;stroke:#000000;stroke-width:2.00051713" /><path
     d="m 397.42708,462.55974 c -10.21678,-0.54524 -30.1475,-21.27762 -27.31884,-25.54433 0.89774,-1.20937 5.28876,0.0354 12.89083,7.13269 11.28281,10.2601 20.96288,42.61078 66.22453,42.3628 46.12694,-0.24763 55.59148,-32.10267 66.87414,-42.3628 7.60207,-7.09726 12.34526,-8.2291 12.88021,-6.84217 2.71538,4.08956 -17.23491,24.77234 -27.45131,25.31717 m -104.09944,-0.0634 0,0 0,0 z"
     id="path661"
     style="fill:#cf1126;fill-opacity:1;stroke:#000000;stroke-width:2.00051713" /><path
     d="m 383.43748,253.25766 c -40.36189,56.73771 -18.64988,187.05558 65.23773,188.93748 84.33952,1.26057 108.94467,-130.3822 67.03761,-189.1888 m -124.10278,2.19555 c -21.47243,48.24148 0.85052,132.77408 58.27167,132.77408 57.8935,0 79.11285,-85.14256 57.84926,-133.05772 m -116.12118,0.28344 0,0 0,0 z"
     id="path590"
     style="fill:#cf1126;stroke:#000000;stroke-width:2.00051713" /><path
     d="m 464.58067,458.83327 c 2.93444,0.86966 5.61203,4.91234 4.5336,9.06763 -1.1971,4.95368 -5.61733,6.15754 -7.28766,5.79576 -1.79728,-1.43849 -0.71972,-3.51518 4.79103,-4.31514 3.59306,-1.75777 0.32061,-4.99974 -2.39565,-6.55242 -1.47637,-0.84446 -1.01939,-4.40451 0.35868,-3.99586 l 0,3e-5 z"
     id="path596"
     style="fill:#f7e017;stroke:#f7e017;stroke-width:0.28007242" /><path
     d="m 455.47755,457.55334 c 1.36449,-2.07116 2.47301,4.27694 2.7765,8.67868 0.39737,4.29701 0.43898,9.59793 -0.85967,9.86052 -0.79177,0.17676 -0.12722,-4.93478 -0.94528,-9.6247 -1.06808,-5.42965 -1.52891,-8.00352 -0.97155,-8.9145 l 0,0 z"
     id="path597"
     style="fill:#f7e017;stroke:#f7e017;stroke-width:0.28007242" /><path
     d="m 452.3457,465.38626 c 3.42596,4.42931 -2.37766,17.26091 -15.07423,11.66709 -0.71885,-1.75737 5.04226,-0.0189 9.10294,-0.95862 7.72753,-1.62784 4.41199,-12.67373 5.97131,-10.7085 l -2e-5,3e-5 z"
     id="path598"
     style="fill:#f7e017;stroke:#f7e017;stroke-width:0.28007242" /><path
     d="m 446.13449,456.59339 c 1.36537,-2.07076 0.56975,4.48519 0.85435,8.8893 0.27809,4.13836 -0.0688,9.17512 -1.54073,8.52356 -0.79706,-0.51337 0.50954,-5.16117 -0.30879,-9.5306 -0.87649,-5.49106 -0.0404,-6.4918 0.99517,-7.88226 l 0,0 z"
     id="path599"
     style="fill:#f7e017;stroke:#f7e017;stroke-width:0.28007242" /><path
     d="m 437.41629,454.83682 c 2.42223,-0.0209 1.77306,0.88655 1.60065,9.52036 -0.18921,9.67626 -6.31435,10.75928 -7.77004,8.10432 -1.22335,-2.08296 -0.77464,-2.70929 -6.24851,-2.0117 -1.22454,-0.82319 -1.1776,-2.5735 -5.17658,-2.12549 -1.03413,0.25432 -0.99986,-2.36208 -2.86535,-3.9258 -3.25238,-2.59276 -4.33493,1.91134 -10.53679,-2.85534 -0.38732,-0.28899 -2.90403,-2.41645 -2.44407,-6.6221 0.47942,-5.31429 -3.15347,0.64918 -7.14537,-1.6696 -0.77229,-0.46062 -3.11186,-1.75898 -5.176,-4.17579 -2.91407,-3.34273 0.13727,-4.01869 4.07425,-0.611 2.4308,2.05699 6.00111,-2.67506 6.09767,-7.41065 0.21758,-5.01194 -1.65144,-6.32996 1.24551,-6.20558 1.61542,0.0638 1.23132,8.75702 -1.51356,12.60449 -3.67337,5.29735 -1.19475,4.27537 0.11747,4.00922 1.36805,-0.45664 7.59143,-10.74471 8.62854,-9.86129 1.61659,1.46489 -4.85154,8.04212 -3.40322,14.26816 0.69168,2.77545 4.54719,5.43434 7.72133,5.86426 3.7321,0.82908 3.74302,-5.93199 5.25541,-4.65133 2.09306,1.83261 -4.00015,5.28279 2.39773,7.79919 1.4129,0.56534 2.22916,-4.23561 3.06551,-4.02695 2.00716,0.43701 -1.31223,5.6064 2.277,6.428 2.50223,0.5555 1.81675,-4.82732 3.3684,-4.49937 1.79491,-0.15312 0.10981,8.60979 5.08625,7.71574 2.09779,-0.36612 -1.1838,-15.64289 1.34382,-15.66179 l -5e-5,4e-5 z"
     id="path600"
     style="fill:#f7e017;stroke:#f7e017;stroke-width:0.28007242" /><path
     d="m 392.31314,443.45741 c 1.44122,-0.41061 3.91072,-2.19636 4.01374,-5.08004 0.20576,-3.1577 -3.08736,-4.25647 -6.99805,-3.43249 -2.05795,0.41178 -5.55592,-1.37315 -7.61477,-3.70767 -2.05795,-3.43248 -2.05795,-7.27561 -4.52771,-5.62884 -1.85189,1.09758 2.57279,7.41378 4.73347,8.92474 2.16185,1.51096 5.66073,1.37356 5.86561,3.56951 0.20606,2.19712 -0.82336,5.62924 4.52771,5.35486 l 0,-7e-5 z"
     id="path601"
     style="fill:#f7e017;stroke:#f7e017;stroke-width:0.28007242" /><path
     d="m 479.88749,458.19997 c -0.79471,0.51337 -1.43918,10.10774 3.05104,10.31443 5.64096,0.26889 8.47737,-3.54745 9.89028,-4.90368 2.34697,-2.37981 6.57619,-7.13585 4.61862,-11.23641 -0.97983,-1.48889 -1.52036,2.73962 -2.65015,5.21389 -1.53689,3.62815 -6.79849,7.93385 -10.82846,7.34765 -4.93657,-0.4051 -3.07643,-7.07916 -4.08133,-6.73588 l 0,0 z"
     id="path604"
     style="fill:#f7e017;stroke:#f7e017;stroke-width:0.28007242" /><path
     d="m 491.48009,453.75687 c -1.14749,-1.15781 2.55212,-3.05261 2.93501,-4.84425 0.3835,-1.79124 -1.6346,-3.47935 -0.51219,-5.44185 1.17674,-2.58413 1.24049,4.87101 2.73606,5.08517 4.14127,0.57597 1.1847,4.14428 -0.37757,3.45532 -1.76776,-0.7035 -4.08843,2.6164 -4.78128,1.74558 l -3e-5,3e-5 z"
     id="path605"
     style="fill:#f7e017;stroke:#f7e017;stroke-width:0.28007242" /><path
     d="m 488.27575,442.4608 c -0.26627,2.48883 0.86617,3.11046 1.20006,1.68927 0.39941,-2.6672 -0.73421,-3.91159 -1.20006,-1.68927 z"
     id="path606"
     style="fill:#f7e017;stroke:#f7e017;stroke-width:0.28007242" /><path
     d="m 491.27513,439.88426 c -0.66628,0.0697 -0.75959,3.15731 0.10836,3.24273 0.9364,0.0988 0.50392,2.20582 1.29038,2.17826 0.93553,-0.0327 1.00696,-3.53486 -0.0514,-3.56715 -0.98425,-0.0327 -0.75222,-1.83967 -1.34738,-1.85384 l 0,0 z"
     id="path607"
     style="fill:#f7e017;stroke:#f7e017;stroke-width:0.28007242" /><path
     d="m 498.76608,439.29096 c -0.79206,1.33693 -2.2953,-5.1521 2.7632,-6.08118 2.40453,0.28304 4.45508,5.56664 4.24312,10.66124 -0.0803,1.88454 -0.14082,6.13315 -0.91841,8.209 -0.63766,1.9818 -2.97103,8.49286 -4.10199,7.92676 -1.13157,-0.5673 0.29578,-3.29393 2.19226,-7.0776 1.53334,-3.09827 2.12199,-11.69979 1.34353,-13.20954 -0.77849,-1.50936 -1.56141,3.7746 -3.18212,4.90721 -1.34885,0.94285 -2.7576,-1.78575 -2.96956,-3.10574 -0.16829,-1.56645 0.90069,-2.5302 1.62514,-0.66886 0.57775,1.39835 2.35404,-1.3771 2.31272,-3.35967 0.0469,-3.20693 -1.54723,-0.66413 -3.30789,1.79834 l 0,4e-5 z"
     id="path608"
     style="fill:#f7e017;stroke:#f7e017;stroke-width:0.28007242" /><path
     d="m 509.66132,424.81171 c -0.63619,1.22791 -2.82786,3.96396 -3.25207,5.0966 -0.42452,1.13224 -0.49595,3.11284 0.21107,5.00014 0.70794,1.88691 2.19255,4.90605 1.91003,7.6429 -0.28368,2.73569 -1.69777,8.39643 -0.91928,7.92559 0.77729,-0.47241 2.68705,-6.03905 2.26251,-10.2857 -0.42452,-4.24544 -1.90943,-6.60399 -1.62691,-8.01965 0.28251,-1.41449 2.05055,-4.05609 2.40422,-5.84889 0.35425,-1.79361 -0.21198,-6.60515 -0.70705,-6.9823 -0.49478,-0.37715 -2.26251,0.47241 -1.69717,2.07549 0.5662,1.60461 1.76803,0.6606 1.41465,3.39589 l 0,-7e-5 z"
     id="path614"
     style="fill:#f7e017;stroke:#f7e017;stroke-width:0.28007242" /><path
     d="m 512.57572,427.0116 c -0.79471,0.96531 -0.39912,6.22134 0.69258,4.34427 0.99222,-1.82864 -0.057,-5.20326 -0.69258,-4.34427 z"
     id="path615"
     style="fill:#f7e017;stroke:#f7e017;stroke-width:0.28007242" /><path
     d="m 491.78753,466.03956 c -0.37198,2.30105 1.32639,3.02897 1.79343,1.71448 0.55795,-2.46484 -1.14129,-3.7683 -1.79343,-1.71448 z"
     id="path616"
     style="fill:#f7e017;stroke:#f7e017;stroke-width:0.28007242" /><path
     d="m 494.38949,464.08967 c -0.55177,1.88809 1.90945,2.05306 2.60113,0.97434 0.82718,-2.02273 -1.63488,-2.65969 -2.60113,-0.97434 z"
     id="path620"
     style="fill:#f7e017;stroke:#f7e017;stroke-width:0.28007242" /><path
     d="m 392.0057,436.86775 c -1.31665,-0.78499 -1.23459,2.74552 -0.61699,3.70691 0.61699,0.96138 4.2074,-1.50346 0.61699,-3.70691 z"
     id="path603"
     style="fill:#cf1126;stroke:#f7e017;stroke-width:0.28007242" /><path
     d="m 450.12366,243.0042 c -13.22856,3.53288 -22.31173,13.87921 -18.05353,17.39793 2.60793,2.31956 14.85607,-4.05293 17.44008,-9.46251 4.69923,9.5688 17.44746,13.17804 20.52655,11.03288 m -19.9131,-18.9683 0,0 0,0 z"
     id="path676"
     style="fill:#cf1126;stroke:#000000;stroke-width:2.00051713" /><path
     d="m 381.51288,237.34382 c 2.19552,4.52694 13.5707,15.44406 21.75286,16.24325 8.18306,0.79839 26.74271,5.85797 30.33471,3.72738 3.59246,-2.12981 13.77027,-11.4502 16.36462,-9.85226 2.59493,1.59717 17.76186,12.78164 23.34968,12.51472 5.58812,-0.26613 41.70986,-13.84574 42.90761,-16.50857 1.1974,-2.66324 -7.18494,-9.5865 -12.5729,-9.5865 -5.38856,0 -122.13668,3.72853 -122.13668,3.46202 l 10e-5,-4e-5 z"
     id="path696"
     style="fill:#cf1126" /><path
     d="m 413.29379,259.31401 c 0.0655,2.72112 1.63372,4.68912 5.39476,4.74069 6.31612,0.17559 17.00023,-3.81003 23.38245,-13.37803 m -28.77728,8.63734 0,0 0,0 z"
     id="path675"
     style="fill:#cf1126;stroke:#000000;stroke-width:2.00051713" /><path
     d="m 394.34522,255.27589 c -0.32889,2.28255 2.50018,5.26706 8.02718,5.35446 5.52641,0.0882 24.80392,-3.0719 30.98834,-11.675 m -39.01542,6.32054 0,0 0,0 z"
     id="path674"
     style="fill:#cf1126;stroke:#000000;stroke-width:2.00051713" /><path
     d="m 381.29293,248.36059 c -2.96102,5.09106 6.47228,6.91577 12.12976,6.82721 5.65867,-0.0874 20.26144,-0.18819 26.80194,-6.68353 m -38.93168,-0.14368 0,0 0,0 z"
     id="path673"
     style="fill:#cf1126;stroke:#000000;stroke-width:2.00051713" /><path
     d="m 370.95757,239.82003 c -2.82934,5.00407 6.67716,9.39911 18.25636,9.04796 10.65842,-0.35116 21.51464,-5.26706 21.51464,-5.26706 m -39.771,-3.7809 0,0 0,0 z"
     id="path672"
     style="fill:#cf1126;stroke:#000000;stroke-width:2.00051713" /><path
     d="m 485.56382,259.31401 c -0.0655,2.72112 -1.63372,4.68912 -5.39476,4.74069 -6.31612,0.17559 -17.0005,-3.81003 -23.38246,-13.37803 m 28.77729,8.63734 0,0 0,0 z"
     id="path680"
     style="fill:#cf1126;stroke:#000000;stroke-width:2.00051713" /><path
     d="m 504.51239,255.27589 c 0.32886,2.28255 -2.50018,5.26706 -8.02659,5.35446 -5.5264,0.0882 -24.80391,-3.0719 -30.98883,-11.675 m 39.01542,6.32054 0,0 0,0 z"
     id="path679"
     style="fill:#cf1126;stroke:#000000;stroke-width:2.00051713" /><path
     d="m 517.4797,248.47091 c 2.96101,5.09227 -6.38903,6.80555 -12.0471,6.71699 -5.65838,-0.0874 -20.26145,-0.18819 -26.8017,-6.68353 m 38.8487,-0.0335 0,0 0,0 z"
     id="path678"
     style="fill:#cf1126;stroke:#000000;stroke-width:2.00051713" /><path
     d="m 527.93253,239.7347 c 2.82934,5.00368 -6.70903,9.48454 -18.28853,9.13339 -10.65842,-0.35116 -21.51434,-5.26706 -21.51434,-5.26706 m 39.80275,-3.86633 0,0 0,0 z"
     id="path677"
     style="fill:#cf1126;stroke:#000000;stroke-width:2.00051713" /><path
     d="m 393.68035,239.35839 c -14.70847,2.83332 -21.48304,1.38969 -24.41836,-0.48265 -3.66716,-2.15343 -9.94724,-8.70978 -0.67101,-8.94837 6.14637,-0.15983 9.24376,0.46612 16.23149,0.4177 17.87432,-0.29881 43.67669,-19.13051 51.49932,-19.20767 7.2658,-0.0709 9.19358,4.41081 13.33572,4.50174 4.24165,0.0657 5.61438,-4.5726 12.8805,-4.50174 7.82201,0.0771 33.62454,18.90885 51.49905,19.20767 6.98743,0.0484 10.08482,-0.57753 16.23119,-0.4177 9.27653,0.23857 2.99673,6.79492 -0.67041,8.94837 -2.93531,1.87234 -9.71019,3.31597 -24.41866,0.48265 m -111.49865,0 0,0 0,0 z"
     id="path681"
     style="fill:#cf1126;stroke:#000000;stroke-width:2.00051713" /><path
     d="m 449.38382,168.8754 c -6.91925,0.46336 -16.44345,-1.11372 -19.50186,9.18182 -4.65789,11.77932 -3.34419,25.13255 -1.25172,25.41404 3.74687,0.55115 4.10318,-13.3359 5.70059,-13.35677 1.67003,-0.0252 1.66826,12.05844 4.93571,11.96551 2.43317,-0.0925 3.96237,-12.15053 4.72727,-12.05803 0.76461,0.0925 2.36348,11.59388 5.44109,11.59388 3.28632,0 4.67621,-11.50136 5.4411,-11.59388 0.76432,-0.0925 2.29413,11.9655 4.72727,12.05803 3.26715,0.0929 3.26538,-11.99071 4.9357,-11.96551 1.59712,0.0209 2.3009,13.81541 6.04777,13.26387 2.0925,-0.28187 3.12811,-13.54182 -1.5295,-25.32111 -3.05842,-10.29552 -12.79106,-8.71844 -19.67337,-9.18182 l -5e-5,-3e-5 z"
     id="path618"
     style="fill:#cf1126;stroke:#000000;stroke-width:2.00051713" /><path
     d="m 432.77225,173.09451 c 1.85837,4.16552 16.35222,4.06672 17.16997,4.06672 0.81774,0 13.45352,0.19842 16.42663,-3.8675 m -33.59655,-0.1992 0,0 0,0 z"
     id="path619"
     style="fill:#cf1126;stroke:#000000;stroke-width:2.00051713" /><path
     d="m 446.76935,129.65811 0,41.06286 c 0,0 0.16649,2.2924 2.71744,2.36681 2.55065,0.074 2.93827,-1.92353 2.93827,-2.21997 l -0.1107,-41.28418 m -5.54501,0.0744 0,0 0,0 z"
     id="path628"
     style="fill:#cf1126;stroke:#000000;stroke-width:2.00051713" /><path
     d="m 449.75624,134.41686 c 11.59454,-0.79327 15.0518,8.33066 18.32217,10.31443 3.27068,1.98337 4.75709,2.77662 9.2172,2.37979 4.45949,-0.39642 -7.73078,9.91799 -7.73078,10.31443 l 4.4601,10.71007 c -4.16251,0.79327 -12.04505,-4.33363 -15.16281,-7.14019 -3.52634,-2.77858 -7.43291,-1.19008 -8.9196,-1.58691 l -0.18628,-24.9916 0,-2e-5 z"
     id="path625"
     style="fill:#cf1126;stroke:#000000;stroke-width:2.00051713" /><path
     d="m 456.1849,121.92085 c 0,4.70842 -2.99703,8.52869 -6.68896,8.52869 -3.69284,0 -6.68987,-3.82027 -6.68987,-8.52869 0,-4.70762 2.99703,-8.52789 6.68987,-8.52789 3.69196,0 6.68896,3.82027 6.68896,8.52789 z"
     id="path690"
     style="fill:#cf1126;stroke:#000000;stroke-width:2.00051713" /><path
     d="m 377.8261,325.86985 c -0.88356,1.64873 -1.64583,-2.68845 -4.6812,0.35273 -1.71164,1.95226 -2.39773,4.94385 -2.38533,11.19549 0.0103,5.30052 2.29677,8.83931 3.62227,8.48539 2.03078,-0.35355 0.97095,-6.83547 3.17887,-8.01375 3.18004,-2.00346 7.68443,1.06058 8.47944,4.94895 0.79471,3.88876 -1.50206,8.13147 -3.97477,7.66023 -1.41349,-0.70706 0.795,-3.41675 0.97155,-4.59543 0.17653,-1.17831 0.44105,-5.06823 -1.67831,-6.12801 -2.11993,-1.06018 -1.76626,2.82819 -1.85481,3.88917 -0.0877,1.06057 -1.59005,4.36 -3.26773,4.2419 -1.678,-0.11733 -4.34497,-0.10552 -6.97767,-3.88836 -1.39609,-1.94047 -3.09149,-7.18859 -1.58975,-13.78825 1.50146,-6.59926 4.06273,-7.18819 5.47622,-7.30672 1.4126,-0.11732 5.03428,1.06097 4.6812,2.94669 l 2e-5,-3e-5 z"
     id="path621"
     style="fill:#f7e017;stroke:#f7e017;stroke-width:0.28007236" /><path
     d="m 374.20435,353.32874 c -1.47372,-1.05074 0.55411,-4.87928 -3.26772,-3.53524 -1.53805,0.57199 2.29618,6.48196 3.97418,6.71814 1.85484,-0.23622 1.33792,-1.8428 -0.70646,-3.1829 l 0,0 z"
     id="path622"
     style="fill:#f7e017;stroke:#f7e017;stroke-width:0.28007236" /><path
     d="m 378.26852,356.50857 c 0.7947,4.83125 1.54692,4.42181 1.67769,6.83468 0.0661,3.08214 -3.88649,1.76724 -4.41641,3.18134 -0.52961,1.41409 -1.23606,5.06743 1.32463,5.30285 2.56157,0.23583 6.23788,-1.07751 6.97768,1.29676 1.99476,6.68156 6.2482,5.71271 8.23147,4.67339 2.24333,-1.19833 7.52266,-7.54567 8.72624,-8.09131 1.79255,-0.87592 -1.6777,-2.59276 -3.70908,-0.23578 -0.52962,0.70783 -4.94603,6.71814 -7.2425,6.83547 -1.6771,0.24919 -4.27589,-5.42451 -4.15132,-7.42401 0.17684,-1.41449 4.04119,-0.24765 4.59325,-3.18213 0.41124,-2.09636 0.44106,-4.36041 -0.79471,-4.47774 -1.23694,-0.11848 -7.06596,0.94209 -7.2428,-0.23582 -1.06013,-3.41792 1.06041,-4.83164 0.2651,-5.77489 -0.88357,-0.47121 -4.15132,-1.17828 -4.23927,1.29719 l 3e-5,0 z"
     id="path623"
     style="fill:#f7e017;stroke:#f7e017;stroke-width:0.28007236" /><path
     d="m 397.90444,375.24759 c -1.86871,2.61207 -6.78844,6.79295 -6.78844,9.74637 0,1.67394 1.37274,4.2982 2.50843,4.92257 1.69482,0.89089 4.29448,0.66806 6.27182,-1.37826 2.23654,-2.42431 3.24233,-4.88165 2.2882,-5.31626 -3.38257,-1.28969 -3.46788,4.93085 -5.09187,5.11943 -1.55105,0.17163 -3.91071,-3.15063 -0.81153,-7.28585 3.09886,-4.13442 7.3789,-8.26963 7.23098,-9.45147 -0.14732,-1.18104 -4.26644,1.84003 -5.60759,3.64351 l 0,-4e-5 z"
     id="path638"
     style="fill:#f7e017;stroke:#f7e017;stroke-width:0.28007236" /><path
     d="m 389.86111,392.57669 c -0.13845,1.66368 3.17266,1.67355 3.7631,0.19686 0.44223,-1.08225 -3.61578,-1.86961 -3.7631,-0.19686 z"
     id="path639"
     style="fill:#f7e017;stroke:#f7e017;stroke-width:0.28007236" /><path
     d="m 401.01379,393.66664 c -1.86871,2.61129 0.22111,5.5804 1.64879,8.01414 0.79058,1.29994 2.60646,2.566 3.74185,3.19 1.6951,0.89129 5.07325,0.58183 7.05089,-1.46449 2.23594,-2.4239 2.41277,-6.68155 1.0545,-6.70162 -3.51009,-0.052 -1.06662,6.22961 -2.68999,6.41857 -1.55165,0.17202 -5.90075,-1.13617 -8.01596,-7.1134 -1.20863,-3.52265 2.22826,-4.19625 1.71399,-5.72686 -0.52399,-1.64442 -3.16262,1.57982 -4.50409,3.38369 l 2e-5,-3e-5 z"
     id="path640"
     style="fill:#f7e017;stroke:#f7e017;stroke-width:0.28007236" /><path
     d="m 410.1269,393.43331 c 0.72683,1.3641 3.20249,-1.57038 2.90551,-3.19667 -0.21019,-1.20073 -3.63086,1.81721 -2.90551,3.19667 z"
     id="path641"
     style="fill:#f7e017;stroke:#f7e017;stroke-width:0.28007236" /><path
     d="m 415.07338,405.86599 c -0.10095,1.91604 0.32444,4.5029 -1.36301,4.58994 -1.68743,0.0862 -3.82921,-2.94472 -5.51669,-2.85812 -1.68772,0.0866 -2.40185,1.8188 -2.20732,2.77188 0.19456,0.95232 3.11571,2.07826 8.11337,1.64482 4.9977,-0.43305 3.89417,3.63721 7.39897,3.29036 3.50507,-0.34605 4.02406,-1.9046 3.76487,-2.94314 -0.25977,-1.03972 -3.24531,-0.34722 -4.3488,-0.60667 -1.1035,-0.26022 -3.05014,-2.59791 -3.30994,-4.58994 -0.25947,-1.99199 -0.25947,-5.42491 1.03829,-5.45601 2.40157,-0.0555 1.29215,2.91205 1.38426,3.95333 0.0809,0.92201 0.86645,1.87827 1.92568,0.20355 1.40698,-2.22235 0.64916,-5.71583 -0.71383,-6.92797 -1.36272,-1.21213 -5.91167,2.26445 -6.16585,6.92797 l 0,0 z"
     id="path642"
     style="fill:#f7e017;stroke:#f7e017;stroke-width:0.28007236" /><path
     d="m 427.47081,406.21264 c -0.25537,3.43369 -2.09722,3.68328 -1.88198,4.93598 0.26627,1.43889 0.93286,1.89044 1.36299,5.45561 0.24325,1.75738 1.88198,2.50224 3.9594,2.33808 1.6972,-0.0622 2.85769,-3.13017 3.95853,-3.03134 1.55668,0.11139 0.2601,4.81235 3.89477,4.76392 2.92054,-0.0374 3.63467,-3.37816 4.67295,-3.46439 1.03856,-0.087 0.90867,3.89667 3.31054,3.89667 2.40128,0 3.43954,-3.63722 4.54306,-3.72345 1.16846,0.0862 1.16846,3.89667 4.73789,3.63681 3.57034,-0.26022 6.23139,-0.95231 7.07511,-1.90503 0.84373,-0.95268 1.23282,-4.07025 2.40098,-4.24388 1.16846,-0.17242 2.98611,2.94435 4.6086,2.94435 1.62278,0 4.99709,-5.45444 6.03537,-5.54184 1.03916,-0.0858 1.88289,3.37739 4.2195,3.37739 3.63467,-0.0866 4.05948,-6.39181 5.75226,-6.68942 3.05134,-0.39605 3.17179,-2.057 3.33415,-2.49004 0.32447,-1.21294 -0.0233,-6.89807 -0.71647,-9.49437 -0.33655,-1.36959 -4.21595,-12.93556 -5.96806,-13.19497 -1.75299,-0.25982 -1.2337,3.11757 -0.19514,5.10957 1.03886,1.99162 6.36041,11.25767 5.64656,13.94216 -0.71383,2.68529 -4.4784,-1.12591 -7.46421,-1.12591 -4.15366,0 -6.67746,11.20532 -9.60598,11.60453 -1.28626,0.18383 -2.66047,-1.47199 -2.20614,-2.68452 0.84373,-1.73141 1.81675,-5.88866 -1.42795,-5.28203 -3.24531,0.60511 -6.55555,2.59714 -6.03625,4.93598 0.51928,2.33768 2.46651,4.67612 0.32443,5.62844 -2.14206,0.95271 -5.84141,1.21293 -7.65874,0.43344 -1.81762,-0.77949 -0.7141,-6.2351 -1.81762,-6.2351 -1.23282,0 -1.29776,6.40833 -3.05015,6.58195 -1.75208,0.17242 -3.31024,-0.78026 -3.69933,-2.5983 -0.38969,-1.8188 0.64889,-4.07025 -0.51929,-4.32971 -1.16846,-0.26021 -2.33722,7.18743 -4.08931,7.01421 -1.75208,-0.1732 -1.81732,-0.69247 -2.8556,-2.16523 -1.03886,-1.47158 0.90839,-6.49492 -0.844,-6.92796 -1.75269,-0.43305 -3.50538,7.44764 -4.67296,7.36141 -1.16905,-0.087 -2.92114,-0.17322 -3.44043,-1.73181 -0.2598,-0.78026 -0.18689,-5.656 -0.12873,-7.63267 -0.0325,-0.93579 -1.68774,-0.52437 -1.55872,0.53147 l -3e-5,0 z"
     id="path643"
     style="fill:#f7e017;stroke:#f7e017;stroke-width:0.28007236" /><path
     d="m 486.46858,384.99376 c 3.19836,6.46109 6.07906,15.19803 7.8536,15.67437 1.18145,0.23109 -3.69994,-11.68995 -5.32213,-14.37524 -1.36329,-2.77113 -5.28255,-6.93074 -2.53147,-1.29913 l 0,0 z"
     id="path644"
     style="fill:#f7e017;stroke:#f7e017;stroke-width:0.28007236" /><path
     d="m 427.17338,400.72627 c -0.47766,1.56761 -0.30674,3.07976 0.51131,2.85574 0.81833,-0.22399 1.87549,-2.85574 1.60302,-3.35965 -0.27279,-0.50391 -1.46635,-0.95112 -2.11433,0.50391 l 0,0 z"
     id="path645"
     style="fill:#f7e017;stroke:#f7e017;stroke-width:0.28007236" /><path
     d="m 495.86413,387.86027 c -0.0112,3.50295 1.84805,7.46534 5.30795,7.21575 3.46021,-0.24918 7.2543,-5.35485 7.53477,-10.59551 0.28043,-5.24029 -4.56698,-9.08692 -5.78238,-7.96414 -1.21628,1.12276 0.4558,5.03083 3.56116,5.27215 1.33023,0.10746 0.89597,3.57738 -1.65231,6.3229 -2.67022,2.81599 -6.62285,2.76246 -7.58968,0.81926 -0.74807,-2.74515 -1.42885,-2.76442 -1.37954,-1.07044 l 3e-5,3e-5 z"
     id="path646"
     style="fill:#f7e017;stroke:#f7e017;stroke-width:0.28007236" /><path
     d="m 497.9487,377.24082 c -0.50569,1.38733 0.54881,4.58559 1.69305,4.44387 1.15961,-0.15079 -1.32168,-5.36231 -1.69305,-4.44387 z"
     id="path647"
     style="fill:#f7e017;stroke:#f7e017;stroke-width:0.28007236" /><path
     d="m 508.1066,374.76428 c 0.67338,2.07787 1.47429,5.2458 2.89369,5.2458 1.42028,0 2.5669,0.51021 2.5669,2.11289 0,1.60228 -3.70168,6.9386 -3.82243,8.74324 -0.20636,3.07701 1.47429,2.91441 2.29352,1.23814 0.81893,-1.67512 3.03392,-9.55697 3.49475,-11.73049 0.20043,-1.71804 1.79253,-4.94737 1.85659,-8.30863 -0.10183,-3.7868 2.51138,-0.72596 3.76812,-0.5799 1.15046,0.0669 2.40275,-2.76916 2.56659,-4.80919 0.16384,-2.04046 -1.2018,-2.4042 -1.2018,-4.22538 0,-1.02041 1.46072,-4.29937 1.52891,-6.48509 0.16296,-1.93337 -2.83936,-7.50474 -4.09493,-7.43151 -1.03798,0.0728 -0.16384,2.11289 0.43691,2.98724 0.60048,0.87435 2.12908,2.69553 1.58355,4.29821 -0.98307,3.1337 -5.78885,3.93523 -6.00703,7.28702 -0.21818,2.40421 0.21815,9.98178 -1.25614,9.98178 -1.47432,0 -2.68145,-4.73363 -4.96904,-4.73636 -2.566,-0.0913 -2.17013,4.82888 -1.63816,6.41227 l 0,-4e-5 z"
     id="path648"
     style="fill:#f7e017;stroke:#f7e017;stroke-width:0.28007236" /><path
     d="m 511.87332,345.98245 c 0.0703,1.34914 2.18429,7.21303 3.44013,7.21303 1.80197,0 -0.81951,-2.76796 -0.65566,-3.78836 0.16414,-1.02042 2.7455,-2.55698 1.69305,-2.91442 -1.88259,-0.76927 -4.57081,-2.29398 -4.47752,-0.51021 l 0,-4e-5 z"
     id="path651"
     style="fill:#f7e017;stroke:#f7e017;stroke-width:0.28007236" /><path
     d="m 511.71085,338.40618 c 0.38229,1.89401 6.22518,4.73559 8.73746,5.68318 2.51168,0.94718 5.56982,4.95487 6.71671,3.64271 1.14661,-1.31137 -7.69978,-5.97449 -9.00994,-6.62996 -1.31045,-0.65586 -6.7173,-4.59032 -6.44423,-2.69593 l 0,0 z"
     id="path652"
     style="fill:#f7e017;stroke:#f7e017;stroke-width:0.28007236" /><path
     d="m 529.34969,350.64555 c 2.1843,0.0721 0.98277,-5.68397 0.43664,-7.06813 -0.54587,-1.38456 -1.3651,2.62309 -1.25587,3.78916 0.10895,1.16568 0.16386,3.20574 0.81923,3.27897 l 0,0 z"
     id="path718"
     style="fill:#f7e017;stroke:#f7e017;stroke-width:0.28007236" /><path
     d="m 516.62483,322.01271 c -0.0186,1.30387 6.03447,0.37872 8.84669,1.38418 1.21332,0.45352 5.35134,3.42382 6.11535,2.69553 0.87412,-1.53063 -5.62413,-4.80841 -9.33763,-4.80841 -1.2024,0.024 -5.60347,-0.80862 -5.62444,0.72869 l 3e-5,1e-5 z"
     id="path655"
     style="fill:#f7e017;stroke:#f7e017;stroke-width:0.28007236" /><path
     d="m 515.04016,325.72818 c -1.08343,1.54756 3.65062,3.27818 7.86362,3.49669 4.19617,0.21849 6.91569,3.58248 6.55316,6.04771 -0.60105,4.15372 -5.84319,1.45703 -5.1878,3.71634 0.382,1.74875 2.68705,1.10625 2.94861,2.98765 0.18097,1.89477 1.66029,2.22821 1.58148,-0.10786 -0.009,-1.85857 3.2512,-4.92021 3.16942,-5.7942 -0.16357,-1.74834 -2.12939,-7.8693 -7.15365,-8.52477 -5.02365,-0.65548 -8.39205,-3.88562 -9.77484,-1.82155 l 0,-10e-6 z"
     id="path720"
     style="fill:#f7e017;stroke:#f7e017;stroke-width:0.28007236" /><path
     d="m 380.76553,366.58808 c -0.67368,-0.51927 -3.07466,2.36011 -2.21322,3.00221 1.63432,1.23458 3.23733,-2.23848 2.21322,-3.00221 z"
     id="path629"
     style="fill:#cf1126;stroke:#f7e017;stroke-width:0.08002069" /><path
     d="m 385.92446,363.16826 c -1.16581,-0.19369 -1.72906,3.1085 -0.75397,3.30456 2.47802,0.45705 2.96632,-2.94788 0.75397,-3.30456 z"
     id="path634"
     style="fill:#cf1126;stroke:#f7e017;stroke-width:0.08002069" /><path
     d="m 511.60092,372.43111 c -0.55176,-0.003 -2.29352,1.02042 -1.69248,2.62387 0.60078,1.60228 2.32453,1.64088 3.11246,0.72912 0.70263,-0.88815 0.54409,-3.33722 -1.41998,-3.35299 l 0,0 z"
     id="path649"
     style="fill:#cf1126;stroke:#f7e017;stroke-width:0.08002069" /><path
     d="m 518.42701,365.43814 c 0.17623,1.76251 1.14218,1.47669 1.91062,1.09248 0.87382,-0.50984 1.1286,-2.05186 0.27367,-2.62269 -0.89244,-0.59488 -2.36495,0.27201 -2.18429,1.53021 l 0,0 z"
     id="path650"
     style="fill:#cf1126;stroke:#f7e017;stroke-width:0.08002069" /><path
     d="m 478.96269,406.64933 c -1.17614,3.46635 -0.16327,6.85791 1.71312,6.20481 1.87638,-0.65273 3.75364,-5.44382 2.36673,-6.96774 -1.38692,-1.52396 -3.29872,-1.54048 -4.07985,0.76296 l 0,-3e-5 z"
     id="path657"
     style="fill:#cf1126;stroke:#f7e017;stroke-width:0.08002069" /><path
     d="m 320.63046,262.80214 c -4.37862,-0.53108 -14.32823,-3.18645 -14.72647,-0.53108 -0.39795,2.65498 5.37291,33.72157 8.35842,37.70403 2.9846,3.98285 16.91489,12.47928 18.30772,11.4171 1.39282,-1.06175 -2.78594,-20.44459 -4.37831,-23.89638 -1.5918,-3.45218 -6.36778,-15.93107 -5.96954,-16.46254 0.39764,-0.53069 -1.79135,-8.23107 -1.5918,-8.23107 l -2e-5,-6e-5 z"
     id="path697"
     style="fill:#cf1126" /><path
     d="m 311.86978,261.74353 c 1.0669,-7.47441 7.58023,1.47196 6.93546,11.20885 -0.31766,3.30337 1.06721,6.94253 2.40098,8.72198 m -9.33644,-19.93087 0,0 0,0 z"
     id="path632"
     style="fill:#cf1126;stroke:#000000;stroke-width:2.00051689" /><path
     d="m 317.47111,262.09951 -0.24444,0.43423 c 3.26654,-7.37562 6.42504,3.12504 6.91274,15.22597 m -6.6683,-15.66021 0,0 0,0 z"
     id="path633"
     style="fill:#cf1126;stroke:#000000;stroke-width:2.00051689" /><path
     d="m 306.23345,260.94957 c -0.18864,-6.03985 7.16396,-7.7744 6.70903,14.0595 3.20574,2.76836 6.97888,13.33827 7.16722,17.11367 2.4063,0.75508 6.41324,4.70252 7.38891,7.97478 m -21.26516,-39.14795 0,0 0,0 z"
     id="path631"
     style="fill:#cf1126;stroke:#000000;stroke-width:2.00051689" /><path
     d="m 324.26971,381.93391 c 0.34393,-16.62473 0.54024,-52.22393 -0.76432,-56.08606 -2.2944,-7.14883 -13.8361,-15.43777 -17.353,-26.67735 -3.52102,-11.88994 -6.52248,-39.01162 -5.09362,-42.28078 1.87166,-4.71156 8.11159,5.78866 6.41382,17.36602 7.54539,11.82811 5.95919,18.87421 7.35615,20.38517 4.65289,4.78085 11.75779,8.05351 13.01423,12.33165 2.58636,7.65394 -0.56504,-10.82226 -2.64041,-14.59767 -2.07447,-3.775 -5.65837,-12.07966 -3.20603,-14.09256 2.45147,-2.01407 6.79022,3.27187 7.35585,4.78165 0.56593,1.51016 6.41324,10.06681 8.11071,12.07967 3.01798,3.02032 10.64043,9.77115 10.48868,15.55862 -0.008,9.35541 0.61465,70.90796 0.61465,70.90796 m -24.29674,0.32362 0,0 0,0 z"
     id="path630"
     style="fill:#cf1126;stroke:#000000;stroke-width:2.00051689" /><path
     d="m 322.8625,403.85277 c 0,0 -0.0478,6.69178 -0.0472,6.81774 2.17632,3.53485 11.26093,3.92853 13.29379,3.91357 1.99004,-0.0776 10.53766,0.12598 12.52476,-4.22932 0.0472,-0.126 0.12309,-5.68397 0.12309,-7.21182 m -25.89438,0.7098 0,0 0,0 z"
     id="path581"
     style="fill:#cf1126;stroke:#000000;stroke-width:2.00051689" /><path
     d="m 322.45509,393.96662 c -2.51611,0.74642 -3.17385,4.84857 -1.39844,7.83502 1.43977,2.42271 7.41019,5.22256 14.26062,5.40995 6.85045,0.18543 15.93804,-2.98528 16.35723,-8.02201 0.13995,-5.03634 -3.40499,-4.72929 -2.9858,-4.5423 m -26.23356,-0.68066 0,0 0,0 z"
     id="path637"
     style="fill:#cf1126;stroke:#000000;stroke-width:2.00051689" /><path
     d="m 322.45509,384.70044 c -2.51611,0.74642 -2.98699,4.97414 -1.21128,7.96061 1.43978,2.42311 7.5023,5.78237 14.35302,5.96939 6.84986,0.18622 15.51884,-3.54431 15.93775,-8.58066 0.13994,-5.03673 -2.46709,-4.60288 -2.65635,-4.47732 m -26.42327,-0.87199 0,0 0,0 z"
     id="path636"
     style="fill:#cf1126;stroke:#000000;stroke-width:2.00051689" /><path
     d="m 336.71463,389.8635 c 9.08699,0.18699 14.95909,-5.78237 14.95909,-8.95267 0,-3.1715 -2.93591,-3.35849 -4.75383,-2.42584 -1.81735,0.93262 -4.61332,3.301 -10.48483,3.35729 -6.01085,0.24445 -11.32443,-5.59577 -13.14178,-5.40915 -1.81734,0.18699 -3.24145,2.81599 -2.65635,5.59578 0.71973,2.75772 7.13003,8.2074 16.07768,7.83462 l 2e-5,-3e-5 z"
     id="path635"
     style="fill:#cf1126;stroke:#000000;stroke-width:2.00051689" /><path
     d="m 579.37181,262.80214 c 4.37832,-0.53108 14.32824,-3.18645 14.72648,-0.53108 0.39764,2.65498 -5.37349,33.72157 -8.35842,37.70403 -2.98461,3.98285 -16.91519,12.47928 -18.3083,11.4171 -1.39254,-1.06175 2.78652,-20.44459 4.37831,-23.89638 1.5921,-3.45218 6.36808,-15.93107 5.96984,-16.46254 -0.39764,-0.53069 1.79135,-8.23107 1.59209,-8.23107 l 0,-6e-5 z"
     id="path869"
     style="fill:#cf1126" /><path
     d="m 588.1325,261.74353 c -1.0672,-7.47441 -7.5805,1.47196 -6.93576,11.20885 0.31766,3.30337 -1.06691,6.94253 -2.40068,8.72198 m 9.33644,-19.93087 0,0 0,0 z"
     id="path870"
     style="fill:#cf1126;stroke:#000000;stroke-width:2.00051689" /><path
     d="m 582.53117,262.09951 0.24444,0.43423 c -3.26684,-7.37562 -6.42534,3.12504 -6.91334,15.22597 m 6.6689,-15.66021 0,0 0,0 z"
     id="path871"
     style="fill:#cf1126;stroke:#000000;stroke-width:2.00051689" /><path
     d="m 593.76633,260.94957 c 0.18894,-6.03985 -7.16426,-7.7744 -6.70903,14.0595 -3.20574,2.76836 -6.97888,13.33827 -7.16692,17.11367 -2.40629,0.75508 -6.41351,4.70252 -7.38921,7.97478 m 21.26516,-39.14795 0,0 0,0 z"
     id="path872"
     style="fill:#cf1126;stroke:#000000;stroke-width:2.00051689" /><path
     d="m 575.73007,381.93391 c -0.34333,-16.62473 -0.53966,-52.22393 0.7649,-56.08606 2.29382,-7.14883 13.8358,-15.43777 17.353,-26.67735 3.52101,-11.88994 6.52217,-39.01162 5.09304,-42.28078 -1.87136,-4.71156 -8.11102,5.78866 -6.41352,17.36602 -7.54538,11.82811 -5.95919,18.87421 -7.35615,20.38517 -4.65316,4.78085 -11.75751,8.05351 -13.01453,12.33165 -2.58636,7.65394 0.56534,-10.82226 2.64041,-14.59767 2.07476,-3.775 5.65838,-12.07966 3.20633,-14.09256 -2.45144,-2.01407 -6.78994,3.27187 -7.35585,4.78165 -0.5659,1.51016 -6.41324,10.06681 -8.11072,12.07967 -3.01797,3.02032 -10.64042,9.77115 -10.48867,15.55862 0.008,9.35541 -0.61463,70.90796 -0.61463,70.90796 m 24.29644,0.32362 0,0 0,0 z"
     id="path873"
     style="fill:#cf1126;stroke:#000000;stroke-width:2.00051689" /><path
     d="m 577.13978,403.85277 c 0,0 0.0478,6.69178 0.0472,6.81774 -2.17663,3.53485 -11.26066,3.92853 -13.29409,3.91357 -1.98977,-0.0776 -10.53709,0.12598 -12.52419,-4.22932 -0.0472,-0.126 -0.1231,-5.68397 -0.1231,-7.21182 m 25.89414,0.7098 0,0 0,0 z"
     id="path874"
     style="fill:#cf1126;stroke:#000000;stroke-width:2.00051689" /><path
     d="m 577.54719,393.96662 c 2.51611,0.74642 3.17358,4.84857 1.39844,7.83502 -1.44005,2.42271 -7.41019,5.22256 -14.26092,5.40995 -6.85015,0.18543 -15.93832,-2.98528 -16.35723,-8.02201 -0.13965,-5.03634 3.4053,-4.72929 2.9858,-4.5423 m 26.23381,-0.68066 0,0 0,0 z"
     id="path876"
     style="fill:#cf1126;stroke:#000000;stroke-width:2.00051689" /><path
     d="m 577.54719,384.70044 c 2.51611,0.74642 2.98669,4.97414 1.21098,7.96061 -1.43948,2.42311 -7.5023,5.78237 -14.35302,5.96939 -6.85016,0.18622 -15.51853,-3.54431 -15.93745,-8.58066 -0.14022,-5.03673 2.46681,-4.60288 2.65635,-4.47732 m 26.42327,-0.87199 0,0 0,0 z"
     id="path877"
     style="fill:#cf1126;stroke:#000000;stroke-width:2.00051689" /><path
     d="m 563.28766,389.8635 c -9.087,0.18699 -14.9594,-5.78237 -14.9594,-8.95267 0,-3.1715 2.93591,-3.35849 4.75383,-2.42584 1.81736,0.93262 4.61332,3.301 10.48483,3.35729 6.01056,0.24445 11.32443,-5.59577 13.14205,-5.40915 1.81735,0.18699 3.24115,2.81599 2.65635,5.59578 -0.71973,2.75772 -7.13032,8.2074 -16.07766,7.83462 l 0,-3e-5 z"
     id="path878"
     style="fill:#cf1126;stroke:#000000;stroke-width:2.00051689" /></svg>