<?xml version="1.0" encoding="UTF-8" standalone="no"?>
<!-- Created with Inkscape (http://www.inkscape.org/) -->

<svg
   xmlns:dc="http://purl.org/dc/elements/1.1/"
   xmlns:cc="http://creativecommons.org/ns#"
   xmlns:rdf="http://www.w3.org/1999/02/22-rdf-syntax-ns#"
   xmlns:svg="http://www.w3.org/2000/svg"
   xmlns="http://www.w3.org/2000/svg"
   xmlns:sodipodi="http://sodipodi.sourceforge.net/DTD/sodipodi-0.dtd"
   xmlns:inkscape="http://www.inkscape.org/namespaces/inkscape"
   id="svg2"
   sodipodi:version="0.32"
   inkscape:version="0.47 r22583"
   version="1.0"
   sodipodi:docname="Flag_of_Jersey.svg"
   width="900"
   height="600"
   viewBox="0 0 27 18"
   inkscape:output_extension="org.inkscape.output.svg.inkscape">
  <defs
     id="defs4">
    <inkscape:perspective
       sodipodi:type="inkscape:persp3d"
       inkscape:vp_x="0 : 300 : 1"
       inkscape:vp_y="0 : 1000 : 0"
       inkscape:vp_z="1000 : 300 : 1"
       inkscape:persp3d-origin="500 : 200 : 1"
       id="perspective2946" />
  </defs>
  <sodipodi:namedview
     id="base"
     pagecolor="#ffffff"
     bordercolor="#666666"
     borderopacity="1.0"
     gridtolerance="10000"
     guidetolerance="10"
     objecttolerance="10"
     inkscape:pageopacity="0.0"
     inkscape:pageshadow="2"
     inkscape:zoom="0.9256224"
     inkscape:cx="488.74215"
     inkscape:cy="396.02732"
     inkscape:document-units="px"
     inkscape:current-layer="layer1"
     width="30px"
     height="18px"
     inkscape:window-width="1278"
     inkscape:window-height="983"
     inkscape:window-x="-4"
     inkscape:window-y="-4"
     showgrid="false"
     inkscape:window-maximized="0" />
  <metadata
     id="metadata7">
    <rdf:RDF>
      <cc:Work
         rdf:about="">
        <dc:format>image/svg+xml</dc:format>
        <dc:type
           rdf:resource="http://purl.org/dc/dcmitype/StillImage" />
      </cc:Work>
    </rdf:RDF>
  </metadata>
  <g
     inkscape:label="Layer 1"
     inkscape:groupmode="layer"
     id="layer1">
    <rect
       style="fill:#ffffff"
       id="rect2736"
       width="27"
       height="18"
       x="0"
       y="0" />
    <path
       style="fill:#df112d;fill-opacity:1;fill-rule:evenodd;stroke:none"
       d="M 0,0 0,1.15625 11.75625,9 0,16.84375 0,18 1.771875,18 13.5,10.15625 25.228125,18 27,18 27,16.84375 15.24375,9 27,1.15625 27,0 25.228125,0 13.5,7.84375 1.771875,0 0,0 z"
       id="rect2720" />
    <g
       id="Jersey badge"
       transform="matrix(0.03664976,0,0,0.04072196,11.646189,10.55291)">
      <path
         transform="matrix(3,0,0,3,-308.8556,-259.7129)"
         d="m 132.662,22.2327 c 3.156,12.7782 1.425,28.56 -12.829,37.3163 -14.255,-8.7563 -15.986,-24.5381 -12.829,-37.3163 3.36,-3.0546 18.632,-4.9382 25.658,0 z"
         id="red shield"
         style="fill:#e8112d;fill-opacity:1;stroke:#000000;stroke-width:0.13176157" />
      <g
         transform="matrix(3,0,0,3,-308.8556,-259.7129)"
         id="g2041"
         style="fill:#ffff00;stroke:#000000;stroke-width:0.13176157">
        <path
           d="m 119.812,19.6672 c 5.226,0 10.093,1.3832 12.962,3.1764 0.563,-4.4059 2.561,-8.8117 4.918,-12.1417 -2.459,-0.0513 -3.561,1.2551 -3.586,2.6127 -0.615,-1.7418 -3.023,-1.6394 -3.766,-0.6916 2.69,1.8187 0.615,5.0462 -1.818,4.3803 -1.143,-0.3127 -1.747,-1.1097 -1.961,-2.2668 0.263,-0.0176 0.524,-0.1139 0.744,-0.2925 0.567,-0.46 0.654,-1.2927 0.194,-1.8598 -0.46,-0.5671 -1.292,-0.654 -1.86,-0.194 -0.567,0.46 -0.654,1.2927 -0.193,1.8598 0.15,0.1863 0.343,0.3185 0.551,0.3988 -0.769,1.2552 -2.148,1.632 -3.136,1.3554 -1.281,-0.3586 -1.819,-1.5113 -1.819,-2.5359 0,-2.664 2.561,-3.0738 3.33,-2.6127 -0.051,-1.79307 -2.869,-3.22758 -3.74,-1.74189 0.973,-1.74179 0.922,-4.2009 -0.82,-5.84027 -1.741,1.63937 -1.793,4.09848 -0.819,5.84027 -0.871,-1.48569 -3.689,-0.05118 -3.74,1.74189 0.768,-0.4611 3.33,-0.0513 3.33,2.6127 0,1.0246 -0.538,2.1773 -1.819,2.5359 -0.988,0.2766 -2.367,-0.1002 -3.137,-1.3554 0.209,-0.0803 0.401,-0.2125 0.552,-0.3988 0.46,-0.5671 0.373,-1.3998 -0.194,-1.8598 -0.567,-0.46 -1.4,-0.3731 -1.86,0.194 -0.46,0.5671 -0.373,1.3998 0.194,1.8598 0.221,0.1786 0.482,0.2749 0.745,0.2925 -0.214,1.1571 -0.819,1.9541 -1.961,2.2668 -2.433,0.6659 -4.508,-2.5616 -1.819,-4.3803 -0.742,-0.9478 -3.15,-1.0502 -3.765,0.6916 -0.026,-1.3576 -1.127,-2.664 -3.586,-2.6127 2.356,3.33 4.354,7.7358 4.918,12.1417 2.869,-1.7932 7.736,-3.1764 12.961,-3.1764 z"
           id="crown"
           style="fill:#f9dd16;fill-opacity:1;stroke-width:0.13176157" />
        <path
           d="m 130.653,32.1996 c -0.315,0.0751 -0.315,0.481 -0.48,0.481 0.819,-0.0226 1.217,-0.248 1.465,-0.6614 -0.18,0.1653 -0.023,0.481 -0.083,0.5561 0.601,-0.2104 0.887,-0.7214 0.677,-1.0671 0.135,0.1953 0.526,0.3006 0.646,0.3156 -0.421,-0.3307 -0.12,-1.0822 -0.797,-1.4729 0.226,-0.0151 0.662,0.2404 0.782,0.5411 -0.105,-0.6764 -0.211,-1.1123 -0.767,-1.488 0.06,0.0676 0.376,0.1277 0.511,0 -0.36,-0.2255 -0.466,-0.6012 -0.435,-0.8417 0.042,-0.3365 -0.181,-0.4059 -0.602,-0.3006 -0.379,0.0947 -1.247,0.1503 -1.758,0.1503 -1.052,0 -1.969,0 -2.841,-0.6012 1.308,0.541 2.976,-0.6012 2.976,-1.5481 0,-1.0522 -1.293,-1.9089 -3.908,-1.3377 -2.615,0.5711 -5.801,0.3306 -5.801,-0.5411 0,-0.8718 2.284,-0.992 3.457,-0.8116 1.172,0.1803 2.013,0.3006 4.208,-0.481 -0.541,0.2104 -2.285,0.2705 -3.667,-0.1202 -1.383,-0.3908 -4.78,-0.3908 -4.81,1.4429 -0.03,1.8336 3.617,1.6666 6.764,1.2024 1.833,-0.2706 2.795,-0.0902 2.795,0.511 0,0.5711 -1.683,0.8116 -2.976,0.6613 -1.292,-0.1502 -2.615,-0.1202 -4.148,0.3307 -1.28,0.3764 -2.164,0 -3.577,0.2405 -0.685,0.1164 -2.345,0 -3.164,-1.3528 -0.504,0.3608 -2.022,1.116 -2.277,1.8525 -0.361,0.6763 -0.12,1.349 0.36,2.0103 0.606,0.8323 -0.3,0.7064 -0.946,0.7365 -0.886,0.0412 -2.072,-0.0941 -2.691,-0.7966 -0.548,-0.6225 -1.278,-1.1214 -1.861,-0.66 -0.3,0.2375 -0.012,0.5501 0.225,0.4626 0.235,-0.0865 0.513,0.0875 0.764,0.1974 -0.401,-0.1724 -0.842,-0.0386 -1.014,0.1151 -0.237,0.2125 0.051,0.6184 0.338,0.475 0.225,-0.1125 0.687,-0.1875 0.987,0.0875 -0.325,-0.0625 -0.663,-0.0493 -0.825,0.125 -0.162,0.1743 -0.037,0.4281 0.313,0.4125 0.562,-0.025 0.706,0.3688 1.269,0.2879 -0.346,0.0451 -0.542,0.2254 -0.632,0.3607 0.526,-0.2405 1.107,0.4078 1.789,0.2555 -0.266,0.1095 -0.695,0.371 -0.691,0.5712 0.405,-0.466 3.126,0.3607 3.186,-0.6613 0.075,0.2104 0.06,0.526 -0.15,0.7966 0.348,-0.2105 1.473,-0.2856 1.818,-1.0973 0.03,0.2405 -0.015,0.5562 -0.225,0.6313 0.361,0.118 0.836,-0.1508 1.322,-0.8717 0.193,-0.286 0.239,-0.4761 0.206,-0.6911 0.482,0.0182 0.831,-0.1028 1.207,-0.4212 0.391,-0.3306 0.812,0.2706 1.473,-0.1503 0.662,-0.4208 1.233,-0.0601 1.593,-0.2705 0.361,-0.2104 0.857,0.0751 1.248,-0.1653 0.391,-0.2405 0.997,0.1177 1.644,-0.3933 1.018,0.3729 2.206,1.0639 5.12,0.5285 1.67,-0.3069 2.194,0.2555 2.194,1.0221 0,0.526 -0.308,0.5718 -0.541,0.5862 -0.929,0.0571 -1.328,-0.3478 -1.695,-0.218 -0.246,0.0876 -0.396,0.4876 -0.04,0.6251 -0.294,0.15 -0.256,0.4313 -0.106,0.5344 0.15,0.1031 0.537,0.0094 0.8,-0.1125 -0.338,0.1531 -0.688,0.4281 -0.488,0.7156 0.121,0.1745 0.427,0.3224 0.713,-0.0499 0.287,-0.3751 0.812,-0.6876 1.146,-0.638 z"
           id="top leopard body"
           style="fill:#f9dd16;fill-opacity:1;stroke-width:0.13176157" />
        <path
           d="m 112.144,24.2636 c -0.842,-0.3456 -1.126,-0.3551 -0.932,0.3307 0.083,0.2931 0.285,0.7064 0.488,0.8943 0.008,-0.2855 0.113,-1.0746 0.444,-1.225 z"
           id="top leopard left ear"
           style="fill:#f9dd16;fill-opacity:1;stroke-width:0.13176157" />
        <path
           d="m 114.774,24.2636 c 0.842,-0.3456 1.126,-0.3551 0.932,0.3307 -0.083,0.2931 -0.286,0.7064 -0.489,0.8943 -0.007,-0.2855 -0.112,-1.0746 -0.443,-1.225 z"
           id="top leopard right ear"
           style="fill:#f9dd16;fill-opacity:1;stroke-width:0.13176157" />
        <path
           d="m 113.463,23.8016 c 1.593,0 1.792,0.7477 1.784,1.6795 -0.007,1.007 -0.548,0.6613 -0.856,1.9539 -0.12,0.5054 -0.523,0.5336 -0.928,0.5336 -0.406,0 -0.808,-0.0282 -0.929,-0.5336 -0.307,-1.2926 -0.849,-0.9469 -0.856,-1.9539 -0.008,-0.9318 0.191,-1.6795 1.785,-1.6795 z"
           id="top leopard head"
           style="fill:#f9dd16;fill-opacity:1;stroke-width:0.13176157" />
        <path
           d="m 109.356,27.4951 c -0.406,-0.2405 -0.668,-0.0741 -0.833,-0.0289 0.526,0.1352 0.547,0.8105 1.75,1.1261 -0.271,-0.0751 -0.421,0.0752 -0.677,-0.0601 0.496,0.3908 1.052,0.8433 2.225,0.8567 0.654,0.0075 0.202,0.3457 -0.226,0.1503 0.444,0.4584 1.323,0.0827 1.879,0.9169 0.105,-0.6463 -1.037,-1.6684 -0.511,-2.4048 -1.622,-0.0691 -1.755,-0.9681 -2.69,-1.6834 -0.761,-0.5816 -0.829,-1.1728 -1.165,-2.2797 -0.153,-0.5012 -0.74,-0.8137 -1.065,-0.695 -0.284,0.1038 -0.388,0.3501 -0.144,0.5344 0.244,0.1844 0.556,0.2094 0.623,0.6766 -0.317,-0.3797 -0.792,-0.5172 -1.02,-0.2797 -0.139,0.1446 -0.083,0.482 0.216,0.5126 0.487,0.05 0.137,0.525 0.691,0.9897 -0.491,-0.5522 -0.916,-0.6022 -1.179,-0.3022 -0.157,0.1797 0,0.5 0.338,0.4657 0.489,-0.0498 1.056,1.1907 1.788,1.5048 z"
           id="top leopard arm"
           style="fill:#f9dd16;fill-opacity:1;stroke-width:0.13176157" />
        <path
           d="m 122.432,32.1394 c -0.256,0.0451 -0.18,0.466 -0.526,0.4961 0.827,0 1.247,-0.1955 1.638,-0.5111 -0.18,0.1052 -0.255,0.3758 -0.27,0.526 0.436,-0.3757 1.473,-0.4057 2.014,-0.3005 0.541,0.1052 0.631,-0.1503 0.826,-0.496 0.196,-0.3457 -0.075,-0.5411 -0.345,-0.8116 -0.271,-0.2706 -0.331,-0.6463 -0.271,-1.2776 -1.443,-1.9238 -4.028,-0.992 -4.058,-0.1503 0.932,1.0821 1.052,0.9619 1.834,1.1122 0.781,0.1503 1.26,0.1499 0.736,0.5862 -0.18,0.1503 -0.932,0.0797 -1.518,0.1052 -1.311,0.057 -1.911,-0.9056 -2.298,-0.4056 -0.319,0.4112 0.01,0.5928 0.66,0.5709 -0.45,0.0032 -1.047,-0.0211 -0.945,0.398 0.172,0.7062 0.847,-0.1313 1.11,0.1593 -0.225,-0.0531 -0.575,0.0844 -0.588,0.2969 -0.012,0.2126 0.5,0.4875 1.063,0.0406 0.308,-0.245 0.701,-0.3367 0.938,-0.3387 z"
           id="top leopard leg"
           style="fill:#f9dd16;fill-opacity:1;stroke-width:0.13176157" />
        <path
           d="m 129.24,42.7215 c -0.284,0.0676 -0.284,0.4329 -0.433,0.4329 0.738,-0.0203 1.096,-0.2232 1.319,-0.5952 -0.162,0.1487 -0.02,0.4329 -0.074,0.5005 0.541,-0.1894 0.798,-0.6493 0.609,-0.9605 0.121,0.1759 0.473,0.2706 0.581,0.2841 -0.378,-0.2976 -0.108,-0.9739 -0.717,-1.3256 0.203,-0.0136 0.596,0.2164 0.704,0.4869 -0.095,-0.6087 -0.19,-1.0009 -0.69,-1.3391 0.054,0.0609 0.338,0.1149 0.46,0 -0.325,-0.203 -0.42,-0.5411 -0.392,-0.7576 0.037,-0.3028 -0.163,-0.3652 -0.541,-0.2705 -0.342,0.0853 -1.123,0.1353 -1.583,0.1353 -0.947,0 -1.772,0 -2.557,-0.5411 1.177,0.487 2.679,-0.5411 2.679,-1.3933 0,-0.9469 -1.164,-1.7179 -3.517,-1.2039 -2.354,0.514 -5.222,0.2976 -5.222,-0.487 0,-0.7845 2.056,-0.8928 3.111,-0.7304 1.055,0.1623 1.813,0.2705 3.788,-0.4329 -0.487,0.1894 -2.056,0.2435 -3.301,-0.1082 -1.244,-0.3517 -4.301,-0.3517 -4.328,1.2986 -0.027,1.6503 3.255,1.5 6.087,1.0822 1.65,-0.2435 2.516,-0.0812 2.516,0.4599 0,0.514 -1.515,0.7304 -2.679,0.5951 -1.163,-0.1352 -2.353,-0.1081 -3.733,0.2976 -1.152,0.3389 -1.948,0 -3.219,0.2165 -0.616,0.1048 -2.111,0 -2.848,-1.2175 -0.453,0.3247 -1.819,1.0044 -2.049,1.6672 -0.325,0.6088 -0.108,1.2141 0.324,1.8093 0.545,0.7491 -0.27,0.6358 -0.852,0.6628 -0.797,0.0371 -1.864,-0.0847 -2.421,-0.7169 -0.494,-0.5602 -1.15,-1.0092 -1.675,-0.594 -0.27,0.2138 -0.011,0.4951 0.203,0.4163 0.211,-0.0778 0.461,0.0788 0.687,0.1777 -0.361,-0.1552 -0.758,-0.0348 -0.912,0.1036 -0.214,0.1912 0.045,0.5566 0.303,0.4275 0.203,-0.1013 0.619,-0.1688 0.889,0.0788 -0.292,-0.0563 -0.596,-0.0444 -0.742,0.1125 -0.147,0.1568 -0.034,0.3852 0.281,0.3712 0.506,-0.0225 0.636,0.3319 1.142,0.2591 -0.311,0.0406 -0.487,0.2029 -0.568,0.3247 0.473,-0.2165 0.995,0.3669 1.609,0.2299 -0.239,0.0986 -0.625,0.3339 -0.622,0.5141 0.365,-0.4194 2.814,0.3246 2.868,-0.5953 0.067,0.1894 0.054,0.4735 -0.135,0.717 0.313,-0.1894 1.325,-0.257 1.636,-0.9875 0.027,0.2165 -0.013,0.5005 -0.203,0.5682 0.326,0.1062 0.753,-0.1358 1.191,-0.7846 0.173,-0.2574 0.214,-0.4285 0.185,-0.6219 0.433,0.0163 0.748,-0.0926 1.086,-0.3791 0.352,-0.2976 0.731,0.2435 1.326,-0.1353 0.595,-0.3788 1.109,-0.0541 1.434,-0.2435 0.325,-0.1894 0.771,0.0676 1.123,-0.1488 0.351,-0.2164 0.897,0.106 1.479,-0.354 0.917,0.3357 1.985,0.9576 4.608,0.4758 1.503,-0.2763 1.975,0.2299 1.975,0.9198 0,0.4734 -0.278,0.5147 -0.487,0.5276 -0.836,0.0514 -1.196,-0.313 -1.525,-0.1962 -0.222,0.0788 -0.357,0.4388 -0.037,0.5626 -0.264,0.135 -0.23,0.3881 -0.095,0.4809 0.135,0.0929 0.483,0.0085 0.72,-0.1012 -0.304,0.1378 -0.619,0.3853 -0.439,0.6441 0.109,0.157 0.384,0.2901 0.641,-0.045 0.259,-0.3375 0.731,-0.6188 1.032,-0.5742 z"
           id="middle leopard body"
           style="fill:#f9dd16;fill-opacity:1;stroke-width:0.13176157" />
        <path
           d="m 112.582,35.5792 c -0.758,-0.3111 -1.014,-0.3197 -0.839,0.2976 0.075,0.2638 0.257,0.6358 0.44,0.8049 0.007,-0.257 0.101,-0.9672 0.399,-1.1025 z"
           id="middle leopard left ear"
           style="fill:#f9dd16;fill-opacity:1;stroke-width:0.13176157" />
        <path
           d="m 114.949,35.5792 c 0.758,-0.3111 1.014,-0.3197 0.839,0.2976 -0.075,0.2638 -0.257,0.6358 -0.44,0.8049 -0.007,-0.257 -0.101,-0.9672 -0.399,-1.1025 z"
           id="middle leopard right ear"
           style="fill:#f9dd16;fill-opacity:1;stroke-width:0.13176157" />
        <path
           d="m 113.769,35.1634 c 1.434,0 1.613,0.6729 1.606,1.5115 -0.007,0.9063 -0.494,0.5952 -0.771,1.7585 -0.108,0.4549 -0.47,0.4802 -0.835,0.4802 -0.366,0 -0.727,-0.0253 -0.836,-0.4802 -0.277,-1.1633 -0.764,-0.8522 -0.771,-1.7585 -0.006,-0.8386 0.173,-1.5115 1.607,-1.5115 z"
           id="middle leopard head"
           style="fill:#f9dd16;fill-opacity:1;stroke-width:0.13176157" />
        <path
           d="m 110.073,38.4875 c -0.366,-0.2164 -0.601,-0.0667 -0.75,-0.0261 0.473,0.1218 0.492,0.7295 1.575,1.0136 -0.244,-0.0676 -0.379,0.0676 -0.609,-0.0541 0.446,0.3517 0.947,0.7589 2.002,0.7711 0.588,0.0067 0.183,0.3111 -0.203,0.1352 0.399,0.4126 1.19,0.0744 1.691,0.8252 0.095,-0.5817 -0.933,-1.5016 -0.46,-2.1643 -1.46,-0.0622 -1.579,-0.8713 -2.421,-1.5151 -0.685,-0.5235 -0.746,-1.0555 -1.049,-2.0517 -0.137,-0.4511 -0.666,-0.7323 -0.958,-0.6255 -0.256,0.0934 -0.349,0.315 -0.13,0.481 0.22,0.1659 0.501,0.1884 0.561,0.6089 -0.285,-0.3417 -0.713,-0.4654 -0.918,-0.2517 -0.125,0.1301 -0.074,0.4337 0.194,0.4613 0.439,0.045 0.124,0.4725 0.622,0.8907 -0.442,-0.497 -0.824,-0.5419 -1.06,-0.2719 -0.142,0.1617 0,0.45 0.303,0.419 0.44,-0.0448 0.951,1.0717 1.61,1.3544 z"
           id="middle leopard arm"
           style="fill:#f9dd16;fill-opacity:1;stroke-width:0.13176157" />
        <path
           d="m 121.841,42.6674 c -0.23,0.0405 -0.162,0.4193 -0.473,0.4464 0.744,0 1.122,-0.1759 1.474,-0.4599 -0.162,0.0946 -0.23,0.3382 -0.243,0.4734 0.392,-0.3382 1.325,-0.3652 1.812,-0.2705 0.487,0.0947 0.568,-0.1353 0.744,-0.4464 0.176,-0.3112 -0.067,-0.487 -0.311,-0.7305 -0.243,-0.2435 -0.298,-0.5816 -0.243,-1.1498 -1.299,-1.7314 -3.626,-0.8927 -3.653,-0.1353 0.839,0.974 0.947,0.8658 1.651,1.0011 0.703,0.1352 1.134,0.1348 0.662,0.5275 -0.162,0.1353 -0.838,0.0717 -1.366,0.0947 -1.18,0.0513 -1.72,-0.815 -2.069,-0.365 -0.286,0.3701 0.01,0.5335 0.595,0.5138 -0.405,0.0028 -0.942,-0.019 -0.851,0.3581 0.155,0.6357 0.763,-0.1181 0.999,0.1435 -0.203,-0.0479 -0.518,0.0759 -0.529,0.2671 -0.011,0.1913 0.45,0.4388 0.957,0.0366 0.277,-0.2205 0.631,-0.3031 0.844,-0.3048 z"
           id="middle leopard leg"
           style="fill:#f9dd16;fill-opacity:1;stroke-width:0.13176157" />
        <path
           d="m 126.789,51.5733 c -0.21,0.0549 -0.21,0.3515 -0.32,0.3515 0.545,-0.0165 0.81,-0.1812 0.975,-0.4833 -0.12,0.1208 -0.015,0.3515 -0.055,0.4064 0.401,-0.1538 0.591,-0.5272 0.451,-0.7799 0.09,0.1428 0.35,0.2197 0.43,0.2307 -0.28,-0.2416 -0.08,-0.7908 -0.53,-1.0764 0.15,-0.011 0.44,0.1757 0.52,0.3954 -0.07,-0.4942 -0.14,-0.8128 -0.51,-1.0874 0.04,0.0495 0.25,0.0934 0.34,0 -0.24,-0.1647 -0.31,-0.4393 -0.29,-0.6151 0.028,-0.2459 -0.12,-0.2966 -0.401,-0.2196 -0.252,0.0692 -0.83,0.1098 -1.17,0.1098 -0.701,0 -1.311,0 -1.892,-0.4393 0.871,0.3953 1.982,-0.4394 1.982,-1.1314 0,-0.7689 -0.861,-1.3949 -2.602,-0.9775 -1.742,0.4173 -3.863,0.2416 -3.863,-0.3954 0,-0.6371 1.521,-0.725 2.301,-0.5932 0.781,0.1318 1.341,0.2197 2.803,-0.3515 -0.361,0.1538 -1.522,0.1977 -2.442,-0.0878 -0.921,-0.2856 -3.183,-0.2856 -3.203,1.0544 -0.02,1.34 2.409,1.218 4.504,0.8787 1.221,-0.1977 1.861,-0.0659 1.861,0.3735 0,0.4173 -1.121,0.5931 -1.981,0.4832 -0.861,-0.1098 -1.742,-0.0878 -2.763,0.2417 -0.852,0.2751 -1.441,0 -2.381,0.1758 -0.456,0.085 -1.562,0 -2.107,-0.9886 -0.335,0.2636 -1.346,0.8155 -1.516,1.3537 -0.24,0.4943 -0.08,0.9859 0.24,1.4691 0.403,0.6083 -0.2,0.5163 -0.63,0.5382 -0.59,0.0301 -1.38,-0.0687 -1.792,-0.5821 -0.365,-0.4549 -0.851,-0.8195 -1.239,-0.4823 -0.2,0.1736 -0.008,0.4019 0.15,0.338 0.156,-0.0632 0.341,0.0639 0.509,0.1443 -0.268,-0.126 -0.561,-0.0282 -0.676,0.0841 -0.158,0.1553 0.034,0.4519 0.225,0.3471 0.15,-0.0822 0.458,-0.137 0.658,0.064 -0.217,-0.0457 -0.442,-0.0361 -0.55,0.0913 -0.108,0.1274 -0.024,0.3129 0.209,0.3015 0.374,-0.0183 0.47,0.2695 0.844,0.2104 -0.23,0.0329 -0.36,0.1647 -0.42,0.2636 0.35,-0.1758 0.737,0.2979 1.191,0.1867 -0.177,0.08 -0.463,0.2711 -0.46,0.4174 0.27,-0.3405 2.081,0.2636 2.121,-0.4833 0.05,0.1538 0.04,0.3844 -0.1,0.5821 0.232,-0.1537 0.981,-0.2086 1.211,-0.8018 0.02,0.1758 -0.01,0.4064 -0.15,0.4614 0.241,0.0862 0.557,-0.1102 0.881,-0.6371 0.128,-0.209 0.158,-0.3479 0.137,-0.505 0.32,0.0132 0.553,-0.0751 0.803,-0.3078 0.261,-0.2416 0.541,0.1977 0.981,-0.1098 0.44,-0.3076 0.821,-0.044 1.061,-0.1978 0.24,-0.1537 0.57,0.0549 0.831,-0.1208 0.26,-0.1757 0.664,0.0861 1.094,-0.2874 0.678,0.2726 1.469,0.7775 3.409,0.3863 1.112,-0.2243 1.461,0.1867 1.461,0.7469 0,0.3844 -0.205,0.4179 -0.36,0.4284 -0.619,0.0417 -0.885,-0.2542 -1.128,-0.1593 -0.165,0.0639 -0.265,0.3563 -0.027,0.4567 -0.196,0.1097 -0.171,0.3152 -0.071,0.3906 0.1,0.0754 0.358,0.0068 0.533,-0.0822 -0.225,0.1119 -0.458,0.3129 -0.325,0.523 0.081,0.1274 0.284,0.2356 0.474,-0.0366 0.192,-0.274 0.541,-0.5024 0.764,-0.4662 z"
           id="bottom leopard body"
           style="fill:#f9dd16;fill-opacity:1;stroke-width:0.13176157" />
        <path
           d="m 114.464,45.7739 c -0.56,-0.2526 -0.749,-0.2596 -0.62,0.2416 0.055,0.2142 0.19,0.5163 0.325,0.6536 0.005,-0.2087 0.075,-0.7854 0.295,-0.8952 z"
           id="bottom leopard left ear"
           style="fill:#f9dd16;fill-opacity:1;stroke-width:0.13176157" />
        <path
           d="m 116.216,45.7739 c 0.56,-0.2526 0.75,-0.2596 0.621,0.2416 -0.056,0.2142 -0.191,0.5163 -0.326,0.6536 -0.005,-0.2087 -0.075,-0.7854 -0.295,-0.8952 z"
           id="bottom leopard right ear"
           style="fill:#f9dd16;fill-opacity:1;stroke-width:0.13176157" />
        <path
           d="m 115.342,45.4362 c 1.061,0 1.194,0.5464 1.189,1.2274 -0.005,0.7359 -0.365,0.4832 -0.57,1.4279 -0.08,0.3693 -0.348,0.3898 -0.619,0.3898 -0.27,0 -0.537,-0.0205 -0.617,-0.3898 -0.205,-0.9447 -0.566,-0.692 -0.571,-1.4279 -0.005,-0.681 0.128,-1.2274 1.188,-1.2274 z"
           id="bottom leopard head"
           style="fill:#f9dd16;fill-opacity:1;stroke-width:0.13176157" />
        <path
           d="m 112.608,48.1354 c -0.27,-0.1758 -0.444,-0.0542 -0.555,-0.0212 0.351,0.0988 0.365,0.5923 1.166,0.823 -0.181,-0.0549 -0.281,0.0549 -0.451,-0.044 0.33,0.2857 0.701,0.6163 1.481,0.6261 0.436,0.0055 0.135,0.2527 -0.15,0.1099 0.295,0.335 0.881,0.0604 1.251,0.67 0.07,-0.4723 -0.69,-1.2192 -0.34,-1.7574 -1.08,-0.0505 -1.169,-0.7075 -1.791,-1.2302 -0.507,-0.425 -0.552,-0.857 -0.776,-1.6659 -0.102,-0.3663 -0.493,-0.5947 -0.709,-0.5079 -0.189,0.0758 -0.258,0.2558 -0.096,0.3905 0.162,0.1348 0.371,0.153 0.415,0.4944 -0.211,-0.2774 -0.527,-0.3779 -0.679,-0.2043 -0.093,0.1056 -0.055,0.3521 0.143,0.3745 0.325,0.0366 0.092,0.3837 0.461,0.7233 -0.327,-0.4036 -0.61,-0.4401 -0.785,-0.2209 -0.105,0.1314 0,0.3655 0.225,0.3403 0.325,-0.0363 0.703,0.8702 1.19,1.0998 z"
           id="bottom leopard arm"
           style="fill:#f9dd16;fill-opacity:1;stroke-width:0.13176157" />
        <path
           d="m 121.315,51.5294 c -0.17,0.0329 -0.12,0.3405 -0.35,0.3624 0.55,0 0.83,-0.1428 1.09,-0.3734 -0.12,0.0769 -0.17,0.2746 -0.18,0.3844 0.29,-0.2746 0.981,-0.2965 1.341,-0.2196 0.361,0.0768 0.421,-0.1099 0.551,-0.3625 0.13,-0.2527 -0.05,-0.3954 -0.231,-0.5931 -0.18,-0.1978 -0.22,-0.4723 -0.18,-0.9337 -0.96,-1.4059 -2.682,-0.7249 -2.702,-0.1098 0.621,0.7908 0.701,0.703 1.221,0.8128 0.521,0.1098 0.839,0.1095 0.491,0.4284 -0.12,0.1098 -0.621,0.0582 -1.011,0.0768 -0.873,0.0417 -1.273,-0.6617 -1.531,-0.2963 -0.212,0.3005 0.007,0.4332 0.44,0.4172 -0.3,0.0023 -0.697,-0.0155 -0.629,0.2908 0.114,0.5161 0.564,-0.096 0.739,0.1164 -0.15,-0.0388 -0.383,0.0617 -0.392,0.217 -0.008,0.1553 0.333,0.3563 0.708,0.0297 0.205,-0.1791 0.467,-0.2461 0.625,-0.2475 z"
           id="bottom leopard leg"
           style="fill:#f9dd16;fill-opacity:1;stroke-width:0.13176157" />
      </g>
      <g
         transform="matrix(3,0,0,3,-308.8556,-259.7129)"
         id="g66">
        <path
           id="path68"
           d="m 123.55,29.2061 c -0.469,-0.1716 -0.899,-0.2765 -1.449,-0.1629"
           style="fill:none;stroke:#000000;stroke-width:0.13176157" />
        <path
           id="path70"
           d="m 116.48,28.9831 c -0.386,0.8294 -0.152,1.2388 -0.095,1.6236"
           style="fill:none;stroke:#000000;stroke-width:0.13176157" />
      </g>
      <g
         transform="matrix(3,0,0,3,-308.8556,-259.7129)"
         id="g72">
        <path
           id="path74"
           d="m 112.37,25.0516 c 0.265,0.1325 0.414,-0.242 0.803,0.1556 -0.107,-0.116 -0.24,0.3083 -0.538,0.0267"
           style="fill:none;stroke:#000000;stroke-width:0.13176157" />
        <path
           id="path76"
           d="m 114.533,25.0516 c -0.265,0.1325 -0.414,-0.242 -0.803,0.1556 0.107,-0.116 0.24,0.3083 0.538,0.0267"
           style="fill:none;stroke:#000000;stroke-width:0.13176157" />
        <path
           id="path78"
           d="m 113.73,25.2072 c -0.091,0.0751 -0.1,-0.0599 -0.031,0.2948 0.128,0.6513 0.279,0.956 -0.248,0.956 -0.538,0 -0.375,-0.3047 -0.248,-0.956 0.07,-0.3547 0.061,-0.2197 -0.03,-0.2948"
           style="fill:none;stroke:#000000;stroke-width:0.13176157" />
      </g>
      <path
         transform="matrix(3,0,0,3,-308.8556,-259.7129)"
         id="path80"
         d="m 113.459,27.7056 c 0.428,0 0.676,-0.0075 0.609,-0.6087 -0.028,-0.2413 0.293,-0.3374 0.18,-0.729 0.12,0.4809 -0.789,0.435 -0.789,0.217 0,0.218 -0.909,0.2639 -0.789,-0.217 -0.113,0.3916 0.207,0.4877 0.18,0.729 -0.067,0.6012 0.181,0.6087 0.609,0.6087 z"
         style="fill:#ff0016;stroke:#000000;stroke-width:0.06588078" />
      <g
         transform="matrix(3,0,0,3,-308.8556,-259.7129)"
         id="g82">
        <path
           id="path84"
           d="m 113.074,26.4894 -1.028,-0.2868"
           style="fill:none;stroke:#000000;stroke-width:0.06588078" />
        <path
           id="path86"
           d="m 113.074,26.5428 -1.148,-0.0096"
           style="fill:none;stroke:#000000;stroke-width:0.06588078" />
        <path
           id="path88"
           d="m 113.085,26.6016 -0.979,0.2623"
           style="fill:none;stroke:#000000;stroke-width:0.06588078" />
        <path
           id="path90"
           d="m 113.844,26.4894 1.028,-0.2868"
           style="fill:none;stroke:#000000;stroke-width:0.06588078" />
        <path
           id="path92"
           d="m 113.844,26.5428 1.148,-0.0096"
           style="fill:none;stroke:#000000;stroke-width:0.06588078" />
        <path
           id="path94"
           d="m 113.833,26.6016 0.979,0.2623"
           style="fill:none;stroke:#000000;stroke-width:0.06588078" />
      </g>
      <g
         transform="matrix(3,0,0,3,-308.8556,-259.7129)"
         id="g96">
        <path
           id="path98"
           d="m 122.847,40.0273 c -0.421,-0.1543 -0.809,-0.2487 -1.304,-0.1465"
           style="fill:none;stroke:#000000;stroke-width:0.13176157" />
        <path
           id="path100"
           d="m 116.484,39.8267 c -0.347,0.7464 -0.137,1.1149 -0.085,1.4613"
           style="fill:none;stroke:#000000;stroke-width:0.13176157" />
      </g>
      <g
         transform="matrix(3,0,0,3,-308.8556,-259.7129)"
         id="g102">
        <path
           id="path104"
           d="m 112.785,36.2884 c 0.239,0.1192 0.373,-0.2178 0.723,0.14 -0.097,-0.1044 -0.216,0.2774 -0.484,0.024"
           style="fill:none;stroke:#000000;stroke-width:0.13176157" />
        <path
           id="path106"
           d="m 114.732,36.2884 c -0.239,0.1192 -0.373,-0.2178 -0.723,0.14 0.097,-0.1044 0.216,0.2774 0.484,0.024"
           style="fill:none;stroke:#000000;stroke-width:0.13176157" />
        <path
           id="path108"
           d="m 114.009,36.4284 c -0.081,0.0676 -0.09,-0.0539 -0.027,0.2653 0.115,0.5862 0.25,0.8604 -0.223,0.8604 -0.485,0 -0.339,-0.2742 -0.224,-0.8604 0.063,-0.3192 0.055,-0.1977 -0.027,-0.2653"
           style="fill:none;stroke:#000000;stroke-width:0.13176157" />
      </g>
      <path
         transform="matrix(3,0,0,3,-308.8556,-259.7129)"
         id="path110"
         d="m 113.765,38.6769 c 0.386,0 0.609,-0.0067 0.548,-0.5478 -0.024,-0.2172 0.264,-0.3036 0.163,-0.6561 0.108,0.4329 -0.711,0.3915 -0.711,0.1954 0,0.1961 -0.818,0.2375 -0.71,-0.1954 -0.101,0.3525 0.187,0.4389 0.162,0.6561 -0.06,0.5411 0.163,0.5478 0.548,0.5478 z"
         style="fill:#ff0016;stroke:#000000;stroke-width:0.06588078" />
      <g
         transform="matrix(3,0,0,3,-308.8556,-259.7129)"
         id="g112">
        <path
           id="path114"
           d="m 113.419,37.5824 -0.925,-0.2582"
           style="fill:none;stroke:#000000;stroke-width:0.06588078" />
        <path
           id="path116"
           d="m 113.419,37.6305 -1.033,-0.0087"
           style="fill:none;stroke:#000000;stroke-width:0.06588078" />
        <path
           id="path118"
           d="m 113.429,37.6833 -0.881,0.2361"
           style="fill:none;stroke:#000000;stroke-width:0.06588078" />
        <path
           id="path120"
           d="m 114.112,37.5824 0.925,-0.2582"
           style="fill:none;stroke:#000000;stroke-width:0.06588078" />
        <path
           id="path122"
           d="m 114.112,37.6305 1.033,-0.0087"
           style="fill:none;stroke:#000000;stroke-width:0.06588078" />
        <path
           id="path124"
           d="m 114.102,37.6833 0.881,0.2361"
           style="fill:none;stroke:#000000;stroke-width:0.06588078" />
      </g>
      <g
         transform="matrix(3,0,0,3,-308.8556,-259.7129)"
         id="g126">
        <path
           id="path128"
           d="m 122.059,49.3857 c -0.312,-0.1254 -0.599,-0.202 -0.964,-0.119"
           style="fill:none;stroke:#000000;stroke-width:0.13176157" />
        <path
           id="path130"
           d="m 117.352,49.2228 c -0.257,0.6061 -0.102,0.9052 -0.063,1.1865"
           style="fill:none;stroke:#000000;stroke-width:0.13176157" />
      </g>
      <g
         transform="matrix(3,0,0,3,-308.8556,-259.7129)"
         id="g132">
        <path
           id="path134"
           d="m 114.615,46.3497 c 0.177,0.0969 0.276,-0.1769 0.535,0.1137 -0.072,-0.0847 -0.16,0.2253 -0.358,0.0195"
           style="fill:none;stroke:#000000;stroke-width:0.13176157" />
        <path
           id="path136"
           d="m 116.055,46.3497 c -0.176,0.0969 -0.275,-0.1769 -0.535,0.1137 0.072,-0.0847 0.16,0.2253 0.359,0.0195"
           style="fill:none;stroke:#000000;stroke-width:0.13176157" />
        <path
           id="path138"
           d="m 115.52,46.4634 c -0.06,0.0549 -0.066,-0.0437 -0.02,0.2154 0.085,0.476 0.185,0.6987 -0.165,0.6987 -0.359,0 -0.25,-0.2227 -0.165,-0.6987 0.046,-0.2591 0.04,-0.1605 -0.02,-0.2154"
           style="fill:none;stroke:#000000;stroke-width:0.13176157" />
      </g>
      <path
         transform="matrix(3,0,0,3,-308.8556,-259.7129)"
         id="path140"
         d="m 115.34,48.2891 c 0.285,0 0.45,-0.0054 0.406,-0.4448 -0.019,-0.1763 0.195,-0.2465 0.12,-0.5327 0.08,0.3515 -0.526,0.3179 -0.526,0.1586 0,0.1593 -0.605,0.1929 -0.525,-0.1586 -0.075,0.2862 0.138,0.3564 0.12,0.5327 -0.045,0.4394 0.12,0.4448 0.405,0.4448 z"
         style="fill:#ff0016;stroke:#000000;stroke-width:0.06588078" />
      <g
         transform="matrix(3,0,0,3,-308.8556,-259.7129)"
         id="g142">
        <path
           id="path144"
           d="m 115.084,47.4004 -0.685,-0.2096"
           style="fill:none;stroke:#000000;stroke-width:0.06588078" />
        <path
           id="path146"
           d="m 115.084,47.4394 -0.765,-0.007"
           style="fill:none;stroke:#000000;stroke-width:0.06588078" />
        <path
           id="path148"
           d="m 115.091,47.4824 -0.651,0.1917"
           style="fill:none;stroke:#000000;stroke-width:0.06588078" />
        <path
           id="path150"
           d="m 115.596,47.4004 0.685,-0.2096"
           style="fill:none;stroke:#000000;stroke-width:0.06588078" />
        <path
           id="path152"
           d="m 115.596,47.4394 0.765,-0.007"
           style="fill:none;stroke:#000000;stroke-width:0.06588078" />
        <path
           id="path154"
           d="m 115.589,47.4824 0.652,0.1917"
           style="fill:none;stroke:#000000;stroke-width:0.06588078" />
      </g>
      <g
         transform="matrix(3,0,0,3,-308.8556,-259.7129)"
         id="blue claws and tongues"
         style="fill:#0070ff;stroke:#000000;stroke-width:0.0137032">
        <g
           id="top claws and tongue"
           style="stroke-width:0.0137032">
          <path
             id="path160"
             d="m 108.134,23.4136 c -0.299,-0.3723 -1.048,-0.0579 -1.063,0.404 0.253,-0.2994 0.666,0.1319 0.891,0.0412 0.156,-0.0628 0.293,-0.2937 0.172,-0.4452 z"
             style="fill:#0051ba;fill-opacity:1;stroke-width:0.0137032" />
          <path
             id="path162"
             d="m 107.746,24.2949 c -0.299,-0.3723 -1.047,-0.0579 -1.062,0.404 0.252,-0.2994 0.665,0.1319 0.891,0.0412 0.156,-0.0627 0.293,-0.2937 0.171,-0.4452 z"
             style="fill:#0051ba;fill-opacity:1;stroke-width:0.0137032" />
          <path
             id="path164"
             d="m 107.551,25.4788 c -0.339,-0.3363 -1.047,0.0603 -1.01,0.5209 0.218,-0.3259 0.676,0.0563 0.89,-0.0593 0.148,-0.0799 0.258,-0.3247 0.12,-0.4616 z"
             style="fill:#0051ba;fill-opacity:1;stroke-width:0.0137032" />
          <path
             id="path166"
             d="m 107.908,29.1479 c -0.376,-0.295 -1.033,0.1803 -0.944,0.6337 0.179,-0.3487 0.678,-0.0219 0.877,-0.1612 0.138,-0.0965 0.22,-0.3523 0.067,-0.4725 z"
             style="fill:#0051ba;fill-opacity:1;stroke-width:0.0137032" />
          <path
             id="path168"
             d="m 107.889,29.9509 c -0.448,-0.1652 -0.928,0.4894 -0.703,0.8933 0.062,-0.3868 0.638,-0.2294 0.785,-0.4234 0.102,-0.1342 0.1,-0.4026 -0.082,-0.4699 z"
             style="fill:#0051ba;fill-opacity:1;stroke-width:0.0137032" />
          <path
             id="path170"
             d="m 108.464,30.551 c -0.448,-0.1653 -0.928,0.4893 -0.704,0.8933 0.063,-0.3869 0.639,-0.2295 0.786,-0.4235 0.102,-0.1342 0.1,-0.4026 -0.082,-0.4698 z"
             style="fill:#0051ba;fill-opacity:1;stroke-width:0.0137032" />
          <path
             id="path172"
             d="m 120.202,31.7135 c -0.448,-0.1652 -0.928,0.4894 -0.703,0.8933 0.063,-0.3868 0.638,-0.2294 0.785,-0.4234 0.102,-0.1342 0.1,-0.4026 -0.082,-0.4699 z"
             style="fill:#0051ba;fill-opacity:1;stroke-width:0.0137032" />
          <path
             id="path174"
             d="m 120.807,32.2581 c -0.464,-0.1132 -0.866,0.5918 -0.597,0.9675 0.018,-0.3915 0.608,-0.3006 0.732,-0.5101 0.086,-0.1449 0.054,-0.4114 -0.135,-0.4574 z"
             style="fill:#0051ba;fill-opacity:1;stroke-width:0.0137032" />
          <path
             id="path176"
             d="m 120.381,30.9425 c -0.414,-0.239 -0.998,0.3245 -0.845,0.7607 0.128,-0.3705 0.668,-0.1175 0.846,-0.2836 0.123,-0.115 0.167,-0.3798 -0.001,-0.4771 z"
             style="fill:#0051ba;fill-opacity:1;stroke-width:0.0137032" />
          <path
             id="path178"
             d="m 128.732,31.883 c -0.464,-0.1131 -0.866,0.5918 -0.597,0.9676 0.019,-0.3915 0.609,-0.3006 0.732,-0.5101 0.086,-0.1449 0.054,-0.4114 -0.135,-0.4575 z"
             style="fill:#0051ba;fill-opacity:1;stroke-width:0.0137032" />
          <path
             id="path180"
             d="m 128.746,31.1458 c -0.421,-0.2246 -0.985,0.3587 -0.818,0.7894 0.115,-0.3747 0.664,-0.1404 0.836,-0.3126 0.119,-0.1192 0.154,-0.3853 -0.018,-0.4768 z"
             style="fill:#0051ba;fill-opacity:1;stroke-width:0.0137032" />
          <path
             id="path182"
             d="m 129.072,32.5419 c -0.468,-0.0928 -0.839,0.6291 -0.554,0.9927 0.002,-0.3919 0.595,-0.327 0.709,-0.5416 0.08,-0.1486 0.036,-0.4134 -0.155,-0.4511 z"
             style="fill:#0051ba;fill-opacity:1;stroke-width:0.0137032" />
          <path
             id="path184"
             d="m 113.493,27.3452 c 0.294,0 0.413,0.0858 0.413,0.6169 0,1.1252 -0.013,1.609 -0.375,1.609 -0.363,0 -0.338,-0.4597 -0.338,-1.2858 0,-0.431 0,-0.6465 -0.087,-0.6106 0,-0.2812 0.125,-0.3295 0.387,-0.3295 z"
             style="fill:#0051ba;fill-opacity:1;stroke-width:0.0137032" />
        </g>
        <g
           id="g186"
           style="stroke-width:0.0137032">
          <path
             id="path188"
             d="m 108.973,34.8141 c -0.269,-0.3349 -0.943,-0.052 -0.957,0.3637 0.228,-0.2694 0.599,0.1187 0.802,0.0371 0.141,-0.0565 0.264,-0.2644 0.155,-0.4008 z"
             style="fill:#0051ba;fill-opacity:1;stroke-width:0.0137032" />
          <path
             id="path190"
             d="m 108.624,35.6073 c -0.269,-0.335 -0.943,-0.052 -0.956,0.3636 0.227,-0.2694 0.598,0.1188 0.802,0.0371 0.14,-0.0565 0.263,-0.2643 0.154,-0.4007 z"
             style="fill:#0051ba;fill-opacity:1;stroke-width:0.0137032" />
          <path
             id="path192"
             d="m 108.449,36.6728 c -0.306,-0.3026 -0.943,0.0543 -0.91,0.4689 0.196,-0.2933 0.609,0.0506 0.801,-0.0534 0.134,-0.0719 0.233,-0.2923 0.109,-0.4155 z"
             style="fill:#0051ba;fill-opacity:1;stroke-width:0.0137032" />
          <path
             id="path194"
             d="m 108.769,39.9751 c -0.338,-0.2656 -0.929,0.1622 -0.849,0.5702 0.161,-0.3138 0.61,-0.0196 0.79,-0.1451 0.124,-0.0868 0.197,-0.317 0.059,-0.4251 z"
             style="fill:#0051ba;fill-opacity:1;stroke-width:0.0137032" />
          <path
             id="path196"
             d="m 108.752,40.6977 c -0.403,-0.1487 -0.835,0.4405 -0.633,0.804 0.057,-0.3482 0.575,-0.2065 0.707,-0.3811 0.092,-0.1208 0.09,-0.3623 -0.074,-0.4229 z"
             style="fill:#0051ba;fill-opacity:1;stroke-width:0.0137032" />
          <path
             id="path198"
             d="m 109.27,41.2378 c -0.404,-0.1488 -0.835,0.4404 -0.633,0.8039 0.056,-0.3481 0.574,-0.2065 0.707,-0.3811 0.091,-0.1207 0.09,-0.3623 -0.074,-0.4228 z"
             style="fill:#0051ba;fill-opacity:1;stroke-width:0.0137032" />
          <path
             id="path200"
             d="m 119.834,42.2841 c -0.403,-0.1488 -0.835,0.4404 -0.633,0.8039 0.057,-0.3481 0.575,-0.2065 0.707,-0.381 0.092,-0.1209 0.09,-0.3624 -0.074,-0.4229 z"
             style="fill:#0051ba;fill-opacity:1;stroke-width:0.0137032" />
          <path
             id="path202"
             d="m 120.378,42.7741 c -0.417,-0.1018 -0.779,0.5327 -0.537,0.8709 0.017,-0.3524 0.548,-0.2706 0.659,-0.4592 0.077,-0.1304 0.048,-0.3702 -0.122,-0.4117 z"
             style="fill:#0051ba;fill-opacity:1;stroke-width:0.0137032" />
          <path
             id="path204"
             d="m 119.995,41.5901 c -0.372,-0.215 -0.898,0.2921 -0.76,0.6847 0.115,-0.3335 0.601,-0.1058 0.761,-0.2553 0.111,-0.1035 0.15,-0.3418 -10e-4,-0.4294 z"
             style="fill:#0051ba;fill-opacity:1;stroke-width:0.0137032" />
          <path
             id="path206"
             d="m 127.511,42.4366 c -0.417,-0.1018 -0.779,0.5326 -0.537,0.8708 0.017,-0.3523 0.547,-0.2706 0.659,-0.4591 0.077,-0.1304 0.048,-0.3702 -0.122,-0.4117 z"
             style="fill:#0051ba;fill-opacity:1;stroke-width:0.0137032" />
          <path
             id="path208"
             d="m 127.524,41.7732 c -0.379,-0.2022 -0.887,0.3227 -0.736,0.7104 0.103,-0.3373 0.597,-0.1264 0.752,-0.2814 0.107,-0.1072 0.138,-0.3467 -0.016,-0.429 z"
             style="fill:#0051ba;fill-opacity:1;stroke-width:0.0137032" />
          <path
             id="path210"
             d="m 127.817,43.0296 c -0.421,-0.0835 -0.755,0.5661 -0.498,0.8934 10e-4,-0.3527 0.535,-0.2943 0.638,-0.4875 0.071,-0.1336 0.032,-0.3719 -0.14,-0.4059 z"
             style="fill:#0051ba;fill-opacity:1;stroke-width:0.0137032" />
          <path
             id="path212"
             d="m 113.796,38.3526 c 0.265,0 0.371,0.0772 0.371,0.5552 0,1.0127 -0.011,1.4481 -0.337,1.4481 -0.326,0 -0.304,-0.4137 -0.304,-1.1572 0,-0.3879 0,-0.5819 -0.079,-0.5495 0,-0.2532 0.113,-0.2966 0.349,-0.2966 z"
             style="fill:#0051ba;fill-opacity:1;stroke-width:0.0137032" />
        </g>
        <g
           id="g214"
           style="stroke-width:0.0137032">
          <path
             id="path216"
             d="m 111.794,45.1526 c -0.199,-0.272 -0.697,-0.0422 -0.707,0.2953 0.168,-0.2188 0.443,0.0964 0.593,0.0301 0.104,-0.0458 0.195,-0.2146 0.114,-0.3254 z"
             style="fill:#0051ba;fill-opacity:1;stroke-width:0.0137032" />
          <path
             id="path218"
             d="m 111.536,45.7967 c -0.199,-0.272 -0.697,-0.0423 -0.707,0.2952 0.168,-0.2187 0.443,0.0965 0.593,0.0302 0.104,-0.0459 0.195,-0.2147 0.114,-0.3254 z"
             style="fill:#0051ba;fill-opacity:1;stroke-width:0.0137032" />
          <path
             id="path220"
             d="m 111.407,46.6619 c -0.226,-0.2458 -0.697,0.044 -0.673,0.3807 0.145,-0.2382 0.45,0.041 0.593,-0.0434 0.098,-0.0584 0.171,-0.2373 0.08,-0.3373 z"
             style="fill:#0051ba;fill-opacity:1;stroke-width:0.0137032" />
          <path
             id="path222"
             d="m 111.644,49.3432 c -0.25,-0.2156 -0.688,0.1318 -0.628,0.4631 0.119,-0.2549 0.451,-0.016 0.584,-0.1178 0.092,-0.0705 0.146,-0.2575 0.044,-0.3453 z"
             style="fill:#0051ba;fill-opacity:1;stroke-width:0.0137032" />
          <path
             id="path224"
             d="m 111.631,49.93 c -0.298,-0.1207 -0.617,0.3577 -0.468,0.6529 0.042,-0.2828 0.425,-0.1677 0.523,-0.3095 0.068,-0.0981 0.067,-0.2942 -0.055,-0.3434 z"
             style="fill:#0051ba;fill-opacity:1;stroke-width:0.0137032" />
          <path
             id="path226"
             d="m 112.014,50.3685 c -0.298,-0.1207 -0.617,0.3577 -0.468,0.6529 0.042,-0.2828 0.425,-0.1677 0.523,-0.3095 0.068,-0.0981 0.066,-0.2942 -0.055,-0.3434 z"
             style="fill:#0051ba;fill-opacity:1;stroke-width:0.0137032" />
          <path
             id="path228"
             d="m 119.83,51.2181 c -0.298,-0.1207 -0.618,0.3576 -0.468,0.6528 0.042,-0.2827 0.425,-0.1676 0.523,-0.3094 0.067,-0.0981 0.066,-0.2942 -0.055,-0.3434 z"
             style="fill:#0051ba;fill-opacity:1;stroke-width:0.0137032" />
          <path
             id="path230"
             d="m 120.233,51.6161 c -0.309,-0.0827 -0.577,0.4324 -0.398,0.707 0.012,-0.2861 0.405,-0.2197 0.488,-0.3728 0.057,-0.1059 0.035,-0.3006 -0.09,-0.3342 z"
             style="fill:#0051ba;fill-opacity:1;stroke-width:0.0137032" />
          <path
             id="path232"
             d="m 119.949,50.6547 c -0.275,-0.1747 -0.664,0.2371 -0.562,0.5559 0.084,-0.2708 0.444,-0.0859 0.563,-0.2073 0.082,-0.0841 0.111,-0.2775 -0.001,-0.3486 z"
             style="fill:#0051ba;fill-opacity:1;stroke-width:0.0137032" />
          <path
             id="path234"
             d="m 125.51,51.342 c -0.309,-0.0827 -0.577,0.4325 -0.398,0.7071 0.013,-0.2861 0.405,-0.2198 0.488,-0.3728 0.057,-0.1059 0.035,-0.3006 -0.09,-0.3343 z"
             style="fill:#0051ba;fill-opacity:1;stroke-width:0.0137032" />
          <path
             id="path236"
             d="m 125.519,50.8033 c -0.28,-0.1642 -0.656,0.2621 -0.545,0.5768 0.077,-0.2738 0.442,-0.1026 0.557,-0.2285 0.079,-0.087 0.102,-0.2815 -0.012,-0.3483 z"
             style="fill:#0051ba;fill-opacity:1;stroke-width:0.0137032" />
          <path
             id="path238"
             d="m 125.736,51.8235 c -0.312,-0.0679 -0.559,0.4597 -0.369,0.7254 10e-4,-0.2864 0.396,-0.2389 0.472,-0.3958 0.053,-0.1085 0.024,-0.302 -0.103,-0.3296 z"
             style="fill:#0051ba;fill-opacity:1;stroke-width:0.0137032" />
          <path
             id="path240"
             d="m 115.363,48.0258 c 0.196,0 0.275,0.0627 0.275,0.4508 0,0.8223 -0.009,1.1759 -0.25,1.1759 -0.241,0 -0.225,-0.3359 -0.225,-0.9396 0,-0.315 0,-0.4725 -0.058,-0.4463 0,-0.2055 0.083,-0.2408 0.258,-0.2408 z"
             style="fill:#0051ba;fill-opacity:1;stroke-width:0.0137032" />
        </g>
      </g>
    </g>
  </g>
</svg>
