<?xml version="1.0" encoding="UTF-8" standalone="no"?>
<!-- Created with Inkscape (http://www.inkscape.org/) -->

<svg
   xmlns:dc="http://purl.org/dc/elements/1.1/"
   xmlns:cc="http://creativecommons.org/ns#"
   xmlns:rdf="http://www.w3.org/1999/02/22-rdf-syntax-ns#"
   xmlns:svg="http://www.w3.org/2000/svg"
   xmlns="http://www.w3.org/2000/svg"
   xmlns:sodipodi="http://sodipodi.sourceforge.net/DTD/sodipodi-0.dtd"
   xmlns:inkscape="http://www.inkscape.org/namespaces/inkscape"
   version="1.0"
   width="900"
   height="600"
   id="svg2"
   inkscape:version="0.47 r22583"
   sodipodi:docname="Flag_of_Macau.svg">
  <metadata
     id="metadata2829">
    <rdf:RDF>
      <cc:Work
         rdf:about="">
        <dc:format>image/svg+xml</dc:format>
        <dc:type
           rdf:resource="http://purl.org/dc/dcmitype/StillImage" />
      </cc:Work>
    </rdf:RDF>
  </metadata>
  <sodipodi:namedview
     pagecolor="#ffffff"
     bordercolor="#666666"
     borderopacity="1"
     objecttolerance="10"
     gridtolerance="10"
     guidetolerance="10"
     inkscape:pageopacity="0"
     inkscape:pageshadow="2"
     inkscape:window-width="843"
     inkscape:window-height="761"
     id="namedview2827"
     showgrid="false"
     inkscape:zoom="0.13072917"
     inkscape:cx="1440"
     inkscape:cy="960"
     inkscape:window-x="0"
     inkscape:window-y="0"
     inkscape:window-maximized="0"
     inkscape:current-layer="svg2" />
  <defs
     id="defs4">
    <inkscape:perspective
       sodipodi:type="inkscape:persp3d"
       inkscape:vp_x="0 : 960 : 1"
       inkscape:vp_y="0 : 1000 : 0"
       inkscape:vp_z="2880 : 960 : 1"
       inkscape:persp3d-origin="1440 : 640 : 1"
       id="perspective2831" />
  </defs>
  <rect
     width="900"
     height="600"
     x="0"
     y="0"
     id="rect3348"
     style="fill:#00785e;fill-opacity:1;stroke:none" />
  <path
     d="m 450,113.125 -7.39256,22.7832 -23.96488,0 19.38478,14.08203 -7.40234,22.77344 19.375,-14.0625 19.375,14.0625 -7.40234,-22.77344 19.38478,-14.08203 -23.96488,0 L 450,113.125 z m -94.55078,39.9707 4.85353,15.84961 -13.584,9.50196 16.57225,0.29296 4.84375,15.84961 5.40041,-15.67382 16.57228,0.2832 -13.23244,-9.9707 5.39062,-15.67383 -13.584,9.51172 -13.2324,-9.97071 z m 189.10156,0 -13.2324,9.97071 -13.58401,-9.51172 5.39063,15.67383 -13.23244,9.9707 16.57228,-0.2832 5.40041,15.67382 4.84375,-15.84961 16.57225,-0.29296 -13.584,-9.50196 4.85353,-15.84961 z m -220.49803,52.36328 -7.00197,15.01954 -16.44531,-2.02149 12.11916,11.29883 -7.00197,15.0293 14.49218,-8.03711 12.11916,11.29882 -3.15431,-16.26953 14.48244,-8.03711 -16.44532,-2.01171 -3.16406,-16.26954 z m 251.8945,0 -3.16406,16.26954 -16.44531,2.01171 14.48243,8.03711 -3.15431,16.26953 12.11916,-11.29882 14.49218,8.03711 -7.00196,-15.0293 12.11915,-11.29883 -16.44531,2.02149 -7.00197,-15.01954 z"
     id="path3370"
     style="fill:#fbd116;fill-opacity:1;fill-rule:evenodd;stroke:none" />
  <path
     d="m 450,192.00195 c -21.523,18.59966 -35.15625,46.09108 -35.15625,76.74805 0,20.85182 6.30437,40.23567 17.10937,56.35744 -13.2694,-17.14127 -21.17187,-38.64317 -21.17187,-61.98244 0,-15.50294 3.48838,-30.19585 9.71681,-43.33984 -4.30159,-4.5459 -7.56918,-10.08067 -9.41406,-16.23047 -8.34744,14.73285 -13.11525,31.75146 -13.11525,49.88281 0,22.55324 7.37569,43.38929 19.84375,60.23437 -21.7135,-22.76257 -52.33209,-36.95312 -86.25,-36.95312 -1.82256,0 -3.63691,0.0459 -5.43944,0.12695 3.41282,3.18094 6.2776,6.94008 8.4375,11.12305 33.73857,0.0514 64.19688,14.15042 85.85938,36.74806 -20.68838,-17.27975 -47.31541,-27.68556 -76.35744,-27.68556 -16.23016,0 -31.70388,3.24879 -45.81055,9.13086 14.49371,38.29823 51.51783,65.55664 94.87305,65.55664 2.80731,0 5.59028,-0.12634 8.33984,-0.35156 -5.85031,1.05125 -11.87603,1.60156 -18.02734,1.60156 -27.35384,0 -52.18334,-10.85013 -70.42969,-28.47656 -3.79818,1.4614 -7.87152,2.37393 -12.11914,2.62693 18.58442,21.02076 45.74352,34.28713 75.98633,34.28713 28.72613,0 54.67009,-11.96628 73.125,-31.18163 18.45491,19.21535 44.39891,31.18163 73.125,31.18163 30.24284,0 57.40191,-13.26637 75.98631,-34.28713 -4.24756,-0.253 -8.3209,-1.16553 -12.11912,-2.62693 -18.24632,17.62643 -43.07581,28.47656 -70.42969,28.47656 -6.15128,0 -12.17703,-0.55031 -18.02734,-1.60156 2.74953,0.22522 5.53256,0.35156 8.33984,0.35156 43.35525,0 80.37934,-27.25841 94.87306,-65.55664 -14.10672,-5.88207 -29.58037,-9.13086 -45.81056,-9.13086 -29.042,0 -55.66906,10.40581 -76.35744,27.68556 21.6625,-22.59764 52.12081,-36.69662 85.85938,-36.74806 2.1599,-4.18297 5.02468,-7.94211 8.4375,-11.12305 -1.80253,-0.0811 -3.61685,-0.12695 -5.43944,-0.12695 -33.91787,0 -64.53647,14.19055 -86.25,36.95312 12.46809,-16.84508 19.84375,-37.68113 19.84375,-60.23437 0,-18.13135 -4.76781,-35.14996 -13.11525,-49.88281 -1.84488,6.1498 -5.11247,11.68457 -9.41406,16.23047 6.22843,13.14399 9.71681,27.8369 9.71681,43.33984 0,23.33927 -7.90244,44.84117 -21.17188,61.98244 10.80504,-16.12177 17.10938,-35.50562 17.10938,-56.35744 0,-30.65697 -13.63325,-58.14839 -35.15625,-76.74805 z m 0,169.16017 c -18.20531,17.38125 -42.86172,28.05663 -70,28.05663 l -78.91602,0 c 2.32646,3.41888 4.76431,6.755 7.31446,10 l 76.28906,0 c 24.87588,0 47.66381,-8.97491 65.3125,-23.85744 17.64869,14.88253 40.43666,23.85744 65.3125,23.85744 l 76.28906,0 c 2.55019,-3.245 4.988,-6.58112 7.31444,-10 l -78.916,0 c -27.13825,0 -51.79466,-10.67538 -70,-28.05663 z m -132.85156,48.36913 c 1.55159,1.69597 3.14087,3.36366 4.75587,5 l 256.19138,0 c 1.61497,-1.63634 3.20428,-3.30403 4.75587,-5 l -265.70312,0 z m 15.81056,15.3125 c 3.16634,2.71366 6.42425,5.32059 9.77537,7.8125 l 107.26563,0 107.26562,0 c 3.35116,-2.49191 6.60904,-5.09884 9.77538,-7.8125 l -117.041,0 -117.041,0 z m 21.17188,15.625 c 5.80499,3.6625 11.82971,7.00788 18.05662,10 l 77.8125,0 77.8125,0 c 6.22694,-2.99212 12.25162,-6.3375 18.05662,-10 l -95.86912,0 -95.86912,0 z m 29.4824,15 C 404.15928,463.634 426.55634,468.125 450,468.125 c 23.44366,0 45.84069,-4.491 66.38672,-12.65625 l -66.38672,0 -66.38672,0 z"
     id="path3169"
     style="fill:#ffffff;fill-opacity:1;fill-rule:evenodd;stroke:none" />
</svg>
