<?xml version="1.0" encoding="UTF-8" standalone="no"?>
<!-- Created with Inkscape (http://www.inkscape.org/) -->

<svg
   xmlns:dc="http://purl.org/dc/elements/1.1/"
   xmlns:cc="http://creativecommons.org/ns#"
   xmlns:rdf="http://www.w3.org/1999/02/22-rdf-syntax-ns#"
   xmlns:svg="http://www.w3.org/2000/svg"
   xmlns="http://www.w3.org/2000/svg"
   xmlns:sodipodi="http://sodipodi.sourceforge.net/DTD/sodipodi-0.dtd"
   xmlns:inkscape="http://www.inkscape.org/namespaces/inkscape"
   version="1.0"
   width="900"
   height="600"
   id="svg556"
   inkscape:version="0.47 r22583"
   sodipodi:docname="Flag_of_Fiji.svg">
  <metadata
     id="metadata2957">
    <rdf:RDF>
      <cc:Work
         rdf:about="">
        <dc:format>image/svg+xml</dc:format>
        <dc:type
           rdf:resource="http://purl.org/dc/dcmitype/StillImage" />
      </cc:Work>
    </rdf:RDF>
  </metadata>
  <sodipodi:namedview
     pagecolor="#ffffff"
     bordercolor="#666666"
     borderopacity="1"
     objecttolerance="10"
     gridtolerance="10"
     guidetolerance="10"
     inkscape:pageopacity="0"
     inkscape:pageshadow="2"
     inkscape:window-width="979"
     inkscape:window-height="669"
     id="namedview2955"
     showgrid="false"
     inkscape:zoom="0.502"
     inkscape:cx="500"
     inkscape:cy="250"
     inkscape:window-x="0"
     inkscape:window-y="0"
     inkscape:window-maximized="0"
     inkscape:current-layer="svg556" />
  <defs
     id="defs558">
    <inkscape:perspective
       sodipodi:type="inkscape:persp3d"
       inkscape:vp_x="0 : 250 : 1"
       inkscape:vp_y="0 : 1000 : 0"
       inkscape:vp_z="1000 : 250 : 1"
       inkscape:persp3d-origin="500 : 166.66667 : 1"
       id="perspective2959" />
  </defs>
  <path
     d="m 0.0128489,-0.02566019 0,600.05136019 899.9743011,0 0,-600.05136019 -899.9743011,0 z"
     id="path688"
     style="font-size:12px;fill:#51b5e0;fill-opacity:1;fill-rule:evenodd;stroke-width:1pt" />
  <path
     d="m 590.85797,149.90745 0,148.68614 c 2.26154,91.69606 36.79287,124.52825 84.98696,151.49877 55.22616,-32.54986 83.28424,-72.48408 83.28424,-151.49877 l 0,-148.68614 -168.2712,0 z"
     id="path5001"
     style="font-size:12px;fill:#ffffff;fill-opacity:1;fill-rule:evenodd;stroke:#000000;stroke-width:1.99999988;stroke-miterlimit:4;stroke-opacity:1;stroke-dasharray:none" />
  <path
     d="m 590.83078,296.07513 c 0,0 0.17285,19.14143 3.96744,43.20372 l 160.80896,-0.12054 c 3.5856,-21.4312 3.99938,-43.08318 3.99938,-43.08318 l -168.77578,0 z"
     id="path693"
     style="font-size:12px;fill:#d21034;fill-rule:evenodd;stroke-width:1pt" />
  <path
     d="m 658.79404,221.43623 0.0517,217.35036 c 7.9586,5.28084 18.11126,11.33382 18.11126,11.33382 0,0 6.77715,-5.85576 14.2361,-10.82822 l -0.0517,-217.85596 -32.34736,0 z"
     id="path694"
     style="font-size:12px;fill:#d21034;fill-rule:evenodd;stroke-width:1pt" />
  <rect
     width="449.98703"
     height="300.02567"
     x="0.012848901"
     y="-0.025704462"
     id="rect962"
     style="font-size:12px;fill:#002868;fill-opacity:1;fill-rule:evenodd;stroke-width:1pt" />
  <path
     d="m 0.0128489,-0.02550417 0,33.54387017 399.6769811,266.481824 50.31004,0 0,-33.54387 -399.676972,-266.48182417 -50.3100491,0 z"
     id="path5259"
     style="font-size:12px;fill:#ffffff;stroke-width:1pt" />
  <path
     d="m 449.99987,-0.02550417 0,33.54337817 -399.676972,266.482316 -50.3100491,0 0,-33.54487 399.6769811,-266.48082417 50.31004,0 z"
     id="path146"
     style="font-size:12px;fill:#ffffff;stroke-width:1pt" />
  <path
     d="m 187.50744,-0.02550417 0,300.02569417 74.99784,0 0,-300.02569417 -74.99784,0 z"
     id="path5255"
     style="font-size:12px;fill:#ffffff;stroke-width:1pt" />
  <path
     d="m 0.0128489,99.983061 0,100.008569 449.9870211,0 0,-100.008569 -449.9870211,0 z"
     id="path136"
     style="font-size:12px;fill:#ffffff;stroke-width:1pt" />
  <path
     d="m 0.0128489,119.98477 0,60.00514 449.9870211,0 0,-60.00514 -449.9870211,0 z"
     id="path5243"
     style="font-size:12px;fill:#ce1126;fill-opacity:1;stroke-width:1pt" />
  <path
     d="m 202.50701,-0.02550417 0,300.02569417 44.9987,0 0,-300.02569417 -44.9987,0 z"
     id="path141"
     style="font-size:12px;fill:#ce1126;fill-opacity:1;stroke-width:1pt" />
  <path
     d="M 0.0128489,300.00019 150.00852,199.99163 l 33.53979,0 -149.995378,100.00856 -33.5400831,0 z"
     id="path5251"
     style="font-size:12px;fill:#d21034;stroke-width:1pt" />
  <path
     d="M 0.0128489,-0.02550417 150.00852,99.983061 l -33.53978,0 -116.4558911,-77.645949 0,-22.36261617 z"
     id="path5249"
     style="font-size:12px;fill:#d21034;stroke-width:1pt" />
  <path
     d="m 266.46442,99.983061 149.99567,-100.00856517 33.53978,0 L 300.0042,99.983061 l -33.53978,0 z"
     id="path5247"
     style="font-size:12px;fill:#d21034;stroke-width:1pt" />
  <path
     d="M 449.99987,300.00019 300.0042,199.99163 l 33.53978,0 116.45589,77.64564 0,22.36292 z"
     id="path150"
     style="font-size:12px;fill:#d21034;stroke-width:1pt" />
  <rect
     width="168.74515"
     height="80.182144"
     x="590.62091"
     y="149.26691"
     id="rect566"
     style="font-size:12px;fill:#d21034;fill-rule:evenodd;stroke-width:1pt" />
  <rect
     width="10.76835"
     height="18.702242"
     rx="5.9354806"
     ry="7.730577"
     x="594.45319"
     y="186.88681"
     id="rect909"
     style="font-size:12px;fill:#f6efec;fill-opacity:1;fill-rule:evenodd;stroke:#000000;stroke-width:0.20999643;stroke-opacity:1;stroke-dasharray:none" />
  <path
     d="m 723.30857,181.91273 c 0,0 9.71657,-0.83295 13.1173,-5.27562 3.40094,-4.44243 -2.30753,-12.49458 1.33611,-13.32753 1.45746,-0.13894 3.52229,0.4166 5.10109,2.63759 -0.2429,-1.6657 -1.21454,-2.63759 -1.5788,-3.60903 -1.3361,-1.38872 -2.67221,-1.24978 -4.61548,-1.24978 -1.33611,0.27789 -1.57902,-0.27789 -3.765,-3.19311 -1.09319,-1.38826 -1.09319,-4.8588 -0.24311,-7.21897 -2.55045,2.22124 -2.06463,5.27517 -1.82172,5.96941 0.60717,3.05442 1.21455,3.88737 1.21455,5.27586 -0.72874,-0.4166 -2.06484,-4.0263 -8.98785,-4.58161 -6.92323,-0.5553 -24.41311,5.55328 -32.30777,5.55328 -7.89486,0 -19.31181,-3.74842 -19.31181,-3.74842 0,0 2.91491,-2.63781 -0.60737,-3.74841 -3.52209,-1.11063 -11.29539,3.88735 -13.48178,1.1106 -1.57881,-2.63781 -0.97164,-2.08252 -1.21455,-3.33184 -0.60717,0.41638 -0.97164,2.08252 -0.12135,4.30373 0.85008,2.22123 1.3359,1.52697 1.21455,1.52697 -0.12156,0 -2.79357,0 -3.03647,1.11084 -0.24291,0.83273 -0.60737,1.80463 0.72873,4.85881 0.48581,-3.05418 -1.33591,-3.47055 2.672,-3.7482 4.00831,-0.27764 6.80167,1.80485 10.2024,2.49888 3.40093,0.69424 3.40093,-1.66592 3.52228,-1.5272 0.12156,0.13894 10.44531,3.33205 19.91898,2.6378 9.47367,-0.69402 24.77758,-6.66387 31.82195,-5.41432 7.04457,1.24932 11.66006,7.08025 11.78141,12.49457 -0.12135,3.33182 -3.15782,4.99774 -5.58691,5.55304 -2.91491,0.55531 -9.71659,1.3885 -9.71659,1.3885 l 3.76521,3.05416 z"
     id="path908"
     style="font-size:12px;fill:#ffd100;fill-opacity:1;fill-rule:evenodd;stroke:#000000;stroke-width:0.19195601;stroke-linecap:butt;stroke-linejoin:miter;stroke-opacity:1;stroke-dasharray:none" />
  <path
     d="m 712.43484,185.09635 c -0.11808,0 -6.48945,0.19912 -8.3772,4.77492 -1.88775,4.57613 -2.71375,8.95348 -2.59566,8.95348 0.11789,0 4.24745,-3.78031 4.24745,-3.78031 0,0 -3.0676,7.56029 -1.41582,14.3251 1.65178,6.76447 -4.36078,6.36656 -7.82741,6.56535 -1.53389,-1.98956 -6.43377,-5.37196 -8.18105,-5.96865 -1.09109,-0.69627 -3.23363,-0.78613 -5.47147,3.4569 -1.31815,2.61633 1.95907,-2.4623 5.20974,-2.06405 0.35148,0.5967 0.57774,1.19406 0.64035,2.58624 -1.73203,-0.19877 -3.53459,-3.58118 -5.65831,3.38241 2.12372,-2.38746 2.38922,-2.33767 3.46584,-2.48702 1.43423,-0.17908 1.24998,1.09451 1.19093,1.09451 -0.23596,0 -0.82123,0.19878 -1.70726,1.59163 -0.47193,0.99461 -1.65178,3.18329 -1.41581,3.18329 0.23596,0 0.9415,-1.19373 2.04606,-2.18868 0.69027,-0.79581 1.34587,-0.79581 3.43195,0.19912 11.44481,4.5758 17.58001,1.19373 18.28792,-0.59702 0.35405,-0.79549 -6.60734,-23.27825 11.91675,-29.24691 -0.23598,-0.19912 -7.787,-3.58119 -7.787,-3.78031 z"
     id="path900"
     style="font-size:12px;fill:#ffd100;fill-opacity:1;fill-rule:evenodd;stroke:#000000;stroke-width:0.12942298;stroke-linecap:butt;stroke-linejoin:miter;stroke-opacity:1;stroke-dasharray:none" />
  <path
     d="m 633.10871,209.96622 c 7.593,9.15227 58.81174,-9.74895 65.30033,-16.31465 3.72753,-3.78031 10.21611,-6.56568 10.21611,6.36658 1.65663,-8.75437 1.65687,-10.9427 1.65687,-10.74392 0.13794,0.19913 2.62288,3.38274 4.83195,14.12665 0.55221,-9.55051 -0.96648,-15.12126 -0.13817,-14.32543 0.55221,-0.79583 0.55221,4.77492 4.96989,12.53432 -0.96625,-6.16742 -1.24235,-8.95314 -1.24235,-8.95314 0,0 8.28338,11.53974 12.97716,13.13137 4.69401,1.59165 11.4587,-3.18328 13.52961,-0.3979 2.07067,2.7857 5.66073,7.75941 5.52163,11.73884 -0.13677,3.9791 -7.73071,0.59671 -8.55902,3.77998 -0.82832,3.18362 0.55221,3.18362 0.55221,3.18362 0,0 0.69014,2.38746 1.24259,4.37701 0.41404,-1.39285 -0.41427,-4.37734 1.10442,-4.57613 1.10442,0.19879 1.10442,2.78537 1.38052,4.17822 0.32201,-1.59164 -0.0462,-4.77492 0.96649,-4.77492 1.10441,-0.33176 1.24235,2.5201 2.07067,4.37668 l 0,-4.37668 c 3.17555,-1.39285 5.93567,-1.59164 6.35064,-4.57613 0.41266,-2.9845 -4.83264,-9.74898 -6.07523,-14.12632 -1.24167,-4.377 0.96671,-6.16777 -1.37983,-8.55523 -2.34678,-2.38747 -11.32053,3.78031 -15.46212,1.39286 -4.1418,-2.38747 -2.48517,-19.49827 -18.08545,-23.27825 -15.60028,-3.78032 -57.84527,19.89584 -65.30033,20.89078 -7.45507,0.99461 -16.56653,-3.38241 -16.56653,-3.38241 l 0.13794,18.3042 z"
     id="path899"
     style="font-size:12px;fill:#ffd100;fill-opacity:1;fill-rule:evenodd;stroke:#000000;stroke-width:0.17499699;stroke-linecap:butt;stroke-linejoin:miter;stroke-opacity:1;stroke-dasharray:none" />
  <path
     d="m 623.33563,203.38262 c 0,0 -8.07702,13.45632 -13.52248,13.18405 -5.42072,-0.52046 -9.8653,-9.4267 -11.05075,-8.79587 -1.18549,0.63124 -1.46918,-0.74457 -1.92595,-3.20175 -0.45673,-2.45759 0.5067,-3.67413 0.48177,-3.42644 0.27164,0.0902 0.58006,4.03566 0.82723,4.37375 0.24691,0.33843 -0.91345,-4.9152 0.76602,-4.86909 0.56803,-0.0677 0.46887,3.74233 0.99973,5.45622 0.16045,-0.20308 -0.56763,-5.56905 0.13629,-5.59113 0.70373,-0.0226 0.99977,5.45582 2.09843,7.10198 1.54335,2.81822 4.04961,4.42018 7.3096,5.50292 3.43277,-0.65287 11.52184,-12.82363 12.17632,-12.34977 l 1.70379,2.61513 z"
     id="path892"
     style="font-size:12px;fill:#ffd100;fill-opacity:1;fill-rule:evenodd;stroke:#000000;stroke-width:0.1575719;stroke-linecap:butt;stroke-linejoin:miter;stroke-opacity:1;stroke-dasharray:none" />
  <path
     d="m 623.58291,195.83388 c 0,0 -6.62675,-14.15011 -12.01091,-15.49768 -5.38417,-1.12279 -10.6304,5.39067 -11.73481,4.49229 -1.10442,-0.89876 -1.51847,0.22478 -2.20884,2.24597 -0.69038,2.02153 0.13816,3.36873 0.13793,3.14433 0.27611,0 0.96649,-3.36912 1.24282,-3.59354 0.27611,-0.22477 -1.38075,4.04311 0.27611,4.49192 0.5522,0.22478 0.82832,-3.14434 1.51869,-4.4923 0.13793,0.2248 -1.10465,4.71708 -0.41427,4.9415 0.69014,0.22478 1.51869,-4.49191 2.76105,-5.61509 1.7948,-2.02118 4.41767,-2.69553 7.73116,-2.69514 3.31327,1.57235 10.07795,14.5989 10.76833,14.37413 l 1.93274,-1.79639 z"
     id="path891"
     style="font-size:12px;fill:#ffd100;fill-opacity:1;fill-rule:evenodd;stroke:#000000;stroke-width:0.14874555;stroke-linecap:butt;stroke-linejoin:miter;stroke-opacity:1;stroke-dasharray:none" />
  <path
     d="m 620.26948,191.4629 -7.3169,5.17284 5.38416,1.98988 -3.8657,6.3669 5.52233,-2.58659 -0.41404,8.55524 3.17532,-5.57074 2.07068,7.7594 2.20883,-5.76985 2.62312,6.36657 1.10441,-6.16778 3.17533,6.16778 1.10442,-8.35612 3.8657,5.17283 -0.55221,-8.75435 4.69379,2.18866 -2.89923,-6.7648 c 0,0 5.10806,-0.39791 4.83196,-0.39791 -0.27611,0 -3.86547,-4.37702 -7.04079,-5.57073 l -17.67118,0.19877 z"
     id="path887"
     style="font-size:12px;fill:#ffd100;fill-opacity:1;fill-rule:evenodd;stroke:#000000;stroke-width:0.13999762;stroke-linecap:butt;stroke-linejoin:miter;stroke-opacity:1;stroke-dasharray:none" />
  <path
     d="m 624.13793,189.18813 -4.00647,2.92974 2.94818,1.12701 -2.11673,3.60603 3.02384,-1.46497 -0.22672,4.84544 1.7387,-3.15511 1.13382,4.39471 1.20949,-3.26788 1.43632,3.60583 0.60475,-3.49325 1.7387,3.49325 0.60473,-4.73266 2.11673,2.92974 -0.30237,-4.95821 2.57016,1.2396 -1.58752,-3.83138 c 0,0 2.79699,-0.22537 2.64581,-0.22537 -0.15118,0 -2.11659,-2.47901 -3.85529,-3.1551 l -9.67613,0.11256 z"
     id="path888"
     style="font-size:12px;fill:#ffd100;fill-opacity:1;fill-rule:evenodd;stroke:#000000;stroke-width:0.12599786;stroke-linecap:butt;stroke-linejoin:miter;stroke-opacity:1;stroke-dasharray:none" />
  <path
     d="m 626.20585,175.14825 c 0,0 -2.07067,-2.38745 -2.89898,0 -0.82855,2.3878 1.79457,1.39285 1.79457,1.79077 0,0.39791 -1.79457,3.18329 -1.79457,6.3669 0,3.18328 1.38053,8.55522 1.38053,9.35105 0,0.79582 0.5522,2.98416 2.48494,3.77997 1.93273,0.79583 2.62311,-2.58624 3.03715,-2.98415 0.41428,-0.39791 3.03739,0.5967 4.00364,-2.78537 0.96648,-3.38241 0.96648,-9.55018 0.96648,-9.55018 0,0 1.65664,1.79043 1.65664,-1.79077 0,-3.58118 -1.7948,0 -1.7948,0 0,0 0.2761,-3.77998 -4.00365,-5.57074 -4.27973,-1.79075 -4.69378,1.79076 -4.83195,1.39252 z"
     id="path901"
     style="font-size:12px;fill:#ffd100;fill-opacity:1;fill-rule:evenodd;stroke:#000000;stroke-width:0.13999762;stroke-linecap:butt;stroke-linejoin:miter;stroke-opacity:1;stroke-dasharray:none" />
  <path
     d="m 625.65418,174.5195 c -0.55681,-2.27119 -2.17526,-10.98551 -2.17526,-10.98551 l 3.59127,3.19862 c -1.21786,-0.6206 -2.25449,-0.97632 -2.12438,-0.97949 0.1299,-0.004 1.62897,4.18851 1.62897,4.18851 1.40542,-0.21137 2.83052,0.77055 4.57724,1.54627 0,0 1.37371,-3.48229 1.24382,-3.47911 -0.13011,0.004 -0.78922,-0.54495 -0.78922,-0.54495 l 3.1975,-3.31098 -0.96894,4.3845 -0.65013,0.0158 -1.24842,3.19711 c 1.47218,0.56091 2.19493,1.0076 3.65728,2.96129 1.26125,-0.4284 2.31057,-1.87925 2.97543,-2.97376 -1.14848,-0.65212 -1.67714,-1.16982 -1.54725,-1.17299 0.13011,-0.004 4.78635,0.41368 4.78635,0.41368 0,0 -4.46062,6.22258 -7.08834,8.52755 -2.48953,-1.47563 -8.79212,-4.14745 -9.06592,-4.98662 z"
     id="path893"
     style="font-size:12px;fill:#ffd100;fill-opacity:1;fill-rule:evenodd;stroke:#000000;stroke-width:0.17469162;stroke-linecap:butt;stroke-linejoin:miter;stroke-opacity:1;stroke-dasharray:none" />
  <rect
     width="3.4815624"
     height="1.4354172"
     rx="1.7486491"
     ry="0.78554636"
     x="189.39981"
     y="-475.54498"
     transform="matrix(0.82675658,0.56255983,-0.98801586,-0.15435237,0,0)"
     id="rect903"
     style="font-size:12px;fill:#000000;fill-opacity:1;fill-rule:evenodd;stroke-width:1pt" />
  <rect
     width="3.4815629"
     height="1.4354177"
     rx="1.7486492"
     ry="0.7855466"
     x="193.41557"
     y="-476.37659"
     transform="matrix(0.82675658,0.56255983,-0.98801586,-0.15435237,0,0)"
     id="rect904"
     style="font-size:12px;fill:#000000;fill-opacity:1;fill-rule:evenodd;stroke-width:1pt" />
  <rect
     width="6.2390294"
     height="2.776947"
     rx="3.2465987"
     ry="1.5248728"
     x="347.39545"
     y="-316.71567"
     transform="matrix(0.89767558,0.44065695,-0.99370877,-0.11199496,0,0)"
     id="rect905"
     style="font-size:12px;fill:#000000;fill-opacity:1;fill-rule:evenodd;stroke-width:1pt" />
  <rect
     width="2.8549716"
     height="1.2449367"
     rx="1.4707417"
     ry="0.68303114"
     x="291.91104"
     y="-374.38046"
     transform="matrix(0.87818519,0.47832078,-0.99227148,-0.12408591,0,0)"
     id="rect906"
     style="font-size:12px;fill:#000000;fill-opacity:1;fill-rule:evenodd;stroke-width:1pt" />
  <rect
     width="3.2008705"
     height="1.3607644"
     rx="1.3443539"
     ry="0.56394839"
     x="1859.0519"
     y="2005.1858"
     transform="matrix(0.23503505,-0.9719869,0.09513932,0.99546397,0,0)"
     id="rect907"
     style="font-size:12px;fill:#000000;fill-opacity:1;fill-rule:evenodd;stroke-width:1pt" />
  <path
     d="m 603.39564,350.7977 -3.32496,-7.7866 4.73769,7.61659 0.2143,3.08031 -1.62703,-2.9103 z"
     id="path4960"
     style="font-size:12px;fill:#007500;fill-opacity:1;fill-rule:evenodd;stroke:#000000;stroke-width:0.13242227;stroke-opacity:1;stroke-dasharray:none" />
  <path
     d="m 604.33295,351.62957 0.5313,-5.64704 1.45075,6.84604 -1.29866,1.06609 -0.68339,-2.26509 z"
     id="path4962"
     style="font-size:12px;fill:#007500;fill-opacity:1;fill-rule:evenodd;stroke:#000000;stroke-width:0.13242224;stroke-opacity:1;stroke-dasharray:none" />
  <path
     d="m 603.11971,353.53897 -5.58329,-3.8904 4.62761,1.92305 3.02012,2.27289 -2.06444,-0.30554 z"
     id="path4964"
     style="font-size:12px;fill:#007500;fill-opacity:1;fill-rule:evenodd;stroke:#000000;stroke-width:0.1324223;stroke-opacity:1;stroke-dasharray:none" />
  <path
     d="m 604.78485,355.95223 -8.48929,-3.25197 6.65131,0.33756 2.2476,0.49456 -0.40962,2.41985 z"
     id="path4966"
     style="font-size:12px;fill:#007500;fill-opacity:1;fill-rule:evenodd;stroke:#000000;stroke-width:0.13242245;stroke-opacity:1;stroke-dasharray:none" />
  <path
     d="m 605.26742,352.22604 5.1928,-1.10187 -1.82299,4.38154 -3.93699,-1.86416 0.56718,-1.41551 z"
     id="path4968"
     style="font-size:12px;fill:#007500;fill-opacity:1;fill-rule:evenodd;stroke:#000000;stroke-width:0.13242252;stroke-opacity:1;stroke-dasharray:none" />
  <path
     d="m 608.19183,354.51275 6.61061,3.6376 -5.5367,-1.08515 -4.68552,-3.6397 3.61161,1.08725 z"
     id="path4970"
     style="font-size:12px;fill:#007500;fill-opacity:1;fill-rule:evenodd;stroke:#000000;stroke-width:0.13242207;stroke-opacity:1;stroke-dasharray:none" />
  <path
     d="m 609.11603,356.47233 7.04586,5.31779 -6.27525,-3.05862 -5.20079,-5.36169 4.43018,3.10252 z"
     id="path4972"
     style="font-size:12px;fill:#007500;fill-opacity:1;fill-rule:evenodd;stroke:#000000;stroke-width:0.13242233;stroke-opacity:1;stroke-dasharray:none" />
  <path
     d="m 609.15827,358.30454 4.07699,8.04729 -6.35547,-9.08105 -1.9844,-3.80115 4.26288,4.83491 z"
     id="path4974"
     style="font-size:12px;fill:#007500;fill-opacity:1;fill-rule:evenodd;stroke:#000000;stroke-width:0.13242237;stroke-opacity:1;stroke-dasharray:none" />
  <path
     d="m 608.11577,358.48145 0.10585,5.19357 -3.08523,-7.61005 -0.26694,-2.6461 3.24632,5.06258 z"
     id="path4976"
     style="font-size:12px;fill:#007500;fill-opacity:1;fill-rule:evenodd;stroke:#000000;stroke-width:0.13242234;stroke-opacity:1;stroke-dasharray:none" />
  <path
     d="m 606.53897,356.87428 -3.06355,3.14075 0.15391,-5.65159 1.37711,-0.52296 1.53253,3.0338 z"
     id="path4978"
     style="font-size:12px;fill:#007500;fill-opacity:1;fill-rule:evenodd;stroke:#000000;stroke-width:0.13242245;stroke-opacity:1;stroke-dasharray:none" />
  <path
     d="m 602.63789,350.68094 -2.24291,-4.40672 3.06897,4.35735 1.47454,3.01881 -2.3006,-2.96944 z"
     id="path4980"
     style="font-size:12px;fill:#007500;fill-opacity:1;fill-rule:evenodd;stroke:#000000;stroke-width:0.13242234;stroke-opacity:1;stroke-dasharray:none" />
  <path
     d="m 604.26313,352.54103 -2.23216,-5.54923 3.24555,6.0136 0.44996,1.68272 -1.46335,-2.14709 z"
     id="path4982"
     style="font-size:12px;fill:#007500;fill-opacity:1;fill-rule:evenodd;stroke:#000000;stroke-width:0.08808739;stroke-opacity:1;stroke-dasharray:none" />
  <path
     d="m 604.43459,354.25188 -5.88386,-3.4323 4.96448,2.00345 2.17176,1.51186 -1.25238,-0.083 z"
     id="path4984"
     style="font-size:12px;fill:#007500;fill-opacity:1;fill-rule:evenodd;stroke:#000000;stroke-width:0.09425369;stroke-opacity:1;stroke-dasharray:none" />
  <path
     d="m 605.98819,353.80968 5.39233,2.14619 -4.06518,-0.88516 -2.12335,-1.04626 0.7962,-0.21477 z"
     id="path4986"
     style="font-size:12px;fill:#007500;fill-opacity:1;fill-rule:evenodd;stroke:#000000;stroke-width:0.08175995;stroke-opacity:1;stroke-dasharray:none" />
  <path
     d="m 606.22504,355.62065 -1.62589,1.41058 0.84779,-2.11393 -0.0948,-1.021 0.87287,1.72435 z"
     id="path4988"
     style="font-size:12px;fill:#007500;fill-opacity:1;fill-rule:evenodd;stroke:#000000;stroke-width:0.08114959;stroke-opacity:1;stroke-dasharray:none" />
  <path
     d="m 608.5241,356.99942 3.45404,5.77678 -2.91958,-4.14521 -3.55921,-4.53825 3.02475,2.90668 z"
     id="path4990"
     style="font-size:12px;fill:#007500;fill-opacity:1;fill-rule:evenodd;stroke:#000000;stroke-width:0.13242233;stroke-opacity:1;stroke-dasharray:none" />
  <path
     d="m 607.61013,354.98053 0.97658,-1.52675 0.32297,2.92601 -3.28969,-1.95189 1.99014,0.55263 z"
     id="path4992"
     style="font-size:12px;fill:#007500;fill-opacity:1;fill-rule:evenodd;stroke:#000000;stroke-width:0.1324223;stroke-opacity:1;stroke-dasharray:none" />
  <path
     d="m 603.89167,351.67036 -1.46426,-5.79437 2.39312,6.00414 0.22267,1.83259 -1.15153,-2.04236 z"
     id="path4994"
     style="font-size:12px;fill:#007500;fill-opacity:1;fill-rule:evenodd;stroke:#000000;stroke-width:0.09265482;stroke-opacity:1;stroke-dasharray:none" />
  <path
     d="m 620.3655,364.69482 c 0.79984,-0.78817 6.72028,-18.64429 34.88362,-16.01924 -16.0019,8.9289 -25.92358,27.83536 -28.3231,28.62189 -1.76046,0.78819 -5.60092,-9.71539 -6.56052,-12.60265 z"
     id="path4997"
     style="font-size:12px;fill:#ffffff;fill-rule:evenodd;stroke:#000000;stroke-width:0.33065945" />
  <path
     d="m 658.08821,355.8865 c -4.36988,2.54461 -6.51231,3.75488 -8.72221,4.25379 1.12653,0.85219 3.6292,0.33416 6.48533,1.69722 -2.54448,0.0978 -7.25029,3.53289 -9.2079,3.61641 1.35318,1.43703 6.17908,0.0526 7.06681,0.42731 -2.58092,0.28407 -6.73358,3.82171 -9.31988,3.82171 -1.18455,1.60175 6.01718,-1.09565 8.90705,1.92638 -2.98836,-0.27214 -8.79371,2.76902 -11.93993,2.03617 2.39878,2.48735 6.68231,-0.26735 10.25484,2.42767 -1.03479,0.20052 -9.32393,1.84282 -12.25831,1.06227 1.75388,1.55399 7.03982,1.29618 8.33905,2.6759 -2.18831,-0.50605 -7.99772,1.64472 -10.01874,0.79012 1.81999,2.32025 7.30427,1.01215 8.31207,2.40859 -3.58467,2.21043 -9.01632,0.44637 -11.51492,1.04554 1.67562,1.3869 3.0585,2.7881 4.5412,4.08669 2.16403,2.68784 8.91785,10.24775 12.95178,12.51788 -4.46566,-1.03362 -6.02393,-1.16968 -8.90974,-1.58742 l 6.56628,12.31497 c -2.74012,-2.61147 -7.57004,-7.54559 -10.77695,-10.09259 -7.1019,-6.1539 -12.22055,-5.08925 -17.13953,-10.29789 -6.91031,-11.85428 -10.74727,-25.98341 -11.09265,-29.75263 -0.34673,-3.76681 -0.64894,-10.5199 -6.95214,-7.00132 6.08599,-1.3869 1.74275,-10.15519 8.0981,-10.15519 3.82284,0 3.32835,4.91576 4.75845,8.18605 0.95249,2.34651 7.52497,10.60563 8.86735,11.0329 12.06674,-12.68496 21.85342,-14.24372 32.70459,-7.44053 z"
     id="path4999"
     style="font-size:12px;fill:#ffffff;fill-rule:evenodd;stroke:#000000;stroke-width:0.45231301" />
  <path
     d="m 695.46576,421.94516 c -0.2317,-1.94294 -0.38281,-2.92355 0.27032,-5.47113 0.9533,-1.79386 1.45311,-3.38406 3.19195,-5.24088 1.88562,-0.93258 2.52225,-0.0911 4.99591,-3.53481 0.79553,-2.26924 2.007,-3.98368 2.69766,-6.43019 1.61198,-3.60601 2.15263,-5.38671 3.44134,-8.16118 1.71235,-2.8838 3.09043,-5.46955 4.09227,-7.6792 1.06909,-2.83244 2.02899,-4.58334 3.58035,-6.91227 0.62776,-2.65689 1.97383,-4.62796 3.5803,-6.91054 1.22797,-3.36751 3.58253,-7.22358 4.60424,-9.98322 1.81055,-3.11407 2.51883,-4.4673 4.09114,-7.67915 1.38462,-1.37154 3.72046,-4.37957 5.62699,-5.37508 2.6028,-1.63821 3.99513,-3.26153 5.70761,-0.76861 1.13303,1.70117 3.16985,4.43921 1.75427,6.46005 -0.74474,1.23908 -1.964,1.39306 -3.36961,0.45216 -1.44424,-1.40458 -2.14703,-5.49098 -4.09227,-2.30403 -1.40564,2.41011 -2.12617,4.33325 -4.09227,6.91059 -0.97749,2.15994 -1.68258,3.775 -2.55746,6.91223 -1.15633,2.00257 -2.11184,4.25368 -3.0684,7.67915 -1.24025,1.53722 -2.30927,4.58826 -3.06949,6.91059 -1.22691,1.93132 -2.11293,3.91572 -3.06952,6.91222 -1.93189,2.77778 -2.65353,5.12659 -4.09228,6.91057 -0.94992,3.01468 -2.44608,5.89356 -3.58031,7.67916 -0.89592,2.18648 -1.78519,4.46403 -2.55748,6.91226 -1.62746,2.49295 -1.69918,3.03123 -4.09231,6.91053 -1.99267,3.90092 -1.3218,3.43045 -4.44206,7.95253 -1.70795,0.84473 -3.42361,1.13298 -5.55089,-2.15175 z"
     id="path5003"
     style="font-size:12px;fill:#006000;fill-rule:evenodd;stroke:#000000;stroke-width:0.24999993" />
  <rect
     width="4.6831088"
     height="18.790222"
     rx="2.1482556"
     ry="8.5949535"
     x="843.6557"
     y="-351.04584"
     transform="matrix(0.60415637,0.79686579,-0.59575195,0.80316848,0,0)"
     id="rect5006"
     style="font-size:12px;fill:#ffd100;fill-rule:evenodd;stroke:#000000;stroke-width:0.25515866" />
  <rect
     width="4.1942348"
     height="20.555084"
     rx="2.1612108"
     ry="8.7081919"
     x="796.97864"
     y="-4.6224766"
     transform="matrix(0.87867926,0.47741257,-0.29221623,0.95635227,0,0)"
     id="rect5008"
     style="font-size:12px;fill:#ffd100;fill-rule:evenodd;stroke:#000000;stroke-width:0.25255942" />
  <rect
     width="4.2286"
     height="20.442158"
     rx="2.1579788"
     ry="8.698164"
     x="806.42383"
     y="-35.454655"
     transform="matrix(0.8595182,0.51110514,-0.31714588,0.94837677,0,0)"
     id="rect5010"
     style="font-size:12px;fill:#ffd100;fill-rule:evenodd;stroke:#000000;stroke-width:0.25289422" />
  <rect
     width="4.4792533"
     height="19.569334"
     rx="2.1462069"
     ry="8.6323385"
     x="838.24469"
     y="-224.72849"
     transform="matrix(0.72015038,0.69381801,-0.47637851,0.8792403,0,0)"
     id="rect5012"
     style="font-size:12px;fill:#ffd100;fill-rule:evenodd;stroke:#000000;stroke-width:0.25466418" />
  <rect
     width="4.7925558"
     height="18.343422"
     rx="2.1525564"
     ry="8.58498"
     x="836.6955"
     y="-413.25964"
     transform="matrix(0.53899025,0.842312,-0.6601412,0.75114153,0,0)"
     id="rect5014"
     style="font-size:12px;fill:#ffd100;fill-rule:evenodd;stroke:#000000;stroke-width:0.25503531" />
  <rect
     width="4.7008061"
     height="18.719383"
     rx="2.1488166"
     ry="8.5927677"
     x="845.65552"
     y="-361.80936"
     transform="matrix(0.59380463,0.80460926,-0.6060995,0.79538883,0,0)"
     id="rect5016"
     style="font-size:12px;fill:#ffd100;fill-rule:evenodd;stroke:#000000;stroke-width:0.25515795" />
  <rect
     width="4.4792533"
     height="19.569313"
     rx="2.1462073"
     ry="8.6323299"
     x="844.16327"
     y="-224.22565"
     transform="matrix(0.72015038,0.69381801,-0.47637851,0.8792403,0,0)"
     id="rect5018"
     style="font-size:12px;fill:#ffd100;fill-rule:evenodd;stroke:#000000;stroke-width:0.25466418" />
  <rect
     width="4.4792533"
     height="19.569334"
     rx="2.1462069"
     ry="8.6323385"
     x="841.15393"
     y="-224.90535"
     transform="matrix(0.72015038,0.69381801,-0.47637851,0.8792403,0,0)"
     id="rect5020"
     style="font-size:12px;fill:#ffd100;fill-rule:evenodd;stroke:#000000;stroke-width:0.25466418" />
  <rect
     width="4.47926"
     height="19.569351"
     rx="2.1462095"
     ry="8.6323471"
     x="826.23395"
     y="-255.08575"
     transform="matrix(0.72015038,0.69381801,-0.4763792,0.87923993,0,0)"
     id="rect5022"
     style="font-size:12px;fill:#ffd100;fill-rule:evenodd;stroke:#000000;stroke-width:0.25466424" />
  <rect
     width="4.47926"
     height="19.569353"
     rx="2.1462095"
     ry="8.632349"
     x="829.54883"
     y="-255.27701"
     transform="matrix(0.72015038,0.69381801,-0.4763792,0.87923993,0,0)"
     id="rect5024"
     style="font-size:12px;fill:#ffd100;fill-rule:evenodd;stroke:#000000;stroke-width:0.25466424" />
  <rect
     width="4.47926"
     height="19.569353"
     rx="2.1462095"
     ry="8.632349"
     x="833.00592"
     y="-255.25269"
     transform="matrix(0.72015038,0.69381801,-0.4763792,0.87923993,0,0)"
     id="rect5026"
     style="font-size:12px;fill:#ffd100;fill-rule:evenodd;stroke:#000000;stroke-width:0.25466424" />
  <rect
     width="4.47926"
     height="19.569353"
     rx="2.1462095"
     ry="8.632349"
     x="836.71887"
     y="-255.30766"
     transform="matrix(0.72015038,0.69381801,-0.4763792,0.87923993,0,0)"
     id="rect5028"
     style="font-size:12px;fill:#ffd100;fill-rule:evenodd;stroke:#000000;stroke-width:0.25466424" />
  <rect
     width="4.47926"
     height="19.569353"
     rx="2.1462095"
     ry="8.632349"
     x="839.69647"
     y="-255.02977"
     transform="matrix(0.72015038,0.69381801,-0.4763792,0.87923993,0,0)"
     id="rect5030"
     style="font-size:12px;fill:#ffd100;fill-rule:evenodd;stroke:#000000;stroke-width:0.25466424" />
  <rect
     width="4.47926"
     height="19.569351"
     rx="2.1462095"
     ry="8.632349"
     x="856.90643"
     y="-257.16803"
     transform="matrix(0.72015038,0.69381801,-0.4763792,0.87923993,0,0)"
     id="rect5032"
     style="font-size:12px;fill:#ffd100;fill-rule:evenodd;stroke:#000000;stroke-width:0.25466424" />
  <rect
     width="4.47926"
     height="19.569351"
     rx="2.1462095"
     ry="8.632349"
     x="854.54114"
     y="-256.40329"
     transform="matrix(0.72015038,0.69381801,-0.4763792,0.87923993,0,0)"
     id="rect5034"
     style="font-size:12px;fill:#ffd100;fill-rule:evenodd;stroke:#000000;stroke-width:0.25466424" />
  <rect
     width="4.47926"
     height="19.569357"
     rx="2.1462097"
     ry="8.632349"
     x="852.23248"
     y="-256.0224"
     transform="matrix(0.72015038,0.69381801,-0.4763792,0.87923993,0,0)"
     id="rect5036"
     style="font-size:12px;fill:#ffd100;fill-rule:evenodd;stroke:#000000;stroke-width:0.25466424" />
  <rect
     width="4.47926"
     height="19.569353"
     rx="2.1462095"
     ry="8.632349"
     x="848.83282"
     y="-255.88243"
     transform="matrix(0.72015038,0.69381801,-0.4763792,0.87923993,0,0)"
     id="rect5038"
     style="font-size:12px;fill:#ffd100;fill-rule:evenodd;stroke:#000000;stroke-width:0.25466424" />
  <rect
     width="4.47926"
     height="19.569351"
     rx="2.1462095"
     ry="8.632349"
     x="845.5011"
     y="-255.28761"
     transform="matrix(0.72015038,0.69381801,-0.4763792,0.87923993,0,0)"
     id="rect5040"
     style="font-size:12px;fill:#ffd100;fill-rule:evenodd;stroke:#000000;stroke-width:0.25466424" />
  <rect
     width="4.47926"
     height="19.569351"
     rx="2.1462095"
     ry="8.632349"
     x="842.6059"
     y="-255.2066"
     transform="matrix(0.72015038,0.69381801,-0.4763792,0.87923993,0,0)"
     id="rect5042"
     style="font-size:12px;fill:#ffd100;fill-rule:evenodd;stroke:#000000;stroke-width:0.25466424" />
  <rect
     width="4.3172102"
     height="20.143755"
     rx="2.151634"
     ry="8.6732178"
     x="822.21686"
     y="-108.59398"
     transform="matrix(0.81029041,0.58602854,-0.37675587,0.92631259,0,0)"
     id="rect5044"
     style="font-size:12px;fill:#ffd100;fill-rule:evenodd;stroke:#000000;stroke-width:0.25365731" />
  <rect
     width="4.47926"
     height="19.569351"
     rx="2.1462095"
     ry="8.6323471"
     x="825.3623"
     y="-239.46855"
     transform="matrix(0.72015038,0.69381801,-0.4763792,0.87923993,0,0)"
     id="rect5046"
     style="font-size:12px;fill:#ffd100;fill-rule:evenodd;stroke:#000000;stroke-width:0.25466424" />
  <rect
     width="4.47926"
     height="19.569353"
     rx="2.1462095"
     ry="8.632349"
     x="828.67725"
     y="-239.65979"
     transform="matrix(0.72015038,0.69381801,-0.4763792,0.87923993,0,0)"
     id="rect5048"
     style="font-size:12px;fill:#ffd100;fill-rule:evenodd;stroke:#000000;stroke-width:0.25466424" />
  <rect
     width="4.47926"
     height="19.569353"
     rx="2.1462095"
     ry="8.632349"
     x="832.13428"
     y="-239.63548"
     transform="matrix(0.72015038,0.69381801,-0.4763792,0.87923993,0,0)"
     id="rect5050"
     style="font-size:12px;fill:#ffd100;fill-rule:evenodd;stroke:#000000;stroke-width:0.25466424" />
  <rect
     width="4.47926"
     height="19.569353"
     rx="2.1462095"
     ry="8.632349"
     x="835.84735"
     y="-239.69048"
     transform="matrix(0.72015038,0.69381801,-0.4763792,0.87923993,0,0)"
     id="rect5052"
     style="font-size:12px;fill:#ffd100;fill-rule:evenodd;stroke:#000000;stroke-width:0.25466424" />
  <rect
     width="4.47926"
     height="19.569353"
     rx="2.1462095"
     ry="8.632349"
     x="838.82489"
     y="-239.41258"
     transform="matrix(0.72015038,0.69381801,-0.4763792,0.87923993,0,0)"
     id="rect5054"
     style="font-size:12px;fill:#ffd100;fill-rule:evenodd;stroke:#000000;stroke-width:0.25466424" />
  <rect
     width="4.47926"
     height="19.569351"
     rx="2.1462095"
     ry="8.632349"
     x="856.03491"
     y="-241.55084"
     transform="matrix(0.72015038,0.69381801,-0.4763792,0.87923993,0,0)"
     id="rect5056"
     style="font-size:12px;fill:#ffd100;fill-rule:evenodd;stroke:#000000;stroke-width:0.25466424" />
  <rect
     width="4.47926"
     height="19.569351"
     rx="2.1462095"
     ry="8.632349"
     x="853.66956"
     y="-240.78609"
     transform="matrix(0.72015038,0.69381801,-0.4763792,0.87923993,0,0)"
     id="rect5058"
     style="font-size:12px;fill:#ffd100;fill-rule:evenodd;stroke:#000000;stroke-width:0.25466424" />
  <rect
     width="4.47926"
     height="19.569357"
     rx="2.1462097"
     ry="8.632349"
     x="851.36078"
     y="-240.40523"
     transform="matrix(0.72015038,0.69381801,-0.4763792,0.87923993,0,0)"
     id="rect5060"
     style="font-size:12px;fill:#ffd100;fill-rule:evenodd;stroke:#000000;stroke-width:0.25466424" />
  <rect
     width="4.47926"
     height="19.569353"
     rx="2.1462095"
     ry="8.632349"
     x="847.96118"
     y="-240.26524"
     transform="matrix(0.72015038,0.69381801,-0.4763792,0.87923993,0,0)"
     id="rect5062"
     style="font-size:12px;fill:#ffd100;fill-rule:evenodd;stroke:#000000;stroke-width:0.25466424" />
  <rect
     width="4.47926"
     height="19.569351"
     rx="2.1462095"
     ry="8.632349"
     x="844.62952"
     y="-239.67043"
     transform="matrix(0.72015038,0.69381801,-0.4763792,0.87923993,0,0)"
     id="rect5064"
     style="font-size:12px;fill:#ffd100;fill-rule:evenodd;stroke:#000000;stroke-width:0.25466424" />
  <rect
     width="4.47926"
     height="19.569351"
     rx="2.1462095"
     ry="8.632349"
     x="841.73425"
     y="-239.58942"
     transform="matrix(0.72015038,0.69381801,-0.4763792,0.87923993,0,0)"
     id="rect5066"
     style="font-size:12px;fill:#ffd100;fill-rule:evenodd;stroke:#000000;stroke-width:0.25466424" />
  <rect
     width="5.4263544"
     height="44.952515"
     rx="2.9909897"
     ry="1.0419264"
     x="720.88397"
     y="250.56538"
     id="rect5068"
     style="font-size:12px;fill:#b2802e;fill-rule:evenodd;stroke:#000000;stroke-width:0.17229797" />
  <path
     d="m 717.93938,267.57193 -15.57452,14.01838 10.01532,-16.99514 10.02993,-3.11205 -4.47073,6.08881 z"
     id="path5071"
     style="font-size:12px;fill:#007500;fill-opacity:1;fill-rule:evenodd;stroke:#000000;stroke-width:0.35040563;stroke-opacity:1;stroke-dasharray:none" />
  <path
     d="m 717.56013,264.78746 -21.63521,3.66265 18.86781,-9.07037 8.29517,1.95712 -5.52777,3.4506 z"
     id="path5073"
     style="font-size:12px;fill:#007500;fill-opacity:1;fill-rule:evenodd;stroke:#000000;stroke-width:0.3504056;stroke-opacity:1;stroke-dasharray:none" />
  <path
     d="m 728.50666,265.83484 6.00004,15.67239 -9.52885,-11.87504 -2.65574,-8.62188 6.18455,4.82453 z"
     id="path5075"
     style="font-size:12px;fill:#007500;fill-opacity:1;fill-rule:evenodd;stroke:#000000;stroke-width:0.35040551;stroke-opacity:1;stroke-dasharray:none" />
  <path
     d="m 731.10712,260.08513 18.4462,21.54838 -22.19005,-14.98979 -6.16652,-5.39123 9.91037,-1.16736 z"
     id="path5077"
     style="font-size:12px;fill:#007500;fill-opacity:1;fill-rule:evenodd;stroke:#000000;stroke-width:0.35040623;stroke-opacity:1;stroke-dasharray:none" />
  <path
     d="m 716.36623,262.21169 -22.10398,-10.53327 21.74391,0.27617 7.30823,10.29821 -6.94816,-0.0412 z"
     id="path5079"
     style="font-size:12px;fill:#007500;fill-opacity:1;fill-rule:evenodd;stroke:#000000;stroke-width:0.3504065;stroke-opacity:1;stroke-dasharray:none" />
  <path
     d="m 714.09528,253.78981 -10.49482,-17.72645 15.65646,13.16661 3.72301,13.4734 -8.88465,-8.91356 z"
     id="path5081"
     style="font-size:12px;fill:#007500;fill-opacity:1;fill-rule:evenodd;stroke:#000000;stroke-width:0.35040489;stroke-opacity:1;stroke-dasharray:none" />
  <path
     d="m 717.70695,250.06814 -6.14244,-20.1276 11.34314,16.4893 -0.49447,16.08724 -4.70623,-12.44894 z"
     id="path5083"
     style="font-size:12px;fill:#007500;fill-opacity:1;fill-rule:evenodd;stroke:#000000;stroke-width:0.35040578;stroke-opacity:1;stroke-dasharray:none" />
  <path
     d="m 723.97087,248.40578 13.84464,-15.90376 -9.4573,21.82506 -6.33345,7.64176 1.94611,-13.56306 z"
     id="path5085"
     style="font-size:12px;fill:#007500;fill-opacity:1;fill-rule:evenodd;stroke:#000000;stroke-width:0.3504059;stroke-opacity:1;stroke-dasharray:none" />
  <path
     d="m 728.25342,250.55728 17.80876,-4.68247 -15.79888,13.33729 -8.32505,2.85649 6.31517,-11.51131 z"
     id="path5087"
     style="font-size:12px;fill:#007500;fill-opacity:1;fill-rule:evenodd;stroke:#000000;stroke-width:0.3504059;stroke-opacity:1;stroke-dasharray:none" />
  <path
     d="m 728.16919,255.41854 21.75955,4.08085 -20.32486,4.50063 -6.66973,-2.59573 5.23504,-5.98575 z"
     id="path5089"
     style="font-size:12px;fill:#007500;fill-opacity:1;fill-rule:evenodd;stroke:#000000;stroke-width:0.35040617;stroke-opacity:1;stroke-dasharray:none" />
  <path
     d="m 720.1956,269.34664 -7.545,8.73177 4.46953,-10.51526 5.38644,-5.84475 -2.31097,7.62824 z"
     id="path5091"
     style="font-size:12px;fill:#007500;fill-opacity:1;fill-rule:evenodd;stroke:#000000;stroke-width:0.35040584;stroke-opacity:1;stroke-dasharray:none" />
  <path
     d="m 720.99676,264.16109 -11.58227,9.68666 9.64698,-12.32421 4.30949,-2.43584 -2.3742,5.07339 z"
     id="path5093"
     style="font-size:12px;fill:#007500;fill-opacity:1;fill-rule:evenodd;stroke:#000000;stroke-width:0.23309024;stroke-opacity:1;stroke-dasharray:none" />
  <path
     d="m 726.38525,262.31555 8.6598,15.94434 -10.43118,-12.68849 -2.33864,-6.09495 4.11002,2.8391 z"
     id="path5095"
     style="font-size:12px;fill:#007500;fill-opacity:1;fill-rule:evenodd;stroke:#000000;stroke-width:0.24940722;stroke-opacity:1;stroke-dasharray:none" />
  <path
     d="m 719.37634,259.26222 -11.43484,-13.75638 11.1859,9.74302 3.79848,5.58915 -3.54954,-1.57579 z"
     id="path5097"
     style="font-size:12px;fill:#007500;fill-opacity:1;fill-rule:evenodd;stroke:#000000;stroke-width:0.2163471;stroke-opacity:1;stroke-dasharray:none" />
  <path
     d="m 724.8823,257.18677 10.65109,2.38532 -10.37907,-0.0631 -3.24114,1.08398 2.96912,-3.40619 z"
     id="path5099"
     style="font-size:12px;fill:#007500;fill-opacity:1;fill-rule:evenodd;stroke:#000000;stroke-width:0.21473201;stroke-opacity:1;stroke-dasharray:none" />
  <path
     d="m 721.63265,250.92536 8.08539,-12.58214 -4.2519,10.00336 -3.38022,11.75373 -0.45327,-9.17495 z"
     id="path5101"
     style="font-size:12px;fill:#007500;fill-opacity:1;fill-rule:evenodd;stroke:#000000;stroke-width:0.35040572;stroke-opacity:1;stroke-dasharray:none" />
  <path
     d="m 717.7741,254.67376 -8.77618,-0.8507 9.10808,-3.22008 4.72664,8.94268 -5.05854,-4.8719 z"
     id="path5103"
     style="font-size:12px;fill:#007500;fill-opacity:1;fill-rule:evenodd;stroke:#000000;stroke-width:0.35040584;stroke-opacity:1;stroke-dasharray:none" />
  <path
     d="m 719.25358,265.72666 -15.13884,8.19944 12.60928,-10.43204 5.63283,-2.06185 -3.10327,4.29445 z"
     id="path5105"
     style="font-size:12px;fill:#007500;fill-opacity:1;fill-rule:evenodd;stroke:#000000;stroke-width:0.24517596;stroke-opacity:1;stroke-dasharray:none" />
  <rect
     width="2.9873774"
     height="34.033298"
     rx="1.5517356"
     ry="0.80055028"
     x="701.00458"
     y="-54.706524"
     transform="matrix(0.89422148,0.44762479,-0.22591024,0.97414812,0,0)"
     id="rect5107"
     style="font-size:12px;fill:#b2802e;fill-rule:evenodd;stroke:#000000;stroke-width:0.1633203" />
  <rect
     width="2.8221641"
     height="35.025024"
     rx="1.5555681"
     ry="0.81182313"
     x="624.32404"
     y="258.2128"
     id="rect5109"
     style="font-size:12px;fill:#b2802e;fill-rule:evenodd;stroke:#000000;stroke-width:0.16103639" />
  <path
     d="m 617.09393,240.32804 c 3.45235,-1.36883 6.07689,1.46249 7.19662,7.61216 0.0154,0.55786 0.81775,0.64908 0.8065,0.4929 -0.59103,-10.44325 7.18648,-19.03599 12.12946,-4.26847 0.49247,2.34061 -2.35991,-1.16942 -4.1687,-3.85718 -2.27017,-3.72866 -5.3491,0.79501 -5.5561,10.49922 -0.20866,2.19983 -0.48735,7.01562 -0.48735,7.01562 0,0 -2.5528,-0.44431 -2.61569,-0.57522 -0.0625,-0.13001 -2.11397,-12.03631 -5.8664,-13.26611 -2.80087,-0.56593 -2.05588,1.74315 -5.37898,2.72423 -3.10101,0.38835 -3.0134,-0.21883 -0.70238,-1.59323 2.00175,-0.14042 3.31108,-4.13297 4.64302,-4.78392 z"
     id="path5111"
     style="font-size:12px;fill:#004500;fill-opacity:1;fill-rule:evenodd;stroke:#000000;stroke-width:0.16682874;stroke-linecap:butt;stroke-linejoin:miter;stroke-opacity:1;stroke-dasharray:none" />
  <path
     d="m 617.79225,246.36418 c 3.50312,-1.05436 6.0042,2.00867 6.86446,8.24785 -0.008,0.5582 0.78904,0.72171 0.78435,0.56478 -0.15288,-10.47686 10.91635,-10.78294 15.23198,4.40318 0.39358,2.38065 -0.37622,2.1918 -2.06911,-0.65428 -2.10983,-3.92668 -10.24938,-10.82972 -10.86209,-1.16255 -0.30033,2.17682 -0.78003,6.95833 -0.78003,6.95833 0,0 -2.5294,-0.67406 -2.58667,-0.81042 -0.0569,-0.13542 -1.60626,-12.2045 -5.30013,-13.77093 -2.77189,-0.81789 -3.60944,2.56349 -6.96733,3.24254 -3.11139,0.10753 -2.99854,-0.49062 -0.63436,-1.65367 0.44571,-0.0954 4.96228,-4.83542 6.31893,-5.36483 z"
     id="path5113"
     style="font-size:12px;fill:#004500;fill-opacity:1;fill-rule:evenodd;stroke:#000000;stroke-width:0.16682884;stroke-linecap:butt;stroke-linejoin:miter;stroke-opacity:1;stroke-dasharray:none" />
  <path
     d="m 618.69923,253.60298 c 3.54949,-0.63698 5.87478,2.7117 6.39067,9.03234 -0.0385,0.55541 0.74697,0.81259 0.75088,0.65563 0.4212,-10.46097 7.53429,-4.7343 10.35291,9.61716 0.38075,1.53701 -2.21327,-1.57272 -3.74485,-4.60963 -1.88805,-4.16328 -3.31635,-11.72113 -4.45632,-2.15771 -0.41853,2.13428 -1.15845,6.84363 -1.15845,6.84363 0,0 -2.48428,-0.9708 -2.53392,-1.11346 -0.0493,-0.14171 -0.9329,-12.35478 -4.52904,-14.35266 -2.71813,-1.14278 -4.32597,8.45458 -7.71015,8.73464 -3.1072,-0.26053 -2.96197,-0.84338 -0.54178,-1.72327 0.44949,-0.0425 5.79881,-10.55929 7.18005,-10.92667 z"
     id="path5115"
     style="font-size:12px;fill:#004500;fill-opacity:1;fill-rule:evenodd;stroke:#000000;stroke-width:0.1668288;stroke-linecap:butt;stroke-linejoin:miter;stroke-opacity:1;stroke-dasharray:none" />
  <rect
     width="2.9362497"
     height="34.203045"
     rx="1.53692"
     ry="0.80720371"
     x="528.59357"
     y="495.25723"
     transform="matrix(0.90878138,-0.41727257,0.25001566,0.96824179,0,0)"
     id="rect5117"
     style="font-size:12px;fill:#b2802e;fill-rule:evenodd;stroke:#000000;stroke-width:0.1623202" />
  <path
     d="m 607.9054,238.31631 c -3.58393,0.49741 -5.19346,4.45057 -4.45707,10.69993 0.14644,0.52295 -0.56863,1.01649 -0.6032,0.86654 -2.46133,-9.94399 -10.48793,-9.67752 -10.80219,6.47941 0.21903,2.41238 1.84854,-2.20756 2.74572,-5.61202 1.02373,-4.60089 3.53243,-6.30354 6.51827,2.55098 0.82628,1.92468 2.47062,6.22904 2.47062,6.22904 0,0 2.23066,-1.7126 2.25106,-1.86555 0.0203,-0.15193 -1.51301,-12.19185 1.59982,-15.24172 2.42483,-1.95144 2.5238,-1.88043 5.87664,-2.66988 2.97697,-1.22345 2.72116,-1.73939 0.19014,-1.82941 -0.44636,0.0998 -4.37175,0.31419 -5.78981,0.39268 z"
     id="path5120"
     style="font-size:12px;fill:#004500;fill-opacity:1;fill-rule:evenodd;stroke:#000000;stroke-width:0.16682875;stroke-linecap:butt;stroke-linejoin:miter;stroke-opacity:1;stroke-dasharray:none" />
  <path
     d="m 608.99887,244.24609 c -3.54025,0.81366 -4.969,4.91781 -3.96708,11.11745 0.16812,0.51133 -0.52118,1.06891 -0.56202,0.92164 -2.87586,-9.75152 -10.84129,-8.77885 -10.45538,7.44451 0.32193,2.39892 1.74171,-2.37536 2.48622,-5.86684 0.81854,-4.70197 3.23817,-6.62921 6.58819,1.98411 0.90437,1.85669 2.72454,6.02684 2.72454,6.02684 0,0 2.14286,-1.91278 2.15652,-2.06788 0.0136,-0.15411 -2.03055,-12.08815 0.93123,-15.41895 2.32551,-2.1693 2.42693,-2.10681 5.72493,-3.19289 2.90567,-1.48808 2.62915,-1.98275 0.10988,-1.85051 -0.43928,0.13927 -4.33111,0.69924 -5.73703,0.90252 z"
     id="path5122"
     style="font-size:12px;fill:#004500;fill-opacity:1;fill-rule:evenodd;stroke:#000000;stroke-width:0.16682892;stroke-linecap:butt;stroke-linejoin:miter;stroke-opacity:1;stroke-dasharray:none" />
  <path
     d="m 610.24517,251.39265 c -3.46292,1.22268 -4.64698,5.50088 -3.30343,11.60004 0.19554,0.49318 -0.45614,1.13136 -0.50496,0.98844 -3.40168,-9.44396 -11.24158,-7.55303 -9.94192,8.66448 0.45472,2.36762 1.59201,-2.58126 2.13253,-6.16668 0.54549,-4.80723 2.83473,-7.01729 6.64202,1.23125 1.00133,1.7571 3.04113,5.72786 3.04113,5.72786 0,0 2.01575,-2.16375 2.02053,-2.32079 0.005,-0.15602 -2.69596,-11.88337 0.0513,-15.56268 2.18228,-2.44182 2.28634,-2.39087 5.49372,-3.8588 2.79581,-1.8257 2.49378,-2.2898 0.005,-1.86753 -0.42752,0.19013 -4.25323,1.19895 -5.6352,1.56441 z"
     id="path5124"
     style="font-size:12px;fill:#004500;fill-opacity:1;fill-rule:evenodd;stroke:#000000;stroke-width:0.1668289;stroke-linecap:butt;stroke-linejoin:miter;stroke-opacity:1;stroke-dasharray:none" />
  <path
     d="m 637.77788,236.0428 c 3.56397,0.42818 5.38162,4.39723 5.019,10.74082 -0.11399,0.53257 0.62002,1.01728 0.6454,0.86473 1.84899,-10.12106 11.14673,-14.34054 12.39706,2.01325 -0.0756,2.44733 -1.95138,-2.27365 -3.03446,-5.70208 -1.27753,-4.63728 -5.21669,-1.91108 -7.64644,7.11784 -0.70298,1.96634 -2.07435,6.3595 -2.07435,6.3595 0,0 -2.29991,-1.68714 -2.32892,-1.84162 -0.0288,-0.15341 0.78279,-12.37723 -2.46508,-15.39994 -2.50532,-1.92494 -2.33606,0.61828 -5.68911,-0.11053 -3.00753,-1.17614 -2.78525,-1.70396 -0.29401,-1.84842 1.91601,0.86299 4.06763,-2.24316 5.47091,-2.19357 z"
     id="path5126"
     style="font-size:12px;fill:#004500;fill-opacity:1;fill-rule:evenodd;stroke:#000000;stroke-width:0.16682878;stroke-linecap:butt;stroke-linejoin:miter;stroke-opacity:1;stroke-dasharray:none" />
  <path
     d="m 637.04494,242.06999 c 3.5393,0.74933 5.18741,4.87508 4.55999,11.17389 -0.13606,0.52127 0.5763,1.07137 0.60802,0.9214 2.26904,-9.9349 12.75584,-4.72009 13.31943,11.71568 -0.17792,2.43591 -0.85881,1.87547 -1.79637,-1.64433 -1.08105,-4.74392 -7.15065,-15.28616 -9.95364,-6.49384 -0.78396,1.89913 -2.33658,6.16014 -2.33658,6.16014 0,0 -2.22494,-1.89172 -2.24745,-2.04851 -0.0223,-0.15574 1.29927,-12.28314 -1.81594,-15.59348 -2.42003,-2.14763 -3.98694,0.61792 -7.30314,-0.4124 -2.95264,-1.44557 -2.70868,-1.95231 -0.2161,-1.87147 0.44141,0.13177 5.78321,-2.08332 7.18178,-1.90708 z"
     id="path5128"
     style="font-size:12px;fill:#004500;fill-opacity:1;fill-rule:evenodd;stroke:#000000;stroke-width:0.16682886;stroke-linecap:butt;stroke-linejoin:miter;stroke-opacity:1;stroke-dasharray:none" />
  <path
     d="m 636.23126,249.33272 c 3.48681,1.16514 4.90371,5.47224 3.9335,11.67652 -0.16417,0.50352 0.51575,1.13602 0.55558,0.99027 2.8056,-9.63456 8.18022,-0.70955 7.52734,14.19659 0.005,1.63563 -1.72051,-2.58025 -2.46234,-6.19941 -0.81783,-4.85629 -0.42125,-12.67839 -3.69652,-4.24577 -0.88538,1.8003 -2.66624,5.86401 -2.66624,5.86401 0,0 -2.11418,-2.14851 -2.12803,-2.30745 -0.0138,-0.15785 1.96752,-12.08977 -0.95637,-15.75755 -2.29461,-2.42663 -6.01795,5.80532 -9.267,4.38647 -2.86393,-1.78982 -2.59302,-2.2661 -0.11294,-1.89094 0.43275,0.18351 7.88864,-7.05369 9.27302,-6.71274 z"
     id="path5130"
     style="font-size:12px;fill:#004500;fill-opacity:1;fill-rule:evenodd;stroke:#000000;stroke-width:0.16682884;stroke-linecap:butt;stroke-linejoin:miter;stroke-opacity:1;stroke-dasharray:none" />
  <path
     d="m 590.85797,149.90745 0,148.68614 c 2.26154,91.69606 36.79287,124.52825 84.98696,151.49877 55.22616,-32.54986 83.28424,-72.48408 83.28424,-151.49877 l 0,-148.68614 -168.2712,0 z"
     id="path5239"
     style="font-size:12px;fill:none;stroke:#000000;stroke-width:1.99999988;stroke-miterlimit:4;stroke-opacity:1;stroke-dasharray:none" />
</svg>
