<?xml version="1.0" encoding="UTF-8" standalone="no"?>
<!-- Created with Sodipodi ("http://www.sodipodi.com/") -->

<!--



-->

<svg
   xmlns:dc="http://purl.org/dc/elements/1.1/"
   xmlns:cc="http://creativecommons.org/ns#"
   xmlns:rdf="http://www.w3.org/1999/02/22-rdf-syntax-ns#"
   xmlns:svg="http://www.w3.org/2000/svg"
   xmlns="http://www.w3.org/2000/svg"
   xmlns:sodipodi="http://sodipodi.sourceforge.net/DTD/sodipodi-0.dtd"
   xmlns:inkscape="http://www.inkscape.org/namespaces/inkscape"
   height="600"
   id="svg678"
   sodipodi:docname="Flag_of_Eritrea.svg"
   sodipodi:version="0.32"
   width="900"
   inkscape:version="0.47 r22583"
   version="1.0">
  <metadata
     id="metadata1778">
    <rdf:RDF>
      <cc:Work
         rdf:about="">
        <dc:title> eritrea</dc:title>
        <dc:description />
        <dc:subject>
          <rdf:Bag>
            <rdf:li />
            <rdf:li>united_nations_member</rdf:li>
            <rdf:li>flag</rdf:li>
            <rdf:li>africa</rdf:li>
            <rdf:li>sign</rdf:li>
          </rdf:Bag>
        </dc:subject>
        <dc:publisher>
          <cc:Agent
             rdf:about="http://www.openclipart.org">
            <dc:title> Andrew Duhan</dc:title>
          </cc:Agent>
        </dc:publisher>
        <dc:creator>
          <cc:Agent>
            <dc:title>Andrew Duhan</dc:title>
          </cc:Agent>
        </dc:creator>
        <dc:rights>
          <cc:Agent>
            <dc:title> Andrew Duhan</dc:title>
          </cc:Agent>
        </dc:rights>
        <dc:date />
        <dc:format>image/svg+xml</dc:format>
        <dc:type
           rdf:resource="http://purl.org/dc/dcmitype/StillImage" />
        <cc:license
           rdf:resource="http://web.resource.org/cc/PublicDomain" />
        <dc:language>en</dc:language>
      </cc:Work>
      <cc:License
         rdf:about="http://web.resource.org/cc/PublicDomain">
        <cc:permits
           rdf:resource="http://web.resource.org/cc/Reproduction" />
        <cc:permits
           rdf:resource="http://web.resource.org/cc/Distribution" />
        <cc:permits
           rdf:resource="http://web.resource.org/cc/DerivativeWorks" />
      </cc:License>
    </rdf:RDF>
  </metadata>
  <defs
     id="defs680">
    <inkscape:perspective
       sodipodi:type="inkscape:persp3d"
       inkscape:vp_x="0 : 250 : 1"
       inkscape:vp_y="0 : 1000 : 0"
       inkscape:vp_z="1000 : 250 : 1"
       inkscape:persp3d-origin="500 : 166.66667 : 1"
       id="perspective10" />
  </defs>
  <sodipodi:namedview
     id="base"
     inkscape:zoom="0.33629999"
     inkscape:cx="896.62565"
     inkscape:cy="315.5225"
     inkscape:window-width="1278"
     inkscape:window-height="968"
     inkscape:window-x="-4"
     inkscape:window-y="-4"
     inkscape:current-layer="svg678"
     showgrid="false"
     inkscape:window-maximized="0" />
  <rect
     height="600"
     id="rect686"
     style="font-size:12px;fill:#ea0437;fill-opacity:1;fill-rule:evenodd;stroke-width:1pt"
     width="900"
     x="0"
     y="0" />
  <path
     d="m 207.22462,442.99396 c -9.72917,3.58184 -15.30701,13.64611 -15.16417,23.1415 l 47.8896,-0.25635 c 0.43033,-10.20346 -5.86535,-19.64026 -15.44986,-23.35638 46.88793,-1.2916 87.6212,-24.70901 95.0229,-39.73464 -7.3248,-4.23862 -15.7941,2.58321 -21.83158,1.01325 14.33465,-8.8337 57.28184,-45.89724 50.29947,-85.63188 -5.4277,22.06965 -21.87006,40.33038 -28.87256,45.23313 16.04315,-32.48064 37.94983,-66.29683 18.94377,-92.48303 0.95956,15.17699 -7.23325,31.88002 -10.85169,33.13498 9.30615,-34.31915 18.18565,-77.40856 -1.9777,-105.81418 2.64791,10.26694 1.57848,39.22924 -2.06744,40.53061 -1.12252,-23.33683 -4.10921,-72.42283 -22.54209,-71.72453 5.85435,6.94881 8.41619,25.91517 8.54621,45.07199 -4.20076,-13.12362 -8.97471,-23.00478 -19.18549,-32.6955 -8.26056,-21.1223 -22.95779,-38.62371 -37.65685,-51.16135 1.64991,15.37477 3.01599,27.50466 19.11591,43.45076 -8.39422,-0.69585 -16.78663,-21.91338 -25.75768,-22.50181 -7.13619,-0.45902 -12.73601,8.62131 -24.3971,3.39628 1.29099,5.13224 6.7315,7.40538 7.87965,11.20207 -2.49775,2.29999 -8.42718,-0.35892 -13.35678,-3.78204 6.78094,12.31544 17.28837,19.55723 26.20817,17.11319 10.60814,-2.71995 21.98175,-1.28184 32.82979,6.9488 -2.77062,1.89713 -13.55457,1.88491 -20.47467,0.73005 6.29018,8.49188 10.50927,14.11978 21.44703,14.027 9.76946,-0.0854 14.89134,-6.9488 17.40008,-2.69797 6.12722,9.68095 10.25107,19.35702 15.37661,30.75443 -11.32232,1.66761 -7.90896,-17.07412 -20.51862,-26.65985 -7.08491,19.55235 8.14885,42.73047 18.51895,52.36503 0.13918,14.69601 1.75064,26.99194 6.42568,38.1818 3.1515,7.88882 7.22594,15.9632 5.68956,33.76736 -6.20778,-6.02832 -12.27455,-26.35954 -10.04232,-42.49853 -7.76979,2.82495 -10.80776,21.04173 -7.14535,30.2124 2.73582,6.98055 4.56152,20.341 1.40636,26.31316 -3.07459,5.56441 -3.39688,4.94179 -3.35659,16.88367 0.10987,7.14657 -2.88414,15.59697 -7.76064,21.48855 1.01815,-5.03459 2.17914,-13.6974 1.05111,-19.11288 -3.85467,8.71897 -13.52525,17.74069 -16.57054,27.11401 -2.99036,9.39529 -3.74848,25.66858 -18.22046,29.42131 -18.61783,4.92717 -25.04353,9.22927 -37.02325,15.76543 -1.32945,-12.13232 2.64975,-37.43221 10.2584,-35.98923 7.42918,1.76285 29.95296,-10.34751 21.89568,-35.64739 -1.59132,7.97428 -6.89997,15.75566 -12.63895,16.09993 6.20045,-10.72596 17.2664,-21.83281 11.87717,-39.80545 -2.99585,7.63977 -7.70753,16.808 -14.85288,21.9671 7.65991,-19.57189 0.88996,-25.42685 -8.20562,-9.30739 -3.43534,6.21876 -5.51009,18.68069 -7.69289,34.50717 -3.57267,-12.87213 -3.33644,-29.81685 -7.57018,-43.57528 -4.42236,-14.87914 5.869,-18.80766 10.71254,-17.61374 11.85886,4.22154 31.67796,4.2191 30.20566,-21.90361 -5.12186,8.83615 -14.10391,11.56588 -23.80378,8.38445 10.89382,-10.60631 19.49498,-30.55664 7.35593,-40.97252 -0.40469,11.04582 -6.81573,23.42962 -15.37478,29.13321 -2.00333,-9.31961 -2.00333,-19.21055 -0.28566,-30.0537 -4.77943,6.70708 -8.2697,20.66328 -11.04581,36.52882 -0.20876,-15.68242 2.01616,-26.98216 3.66606,-35.41789 2.50143,-12.32277 8.71836,-4.30455 18.23512,-3.39627 9.16517,0.69341 21.78399,-6.06006 19.37228,-22.63122 -3.12951,6.55571 -9.55337,9.10719 -16.1164,8.41378 7.90164,-6.38236 21.66861,-17.72361 14.11857,-35.16886 -3.17165,6.60697 -4.19895,12.25927 -13.37877,14.28582 2.40436,-7.37365 2.80358,-17.79929 9.92879,-21.93047 -12.71038,-3.3743 -19.98758,7.7472 -23.68661,25.16559 -1.49976,-12.07617 -3.28517,-16.52232 -3.64043,-25.35604 6.87067,-10.17417 7.59033,-30.07811 -7.28451,-34.52916 -0.88265,10.26695 -0.62079,12.71344 1.07124,21.07348 -6.98237,-5.53023 -16.82325,-8.58223 -23.37529,-0.76177 4.43883,6.38724 11.3095,12.01024 21.89934,5.04435 -2.50142,10.91151 -9.00768,9.04369 -17.94761,4.88319 5.46432,13.68518 12.36062,16.11704 19.97109,14.53976 3.9847,14.00747 4.16049,24.65041 -7.48413,45.05002 0.53837,-12.6768 -0.13733,-22.12094 -7.69104,-32.37078 -6.4733,-8.45283 -11.73434,0.36136 -1.61878,19.15437 -6.13637,-6.02587 -13.08211,-18.25585 -15.17335,-30.48341 -2.02347,15.10619 -0.20143,32.91038 6.07044,42.89165 -2.96654,4.2264 -6.33963,-0.44927 -11.32965,-10.78946 1.88798,33.09104 12.47598,39.47583 26.70626,32.09977 0.40469,18.16307 0.40469,34.98084 1.21408,56.92109 -8.29717,-15.91439 -18.81561,-27.78546 -24.6846,-30.75201 -1.82022,8.9021 5.05961,20.4997 8.90331,26.97483 -5.86718,-1.61878 -18.61418,-14.5666 -18.61418,-14.5666 -1.28184,14.74729 13.01802,28.41539 22.25644,34.52915 -10.85721,-0.62994 -15.64763,-6.11376 -22.66113,-15.1062 0.13551,40.91395 33.2473,33.80887 39.45324,27.51443 0.8094,20.14321 1.96305,43.42878 2.77245,63.57203 -9.36111,-2.17792 -8.62497,-5.93068 -16.63465,-6.91952 -22.2308,-1.15488 -39.86526,-35.58147 -45.70496,-60.90578 -1.67556,4.1678 -0.34611,8.52851 -1.87882,13.64856 -3.6093,-12.4302 -8.22026,-28.48374 -14.40424,-35.95504 1.57483,7.24667 1.74148,14.61054 1.19394,28.15412 -2.12236,-8.77511 -4.09639,-11.46576 -4.23923,-21.76689 0.13551,-7.90835 5.72251,-13.74379 5.41304,-24.86773 -0.22891,-8.12077 -5.78477,-25.7223 -6.60149,-39.34888 -2.69004,14.02458 -4.3784,28.80849 -8.4986,37.49082 2.04728,-14.97679 1.39098,-25.31209 4.85451,-35.39103 4.00117,-10.61121 7.40355,-20.08462 4.73916,-30.7935 -2.55454,4.13609 -1.67556,7.89369 -8.09374,17.94335 -1.39409,-10.92863 8.29883,-28.42028 17.70571,-35.45208 6.63446,-4.66103 14.99754,-21.3323 9.54972,-32.75898 -6.2389,5.97459 -9.04065,14.04652 -17.85422,27.83916 6.28652,-32.76633 22.62083,-41.33879 42.17625,-41.4511 4.32713,-0.0269 13.05098,-2.10955 15.4993,-9.74444 -5.51192,2.83714 -12.02917,3.1985 -17.82859,1.65052 4.22092,-8.26238 13.10958,-7.18808 21.3921,-7.23691 6.4971,-0.0415 16.64014,-1.21592 20.7402,-13.55334 -7.92544,4.578 -20.28606,5.53024 -28.06867,2.28778 12.37709,-8.55049 31.76403,-9.47098 41.70746,-20.69259 -11.3333,-11.27775 -39.69314,2.62718 -57.60595,19.00788 5.00651,-6.104 12.91912,-16.93251 17.28471,-25.67344 -9.79692,-6.26272 -34.57309,30.33447 -43.10833,52.07938 -8.10673,6.104 -11.34979,15.67265 -14.49763,22.35045 4.31981,-19.46203 4.77761,-33.58426 8.38141,-49.61094 -27.78921,12.75493 -16.23836,81.21504 -22.28298,97.59331 0.71142,-18.08252 0.13533,-41.31193 -5.44819,-53.29043 -8.55941,8.70676 -9.25013,59.95113 -1.21409,102.61325 -2.9019,-11.41693 -8.37903,-22.07454 -10.136246,-35.9697 -12.667894,30.8057 7.426076,67.14896 24.228626,95.85732 -12.64958,-8.78488 -25.156688,-27.68045 -33.372194,-43.52155 2.267586,55.13627 45.450814,66.59227 52.154834,80.14315 -9.09924,-5.6474 -26.49492,-16.82263 -33.8765,-5.11271 12.01671,3.69904 21.60196,7.97428 29.32597,14.72531 11.20695,18.65629 32.42875,26.81612 69.3879,28.87684 z"
     id="path687"
     sodipodi:nodetypes="cccccccccccccccccscccsccsccccsccscsccsscsccccscsscccccccsccccccccccccccccccccccccccccscccccsccsccsccsccscccccccccccccccccc"
     style="fill:#ffc726;fill-opacity:1;fill-rule:evenodd;stroke:none" />
  <path
     d="M 0,599.99983 900,599.62399 899.9438,299.99983 0,599.99983 z"
     id="path684"
     style="fill:#4189dd;fill-opacity:1;fill-rule:evenodd;stroke:none" />
  <path
     d="M 0,4.08e-4 899.99964,0.376248 899.94344,300.00028 0,4.08e-4 z"
     id="path685"
     style="fill:#12ad2b;fill-opacity:1;fill-rule:evenodd;stroke:none" />
</svg>
