<?xml version="1.0" encoding="UTF-8" standalone="no"?>
<!-- Created with Inkscape (http://www.inkscape.org/) -->

<svg
   xmlns:dc="http://purl.org/dc/elements/1.1/"
   xmlns:cc="http://creativecommons.org/ns#"
   xmlns:rdf="http://www.w3.org/1999/02/22-rdf-syntax-ns#"
   xmlns:svg="http://www.w3.org/2000/svg"
   xmlns="http://www.w3.org/2000/svg"
   xmlns:xlink="http://www.w3.org/1999/xlink"
   xmlns:sodipodi="http://sodipodi.sourceforge.net/DTD/sodipodi-0.dtd"
   xmlns:inkscape="http://www.inkscape.org/namespaces/inkscape"
   version="1.0"
   width="900"
   height="600"
   id="svg2383"
   inkscape:version="0.47 r22583"
   sodipodi:docname="Flag_of_Iran.svg">
  <metadata
     id="metadata3158">
    <rdf:RDF>
      <cc:Work
         rdf:about="">
        <dc:format>image/svg+xml</dc:format>
        <dc:type
           rdf:resource="http://purl.org/dc/dcmitype/StillImage" />
      </cc:Work>
    </rdf:RDF>
  </metadata>
  <sodipodi:namedview
     pagecolor="#ffffff"
     bordercolor="#666666"
     borderopacity="1"
     objecttolerance="10"
     gridtolerance="10"
     guidetolerance="10"
     inkscape:pageopacity="0"
     inkscape:pageshadow="2"
     inkscape:window-width="1121"
     inkscape:window-height="963"
     id="namedview3156"
     showgrid="false"
     inkscape:zoom="0.28522727"
     inkscape:cx="770"
     inkscape:cy="440"
     inkscape:window-x="0"
     inkscape:window-y="0"
     inkscape:window-maximized="0"
     inkscape:current-layer="svg2383" />
  <defs
     id="defs2385">
    <inkscape:perspective
       sodipodi:type="inkscape:persp3d"
       inkscape:vp_x="0 : 440 : 1"
       inkscape:vp_y="0 : 1000 : 0"
       inkscape:vp_z="1540 : 440 : 1"
       inkscape:persp3d-origin="770 : 293.33333 : 1"
       id="perspective3160" />
    <path
       d="m 0,0 1,0 0,-2 3,0 0,2 5,0 0,-3 -3,0 0,1 2,0 0,1 -3,0 0,-2 -5,0 0,3 z m 2,0 1,0 0,-1 -1,0 0,1 z m -2,-4 13,0 0,-1 -13,0 0,1 z m 13,4 -3,0 0,-3 4,0 0,-2 1,0 0,4 1,0 0,-4 1,0 0,4 1,0 0,-4 1,0 0,5 -5,0 0,-2 -3,0 0,1 2,0 0,1 z"
       transform="translate(-9.5,0)"
       id="Allahu_Akbar"
       style="fill:#ffffff" />
    <path
       d="m 0,0 9,0 0,-2 -9,0 0,2 z m 10,0 9,0 0,-2 -9,0 0,2 z"
       transform="translate(-9.5,0)"
       id="lines"
       style="fill:#ffffff" />
  </defs>
  <rect
     width="900"
     height="600"
     x="0"
     y="2.8421709e-14"
     id="rect2389"
     style="fill:#ffffff" />
  <rect
     width="900"
     height="200.45454"
     x="0"
     y="2.8421709e-14"
     id="rect2391"
     style="fill:#239f40" />
  <rect
     width="900"
     height="200.45454"
     x="0"
     y="399.54544"
     id="rect2395"
     style="fill:#da0000" />
  <path
     d="m 450,236.96747 -7.99154,7.57531 1.49841,121.20508 6.49313,8.74076 6.49313,-8.74076 1.49841,-121.20508 L 450,236.96747 z"
     id="path2399"
     style="fill:#da0000" />
  <path
     d="m 465.98309,224.1477 c -1.6247,3.07462 -4.28575,5.20698 -7.32868,5.87262 -3.04293,0.66564 -6.18536,-0.1972 -8.65441,-2.37632 -2.46905,2.17912 -5.61148,3.04196 -8.65441,2.37632 -3.04293,-0.66564 -5.70398,-2.798 -7.32868,-5.87262 -1.0702,4.85734 0.7919,9.94732 4.53861,12.4061 3.74671,2.45878 8.44216,1.67219 11.44448,-1.9172 3.00232,3.58939 7.69777,4.37598 11.44448,1.9172 3.74671,-2.45878 5.60881,-7.54876 4.53861,-12.4061"
     id="path2401"
     style="fill:#da0000" />
  <path
     d="m 469.97886,241.04648 c 15.28483,24.31116 16.75733,56.88261 3.74934,82.93472 -13.008,26.05212 -38.01974,40.62456 -63.68592,37.10493 27.70229,12.92875 59.34189,0.22756 74.36012,-29.85062 15.01823,-30.07818 8.88114,-68.45285 -14.42354,-90.18903"
     id="path2403"
     style="fill:#da0000" />
  <path
     d="m 430.02114,241.04648 c -15.28483,24.31116 -16.75733,56.88261 -3.74934,82.93472 13.008,26.05212 38.01974,40.62456 63.68592,37.10493 -27.70229,12.92875 -59.34189,0.22756 -74.36012,-29.85062 -15.01823,-30.07818 -8.88114,-68.45285 14.42354,-90.18903"
     id="path2405"
     style="fill:#da0000" />
  <path
     d="m 477.47093,238.71562 c 14.67792,12.4565 24.21689,31.51185 26.30458,52.54686 2.08768,21.03501 -3.46652,42.12927 -15.31621,58.16932 18.50461,-11.67483 29.05207,-35.31758 26.63236,-59.69799 -2.41971,-24.38042 -17.31899,-44.58563 -37.62073,-51.01819"
     id="path2407"
     style="fill:#da0000" />
  <path
     d="m 422.52907,238.71562 c -14.67792,12.4565 -24.21689,31.51185 -26.30458,52.54686 -2.08768,21.03501 3.46652,42.12927 15.31621,58.16932 -18.50461,-11.67483 -29.05207,-35.31758 -26.63236,-59.69799 2.41971,-24.38042 17.31899,-44.58563 37.62073,-51.01819"
     id="path2409"
     style="fill:#da0000" />
  <use
     transform="matrix(4.0909091,0,0,4.7727273,40.909091,190.90909)"
     id="use2412"
     x="0"
     y="0"
     width="1540"
     height="880"
     xlink:href="#Allahu_Akbar" />
  <use
     transform="matrix(4.0909091,0,0,4.7727273,122.72727,190.90909)"
     id="use2414"
     x="0"
     y="0"
     width="1540"
     height="880"
     xlink:href="#Allahu_Akbar" />
  <use
     transform="matrix(4.0909091,0,0,4.7727273,204.54545,190.90909)"
     id="use2416"
     x="0"
     y="0"
     width="1540"
     height="880"
     xlink:href="#Allahu_Akbar" />
  <use
     transform="matrix(4.0909091,0,0,4.7727273,286.36364,190.90909)"
     id="use2418"
     x="0"
     y="0"
     width="1540"
     height="880"
     xlink:href="#Allahu_Akbar" />
  <use
     transform="matrix(4.0909091,0,0,4.7727273,368.18182,190.90909)"
     id="use2420"
     x="0"
     y="0"
     width="1540"
     height="880"
     xlink:href="#Allahu_Akbar" />
  <use
     transform="matrix(4.0909091,0,0,4.7727273,450,190.90909)"
     id="use2422"
     x="0"
     y="0"
     width="1540"
     height="880"
     xlink:href="#Allahu_Akbar" />
  <use
     transform="matrix(4.0909091,0,0,4.7727273,531.81818,190.90909)"
     id="use2424"
     x="0"
     y="0"
     width="1540"
     height="880"
     xlink:href="#Allahu_Akbar" />
  <use
     transform="matrix(4.0909091,0,0,4.7727273,613.63636,190.90909)"
     id="use2426"
     x="0"
     y="0"
     width="1540"
     height="880"
     xlink:href="#Allahu_Akbar" />
  <use
     transform="matrix(4.0909091,0,0,4.7727273,695.45455,190.90909)"
     id="use2428"
     x="0"
     y="0"
     width="1540"
     height="880"
     xlink:href="#Allahu_Akbar" />
  <use
     transform="matrix(4.0909091,0,0,4.7727273,777.27273,190.90909)"
     id="use2430"
     x="0"
     y="0"
     width="1540"
     height="880"
     xlink:href="#Allahu_Akbar" />
  <use
     transform="matrix(4.0909091,0,0,4.7727273,859.09091,190.90909)"
     id="use2432"
     x="0"
     y="0"
     width="1540"
     height="880"
     xlink:href="#Allahu_Akbar" />
  <use
     transform="matrix(4.0909091,0,0,4.7727273,40.909091,205.22727)"
     id="use2435"
     x="0"
     y="0"
     width="1540"
     height="880"
     xlink:href="#lines" />
  <use
     transform="matrix(4.0909091,0,0,4.7727273,122.72727,205.22727)"
     id="use2437"
     x="0"
     y="0"
     width="1540"
     height="880"
     xlink:href="#lines" />
  <use
     transform="matrix(4.0909091,0,0,4.7727273,204.54545,205.22727)"
     id="use2439"
     x="0"
     y="0"
     width="1540"
     height="880"
     xlink:href="#lines" />
  <use
     transform="matrix(4.0909091,0,0,4.7727273,286.36364,205.22727)"
     id="use2441"
     x="0"
     y="0"
     width="1540"
     height="880"
     xlink:href="#lines" />
  <use
     transform="matrix(4.0909091,0,0,4.7727273,368.18182,205.22727)"
     id="use2443"
     x="0"
     y="0"
     width="1540"
     height="880"
     xlink:href="#lines" />
  <use
     transform="matrix(4.0909091,0,0,4.7727273,450,205.22727)"
     id="use2445"
     x="0"
     y="0"
     width="1540"
     height="880"
     xlink:href="#lines" />
  <use
     transform="matrix(4.0909091,0,0,4.7727273,531.81818,205.22727)"
     id="use2447"
     x="0"
     y="0"
     width="1540"
     height="880"
     xlink:href="#lines" />
  <use
     transform="matrix(4.0909091,0,0,4.7727273,613.63636,205.22727)"
     id="use2449"
     x="0"
     y="0"
     width="1540"
     height="880"
     xlink:href="#lines" />
  <use
     transform="matrix(4.0909091,0,0,4.7727273,695.45455,205.22727)"
     id="use2451"
     x="0"
     y="0"
     width="1540"
     height="880"
     xlink:href="#lines" />
  <use
     transform="matrix(4.0909091,0,0,4.7727273,777.27273,205.22727)"
     id="use2453"
     x="0"
     y="0"
     width="1540"
     height="880"
     xlink:href="#lines" />
  <use
     transform="matrix(4.0909091,0,0,4.7727273,859.09091,205.22727)"
     id="use2455"
     x="0"
     y="0"
     width="1540"
     height="880"
     xlink:href="#lines" />
  <use
     transform="matrix(4.0909091,0,0,4.7727273,40.909091,432.95455)"
     id="use2579"
     x="0"
     y="0"
     width="1540"
     height="880"
     xlink:href="#Allahu_Akbar" />
  <use
     transform="matrix(4.0909091,0,0,4.7727273,122.72727,432.95455)"
     id="use2581"
     x="0"
     y="0"
     width="1540"
     height="880"
     xlink:href="#Allahu_Akbar" />
  <use
     transform="matrix(4.0909091,0,0,4.7727273,204.54545,432.95455)"
     id="use2583"
     x="0"
     y="0"
     width="1540"
     height="880"
     xlink:href="#Allahu_Akbar" />
  <use
     transform="matrix(4.0909091,0,0,4.7727273,286.36364,432.95455)"
     id="use2585"
     x="0"
     y="0"
     width="1540"
     height="880"
     xlink:href="#Allahu_Akbar" />
  <use
     transform="matrix(4.0909091,0,0,4.7727273,368.18182,432.95455)"
     id="use2587"
     x="0"
     y="0"
     width="1540"
     height="880"
     xlink:href="#Allahu_Akbar" />
  <use
     transform="matrix(4.0909091,0,0,4.7727273,450,432.95455)"
     id="use2589"
     x="0"
     y="0"
     width="1540"
     height="880"
     xlink:href="#Allahu_Akbar" />
  <use
     transform="matrix(4.0909091,0,0,4.7727273,531.81818,432.95455)"
     id="use2591"
     x="0"
     y="0"
     width="1540"
     height="880"
     xlink:href="#Allahu_Akbar" />
  <use
     transform="matrix(4.0909091,0,0,4.7727273,613.63636,432.95455)"
     id="use2593"
     x="0"
     y="0"
     width="1540"
     height="880"
     xlink:href="#Allahu_Akbar" />
  <use
     transform="matrix(4.0909091,0,0,4.7727273,695.45455,432.95455)"
     id="use2595"
     x="0"
     y="0"
     width="1540"
     height="880"
     xlink:href="#Allahu_Akbar" />
  <use
     transform="matrix(4.0909091,0,0,4.7727273,777.27273,432.95455)"
     id="use2597"
     x="0"
     y="0"
     width="1540"
     height="880"
     xlink:href="#Allahu_Akbar" />
  <use
     transform="matrix(4.0909091,0,0,4.7727273,859.09091,432.95455)"
     id="use2599"
     x="0"
     y="0"
     width="1540"
     height="880"
     xlink:href="#Allahu_Akbar" />
  <use
     transform="matrix(4.0909091,0,0,4.7727273,40.909091,404.31818)"
     id="use2544"
     x="0"
     y="0"
     width="1540"
     height="880"
     xlink:href="#lines" />
  <use
     transform="matrix(4.0909091,0,0,4.7727273,122.72727,404.31818)"
     id="use2546"
     x="0"
     y="0"
     width="1540"
     height="880"
     xlink:href="#lines" />
  <use
     transform="matrix(4.0909091,0,0,4.7727273,204.54545,404.31818)"
     id="use2548"
     x="0"
     y="0"
     width="1540"
     height="880"
     xlink:href="#lines" />
  <use
     transform="matrix(4.0909091,0,0,4.7727273,286.36364,404.31818)"
     id="use2550"
     x="0"
     y="0"
     width="1540"
     height="880"
     xlink:href="#lines" />
  <use
     transform="matrix(4.0909091,0,0,4.7727273,368.18182,404.31818)"
     id="use2552"
     x="0"
     y="0"
     width="1540"
     height="880"
     xlink:href="#lines" />
  <use
     transform="matrix(4.0909091,0,0,4.7727273,450,404.31818)"
     id="use2554"
     x="0"
     y="0"
     width="1540"
     height="880"
     xlink:href="#lines" />
  <use
     transform="matrix(4.0909091,0,0,4.7727273,531.81818,404.31818)"
     id="use2556"
     x="0"
     y="0"
     width="1540"
     height="880"
     xlink:href="#lines" />
  <use
     transform="matrix(4.0909091,0,0,4.7727273,613.63636,404.31818)"
     id="use2558"
     x="0"
     y="0"
     width="1540"
     height="880"
     xlink:href="#lines" />
  <use
     transform="matrix(4.0909091,0,0,4.7727273,695.45455,404.31818)"
     id="use2560"
     x="0"
     y="0"
     width="1540"
     height="880"
     xlink:href="#lines" />
  <use
     transform="matrix(4.0909091,0,0,4.7727273,777.27273,404.31818)"
     id="use2562"
     x="0"
     y="0"
     width="1540"
     height="880"
     xlink:href="#lines" />
  <use
     transform="matrix(4.0909091,0,0,4.7727273,859.09091,404.31818)"
     id="use2564"
     x="0"
     y="0"
     width="1540"
     height="880"
     xlink:href="#lines" />
</svg>
