<?xml version="1.0" encoding="UTF-8" standalone="no"?>
<svg
   xmlns:dc="http://purl.org/dc/elements/1.1/"
   xmlns:cc="http://creativecommons.org/ns#"
   xmlns:rdf="http://www.w3.org/1999/02/22-rdf-syntax-ns#"
   xmlns:svg="http://www.w3.org/2000/svg"
   xmlns="http://www.w3.org/2000/svg"
   xmlns:sodipodi="http://sodipodi.sourceforge.net/DTD/sodipodi-0.dtd"
   xmlns:inkscape="http://www.inkscape.org/namespaces/inkscape"
   width="900"
   height="600"
   viewBox="0 0 873.78641 582.52427"
   id="svg2861"
   version="1.1"
   inkscape:version="0.47 r22583"
   sodipodi:docname="Flag_of_Cyprus.svg">
  <metadata
     id="metadata2920">
    <rdf:RDF>
      <cc:Work
         rdf:about="">
        <dc:format>image/svg+xml</dc:format>
        <dc:type
           rdf:resource="http://purl.org/dc/dcmitype/StillImage" />
      </cc:Work>
    </rdf:RDF>
  </metadata>
  <defs
     id="defs2918">
    <inkscape:perspective
       sodipodi:type="inkscape:persp3d"
       inkscape:vp_x="0 : 309 : 1"
       inkscape:vp_y="0 : 1000 : 0"
       inkscape:vp_z="1030 : 309 : 1"
       inkscape:persp3d-origin="515 : 206 : 1"
       id="perspective2922" />
  </defs>
  <sodipodi:namedview
     pagecolor="#ffffff"
     bordercolor="#666666"
     borderopacity="1"
     objecttolerance="10"
     gridtolerance="10"
     guidetolerance="10"
     inkscape:pageopacity="0"
     inkscape:pageshadow="2"
     inkscape:window-width="964"
     inkscape:window-height="670"
     id="namedview2916"
     showgrid="false"
     inkscape:zoom="0.40614887"
     inkscape:cx="515"
     inkscape:cy="309"
     inkscape:window-x="0"
     inkscape:window-y="0"
     inkscape:window-maximized="0"
     inkscape:current-layer="svg2861" />
  <rect
     width="873.78644"
     height="582.52429"
     id="rect2863"
     x="0"
     y="-2.3219809e-06"
     style="fill:#ffffff" />
  <path
     id="Cyprus"
     d="m 373.68,180.18349 c 0,7.45631 0.83884,8.38835 1.25825,9.78641 0.41942,1.39806 0.94369,27.02816 -2.5165,34.01942 -3.4602,6.99126 -10.27573,10.95145 -13.00194,11.65048 -2.72622,0.69903 -11.32428,-6.05825 -19.29408,-8.85437 -7.96893,-2.79611 -7.54952,-2.33009 -10.90398,-2.33009 -3.35447,0 -10.90486,3.14466 -13.00194,5.12621 -1.36311,-0.23301 -1.67767,-0.93204 -2.51651,0 -0.83796,0.93204 -4.19417,4.66019 -5.03301,6.99029 -0.83883,2.3301 -2.93505,11.18544 -5.45243,12.11651 -2.5165,0.93204 -9.33203,8.50388 -13.84077,8.85534 -4.50787,0.34951 -3.25049,-0.23301 -6.29126,-0.46602 -3.03991,-0.23301 -3.35534,-3.72816 -6.29127,-5.59224 -2.93504,-1.86407 -3.77475,-3.26213 -3.77475,-3.26213 0,0 -0.83884,-3.72816 -2.09709,-3.72816 -1.25738,0 -2.51563,6.52525 -2.51563,8.38932 0,1.86408 3.35446,8.85437 5.03301,10.25146 1.67767,1.39806 1.67767,9.78738 0.83883,12.1165 -0.83883,2.3301 1.67767,4.66117 2.09622,6.9903 0.41941,2.33009 -2.51563,4.1932 -1.25738,4.66019 1.25738,0.46505 2.93592,3.26117 2.93592,6.05825 0,2.79612 6.29126,3.72816 7.54951,6.52427 1.25826,2.79612 1.67767,7.45632 2.09709,10.2534 0.41942,2.79612 1.88738,1.51457 2.09622,8.38835 1.99223,1.04855 5.03301,3.26117 7.54951,4.6602 2.51651,1.39805 2.09796,4.66019 5.45243,6.05825 3.35534,1.39709 3.35534,0 5.03301,0.46505 1.67767,0.46602 -0.83884,0.93301 2.09708,1.86407 2.9368,0.93204 4.19418,-0.46504 6.71156,0.93204 2.5165,1.39806 3.77476,4.66117 5.45243,5.59321 1.67767,0.93204 8.80776,3.26116 9.22718,3.72815 0.41942,0.46505 5.03301,2.3301 5.87184,2.3301 0.83884,0 3.35534,-1.86505 3.35534,-1.86505 0,0 2.93593,0.93204 5.45243,0 2.51651,-0.93107 4.19418,-3.72815 5.87185,-3.72815 1.67767,0 2.09708,0.93203 3.77475,0.93203 1.67767,0 4.1933,-0.93203 4.1933,-0.93203 0,0 3.77476,-0.93204 6.71068,0.93203 2.93593,1.86505 9.64661,10.71942 9.64661,14.44758 0,3.72718 -0.41855,5.59223 -0.41855,5.59223 0,0 3.35447,-0.46699 4.61272,0.46505 1.25825,0.93301 1.1534,-0.81456 10.48544,0.93301 -0.62913,-2.56408 -9.6466,-9.78641 -1.25825,-20.03981 8.38834,-10.25339 8.91262,-6.05825 10.90485,-7.92136 1.99223,-1.86504 9.6466,-7.34174 22.64854,-2.33106 12.58253,-2.32913 3.35534,-4.19321 10.48544,-4.65923 1.25825,-0.58349 3.67078,0.11554 6.29214,0.93204 0.83883,-1.74854 2.62136,-3.37864 5.45242,-2.79709 0.52428,-1.63106 3.9836,-3.84466 7.54864,-4.1932 0.52515,-3.1466 9.54263,-7.10583 14.68049,-7.45728 2.09621,-2.09709 4.50874,-11.41748 15.93786,-6.99029 0.41855,-3.02816 2.3068,-7.92233 5.45243,-8.85437 0.62913,-6.29029 -1.46971,-18.99126 4.19418,-23.30097 5.66126,-5.70874 11.0097,-4.42816 20.55145,-4.19321 6.50097,1.51457 9.6466,6.98932 11.74282,7.45631 2.09708,0.46602 2.93592,0.46602 5.45242,-1.39708 2.51651,-1.86505 -0.41854,-5.59321 1.67767,-5.59321 2.09709,0 1.25738,0.46602 4.6136,0 3.35534,-0.46505 2.93592,-1.74757 5.03301,-2.32912 3.35621,1.86505 7.13009,0.46505 8.80776,1.86407 1.67855,1.39709 1.88738,1.28059 5.45243,1.86408 1.25738,2.32913 4.61272,2.32913 4.61272,2.32913 0,0 -2.51563,-0.93204 -1.6768,-2.32913 0.83884,-1.39806 0,-5.5932 -1.67854,-7.45728 -1.6768,-1.86408 -2.51563,-2.3301 -3.77388,-4.1932 -1.25738,-1.86408 0.41854,-1.86505 -1.67855,-4.19418 -2.09621,-2.3301 -6.7098,-4.66019 -7.96806,-7.45631 -1.25737,-2.79612 -0.83883,-4.66019 -2.93592,-6.99029 -2.09621,-2.3301 -10.48544,-10.25243 -10.90398,-18.64078 -0.41854,-8.38835 0.41854,-16.42621 5.45155,-19.10679 -0.2097,-4.89321 0.83971,-5.59224 5.45243,-8.38835 4.61272,-2.79612 5.03476,-0.93204 7.96893,-0.93204 2.93505,0 4.61447,0.46602 7.54952,-1.86311 2.93592,-2.3301 0.41942,-7.45631 7.96893,-14.91262 7.55039,-7.45631 10.48544,-11.18447 13.00282,-11.65049 2.5165,-0.46601 11.63796,-7.57281 15.51844,-6.99029 2.72622,-3.61068 5.45243,-7.92233 8.80777,-10.71844 3.35534,-2.79612 7.13097,-2.79612 8.80777,-5.12622 1.67767,-2.33009 1.25738,-6.52524 6.29126,-10.25339 5.03301,-3.72719 9.22806,-6.05729 11.32427,-7.92233 2.09621,-1.86408 6.71068,-0.46602 8.38835,-2.3301 1.67767,-1.86408 1.67767,-8.85437 3.35447,-10.25243 1.67854,-1.39806 -5.45156,3.26214 -9.22631,5.12621 -3.77476,1.86408 -9.22719,5.12622 -13.84078,4.6602 -4.61359,-0.46602 -2.09796,2.79514 -4.61359,3.72815 -2.51651,0.93204 -6.71068,0.46602 -8.38923,2.3301 -1.67767,1.86408 -4.61272,6.52427 -7.12922,8.38835 -2.51738,1.86311 -3.77476,1.39806 -6.29126,2.79612 -2.51738,1.39806 -4.61359,2.79611 -6.71068,3.72815 -2.09709,0.93204 -8.38923,0.46602 -8.38923,0.46602 0,0 -5.45242,7.92233 -7.96893,10.71845 -2.5165,2.79612 -5.45242,2.3301 -7.96893,3.72815 -2.5165,1.39709 -23.9068,16.7767 -38.58553,19.1068 -14.68049,2.32913 -7.96981,-1.39806 -12.58253,0 -4.61272,1.39806 -11.32514,11.1835 -16.7767,11.65049 -5.45242,0.46602 -7.13009,0 -8.38835,0 -1.25825,0 -7.96893,4.66019 -12.1631,3.72815 -6.18641,2.09709 -10.79913,1.63107 -12.58253,1.39709 -1.78252,-0.23204 -5.03301,2.3301 -9.6466,0 -3.56505,-1.28058 -3.56505,1.51456 -10.48456,-0.93107 -6.92126,-2.4466 -11.74457,0.93204 -15.09991,-0.93204 -3.35534,-1.86408 -2.93592,-3.26213 -5.45242,-3.26213 -2.51651,0 -2.51651,1.86407 -5.45243,1.86407 -2.93592,0 -3.35534,-1.86407 -5.87184,-1.86407 -2.51651,0 -5.45243,1.86407 -9.22719,1.39805 -3.77476,-0.46602 -5.03301,-2.33009 -7.54951,-2.33009 -2.51738,-0.003 -16.35816,-6.52719 -16.35816,-6.52719 z"
     style="fill:#ed8000" />
  <g
     id="g2866"
     style="fill:#006651"
     transform="matrix(0.87378641,0,0,0.97087379,0,-1.362129e-6)">
    <path
       d="m 476.765,478.801 c 8.334,-6 15.666,-8 27,-10 11.334,-2 23.334,-5.332 29.666,-7 6.332,-1.668 -21.332,8 -28.332,10 -7,2 -28.334,7 -28.334,7 z"
       id="path2868" />
    <path
       d="m 522.432,461.133 c -2.332,-14.332 3.332,-29.332 16.332,-35.332 3,10.332 -6.332,28 -16.332,35.332 z"
       id="path2870" />
    <path
       d="m 544.383,453.674 c -6.951,-11.873 4.814,-27.188 13.432,-34.697 3.951,7.156 -3.049,28.49 -13.432,34.697 z"
       id="path2872" />
    <path
       d="m 564.766,444.467 c -7.432,-10.182 1.332,-28 10.666,-35 3.666,10 0,28 -10.666,35 z"
       id="path2874" />
    <path
       d="m 585.154,431.734 c -6.723,-9.602 -2.055,-24.602 7.611,-34.268 7.001,8.001 1.001,25.335 -7.611,34.268 z"
       id="path2876" />
    <path
       d="m 601.432,418.801 c -5.666,-9 1.334,-30.668 10.334,-36.668 4,8 1,30.668 -10.334,36.668 z"
       id="path2878" />
    <path
       d="m 614.432,415.467 c -1.666,-13 21.002,-27.334 30.334,-27 -1,10.666 -10.668,22.334 -30.334,27 z"
       id="path2880" />
    <path
       d="m 601.766,430.133 c 10.666,-11 31.332,-11 38.666,-8.666 -2,6.334 -26.332,20.332 -38.666,8.666 z"
       id="path2882" />
    <path
       d="m 587.098,441.133 c 15,-4 24.668,-7.334 33.668,2 -6.334,8 -30.668,5.666 -33.668,-2 z"
       id="path2884" />
    <path
       d="m 565.766,450.801 c 14.332,-7.668 31.666,3.666 34.332,10.332 -16,6.668 -34.664,-8.664 -34.332,-10.332 z"
       id="path2886" />
    <path
       d="m 546.098,461.801 c 13,-5 28,1.668 34,9 -7,3.332 -25.334,7 -34,-9 z"
       id="path2888" />
    <path
       d="m 528.1,467.467 c 15,-1.666 29.393,9.686 32.529,16.176 -19.197,1.824 -26.529,-3.842 -32.529,-16.176 z"
       id="path2890" />
    <path
       d="m 523.268,478.801 c -8.334,-6 -15.666,-8 -27,-10 -11.334,-2 -23.334,-5.332 -29.667,-7 -6.333,-1.668 21.333,8 28.333,10 7,2 28.334,7 28.334,7 z"
       id="path2892" />
    <path
       d="m 477.6,461.133 c 2.333,-14.332 -3.332,-29.332 -16.333,-35.332 -3,10.332 6.333,28 16.333,35.332 z"
       id="path2894" />
    <path
       d="m 455.649,453.674 c 6.951,-11.873 -4.814,-27.188 -13.432,-34.697 -3.951,7.156 3.049,28.49 13.432,34.697 z"
       id="path2896" />
    <path
       d="m 435.266,444.467 c 7.432,-10.182 -1.332,-28 -10.666,-35 -3.666,10 0,28 10.666,35 z"
       id="path2898" />
    <path
       d="m 414.877,431.734 c 6.723,-9.602 2.055,-24.602 -7.611,-34.268 -7,8.001 -1,25.335 7.611,34.268 z"
       id="path2900" />
    <path
       d="m 398.6,418.801 c 5.666,-9 -1.334,-30.668 -10.334,-36.668 -4,8 -1,30.668 10.334,36.668 z"
       id="path2902" />
    <path
       d="m 385.6,415.467 c 1.666,-13 -21.002,-27.334 -30.334,-27 1,10.666 10.668,22.334 30.334,27 z"
       id="path2904" />
    <path
       d="m 398.266,430.133 c -10.666,-11 -31.332,-11 -38.666,-8.666 2,6.334 26.332,20.332 38.666,8.666 z"
       id="path2906" />
    <path
       d="m 412.934,441.133 c -15,-4 -24.668,-7.334 -33.668,2 6.334,8 30.668,5.666 33.668,-2 z"
       id="path2908" />
    <path
       d="m 434.266,450.801 c -14.332,-7.668 -31.666,3.666 -34.332,10.332 16,6.668 34.664,-8.664 34.332,-10.332 z"
       id="path2910" />
    <path
       d="m 453.934,461.801 c -13,-5 -28,1.668 -34,9 7,3.332 25.334,7 34,-9 z"
       id="path2912" />
    <path
       d="m 471.933,467.467 c -15,-1.666 -29.394,9.686 -32.53,16.176 19.197,1.824 26.53,-3.842 32.53,-16.176 z"
       id="path2914" />
  </g>
</svg>
