<?xml version="1.0" encoding="UTF-8" standalone="no"?>
<!-- Created with Inkscape (http://www.inkscape.org/) -->

<svg
   xmlns:dc="http://purl.org/dc/elements/1.1/"
   xmlns:cc="http://creativecommons.org/ns#"
   xmlns:rdf="http://www.w3.org/1999/02/22-rdf-syntax-ns#"
   xmlns:svg="http://www.w3.org/2000/svg"
   xmlns="http://www.w3.org/2000/svg"
   xmlns:xlink="http://www.w3.org/1999/xlink"
   xmlns:sodipodi="http://sodipodi.sourceforge.net/DTD/sodipodi-0.dtd"
   xmlns:inkscape="http://www.inkscape.org/namespaces/inkscape"
   sodipodi:docname="Flag_of_Tuvalu.svg"
   inkscape:version="0.47 r22583"
   sodipodi:version="0.32"
   id="svg1"
   height="600"
   width="900"
   y="0.00000000"
   x="0.00000000"
   version="1.0"
   inkscape:output_extension="org.inkscape.output.svg.inkscape">
  <metadata
     id="metadata1995">
    <rdf:RDF>
      <cc:Work
         rdf:about="">
        <dc:format>image/svg+xml</dc:format>
        <dc:type
           rdf:resource="http://purl.org/dc/dcmitype/StillImage" />
      </cc:Work>
    </rdf:RDF>
  </metadata>
  <sodipodi:namedview
     inkscape:current-layer="svg1"
     inkscape:window-y="22"
     inkscape:window-x="0"
     inkscape:cy="249.99995"
     inkscape:cx="500.00014"
     inkscape:zoom="0.42037488"
     inkscape:window-height="968"
     inkscape:window-width="1278"
     inkscape:pageshadow="2"
     inkscape:pageopacity="0.0"
     borderopacity="1.0"
     bordercolor="#666666"
     pagecolor="#ffffff"
     id="base"
     showgrid="false"
     inkscape:window-maximized="0" />
  <defs
     id="defs3">
    <inkscape:perspective
       sodipodi:type="inkscape:persp3d"
       inkscape:vp_x="0 : 250 : 1"
       inkscape:vp_y="0 : 1000 : 0"
       inkscape:vp_z="1000 : 250 : 1"
       inkscape:persp3d-origin="500 : 166.66667 : 1"
       id="perspective33" />
  </defs>
  <g
     id="g2309"
     transform="matrix(1.4999999,0,0,1.9999999,0,1.9666669e-5)">
    <g
       id="g2296">
      <g
         id="g1333" />
      <path
         style="fill:#75aadb;fill-opacity:1;fill-rule:evenodd;stroke:none"
         d="m 300.00002,-1e-5 300.00003,0 0,300.00002 L 0,300.00001 0,150 l 300.00002,0 0,-150.00001 z"
         id="path4861" />
    </g>
    <g
       transform="matrix(0.604757,0,0,0.604757,-0.0073153,0.00332962)"
       id="g2095">
      <polygon
         transform="matrix(0.498761,0,0,0.469385,657.6627,-98.2599)"
         style="font-size:12px;fill:#fcd116;fill-opacity:1;fill-rule:evenodd;stroke-width:1pt"
         points="626.445,324.23 569.104,365.812 591.041,433.161 591.041,433.161 533.774,391.476 476.501,433.151 498.449,365.806 441.115,324.214 511.946,324.278 533.785,256.897 555.613,324.281 "
         id="polygon136" />
      <polygon
         transform="matrix(0.498761,0,0,0.469385,569.0006,153.8731)"
         style="font-size:12px;fill:#fcd116;fill-opacity:1;fill-rule:evenodd;stroke-width:1pt"
         points="626.445,324.23 569.104,365.812 591.041,433.161 591.041,433.161 533.774,391.476 476.501,433.151 498.449,365.806 441.115,324.214 511.946,324.278 533.785,256.897 555.613,324.281 "
         id="polygon3314" />
      <polygon
         transform="matrix(0.498761,0,0,0.469385,657.6628,96.79682)"
         style="font-size:12px;fill:#fcd116;fill-opacity:1;fill-rule:evenodd;stroke-width:1pt"
         points="626.445,324.23 569.104,365.812 591.041,433.161 591.041,433.161 533.774,391.476 476.501,433.151 498.449,365.806 441.115,324.214 511.946,324.278 533.785,256.897 555.613,324.281 "
         id="polygon3315" />
      <polygon
         transform="matrix(0.498761,0,0,0.469385,276.4154,279.6626)"
         style="font-size:12px;fill:#fcd116;fill-opacity:1;fill-rule:evenodd;stroke-width:1pt"
         points="626.445,324.23 569.104,365.812 591.041,433.161 591.041,433.161 533.774,391.476 476.501,433.151 498.449,365.806 441.115,324.214 511.946,324.278 533.785,256.897 555.613,324.281 "
         id="polygon3317" />
      <polygon
         transform="matrix(-0.498761,0,0,-0.469385,910.834,486.0882)"
         style="font-size:12px;fill:#fcd116;fill-opacity:1;fill-rule:evenodd;stroke-width:1pt"
         points="626.445,324.23 569.104,365.812 591.041,433.161 591.041,433.161 533.774,391.476 476.501,433.151 498.449,365.806 441.115,324.214 511.946,324.278 533.785,256.897 555.613,324.281 "
         id="polygon3319" />
      <polygon
         transform="matrix(-0.498761,0,0,-0.469385,1015.012,342.0122)"
         style="font-size:12px;fill:#fcd116;fill-opacity:1;fill-rule:evenodd;stroke-width:1pt"
         points="626.445,324.23 569.104,365.812 591.041,433.161 591.041,433.161 533.774,391.476 476.501,433.151 498.449,365.806 441.115,324.214 511.946,324.278 533.785,256.897 555.613,324.281 "
         id="polygon3320" />
      <polygon
         transform="matrix(-0.498761,0,0,-0.469385,1102.566,312.0887)"
         style="font-size:12px;fill:#fcd116;fill-opacity:1;fill-rule:evenodd;stroke-width:1pt"
         points="626.445,324.23 569.104,365.812 591.041,433.161 591.041,433.161 533.774,391.476 476.501,433.151 498.449,365.806 441.115,324.214 511.946,324.278 533.785,256.897 555.613,324.281 "
         id="polygon3321" />
      <polygon
         transform="matrix(-0.498761,0,0,-0.469385,1015.012,561.451)"
         style="font-size:12px;fill:#fcd116;fill-opacity:1;fill-rule:evenodd;stroke-width:1pt"
         points="626.445,324.23 569.104,365.812 591.041,433.161 591.041,433.161 533.774,391.476 476.501,433.151 498.449,365.806 441.115,324.214 511.946,324.278 533.785,256.897 555.613,324.281 "
         id="polygon3322" />
      <polygon
         transform="matrix(-0.498761,0,0,-0.469385,910.834,586.9413)"
         style="font-size:12px;fill:#fcd116;fill-opacity:1;fill-rule:evenodd;stroke-width:1pt"
         points="626.445,324.23 569.104,365.812 591.041,433.161 591.041,433.161 533.774,391.476 476.501,433.151 498.449,365.806 441.115,324.214 511.946,324.278 533.785,256.897 555.613,324.281 "
         id="polygon3323" />
    </g>
  </g>
  <g
     id="g3845"
     transform="matrix(0.74999949,0,0,0.99999933,0,1.3966664e-4)">
    <g
       id="g3847">
      <g
         id="g3849">
        <rect
           id="rect1764"
           style="fill:#00267f;fill-opacity:1;fill-rule:evenodd;stroke:none"
           y="-7.8124995e-06"
           x="0"
           height="300"
           width="600" />
        <path
           id="path4640"
           style="fill:#ffffff;fill-opacity:1;fill-rule:evenodd;stroke:none"
           d="m 0,299.99999 67.08,0 L 600,33.539988 l 0,-33.54 -67.08,0 L 0,266.45999 l 0,33.54 z" />
        <path
           id="path6505"
           style="fill:#ffffff;fill-opacity:1;fill-rule:evenodd;stroke:none"
           d="m 600,299.99999 -67.08,0 L 0,33.539988 l 0,-33.54 67.08,0 532.92,266.460002 0,33.54 z" />
        <path
           id="rect1530"
           style="fill:#ffffff;fill-opacity:1;fill-rule:evenodd;stroke:none"
           d="m 250,0 0,100 -250,0 0,100 250,0 0,100 100,0 0,-100 250,0 0,-100 -250,0 0,-100 -100,0 z" />
        <path
           id="rect3395"
           style="fill:#d21034;fill-opacity:1;fill-rule:evenodd;stroke:none"
           d="m 270,0 0,120 -270,0 0,60 270,0 0,120 60,0 0,-120 270,0 0,-60 -270,0 0,-120 -60,0 z" />
        <path
           id="path8371"
           style="fill:#d21034;fill-opacity:1;fill-rule:evenodd;stroke:none"
           d="m 355.28,99.999988 44.72,0 200,-100 -44.72,0 -200,100 z" />
        <path
           id="path9616"
           style="fill:#d21034;fill-opacity:1;fill-rule:evenodd;stroke:none"
           d="m 0,-1.2e-5 0,22.36 155.28,77.64 44.72,0 -200,-100 z" />
        <use
           xlink:href="#path9616"
           height="300"
           width="600"
           y="0"
           x="0"
           id="use3668"
           transform="matrix(-1,0,0,-1,600,300)" />
        <use
           xlink:href="#path8371"
           height="300"
           width="600"
           y="0"
           x="0"
           id="use3711"
           transform="translate(-355.28,200)" />
      </g>
    </g>
    <g
       transform="matrix(0.604757,0,0,0.604757,-0.0073153,0.00332962)"
       id="g3862" />
  </g>
</svg>
