<?xml version="1.0" encoding="UTF-8" standalone="no"?>
<!-- Created with Inkscape (http://www.inkscape.org/) -->
<svg
   xmlns:svg="http://www.w3.org/2000/svg"
   xmlns="http://www.w3.org/2000/svg"
   xmlns:xlink="http://www.w3.org/1999/xlink"
   version="1.0"
   width="600"
   height="400"
   id="svg2">
  <defs
     id="defs267" />
  <path
     d="M 240,400 L 600,400 L 600,0 L 240,0 L 240,400 L 240,400 z"
     id="path1339"
     style="fill:#dc241f" />
  <path
     d="M 0,400 L 240,400 L 240,0 L 0,0 L 0,400 L 0,400 z"
     id="path1341"
     style="fill:#006233" />
  <path
     d="M 318.23975,262.03646 C 288.02741,261.13159 149.4985,174.656 148.54869,160.89325 L 156.19834,148.13591 C 169.93932,168.10226 311.56107,252.19484 325.46961,249.21386 L 318.23975,262.03646"
     id="path1343"
     style="fill:#ffe805;fill-rule:evenodd;stroke:none" />
  <path
     d="M 154.59239,146.40465 C 151.88317,153.69834 190.7426,177.72252 237.49508,206.15819 C 284.24844,234.59386 324.56037,252.16397 327.54826,249.64425 C 327.72994,249.31881 329.0184,247.10337 328.90023,247.12189 C 328.33933,247.96679 326.97591,248.23138 324.84875,247.61842 C 312.21897,243.97511 279.27361,228.85504 238.47488,204.11208 C 197.67702,179.36911 162.18119,156.56995 156.6631,146.88002 C 156.28036,146.20886 156.00608,144.9856 156.06253,144.0331 L 155.92759,144.0331 L 154.75201,146.08451 L 154.59151,146.40642 L 154.59239,146.40465 z M 318.95674,262.43951 C 318.44347,263.36908 317.48925,263.40171 315.67428,263.20063 C 304.37442,261.95003 270.08503,245.27598 229.51295,220.9881 C 182.30099,192.72617 143.30928,166.9769 147.54508,160.24413 L 148.69596,158.20949 L 148.92261,158.28004 C 145.11895,169.68535 225.87068,215.85606 230.62415,218.80175 C 277.34841,247.74895 316.73786,264.65231 320.22492,260.25846 L 318.95674,262.43951"
     id="path1345"
     style="fill:#ffe805;fill-rule:evenodd;stroke:none" />
  <path
     d="M 154.59239,146.40465 C 151.88229,153.69834 190.74171,177.72252 237.49508,206.15819 C 284.24756,234.5921 324.56037,252.16397 327.54826,249.64425 C 327.73082,249.31881 329.0184,247.10337 328.90023,247.12101 C 328.34022,247.96503 326.97679,248.23138 324.84963,247.61842 C 312.21897,243.97511 279.27449,228.85328 238.47576,204.11208 C 197.67791,179.36911 162.18207,156.56819 156.66487,146.88002 C 156.28124,146.20886 156.00785,144.98384 156.06341,144.03134 L 155.92936,144.02957 L 154.75466,146.08274 L 154.59327,146.40465 L 154.59239,146.40465 z M 318.95585,262.44127 C 318.44347,263.37084 317.48836,263.40171 315.67428,263.20239 C 304.37442,261.95179 270.08503,245.27774 229.51207,220.98986 C 182.30011,192.72617 143.3084,166.97867 147.5442,160.2459 L 148.69508,158.21125 L 148.92173,158.28181 C 145.11807,169.68712 225.86979,215.85959 230.62327,218.80352 C 277.34753,247.75072 316.73786,264.65407 320.22404,260.26199 L 318.95585,262.44304 L 318.95585,262.44127 z"
     id="path1347"
     style="fill:none;stroke:#000000;stroke-width:0.57293051;stroke-linecap:round;stroke-linejoin:round" />
  <path
     d="M 240.16725,169.23027 C 270.40428,168.99126 307.71684,165.09836 329.19037,156.53996 L 324.56389,149.02315 C 311.8715,156.04784 274.35346,160.66747 239.9115,161.35803 C 199.17538,160.9832 170.42172,157.18996 156.01402,147.52296 L 151.64682,155.52749 C 178.13046,166.73437 205.26935,169.11474 240.16725,169.23027"
     id="path1349"
     style="fill:#ffe805;fill-rule:evenodd;stroke:none" />
  <path
     d="M 330.4418,156.71283 C 329.70276,157.89463 315.69809,162.7224 295.06767,166.28634 C 281.08064,168.41888 262.834,170.24186 240.06319,170.26391 C 218.43004,170.2842 200.7584,168.74432 187.37813,166.93104 C 165.72204,163.53555 154.54476,158.81097 150.41215,157.14322 C 150.80725,156.3574 151.06124,155.80442 151.44222,155.07064 C 163.33737,159.80845 174.56668,162.66419 187.72119,164.68825 C 201.01239,166.4883 218.47149,168.05023 239.99793,168.02818 C 262.66203,168.00701 280.70671,166.04557 294.61349,163.97652 C 315.76865,160.56252 327.32426,156.17131 328.94785,154.13225 L 330.4418,156.71106 L 330.4418,156.71283 z M 326.37974,149.08841 C 324.08678,150.92991 312.66169,154.98157 292.56041,158.19185 C 279.14574,160.11625 262.08791,161.83693 240.29513,161.85809 C 219.59151,161.87838 202.67567,160.48314 189.80954,158.60724 C 169.39518,155.94289 158.53186,151.13364 154.61267,149.73135 C 155.00247,149.05754 155.39933,148.38727 155.80677,147.7161 C 158.85552,149.25069 169.3405,153.50872 190.03354,156.4403 C 202.75416,158.24212 219.69381,159.5862 240.29513,159.56504 C 261.98561,159.54475 278.84853,157.7888 292.17854,155.87851 C 312.38389,153.09862 323.25603,147.9313 324.90696,146.63572 L 326.37974,149.08841"
     id="path1351"
     style="fill:#ffe805;fill-rule:evenodd;stroke:none" />
  <path
     d="M 330.44092,156.71106 C 329.70188,157.89287 315.69809,162.7224 295.06767,166.28634 C 281.07976,168.41888 262.834,170.24186 240.06319,170.26391 C 218.43004,170.2842 200.7584,168.74432 187.37901,166.93104 C 165.72292,163.53555 154.54565,158.81097 150.41392,157.14145 C 150.80901,156.35564 151.063,155.80442 151.44398,155.07064 C 163.33913,159.80669 174.56844,162.66243 187.72295,164.68649 C 201.01416,166.48654 218.47325,168.04846 239.99881,168.02818 C 262.66291,168.00525 280.70759,166.0438 294.61437,163.97476 C 315.76953,160.56252 327.32514,156.17131 328.94873,154.13225 L 330.44268,156.71106 L 330.44092,156.71106 z M 326.38062,149.08841 C 324.08767,150.92991 312.66257,154.98157 292.56129,158.19185 C 279.14662,160.11449 262.08879,161.83516 240.29601,161.85633 C 219.59239,161.87661 202.67655,160.48138 189.8113,158.60724 C 169.39694,155.94112 158.53274,151.13188 154.61532,149.72959 C 155.00512,149.05578 155.40198,148.38727 155.80942,147.7161 C 158.85729,149.25069 169.34227,153.50696 190.03531,156.43854 C 202.75504,158.24212 219.69645,159.5862 240.29689,159.56504 C 261.98737,159.54299 278.8503,157.7888 292.18031,155.87674 C 312.38566,153.09685 323.25779,147.92954 324.90784,146.63572 L 326.38062,149.08665 L 326.38062,149.08841 z"
     id="path1353"
     style="fill:none;stroke:#000000;stroke-width:0.57315809;stroke-linecap:round;stroke-linejoin:round" />
  <path
     d="M 140.88051,205.65725 C 159.47815,215.66027 200.78574,220.70146 239.87446,221.04807 C 275.46554,221.10451 321.83263,215.54649 339.17179,206.35839 L 338.69467,196.34655 C 333.27007,204.82381 283.58172,212.95534 239.48907,212.62285 C 195.39641,212.29035 154.45128,205.47997 140.80202,196.66405 L 140.8814,205.65548"
     id="path1355"
     style="fill:#ffe805;fill-rule:evenodd;stroke:none" />
  <path
     d="M 340.12248,204.21703 L 340.12336,206.60622 C 337.51733,209.72037 321.17738,214.42995 300.68717,217.74607 C 285.09155,220.13702 264.7592,221.9406 239.42469,221.9406 C 215.35571,221.9406 196.16279,220.2261 181.2771,217.93921 C 157.74873,214.51462 142.69812,208.51475 139.67759,206.72352 L 139.69082,203.9401 C 148.76563,209.97172 173.35141,214.38497 181.60781,215.73611 C 196.39561,218.008 215.47565,219.71104 239.42469,219.71104 C 264.64103,219.71104 284.85872,217.91805 300.35558,215.54297 C 315.05695,213.41924 335.99957,207.8965 340.12248,204.21879 L 340.12248,204.21703 z M 340.13218,195.72478 L 340.13306,198.11397 C 337.52703,201.22812 321.18708,205.9377 300.69687,209.25382 C 285.10125,211.64477 264.7689,213.44835 239.43439,213.44835 C 215.36541,213.44835 196.17161,211.73385 181.2868,209.44696 C 157.75843,206.02237 142.70782,200.0225 139.68729,198.2295 L 139.69964,195.44609 C 148.77534,201.47859 173.36111,205.89272 181.61663,207.2421 C 196.40443,209.51399 215.48447,211.21791 239.43351,211.21791 C 264.64985,211.21791 284.86754,209.4258 300.36528,207.04895 C 315.06665,204.92523 336.00927,199.40249 340.13218,195.72478"
     id="path1357"
     style="fill:#ffe805;fill-rule:evenodd;stroke:none" />
  <path
     d="M 340.12248,204.21879 L 340.12336,206.60622 C 337.51733,209.72213 321.17738,214.43172 300.68629,217.74783 C 285.09155,220.13878 264.7592,221.94236 239.42469,221.94236 C 215.35571,221.94236 196.16191,220.2261 181.27622,217.94098 C 157.74697,214.51462 142.69724,208.51475 139.67671,206.72352 L 139.68994,203.93833 C 148.76475,209.97172 173.35053,214.38497 181.60693,215.73611 C 196.39473,218.00624 215.47477,219.70928 239.42381,219.70928 C 264.64015,219.70928 284.85784,217.91805 300.35469,215.54297 C 315.05607,213.41924 335.99869,207.8965 340.1216,204.21879 L 340.12248,204.21879 z M 340.13218,195.72654 L 340.13306,198.11397 C 337.52703,201.22812 321.18708,205.9377 300.69599,209.25382 C 285.10125,211.64477 264.7689,213.44835 239.43439,213.44835 C 215.36541,213.44835 196.17161,211.73385 181.28592,209.44696 C 157.75667,206.02237 142.70694,200.0225 139.68641,198.23127 L 139.69964,195.44609 C 148.77445,201.47859 173.36023,205.89272 181.61663,207.2421 C 196.40443,209.51399 215.48447,211.21791 239.43351,211.21791 C 264.64985,211.21791 284.86754,209.4258 300.36439,207.04895 C 315.06577,204.92523 336.00839,199.40249 340.1313,195.72478 L 340.13218,195.72654 z"
     id="path1359"
     style="fill:none;stroke:#000000;stroke-width:0.57282209;stroke-linecap:round;stroke-linejoin:round" />
  <path
     d="M 239.78715,260.3202 C 197.01559,260.06531 160.36623,248.66088 152.6275,246.77617 L 158.27082,255.61061 C 171.94124,261.36089 207.69459,269.93075 240.19812,268.98178 C 272.70165,268.03369 301.10784,265.51573 321.12623,255.77112 L 326.91241,246.61565 C 313.27021,253.04062 266.84491,260.25493 239.78715,260.3202"
     id="path1361"
     style="fill:#ffe805;fill-rule:evenodd;stroke:none" />
  <path
     d="M 323.30189,253.71972 C 322.45173,255.01706 321.58482,256.30029 320.70467,257.54913 C 311.26299,260.8767 296.38523,264.37185 290.10783,265.39138 C 277.28491,268.03545 257.44379,269.9872 239.83478,269.99602 C 201.94545,269.44127 170.9297,262.02235 156.33856,255.69528 L 155.16122,253.67121 L 155.35435,253.36694 L 157.35099,254.14129 C 183.29931,263.42288 212.44189,267.12617 240.0482,267.79292 C 257.58578,267.85465 275.14365,265.78296 289.33969,263.24384 C 311.1113,258.88174 319.91449,255.59385 322.61576,254.10337 L 323.30189,253.71796 L 323.30189,253.71972 z M 328.31817,245.44267 C 328.34022,245.46824 328.36226,245.4947 328.38343,245.52028 C 327.74758,246.5936 327.09232,247.68545 326.42119,248.78259 C 321.38462,250.58441 307.71861,254.58226 287.76196,257.37362 C 274.61274,259.16308 266.44012,260.89787 240.28278,261.40763 C 191.26645,260.16056 159.53194,250.57559 151.99341,248.21109 L 150.87604,246.06973 C 179.28223,253.48512 208.29694,258.66126 240.28367,259.19043 C 264.21419,258.68066 274.39491,256.91853 287.43389,255.1423 C 310.70474,251.52191 322.42968,247.69074 325.95025,246.58479 C 325.90527,246.52129 325.85324,246.45426 325.79504,246.38635 L 328.31817,245.44443"
     id="path1363"
     style="fill:#ffe805;fill-rule:evenodd;stroke:none" />
  <path
     d="M 323.30101,253.71796 C 322.45085,255.01706 321.58393,256.30029 320.70467,257.54736 C 311.26299,260.8767 296.38523,264.37185 290.10783,265.39138 C 277.28403,268.03369 257.44291,269.98543 239.83389,269.99425 C 201.94368,269.43951 170.92881,262.02235 156.33768,255.69528 L 155.16034,253.67121 L 155.35259,253.36694 L 157.34923,254.14129 C 183.29755,263.42464 212.44013,267.12793 240.04732,267.79292 C 257.5849,267.85465 275.14188,265.78296 289.33969,263.24384 C 311.11042,258.88174 319.9136,255.59385 322.61488,254.10337 L 323.30189,253.71796 L 323.30101,253.71796 z M 328.31817,245.44267 C 328.34022,245.46824 328.36226,245.49294 328.38343,245.52028 C 327.74758,246.5936 327.09232,247.68545 326.42119,248.78259 C 321.38551,250.58264 307.71949,254.58138 287.76196,257.37185 C 274.61274,259.16308 266.44012,260.89787 240.28278,261.40587 C 191.26733,260.1588 159.53283,250.5747 151.99341,248.21109 L 150.87604,246.06797 C 179.28223,253.48336 208.29782,258.65949 240.28367,259.18866 C 264.21507,258.6789 274.39579,256.91677 287.43565,255.13877 C 310.70651,251.52015 322.43145,247.68898 325.95113,246.58302 C 325.90704,246.51952 325.85501,246.45249 325.7968,246.3837 L 328.31993,245.4409 L 328.31817,245.44267 z"
     id="path1365"
     style="fill:none;stroke:#000000;stroke-width:0.54985231;stroke-linecap:round;stroke-linejoin:round" />
  <path
     d="M 239.84095,111.05277 C 288.95782,111.05277 328.61537,150.989 328.61537,200.11599 C 328.61537,249.2412 288.95694,288.90933 239.84095,288.90933 C 190.72408,288.90933 150.93248,249.10803 150.93248,199.98105 C 150.93248,150.85407 190.72408,111.05453 239.84095,111.05453 L 239.84095,111.05277 z M 239.84095,102.25272 C 293.65662,102.25272 337.54908,146.1533 337.54908,199.98105 C 337.54908,253.80791 293.65662,297.71026 239.84095,297.71026 C 186.02528,297.71026 142.13282,253.8088 142.13282,199.98105 C 142.13282,146.1533 186.02528,102.25272 239.84095,102.25272"
     id="path1367"
     style="fill:#ffe805;fill-rule:evenodd;stroke:none" />
  <path
     d="M 239.90709,101.07797 C 294.44063,101.07797 338.9178,145.56063 338.9178,200.09835 C 338.9178,254.63783 294.44063,299.1196 239.90709,299.1196 C 185.37355,299.1196 140.89639,254.63783 140.89639,200.09835 C 140.89639,145.56063 185.37355,101.07797 239.90709,101.07797 z M 239.90709,103.25638 C 293.00401,103.25638 336.73949,146.83857 336.73949,200.09835 C 336.73949,253.35989 293.00312,296.94208 239.90709,296.94208 C 186.81106,296.94208 143.0747,253.35989 143.0747,200.09835 C 143.0747,146.83857 186.81018,103.25638 239.90709,103.25638"
     id="path1369"
     style="fill:#ffe805;fill-rule:evenodd;stroke:none" />
  <path
     d="M 239.90709,101.07797 C 294.44063,101.07797 338.9178,145.56063 338.9178,200.10011 C 338.9178,254.63783 294.43975,299.12049 239.90709,299.12049 C 185.37355,299.12049 140.89639,254.63959 140.89639,200.10011 C 140.89639,145.56063 185.37443,101.07797 239.90709,101.07797 z M 239.90709,103.25638 C 293.00312,103.25638 336.74037,146.83857 336.74037,200.10011 C 336.74037,253.35989 293.00401,296.94208 239.90709,296.94208 C 186.81106,296.94208 143.0747,253.35989 143.0747,200.10011 C 143.0747,146.84033 186.81106,103.25638 239.90709,103.25638 z"
     id="path1371"
     style="fill:none;stroke:#000000;stroke-width:0.57282209;stroke-linecap:round;stroke-linejoin:round" />
  <path
     d="M 239.9944,109.30828 C 289.72508,109.30828 330.68785,150.12911 330.68785,200.01192 C 330.68785,249.89561 289.72508,290.71467 239.9944,290.71467 C 190.2646,290.71467 149.30095,249.89561 149.30095,200.01192 C 149.30095,150.12911 190.2646,109.30828 239.9944,109.30828 z M 239.9944,111.48669 C 288.53098,111.48669 328.50954,151.32591 328.50954,200.01192 C 328.50954,248.69704 288.5301,288.53626 239.9944,288.53626 C 191.4587,288.53626 151.47926,248.69704 151.47926,200.01192 C 151.47926,151.32591 191.45782,111.48669 239.9944,111.48669 z"
     id="path1375"
     style="fill:none;stroke:#000000;stroke-width:0.57282209;stroke-linecap:round;stroke-linejoin:round" />
  <path
     d="M 235.89971,299.85338 L 244.51417,299.85338 L 244.51417,100.6123 L 235.89971,100.6123 L 235.89971,299.85338 z"
     id="path1377"
     style="fill:#ffe805;fill-rule:evenodd;stroke:none" />
  <path
     d="M 237.02061,100.68286 L 243.03962,100.68286"
     id="path1379"
     style="fill:none;stroke:#000000;stroke-width:0.57282209;stroke-linecap:round;stroke-linejoin:round" />
  <path
     d="M 237.0312,299.64436 L 243.07931,299.64436"
     id="path1381"
     style="fill:none;stroke:#000000;stroke-width:0.57282209;stroke-linecap:round;stroke-linejoin:round" />
  <path
     d="M 243.12781,99.546033 L 245.2876,99.546033 L 245.30612,300.79706 L 243.14457,300.79706 L 243.12869,99.546033 L 243.12781,99.546033 z M 234.70649,99.547797 L 236.88304,99.547797 L 236.8848,300.7953 L 234.70737,300.7953 L 234.70737,99.547797"
     id="path1383"
     style="fill:#ffe805;fill-rule:evenodd;stroke:none" />
  <path
     d="M 243.12781,99.546033 L 245.2876,99.546033 L 245.30612,300.79706 L 243.14457,300.79706 L 243.12869,99.546033 L 243.12781,99.546033 z M 234.70649,99.547797 L 236.88304,99.547797 L 236.88568,300.7953 L 234.70737,300.7953 L 234.70737,99.547797 L 234.70649,99.547797 z"
     id="path1385"
     style="fill:none;stroke:#000000;stroke-width:0.57295704;stroke-linecap:round;stroke-linejoin:round" />
  <path
     d="M 140.54186,195.88353 C 152.95822,184.45264 198.76882,177.04078 239.41411,177.23304 C 280.05939,177.42442 328.1947,185.77556 338.66645,195.64011 L 338.7714,204.16499 C 330.00173,195.91616 292.6045,186.07895 239.49436,185.96871 C 186.38334,185.85846 147.822,195.96643 140.5401,204.38548 L 140.54186,195.88353"
     id="path1387"
     style="fill:#ffe805;fill-rule:evenodd;stroke:none" />
  <path
     d="M 140.51717,196.27952 L 140.51717,203.63671"
     id="path1389"
     style="fill:none;stroke:#000000;stroke-width:0.57242781;stroke-linecap:round;stroke-linejoin:round" />
  <path
     d="M 338.99188,196.58291 L 338.99188,203.93833"
     id="path1391"
     style="fill:none;stroke:#000000;stroke-width:0.57242781;stroke-linecap:round;stroke-linejoin:round" />
  <path
     d="M 239.95472,184.7675 C 263.33757,184.72428 286.02372,186.98471 304.01989,190.48691 C 322.58931,194.20078 335.65651,198.84422 340.12424,204.06004 L 340.11895,206.64061 C 334.73051,200.15214 317.14618,195.39405 303.60099,192.67413 C 285.74239,189.19839 263.20705,186.9556 239.95383,187.00058 C 215.41568,187.04468 192.56726,189.37037 174.96971,192.80202 C 160.84951,195.60395 142.01817,201.17167 139.66701,206.66002 L 139.66701,203.97097 C 140.959,200.17243 154.98043,194.49182 174.65222,190.55394 C 192.3803,187.09671 215.27193,184.81424 239.95383,184.7675 L 239.95472,184.7675 z M 239.96442,176.27525 C 263.34727,176.23291 286.03342,178.49246 304.0296,181.99466 C 322.59901,185.70853 335.66621,190.35197 340.13395,195.56779 L 340.12865,198.14837 C 334.74021,191.6599 317.15588,186.9018 303.61069,184.18188 C 285.75209,180.70614 263.21675,178.46335 239.96353,178.50833 C 215.42538,178.55243 192.68632,180.87812 175.08877,184.30977 C 161.46244,186.89298 141.86207,192.67942 139.67671,198.16777 L 139.67671,195.47872 C 140.9687,191.71987 155.27322,185.8373 174.6628,182.06169 C 192.39088,178.60446 215.28251,176.32199 239.96442,176.27525"
     id="path1393"
     style="fill:#ffe805;fill-rule:evenodd;stroke:none" />
  <path
     d="M 239.95472,184.7675 C 263.33757,184.72428 286.0246,186.98294 304.01989,190.48691 C 322.58931,194.19902 335.65651,198.84246 340.12513,204.05828 L 340.11983,206.64061 C 334.73139,200.15038 317.14707,195.39229 303.60187,192.67237 C 285.74416,189.19839 263.20881,186.9556 239.95472,186.99882 C 215.41656,187.04468 192.56814,189.3686 174.97059,192.80202 C 160.85039,195.60395 142.01994,201.16991 139.66877,206.66002 L 139.66877,203.97097 C 140.95988,200.17067 154.98131,194.49182 174.6531,190.55394 C 192.38206,187.09671 215.27281,184.81248 239.95472,184.7675 z M 239.96442,176.27525 C 263.34727,176.23291 286.0343,178.49246 304.0296,181.99466 C 322.59901,185.70853 335.66621,190.35021 340.13483,195.56603 L 340.12954,198.14837 C 334.74109,191.6599 317.15677,186.9018 303.61157,184.18188 C 285.75386,180.70614 263.21851,178.46335 239.96442,178.50833 C 215.42626,178.55243 192.68808,180.87812 175.08965,184.30977 C 161.46332,186.89298 141.86384,192.67942 139.67759,198.16953 L 139.67759,195.47872 C 140.9687,191.71987 155.2741,185.8373 174.6628,182.06169 C 192.39176,178.60446 215.28251,176.32199 239.96442,176.27525 z"
     id="path1395"
     style="fill:none;stroke:#000000;stroke-width:0.57282209;stroke-linecap:round;stroke-linejoin:round" />
  <path
     d="M 239.47849,132.96205 C 276.32716,132.77772 308.46823,138.11437 323.17313,145.64706 L 328.53688,154.92601 C 315.7563,148.03801 281.08064,140.87574 239.5314,141.9473 C 205.67767,142.15544 169.50454,145.6744 151.35491,155.35728 L 157.75843,144.64782 C 172.65382,136.92374 207.78014,133.00526 239.47849,132.96381"
     id="path1397"
     style="fill:#ffe805;fill-rule:evenodd;stroke:none" />
  <path
     d="M 324.10619,147.14549 L 327.75639,153.00601"
     id="path1399"
     style="fill:none;stroke:#000000;stroke-width:0.57409382;stroke-linecap:round;stroke-linejoin:round" />
  <path
     d="M 239.96618,140.62439 C 260.98288,140.56706 281.2923,141.75416 297.44352,144.6681 C 312.48443,147.4674 326.82863,151.66722 328.87818,153.93029 L 330.46737,156.74017 C 325.47931,153.48314 313.06737,149.85659 297.12868,146.83416 C 281.12121,143.82585 260.82767,142.82925 239.92738,142.88393 C 216.20499,142.80279 197.7758,144.05339 181.95793,146.81123 C 165.23082,149.94302 153.62494,154.41271 150.76051,156.5382 L 152.31972,153.56869 C 157.88278,150.73059 166.70978,147.30953 181.54255,144.639 C 197.89926,141.65097 216.52512,140.75315 239.9653,140.62439 L 239.96618,140.62439 z M 239.95736,132.14184 C 260.07099,132.08716 279.92975,133.20811 295.40985,135.99241 C 307.61895,138.36749 319.69313,142.07959 324.11324,145.37983 L 326.43883,149.07695 C 322.48612,144.68045 307.60308,140.51679 294.46533,138.18493 C 279.1034,135.53556 260.06923,134.48693 239.95736,134.31936 C 218.84982,134.37669 199.34206,135.66962 184.20503,138.42746 C 169.76293,141.1756 160.44472,144.4291 156.50171,146.96822 L 158.54685,143.88141 C 163.98821,141.01685 172.77905,138.38601 183.84962,136.23671 C 199.09954,133.46035 218.72636,132.19916 239.95736,132.14184"
     id="path1401"
     style="fill:#ffe805;fill-rule:evenodd;stroke:none" />
  <path
     d="M 239.96618,140.62439 C 260.98288,140.56882 281.29141,141.75416 297.44264,144.6681 C 312.48355,147.4674 326.82775,151.66898 328.87818,153.92853 L 330.46826,156.7384 C 325.4802,153.48138 313.06737,149.85482 297.12956,146.8324 C 281.12385,143.82408 260.82943,142.82748 239.92914,142.88216 C 216.20763,142.80103 197.77668,144.05339 181.96058,146.81123 C 165.23258,149.94125 153.6267,154.41271 150.76315,156.53732 L 152.32148,153.56693 C 157.88454,150.72883 166.71154,147.30776 181.54432,144.63723 C 197.90103,141.64921 216.52688,140.75315 239.96706,140.62439 L 239.96618,140.62439 z M 239.95736,132.14007 C 260.07011,132.08716 279.92975,133.20811 295.40896,135.99065 C 307.61807,138.36749 319.69225,142.07783 324.11324,145.37983 L 326.43883,149.07518 C 322.48524,144.68045 307.60308,140.51591 294.46533,138.18316 C 279.10429,135.5338 260.07011,134.48517 239.95736,134.3176 C 218.84982,134.37669 199.34206,135.66962 184.20503,138.4257 C 169.76382,141.17384 160.44472,144.42733 156.50171,146.96822 L 158.54685,143.88141 C 163.98821,141.01685 172.77905,138.38601 183.84962,136.23494 C 199.09866,133.45858 218.72547,132.19916 239.95736,132.14007 z"
     id="path1403"
     style="fill:none;stroke:#000000;stroke-width:0.57315809;stroke-linecap:round;stroke-linejoin:round" />
  <path
     d="M 289.1492,241.26225 C 270.93166,237.86147 252.67974,237.36758 239.93267,237.51751 C 178.52555,238.23718 158.68884,250.12668 156.26801,253.72678 L 151.67857,246.24524 C 167.31212,234.91313 200.75135,228.55871 240.26515,229.20782 C 260.78269,229.54384 278.48872,230.90645 293.38411,233.79129 L 289.14831,241.26401"
     id="path1405"
     style="fill:#ffe805;fill-rule:evenodd;stroke:none" />
  <path
     d="M 152.69805,247.28064 L 155.71064,252.46736"
     id="path1407"
     style="fill:none;stroke:#000000;stroke-width:0.57282209;stroke-linecap:round;stroke-linejoin:round" />
  <path
     d="M 239.58167,236.46182 C 256.66331,236.7167 273.43187,237.42226 289.61484,240.44027 L 288.44279,242.50932 C 273.41158,239.73472 257.38823,238.67286 239.63987,238.75752 C 216.97754,238.58202 194.05504,240.69868 174.09927,246.42604 C 167.80246,248.1767 157.37833,252.22659 156.31475,255.5718 L 155.14975,253.6474 C 155.48488,251.67008 161.7861,247.56815 173.56307,244.2591 C 196.42119,237.7133 217.80212,236.60999 239.58255,236.46006 L 239.58167,236.46182 z M 240.35686,227.8655 C 258.05495,228.19623 276.33157,229.01468 294.09669,232.53364 L 292.87613,234.68911 C 276.83514,231.50353 261.50762,230.44255 240.46181,230.11887 C 217.72716,230.15856 193.61144,231.78134 171.68373,238.15604 C 164.60467,240.21802 152.38674,244.67626 151.97842,248.20404 L 150.81342,246.13852 C 151.07799,242.93265 161.65557,238.75047 171.17134,235.98292 C 193.26749,229.55884 217.44671,227.90695 240.35686,227.8655"
     id="path1409"
     style="fill:#ffe805;fill-rule:evenodd;stroke:none" />
  <path
     d="M 239.58167,236.46182 C 256.66331,236.7167 273.43099,237.42226 289.61484,240.44027 L 288.44279,242.50932 C 273.41158,239.73472 257.38823,238.67286 239.63987,238.75929 C 216.97665,238.58202 194.05504,240.69868 174.09838,246.42604 C 167.80158,248.17846 157.37745,252.22659 156.31475,255.5718 L 155.14887,253.64916 C 155.48488,251.67184 161.78521,247.56815 173.56307,244.2591 C 196.42119,237.7133 217.80212,236.60999 239.58167,236.46006 L 239.58167,236.46182 z M 240.35686,227.8655 C 258.05495,228.19623 276.33157,229.01468 294.09669,232.53364 L 292.87613,234.68735 C 276.83426,231.50264 261.50762,230.44078 240.46093,230.11711 C 217.72627,230.15856 193.60967,231.77957 171.68284,238.15427 C 164.60378,240.21626 152.38586,244.67449 151.97842,248.20404 L 150.81254,246.13852 C 151.07799,242.93265 161.65469,238.75047 171.17046,235.98292 C 193.26661,229.55884 217.44583,227.90695 240.35686,227.8655 z"
     id="path1411"
     style="fill:none;stroke:#000000;stroke-width:0.54985231;stroke-linecap:round;stroke-linejoin:round" />
  <path
     d="M 156.89857,144.51553 C 187.31727,144.12042 327.80666,230.36405 328.22028,246.24524 L 319.51675,259.58642 C 315.59315,241.15024 173.03657,157.22435 149.51966,158.80568 L 156.89857,144.51553"
     id="path1419"
     style="fill:#ffe805;fill-rule:evenodd;stroke:none" />
  <path
     d="M 327.5809,247.37765 L 320.20199,258.82706"
     id="path1421"
     style="fill:none;stroke:#000000;stroke-width:0.5729773;stroke-linecap:round;stroke-linejoin:round" />
  <path
     d="M 156.6728,145.26959 L 149.80893,157.989"
     id="path1423"
     style="fill:none;stroke:#000000;stroke-width:0.5729773;stroke-linecap:round;stroke-linejoin:round" />
  <path
     d="M 148.64922,158.29592 C 154.29607,154.46651 195.78798,172.94943 239.20421,199.12821 C 282.50492,225.38195 323.88218,255.04969 320.14731,260.6033 L 318.91793,262.53388 L 318.35439,262.98014 C 318.47522,262.89195 319.09784,262.13259 318.29354,260.07413 C 316.4486,254.00371 287.09876,230.58278 238.39991,201.17873 C 190.92515,172.86829 151.35932,155.80795 147.40309,160.68334 L 148.65011,158.29592 L 148.64922,158.29592 z M 329.0916,247.22067 C 332.66156,240.1704 294.17518,211.17646 246.45965,182.94893 C 197.64616,155.28496 162.46604,138.99808 156.0396,143.85407 L 154.61091,146.4514 C 154.59944,146.59603 154.66294,146.27589 154.96455,146.04129 C 156.13396,145.02176 158.06974,145.09055 158.94371,145.07468 C 170.00987,145.24049 201.61121,159.78376 245.94903,185.20318 C 265.37742,196.51941 328.02008,236.69377 327.78197,247.99237 C 327.79873,248.96339 327.86222,249.16183 327.49623,249.64249 L 329.08984,247.22067"
     id="path1425"
     style="fill:#ffe805;fill-rule:evenodd;stroke:none" />
  <path
     d="M 148.64922,158.29415 C 154.29519,154.46475 195.78798,172.94943 239.20421,199.12821 C 282.50492,225.38195 323.8813,255.04969 320.14643,260.60154 L 318.91793,262.53388 L 318.35439,262.97838 C 318.47522,262.89195 319.09784,262.13083 318.29354,260.07237 C 316.4486,254.00194 287.09876,230.58101 238.39991,201.17697 C 190.92515,172.86829 151.35844,155.80619 147.40309,160.68334 L 148.65011,158.29415 L 148.64922,158.29415 z M 329.0916,247.22067 C 332.66156,240.16864 294.17518,211.17646 246.45965,182.94893 C 197.64704,155.28319 162.46604,138.99808 156.0396,143.85407 L 154.61179,146.45316 C 154.59944,146.59603 154.66382,146.27589 154.96543,146.04306 C 156.13396,145.02353 158.07063,145.09232 158.94459,145.07644 C 170.00987,145.24225 201.61121,159.78552 245.95079,185.20494 C 265.3783,196.5203 328.02185,236.69554 327.78285,247.99413 C 327.79961,248.96515 327.86311,249.16536 327.498,249.64602 L 329.0916,247.22243 L 329.0916,247.22067 z"
     id="path1427"
     style="fill:none;stroke:#000000;stroke-width:0.57300466;stroke-linecap:round;stroke-linejoin:round" />
  <path
     d="M 180.59715,211.00712 C 180.59715,227.27725 187.25995,241.99426 198.05536,252.74958 C 208.87106,263.52783 223.56802,270.32851 239.86388,270.32851 C 256.24528,270.32851 271.11069,263.676 281.87964,252.9392 C 292.6486,242.20416 299.32375,227.38837 299.32551,211.06092 L 299.32463,211.06092 L 299.32463,131.87196 L 180.5848,131.73085 L 180.59715,211.00712"
     id="path1429"
     style="fill:#ffffff;fill-rule:evenodd;stroke:none" />
  <path
     d="M 180.59627,211.00712 C 180.59627,227.27813 187.25907,241.99426 198.0536,252.74958 C 208.86841,263.52783 223.56537,270.32851 239.86212,270.32851 C 256.24352,270.32851 271.10893,263.676 281.87788,252.9392 C 292.64683,242.20416 299.3211,227.38749 299.32375,211.05916 L 299.32198,211.05916 L 299.32198,131.8702 L 180.58216,131.72909 L 180.5945,211.00712 L 180.59627,211.00712 z"
     id="path1431"
     style="fill:none;stroke:#000000;stroke-width:0.67037189" />
  <path
     d="M 182.81955,211.11913 L 182.81955,211.16411 L 182.81955,211.16411 C 182.81955,226.72074 189.26188,240.8883 199.59517,251.17355 C 209.94875,261.47819 224.20917,267.88552 239.8092,267.88552 C 255.48949,267.88552 269.72081,261.52493 280.03029,251.25998 C 290.33889,240.99502 296.72741,226.82745 296.72918,211.21438 L 296.72741,211.21438 L 296.72741,134.38992 L 182.88922,134.36963 L 182.81955,211.11913 M 273.84107,157.37252 L 273.84548,206.26138 L 273.80315,211.4331 L 273.80403,211.4331 C 273.80403,212.79571 273.72201,214.34705 273.56415,215.66644 C 272.63815,223.39757 269.08319,230.13298 263.81909,235.37438 C 257.65545,241.51184 249.14682,245.31567 239.77216,245.31567 C 230.44512,245.31567 222.13316,241.37778 215.94306,235.21563 C 209.59422,228.89738 205.91403,220.23139 205.91403,211.27083 L 205.9008,157.24817 L 273.84195,157.37076"
     id="path1433"
     style="fill:#dc241f;fill-rule:evenodd;stroke:none" />
  <path
     d="M 182.81867,211.11913 L 182.81867,211.16411 L 182.81867,211.16411 C 182.81867,226.72074 189.26011,240.8883 199.59341,251.17355 C 209.94698,261.47819 224.2074,267.88552 239.80744,267.88552 C 255.48861,267.88552 269.71904,261.52493 280.02941,251.25998 C 290.33712,240.99502 296.72653,226.82745 296.7283,211.21614 L 296.72653,211.21614 L 296.72653,134.38992 L 182.88834,134.3714 L 182.81867,211.11913 M 273.84107,157.37252 L 273.8446,206.26314 L 273.80315,211.43487 L 273.80403,211.43487 C 273.80403,212.79571 273.72201,214.34705 273.56327,215.6682 C 272.63815,223.39757 269.08319,230.13475 263.81821,235.37615 C 257.65457,241.51184 249.14682,245.31743 239.77128,245.31743 C 230.44424,245.31743 222.13228,241.37955 215.94218,235.2174 C 209.59246,228.89738 205.91226,220.23139 205.91226,211.27083 L 205.89903,157.24817 L 273.83931,157.37076 L 273.84107,157.37252 z"
     id="path1435"
     style="fill:none;stroke:#000000;stroke-width:0.50734437" />
  <use
     transform="translate(-20.74507,-4.0565e-2)"
     id="use3438"
     x="0"
     y="0"
     width="600"
     height="400"
     xlink:href="#use3436" />
  <use
     transform="translate(-6.747e-2,51.79972)"
     id="use3434"
     x="0"
     y="0"
     width="600"
     height="400"
     xlink:href="#path1485" />
  <use
     transform="translate(-20.79887,5.071e-2)"
     id="use3440"
     x="0"
     y="0"
     width="600"
     height="400"
     xlink:href="#use3438" />
  <use
     transform="translate(20.81827,-25.742655)"
     id="use3436"
     x="0"
     y="0"
     width="600"
     height="400"
     xlink:href="#use3434" />
  <path
     d="M 232.63049,176.38549 L 232.63049,176.39078 C 232.63049,178.6027 233.47976,180.61795 234.84231,182.08021 C 236.2075,183.54688 238.08772,184.45793 240.14433,184.45793 C 242.21151,184.45793 244.08821,183.55306 245.44723,182.09256 C 246.80536,180.63382 247.64935,178.62034 247.64935,176.3996 L 247.64935,176.3996 L 247.64935,165.63194 L 232.65783,165.61959 L 232.63049,176.38549"
     id="path1485"
     style="fill:#002c77" />
  <use
     transform="translate(-28.88242,-34.22608)"
     id="use6346"
     x="0"
     y="0"
     width="600"
     height="400"
     xlink:href="#use5944" />
  <g
     id="g6250">
    <use
       transform="translate(10.60844,0)"
       id="use4364"
       x="0"
       y="0"
       width="600"
       height="400"
       xlink:href="#path1539" />
    <path
       d="M 190.19141,154.43388 C 190.32634,148.9129 194.24376,147.60586 194.27198,147.58646 C 194.30021,147.56794 198.50337,148.99404 198.48926,154.48503 L 190.19141,154.43388"
       id="path1497"
       style="fill:#ffe805;fill-rule:evenodd;stroke:none" />
    <path
       d="M 186.8093,147.68435 L 186.12758,154.03083 L 190.26813,154.03965 C 190.30782,148.79031 194.24288,147.91719 194.33813,147.93659 C 194.4272,147.9313 198.32699,149.09547 198.43105,154.03965 L 202.58218,154.03965 L 201.83168,147.64643 L 186.81018,147.68435"
       id="path1499"
       style="fill:#ffe805;fill-rule:evenodd;stroke:none" />
    <path
       d="M 186.8093,147.68612 L 186.12758,154.03083 L 190.26813,154.03965 C 190.30782,148.79031 194.242,147.91719 194.33725,147.93659 C 194.42632,147.9313 198.32611,149.09723 198.43017,154.03965 L 202.5813,154.03965 L 201.83168,147.64643 L 186.8093,147.68435 L 186.8093,147.68612 z"
       id="path1501"
       style="fill:none;stroke:#000000;stroke-width:0.49936473" />
    <path
       d="M 185.85155,154.05994 L 202.79737,154.05994 C 203.15366,154.05994 203.44557,154.41271 203.44557,154.84398 C 203.44557,155.27261 203.15454,155.62539 202.79737,155.62539 L 185.85155,155.62539 C 185.49437,155.62539 185.20246,155.27437 185.20246,154.84398 C 185.20246,154.41271 185.49437,154.05994 185.85155,154.05994"
       id="path1503"
       style="fill:#ffe805;fill-rule:evenodd;stroke:none" />
    <path
       d="M 185.85066,154.05994 L 202.79649,154.05994 C 203.15366,154.05994 203.44557,154.41271 203.44557,154.84398 L 203.44557,154.84398 C 203.44557,155.27437 203.15366,155.62539 202.79649,155.62539 L 185.85066,155.62539 C 185.49349,155.62539 185.20158,155.27437 185.20158,154.84398 L 185.20158,154.84398 C 185.20158,154.41271 185.49349,154.05994 185.85066,154.05994 z"
       id="path1505"
       style="fill:none;stroke:#000000;stroke-width:0.49943003" />
    <path
       d="M 192.01431,154.02907 C 192.03283,150.71648 194.27639,149.77897 194.28786,149.78074 C 194.28874,149.78074 196.62932,150.74735 196.64784,154.02907 L 192.01431,154.02907"
       id="path1507"
       style="fill:#ffe805;fill-rule:evenodd;stroke:none" />
    <path
       d="M 192.01431,154.02907 C 192.03283,150.71648 194.27639,149.77897 194.28786,149.78074 C 194.28874,149.78074 196.6302,150.74735 196.64872,154.02907 L 192.01431,154.02907"
       id="path1509"
       style="fill:none;stroke:#000000;stroke-width:0.49703202" />
    <path
       d="M 186.20784,145.05616 L 202.45254,145.05616 C 202.79472,145.05616 203.07517,145.37278 203.07517,145.76083 C 203.07517,146.14624 202.79472,146.46551 202.45254,146.46551 L 186.20784,146.46551 C 185.86566,146.46551 185.58521,146.14801 185.58521,145.76083 C 185.58521,145.37278 185.86566,145.05616 186.20784,145.05616"
       id="path1511"
       style="fill:#ffe805;fill-rule:evenodd;stroke:none" />
    <path
       d="M 186.20784,145.05439 L 202.45254,145.05439 C 202.79472,145.05439 203.07517,145.37278 203.07517,145.75907 L 203.07517,145.75907 C 203.07517,146.14624 202.79472,146.46374 202.45254,146.46374 L 186.20784,146.46374 C 185.86566,146.46374 185.58521,146.14801 185.58521,145.75907 L 185.58521,145.75907 C 185.58521,145.37278 185.86566,145.05439 186.20784,145.05439 z"
       id="path1513"
       style="fill:none;stroke:#000000;stroke-width:0.49901107" />
    <path
       d="M 186.5509,146.46551 L 202.09008,146.46551 C 202.41727,146.46551 202.68625,146.78213 202.68625,147.1693 C 202.68625,147.55735 202.41815,147.87397 202.09008,147.87397 L 186.5509,147.87397 C 186.22371,147.87397 185.95561,147.55735 185.95561,147.1693 C 185.95561,146.78213 186.22371,146.46551 186.5509,146.46551"
       id="path1515"
       style="fill:#ffe805;fill-rule:evenodd;stroke:none" />
    <path
       d="M 186.5509,146.46551 L 202.0892,146.46551 C 202.41639,146.46551 202.68449,146.78213 202.68449,147.1693 L 202.68449,147.1693 C 202.68449,147.55735 202.41639,147.87397 202.0892,147.87397 L 186.5509,147.87397 C 186.22371,147.87397 185.95561,147.55735 185.95561,147.1693 L 185.95561,147.1693 C 185.95561,146.78213 186.22371,146.46551 186.5509,146.46551 z"
       id="path1517"
       style="fill:none;stroke:#000000;stroke-width:0.49901107" />
    <use
       transform="translate(-5.27909,-3.162655)"
       id="use4658"
       x="0"
       y="0"
       width="600"
       height="400"
       xlink:href="#use4656" />
    <path
       d="M 191.57159,135.88217 L 192.79832,135.88393 L 192.79832,136.75529 L 193.69345,136.75529 L 193.69345,135.86453 L 194.95017,135.86806 L 194.95017,136.75529 L 195.84795,136.75529 L 195.84795,135.86453 L 197.10555,135.86453 L 197.10378,137.87624 C 197.10378,138.19198 196.8498,138.39659 196.55524,138.39659 L 192.14395,138.39659 C 191.84762,138.39659 191.57423,138.15935 191.57335,137.87007 L 191.57071,135.88217 L 191.57159,135.88217 z"
       id="path1521"
       style="fill:none;stroke:#000000;stroke-width:0.50025284" />
    <path
       d="M 196.19366,138.5721 L 196.47058,145.02529 L 192.16776,145.00942 L 192.45261,138.55887 L 196.19454,138.57386"
       id="path1523"
       style="fill:#ffe805;fill-rule:evenodd;stroke:none" />
    <path
       d="M 196.19278,138.57386 L 196.46969,145.02529 L 192.16687,145.00942 L 192.45173,138.55711 L 196.19278,138.57386"
       id="path1525"
       style="fill:none;stroke:#000000;stroke-width:0.49897757" />
    <use
       transform="translate(10.60845,0)"
       id="use4656"
       x="0"
       y="0"
       width="600"
       height="400"
       xlink:href="#path1535" />
    <use
       transform="translate(10.60889,0)"
       id="use4366"
       x="0"
       y="0"
       width="600"
       height="400"
       xlink:href="#path1541" />
    <use
       transform="translate(10.60889,-1.0585e-2)"
       id="use4660"
       x="0"
       y="0"
       width="600"
       height="400"
       xlink:href="#path1537" />
    <path
       d="M 186.3022,139.04482 L 187.50247,139.04659 L 187.50247,139.91795 L 188.37909,139.91795 L 188.37909,139.02718 L 189.60847,139.03071 L 189.60847,139.91795 L 190.48773,139.91795 L 190.48773,139.02718 L 191.71798,139.02895 L 191.71622,141.04066 C 191.71622,141.35464 191.46752,141.55925 191.18002,141.55925 L 186.86309,141.55925 C 186.57295,141.55925 186.30485,141.32377 186.30485,141.03184 L 186.30308,139.04482"
       id="path1535"
       style="fill:#ffde00;fill-rule:evenodd;stroke:none" />
    <path
       d="M 186.3022,139.04482 L 187.50159,139.04747 L 187.50159,139.91971 L 188.37909,139.91971 L 188.37909,139.02718 L 189.60847,139.03071 L 189.60847,139.91971 L 190.48773,139.91971 L 190.48773,139.02718 L 191.71798,139.02895 L 191.71622,141.04066 C 191.71622,141.35464 191.46752,141.55925 191.18002,141.55925 L 186.86309,141.55925 C 186.57383,141.55925 186.30485,141.32377 186.30396,141.03361 L 186.30132,139.04482 L 186.3022,139.04482 z"
       id="path1537"
       style="fill:none;stroke:#000000;stroke-width:0.50017256;stroke-opacity:1" />
    <path
       d="M 190.93926,141.55925 L 191.07067,145.03676 L 186.94423,145.03852 L 187.06064,141.55925 L 190.93926,141.55925"
       id="path1539"
       style="fill:#ffde00;fill-rule:evenodd;stroke:none" />
    <path
       d="M 190.94014,141.55925 L 191.07155,145.03676 L 186.94599,145.03852 L 187.0624,141.55925 L 190.94103,141.55925 L 190.94014,141.55925 z"
       id="path1541"
       style="fill:none;stroke:#000000;stroke-width:0.50127673" />
    <path
       d="M 193.89806,140.61027 C 193.8716,139.98321 194.77467,139.97616 194.76409,140.61027 L 194.76409,142.14662 L 193.89806,142.14662 L 193.89806,140.61027"
       id="path1543"
       style="fill:#000000;fill-rule:evenodd;stroke:none" />
    <use
       transform="translate(10.64108,0)"
       id="use4362"
       x="0"
       y="0"
       width="600"
       height="400"
       xlink:href="#path1547" />
    <path
       d="M 188.56605,142.84424 C 188.56341,142.23834 189.40298,142.226 189.3924,142.84424 L 189.3924,144.03134 L 188.56605,144.03134 L 188.56605,142.84424"
       id="path1547"
       style="fill:#000000;fill-rule:evenodd;stroke:none" />
  </g>
  <use
     transform="translate(-45.20474,0)"
     id="use4984"
     x="0"
     y="0"
     width="600"
     height="400"
     xlink:href="#use4982" />
  <use
     transform="translate(90.91878,-46.31963)"
     id="use4982"
     x="0"
     y="0"
     width="600"
     height="400"
     xlink:href="#use4980" />
  <g
     transform="translate(0,46.31963)"
     id="use4980">
    <use
       transform="translate(10.60844,0)"
       id="use5166"
       x="0"
       y="0"
       width="600"
       height="400"
       xlink:href="#path1539" />
    <path
       d="M 190.19141,154.43388 C 190.32634,148.9129 194.24376,147.60586 194.27198,147.58646 C 194.30021,147.56794 198.50337,148.99404 198.48926,154.48503 L 190.19141,154.43388"
       id="path5168"
       style="fill:#ffe805;fill-rule:evenodd;stroke:none" />
    <path
       d="M 186.8093,147.68435 L 186.12758,154.03083 L 190.26813,154.03965 C 190.30782,148.79031 194.24288,147.91719 194.33813,147.93659 C 194.4272,147.9313 198.32699,149.09547 198.43105,154.03965 L 202.58218,154.03965 L 201.83168,147.64643 L 186.81018,147.68435"
       id="path5170"
       style="fill:#ffe805;fill-rule:evenodd;stroke:none" />
    <path
       d="M 186.8093,147.68612 L 186.12758,154.03083 L 190.26813,154.03965 C 190.30782,148.79031 194.242,147.91719 194.33725,147.93659 C 194.42632,147.9313 198.32611,149.09723 198.43017,154.03965 L 202.5813,154.03965 L 201.83168,147.64643 L 186.8093,147.68435 L 186.8093,147.68612 z"
       id="path5172"
       style="fill:none;stroke:#000000;stroke-width:0.49936473" />
    <path
       d="M 185.85155,154.05994 L 202.79737,154.05994 C 203.15366,154.05994 203.44557,154.41271 203.44557,154.84398 C 203.44557,155.27261 203.15454,155.62539 202.79737,155.62539 L 185.85155,155.62539 C 185.49437,155.62539 185.20246,155.27437 185.20246,154.84398 C 185.20246,154.41271 185.49437,154.05994 185.85155,154.05994"
       id="path5174"
       style="fill:#ffe805;fill-rule:evenodd;stroke:none" />
    <path
       d="M 185.85066,154.05994 L 202.79649,154.05994 C 203.15366,154.05994 203.44557,154.41271 203.44557,154.84398 L 203.44557,154.84398 C 203.44557,155.27437 203.15366,155.62539 202.79649,155.62539 L 185.85066,155.62539 C 185.49349,155.62539 185.20158,155.27437 185.20158,154.84398 L 185.20158,154.84398 C 185.20158,154.41271 185.49349,154.05994 185.85066,154.05994 z"
       id="path5176"
       style="fill:none;stroke:#000000;stroke-width:0.49943003" />
    <path
       d="M 192.01431,154.02907 C 192.03283,150.71648 194.27639,149.77897 194.28786,149.78074 C 194.28874,149.78074 196.62932,150.74735 196.64784,154.02907 L 192.01431,154.02907"
       id="path5178"
       style="fill:#ffe805;fill-rule:evenodd;stroke:none" />
    <path
       d="M 192.01431,154.02907 C 192.03283,150.71648 194.27639,149.77897 194.28786,149.78074 C 194.28874,149.78074 196.6302,150.74735 196.64872,154.02907 L 192.01431,154.02907"
       id="path5180"
       style="fill:none;stroke:#000000;stroke-width:0.49703202" />
    <path
       d="M 186.20784,145.05616 L 202.45254,145.05616 C 202.79472,145.05616 203.07517,145.37278 203.07517,145.76083 C 203.07517,146.14624 202.79472,146.46551 202.45254,146.46551 L 186.20784,146.46551 C 185.86566,146.46551 185.58521,146.14801 185.58521,145.76083 C 185.58521,145.37278 185.86566,145.05616 186.20784,145.05616"
       id="path5182"
       style="fill:#ffe805;fill-rule:evenodd;stroke:none" />
    <path
       d="M 186.20784,145.05439 L 202.45254,145.05439 C 202.79472,145.05439 203.07517,145.37278 203.07517,145.75907 L 203.07517,145.75907 C 203.07517,146.14624 202.79472,146.46374 202.45254,146.46374 L 186.20784,146.46374 C 185.86566,146.46374 185.58521,146.14801 185.58521,145.75907 L 185.58521,145.75907 C 185.58521,145.37278 185.86566,145.05439 186.20784,145.05439 z"
       id="path5184"
       style="fill:none;stroke:#000000;stroke-width:0.49901107" />
    <path
       d="M 186.5509,146.46551 L 202.09008,146.46551 C 202.41727,146.46551 202.68625,146.78213 202.68625,147.1693 C 202.68625,147.55735 202.41815,147.87397 202.09008,147.87397 L 186.5509,147.87397 C 186.22371,147.87397 185.95561,147.55735 185.95561,147.1693 C 185.95561,146.78213 186.22371,146.46551 186.5509,146.46551"
       id="path5186"
       style="fill:#ffe805;fill-rule:evenodd;stroke:none" />
    <path
       d="M 186.5509,146.46551 L 202.0892,146.46551 C 202.41639,146.46551 202.68449,146.78213 202.68449,147.1693 L 202.68449,147.1693 C 202.68449,147.55735 202.41639,147.87397 202.0892,147.87397 L 186.5509,147.87397 C 186.22371,147.87397 185.95561,147.55735 185.95561,147.1693 L 185.95561,147.1693 C 185.95561,146.78213 186.22371,146.46551 186.5509,146.46551 z"
       id="path5188"
       style="fill:none;stroke:#000000;stroke-width:0.49901107" />
    <use
       transform="translate(-5.27909,-3.162655)"
       id="use5190"
       x="0"
       y="0"
       width="600"
       height="400"
       xlink:href="#use4656" />
    <path
       d="M 191.57159,135.88217 L 192.79832,135.88393 L 192.79832,136.75529 L 193.69345,136.75529 L 193.69345,135.86453 L 194.95017,135.86806 L 194.95017,136.75529 L 195.84795,136.75529 L 195.84795,135.86453 L 197.10555,135.86453 L 197.10378,137.87624 C 197.10378,138.19198 196.8498,138.39659 196.55524,138.39659 L 192.14395,138.39659 C 191.84762,138.39659 191.57423,138.15935 191.57335,137.87007 L 191.57071,135.88217 L 191.57159,135.88217 z"
       id="path5192"
       style="fill:none;stroke:#000000;stroke-width:0.50025284" />
    <path
       d="M 196.19366,138.5721 L 196.47058,145.02529 L 192.16776,145.00942 L 192.45261,138.55887 L 196.19454,138.57386"
       id="path5194"
       style="fill:#ffe805;fill-rule:evenodd;stroke:none" />
    <path
       d="M 196.19278,138.57386 L 196.46969,145.02529 L 192.16687,145.00942 L 192.45173,138.55711 L 196.19278,138.57386"
       id="path5196"
       style="fill:none;stroke:#000000;stroke-width:0.49897757" />
    <use
       transform="translate(10.60845,0)"
       id="use5198"
       x="0"
       y="0"
       width="600"
       height="400"
       xlink:href="#path1535" />
    <use
       transform="translate(10.60889,0)"
       id="use5200"
       x="0"
       y="0"
       width="600"
       height="400"
       xlink:href="#path1541" />
    <use
       transform="translate(10.60889,-1.0585e-2)"
       id="use5202"
       x="0"
       y="0"
       width="600"
       height="400"
       xlink:href="#path1537" />
    <path
       d="M 186.3022,139.04482 L 187.50247,139.04659 L 187.50247,139.91795 L 188.37909,139.91795 L 188.37909,139.02718 L 189.60847,139.03071 L 189.60847,139.91795 L 190.48773,139.91795 L 190.48773,139.02718 L 191.71798,139.02895 L 191.71622,141.04066 C 191.71622,141.35464 191.46752,141.55925 191.18002,141.55925 L 186.86309,141.55925 C 186.57295,141.55925 186.30485,141.32377 186.30485,141.03184 L 186.30308,139.04482"
       id="path5204"
       style="fill:#ffde00;fill-rule:evenodd;stroke:none" />
    <path
       d="M 186.3022,139.04482 L 187.50159,139.04747 L 187.50159,139.91971 L 188.37909,139.91971 L 188.37909,139.02718 L 189.60847,139.03071 L 189.60847,139.91971 L 190.48773,139.91971 L 190.48773,139.02718 L 191.71798,139.02895 L 191.71622,141.04066 C 191.71622,141.35464 191.46752,141.55925 191.18002,141.55925 L 186.86309,141.55925 C 186.57383,141.55925 186.30485,141.32377 186.30396,141.03361 L 186.30132,139.04482 L 186.3022,139.04482 z"
       id="path5206"
       style="fill:none;stroke:#000000;stroke-width:0.50017256;stroke-opacity:1" />
    <path
       d="M 190.93926,141.55925 L 191.07067,145.03676 L 186.94423,145.03852 L 187.06064,141.55925 L 190.93926,141.55925"
       id="path5208"
       style="fill:#ffde00;fill-rule:evenodd;stroke:none" />
    <path
       d="M 190.94014,141.55925 L 191.07155,145.03676 L 186.94599,145.03852 L 187.0624,141.55925 L 190.94103,141.55925 L 190.94014,141.55925 z"
       id="path5210"
       style="fill:none;stroke:#000000;stroke-width:0.50127673" />
    <path
       d="M 193.89806,140.61027 C 193.8716,139.98321 194.77467,139.97616 194.76409,140.61027 L 194.76409,142.14662 L 193.89806,142.14662 L 193.89806,140.61027"
       id="path5212"
       style="fill:#000000;fill-rule:evenodd;stroke:none" />
    <use
       transform="translate(10.64108,0)"
       id="use5214"
       x="0"
       y="0"
       width="600"
       height="400"
       xlink:href="#path1547" />
    <path
       d="M 188.56605,142.84424 C 188.56341,142.23834 189.40298,142.226 189.3924,142.84424 L 189.3924,144.03134 L 188.56605,144.03134 L 188.56605,142.84424"
       id="path5216"
       style="fill:#000000;fill-rule:evenodd;stroke:none" />
  </g>
  <g
     transform="matrix(0.7071068,0.7071068,-0.7071068,0.7071068,240.44317,-0.4953113)"
     id="use5132">
    <use
       transform="translate(10.60844,0)"
       id="use5328"
       x="0"
       y="0"
       width="600"
       height="400"
       xlink:href="#path1539" />
    <path
       d="M 190.19141,154.43388 C 190.32634,148.9129 194.24376,147.60586 194.27198,147.58646 C 194.30021,147.56794 198.50337,148.99404 198.48926,154.48503 L 190.19141,154.43388"
       id="path5330"
       style="fill:#ffe805;fill-rule:evenodd;stroke:none" />
    <path
       d="M 186.8093,147.68435 L 186.12758,154.03083 L 190.26813,154.03965 C 190.30782,148.79031 194.24288,147.91719 194.33813,147.93659 C 194.4272,147.9313 198.32699,149.09547 198.43105,154.03965 L 202.58218,154.03965 L 201.83168,147.64643 L 186.81018,147.68435"
       id="path5332"
       style="fill:#ffe805;fill-rule:evenodd;stroke:none" />
    <path
       d="M 186.8093,147.68612 L 186.12758,154.03083 L 190.26813,154.03965 C 190.30782,148.79031 194.242,147.91719 194.33725,147.93659 C 194.42632,147.9313 198.32611,149.09723 198.43017,154.03965 L 202.5813,154.03965 L 201.83168,147.64643 L 186.8093,147.68435 L 186.8093,147.68612 z"
       id="path5334"
       style="fill:none;stroke:#000000;stroke-width:0.49936473" />
    <path
       d="M 185.85155,154.05994 L 202.79737,154.05994 C 203.15366,154.05994 203.44557,154.41271 203.44557,154.84398 C 203.44557,155.27261 203.15454,155.62539 202.79737,155.62539 L 185.85155,155.62539 C 185.49437,155.62539 185.20246,155.27437 185.20246,154.84398 C 185.20246,154.41271 185.49437,154.05994 185.85155,154.05994"
       id="path5336"
       style="fill:#ffe805;fill-rule:evenodd;stroke:none" />
    <path
       d="M 185.85066,154.05994 L 202.79649,154.05994 C 203.15366,154.05994 203.44557,154.41271 203.44557,154.84398 L 203.44557,154.84398 C 203.44557,155.27437 203.15366,155.62539 202.79649,155.62539 L 185.85066,155.62539 C 185.49349,155.62539 185.20158,155.27437 185.20158,154.84398 L 185.20158,154.84398 C 185.20158,154.41271 185.49349,154.05994 185.85066,154.05994 z"
       id="path5338"
       style="fill:none;stroke:#000000;stroke-width:0.49943003" />
    <path
       d="M 192.01431,154.02907 C 192.03283,150.71648 194.27639,149.77897 194.28786,149.78074 C 194.28874,149.78074 196.62932,150.74735 196.64784,154.02907 L 192.01431,154.02907"
       id="path5340"
       style="fill:#ffe805;fill-rule:evenodd;stroke:none" />
    <path
       d="M 192.01431,154.02907 C 192.03283,150.71648 194.27639,149.77897 194.28786,149.78074 C 194.28874,149.78074 196.6302,150.74735 196.64872,154.02907 L 192.01431,154.02907"
       id="path5342"
       style="fill:none;stroke:#000000;stroke-width:0.49703202" />
    <path
       d="M 186.20784,145.05616 L 202.45254,145.05616 C 202.79472,145.05616 203.07517,145.37278 203.07517,145.76083 C 203.07517,146.14624 202.79472,146.46551 202.45254,146.46551 L 186.20784,146.46551 C 185.86566,146.46551 185.58521,146.14801 185.58521,145.76083 C 185.58521,145.37278 185.86566,145.05616 186.20784,145.05616"
       id="path5344"
       style="fill:#ffe805;fill-rule:evenodd;stroke:none" />
    <path
       d="M 186.20784,145.05439 L 202.45254,145.05439 C 202.79472,145.05439 203.07517,145.37278 203.07517,145.75907 L 203.07517,145.75907 C 203.07517,146.14624 202.79472,146.46374 202.45254,146.46374 L 186.20784,146.46374 C 185.86566,146.46374 185.58521,146.14801 185.58521,145.75907 L 185.58521,145.75907 C 185.58521,145.37278 185.86566,145.05439 186.20784,145.05439 z"
       id="path5346"
       style="fill:none;stroke:#000000;stroke-width:0.49901107" />
    <path
       d="M 186.5509,146.46551 L 202.09008,146.46551 C 202.41727,146.46551 202.68625,146.78213 202.68625,147.1693 C 202.68625,147.55735 202.41815,147.87397 202.09008,147.87397 L 186.5509,147.87397 C 186.22371,147.87397 185.95561,147.55735 185.95561,147.1693 C 185.95561,146.78213 186.22371,146.46551 186.5509,146.46551"
       id="path5348"
       style="fill:#ffe805;fill-rule:evenodd;stroke:none" />
    <path
       d="M 186.5509,146.46551 L 202.0892,146.46551 C 202.41639,146.46551 202.68449,146.78213 202.68449,147.1693 L 202.68449,147.1693 C 202.68449,147.55735 202.41639,147.87397 202.0892,147.87397 L 186.5509,147.87397 C 186.22371,147.87397 185.95561,147.55735 185.95561,147.1693 L 185.95561,147.1693 C 185.95561,146.78213 186.22371,146.46551 186.5509,146.46551 z"
       id="path5350"
       style="fill:none;stroke:#000000;stroke-width:0.49901107" />
    <use
       transform="translate(-5.27909,-3.162655)"
       id="use5352"
       x="0"
       y="0"
       width="600"
       height="400"
       xlink:href="#use4656" />
    <path
       d="M 191.57159,135.88217 L 192.79832,135.88393 L 192.79832,136.75529 L 193.69345,136.75529 L 193.69345,135.86453 L 194.95017,135.86806 L 194.95017,136.75529 L 195.84795,136.75529 L 195.84795,135.86453 L 197.10555,135.86453 L 197.10378,137.87624 C 197.10378,138.19198 196.8498,138.39659 196.55524,138.39659 L 192.14395,138.39659 C 191.84762,138.39659 191.57423,138.15935 191.57335,137.87007 L 191.57071,135.88217 L 191.57159,135.88217 z"
       id="path5354"
       style="fill:none;stroke:#000000;stroke-width:0.50025284" />
    <path
       d="M 196.19366,138.5721 L 196.47058,145.02529 L 192.16776,145.00942 L 192.45261,138.55887 L 196.19454,138.57386"
       id="path5356"
       style="fill:#ffe805;fill-rule:evenodd;stroke:none" />
    <path
       d="M 196.19278,138.57386 L 196.46969,145.02529 L 192.16687,145.00942 L 192.45173,138.55711 L 196.19278,138.57386"
       id="path5358"
       style="fill:none;stroke:#000000;stroke-width:0.49897757" />
    <use
       transform="translate(10.60845,0)"
       id="use5360"
       x="0"
       y="0"
       width="600"
       height="400"
       xlink:href="#path1535" />
    <use
       transform="translate(10.60889,0)"
       id="use5362"
       x="0"
       y="0"
       width="600"
       height="400"
       xlink:href="#path1541" />
    <use
       transform="translate(10.60889,-1.0585e-2)"
       id="use5364"
       x="0"
       y="0"
       width="600"
       height="400"
       xlink:href="#path1537" />
    <path
       d="M 186.3022,139.04482 L 187.50247,139.04659 L 187.50247,139.91795 L 188.37909,139.91795 L 188.37909,139.02718 L 189.60847,139.03071 L 189.60847,139.91795 L 190.48773,139.91795 L 190.48773,139.02718 L 191.71798,139.02895 L 191.71622,141.04066 C 191.71622,141.35464 191.46752,141.55925 191.18002,141.55925 L 186.86309,141.55925 C 186.57295,141.55925 186.30485,141.32377 186.30485,141.03184 L 186.30308,139.04482"
       id="path5366"
       style="fill:#ffde00;fill-rule:evenodd;stroke:none" />
    <path
       d="M 186.3022,139.04482 L 187.50159,139.04747 L 187.50159,139.91971 L 188.37909,139.91971 L 188.37909,139.02718 L 189.60847,139.03071 L 189.60847,139.91971 L 190.48773,139.91971 L 190.48773,139.02718 L 191.71798,139.02895 L 191.71622,141.04066 C 191.71622,141.35464 191.46752,141.55925 191.18002,141.55925 L 186.86309,141.55925 C 186.57383,141.55925 186.30485,141.32377 186.30396,141.03361 L 186.30132,139.04482 L 186.3022,139.04482 z"
       id="path5368"
       style="fill:none;stroke:#000000;stroke-width:0.50017256;stroke-opacity:1" />
    <path
       d="M 190.93926,141.55925 L 191.07067,145.03676 L 186.94423,145.03852 L 187.06064,141.55925 L 190.93926,141.55925"
       id="path5370"
       style="fill:#ffde00;fill-rule:evenodd;stroke:none" />
    <path
       d="M 190.94014,141.55925 L 191.07155,145.03676 L 186.94599,145.03852 L 187.0624,141.55925 L 190.94103,141.55925 L 190.94014,141.55925 z"
       id="path5372"
       style="fill:none;stroke:#000000;stroke-width:0.50127673" />
    <path
       d="M 193.89806,140.61027 C 193.8716,139.98321 194.77467,139.97616 194.76409,140.61027 L 194.76409,142.14662 L 193.89806,142.14662 L 193.89806,140.61027"
       id="path5374"
       style="fill:#000000;fill-rule:evenodd;stroke:none" />
    <use
       transform="translate(10.64108,0)"
       id="use5376"
       x="0"
       y="0"
       width="600"
       height="400"
       xlink:href="#path1547" />
    <path
       d="M 188.56605,142.84424 C 188.56341,142.23834 189.40298,142.226 189.3924,142.84424 L 189.3924,144.03134 L 188.56605,144.03134 L 188.56605,142.84424"
       id="path5378"
       style="fill:#000000;fill-rule:evenodd;stroke:none" />
  </g>
  <g
     transform="translate(90.84999,46.32063)"
     id="use5100">
    <use
       transform="translate(10.60844,0)"
       id="use5220"
       x="0"
       y="0"
       width="600"
       height="400"
       xlink:href="#path1539" />
    <path
       d="M 190.19141,154.43388 C 190.32634,148.9129 194.24376,147.60586 194.27198,147.58646 C 194.30021,147.56794 198.50337,148.99404 198.48926,154.48503 L 190.19141,154.43388"
       id="path5222"
       style="fill:#ffe805;fill-rule:evenodd;stroke:none" />
    <path
       d="M 186.8093,147.68435 L 186.12758,154.03083 L 190.26813,154.03965 C 190.30782,148.79031 194.24288,147.91719 194.33813,147.93659 C 194.4272,147.9313 198.32699,149.09547 198.43105,154.03965 L 202.58218,154.03965 L 201.83168,147.64643 L 186.81018,147.68435"
       id="path5224"
       style="fill:#ffe805;fill-rule:evenodd;stroke:none" />
    <path
       d="M 186.8093,147.68612 L 186.12758,154.03083 L 190.26813,154.03965 C 190.30782,148.79031 194.242,147.91719 194.33725,147.93659 C 194.42632,147.9313 198.32611,149.09723 198.43017,154.03965 L 202.5813,154.03965 L 201.83168,147.64643 L 186.8093,147.68435 L 186.8093,147.68612 z"
       id="path5226"
       style="fill:none;stroke:#000000;stroke-width:0.49936473" />
    <path
       d="M 185.85155,154.05994 L 202.79737,154.05994 C 203.15366,154.05994 203.44557,154.41271 203.44557,154.84398 C 203.44557,155.27261 203.15454,155.62539 202.79737,155.62539 L 185.85155,155.62539 C 185.49437,155.62539 185.20246,155.27437 185.20246,154.84398 C 185.20246,154.41271 185.49437,154.05994 185.85155,154.05994"
       id="path5228"
       style="fill:#ffe805;fill-rule:evenodd;stroke:none" />
    <path
       d="M 185.85066,154.05994 L 202.79649,154.05994 C 203.15366,154.05994 203.44557,154.41271 203.44557,154.84398 L 203.44557,154.84398 C 203.44557,155.27437 203.15366,155.62539 202.79649,155.62539 L 185.85066,155.62539 C 185.49349,155.62539 185.20158,155.27437 185.20158,154.84398 L 185.20158,154.84398 C 185.20158,154.41271 185.49349,154.05994 185.85066,154.05994 z"
       id="path5230"
       style="fill:none;stroke:#000000;stroke-width:0.49943003" />
    <path
       d="M 192.01431,154.02907 C 192.03283,150.71648 194.27639,149.77897 194.28786,149.78074 C 194.28874,149.78074 196.62932,150.74735 196.64784,154.02907 L 192.01431,154.02907"
       id="path5232"
       style="fill:#ffe805;fill-rule:evenodd;stroke:none" />
    <path
       d="M 192.01431,154.02907 C 192.03283,150.71648 194.27639,149.77897 194.28786,149.78074 C 194.28874,149.78074 196.6302,150.74735 196.64872,154.02907 L 192.01431,154.02907"
       id="path5234"
       style="fill:none;stroke:#000000;stroke-width:0.49703202" />
    <path
       d="M 186.20784,145.05616 L 202.45254,145.05616 C 202.79472,145.05616 203.07517,145.37278 203.07517,145.76083 C 203.07517,146.14624 202.79472,146.46551 202.45254,146.46551 L 186.20784,146.46551 C 185.86566,146.46551 185.58521,146.14801 185.58521,145.76083 C 185.58521,145.37278 185.86566,145.05616 186.20784,145.05616"
       id="path5236"
       style="fill:#ffe805;fill-rule:evenodd;stroke:none" />
    <path
       d="M 186.20784,145.05439 L 202.45254,145.05439 C 202.79472,145.05439 203.07517,145.37278 203.07517,145.75907 L 203.07517,145.75907 C 203.07517,146.14624 202.79472,146.46374 202.45254,146.46374 L 186.20784,146.46374 C 185.86566,146.46374 185.58521,146.14801 185.58521,145.75907 L 185.58521,145.75907 C 185.58521,145.37278 185.86566,145.05439 186.20784,145.05439 z"
       id="path5238"
       style="fill:none;stroke:#000000;stroke-width:0.49901107" />
    <path
       d="M 186.5509,146.46551 L 202.09008,146.46551 C 202.41727,146.46551 202.68625,146.78213 202.68625,147.1693 C 202.68625,147.55735 202.41815,147.87397 202.09008,147.87397 L 186.5509,147.87397 C 186.22371,147.87397 185.95561,147.55735 185.95561,147.1693 C 185.95561,146.78213 186.22371,146.46551 186.5509,146.46551"
       id="path5240"
       style="fill:#ffe805;fill-rule:evenodd;stroke:none" />
    <path
       d="M 186.5509,146.46551 L 202.0892,146.46551 C 202.41639,146.46551 202.68449,146.78213 202.68449,147.1693 L 202.68449,147.1693 C 202.68449,147.55735 202.41639,147.87397 202.0892,147.87397 L 186.5509,147.87397 C 186.22371,147.87397 185.95561,147.55735 185.95561,147.1693 L 185.95561,147.1693 C 185.95561,146.78213 186.22371,146.46551 186.5509,146.46551 z"
       id="path5242"
       style="fill:none;stroke:#000000;stroke-width:0.49901107" />
    <use
       transform="translate(-5.27909,-3.162655)"
       id="use5244"
       x="0"
       y="0"
       width="600"
       height="400"
       xlink:href="#use4656" />
    <path
       d="M 191.57159,135.88217 L 192.79832,135.88393 L 192.79832,136.75529 L 193.69345,136.75529 L 193.69345,135.86453 L 194.95017,135.86806 L 194.95017,136.75529 L 195.84795,136.75529 L 195.84795,135.86453 L 197.10555,135.86453 L 197.10378,137.87624 C 197.10378,138.19198 196.8498,138.39659 196.55524,138.39659 L 192.14395,138.39659 C 191.84762,138.39659 191.57423,138.15935 191.57335,137.87007 L 191.57071,135.88217 L 191.57159,135.88217 z"
       id="path5246"
       style="fill:none;stroke:#000000;stroke-width:0.50025284" />
    <path
       d="M 196.19366,138.5721 L 196.47058,145.02529 L 192.16776,145.00942 L 192.45261,138.55887 L 196.19454,138.57386"
       id="path5248"
       style="fill:#ffe805;fill-rule:evenodd;stroke:none" />
    <path
       d="M 196.19278,138.57386 L 196.46969,145.02529 L 192.16687,145.00942 L 192.45173,138.55711 L 196.19278,138.57386"
       id="path5250"
       style="fill:none;stroke:#000000;stroke-width:0.49897757" />
    <use
       transform="translate(10.60845,0)"
       id="use5252"
       x="0"
       y="0"
       width="600"
       height="400"
       xlink:href="#path1535" />
    <use
       transform="translate(10.60889,0)"
       id="use5254"
       x="0"
       y="0"
       width="600"
       height="400"
       xlink:href="#path1541" />
    <use
       transform="translate(10.60889,-1.0585e-2)"
       id="use5256"
       x="0"
       y="0"
       width="600"
       height="400"
       xlink:href="#path1537" />
    <path
       d="M 186.3022,139.04482 L 187.50247,139.04659 L 187.50247,139.91795 L 188.37909,139.91795 L 188.37909,139.02718 L 189.60847,139.03071 L 189.60847,139.91795 L 190.48773,139.91795 L 190.48773,139.02718 L 191.71798,139.02895 L 191.71622,141.04066 C 191.71622,141.35464 191.46752,141.55925 191.18002,141.55925 L 186.86309,141.55925 C 186.57295,141.55925 186.30485,141.32377 186.30485,141.03184 L 186.30308,139.04482"
       id="path5258"
       style="fill:#ffde00;fill-rule:evenodd;stroke:none" />
    <path
       d="M 186.3022,139.04482 L 187.50159,139.04747 L 187.50159,139.91971 L 188.37909,139.91971 L 188.37909,139.02718 L 189.60847,139.03071 L 189.60847,139.91971 L 190.48773,139.91971 L 190.48773,139.02718 L 191.71798,139.02895 L 191.71622,141.04066 C 191.71622,141.35464 191.46752,141.55925 191.18002,141.55925 L 186.86309,141.55925 C 186.57383,141.55925 186.30485,141.32377 186.30396,141.03361 L 186.30132,139.04482 L 186.3022,139.04482 z"
       id="path5260"
       style="fill:none;stroke:#000000;stroke-width:0.50017256;stroke-opacity:1" />
    <path
       d="M 190.93926,141.55925 L 191.07067,145.03676 L 186.94423,145.03852 L 187.06064,141.55925 L 190.93926,141.55925"
       id="path5262"
       style="fill:#ffde00;fill-rule:evenodd;stroke:none" />
    <path
       d="M 190.94014,141.55925 L 191.07155,145.03676 L 186.94599,145.03852 L 187.0624,141.55925 L 190.94103,141.55925 L 190.94014,141.55925 z"
       id="path5264"
       style="fill:none;stroke:#000000;stroke-width:0.50127673" />
    <path
       d="M 193.89806,140.61027 C 193.8716,139.98321 194.77467,139.97616 194.76409,140.61027 L 194.76409,142.14662 L 193.89806,142.14662 L 193.89806,140.61027"
       id="path5266"
       style="fill:#000000;fill-rule:evenodd;stroke:none" />
    <use
       transform="translate(10.64108,0)"
       id="use5268"
       x="0"
       y="0"
       width="600"
       height="400"
       xlink:href="#path1547" />
    <path
       d="M 188.56605,142.84424 C 188.56341,142.23834 189.40298,142.226 189.3924,142.84424 L 189.3924,144.03134 L 188.56605,144.03134 L 188.56605,142.84424"
       id="path5270"
       style="fill:#000000;fill-rule:evenodd;stroke:none" />
  </g>
  <use
     transform="matrix(0.7071068,-0.7071068,0.7071068,0.7071068,-27.964959,266.75824)"
     id="use5274"
     x="0"
     y="0"
     width="600"
     height="400"
     xlink:href="#path1539" />
  <path
     d="M 208.22063,248.97515 C 204.41211,244.97581 206.25793,241.28156 206.26417,241.24789 C 206.27103,241.21483 210.25152,239.25116 214.12426,243.14385 L 208.22063,248.97515"
     id="path5276"
     style="fill:#ffe805;fill-rule:evenodd;stroke:none" />
  <path
     d="M 201.05648,246.59402 L 205.06207,251.56371 L 207.99611,248.64214 C 204.31233,244.90223 206.47745,241.50233 206.55852,241.4487 C 206.61776,241.38197 210.19852,239.4476 213.76817,242.87008 L 216.70346,239.93479 L 211.65209,235.94478 L 201.0571,246.5934"
     id="path5278"
     style="fill:#ffe805;fill-rule:evenodd;stroke:none" />
  <path
     d="M 201.05773,246.59527 L 205.06207,251.56371 L 207.99611,248.64214 C 204.31233,244.90223 206.47683,241.50295 206.5579,241.44932 C 206.61714,241.3826 210.19915,239.44946 213.76755,242.8707 L 216.70284,239.93541 L 211.65209,235.94478 L 201.05648,246.59402 L 201.05773,246.59527 z"
     id="path5280"
     style="fill:none;stroke:#000000;stroke-width:0.49936473" />
  <path
     d="M 204.88747,251.77948 L 216.86997,239.79697 C 217.12191,239.54504 217.57776,239.58807 217.88272,239.89303 C 218.18581,240.19611 218.22947,240.65135 217.97691,240.90391 L 205.99441,252.88642 C 205.74184,253.13898 205.28722,253.09718 204.98289,252.79285 C 204.67794,252.4879 204.6349,252.03204 204.88747,251.77948"
     id="path5282"
     style="fill:#ffe805;fill-rule:evenodd;stroke:none" />
  <path
     d="M 204.88684,251.78011 L 216.86935,239.79759 C 217.12191,239.54504 217.57776,239.58807 217.88272,239.89303 L 217.88272,239.89303 C 218.18705,240.19736 218.22885,240.65198 217.97629,240.90453 L 205.99378,252.88705 C 205.74122,253.1396 205.2866,253.09781 204.98227,252.79347 L 204.98227,252.79347 C 204.67731,252.48852 204.63428,252.03266 204.88684,251.78011 z"
     id="path5284"
     style="fill:none;stroke:#000000;stroke-width:0.49943003" />
  <path
     d="M 209.22337,247.39992 C 206.89411,245.04447 207.81763,242.79511 207.82699,242.78825 C 207.82761,242.78763 210.16615,241.81609 212.49977,244.12352 L 209.22337,247.39992"
     id="path5286"
     style="fill:#ffe805;fill-rule:evenodd;stroke:none" />
  <path
     d="M 209.22337,247.39992 C 206.89411,245.04447 207.81763,242.79511 207.82699,242.78825 C 207.82761,242.78763 210.16677,241.81546 212.50039,244.1229 L 209.22337,247.39992"
     id="path5288"
     style="fill:none;stroke:#000000;stroke-width:0.49703202" />
  <path
     d="M 198.77277,245.16091 L 210.25951,233.67417 C 210.50146,233.43221 210.92366,233.45779 211.19805,233.73218 C 211.47057,234.00471 211.49802,234.42877 211.25607,234.67073 L 199.76933,246.15747 C 199.52737,246.39943 199.10456,246.37323 198.83078,246.09945 C 198.55639,245.82506 198.53081,245.40287 198.77277,245.16091"
     id="path5290"
     style="fill:#ffe805;fill-rule:evenodd;stroke:none" />
  <path
     d="M 198.77152,245.15966 L 210.25825,233.67292 C 210.50021,233.43096 210.92366,233.45779 211.1968,233.73094 L 211.1968,233.73094 C 211.47057,234.00471 211.49677,234.42752 211.25482,234.66948 L 199.76808,246.15622 C 199.52612,246.39817 199.10456,246.37323 198.82953,246.09821 L 198.82953,246.09821 C 198.55639,245.82506 198.52956,245.40161 198.77152,245.15966 z"
     id="path5292"
     style="fill:none;stroke:#000000;stroke-width:0.49901107" />
  <path
     d="M 200.01191,245.91489 L 210.99977,234.92703 C 211.23113,234.69567 211.64521,234.72936 211.91898,235.00313 C 212.19337,235.27752 212.22768,235.69098 211.9957,235.92296 L 201.00784,246.91082 C 200.77648,247.14218 200.36302,247.10787 200.08863,246.83348 C 199.81486,246.55971 199.78055,246.14625 200.01191,245.91489"
     id="path5294"
     style="fill:#ffe805;fill-rule:evenodd;stroke:none" />
  <path
     d="M 200.01191,245.91489 L 210.99915,234.92765 C 211.2305,234.69629 211.64396,234.7306 211.91773,235.00437 L 211.91773,235.00437 C 212.19213,235.27876 212.22644,235.69222 211.99508,235.92358 L 201.00784,246.91082 C 200.77648,247.14218 200.36302,247.10787 200.08863,246.83348 L 200.08863,246.83348 C 199.81486,246.55971 199.78055,246.14625 200.01191,245.91489 z"
     id="path5296"
     style="fill:none;stroke:#000000;stroke-width:0.49901107" />
  <use
     transform="matrix(0.7071068,-0.7071068,0.7071068,0.7071068,-41.435474,275.75609)"
     id="use5298"
     x="0"
     y="0"
     width="600"
     height="400"
     xlink:href="#use4656" />
  <path
     d="M 196.07852,234.88117 L 196.9472,234.01499 L 197.56334,234.63113 L 198.19629,233.99818 L 197.56643,233.36832 L 198.45756,232.48218 L 199.08493,233.10954 L 199.71975,232.47472 L 199.08989,231.84486 L 199.97915,230.9556 L 201.40039,232.37934 C 201.62365,232.60261 201.58874,232.92688 201.38046,233.13516 L 198.2612,236.25442 C 198.05167,236.46395 197.6906,236.48952 197.48542,236.28559 L 196.0779,234.88179 L 196.07852,234.88117 z"
     id="path5300"
     style="fill:none;stroke:#000000;stroke-width:0.50025284" />
  <path
     d="M 201.24889,233.51494 L 206.00779,237.88223 L 202.95402,240.91356 L 198.59421,236.15091 L 201.25075,233.51557"
     id="path5302"
     style="fill:#ffe805;fill-rule:evenodd;stroke:none" />
  <path
     d="M 201.24951,233.51681 L 206.00716,237.88285 L 202.95339,240.91419 L 198.59234,236.15029 L 201.24951,233.51681"
     id="path5304"
     style="fill:none;stroke:#000000;stroke-width:0.49897757" />
  <use
     transform="matrix(0.7071068,-0.7071068,0.7071068,0.7071068,-27.964952,266.75823)"
     id="use5306"
     x="0"
     y="0"
     width="600"
     height="400"
     xlink:href="#path1535" />
  <use
     transform="matrix(0.7071068,-0.7071068,0.7071068,0.7071068,-27.964641,266.75792)"
     id="use5308"
     x="0"
     y="0"
     width="600"
     height="400"
     xlink:href="#path1541" />
  <use
     transform="matrix(0.7071068,-0.7071068,0.7071068,0.7071068,-27.972125,266.75044)"
     id="use5310"
     x="0"
     y="0"
     width="600"
     height="400"
     xlink:href="#path1537" />
  <path
     d="M 194.58883,240.84353 L 195.4388,239.99606 L 196.05495,240.6122 L 196.67481,239.99234 L 196.04494,239.36247 L 196.91674,238.49566 L 197.54411,239.12304 L 198.16584,238.5013 L 197.53597,237.87144 L 198.40714,237.00277 L 199.82839,238.42651 C 200.05041,238.64852 200.01923,238.96906 199.81594,239.17236 L 196.76341,242.22489 C 196.55825,242.43005 196.20217,242.45311 195.99574,242.24669 L 194.58945,240.8429"
     id="path5312"
     style="fill:#ffde00;fill-rule:evenodd;stroke:none" />
  <path
     d="M 194.58883,240.84353 L 195.4388,239.9973 L 196.05557,240.61407 L 196.67605,239.99358 L 196.04494,239.36247 L 196.91674,238.49566 L 197.54536,239.12428 L 198.16709,238.50255 L 197.53597,237.87144 L 198.40714,237.00277 L 199.82839,238.42651 C 200.05041,238.64852 200.01923,238.96906 199.81594,239.17236 L 196.76341,242.22489 C 196.55887,242.42942 196.20217,242.45311 195.99636,242.24857 L 194.58821,240.84415 L 194.58883,240.84353 z"
     id="path5314"
     style="fill:none;stroke:#000000;stroke-width:0.50017256;stroke-opacity:1" />
  <path
     d="M 199.6457,239.3426 L 202.19759,241.70865 L 199.281,244.62773 L 196.9031,242.0852 L 199.6457,239.3426"
     id="path5316"
     style="fill:#ffde00;fill-rule:evenodd;stroke:none" />
  <path
     d="M 199.64632,239.34198 L 202.19821,241.70803 L 199.28225,244.62648 L 196.90434,242.08395 L 199.64695,239.34135 L 199.64632,239.34198 z"
     id="path5318"
     style="fill:none;stroke:#000000;stroke-width:0.50127673" />
  <path
     d="M 201.06686,236.57938 C 200.60475,236.15469 201.23833,235.51114 201.67923,235.96701 L 202.7656,237.05337 L 202.15322,237.66574 L 201.06686,236.57938"
     id="path5320"
     style="fill:#000000;fill-rule:evenodd;stroke:none" />
  <use
     transform="matrix(0.7071068,-0.7071068,0.7071068,0.7071068,-27.941879,266.73516)"
     id="use5322"
     x="0"
     y="0"
     width="600"
     height="400"
     xlink:href="#path1547" />
  <path
     d="M 198.87621,241.92934 C 198.44591,241.50277 199.03085,240.90038 199.46053,241.34502 L 200.29993,242.18443 L 199.71562,242.76874 L 198.87621,241.92934"
     id="path5324"
     style="fill:#000000;fill-rule:evenodd;stroke:none" />
  <use
     transform="translate(-20.819155,25.74354)"
     id="use6358"
     x="0"
     y="0"
     width="600"
     height="400"
     xlink:href="#use5944" />
  <use
     transform="translate(-28.931805,25.75368)"
     id="use6360"
     x="0"
     y="0"
     width="600"
     height="400"
     xlink:href="#use5944" />
  <use
     transform="translate(-24.97646,21.575025)"
     id="use6356"
     x="0"
     y="0"
     width="600"
     height="400"
     xlink:href="#use5944" />
  <use
     transform="translate(-20.810335,17.580695)"
     id="use6352"
     x="0"
     y="0"
     width="600"
     height="400"
     xlink:href="#use5944" />
  <path
     d="M 265.12607,202.45534 C 264.30767,202.45534 263.64006,203.1221 263.64006,203.94054 C 263.64006,204.75723 264.30767,205.42573 265.12607,205.42573 C 265.94448,205.42573 266.61209,204.75898 266.61209,203.94054 C 266.61209,203.1221 265.94448,202.45534 265.12607,202.45534"
     id="use5944"
     style="fill:#ffffff" />
  <use
     transform="translate(-8.112655,1.2345e-2)"
     id="use5946"
     x="0"
     y="0"
     width="600"
     height="400"
     xlink:href="#use5944" />
  <use
     transform="translate(3.95535,-4.17998)"
     id="use5948"
     x="0"
     y="0"
     width="600"
     height="400"
     xlink:href="#use5946" />
  <use
     transform="translate(4.166125,-3.99477)"
     id="use5950"
     x="0"
     y="0"
     width="600"
     height="400"
     xlink:href="#use5948" />
  <use
     transform="translate(-8.13911,-7.05e-3)"
     id="use5952"
     x="0"
     y="0"
     width="600"
     height="400"
     xlink:href="#use5950" />
  <use
     transform="translate(-12.616545,8.129765)"
     id="use5954"
     x="0"
     y="0"
     width="600"
     height="400"
     xlink:href="#use5952" />
  <use
     transform="translate(-8.112655,1.0585e-2)"
     id="use5956"
     x="0"
     y="0"
     width="600"
     height="400"
     xlink:href="#use5954" />
  <use
     transform="translate(3.955345,-4.18086)"
     id="use5958"
     x="0"
     y="0"
     width="600"
     height="400"
     xlink:href="#use5956" />
  <use
     transform="translate(4.16701,-3.993005)"
     id="use5960"
     x="0"
     y="0"
     width="600"
     height="400"
     xlink:href="#use5958" />
  <use
     transform="translate(-8.13911,-7.495e-3)"
     id="use5962"
     x="0"
     y="0"
     width="600"
     height="400"
     xlink:href="#use5960" />
  <use
     transform="translate(-12.66858,8.22281)"
     id="use5964"
     x="0"
     y="0"
     width="600"
     height="400"
     xlink:href="#use5962" />
  <use
     transform="translate(-8.112655,1.0145e-2)"
     id="use5966"
     x="0"
     y="0"
     width="600"
     height="400"
     xlink:href="#use5964" />
  <use
     transform="translate(3.95535,-4.179975)"
     id="use5968"
     x="0"
     y="0"
     width="600"
     height="400"
     xlink:href="#use5966" />
  <use
     transform="translate(4.167005,-3.99345)"
     id="use5970"
     x="0"
     y="0"
     width="600"
     height="400"
     xlink:href="#use5968" />
  <use
     transform="translate(-28.949445,17.57364)"
     id="use6354"
     x="0"
     y="0"
     width="600"
     height="400"
     xlink:href="#use5944" />
  <path
     d="M 215.45183,194.29735 C 214.63344,194.29735 213.96582,194.9641 213.96582,195.78255 C 213.96582,196.59923 214.63344,197.26774 215.45183,197.26774 C 216.27024,197.26774 216.93785,196.60099 216.93785,195.78255 C 216.93785,194.9641 216.27024,194.29735 215.45183,194.29735"
     id="use6320"
     style="fill:#ffde00" />
  <use
     transform="translate(-20.743315,-34.22609)"
     id="use6332"
     x="0"
     y="0"
     width="600"
     height="400"
     xlink:href="#use5944" />
  <use
     transform="translate(-24.91032,-30.224695)"
     id="use6334"
     x="0"
     y="0"
     width="600"
     height="400"
     xlink:href="#use5944" />
  <use
     transform="translate(-20.752135,-26.056185)"
     id="use6336"
     x="0"
     y="0"
     width="600"
     height="400"
     xlink:href="#use5944" />
  <use
     transform="translate(-28.86567,-26.04472)"
     id="use6338"
     x="0"
     y="0"
     width="600"
     height="400"
     xlink:href="#use5944" />
  <use
     transform="translate(-49.67424,-8.15799)"
     id="use6340"
     x="0"
     y="0"
     width="600"
     height="400"
     xlink:href="#use5944" />
</svg>
