<?xml version="1.0" encoding="UTF-8" standalone="no"?>
<!-- Created with Inkscape (http://www.inkscape.org/) -->

<svg
   xmlns:dc="http://purl.org/dc/elements/1.1/"
   xmlns:cc="http://creativecommons.org/ns#"
   xmlns:rdf="http://www.w3.org/1999/02/22-rdf-syntax-ns#"
   xmlns:svg="http://www.w3.org/2000/svg"
   xmlns="http://www.w3.org/2000/svg"
   xmlns:sodipodi="http://sodipodi.sourceforge.net/DTD/sodipodi-0.dtd"
   xmlns:inkscape="http://www.inkscape.org/namespaces/inkscape"
   width="900"
   height="600"
   id="svg4072"
   sodipodi:version="0.32"
   inkscape:version="0.47 r22583"
   version="1.0"
   sodipodi:docname="Flag_of_Sint_Maarten.svg">
  <defs
     id="defs4074">
    <inkscape:perspective
       sodipodi:type="inkscape:persp3d"
       inkscape:vp_x="0 : 250 : 1"
       inkscape:vp_y="0 : 1000 : 0"
       inkscape:vp_z="800 : 250 : 1"
       inkscape:persp3d-origin="400 : 166.66667 : 1"
       id="perspective93" />
  </defs>
  <sodipodi:namedview
     id="base"
     pagecolor="#ffffff"
     bordercolor="#666666"
     borderopacity="1.0"
     inkscape:pageopacity="0.0"
     inkscape:pageshadow="2"
     inkscape:zoom="0.26375077"
     inkscape:cx="400.0001"
     inkscape:cy="355.58738"
     inkscape:document-units="px"
     inkscape:current-layer="layer1"
     showgrid="true"
     inkscape:grid-bbox="true"
     inkscape:grid-points="true"
     gridtolerance="12.5px"
     inkscape:window-width="756"
     inkscape:window-height="540"
     inkscape:window-x="47"
     inkscape:window-y="66"
     inkscape:window-maximized="0">
    <inkscape:grid
       id="GridFromPre046Settings"
       type="xygrid"
       originx="0px"
       originy="0px"
       spacingx="25px"
       spacingy="25px"
       color="#0000ff"
       empcolor="#0000ff"
       opacity="0.2"
       empopacity="0.4"
       empspacing="5"
       visible="true"
       enabled="true"
       snapvisiblegridlinesonly="true" />
  </sodipodi:namedview>
  <metadata
     id="metadata4077">
    <rdf:RDF>
      <cc:Work
         rdf:about="">
        <dc:format>image/svg+xml</dc:format>
        <dc:type
           rdf:resource="http://purl.org/dc/dcmitype/StillImage" />
      </cc:Work>
    </rdf:RDF>
  </metadata>
  <g
     inkscape:label="Layer 1"
     inkscape:groupmode="layer"
     id="layer1"
     transform="translate(0,100)">
    <path
       style="fill:#000000;stroke:none"
       d="m -1374.5482,4220.5097 0,0 0,0 0,0"
       id="path14" />
    <path
       sodipodi:nodetypes="ccccc"
       style="fill:#ffffff;fill-opacity:1;stroke:none"
       d="m 900.01976,500.03162 0,-600.06324 -900.0395193,0 0,600.06324 900.0395193,0"
       id="path180" />
    <path
       style="fill:#ffff00;stroke:none"
       d="m 176.80945,127.17254 0.10272,-4.1503 c 0,0 -2.08881,-3.54978 0.33558,-7.36403 0,0 -5.15012,-2.90689 -3.95162,-7.45901 0,0 -4.65702,-1.27044 -4.3146,-6.73575 0,0 -5.02685,-0.37185 -5.54734,-4.93784 0,0 -5.02684,0.883245 -7.23894,-3.565864 0,0 -4.90357,1.022784 -6.28698,-2.644622 0,0 -4.76661,1.761377 -7.59506,-2.549645 0,0 -5.0337,2.169757 -7.14305,-1.899452 -2.08197,4.055323 -7.11567,1.899452 -7.11567,1.899452 -2.79422,4.295685 -7.59506,2.513113 -7.59506,2.513113 -1.33547,3.682024 -6.22535,2.637326 -6.22535,2.637326 -2.20523,4.449829 -7.22523,3.565119 -7.22523,3.565119 -0.4931,4.552113 -5.5131,4.923973 -5.5131,4.923973 0.39722,5.47919 -4.25296,6.72186 -4.25296,6.72186 1.225893,4.55139 -3.917381,7.45098 -3.917381,7.45098 2.48603,3.83616 0.417763,7.35746 0.417763,7.35746 l -0.116426,3.82739 83.196394,0.40984"
       id="path182" />
    <path
       style="fill:none;stroke:#000000;stroke-width:0.09109617"
       d="m 176.80945,127.17255 0.10272,-4.1503 c 0,0 -2.08881,-3.54979 0.33558,-7.36404 0,0 -5.15012,-2.90689 -3.95162,-7.459 0,0 -4.65702,-1.27044 -4.3146,-6.73576 0,0 -5.02685,-0.37185 -5.54734,-4.937836 0,0 -5.02684,0.883245 -7.23894,-3.565864 0,0 -4.90357,1.022784 -6.28698,-2.644622 0,0 -4.76661,1.761377 -7.59506,-2.549645 0,0 -5.0337,2.169757 -7.14305,-1.899452 -2.08197,4.055323 -7.11567,1.899452 -7.11567,1.899452 -2.79422,4.295685 -7.59506,2.513113 -7.59506,2.513113 -1.33547,3.682024 -6.22535,2.637326 -6.22535,2.637326 -2.20523,4.449829 -7.22523,3.56512 -7.22523,3.56512 -0.4931,4.552118 -5.5131,4.923978 -5.5131,4.923978 0.39722,5.47919 -4.25296,6.72186 -4.25296,6.72186 1.225893,4.55138 -3.917381,7.45097 -3.917381,7.45097 2.48603,3.83617 0.417763,7.35746 0.417763,7.35746 l -0.116426,3.8274 83.196394,0.40984 -0.0137,0 z"
       id="path184" />
    <path
       style="fill:#ff0000;stroke:none"
       d="m 174.86447,121.99215 c -13.06707,-1.39536 -28.11338,-4.7048 -39.72855,2.27278 -7.78682,-4.89549 -18.6281,-4.59595 -27.85997,-3.63819 -5.01315,0.95703 -10.909766,0.95703 -16.14892,1.87023 l -0.821828,0.12346 c -9.505811,0.67285 -18.128157,-2.32317 -26.387529,-6.26088 2.623001,15.88234 5.533642,32.15992 6.964992,48.78744 3.116099,24.62641 -10.923465,45.30195 -5.163819,69.62956 3.437981,11.67359 15.470913,18.46049 26.48341,19.80544 10.663214,0.67139 21.696254,2.53504 31.565044,4.82096 1.87651,0.41642 4.10229,1.34496 5.39667,1.94328 2.71888,1.21273 4.71182,2.99603 6.4582,4.90278 5.95825,-6.61959 14.69018,-8.46059 23.30568,-9.43224 15.52569,-1.93598 34.66744,-0.88324 44.17325,-15.88892 l 0,-0.84819 c 5.16382,-8.29913 4.47897,-20.95899 2.23948,-30.36201 -0.15067,-3.28021 -0.97249,-6.17322 -1.41765,-9.29929 -9.48526,-26.72457 -1.36286,-56.77976 2.71888,-83.71546 -4.98575,2.90764 -10.54679,4.28108 -16.09413,5.73563 -4.42417,0.62827 -9.35515,0.34335 -13.8341,0.0869 l -1.85596,-0.53331"
       id="path186" />
    <path
       style="fill:#80cfe1;stroke:none"
       d="m 194.38288,198.68694 c -0.0616,1.75992 0.82868,3.1414 1.15056,4.76982 1.81487,11.68164 3.5681,27.1556 -7.70465,34.40274 -12.47124,8.45914 -28.82561,4.8363 -43.25555,9.3139 -2.88324,0.85475 -6.85541,3.68274 -8.88259,5.68375 -1.30122,-0.9132 -2.6093,-2.31588 -4.2872,-3.14067 -11.87542,-6.73576 -27.31208,-4.47907 -40.714728,-8.11725 -6.732141,-2.2713 -13.751923,-7.86738 -15.457217,-15.21753 -4.383082,-19.28602 6.115771,-35.7236 4.87618,-54.85693 -0.801282,-14.61118 -3.1024,-28.6379 -6.266438,-42.33588 10.478307,5.20815 22.607121,6.07751 34.386653,3.57974 8.72508,-1.30113 18.88151,-1.32962 27.05869,2.60809 4.50636,-2.06822 9.77975,-2.99602 14.63539,-3.56585 9.23187,0.95776 19.15545,2.73958 28.66126,2.66726 6.34862,-0.35139 12.1151,-2.30929 17.63506,-4.91739 -3.27363,22.64002 -9.5606,46.35469 -1.84227,69.1262"
       id="path188" />
    <path
       style="fill:#ffffff;stroke:none"
       d="m 175.53563,203.20106 -0.10272,-21.28848 2.45863,0 -30.50352,-21.01817 -0.0548,-10.92186 2.94488,0 -15.25177,-11.65168 -15.17642,11.64511 2.93804,0 0.0548,10.91382 -30.339158,20.98967 2.424393,0.0139 0.102728,21.27461 80.498057,0.0585"
       id="path190" />
    <path
       style="fill:none;stroke:#000000;stroke-width:0.39099982;stroke-miterlimit:4;stroke-dasharray:none"
       d="m 175.53563,203.20107 -0.10272,-21.28848 2.45863,0 -30.50352,-21.01818 -0.0548,-10.92186 2.94488,0 -15.25177,-11.65168 -15.17642,11.64512 2.93804,0 0.0548,10.91382 -30.339158,20.98967 2.424393,0.0139 0.102728,21.27461 80.498067,0.0584 0.007,-0.0154 z"
       id="path192" />
    <path
       style="fill:#dc171d;fill-opacity:1;stroke:none"
       d="m 900.01976,200 0,-300.03162 -900.0395193,0 L 421.87377,200"
       id="path194"
       sodipodi:nodetypes="cccc" />
    <path
       sodipodi:nodetypes="cccc"
       style="fill:#00007b;fill-opacity:1;stroke:none"
       d="M 900.01976,500.03162 900.01976,200 421.87377,200 -0.0197593,500.03162"
       id="path196" />
    <path
       style="fill:#ffffff;stroke:none"
       d="m 184.9113,231.16758 0.007,6.66197 -98.270083,-0.1169 -0.04109,-6.63347 98.311173,0.0884"
       id="path198" />
    <path
       style="fill:none;stroke:#000000;stroke-width:0.39099982;stroke-miterlimit:4;stroke-dasharray:none"
       d="m 184.9113,231.16759 0.007,6.66196 -98.270083,-0.11689 -0.04109,-6.63347 98.311173,0.0884 -0.007,0 z"
       id="path200" />
    <path
       sodipodi:nodetypes="cccccccccccccc"
       style="fill:#ffffff;stroke:none"
       d="m 93.174752,230.76577 -0.08218,-22.54504 3.97877,-0.008 -0.218907,22.8081 0.239601,-22.62473 -5.732152,-0.17528 0,-4.83702 87.826026,0.10297 0.0411,4.79246 -5.41723,0 0.10272,22.82996 -0.19175,-22.82996 4.03381,0 0.089,22.57353"
       id="path202" />
    <path
       sodipodi:nodetypes="cccccccccccccc"
       style="fill:none;stroke:#000000;stroke-width:0.39099982;stroke-miterlimit:4;stroke-dasharray:none"
       d="m 93.174752,230.76578 -0.08218,-22.54504 3.97877,-0.008 -0.218907,22.80809 0.239601,-22.62472 -5.732152,-0.17528 0,-4.83703 87.826026,0.10297 0.0411,4.79247 -5.41723,0 0.10272,22.82996 -0.19175,-22.82996 4.03381,0 0.089,22.57353"
       id="path204" />
    <path
       style="fill:none;stroke:#000000;stroke-width:0.39099982;stroke-miterlimit:4;stroke-dasharray:none"
       d="m 112.05625,225.21353 -0.0616,-15.72162 -11.79323,0 0.0685,15.70629 11.78638,0.0154"
       id="path206" />
    <path
       style="fill:none;stroke:#000000;stroke-width:0.39099982;stroke-miterlimit:4;stroke-dasharray:none"
       d="m 103.41336,212.77139 0.0343,9.13198 5.39667,0 -0.0274,-9.13198 -5.40352,0"
       id="path208" />
    <path
       style="fill:none;stroke:#000000;stroke-width:0.39099982;stroke-miterlimit:4;stroke-dasharray:none"
       d="m 169.70749,225.25664 -0.0685,-15.70628 -11.75214,-0.0146 0.0548,15.7209 11.76583,0"
       id="path210" />
    <path
       style="fill:none;stroke:#000000;stroke-width:0.39099982;stroke-miterlimit:4;stroke-dasharray:none"
       d="m 161.0646,212.82984 0.0616,9.10275 5.38982,0 -0.0479,-9.10275 -5.40352,0"
       id="path212" />
    <path
       style="fill:none;stroke:#000000;stroke-width:0.39099982;stroke-miterlimit:4;stroke-dasharray:none"
       d="m 169.61846,199.65859 -0.0685,-15.72235 -11.76584,0 0.0411,15.72235 11.80008,0 -0.007,0 z"
       id="path214" />
    <path
       style="fill:none;stroke:#000000;stroke-width:0.39099982;stroke-miterlimit:4;stroke-dasharray:none"
       d="m 160.97556,187.24566 0.0342,9.11737 5.38981,0 -0.007,-9.11737 -5.41722,0"
       id="path216" />
    <path
       style="fill:none;stroke:#000000;stroke-width:0.39099982;stroke-miterlimit:4;stroke-dasharray:none"
       d="m 111.96037,199.60015 -0.0822,-15.69241 -11.77269,-0.0154 0.0548,15.6997 11.80008,0 0,0.008 z"
       id="path218" />
    <path
       style="fill:none;stroke:#000000;stroke-width:0.39099982;stroke-miterlimit:4;stroke-dasharray:none"
       d="m 103.31748,187.18723 0.0274,9.10348 5.40352,0.0139 -0.0411,-9.11738 -5.38982,0"
       id="path220" />
    <path
       style="fill:none;stroke:#000000;stroke-width:0.39099982;stroke-miterlimit:4;stroke-dasharray:none"
       d="m 133.30051,199.62864 -0.0548,-15.6924 -11.77954,-0.0139 0.0479,15.70628 11.78639,0"
       id="path222" />
    <path
       style="fill:none;stroke:#000000;stroke-width:0.39099982;stroke-miterlimit:4;stroke-dasharray:none"
       d="m 124.66446,187.20183 0.0273,9.10277 5.39667,0.0292 -0.0342,-9.13199 -5.38983,0"
       id="path224" />
    <path
       style="fill:none;stroke:#000000;stroke-width:0.39099982;stroke-miterlimit:4;stroke-dasharray:none"
       d="m 149.75077,199.65859 -0.0822,-15.72235 -11.77268,-0.0139 0.0548,15.70628 11.80008,0.03"
       id="path226" />
    <path
       style="fill:none;stroke:#000000;stroke-width:0.39099982;stroke-miterlimit:4;stroke-dasharray:none"
       d="m 141.10103,187.21717 0.0411,9.13199 5.39667,0 -0.0273,-9.13199 -5.41036,0"
       id="path228" />
    <path
       style="fill:#ffffff;stroke:none"
       d="m 152.66825,194.83617 0.13013,36.24301 -34.12642,-0.0584 -0.12327,-36.21306 34.11271,0.0284"
       id="path230" />
    <path
       style="fill:none;stroke:#000000;stroke-width:0.39099982;stroke-miterlimit:4;stroke-dasharray:none"
       d="m 152.66826,194.83617 0.13012,36.24302 -34.12642,-0.0585 -0.12327,-36.21306 34.11271,0.0284 0.007,0 z"
       id="path232" />
    <path
       style="fill:none;stroke:#000000;stroke-width:0.39099982;stroke-miterlimit:4;stroke-dasharray:none"
       d="m 118.34323,205.18088 34.35927,0.0292"
       id="path234" />
    <path
       style="fill:none;stroke:#000000;stroke-width:0.39099982;stroke-miterlimit:4;stroke-dasharray:none"
       d="M 122.63044,231.06458 122.51402,205.4512"
       id="path236" />
    <path
       style="fill:none;stroke:#000000;stroke-width:0.39099982;stroke-miterlimit:4;stroke-dasharray:none"
       d="m 148.64815,231.07919 -0.11643,-25.59805"
       id="path238" />
    <path
       style="fill:none;stroke:#000000;stroke-width:0.39099982;stroke-miterlimit:4;stroke-dasharray:none"
       d="m 165.1258,179.40019 -19.21708,-14.96987 -21.59353,-0.0292 -19.06641,14.94065 59.87702,0.0584"
       id="path240" />
    <path
       style="fill:none;stroke:#000000;stroke-width:0.39099982;stroke-miterlimit:4;stroke-opacity:1;stroke-dasharray:none"
       d="m 125.97939,152.00425 0.0342,9.13197 18.1624,0.0146 -0.0342,-9.13199 -18.16239,-0.0146"
       id="path242" />
    <path
       style="fill:none;stroke:#000000;stroke-width:0.39099982;stroke-miterlimit:4;stroke-dasharray:none"
       d="m 130.90351,154.26897 0.0274,4.55065 8.34156,0 -0.0273,-4.55065 -8.34156,0"
       id="path244" />
    <path
       style="fill:none;stroke:#000000;stroke-width:0.39099982;stroke-miterlimit:4;stroke-dasharray:none"
       d="m 135.02634,141.6157 10.10164,7.61899 -20.12794,-0.0284 10.0263,-7.5905"
       id="path246" />
    <path
       style="fill:#ffffff;stroke:none"
       d="m 175.87121,136.44991 c 2.86954,-0.0731 3.60919,12.60945 3.61604,18.89226 2.46548,0.73786 7.93063,4.406 10.34818,7.72199 l -27.723,-0.0438 c 2.3833,-3.27217 7.80737,-6.95493 10.2523,-7.69206 0,-6.29084 0.60268,-18.96531 3.50648,-18.89224"
       id="path248" />
    <path
       style="fill:none;stroke:#000000;stroke-width:0.39099982;stroke-miterlimit:4;stroke-dasharray:none"
       d="m 175.87121,136.44991 c 2.86954,-0.0731 3.60919,12.60945 3.61604,18.89226 2.46548,0.73786 7.93063,4.406 10.34818,7.722 l -27.723,-0.0438 c 2.3833,-3.27217 7.80737,-6.95492 10.2523,-7.69205 0,-6.29085 0.60268,-18.96531 3.50648,-18.89225"
       id="path250" />
    <path
       style="fill:none;stroke:#000000;stroke-width:0.39099982;stroke-miterlimit:4;stroke-dasharray:none"
       d="m 120.1444,195.85238 2.48604,0 -0.72595,1.42385 c 0,0 1.1985,1.6445 0.0206,3.5286 l 0.6506,1.30844 -2.397,0 0.65062,-1.24268 c 0,0 -1.2259,-2.18364 0.0548,-3.59436 l -0.73965,-1.42385"
       id="path252" />
    <path
       style="fill:none;stroke:#000000;stroke-width:0.39099982;stroke-miterlimit:4;stroke-dasharray:none"
       d="m 125.21235,195.85238 2.48603,0 -0.7191,1.42385 c 0,0 1.19849,1.60066 0.007,3.5286 l 0.64377,1.30844 -2.39016,0 0.64377,-1.24268 c 0,0 -1.1985,-2.18364 0.0617,-3.59436 l -0.7328,-1.42385"
       id="path254" />
    <path
       style="fill:none;stroke:#000000;stroke-width:0.39099982;stroke-miterlimit:4;stroke-dasharray:none"
       d="m 130.73914,195.85238 2.47918,0 -0.73964,1.42385 c 0,0 1.2122,1.6445 0.0206,3.5286 l 0.65062,1.33693 -2.37646,-0.0284 0.63692,-1.24268 c 0,0 -1.2122,-2.16976 0.0479,-3.59436 l -0.72595,-1.42385 0.007,0 z"
       id="path256" />
    <path
       style="fill:none;stroke:#000000;stroke-width:0.39099982;stroke-miterlimit:4;stroke-dasharray:none"
       d="m 136.97819,195.86625 2.49973,0 -0.7328,1.43921 c 0,0 1.1985,1.61527 0.007,3.50668 l 0.67116,1.32962 -2.4107,0 0.64376,-1.24195 c 0,0 -1.19849,-2.19898 0.0821,-3.59435 l -0.75334,-1.43921 -0.007,0 z"
       id="path258" />
    <path
       style="fill:none;stroke:#000000;stroke-width:0.39099982;stroke-miterlimit:4;stroke-dasharray:none"
       d="m 142.52553,195.86625 2.47918,0 -0.7328,1.43921 c 0,0 1.20534,1.61527 0.0137,3.49937 l 0.65745,1.33693 -2.39014,0 0.62322,-1.24195 c 0,0 -1.20536,-2.18437 0.0958,-3.59435 l -0.74649,-1.43921"
       id="path260" />
    <path
       style="fill:none;stroke:#000000;stroke-width:0.39099982;stroke-miterlimit:4;stroke-dasharray:none"
       d="m 148.03862,195.88087 2.47918,-0.0146 -0.73279,1.4392 c 0,0 1.22589,1.61528 0.0342,3.50669 l 0.62322,1.32962 -2.39699,0 0.64376,-1.24195 c 0,0 -1.19849,-2.18438 0.0821,-3.59436 l -0.7328,-1.42458"
       id="path262" />
    <path
       style="fill:#ffff00;stroke:none"
       d="m 135.77284,277.53542 c 12.77942,0.0438 28.49689,-2.7396 35.8591,-6.80077 l 16.16947,-1.5276 0.32188,21.04813 c -13.69714,8.05733 -45.32382,9.78876 -52.28196,9.73031 -6.965,0.0584 -38.982049,-1.70147 -52.740821,-9.78876 l 0.178063,-21.06274 16.203711,1.55609 c 7.362207,4.04073 23.559067,6.84534 36.324797,6.84534 l -0.0342,0"
       id="path264" />
    <path
       style="fill:none;stroke:#000000;stroke-width:0.09109617"
       d="m 135.77284,277.53543 c 12.77942,0.0438 28.49689,-2.73961 35.8591,-6.80077 l 16.16947,-1.52761 0.32188,21.04813 c -13.69714,8.05734 -45.32382,9.78876 -52.28196,9.73032 -6.965,0.0584 -38.982049,-1.70147 -52.740821,-9.78876 l 0.178063,-21.06274 16.203711,1.55608 c 7.362207,4.04073 23.559067,6.84535 36.324797,6.84535 l -0.0342,0"
       id="path266" />
    <path
       style="fill:#ffff00;stroke:none"
       d="m 41.474918,187.75705 14.24502,4.8363 -4.307749,24.60595 -13.484829,2.23478 c 0,0 -2.273724,-12.93819 3.547558,-31.69164"
       id="path268" />
    <path
       style="fill:none;stroke:#000000;stroke-width:0.09109617"
       d="m 41.474918,187.75706 14.24502,4.83629 -4.307749,24.60596 -13.484829,2.23478 c 0,0 -2.273724,-12.9382 3.547558,-31.69165 l 0,0.0146 z"
       id="path270" />
    <path
       style="fill:#7e7e7e;stroke:none"
       d="m 51.405341,216.92826 -13.477981,2.50582 8.526466,-12.93819 4.951515,10.43237"
       id="path272" />
    <path
       style="fill:none;stroke:#000000;stroke-width:0.09109617"
       d="m 51.405341,216.92827 -13.477981,2.50582 8.526466,-12.9382 4.951515,10.43238"
       id="path274" />
    <path
       style="fill:#ffff00;stroke:none"
       d="m 32.9553,205.48113 13.731378,1.05859 c 0.308186,12.41292 1.71899,59.78235 54.740602,62.35391 l -1.650509,17.23389 C 35.235873,286.84274 30.332299,228.02618 32.9553,205.48113"
       id="path276" />
    <path
       style="fill:none;stroke:#000000;stroke-width:0.09109617"
       d="m 32.9553,205.48114 13.731378,1.05858 c 0.308186,12.41292 1.71899,59.78236 54.740602,62.35392 l -1.650509,17.23389 C 35.235873,286.84274 30.332299,228.02619 32.9553,205.48114 z"
       id="path278" />
    <path
       style="fill:none;stroke:#000000;stroke-width:0.09109617"
       d="M 83.353906,289.6554 99.53707,285.88571"
       id="path280" />
    <path
       style="fill:#ffff00;stroke:none"
       d="m 228.94759,187.93238 -14.19022,4.79248 4.4995,24.56942 13.51222,2.31514 c 0,0 2.171,-12.93016 -3.8215,-31.69091"
       id="path282" />
    <path
       style="fill:none;stroke:#000000;stroke-width:0.09109617"
       d="m 228.94759,187.93239 -14.19022,4.79247 4.4995,24.56942 13.51222,2.31514 c 0,0 2.171,-12.93016 -3.8215,-31.69091 l 0,0.0139 z"
       id="path284" />
    <path
       style="fill:#7e7e7e;stroke:none"
       d="m 219.25687,217.03785 13.51222,2.58617 -8.64288,-12.94476 -4.86934,10.35859"
       id="path286" />
    <path
       style="fill:none;stroke:#000000;stroke-width:0.09109617"
       d="m 219.25687,217.03785 13.51222,2.58618 -8.64288,-12.94477 -4.86934,10.35859"
       id="path288" />
    <path
       style="fill:#ffff00;stroke:none"
       d="m 237.62473,205.67765 -13.75192,1.00161 c -0.19861,12.39685 -1.21219,59.7882 -54.2338,62.30131 l 1.80117,17.22 c 64.52719,0.79558 68.96507,-57.99248 66.18455,-80.52949"
       id="path290" />
    <path
       style="fill:none;stroke:#000000;stroke-width:0.09109617"
       d="m 237.62473,205.67766 -13.75192,1.0016 c -0.19861,12.39685 -1.21219,59.7882 -54.2338,62.30132 l 1.80117,17.22 c 64.52719,0.79557 68.96508,-57.99249 66.18455,-80.5295 l 0,0.006 z"
       id="path292" />
    <path
       style="fill:none;stroke:#000000;stroke-width:0.09109617"
       d="M 187.90414,289.75036 171.67988,285.9595"
       id="path294" />
    <path
       style="fill:#009fc5;stroke:none"
       d="m 127.19159,287.90935 c -0.36297,0.24839 -0.85607,0.31488 -1.4245,0.28492 l -2.56137,-0.13881 0.21915,-3.41097 2.54082,0.14537 c 0.49995,0.0365 0.89716,0.13954 1.14372,0.29954 0.51364,0.28491 0.73964,0.81165 0.6917,1.54148 -0.0342,0.62828 -0.23971,1.03812 -0.61637,1.27847 m -4.30091,5.37034 0.25341,-4.15761 2.98597,0.2199 c 0.96565,0.0804 1.68475,-0.18995 2.171,-0.71668 0.50679,-0.51139 0.76703,-1.18278 0.80128,-1.94255 0.0616,-0.88471 -0.15067,-1.60797 -0.64377,-2.14128 -0.47255,-0.51139 -1.14371,-0.78169 -1.98608,-0.86863 l -4.26666,-0.28492 -0.58897,9.78876 1.26698,0.0885"
       id="path296" />
    <path
       style="fill:#009fc5;stroke:none"
       d="m 132.1705,285.0894 3.12294,0.0365 c 0.452,0.0438 0.80814,0.10225 1.06837,0.23379 0.47941,0.24108 0.70541,0.72325 0.70541,1.42458 0,0.65824 -0.17806,1.09657 -0.52734,1.35958 -0.33558,0.24035 -0.82183,0.34993 -1.40396,0.34993 l -2.99967,-0.0365 0.0275,-3.36787 m -0.0479,8.67173 0.0273,-4.1788 2.93118,0.0445 c 0.5205,0 0.90401,0.0431 1.17111,0.18191 0.43146,0.21187 0.64377,0.65823 0.66431,1.27117 l 0.0754,1.64375 c 0.0206,0.39451 0.0273,0.63632 0.0479,0.79632 0.0411,0.1169 0.0617,0.24108 0.11643,0.32947 l 1.57517,0 -0.0273,-0.21259 c -0.17806,-0.10225 -0.32189,-0.29879 -0.38352,-0.59905 -0.0548,-0.18995 -0.0821,-0.47487 -0.0959,-0.83284 l -0.0273,-1.3077 c -0.0206,-0.59175 -0.11643,-1.00013 -0.32874,-1.22734 -0.1849,-0.263 -0.43831,-0.48947 -0.82868,-0.62828 0.43832,-0.24766 0.76705,-0.53258 1.00674,-0.88398 0.22601,-0.38719 0.34243,-0.87666 0.34243,-1.47499 0,-1.12507 -0.43146,-1.89289 -1.30807,-2.30857 -0.47256,-0.22647 -1.07522,-0.34409 -1.78748,-0.35798 l -4.40362,-0.0445 -0.0342,9.81871 1.26698,0"
       id="path298" />
    <path
       style="fill:#009fc5;stroke:none"
       d="m 141.88861,291.70825 c -0.56158,-0.72982 -0.86292,-1.64302 -0.9314,-2.72425 -0.0617,-1.35956 0.1849,-2.39623 0.76704,-3.09829 0.58897,-0.75979 1.34917,-1.12434 2.3422,-1.18277 0.99989,-0.0584 1.82173,0.28491 2.43125,0.95629 0.62322,0.65824 0.97934,1.57144 1.04098,2.7111 0.0342,1.09512 -0.14382,2.06675 -0.61637,2.9215 -0.4657,0.87011 -1.23959,1.35958 -2.3833,1.38807 -1.19165,0.0665 -2.08197,-0.23305 -2.6504,-0.97165 m -1.50668,-6.18052 c -0.58898,0.97164 -0.82868,2.09671 -0.76705,3.45627 0.089,1.4677 0.51365,2.68116 1.31494,3.59436 0.8903,0.91319 2.06825,1.37271 3.52015,1.28504 1.55463,-0.0731 2.72574,-0.70133 3.52017,-1.85489 0.64376,-1.04469 0.95195,-2.25815 0.88347,-3.75579 -0.089,-1.33693 -0.45201,-2.42546 -1.13003,-3.23638 -0.85606,-1.08853 -2.10935,-1.56997 -3.80779,-1.49692 -1.60257,0.10885 -2.78052,0.73714 -3.54071,2.00831"
       id="path300" />
    <path
       style="fill:#009fc5;stroke:none"
       d="m 183.63063,271.40603 c 0.88346,-0.16072 1.6505,-0.11618 2.34905,0.1388 1.02729,0.34337 1.719,1.15502 2.15046,2.39624 l -1.26699,0.18994 c -0.27395,-0.67138 -0.66431,-1.13164 -1.19165,-1.38806 -0.51364,-0.24036 -1.15741,-0.29952 -1.89706,-0.18191 -0.86291,0.13881 -1.55461,0.59833 -2.04086,1.33693 -0.47941,0.78827 -0.62322,1.841 -0.41092,3.1845 0.17807,1.11118 0.56159,2.05287 1.19165,2.68115 0.58213,0.6429 1.4382,0.86936 2.55451,0.70133 0.83553,-0.1461 1.50669,-0.50334 1.97925,-1.11775 0.49309,-0.58371 0.63691,-1.46842 0.47254,-2.60809 l -2.95173,0.4829 -0.15066,-1.08123 4.10913,-0.67284 0.80128,5.19427 -0.81497,0.13151 -0.50679,-1.19813 c -0.34243,0.54134 -0.68487,0.95776 -0.9862,1.19813 -0.5068,0.42444 -1.19165,0.69475 -2.04772,0.82625 -1.10947,0.18191 -2.12306,-0.03 -3.04077,-0.65824 -1.00673,-0.7963 -1.65735,-1.97981 -1.90389,-3.62283 -0.2671,-1.61454 -0.0275,-2.99602 0.67116,-4.08456 0.6643,-1.05127 1.62994,-1.66493 2.93118,-1.86292"
       id="path302" />
    <path
       style="fill:#009fc5;stroke:none"
       d="m 192.92413,270.64625 2.94489,-1.13968 c 0.40406,-0.15999 0.75334,-0.21185 1.05467,-0.17459 0.54104,0.0431 0.93826,0.38646 1.16426,1.07319 0.21231,0.58444 0.21231,1.09583 -0.0273,1.45454 -0.25339,0.37185 -0.65061,0.64288 -1.22589,0.86863 l -2.76682,1.05931 -1.14371,-3.1414 m 2.94488,8.11724 -1.43819,-3.93772 2.73942,-1.05273 c 0.51365,-0.17533 0.86977,-0.27031 1.13687,-0.24035 0.48624,0.065 0.85607,0.37988 1.10261,0.97822 l 0.62322,1.49837 c 0.13698,0.37186 0.24655,0.59832 0.33558,0.70134 0.0411,0.1315 0.13013,0.21186 0.19861,0.2988 l 1.48614,-0.58372 -0.0822,-0.21186 c -0.21916,0 -0.43145,-0.13151 -0.58897,-0.38793 -0.11643,-0.18191 -0.22601,-0.44491 -0.38352,-0.75175 l -0.48626,-1.22806 c -0.21915,-0.53331 -0.44515,-0.86133 -0.70539,-1.05932 -0.26025,-0.15341 -0.58899,-0.2557 -0.97935,-0.28419 0.30134,-0.37331 0.52048,-0.74589 0.60267,-1.18423 0.089,-0.4449 0.0479,-0.94168 -0.15067,-1.49691 -0.37666,-1.0447 -1.06838,-1.61454 -2.04087,-1.68759 -0.51364,-0.0438 -1.10262,0.0731 -1.78063,0.32802 l -4.13653,1.57143 3.3421,9.23353 1.2122,-0.47486"
       id="path304" />
    <path
       style="fill:#009fc5;stroke:none"
       d="m 206.64181,273.89797 -5.25285,-8.17568 5.76649,-3.92311 0.63692,0.98699 -4.72551,3.22103 1.61626,2.49852 4.36254,-2.9953 0.59583,0.95704 -4.36254,2.99602 1.78063,2.7542 4.80769,-3.28094 0.63692,0.96507 -5.86923,3.99616"
       id="path306" />
    <path
       style="fill:#009fc5;stroke:none"
       d="m 211.2372,259.44678 1.50669,-1.76794 c 0.69855,-0.78902 1.4382,-1.14699 2.24633,-1.0447 0.80812,0.0731 1.62996,0.52599 2.50658,1.34422 0.23969,0.19726 0.452,0.45294 0.67116,0.73786 0.38351,0.53332 0.60951,1.00161 0.75333,1.46843 0.12328,0.58517 0.0959,1.11848 -0.0959,1.62987 -0.11642,0.25497 -0.32187,0.55449 -0.63006,0.9132 l -1.51354,1.75335 -5.44461,-5.04817 m 7.95804,3.84931 c 1.06838,-1.25582 1.30122,-2.60736 0.67801,-4.13423 -0.36297,-0.82626 -0.91771,-1.62988 -1.68475,-2.33121 -0.96565,-0.9132 -1.97239,-1.38076 -3.03392,-1.46769 -1.17795,-0.0956 -2.17784,0.35797 -3.04761,1.37271 l -2.56821,2.93686 7.08142,6.59036 2.56821,-2.95145"
       id="path308" />
    <path
       style="fill:#009fc5;stroke:none"
       d="m 224.68093,255.66249 -8.14979,-5.10661 0.66431,-1.12433 8.1635,5.07739 -0.67116,1.16816"
       id="path310" />
    <path
       style="fill:#009fc5;stroke:none"
       d="m 227.87922,249.73108 -8.80041,-3.75581 2.59561,-6.60424 1.06837,0.43833 -2.11621,5.44267 2.65041,1.11117 1.97923,-5.01236 1.01359,0.44637 -1.95869,5.00433 2.96543,1.28506 2.17099,-5.50768 1.06837,0.43029 -2.64354,6.72187"
       id="path312" />
    <path
       style="fill:#009fc5;stroke:none"
       d="m 231.91987,238.20287 -9.25925,-2.18437 0.30818,-1.52688 8.55386,-3.08295 -7.51289,-1.76796 0.27395,-1.19811 9.25926,2.1252 -0.29448,1.48303 -8.56757,3.14944 7.51289,1.73143 -0.2671,1.27117"
       id="path314" />
    <path
       style="fill:#009fc5;stroke:none"
       d="m 231.18708,225.65844 0.11642,-1.24195 c 0.53419,0.0154 0.9862,-0.0731 1.32863,-0.26957 0.67116,-0.38793 1.06152,-1.12506 1.16425,-2.21433 0.0411,-0.51066 0.0206,-0.95703 -0.089,-1.38076 -0.19861,-0.81749 -0.63008,-1.27116 -1.32178,-1.34423 -0.51364,-0.0584 -0.88347,0.0731 -1.15055,0.37333 -0.23971,0.34335 -0.4931,0.8394 -0.68487,1.54148 l -0.4246,1.29308 c -0.27395,0.84672 -0.52735,1.43117 -0.80128,1.75992 -0.43831,0.61439 -1.05469,0.82626 -1.84227,0.76781 -0.84237,-0.0949 -1.52723,-0.45295 -2.01348,-1.13967 -0.49995,-0.62828 -0.70541,-1.52686 -0.58214,-2.63805 0.0821,-1.01474 0.39723,-1.86949 0.95881,-2.55622 0.52049,-0.62828 1.32862,-0.92854 2.36276,-0.81166 l -0.0959,1.24195 c -0.5068,0 -0.91086,0.0949 -1.20535,0.31415 -0.53419,0.31413 -0.82868,0.97894 -0.91771,1.95059 -0.0754,0.80435 0.0273,1.34423 0.31504,1.75407 0.28763,0.34337 0.65061,0.5618 1.07522,0.59833 0.452,0.0438 0.80814,-0.10957 1.05468,-0.48144 0.17806,-0.25643 0.39037,-0.81164 0.67801,-1.71024 l 0.41776,-1.35883 c 0.20546,-0.62829 0.452,-1.11045 0.73965,-1.45382 0.51364,-0.56983 1.1848,-0.81092 2.02718,-0.74444 1.02728,0.11617 1.76007,0.56984 2.13675,1.40267 0.36981,0.84015 0.51364,1.76796 0.4246,2.81996 -0.11642,1.19008 -0.47939,2.12593 -1.15055,2.75421 -0.67116,0.64216 -1.50669,0.86133 -2.52027,0.77366"
       id="path316" />
    <path
       style="fill:#009fc5;stroke:none"
       d="m 39.242285,225.06012 0.212305,1.2266 c -0.513642,0.10957 -0.924556,0.32948 -1.225893,0.6144 -0.541036,0.53988 -0.725948,1.35154 -0.541036,2.45468 0.08219,0.46683 0.239699,0.92708 0.438308,1.29309 0.410914,0.74517 0.945102,1.04397 1.62311,0.92707 0.499946,-0.0949 0.828677,-0.29879 0.986194,-0.67868 0.150668,-0.37332 0.260246,-0.94315 0.294489,-1.67299 l 0.06164,-1.38148 c 0.04109,-0.85475 0.130122,-1.52614 0.308185,-1.89945 0.280792,-0.67212 0.808131,-1.08854 1.595716,-1.22661 0.842374,-0.16145 1.58202,0.0431 2.218936,0.55449 0.643766,0.47487 1.068376,1.3004 1.225893,2.39624 0.19861,1.0016 0.10958,1.90018 -0.260245,2.71037 -0.356125,0.78973 -1.040982,1.27118 -2.088813,1.47573 l -0.205456,-1.24122 c 0.486247,-0.18995 0.849222,-0.37331 1.088921,-0.62828 0.410915,-0.4902 0.534188,-1.19812 0.376671,-2.16976 -0.123273,-0.78974 -0.376671,-1.30113 -0.760191,-1.55609 -0.376671,-0.30026 -0.753342,-0.41715 -1.164256,-0.34336 -0.458854,0.0731 -0.76019,0.34336 -0.904011,0.78169 -0.08904,0.2915 -0.157517,0.89786 -0.219154,1.8264 l -0.06164,1.43117 c -0.03425,0.67211 -0.130123,1.22806 -0.342427,1.60796 -0.33558,0.7006 -0.904011,1.13164 -1.732688,1.27044 -1.047832,0.18995 -1.855962,-0.0658 -2.431242,-0.7817 -0.588977,-0.70134 -0.95195,-1.54148 -1.136862,-2.58618 -0.205457,-1.24195 -0.05479,-2.20629 0.410914,-2.97995 0.472551,-0.7963 1.219045,-1.25655 2.232633,-1.40998"
       id="path318" />
    <path
       style="fill:#009fc5;stroke:none"
       d="m 38.660157,238.01291 9.053806,-2.90761 2.109358,6.80076 -1.102619,0.3726 -1.725838,-5.58878 -2.753125,0.8847 1.595717,5.16432 -1.05468,0.35798 -1.582019,-5.17893 -3.068158,0.97821 1.753233,5.71297 -1.082074,0.32949 -2.143601,-6.92571"
       id="path320" />
    <path
       style="fill:#009fc5;stroke:none"
       d="m 42.673417,249.80341 8.327858,-4.71138 0.890313,1.65764 -5.725401,6.45814 8.3621,-1.52687 0.862919,1.6445 -8.307312,4.68288 -0.588976,-1.08927 4.903573,-2.75348 c 0.178063,-0.11029 0.452006,-0.27103 0.849224,-0.49678 0.390367,-0.18994 0.828676,-0.44637 1.266984,-0.68745 l -8.327857,1.51225 -0.609523,-1.15428 5.684311,-6.43622 -0.273943,0.14684 c -0.178062,0.10885 -0.486248,0.27031 -0.904011,0.52527 -0.410914,0.27103 -0.7191,0.43833 -0.917708,0.526 l -4.889876,2.79805 -0.602675,-1.10972"
       id="path322" />
    <path
       style="fill:#009fc5;stroke:none"
       d="m 58.192271,262.88772 c -0.417763,-0.10153 -0.828678,-0.35797 -1.232742,-0.80362 l -1.760082,-1.93598 2.369604,-2.31587 1.773779,1.9294 c 0.342428,0.35798 0.561583,0.70791 0.678009,1.00817 0.164365,0.57641 0,1.10315 -0.499947,1.59919 -0.452005,0.44565 -0.90401,0.62829 -1.328621,0.51871 m -6.69105,0.89858 2.903792,-2.84187 2.061419,2.2282 c 0.664311,0.72326 1.342319,1.05201 2.054569,1.03812 0.725949,-0.0445 1.349169,-0.32948 1.897054,-0.8847 0.616371,-0.58445 0.910859,-1.27117 0.910859,-2.00831 -0.0069,-0.71667 -0.315034,-1.38806 -0.883465,-2.01633 l -2.958581,-3.2225 -6.889658,6.75036 0.890313,0.95703"
       id="path324" />
    <path
       style="fill:#009fc5;stroke:none"
       d="m 59.808533,271.67634 4.992604,-8.35029 5.903465,3.82813 -0.61637,0.99428 -4.848785,-3.09756 -1.499838,2.52773 4.458418,2.88498 -0.575279,0.95777 -4.465266,-2.8711 -1.698444,2.82652 4.910422,3.14945 -0.588977,0.98625 -5.97195,-3.83616"
       id="path326" />
    <path
       style="fill:#009fc5;stroke:none"
       d="m 74.587741,270.0618 2.999672,1.01621 c 0.424611,0.13807 0.732796,0.31341 0.938254,0.5114 0.383519,0.38719 0.486248,0.94167 0.260245,1.61379 -0.184911,0.58445 -0.465703,0.96434 -0.904011,1.12579 -0.390368,0.0724 -0.883465,0.0724 -1.458744,-0.11761 l -2.828459,-0.9636 0.993043,-3.18597 m -2.588759,8.20417 1.246439,-3.98153 2.794215,0.97164 c 0.499946,0.13953 0.86292,0.32947 1.040982,0.52599 0.34243,0.32877 0.445158,0.81824 0.273943,1.42533 l -0.417762,1.58458 c -0.09588,0.3872 -0.14382,0.64289 -0.184911,0.75979 0,0.12492 0,0.25642 0.02054,0.34335 l 1.472443,0.5114 0.08903,-0.22648 c -0.157517,-0.13149 -0.246548,-0.37185 -0.2397,-0.67138 0.03425,-0.18337 0.08218,-0.47487 0.178063,-0.81165 l 0.356125,-1.27117 c 0.14382,-0.55523 0.198609,-0.97165 0.06848,-1.27044 -0.10958,-0.31488 -0.294488,-0.59979 -0.602674,-0.86938 0.465703,-0.0883 0.869767,-0.24181 1.212195,-0.51211 0.321884,-0.29953 0.595827,-0.71595 0.760192,-1.29967 0.335579,-1.06003 0.150669,-1.94401 -0.588977,-2.61613 -0.369823,-0.34993 -0.897162,-0.65019 -1.588868,-0.92781 l -4.191323,-1.38002 -2.931186,9.31389 1.225893,0.4018"
       id="path328" />
    <path
       style="fill:#bc715f;stroke:none"
       d="m 84.716771,108.75516 c 1.082074,-2.78416 11.108377,-10.37467 44.008889,-7.05062 0,0 5.56104,3.62357 8.8278,3.15674 1.86282,-0.25643 -1.09576,0.12347 -3.527,-2.03168 -2.47919,-2.15442 -3.00653,-6.574306 2.65724,-6.457414 5.63637,0.153424 26.73681,1.424586 27.13402,3.447507 0.36983,2.045567 -11.15632,2.900317 -15.44352,2.783427 -4.30775,-0.12347 -3.8078,2.19971 0.47941,2.02438 13.39579,-0.51139 28.01748,-5.545668 43.461,6.10748 1.84226,1.41654 -4.65703,1.64302 -9.68387,-0.63632 0,0 -13.62181,0.7532 -19.51158,-0.27688 0,0 -4.52689,3.92967 -10.42351,3.5432 0.76704,2.03753 -2.17785,9.64338 -20.71692,3.92237 -3.0613,1.00161 -14.21762,2.99529 -12.99857,-0.53988 -2.93805,0 -8.08817,1.00817 -8.8552,-0.77512 -0.73965,-1.75261 9.0675,-4.40527 10.78649,-6.304 0,0 -20.74431,0.21187 -24.675388,-1.31573 0,0 -12.23839,2.92954 -11.519291,0.38793"
       id="path330" />
    <path
       style="fill:#008737;stroke:none"
       d="m 91.36673,139.74473 c 0.445157,-0.64216 0.62322,-1.79717 1.568322,-1.76722 2.05457,0.58372 3.451677,4.59448 5.978799,1.9937 0.897162,-0.21187 1.239589,1.08926 1.979239,1.24267 0.47255,2.2282 2.15045,-0.45294 3.40373,-0.30026 2.67779,-1.27117 5.9925,-1.5707 9.16338,-0.94241 0.0959,2.18436 -1.50668,4.59521 -3.52016,5.83716 0.0411,2.19971 1.91075,3.60968 1.87651,5.82255 -0.32188,0.82626 -0.0548,2.12593 -1.22589,2.39623 -1.48614,-0.28491 -2.95173,-0.45294 -4.18448,-1.33692 -0.15066,-0.16072 -0.27394,-0.47486 -0.58897,-0.37259 -0.15067,0.73788 0.9314,1.46916 1.35601,2.22091 -0.74649,1.35883 -1.98608,0.11689 -3.02706,0.1315 -0.30819,0.7817 -0.0137,1.76795 -0.76704,2.27203 -1.31493,-0.0438 -1.58202,-1.56997 -2.39015,-2.33048 -0.82868,0.95703 0.58213,1.52687 0.78073,2.28665 -0.50679,2.87841 -0.4383,5.69105 -3.13664,7.57589 l -1.808021,0.95776 c -0.493097,-1.4465 -0.184912,-3.63891 -0.513643,-5.15117 -1.068377,1.85563 -1.903902,3.4782 -3.472224,5.04817 -1.835416,-0.6429 -2.903792,-2.95146 -3.307858,-4.86552 -0.76704,-2.2282 -0.328732,-4.89475 1.321773,-6.50928 -0.561582,-1.1689 -2.486029,-0.89858 -2.759972,-2.56353 -2.883247,-2.00246 -4.478963,3.50668 -6.341773,0.64216 -0.602674,-2.67311 0.116426,-5.99789 1.931296,-7.99231 -0.404066,-1.09512 -1.746385,-0.8102 -2.540818,-1.43847 -1.81487,-1.64449 -4.431023,-3.38249 -4.300901,-6.34928 4.965211,-2.00101 10.902919,-0.53258 14.512114,3.49206"
       id="path332" />
    <path
       style="fill:#ffff00;stroke:none"
       d="m 93.941791,139.44593 c -0.116426,2.42473 1.534079,0.65678 2.759973,2.12519 -0.958799,-0.4018 -1.657354,1.76796 -2.595606,0.52601 l -0.588977,0.59978 c 0.342428,0.83211 1.006739,0.94169 0.315034,1.85489 -1.027286,0.41642 -1.232743,-0.95629 -1.712142,-1.49763 -0.08219,-0.24037 0.157517,-0.69404 -0.219155,-0.85476 -0.582128,0.52601 -1.19165,0.71595 -1.992933,0.62901 -0.219154,-0.46829 -0.643766,-1.08123 -0.212306,-1.4392 0.787585,-1.1331 2.00663,0.40838 2.602457,-0.3872 0.09588,-0.70134 -0.479401,-1.55609 0.267093,-2.03899 0.513643,0.0949 1.171106,-0.20383 1.383412,0.4829"
       id="path334" />
    <path
       style="fill:#ffff00;stroke:none"
       d="m 100.08496,141.43232 c 0.0616,0.46828 -0.226006,1.12507 0.34927,1.45455 0.7465,-0.43177 1.54093,-0.10297 1.97239,0.68672 -0.007,0.42299 0.11643,0.97821 -0.40406,1.18278 l -1.16426,-0.23306 c 0.0822,-0.24181 -0.28764,-0.39449 -0.43146,-0.62828 -0.513643,-0.16802 -0.814981,0.27689 -1.1985,0.54719 0.287639,0.46756 0.95195,0.72326 0.79443,1.32304 -0.684854,0.72984 -1.020433,-0.62827 -1.773776,-0.28564 -0.513642,-0.21114 0.184911,-1.3508 -0.62322,-1.69417 -0.958798,0 -0.321882,1.67955 -1.547775,1.02278 -0.438309,-0.52673 -0.869769,-1.23464 -0.397217,-1.8264 0.513643,-0.366 1.383411,-0.27103 1.821719,0.20383 0.746493,-0.88324 0.821828,-4.29495 2.609309,-1.75334"
       id="path336" />
    <path
       style="fill:#ffff00;stroke:none"
       d="m 92.435107,144.95362 c 0.499945,0.76782 -0.10958,1.81178 0.527339,2.66654 0.999891,-1.9937 1.965539,0.43102 3.15719,0.24108 0.362974,0.47486 0.123274,1.1331 0.19176,1.67297 -1.472442,0.41642 -3.246221,0.9132 -4.54745,-0.34335 l -0.362973,0.44564 c 0.773888,0.76782 1.506685,1.63644 0.890313,2.92224 -1.102619,0.25568 -2.807911,0.28491 -3.362646,-0.92782 -0.287639,-1.00014 0.67116,-1.72338 -0.342428,-2.52773 -0.732797,0.97164 -0.698553,2.27276 -2.225784,1.38806 -0.945103,-0.55522 -1.225894,-1.70148 -0.753343,-2.66655 0.986194,-1.65835 2.712032,0.0519 3.780409,-0.75977 0.150668,-1.42459 -0.342429,-2.66654 0.883466,-3.45482 1.04783,-0.19797 1.534079,0.64217 2.170995,1.34351"
       id="path338" />
    <path
       style="fill:#ffffff;stroke:none"
       d="m 96.612733,145.82298 c -0.493097,2.42545 -2.205239,-0.12419 -3.006522,-0.22648 1.068377,-2.02291 1.739536,0.65824 3.006522,0.22648"
       id="path340" />
    <path
       style="fill:#ffffff;stroke:none"
       d="m 101.94777,148.46102 c -1.19165,0.35725 -1.00674,-1.22806 -1.59572,-1.84904 l 0.45885,-0.44563 c 0.43146,0.55521 0.7602,1.55681 1.13687,2.29467"
       id="path342" />
    <path
       style="fill:#ffff00;stroke:none"
       d="m 100.3315,147.97813 c 0.34243,0.84014 -0.773883,1.51299 0.17807,2.12593 0.30133,-0.26959 0.67116,-0.6429 0.82867,-0.79631 0.81498,0.25642 1.76009,0.40984 2.32852,1.27116 0.60952,1.78331 -1.08208,1.73873 -2.04088,2.23551 l -0.95195,-0.0438 c 0.22601,-0.49678 -0.41091,-0.70864 -0.56843,-1.05128 -0.438307,-0.11689 -0.80128,0.0285 -1.047829,0.423 0.212306,1.13309 1.506689,2.01634 0.171214,3.02451 -1.130014,-0.0796 -2.883247,0.3872 -2.780517,-1.27848 -0.424612,-0.94241 1.150558,-2.39623 -0.53419,-2.45395 -0.554733,1.27118 -1.164256,2.49779 -2.609303,1.29309 l 0.178063,-1.81178 c 1.38341,0.0431 3.020217,0.29879 3.643437,-1.35154 0.397217,-1.19811 -0.691705,-2.30125 0.280791,-3.25098 1.410805,-0.34336 2.205239,0.66481 2.924334,1.66494"
       id="path344" />
    <path
       style="fill:#000000;stroke:none"
       d="m 99.317916,150.70311 c 0.356126,0.89932 -0.602673,0.95776 -1.054678,1.40267 -0.609523,0.0519 -1.034135,-0.20456 -1.403957,-0.64289 -0.273943,-1.08853 0.486248,-1.19811 1.068377,-1.62842 0.678007,-0.30026 0.958798,0.53989 1.390258,0.86864"
       id="path346" />
    <path
       style="fill:#ffffff;stroke:none"
       d="m 98.48924,151.28756 c -0.150668,0.21186 -0.362974,0.14684 -0.588977,0.20455 l -0.212305,-1.08779 c 0.452005,0.0431 1.040981,0.19652 0.801282,0.88324"
       id="path348" />
  </g>
</svg>
