<?xml version="1.0" encoding="UTF-8" standalone="no"?>
<svg
   xmlns:dc="http://purl.org/dc/elements/1.1/"
   xmlns:cc="http://creativecommons.org/ns#"
   xmlns:rdf="http://www.w3.org/1999/02/22-rdf-syntax-ns#"
   xmlns:svg="http://www.w3.org/2000/svg"
   xmlns="http://www.w3.org/2000/svg"
   xmlns:sodipodi="http://sodipodi.sourceforge.net/DTD/sodipodi-0.dtd"
   xmlns:inkscape="http://www.inkscape.org/namespaces/inkscape"
   width="900"
   height="600"
   viewBox="0 0 240 160"
   preserveAspectRatio="xMidYMid meet"
   zoomAndPan="magnify"
   id="svg3611"
   version="1.1"
   inkscape:version="0.47 r22583"
   sodipodi:docname="Flag_of_Mongolia.svg">
  <metadata
     id="metadata3630">
    <rdf:RDF>
      <cc:Work
         rdf:about="">
        <dc:format>image/svg+xml</dc:format>
        <dc:type
           rdf:resource="http://purl.org/dc/dcmitype/StillImage" />
      </cc:Work>
    </rdf:RDF>
  </metadata>
  <defs
     id="defs3628">
    <inkscape:perspective
       sodipodi:type="inkscape:persp3d"
       inkscape:vp_x="0 : 225 : 1"
       inkscape:vp_y="0 : 1000 : 0"
       inkscape:vp_z="900 : 225 : 1"
       inkscape:persp3d-origin="450 : 150 : 1"
       id="perspective3632" />
  </defs>
  <sodipodi:namedview
     pagecolor="#ffffff"
     bordercolor="#666666"
     borderopacity="1"
     objecttolerance="10"
     gridtolerance="10"
     guidetolerance="10"
     inkscape:pageopacity="0"
     inkscape:pageshadow="2"
     inkscape:window-width="733"
     inkscape:window-height="761"
     id="namedview3626"
     showgrid="false"
     inkscape:zoom="0.55777778"
     inkscape:cx="450"
     inkscape:cy="225"
     inkscape:window-x="0"
     inkscape:window-y="0"
     inkscape:window-maximized="0"
     inkscape:current-layer="svg3611" />
  <rect
     id="red"
     width="240"
     height="160.33614"
     x="0"
     y="-0.16806723"
     style="fill:#dc171c" />
  <rect
     id="blue"
     x="80"
     width="80"
     height="160.33614"
     y="-0.16806723"
     style="fill:#47aecf" />
  <g
     id="g3615"
     style="fill:#fbea0f"
     transform="matrix(1,0,0,1.3361345,0,-0.16806723)">
    <circle
       id="crescent"
       cx="40"
       cy="41"
       r="11"
       sodipodi:cx="40"
       sodipodi:cy="41"
       sodipodi:rx="11"
       sodipodi:ry="11"
       d="m 51,41 c 0,6.075132 -4.924868,11 -11,11 -6.075132,0 -11,-4.924868 -11,-11 0,-6.075132 4.924868,-11 11,-11 6.075132,0 11,4.924868 11,11 z" />
    <circle
       id="crescent_overlay"
       cx="40"
       cy="36"
       r="12"
       sodipodi:cx="40"
       sodipodi:cy="36"
       sodipodi:rx="12"
       sodipodi:ry="12"
       style="fill:#dc171c"
       d="m 52,36 c 0,6.627417 -5.372583,12 -12,12 -6.627417,0 -12,-5.372583 -12,-12 0,-6.627417 5.372583,-12 12,-12 6.627417,0 12,5.372583 12,12 z" />
    <path
       id="flame"
       d="m 35,23 a 5,5 0 0 0 10,0 c 0,-2 -1.25,-2.25 -1.25,-3 0,-0.75 0.75,-1.75 -0.75,-3 0.75,1.25 -0.5,1.5 -0.5,2.75 C 42.5,21 43,21 43,22 a 1,1 0 0 1 -2,0 c 0,-1 1,-2 1,-3.5 0,-1.5 -0.25,-2 -1,-3.25 C 40.25,14 39,13 40,12 c -1.5,0.5 -0.75,2.5 -0.75,3.75 0,1.25 -1,2 -1,3.5 0,1.5 0.75,1.75 0.75,2.75 a 1,1 0 0 1 -2,0 c 0,-1 0.5,-1 0.5,-2.25 0,-1.25 -1.25,-1.5 -0.5,-2.75 -1.5,1.25 -0.75,2.25 -0.75,3 0,0.75 -1.25,1 -1.25,3" />
    <circle
       id="moon"
       cx="40"
       cy="38"
       r="8"
       sodipodi:cx="40"
       sodipodi:cy="38"
       sodipodi:rx="8"
       sodipodi:ry="8"
       d="m 48,38 c 0,4.418278 -3.581722,8 -8,8 -4.418278,0 -8,-3.581722 -8,-8 0,-4.418278 3.581722,-8 8,-8 4.418278,0 8,3.581722 8,8 z" />
    <circle
       id="yinyang"
       cx="40"
       cy="78"
       r="10"
       sodipodi:cx="40"
       sodipodi:cy="78"
       sodipodi:rx="10"
       sodipodi:ry="10"
       d="m 50,78 c 0,5.522847 -4.477153,10 -10,10 -5.522847,0 -10,-4.477153 -10,-10 0,-5.522847 4.477153,-10 10,-10 5.522847,0 10,4.477153 10,10 z" />
    <path
       id="cornered_stuff"
       d="m 18,54 h 10 v 48 H 18 z m 34,0 h 10 v 48 H 52 z m -22,0 10,6 10,-6 z m 0,8 v 4 h 20 v -4 z m 0,28 v 4 h 20 v -4 z m 0,6 10,6 10,-6 z" />
  </g>
  <circle
     id="yinyang_top"
     cx="40"
     cy="72.699997"
     r="2"
     sodipodi:cx="40"
     sodipodi:cy="72.699997"
     sodipodi:rx="2"
     sodipodi:ry="2"
     style="fill:#dc171c"
     transform="matrix(1,0,0,1.3361345,0,-0.16806723)" />
  <circle
     id="yinyang_bottom"
     cx="40"
     cy="83.300003"
     r="2"
     sodipodi:cx="40"
     sodipodi:cy="83.300003"
     sodipodi:rx="2"
     sodipodi:ry="2"
     style="fill:#dc171c"
     transform="matrix(1,0,0,1.3361345,0,-0.16806723)" />
  <path
     id="yinyang_center"
     d="m 40,90.021014 a 5.2500014,7.014708 0 0 1 0,14.029416 5.25,7.0147061 0 1 0 0,14.02941"
     style="fill:none;stroke:#dc171c;stroke-width:1" />
</svg>
