<?xml version="1.0" encoding="UTF-8" standalone="no"?>
<svg
   xmlns:dc="http://purl.org/dc/elements/1.1/"
   xmlns:cc="http://creativecommons.org/ns#"
   xmlns:rdf="http://www.w3.org/1999/02/22-rdf-syntax-ns#"
   xmlns:svg="http://www.w3.org/2000/svg"
   xmlns="http://www.w3.org/2000/svg"
   xmlns:xlink="http://www.w3.org/1999/xlink"
   xmlns:sodipodi="http://sodipodi.sourceforge.net/DTD/sodipodi-0.dtd"
   xmlns:inkscape="http://www.inkscape.org/namespaces/inkscape"
   width="900"
   height="600"
   viewBox="0 0 225 150"
   id="svg2888"
   version="1.1"
   inkscape:version="0.47 r22583"
   sodipodi:docname="Flag_of_Zimbabwe.svg">
  <metadata
     id="metadata2964">
    <rdf:RDF>
      <cc:Work
         rdf:about="">
        <dc:format>image/svg+xml</dc:format>
        <dc:type
           rdf:resource="http://purl.org/dc/dcmitype/StillImage" />
      </cc:Work>
    </rdf:RDF>
  </metadata>
  <defs
     id="defs2962">
    <inkscape:perspective
       sodipodi:type="inkscape:persp3d"
       inkscape:vp_x="0 : 252 : 1"
       inkscape:vp_y="0 : 1000 : 0"
       inkscape:vp_z="1008 : 252 : 1"
       inkscape:persp3d-origin="504 : 168 : 1"
       id="perspective2966" />
  </defs>
  <sodipodi:namedview
     pagecolor="#ffffff"
     bordercolor="#666666"
     borderopacity="1"
     objecttolerance="10"
     gridtolerance="10"
     guidetolerance="10"
     inkscape:pageopacity="0"
     inkscape:pageshadow="2"
     inkscape:window-width="1043"
     inkscape:window-height="810"
     id="namedview2960"
     showgrid="false"
     inkscape:zoom="0.49801587"
     inkscape:cx="504"
     inkscape:cy="252"
     inkscape:window-x="0"
     inkscape:window-y="0"
     inkscape:window-maximized="0"
     inkscape:current-layer="svg2888" />
  <rect
     id="green_stripes"
     width="225"
     height="150"
     x="0"
     y="-1.4210855e-14"
     style="fill:#319208" />
  <rect
     id="yellow_stripes"
     width="225"
     height="107.14286"
     y="21.428572"
     x="0"
     style="fill:#ffd200" />
  <rect
     id="red_stripes"
     width="225"
     height="64.285713"
     y="42.857143"
     x="0"
     style="fill:#de2010" />
  <rect
     id="black_stripe"
     width="225"
     height="21.428572"
     y="64.285713"
     x="0"
     style="fill:#000000" />
  <path
     d="M 4.0915854,0 79.091586,75 4.0915854,150 0,150 0,0 z"
     id="path2894"
     style="fill:#000000" />
  <comment
     id="comment2896">value has to be sqrt(21)</comment>
  <path
     d="M 0,0 75,75 0,150"
     id="path2898"
     style="fill:#ffffff" />
  <g
     id="star"
     transform="scale(0.89285714,1.1904762)">
    <g
       id="upper_star_part"
       transform="matrix(32,0,0,32,34,63)"
       style="fill:#de2010">
      <g
         id="g2902">
        <polygon
           id="triangle_ur"
           points="0.75,1 0,0 0,1 "
           transform="matrix(0.89673608,0.44256571,-0.44256571,0.89673608,0,-1)" />
        <use
           id="triangle_ul"
           xlink:href="#triangle_ur"
           transform="scale(-1,1)"
           x="0"
           y="0"
           width="252"
           height="126" />
        <polygon
           id="triangle2_ur"
           points="0.75,1 0,0 0,1 "
           transform="matrix(0.94217472,0.33512206,-0.33512206,0.94217472,0,-1)" />
        <use
           id="triangle2_ul"
           xlink:href="#triangle2_ur"
           transform="scale(-1,1)"
           x="0"
           y="0"
           width="252"
           height="126" />
      </g>
      <use
         xlink:href="#triangle_ur"
         transform="matrix(0.30901699,0.95105652,-0.95105652,0.30901699,0,0)"
         id="use2908"
         x="0"
         y="0"
         width="252"
         height="126" />
      <use
         xlink:href="#triangle_ul"
         transform="matrix(0.30901699,-0.95105652,0.95105652,0.30901699,0,0)"
         id="use2910"
         x="0"
         y="0"
         width="252"
         height="126" />
      <use
         xlink:href="#triangle2_ur"
         transform="matrix(0.30901699,0.95105652,-0.95105652,0.30901699,0,0)"
         id="use2912"
         x="0"
         y="0"
         width="252"
         height="126" />
      <use
         xlink:href="#triangle2_ul"
         transform="matrix(0.30901699,-0.95105652,0.95105652,0.30901699,0,0)"
         id="use2914"
         x="0"
         y="0"
         width="252"
         height="126" />
    </g>
    <g
       id="lower_star_part"
       transform="matrix(27.5,0,0,27.5,34,63)"
       style="fill:#de2010">
      <g
         id="cone_l">
        <polygon
           id="triangle_l"
           points="0.5,1 0,0 0,1 "
           transform="matrix(0.91194245,0.41031813,-0.41031813,0.91194245,0,-1)" />
        <use
           xlink:href="#triangle_l"
           transform="scale(-1,1)"
           id="use2919"
           x="0"
           y="0"
           width="252"
           height="126" />
      </g>
      <use
         xlink:href="#cone_l"
         transform="matrix(-0.80901699,0.58778525,-0.58778525,-0.80901699,0,0)"
         id="use2921"
         x="0"
         y="0"
         width="252"
         height="126" />
      <use
         xlink:href="#cone_l"
         transform="matrix(-0.80901699,-0.58778525,0.58778525,-0.80901699,0,0)"
         id="use2923"
         x="0"
         y="0"
         width="252"
         height="126" />
    </g>
  </g>
  <g
     id="bird"
     transform="scale(0.89285714,1.1904762)">
    <path
       d="m 28.63541,55.109321 c 1.976151,4.30526 2.470343,4.58772 7.410824,6.28162 4.940481,1.69369 18.897601,3.29951 20.273897,3.45831 -0.899886,-0.89988 -16.621419,-12.54545 -19.850421,-14.87457 -3.229003,-2.32911 -4.128888,-3.3878 -4.128888,-3.3878 0,0 -2.911395,-5.2405 -3.91715,-6.7756 -1.005754,-1.5351 -2.858461,-3.70541 -5.293445,-3.70541 -2.434985,0 -3.917047,1.42923 -4.622874,3.97008 -0.388221,0.10587 -2.470344,1.3765 -2.39973,2.68208 0.599959,-0.07072 4.375985,-1.12941 5.681667,3.1407 1.305785,4.27011 1.376295,11.25725 0.03525,14.71577 -1.341041,3.45852 -3.42306,6.06967 -3.42306,9.10472 0,0.42347 0.282248,1.27042 0.988075,1.27042 0.246993,1.34115 2.223247,10.90449 2.223247,10.90449 l 28.161235,0 4.472961,-17.29197"
       style="fill:#ffc618;overflow:visible"
       id="path2926" />
    <g
       style="fill:none;stroke:#000000;stroke-width:0.20537469;overflow:visible"
       id="g2928">
      <path
         d="m 28.63541,55.109321 c 1.976151,4.30526 2.470343,4.58772 7.410824,6.28162 4.940481,1.69369 18.897601,3.29951 20.273897,3.45831 -0.899886,-0.89988 -16.621419,-12.54545 -19.850421,-14.87457 -3.229003,-2.32911 -4.128888,-3.3878 -4.128888,-3.3878 0,0 -2.911395,-5.2405 -3.91715,-6.7756 -1.005754,-1.5351 -2.858461,-3.70541 -5.293445,-3.70541 -2.434985,0 -3.917047,1.42923 -4.622874,3.97008 -0.388221,0.10587 -2.470344,1.3765 -2.39973,2.68208 0.599959,-0.07072 4.375985,-1.12941 5.681667,3.1407 1.305785,4.27011 1.376295,11.25725 0.03525,14.71577 -1.341041,3.45852 -3.42306,6.06967 -3.42306,9.10472 0,0.42347 0.282248,1.27042 0.988075,1.27042 0.246993,1.34115 2.223247,10.90449 2.223247,10.90449 l 28.161235,0 4.472961,-17.29197"
         id="path2930"
         style="stroke-width:0.20537469" />
      <path
         d="m 19.38956,70.989641 c 0,0 5.999272,-0.35276 7.622665,-0.35276 1.623185,0 16.733905,0.01862 25.164751,1.96788"
         id="path2932"
         style="stroke-width:0.20537469" />
      <path
         d="m 21.508178,70.870751 c 0,0 -0.601095,-0.72806 -0.212978,-2.17486 0.388118,-1.44681 4.622977,-5.18778 4.622977,-10.48102"
         id="path2934"
         style="stroke-width:0.20537469" />
      <path
         d="m 25.141736,70.636881 c 0,0 -0.493986,-2.36447 4.905329,-4.37598 1.517522,-0.45883 5.857942,-2.89381 5.999169,-4.86996"
         id="path2936"
         style="stroke-width:0.20537469" />
      <path
         d="m 29.473056,66.485261 c 0,0 13.243334,0.05789 23.724149,2.17527"
         id="path2938"
         style="stroke-width:0.20537469" />
      <path
         d="m 32.792626,64.905291 c 0,0 4.550502,0.1557 5.291585,-0.05604 0.741082,-0.21174 2.052866,-0.76217 2.574765,-2.31319"
         id="path2940"
         style="stroke-width:0.20537469" />
      <path
         d="m 35.490423,64.959261 c 0,0 2.434159,-1.26547 2.910981,-2.91098"
         id="path2942"
         style="stroke-width:0.20537469" />
      <path
         d="m 28.141424,81.894131 c 0,0 -1.041113,-7.21645 -1.25285,-11.25725 l 2.717439,2.59379 2.874796,-2.51418 2.471583,2.63783 2.857635,-2.42485 2.470963,2.77761 2.829928,-2.40665 2.25178,2.61839 2.822278,-2.04087 3.355133,3.18868"
         id="path2944"
         style="stroke-width:0.20537469" />
      <path
         d="m 50.9508,77.345081 c -10.080498,-1.4437 -23.570309,-1.35003 -23.570309,-1.35003"
         id="path2946"
         style="stroke-width:0.20537469" />
      <path
         d="m 22.693931,51.052191 c 0,0 8.199879,-3.91839 9.646891,-4.46531"
         id="path2948"
         style="stroke-width:0.20537469" />
    </g>
    <g
       style="fill:none;stroke:#000000;stroke-width:0.96994841;overflow:visible"
       transform="matrix(0.211738,0,0,0.211738,16,36)"
       id="g2950">
      <polyline
         points="52.4873047,177.0859375 65.5048828,188.9375 77.2666016,177.1757813 89.1630859,189.4423828 102.0087891,178.0839844 113.8359375,190.5136719 127.1748047,179.5009766 138.0722656,192.2285156 151.3417969,182.0839844 165.2890625,194.4033203"
         id="polyline2952"
         style="stroke-width:0.96994841" />
      <circle
         cx="89.425293"
         cy="154.58398"
         r="5.1665039"
         id="circle2954"
         d="m 94.591797,154.58398 c 0,2.85339 -2.313123,5.16651 -5.166504,5.16651 -2.853381,0 -5.166504,-2.31312 -5.166504,-5.16651 0,-2.85338 2.313123,-5.1665 5.166504,-5.1665 2.853381,0 5.166504,2.31312 5.166504,5.1665 z"
         sodipodi:cx="89.425293"
         sodipodi:cy="154.58398"
         sodipodi:rx="5.1665039"
         sodipodi:ry="5.1665039"
         style="stroke-width:0.96994841" />
      <circle
         cx="111.23682"
         cy="156.04688"
         r="5.1665039"
         id="circle2956"
         d="m 116.40332,156.04687 c 0,2.85339 -2.31312,5.16651 -5.1665,5.16651 -2.85338,0 -5.16651,-2.31312 -5.16651,-5.16651 0,-2.85338 2.31313,-5.1665 5.16651,-5.1665 2.85338,0 5.1665,2.31312 5.1665,5.1665 z"
         sodipodi:cx="111.23682"
         sodipodi:cy="156.04688"
         sodipodi:rx="5.1665039"
         sodipodi:ry="5.1665039"
         style="stroke-width:0.96994841" />
      <circle
         cx="30.049805"
         cy="16.5"
         r="4"
         id="circle2958"
         d="m 34.049805,16.5 c 0,2.209139 -1.790861,4 -4,4 -2.209139,0 -4,-1.790861 -4,-4 0,-2.209139 1.790861,-4 4,-4 2.209139,0 4,1.790861 4,4 z"
         sodipodi:cx="30.049805"
         sodipodi:cy="16.5"
         sodipodi:rx="4"
         sodipodi:ry="4"
         style="stroke-width:0.96994841" />
    </g>
  </g>
</svg>
