<?xml version="1.0" encoding="UTF-8" standalone="no"?>
<svg
   xmlns:dc="http://purl.org/dc/elements/1.1/"
   xmlns:cc="http://creativecommons.org/ns#"
   xmlns:rdf="http://www.w3.org/1999/02/22-rdf-syntax-ns#"
   xmlns:svg="http://www.w3.org/2000/svg"
   xmlns="http://www.w3.org/2000/svg"
   xmlns:sodipodi="http://sodipodi.sourceforge.net/DTD/sodipodi-0.dtd"
   xmlns:inkscape="http://www.inkscape.org/namespaces/inkscape"
   width="900"
   height="600"
   id="svg2"
   version="1.1"
   inkscape:version="0.47 r22583"
   sodipodi:docname="Flag_of_Nauru.svg">
  <metadata
     id="metadata14">
    <rdf:RDF>
      <cc:Work
         rdf:about="">
        <dc:format>image/svg+xml</dc:format>
        <dc:type
           rdf:resource="http://purl.org/dc/dcmitype/StillImage" />
      </cc:Work>
    </rdf:RDF>
  </metadata>
  <defs
     id="defs12">
    <inkscape:perspective
       sodipodi:type="inkscape:persp3d"
       inkscape:vp_x="0 : 150 : 1"
       inkscape:vp_y="0 : 1000 : 0"
       inkscape:vp_z="600 : 150 : 1"
       inkscape:persp3d-origin="300 : 100 : 1"
       id="perspective16" />
  </defs>
  <sodipodi:namedview
     pagecolor="#ffffff"
     bordercolor="#666666"
     borderopacity="1"
     objecttolerance="10"
     gridtolerance="10"
     guidetolerance="10"
     inkscape:pageopacity="0"
     inkscape:pageshadow="2"
     inkscape:window-width="789"
     inkscape:window-height="808"
     id="namedview10"
     showgrid="false"
     inkscape:zoom="0.83666667"
     inkscape:cx="300"
     inkscape:cy="150"
     inkscape:window-x="0"
     inkscape:window-y="0"
     inkscape:window-maximized="0"
     inkscape:current-layer="svg2" />
  <rect
     width="900"
     height="600"
     id="rect4"
     x="0"
     y="0"
     style="fill:#002b7f" />
  <rect
     y="275"
     width="900"
     height="50"
     id="rect6"
     x="0"
     style="fill:#ffc61e" />
  <path
     d="M 225,525 215.29425,473.2962 187.5,511.6024 198.48345,460.3554 160.04805,475 188.77785,437.941 150,425 188.77785,412.059 160.04805,375 198.48345,389.6446 187.5,338.3976 215.29425,376.7038 225,325 234.70575,376.7038 262.5,338.3976 251.51655,389.6446 289.95195,375 261.22215,412.059 300,425 261.22215,437.941 289.95195,475 251.51655,460.3554 262.5,511.6024 234.70575,473.2962 225,525 z"
     id="path8"
     style="fill:#ffffff" />
</svg>
