<?xml version="1.0" encoding="UTF-8" standalone="no"?>
<!-- Created with Inkscape (http://www.inkscape.org/) -->

<svg
   xmlns:dc="http://purl.org/dc/elements/1.1/"
   xmlns:cc="http://creativecommons.org/ns#"
   xmlns:rdf="http://www.w3.org/1999/02/22-rdf-syntax-ns#"
   xmlns:svg="http://www.w3.org/2000/svg"
   xmlns="http://www.w3.org/2000/svg"
   xmlns:sodipodi="http://sodipodi.sourceforge.net/DTD/sodipodi-0.dtd"
   xmlns:inkscape="http://www.inkscape.org/namespaces/inkscape"
   width="900"
   height="600"
   id="svg5778"
   sodipodi:version="0.32"
   inkscape:version="0.47 r22583"
   version="1.0"
   sodipodi:docname="Flag_of_the_Cocos_(Keeling)_Islands.svg">
  <defs
     id="defs5780">
    <inkscape:perspective
       sodipodi:type="inkscape:persp3d"
       inkscape:vp_x="0 : 150 : 1"
       inkscape:vp_y="0 : 1000 : 0"
       inkscape:vp_z="600 : 150 : 1"
       inkscape:persp3d-origin="300 : 100 : 1"
       id="perspective2929" />
  </defs>
  <sodipodi:namedview
     id="base"
     pagecolor="#ffffff"
     bordercolor="#666666"
     borderopacity="1.0"
     inkscape:pageopacity="0.0"
     inkscape:pageshadow="2"
     inkscape:zoom="0.5541666"
     inkscape:cx="300.00003"
     inkscape:cy="366.54136"
     inkscape:document-units="px"
     inkscape:current-layer="layer1"
     inkscape:window-width="964"
     inkscape:window-height="561"
     inkscape:window-x="83"
     inkscape:window-y="187"
     showgrid="false"
     inkscape:window-maximized="0" />
  <metadata
     id="metadata5783">
    <rdf:RDF>
      <cc:Work
         rdf:about="">
        <dc:format>image/svg+xml</dc:format>
        <dc:type
           rdf:resource="http://purl.org/dc/dcmitype/StillImage" />
      </cc:Work>
    </rdf:RDF>
  </metadata>
  <g
     inkscape:label="Layer 1"
     inkscape:groupmode="layer"
     id="layer1"
     transform="translate(0,300)">
    <rect
       style="fill:#008000;fill-opacity:1;fill-rule:evenodd;stroke:none"
       id="rect5930"
       width="900"
       height="600"
       x="0"
       y="-299.99997" />
    <path
       sodipodi:type="arc"
       style="fill:#ffe000;fill-opacity:1;fill-rule:evenodd;stroke:none"
       id="path5927"
       sodipodi:cx="73.407516"
       sodipodi:cy="62.039097"
       sodipodi:rx="46.12331"
       sodipodi:ry="46.12331"
       d="m 119.53083,62.039097 a 46.12331,46.12331 0 1 1 -92.246624,0 46.12331,46.12331 0 1 1 92.246624,0 z"
       transform="matrix(2.5503672,0,0,3.4482031,-70.141696,-355.87836)" />
    <path
       style="fill:#802000;fill-opacity:1;fill-rule:evenodd;stroke:#7b3100;stroke-width:1.38888896;stroke-linecap:butt;stroke-linejoin:miter;stroke-miterlimit:4;stroke-opacity:1;stroke-dasharray:none"
       d="m 109.29055,-21.665827 29.46138,0 c 0,0 1.32985,-3.651352 -0.29667,-5.477041 -1.62651,-1.825664 -7.96195,-2.227571 -6.25031,-8.685797 3.51901,-13.277671 4.01002,-9.183723 6.21963,-40.718204 2.2096,-31.534461 3.27348,-80.993761 3.27348,-80.993761 l -4.25553,0 c 0,0 0.81837,15.37996 -1.63675,35.4071 -2.45511,20.02715 -3.19165,21.7975 -5.89227,37.177467 -2.70062,15.379988 -3.1098,16.70775 -5.56492,25.670176 -2.45511,8.962425 -2.70063,9.405021 -6.54697,17.703553 -3.84634,8.298557 -2.45512,5.200437 -4.58288,10.179551 -1.06389,2.489557 -2.37328,1.825689 -3.08936,3.637538 -0.71607,1.81185 -0.83883,6.099418 -0.83883,6.099418 z"
       id="path5923"
       sodipodi:nodetypes="ccsssccssssssc" />
    <g
       style="font-size:12px;fill:#ffe000;fill-opacity:1;stroke:none"
       id="g596"
       transform="matrix(9.0100579,0,0,12.181975,-68.13239,-355.13953)">
      <polygon
         id="polygon590"
         points="85.8217,50.9537 88.143,49.5761 86.6493,47.3279 89.1736,48.2839 90,45.7143 90,45.7143 90.8264,48.2839 93.3507,47.3279 91.857,49.5761 94.1783,50.9537 91.4892,51.1876 91.8595,53.8613 90,51.9048 88.1405,53.8613 88.5108,51.1876 "
         style="fill:#ffe000;fill-opacity:1;fill-rule:evenodd;stroke:none" />
      <polygon
         id="polygon592"
         points="85.8217,10.9537 88.143,9.57615 86.6493,7.3279 89.1736,8.28387 90,5.71429 90,5.71429 90.8264,8.28387 93.3507,7.3279 91.857,9.57615 94.1783,10.9537 91.4892,11.1876 91.8595,13.8613 90,11.9048 88.1405,13.8613 88.5108,11.1876 "
         style="fill:#ffe000;fill-opacity:1;fill-rule:evenodd;stroke:none" />
      <polygon
         id="polygon593"
         points="70.8217,27.2037 73.143,25.8262 71.6493,23.5779 74.1736,24.5339 75,21.9643 75,21.9643 75.8264,24.5339 78.3507,23.5779 76.857,25.8262 79.1783,27.2037 76.4892,27.4376 76.8595,30.1113 75,28.1548 73.1405,30.1113 73.5108,27.4376 "
         style="fill:#ffe000;fill-opacity:1;fill-rule:evenodd;stroke:none" />
      <polygon
         id="polygon594"
         points="99.1551,23.2037 101.476,21.8262 99.9826,19.5779 102.507,20.5339 103.333,17.9643 103.333,17.9643 104.16,20.5339 106.684,19.5779 105.19,21.8262 107.512,23.2037 104.823,23.4376 105.193,26.1113 103.333,24.1548 101.474,26.1113 101.844,23.4376 "
         style="fill:#ffe000;fill-opacity:1;fill-rule:evenodd;stroke:none" />
      <polygon
         id="polygon595"
         points="96,30 96,30 96.6531,31.6011 98.3776,31.7275 97.0567,32.8434 97.4695,34.5225 96,33.6111 94.5305,34.5225 94.9433,32.8434 93.6224,31.7275 95.3469,31.6011 "
         style="fill:#ffe000;fill-opacity:1;fill-rule:evenodd;stroke:none" />
    </g>
    <path
       style="fill:#ffe000;fill-opacity:1;fill-rule:evenodd;stroke:none"
       d="m 472.47112,-141.95489 c -62.16942,0 -112.62572,68.219012 -112.62572,152.274691 0,84.055679 50.45627,152.274719 112.62572,152.274719 29.14734,0 55.46949,-15.38011 75.4749,-39.97211 -1.47322,0.97144 -2.78608,2.30517 -4.30169,3.17238 -5.5431,3.17168 -11.33203,5.62649 -17.36312,7.29649 -6.03112,1.67003 -12.29819,2.53792 -18.69276,2.53792 -6.39456,0 -12.66163,-0.86789 -18.69273,-2.53792 -6.03112,-1.67 -11.82003,-4.12481 -17.36314,-7.29649 -5.54311,-3.17167 -10.79007,-7.12716 -15.72068,-11.63208 -4.93061,-4.50494 -9.57183,-9.55766 -13.76536,-15.227468 -4.19354,-5.669833 -8.00885,-11.944987 -11.34078,-18.611354 -3.33196,-6.666391 -6.1793,-13.760492 -8.52514,-21.255013 -2.34586,-7.494522 -4.16148,-15.321393 -5.39667,-23.47569 -1.23517,-8.154322 -1.87708,-16.627666 -1.87708,-25.273384 0,-8.6456941 0.64191,-17.1190376 1.87708,-25.27336 1.23519,-8.154322 3.05081,-15.981168 5.39667,-23.475689 2.34584,-7.494522 5.19318,-14.588622 8.52514,-21.255014 3.33193,-6.666366 7.14724,-12.941497 11.34078,-18.611354 4.19353,-5.669832 8.83475,-10.722526 13.76536,-15.227469 4.93061,-4.504919 10.17757,-8.460435 15.72068,-11.632085 5.54311,-3.17167 11.33202,-5.62648 17.36314,-7.29649 6.0311,-1.67002 12.29817,-2.53792 18.69273,-2.53792 6.39457,0 12.66164,0.8679 18.69276,2.53792 6.03109,1.67001 11.82002,4.12482 17.36312,7.29649 1.51561,0.86721 2.82847,2.20092 4.30169,3.17239 -20.00541,-24.592 -46.32756,-39.97211 -75.4749,-39.97211 z"
       id="path5893" />
    <path
       style="fill:#008000;fill-opacity:1;fill-rule:evenodd;stroke:none"
       d="m 131.77829,-258.17009 c 0.24473,6.18686 -0.21527,14.37742 -2.11174,21.04352 -1.92297,7.42747 -4.01408,14.83122 -3.91062,22.52397 -3.05717,1.40593 -6.20806,-8.9447 -9.15083,-2.85515 2.21216,8.41374 7.31953,15.0759 10.819,22.6563 0.59018,2.35014 5.62462,8.4865 2.71173,9.91357 -7.35254,-3.40227 -9.13467,-15.99707 -13.69538,-23.64674 -5.29659,-12.8718 -15.17162,-21.96946 -26.171824,-22.59725 -4.132137,0.14638 -17.56782,-1.38469 -14.072107,8.1821 5.148243,4.73247 11.49192,7.81823 16.575717,13.13001 3.787398,0.47903 10.652264,9.02749 10.252094,12.2574 -6.661184,-3.64773 -9.779006,-8.01962 -16.955802,-11.85688 -9.724255,-5.07789 -23.174622,-2.02363 -28.558934,11.02479 -1.003671,3.39835 -2.485493,13.30311 0.670904,14.24678 3.688121,-7.78562 8.963872,-16.48868 16.780877,-14.15433 6.140164,0.64815 -6.851576,15.46586 -1.881828,12.48425 1.574771,-0.94478 5.211176,-4.17215 7.733811,-4.50919 2.522632,-0.33705 3.931495,2.21625 5.845473,2.56951 3.827954,0.70654 4.882078,2.87623 4.527262,4.1385 -0.41862,1.48925 -1.634805,0.21782 -5.5262,1.88587 -1.945697,0.83407 -2.9621,3.1458 -5.231596,4.20412 -2.269497,1.05832 -6.990659,1.13334 -8.754911,0.19491 -6.172609,-3.62504 -16.292007,-2.99396 -18.216173,7.464 -0.0017,4.59889 -3.028636,-0.50814 -4.427557,1.47862 -1.048976,5.01832 -1.320273,10.17085 -6.825458,9.7151 -3.341801,4.73998 -6.76396,9.64793 -11.00695,13.02036 2.49009,7.72742 12.356405,-7.76101 11.895167,-1.23033 -4.313084,7.95198 2.219167,9.62518 5.078631,3.50456 4.836231,-6.90893 10.826458,-15.31825 18.042673,-8.35591 3.437123,4.37518 5.434323,-2.31321 7.92209,-1.95503 1.567354,5.43479 3.539448,0.26746 5.318437,-1.26895 2.912127,-0.49054 2.092786,4.91767 5.553076,1.58619 6.89624,-6.17088 15.380808,-0.98559 22.117368,-6.98968 7.17068,-4.41718 1.00675,3.55777 -0.97244,6.67519 -3.15061,8.26199 -0.41828,19.10901 -7.25236,24.23938 -2.745154,9.84635 3.24334,22.82736 -2.864632,30.111454 -0.88852,4.567729 7.855312,4.04461 10.309342,5.92156 4.30018,0.23024 -0.1848,-13.307074 4.08172,-15.121484 5.72179,4.78856 5.45392,-8.56352 4.27234,-12.68188 0.55468,-9.36153 0.94544,-19.59751 4.38615,-28.07711 3.65792,-10.39259 7.04352,4.23263 2.94874,8.34721 -2.32598,9.55649 -5.71169,21.51542 -0.42286,30.40261 1.52428,0.4612 2.77589,5.45655 4.74949,6.99189 1.97362,1.53534 4.66926,-0.38929 5.16128,-4.93395 2.53147,-13.68566 1.25622,-28.40334 4.87135,-41.71281 2.55161,-4.12299 6.07142,-0.66479 7.6537,3.12663 5.06605,7.95203 8.62707,17.89274 14.76071,24.44481 5.58445,3.53314 10.52308,8.87706 13.09687,16.65064 -0.0344,5.997189 12.59843,6.916417 8.82321,0.25049 -3.62208,-6.48939 -1.23218,-12.98012 2.43649,-17.29575 1.96489,0.65522 1.38414,-4.10262 -0.15642,-2.22068 -2.46654,-0.78669 -2.62429,-6.89029 0.80411,-3.98911 5.77455,2.52038 -0.45018,-5.65041 -2.53734,-5.90107 -4.88257,-4.09187 -10.49229,-8.7995 -12.89247,-15.91192 6.35592,0.0877 12.95365,4.72251 19.449,1.84764 5.20627,-3.61644 10.48699,0.30165 12.3052,6.50632 4.02449,-0.86831 2.30868,-6.32508 0,-8.14248 2.94362,-1.64233 4.97935,-5.04756 1.41016,-8.05097 -1.88504,-3.326 2.52776,-8.99907 -2.89619,-8.76269 0.17714,-5.60176 -1.45404,-10.72777 -5.97028,-12.66317 -4.52417,-5.17975 -17.80051,7.63116 -17.4152,-4.04475 -1.33771,-6.35464 5.39295,-0.84894 7.27373,-4.01836 1.94342,-6.69916 -9.2607,-6.04545 -5.56373,-11.23929 2.41457,-2.10194 13.7454,-5.12139 4.85967,-7.37013 -4.43503,1.64804 -8.24125,0.42765 -11.7317,-2.53984 -3.18112,7.19357 -12.26465,-3.9066 -10.64599,8.88288 -1.24263,4.81908 -9.36163,17.34057 -11.55839,7.74762 1.86877,-7.51878 11.48735,-9.97718 8.50499,-20.11434 -0.45782,-6.32822 -4.33838,1.10055 -6.16652,0.62869 -0.92577,-3.93906 2.79987,-8.58216 5.39664,-9.51717 5.15266,5.3583 5.30873,-6.76021 10.20908,-5.77431 3.57775,-1.07475 -1.15532,-3.14961 -2.15322,-4.0601 0.98046,-3.54085 6.47286,-5.35026 1.08719,-8.42492 -4.75198,-4.76727 -8.27408,4.7452 -12.19333,5.25253 -3.76188,-5.74225 3.41541,-8.5025 5.39665,-11.52635 0.1065,-2.25414 -4.18503,-0.68007 -2.89385,-2.64366 1.1215,-2.71041 8.72056,-2.91228 5.162,-6.97925 -5.35938,-2.48761 -12.27463,-1.86736 -17.41707,1.35541 -3.23967,1.41794 -4.19281,11.32178 -6.98517,10.91116 -1.31291,-4.40837 0.42747,-13.10603 -4.06704,-14.3815 z m 25.34078,96.75788 c 4.08374,-0.93497 0.0867,8.38493 -1.8771,8.24822 0.17354,-3.34885 -5.9064,-3.02654 -2.13421,-5.94427 1.22331,-1.06802 2.5863,-1.88267 4.01131,-2.30395 z"
       id="path5908"
       sodipodi:nodetypes="cccccccccccccccsssssscccccccccccccccccccccsccccccccccccccccccccccccccccccccccccccccc" />
  </g>
</svg>
