<?xml version="1.0" encoding="UTF-8" standalone="no"?>
<svg
   xmlns:dc="http://purl.org/dc/elements/1.1/"
   xmlns:cc="http://creativecommons.org/ns#"
   xmlns:rdf="http://www.w3.org/1999/02/22-rdf-syntax-ns#"
   xmlns:svg="http://www.w3.org/2000/svg"
   xmlns="http://www.w3.org/2000/svg"
   xmlns:xlink="http://www.w3.org/1999/xlink"
   xmlns:sodipodi="http://sodipodi.sourceforge.net/DTD/sodipodi-0.dtd"
   xmlns:inkscape="http://www.inkscape.org/namespaces/inkscape"
   width="900"
   height="600"
   viewBox="0 0 22.5 15"
   id="svg2932"
   version="1.1"
   inkscape:version="0.47 r22583"
   sodipodi:docname="Flag_of_Cuba.svg">
  <metadata
     id="metadata2965">
    <rdf:RDF>
      <cc:Work
         rdf:about="">
        <dc:format>image/svg+xml</dc:format>
        <dc:type
           rdf:resource="http://purl.org/dc/dcmitype/StillImage" />
      </cc:Work>
    </rdf:RDF>
  </metadata>
  <defs
     id="defs2963">
    <inkscape:perspective
       sodipodi:type="inkscape:persp3d"
       inkscape:vp_x="0 : 200 : 1"
       inkscape:vp_y="0 : 1000 : 0"
       inkscape:vp_z="800 : 200 : 1"
       inkscape:persp3d-origin="400 : 133.33333 : 1"
       id="perspective2967" />
  </defs>
  <sodipodi:namedview
     pagecolor="#ffffff"
     bordercolor="#666666"
     borderopacity="1"
     objecttolerance="10"
     gridtolerance="10"
     guidetolerance="10"
     inkscape:pageopacity="0"
     inkscape:pageshadow="2"
     inkscape:window-width="1037"
     inkscape:window-height="841"
     id="namedview2961"
     showgrid="false"
     inkscape:zoom="0.6275"
     inkscape:cx="400"
     inkscape:cy="200"
     inkscape:window-x="0"
     inkscape:window-y="0"
     inkscape:window-maximized="0"
     inkscape:current-layer="svg2932" />
  <clipPath
     id="a">
    <rect
       width="20"
       height="10"
       id="rect2935"
       x="0"
       y="0" />
  </clipPath>
  <g
     clip-path="url(#a)"
     id="g2937"
     transform="scale(1.125,1.5)">
    <rect
       width="20"
       height="10"
       id="blue_stripes"
       x="0"
       y="0"
       style="fill:#002a8f" />
    <path
       d="M 0,3 H 20 M 0,7 h 20"
       id="white_stripes"
       style="stroke:#ffffff;stroke-width:1.53960073" />
    <g
       id="red_triangle"
       style="fill:#cf142b">
      <path
         d="M 0,0 H 10 L 0,7"
         transform="matrix(0.8660254,0.5,-0.5,0.8660254,0,0)"
         id="path2942" />
      <path
         d="M 0,10 H 10 L 0,4"
         transform="matrix(0.8660254,-0.5,0.5,0.8660254,-5,1.339746)"
         id="path2944" />
    </g>
    <comment
       id="comment2946">the star is in the center of gravity of the triangle, so the x-pos is irrational (5 / sin30 * sin60)</comment>
    <g
       id="star"
       transform="matrix(1.5,0,0,1.5,2.8867513,5)"
       style="fill:#ffffff">
      <g
         id="cone">
        <polygon
           id="triangle"
           points="0.5,1 0,0 0,1 "
           transform="matrix(0.95105652,0.30901699,-0.30901699,0.95105652,0,-1)" />
        <use
           xlink:href="#triangle"
           transform="scale(-1,1)"
           id="use2951"
           x="0"
           y="0"
           width="20"
           height="10" />
      </g>
      <use
         xlink:href="#cone"
         transform="matrix(0.30901699,0.95105652,-0.95105652,0.30901699,0,0)"
         id="use2953"
         x="0"
         y="0"
         width="20"
         height="10" />
      <use
         xlink:href="#cone"
         transform="matrix(0.30901699,-0.95105652,0.95105652,0.30901699,0,0)"
         id="use2955"
         x="0"
         y="0"
         width="20"
         height="10" />
      <use
         xlink:href="#cone"
         transform="matrix(-0.80901699,0.58778525,-0.58778525,-0.80901699,0,0)"
         id="use2957"
         x="0"
         y="0"
         width="20"
         height="10" />
      <use
         xlink:href="#cone"
         transform="matrix(-0.80901699,-0.58778525,0.58778525,-0.80901699,0,0)"
         id="use2959"
         x="0"
         y="0"
         width="20"
         height="10" />
    </g>
  </g>
</svg>
