<?xml version="1.0" encoding="UTF-8" standalone="no"?>
<!-- Created with Inkscape (http://www.inkscape.org/) -->
<svg
   xmlns:svg="http://www.w3.org/2000/svg"
   xmlns="http://www.w3.org/2000/svg"
   version="1.0"
   width="1026"
   height="684"
   viewBox="0 0 360 240"
   id="Flag of Turkey">
  <defs
     id="defs25" />
  <rect
     width="360"
     height="240"
     x="0"
     y="0"
     style="fill:#e30a17"
     id="Bayrak" />
  <path
     d="M 342,171 C 247.608,171 171,247.608 171,342 C 171,436.392 247.608,513 342,513 C 402.82758,513 456.27816,481.19686 486.59375,433.3125 C 461.54249,461.22983 425.18315,478.8125 384.75,478.8125 C 309.2364,478.81251 247.9375,417.5136 247.9375,342 C 247.9375,266.4864 309.2364,205.1875 384.75,205.1875 C 425.18315,205.1875 461.54249,222.77018 486.59375,250.6875 C 456.27816,202.80314 402.82758,171 342,171 z "
     transform="scale(0.3508772,0.3508772)"
     style="fill:#ffffff"
     id="Cresent" />
  <path
     d="M -91.2,90.646156 C -91.213786,90.177433 -100.90798,78.577859 -100.64363,78.190551 C -100.37927,77.803242 -86.044797,82.604328 -85.603275,82.446373 C -85.161752,82.288419 -77.125574,69.484226 -76.675531,69.615958 C -76.225488,69.74769 -76.361997,84.864201 -76.075335,85.235303 C -75.788673,85.606405 -61.127846,89.292552 -61.11406,89.761276 C -61.100274,90.229999 -75.519114,94.771431 -75.783469,95.158739 C -76.047825,95.546048 -75.023114,110.62841 -75.464637,110.78636 C -75.906159,110.94431 -84.680984,98.634563 -85.131027,98.50283 C -85.581069,98.371098 -99.60859,104.00636 -99.895252,103.63526 C -100.18191,103.26416 -91.186214,91.11488 -91.2,90.646156 z "
     transform="matrix(1.1307266,-0.7729028,0.7729028,1.1307266,224.44531,-46.218016)"
     style="opacity:1;fill:#ffffff;fill-opacity:1;fill-rule:nonzero;stroke:none;stroke-width:4.0999999;stroke-linecap:round;stroke-linejoin:round;stroke-miterlimit:4;stroke-dasharray:8.2, 4.1;stroke-dashoffset:0;stroke-opacity:1"
     id="Star" />
</svg>
