<?xml version="1.0" encoding="UTF-8" standalone="no"?>
<!-- Generator: Adobe Illustrator 13.0.2, SVG Export Plug-In . SVG Version: 6.00 Build 14948)  -->

<svg
   xmlns:dc="http://purl.org/dc/elements/1.1/"
   xmlns:cc="http://creativecommons.org/ns#"
   xmlns:rdf="http://www.w3.org/1999/02/22-rdf-syntax-ns#"
   xmlns:svg="http://www.w3.org/2000/svg"
   xmlns="http://www.w3.org/2000/svg"
   xmlns:sodipodi="http://sodipodi.sourceforge.net/DTD/sodipodi-0.dtd"
   xmlns:inkscape="http://www.inkscape.org/namespaces/inkscape"
   version="1.1"
   id="Layer_1"
   x="0px"
   y="0px"
   width="900"
   height="600"
   viewBox="0 0 900 600"
   xml:space="preserve"
   inkscape:version="0.47 r22583"
   sodipodi:docname="Flag_of_the_United_States_Virgin_Islands.svg"><metadata
   id="metadata2986"><rdf:RDF><cc:Work
       rdf:about=""><dc:format>image/svg+xml</dc:format><dc:type
         rdf:resource="http://purl.org/dc/dcmitype/StillImage" /></cc:Work></rdf:RDF></metadata><defs
   id="defs2984"><inkscape:perspective
     sodipodi:type="inkscape:persp3d"
     inkscape:vp_x="0 : 248 : 1"
     inkscape:vp_y="0 : 1000 : 0"
     inkscape:vp_z="744 : 248 : 1"
     inkscape:persp3d-origin="372 : 165.33333 : 1"
     id="perspective2988" /></defs><sodipodi:namedview
   pagecolor="#ffffff"
   bordercolor="#666666"
   borderopacity="1"
   objecttolerance="10"
   gridtolerance="10"
   guidetolerance="10"
   inkscape:pageopacity="0"
   inkscape:pageshadow="2"
   inkscape:window-width="1104"
   inkscape:window-height="724"
   id="namedview2982"
   showgrid="false"
   inkscape:zoom="0.50604839"
   inkscape:cx="372"
   inkscape:cy="248"
   inkscape:window-x="0"
   inkscape:window-y="0"
   inkscape:window-maximized="0"
   inkscape:current-layer="Layer_1" />
<rect
   style="fill:#ffffff"
   width="900.31317"
   height="600.31348"
   id="rect2882"
   x="-0.15658206"
   y="-0.15673938" />
<path
   id="path592"
   style="fill:#ffd600;stroke:#000000;stroke-width:1.4835"
   d="m 529.82049,215.99725 c 0,-4.13925 -1.34442,-12.17692 -5.71892,-14.95942 -5.61728,-2.92169 -5.61728,-4.719 -6.06623,-8.53873 -0.44894,-3.81974 9.43514,-11.00898 9.43514,-11.00898 0,0 -8.98619,-4.04485 -12.3551,-3.59583 -3.36892,0.45024 -9.88409,1.12317 -10.78198,2.02243 -0.8991,0.89926 -5.84115,-16.17699 -2.6961,-18.87356 3.14505,-2.69657 9.65779,6.29118 9.65779,6.29118 0,0 4.26802,-9.8858 -10.78197,-28.75937 5.16712,-36.84787 -29.2033,-45.3866 -37.06531,-45.161482 -6.51396,-0.89805 -23.36216,5.168021 -26.05705,13.256522 -8.53724,2.92047 -8.98619,10.33604 -8.98619,10.33604 0,0 -17.52101,3.14559 -19.76816,18.42454 10.33302,-8.53752 17.07206,0.89926 17.07206,0.89926 0,0 8.98619,6.29119 13.70316,6.5163 4.71575,0.22512 -4.4931,15.72798 -7.18799,18.42454 -2.6961,2.69657 -13.92823,13.03262 -13.47928,13.70555 0.44894,0.67293 8.76111,3.14559 8.31216,6.96533 -0.45015,3.81974 -25.60931,15.50406 -24.26126,18.42454 6.51517,-2.02243 11.59395,-0.46476 11.59395,-0.46476 0.90758,6.37954 -1.63363,13.72491 -5.9682,16.10317 l 121.39948,-0.007 z" />
<path
   id="path661"
   style="fill:#ffd600;stroke:#000000;stroke-width:1.4835;stroke-linecap:round;stroke-linejoin:round"
   d="m 523.16132,384.36461 c 0,0 1.14354,13.50705 -4.5778,19.2306 25.40601,1.60245 39.13942,27.47281 39.36812,33.65508 0.2275,6.17983 -7.78335,10.98718 -7.78335,10.98718 0,0 2.74814,10.98961 -7.78214,12.82081 0.22871,10.5309 -7.09481,10.5309 -7.09481,10.5309 0,0 -2.74692,8.69971 -11.21519,8.24221 -2.51821,12.59085 -15.56428,12.3621 -15.56428,12.3621 0,0 -7.55343,18.31561 -18.76863,11.21836 -7.0948,15.567 -25.86343,14.88075 -32.95944,0 -3.89047,-0.22754 -12.58745,5.0361 -17.85258,-10.5309 -11.67261,2.06115 -16.25041,-12.8196 -16.25041,-12.8196 0,0 -7.78336,-0.68746 -10.75899,-8.47096 -9.15439,-1.83119 -7.55222,-10.9884 -7.55222,-10.9884 0,0 -9.15439,-2.51744 -8.9269,-12.59084 -7.32472,-4.35107 -6.63739,-12.13336 -6.63739,-12.13336 0,0 5.72256,-27.01289 38.91072,-32.73765 -5.26514,-7.55355 -4.57781,-18.54316 -4.57781,-18.54316 l 100.0231,-0.23237 z" />
<g
   id="g638"
   transform="matrix(-1.7952051,0,0,1.795603,918.12654,33.003924)">
	<path
   id="path639"
   style="fill:#ffd600;stroke:#000000;stroke-width:0.82630706;stroke-linejoin:round"
   d="m 308.578,109.376 c 0,0 10.077,10.841 15.116,2.749 5.039,-8.092 -7.023,-10.383 -7.176,-10.536 -0.153,-0.152 -7.024,-2.29 -7.634,-14.963 -0.611,-12.673 15.116,-20.918 19.544,-21.987 4.428,-1.069 17.406,-1.069 17.406,-1.069 0,0 47.485,-11.451 52.371,-14.963 4.886,-3.512 49.776,-11.757 49.776,-11.757 0,0 7.176,-0.916 6.565,5.497 -0.611,6.413 -6.565,7.176 -6.565,7.176 0,0 5.039,3.97 4.428,7.482 -0.611,3.512 -4.428,9.161 -12.368,8.245 0.916,12.52 -16.49,14.505 -16.49,14.505 0,0 -1.832,18.017 -17.865,17.101 -3.817,12.367 -18.169,12.826 -18.169,12.826 0,0 -6.718,8.398 -16.49,9.008 -5.649,14.047 -17.864,10.077 -17.864,10.077 0,0 0.916,8.856 -4.733,8.856 2.901,10.077 -7.939,11.451 -12.062,9.466 -1.069,2.137 -4.733,8.703 -13.131,4.581 -5.038,7.482 -13.284,3.97 -13.284,3.97 0,0 -1.832,5.955 -9.008,3.664 -7.178,-2.291 7.785,-49.623 7.633,-49.928 z" />
	<path
   id="path640"
   style="fill:#ffd600;stroke:#000000;stroke-width:0.82630706;stroke-linecap:round;stroke-linejoin:round"
   d="m 339.726,72.426 c 0,0 -11.146,1.222 -9.772,18.475" />
	<path
   id="path641"
   style="fill:#ffd600;stroke:#000000;stroke-width:0.82630706;stroke-linecap:round;stroke-linejoin:round"
   d="m 382.172,54.562 c 0,0 21.376,14.658 -18.628,19.238" />
	<path
   id="path642"
   style="fill:#ffd600;stroke:#000000;stroke-width:0.82630706;stroke-linecap:round;stroke-linejoin:round"
   d="m 376.065,71.815 c 0.152,0.305 10.077,12.062 -8.245,15.574 8.703,8.245 -7.634,10.993 -7.634,10.993 0,0 3.359,8.703 -6.413,10.993 3.206,9.009 -7.329,8.551 -7.329,8.551 0,0 -0.305,10.993 -12.826,10.841 0.153,7.482 -8.55,7.94 -8.55,7.94 0,0 -2.596,8.092 -10.993,5.649 -0.916,5.649 -6.718,4.428 -6.718,4.428" />
	<path
   id="path643"
   style="fill:#f7f308;stroke:#000000;stroke-width:0.82630706;stroke-linecap:round;stroke-linejoin:round"
   d="m 309.799,155.792 c 0,0 -0.458,-7.787 1.374,-9.314" />
	<path
   id="path644"
   style="fill:#f7f308;stroke:#000000;stroke-width:0.82630706;stroke-linecap:round;stroke-linejoin:round"
   d="m 323.694,151.517 c -0.153,-0.153 -3.665,-7.176 -2.443,-8.398" />
	<path
   id="path645"
   style="fill:#f7f308;stroke:#000000;stroke-width:0.82630706;stroke-linecap:round;stroke-linejoin:round"
   d="m 336.519,147.089 -9.467,-9.314" />
	<path
   id="path646"
   style="fill:#f7f308;stroke:#000000;stroke-width:0.82630706;stroke-linecap:round;stroke-linejoin:round"
   d="m 348.429,137.928 c -0.153,-0.153 -14.352,-9.008 -14.352,-9.008" />
	<path
   id="path647"
   style="fill:#f7f308;stroke:#000000;stroke-width:0.82630706;stroke-linecap:round;stroke-linejoin:round"
   d="m 353.467,128.919 c -0.153,-0.153 -8.092,-3.512 -8.398,-6.413" />
	<path
   id="path648"
   style="fill:#ffd600;stroke:#000000;stroke-width:0.82630706;stroke-linecap:round;stroke-linejoin:round"
   d="m 371.026,118.689 c 0,0 -19.238,4.123 -22.598,-0.305" />
	<path
   id="path649"
   style="fill:#ffd600;stroke:#000000;stroke-width:0.82630706;stroke-linecap:round;stroke-linejoin:round"
   d="m 387.058,109.528 c -0.763,0 -28.857,3.054 -31.453,-0.458" />
	<path
   id="path650"
   style="fill:#ffd600;stroke:#000000;stroke-width:0.82630706;stroke-linecap:round;stroke-linejoin:round"
   d="m 405.686,96.855 c -0.458,-0.153 -33.285,6.108 -42.599,1.374" />
	<path
   id="path651"
   style="fill:#ffd600;stroke:#000000;stroke-width:0.82630706;stroke-linecap:round;stroke-linejoin:round"
   d="m 421.412,79.907 c -0.764,0 -43.668,10.383 -50.081,7.176" />
	<path
   id="path652"
   style="fill:#ffd600;stroke:#000000;stroke-width:0.82630706;stroke-linecap:round;stroke-linejoin:round"
   d="m 437.75,64.944 c -0.305,0 -51.15,11.91 -57.562,7.023" />
	<path
   id="path653"
   style="fill:#ffd600;stroke:#000000;stroke-width:0.82630706;stroke-linecap:round;stroke-linejoin:round"
   d="m 444.315,50.439 c -0.152,0 -48.707,15.879 -52.829,11.909" />
</g>
<g
   id="g622"
   transform="matrix(1.7952051,0,0,1.795603,29.00219,33.632679)">
	<path
   id="path607"
   style="fill:#ffd600;stroke:#000000;stroke-width:0.82630706;stroke-linejoin:round"
   d="m 308.577,109.376 c 0,0 10.078,10.841 15.116,2.749 5.039,-8.092 -7.023,-10.383 -7.176,-10.536 -0.153,-0.152 -7.024,-2.29 -7.635,-14.963 -0.61,-12.673 15.116,-20.918 19.544,-21.987 4.428,-1.069 17.406,-1.069 17.406,-1.069 0,0 47.485,-11.451 52.371,-14.963 4.886,-3.512 49.775,-11.757 49.775,-11.757 0,0 7.177,-0.916 6.566,5.497 -0.611,6.413 -6.566,7.176 -6.566,7.176 0,0 5.039,3.97 4.428,7.482 -0.611,3.512 -4.428,9.161 -12.368,8.245 0.916,12.52 -16.49,14.505 -16.49,14.505 0,0 -1.833,18.017 -17.864,17.101 -3.817,12.367 -18.17,12.826 -18.17,12.826 0,0 -6.718,8.398 -16.49,9.008 -5.649,14.047 -17.864,10.077 -17.864,10.077 0,0 0.916,8.856 -4.733,8.856 2.901,10.077 -7.939,11.451 -12.062,9.466 -1.068,2.137 -4.734,8.703 -13.131,4.581 -5.038,7.482 -13.283,3.97 -13.283,3.97 0,0 -1.832,5.955 -9.008,3.664 -7.176,-2.291 7.787,-49.623 7.634,-49.928 z" />
	<path
   id="path608"
   style="fill:#ffd600;stroke:#000000;stroke-width:0.82630706;stroke-linecap:round;stroke-linejoin:round"
   d="m 339.726,72.426 c 0,0 -11.146,1.222 -9.772,18.475" />
	<path
   id="path609"
   style="fill:#ffd600;stroke:#000000;stroke-width:0.82630706;stroke-linecap:round;stroke-linejoin:round"
   d="m 382.172,54.562 c 0,0 21.375,14.658 -18.628,19.238" />
	<path
   id="path610"
   style="fill:#ffd600;stroke:#000000;stroke-width:0.82630706;stroke-linecap:round;stroke-linejoin:round"
   d="m 376.065,71.815 c 0.153,0.305 10.077,12.062 -8.246,15.574 8.703,8.245 -7.634,10.993 -7.634,10.993 0,0 3.359,8.703 -6.413,10.993 3.206,9.009 -7.329,8.551 -7.329,8.551 0,0 -0.305,10.993 -12.826,10.841 0.153,7.482 -8.55,7.94 -8.55,7.94 0,0 -2.596,8.092 -10.994,5.649 -0.916,5.649 -6.718,4.428 -6.718,4.428" />
	<path
   id="path611"
   style="fill:#f7f308;stroke:#000000;stroke-width:0.82630706;stroke-linecap:round;stroke-linejoin:round"
   d="m 309.799,155.792 c 0,0 -0.458,-7.787 1.374,-9.314" />
	<path
   id="path612"
   style="fill:#f7f308;stroke:#000000;stroke-width:0.82630706;stroke-linecap:round;stroke-linejoin:round"
   d="m 323.693,151.517 c -0.153,-0.153 -3.664,-7.176 -2.443,-8.398" />
	<path
   id="path613"
   style="fill:#f7f308;stroke:#000000;stroke-width:0.82630706;stroke-linecap:round;stroke-linejoin:round"
   d="m 336.519,147.089 -9.467,-9.314" />
	<path
   id="path614"
   style="fill:#ffd600;stroke:#000000;stroke-width:0.82630706;stroke-linecap:round;stroke-linejoin:round"
   d="m 348.429,137.928 c -0.153,-0.153 -14.352,-9.008 -14.352,-9.008" />
	<path
   id="path615"
   style="fill:#f7f308;stroke:#000000;stroke-width:0.82630706;stroke-linecap:round;stroke-linejoin:round"
   d="m 353.467,128.919 c -0.153,-0.153 -8.092,-3.512 -8.398,-6.413" />
	<path
   id="path616"
   style="fill:#ffd600;stroke:#000000;stroke-width:0.82630706;stroke-linecap:round;stroke-linejoin:round"
   d="m 371.026,118.689 c 0,0 -19.238,4.123 -22.597,-0.305" />
	<path
   id="path617"
   style="fill:#ffd600;stroke:#000000;stroke-width:0.82630706;stroke-linecap:round;stroke-linejoin:round"
   d="m 387.058,109.528 c -0.764,0 -28.857,3.054 -31.453,-0.458" />
	<path
   id="path618"
   style="fill:#ffd600;stroke:#000000;stroke-width:0.82630706;stroke-linecap:round;stroke-linejoin:round"
   d="m 405.686,96.855 c -0.458,-0.153 -33.286,6.108 -42.6,1.374" />
	<path
   id="path619"
   style="fill:#ffd600;stroke:#000000;stroke-width:0.82630706;stroke-linecap:round;stroke-linejoin:round"
   d="m 421.412,79.907 c -0.763,0 -43.668,10.382 -50.081,7.176" />
	<path
   id="path620"
   style="fill:#ffd600;stroke:#000000;stroke-width:0.82630706;stroke-linecap:round;stroke-linejoin:round"
   d="m 437.75,64.944 c -0.305,0 -51.15,11.91 -57.563,7.023" />
	<path
   id="path621"
   style="fill:#ffd600;stroke:#000000;stroke-width:0.82630706;stroke-linecap:round;stroke-linejoin:round"
   d="m 444.315,50.439 c -0.153,0 -48.707,15.879 -52.83,11.909" />
</g>
<path
   id="path572"
   style="fill:#00cede;stroke:#000000;stroke-width:1.4835"
   d="m 687.70322,263.25621 c 0,0 -5.35952,76.60774 -5.61969,76.43345 -0.25896,-0.17549 -11.17768,-13.38239 -11.17768,-13.38239 l -33.69761,105.66365 7.87653,23.04913 -19.61932,64.34368 -16.18023,-20.52806 -26.13933,10.51275 20.9819,-67.76765 19.38456,-13.93066 34.90408,-104.09508 -19.37126,2.42546 48.65805,-62.72428 z" />
<path
   id="path571"
   style="fill:#00cede;stroke:#000000;stroke-width:1.4835"
   d="m 762.17267,294.85375 c 0,0 -40.75732,65.08197 -40.90374,64.80602 -0.14763,-0.27716 -3.571,-17.0702 -3.571,-17.0702 l -66.97289,62.13728 -71.51439,69.01789 -0.19724,-14.21508 -24.47061,-3.02214 32.3665,-24.76898 16.57471,-2.73167 104.48594,-94.72245 -18.23618,-6.9738 72.4389,-32.45687 z" />
<path
   id="path574"
   style="fill:none;stroke:#000000;stroke-width:1.51499987"
   d="m 579.25906,459.41831 c 0.44289,-0.92467 37.18511,-32.32373 37.18511,-32.32373" />
<path
   id="path570"
   style="fill:#00cede;stroke:#000000;stroke-width:1.4835"
   d="m 740.39696,239.79799 c 0,0 -19.92064,74.16534 -20.14209,73.94385 -0.22145,-0.22027 -8.41018,-15.27531 -8.41018,-15.27531 l -80.79101,138.81159 3.3193,24.13115 -28.99516,53.13379 -11.95335,-23.24641 -27.66648,5.31447 30.98699,-56.2334 21.69222,-9.96205 81.67437,-137.04213 -19.47774,-1.3277 59.76313,-52.24785 z" />
<path
   id="path573"
   style="fill:none;stroke:#000000;stroke-width:1.4835"
   d="m 593.86857,490.41192 c 0,-0.44177 27.88914,-49.14825 27.88914,-49.14825" />
<path
   id="path563"
   style="fill:#00cede;stroke:#000000;stroke-width:1.4835"
   d="m 45.381837,225.85038 48.695566,0.22149 -4.869436,11.73395 21.249323,84.12861 25.67587,-83.90712 -9.07574,-12.17693 50.68739,0 -10.84611,11.73395 -41.8331,120.21519 10.8449,15.71829 -48.695565,0 L 98.061046,357.79952 57.11253,238.02731 45.381837,225.85038 z" />
<path
   id="path566"
   style="fill:#00cede;stroke:#000000;stroke-width:1.4835"
   d="m 792.41303,228.7285 46.26085,0 -7.5256,10.40503 -0.22266,122.42885 10.40442,11.51246 -48.91701,0 9.73887,-12.3972 -0.22145,-121.32262 -9.51742,-10.62652 z" />
<path
   id="path583"
   style="fill:none;stroke:#000000;stroke-width:1.4835"
   d="m 427.71724,118.01787 c 0,0 5.9319,7.45187 8.14033,8.14175 2.20722,0.68988 14.62403,6.762 13.93549,10.90126 -0.68976,4.13925 -8.83009,6.21009 -8.83009,6.21009" />
<path
   id="path584"
   style="fill:none;stroke:#000000;stroke-width:1.4835"
   d="m 437.51298,106.97864 12.41682,11.86708 c 0,0 2.20722,10.21138 11.03731,9.38353 8.83008,-0.82785 7.58852,-4.5544 7.58852,-4.5544 0,0 -10.62224,-7.45187 -19.03847,-5.65819" />
<path
   id="path585"
   style="fill:#188400;stroke:#000000;stroke-width:1.4835;stroke-linejoin:round"
   d="m 361.80318,480.98724 16.5844,-13.77696 c 0,0 -3.6545,-7.59106 -16.86635,-7.31026 -12.36721,-8.71423 -33.72907,-29.23866 -33.72907,-29.23866 L 317.11062,401.7035 c 0,0 8.71392,-2.52955 10.68154,-9.55782 1.96641,-7.02947 -0.5627,-15.74491 -1.40614,-16.58729 -0.84343,-0.84358 -9.55614,1.40517 -12.08646,5.06031 -2.53031,3.65634 -6.46555,17.71288 -12.36841,12.93336 -5.90286,-4.77951 0.84344,-10.1206 0.84344,-10.1206 0,0 5.90286,-7.30906 5.62211,-11.2462 -0.28074,-3.93592 -7.86927,-15.7437 -8.71392,-16.02449 -0.84343,-0.2808 -2.5291,15.46291 -4.77867,17.15008 -2.24837,1.68838 -5.34017,8.71544 -9.8381,4.77951 -4.49673,-3.93592 2.24836,-9.84102 2.24836,-9.84102 0,0 12.64916,-6.74627 0.28074,-28.95787 -3.65449,9.55903 -10.68032,15.74371 -10.68032,15.74371 0,0 -3.37376,5.9051 -6.46556,0.84358 -3.0918,-5.0603 3.6545,-9.83981 3.6545,-9.83981 0,0 10.96228,-6.46669 11.24423,-16.02571 0.28074,-9.55781 -13.21064,-20.52322 -13.21064,-20.52322 0,0 -0.84223,17.71288 -5.05942,19.96164 -4.2172,2.24875 -5.90286,5.90389 -10.68154,1.96796 -4.77868,-3.93593 3.6545,-12.65136 3.6545,-12.65136 0,0 14.61677,-14.61933 13.77333,-23.05398 -0.84343,-8.43464 -1.68687,-9.83981 -1.68687,-9.83981 0,0 -10.96228,6.74747 -12.36721,10.1206 -1.40613,3.37435 -5.90286,15.46292 -11.52497,11.80778 -3.93524,-4.49751 3.37375,-13.21294 3.37375,-13.21294 0,0 5.34016,-5.90389 5.05942,-8.43465 -0.28074,-2.53076 -4.49672,-10.12061 -12.64916,-17.43088 -1.12418,-2.24875 -1.68687,-11.24619 -1.68687,-11.24619 0,0 -6.18361,7.31027 -5.90165,11.24619 0.28074,3.93593 -0.5627,11.80778 0.28074,20.52322 0.84344,8.71544 -6.7463,-2.81155 -6.7463,-2.81155 l 1.40614,-28.11428 c 0,0 -10.68154,-12.93336 -23.61144,-17.71166 4.77868,7.02826 4.49672,13.77574 4.49672,13.77574 0,0 -5.34016,11.52698 -5.34016,14.61933 0,3.09234 6.1836,16.58729 17.70858,25.58352 -17.42784,-18.83605 -39.07045,-12.65137 -45.536,-16.3065 3.0918,3.65513 12.36841,17.43087 11.24423,21.08601 -1.12418,3.65513 16.5844,11.24619 16.5844,11.24619 l 18.83276,0.28079 c 0,0 9.2754,6.46548 10.11884,10.68219 0.84344,4.21793 -13.49138,-7.87185 -19.1135,-7.58985 -5.62212,0.2808 -20.51964,-1.96675 -20.51964,-1.96675 0,0 8.99466,8.43344 9.27541,12.08857 0.28074,3.65514 4.21598,12.08857 9.55735,14.33854 5.34017,2.24875 19.67499,3.09355 19.67499,3.09355 0,0 6.1836,-3.65635 7.30899,0.27958 1.12419,3.93593 -8.15122,7.02948 -8.15122,7.02948 0,0 -9.55614,0 -12.64916,-2.53076 -3.09301,-2.53076 -3.65449,-6.74748 -17.42662,-8.43465 -1.40614,11.52699 7.58853,23.33477 7.58853,23.33477 0,0 37.94626,-3.09234 37.6643,5.06151 -0.28074,8.15265 -31.4807,0.84238 -32.60488,-1.68838 -1.12419,-2.52955 1.40613,16.0245 8.71391,19.96042 7.30779,3.93593 23.61144,1.96918 25.57906,1.12559 1.96762,-0.84358 9.27541,-1.68717 9.27541,2.53076 0,4.21793 -37.10283,7.59106 -37.66431,6.46668 -0.5627,-1.12559 5.62211,14.33854 20.51963,13.49495 14.89752,-0.84358 21.36187,-5.3423 21.36187,-5.3423 0,0 8.99466,-1.68839 9.83689,1.96796 0.84344,3.65513 -8.99466,5.34109 -8.99466,5.34109 0,0 -23.61144,0.5628 -24.45367,-0.56279 -0.84344,-1.12438 5.34137,14.90133 21.92456,14.62054 12.36842,-1.12559 13.21064,-6.4679 15.74096,-7.31027 3.6545,-0.84238 11.52498,-0.84238 12.64916,-0.56158 1.12418,0.28079 20.80038,14.05532 20.80038,14.05532 l 50.0303,50.60788 z" />
<path
   id="path593"
   style="fill:none;stroke:#000000;stroke-width:1.4835;stroke-linecap:round;stroke-linejoin:round"
   d="m 216.76564,258.88336 c 0,0 -0.5627,26.9899 12.9299,35.14375" />
<path
   id="path594"
   style="fill:none;stroke:#000000;stroke-width:1.4835;stroke-linecap:round;stroke-linejoin:round"
   d="m 245.15455,280.25016 c 0,0 8.99466,13.77574 -6.18361,18.83605" />
<path
   id="path595"
   style="fill:none;stroke:#000000;stroke-width:1.4835;stroke-linecap:round;stroke-linejoin:round"
   d="m 198.49436,289.52839 c 0,0 -1.12418,15.4617 26.14176,14.33854" />
<path
   id="path596"
   style="fill:none;stroke:#000000;stroke-width:1.4835;stroke-linecap:round;stroke-linejoin:round"
   d="m 265.95493,303.02334 c 0,0 -4.49673,10.96419 -15.45901,10.4014" />
<path
   id="path597"
   style="fill:none;stroke:#000000;stroke-width:1.4835;stroke-linecap:round;stroke-linejoin:round"
   d="m 276.07377,327.76328 c 0,1.40517 1.96762,16.30649 -12.36721,16.02449" />
<path
   id="path598"
   style="fill:none;stroke:#000000;stroke-width:1.4835;stroke-linecap:round;stroke-linejoin:round"
   d="m 207.48903,321.57738 c 0,0 17.98932,11.24741 26.14054,10.40382" />
<path
   id="path599"
   style="fill:none;stroke:#000000;stroke-width:1.4835;stroke-linecap:round;stroke-linejoin:round"
   d="m 211.42427,348.84929 c 0,0 8.43196,8.99744 23.89218,6.74626" />
<path
   id="path600"
   style="fill:none;stroke:#000000;stroke-width:1.4835;stroke-linecap:round;stroke-linejoin:round"
   d="m 285.62991,355.03397 c 0,1.12559 -2.80984,9.84102 -8.99466,10.96661" />
<path
   id="path601"
   style="fill:none;stroke:#000000;stroke-width:1.4835;stroke-linecap:round;stroke-linejoin:round"
   d="m 225.47835,374.99681 c 0,0 6.74629,8.71423 24.45366,3.93593" />
<path
   id="path602"
   style="fill:none;stroke:#000000;stroke-width:1.4835;stroke-linecap:round;stroke-linejoin:round"
   d="m 302.49505,371.34047 c 0,0 -2.81106,13.77574 -10.11884,14.05653" />
<path
   id="path603"
   style="fill:none;stroke:#000000;stroke-width:1.4835;stroke-linecap:round;stroke-linejoin:round"
   d="m 319.64094,386.2418 c 0,0 -5.62212,16.58729 -19.95695,14.05653" />
<path
   id="path604"
   style="fill:none;stroke:#000000;stroke-width:1.4835;stroke-linecap:round;stroke-linejoin:round"
   d="m 253.58651,415.76124 c 0,0 5.62212,5.06152 19.39425,-1.12559" />
<path
   id="path605"
   style="fill:none;stroke:#000000;stroke-width:1.4835;stroke-linecap:round;stroke-linejoin:round"
   d="m 238.1275,398.89316 c 1.12419,0 8.15123,5.90389 25.01637,-3.09234" />
<path
   id="path606"
   style="fill:none;stroke:#000000;stroke-width:1.4835;stroke-linecap:round;stroke-linejoin:round"
   d="m 361.77656,460.32604 c 0,0 -10.50244,4.70327 -0.31342,20.53774" />
<path
   id="path654"
   style="fill:#ffd600;stroke:#000000;stroke-width:1.4835"
   d="m 568.09711,322.1777 c 0,0 11.03731,10.59868 11.25875,12.80749 0.22145,2.20761 2.87036,12.5848 5.7395,14.13157 2.86914,1.54678 14.12911,10.59868 15.6744,14.13158 1.54409,3.5341 11.479,18.54799 11.479,18.54799 0,0 9.27177,18.98854 15.45295,20.53532 6.18118,1.54435 23.62233,-1.1038 27.1534,7.28727 3.53106,8.39108 2.6489,20.53532 2.6489,20.53532 0,0 -4.19541,3.75438 -6.18118,1.54557 -1.98577,-2.20882 -5.51926,11.03923 -11.70044,7.28606 -8.41986,-17.93074 -30.45575,-15.00421 -30.45575,-15.00421 0,0 4.84765,-7.51723 -14.79951,-14.14246 -30.68567,5.29994 -39.73721,-26.71637 -39.73721,-26.71637 l -17.46655,-15.15308 30.93374,-45.79205 z" />
<path
   id="path655"
   style="fill:#ffd600;stroke:#000000;stroke-width:1.4835"
   d="m 550.43572,367.66355 13.68743,6.40374 -1.10361,-11.70248" />
<path
   id="path656"
   style="fill:#ffd600;stroke:#000000;stroke-width:1.4835"
   d="m 569.86264,365.8977 12.5826,6.18227 -5.07636,-10.15692" />
<path
   id="path657"
   style="fill:#ffd600;stroke:#000000;stroke-width:1.4835"
   d="m 569.20072,349.33825 12.36236,6.62402 -5.73949,-12.80628" />
<path
   id="path658"
   style="fill:#ffd600;stroke:#000000;stroke-width:1.4835"
   d="m 588.84787,410.05947 c 0,0 -14.1291,-18.54799 -13.90766,-18.54799 0.22145,0 24.06281,4.6367 24.06281,4.6367 l -8.83009,-18.98855 21.85559,5.7405" />
<path
   id="path659"
   style="fill:#ffd600;stroke:#000000;stroke-width:1.4835"
   d="m 629.46845,412.93033 c 0,0 13.90766,3.09234 13.46598,26.27703" />
<path
   id="path660"
   style="fill:#ffd600;stroke:#000000;stroke-width:1.4835"
   d="m 636.75204,409.39743 c 0,0 15.01248,-0.88231 14.1291,22.52144" />
<path
   id="path670"
   style="fill:#ffd600;stroke:#000000;stroke-width:1.4835"
   d="m 377.85392,325.05097 c 0,0 -11.03851,10.59868 -11.25875,12.80629 -0.22145,2.2076 -4.70123,11.2123 -7.57037,12.75787 -2.87036,1.54556 -12.75565,11.51488 -14.30095,15.04898 -1.54529,3.5329 -11.02157,19.00549 -11.02157,19.00549 0,0 -10.87394,15.78365 -17.05513,17.32921 -7.55464,0.63057 -22.01895,2.1011 -25.55122,10.49097 -3.53228,8.39228 1.92889,21.22277 6.04928,21.22277 6.17997,2.7474 9.00071,5.58437 10.98769,3.37676 3.35923,0.99609 1.4376,3.87299 7.61999,0.11982 -4.69881,-6.0225 -4.19662,-11.84166 0.51308,-13.36786 4.6976,-1.60729 12.34906,5.54321 12.34906,5.54321 0,0 2.78564,-13.00235 22.43401,-19.62758 30.68567,5.29994 38.93128,-19.46662 41.0792,-25.37414 4.83798,-6.5865 12.36237,-8.34024 18.54355,-12.50976 l -32.81787,-46.82203 z" />
<path
   id="path671"
   style="fill:none;stroke:#000000;stroke-width:1.4835;stroke-linecap:round;stroke-linejoin:round"
   d="m 396.05138,367.85235 -14.2247,7.4773 1.10361,-10.09156" />
<path
   id="path672"
   style="fill:none;stroke:#000000;stroke-width:1.4835;stroke-linecap:round;stroke-linejoin:round"
   d="m 377.16175,365.81782 -13.38853,6.18105 6.15093,-10.42439" />
<path
   id="path673"
   style="fill:none;stroke:#000000;stroke-width:1.4835;stroke-linecap:round;stroke-linejoin:round"
   d="m 377.55503,349.52585 -11.55644,5.0131 4.12886,-8.51089" />
<path
   id="path674"
   style="fill:none;stroke:#000000;stroke-width:1.4835;stroke-linecap:round;stroke-linejoin:round"
   d="m 357.63923,409.97838 c 2.14793,-4.2966 13.05454,-17.74192 12.8331,-17.74192 -0.22024,0 -22.45217,4.6379 -22.45217,4.6379 l 7.21945,-18.72227 -19.43902,3.86088" />
<path
   id="path675"
   style="fill:none;stroke:#000000;stroke-width:1.4835;stroke-linecap:round;stroke-linejoin:round"
   d="m 317.39741,412.82745 c 0,0 -16.88329,3.09113 -10.26163,23.98591" />
<path
   id="path676"
   style="fill:none;stroke:#000000;stroke-width:1.4835"
   d="m 310.11262,409.9808 c 0,0 -18.44432,0.49018 -12.06831,23.43765" />
<path
   id="path662"
   style="fill:none;stroke:#000000;stroke-width:1.85439992;stroke-linecap:round;stroke-linejoin:round"
   d="m 513.31838,393.06431 c 0,-0.22875 6.17997,15.567 -7.09481,18.3144 34.1042,-2.51744 43.71722,36.40006 43.71722,36.40006" />
<path
   id="path663"
   style="fill:none;stroke:#000000;stroke-width:1.4835;stroke-linecap:round;stroke-linejoin:round"
   d="m 505.53745,398.78786 c 0,0 2.97563,11.44711 -6.8661,17.17066 35.70516,7.78471 43.94472,44.87101 43.94472,44.87101" />
<path
   id="path664"
   style="fill:none;stroke:#000000;stroke-width:1.4835;stroke-linecap:round;stroke-linejoin:round"
   d="m 497.9828,404.05392 c 0,0.45871 3.43426,14.88075 -7.78214,17.17066 22.20288,-5.95351 45.31939,50.3646 45.31939,50.3646" />
<path
   id="path665"
   style="fill:none;stroke:#000000;stroke-width:1.4835;stroke-linecap:round;stroke-linejoin:round"
   d="m 487.22624,410.46372 c 0,0 5.72255,10.98719 -4.80651,14.42204 19.91217,2.05995 26.32206,67.53527 26.32206,67.53527" />
<path
   id="path666"
   style="fill:none;stroke:#000000;stroke-width:1.4835;stroke-linecap:round;stroke-linejoin:round"
   d="m 480.36014,414.35486 c 0,0 3.20313,12.13335 -7.0948,15.79575 20.82821,-10.98719 16.93653,73.71753 16.93653,73.71753" />
<path
   id="path667"
   style="fill:none;stroke:#000000;stroke-width:1.4835;stroke-linecap:round;stroke-linejoin:round"
   d="m 466.62674,415.04232 c 0,0 -4.3491,12.82081 5.26513,15.33825 -18.99733,-5.26485 -15.33557,73.48878 -15.33557,73.48878" />
<path
   id="path668"
   style="fill:none;stroke:#000000;stroke-width:1.4835;stroke-linecap:round;stroke-linejoin:round"
   d="m 457.69984,410.00622 c 0,0 -2.97563,11.67464 8.69819,17.62695 -19.45475,-12.3621 -27.4656,65.70406 -27.4656,65.70406" />
<path
   id="path669"
   style="fill:none;stroke:#000000;stroke-width:1.4835;stroke-linecap:round;stroke-linejoin:round"
   d="m 488.5997,420.76587 c 0,0 35.47524,34.11136 35.24774,59.29306" />
<path
   id="path677"
   style="fill:none;stroke:#000000;stroke-width:1.4835;stroke-linecap:round;stroke-linejoin:round"
   d="m 432.52375,393.29306 c 0,0.22875 -4.3491,18.31561 8.24077,18.77311" />
<path
   id="path678"
   style="fill:none;stroke:#000000;stroke-width:1.4835;stroke-linecap:round;stroke-linejoin:round"
   d="m 441.45064,399.93282 c 0,0.45749 -3.43426,15.33704 6.63618,16.02449" />
<path
   id="path679"
   style="fill:none;stroke:#000000;stroke-width:1.4835;stroke-linecap:round;stroke-linejoin:round"
   d="m 449.46149,404.28267 c 0,0 -6.17997,14.88075 8.92569,16.9407" />
<path
   id="path680"
   style="fill:none;stroke:#000000;stroke-width:1.4835;stroke-linecap:round;stroke-linejoin:round"
   d="m 457.24242,421.45212 c -0.2287,0 -29.52518,27.24406 -34.1042,58.83556" />
<path
   id="path681"
   style="fill:none;stroke:#000000;stroke-width:1.4835;stroke-linecap:round;stroke-linejoin:round"
   d="m 451.74858,418.70471 c -0.2275,0 -37.30733,23.12175 -39.82555,52.65451" />
<path
   id="path682"
   style="fill:none;stroke:#000000;stroke-width:1.4835;stroke-linecap:round;stroke-linejoin:round"
   d="m 443.51023,414.81357 c 0,0 -41.19901,24.03674 -39.36813,45.786" />
<path
   id="path683"
   style="fill:none;stroke:#000000;stroke-width:1.4835;stroke-linecap:round;stroke-linejoin:round"
   d="m 433.66729,409.54751 c 0,0 -30.66994,5.72356 -38.22338,38.68996" />
<path
   id="path689"
   style="fill:none;stroke:#000000;stroke-width:1.4835"
   d="m 368.9839,198.61963 c 0,0 29.65951,16.38275 50.90884,15.4968 21.24933,-0.88594 53.12211,-14.61206 53.12211,-14.61206 0,0 28.33082,15.93977 51.35173,13.72612 23.01849,-2.21366 54.89248,-14.61086 54.89248,-14.61086 C 598.2939,293.67007 554.91188,378.97994 473.01485,417.35401 386.10074,377.65102 343.89857,282.15761 368.9839,198.61963 z" />
<g
   id="g697"
   transform="matrix(1.7952051,0,0,1.795603,29.00219,33.632679)">
	<path
   id="path581"
   style="fill:#ffffff;stroke:#000000;stroke-width:0.82630706"
   d="m 189.383,91.884 c 0,0 16.522,9.124 28.358,8.631 11.837,-0.493 29.591,-8.138 29.591,-8.138 0,0 15.782,8.877 28.605,7.645 12.823,-1.233 30.577,-8.138 30.577,-8.138 10.603,52.935 -13.562,100.445 -59.182,121.817 C 198.918,191.589 175.41,138.408 189.383,91.884 z" />
	<path
   id="path586"
   style="fill:#c41e3a"
   d="m 195.472,130.353 v 33.097 l 9.387,15.827 v -48.924 h -9.387 z" />
	<path
   id="path587"
   style="fill:#c41e3a"
   d="m 214.246,130.353 v 59.927 l 9.387,8.737 v -68.664 h -9.387 z" />
	<path
   id="path588"
   style="fill:#c41e3a"
   d="m 233.02,130.353 v 75.757 l 9.387,5.212 v -80.969 h -9.387 z" />
	<path
   id="path589"
   style="fill:#c41e3a"
   d="m 298.73,130.353 v 33.106 l -9.387,15.964 v -49.07 h 9.387 z" />
	<path
   id="path590"
   style="fill:#c41e3a"
   d="m 279.956,130.353 v 60.222 l -9.387,8.56 v -68.783 h 9.387 z" />
	<path
   id="path591"
   style="fill:#c41e3a"
   d="m 261.182,130.353 v 75.613 l -9.387,5.592 v -81.205 h 9.387 z" />
	<path
   id="path582"
   style="fill:#002b7f;stroke:#000000;stroke-width:0.82630706"
   d="m 189.383,91.884 c 0,0 4.131,2.281 9.74,4.5 5.61,2.22 12.699,4.377 18.617,4.13 11.837,-0.493 29.591,-8.138 29.591,-8.138 0,0 15.782,8.877 28.605,7.645 12.823,-1.233 30.577,-8.138 30.577,-8.138 2.59,15.371 3.884,23.221 1.603,38.469 H 186.085 c -1.552,-15.216 -1.469,-22.111 3.298,-38.468 z" />
</g>
<path
   id="path707"
   style="fill:none;stroke:#000000;stroke-width:1.4835"
   d="m 368.9839,198.61963 c 0,0 29.65951,16.38275 50.90884,15.4968 21.24933,-0.88594 53.12211,-14.61206 53.12211,-14.61206 0,0 28.33082,15.93977 51.35173,13.72612 23.01849,-2.21366 54.89248,-14.61086 54.89248,-14.61086 C 598.2939,293.67007 554.91188,378.97994 473.01485,417.35401 386.10074,377.65102 343.89857,282.15761 368.9839,198.61963 z" />
</svg>