<?xml version="1.0" encoding="UTF-8" standalone="no"?>
<svg
   xmlns:dc="http://purl.org/dc/elements/1.1/"
   xmlns:cc="http://creativecommons.org/ns#"
   xmlns:rdf="http://www.w3.org/1999/02/22-rdf-syntax-ns#"
   xmlns:svg="http://www.w3.org/2000/svg"
   xmlns="http://www.w3.org/2000/svg"
   xmlns:xlink="http://www.w3.org/1999/xlink"
   xmlns:sodipodi="http://sodipodi.sourceforge.net/DTD/sodipodi-0.dtd"
   xmlns:inkscape="http://www.inkscape.org/namespaces/inkscape"
   width="900"
   height="600"
   viewBox="-350 -250 900 600"
   id="svg2"
   version="1.1"
   inkscape:version="0.47 r22583"
   sodipodi:docname="Flag_of_Albania.svg">
  <metadata
     id="metadata15">
    <rdf:RDF>
      <cc:Work
         rdf:about="">
        <dc:format>image/svg+xml</dc:format>
        <dc:type
           rdf:resource="http://purl.org/dc/dcmitype/StillImage" />
      </cc:Work>
    </rdf:RDF>
  </metadata>
  <defs
     id="defs13">
    <inkscape:perspective
       sodipodi:type="inkscape:persp3d"
       inkscape:vp_x="0 : 250 : 1"
       inkscape:vp_y="0 : 1000 : 0"
       inkscape:vp_z="700 : 250 : 1"
       inkscape:persp3d-origin="350 : 166.66667 : 1"
       id="perspective17" />
  </defs>
  <sodipodi:namedview
     pagecolor="#ffffff"
     bordercolor="#666666"
     borderopacity="1"
     objecttolerance="10"
     gridtolerance="10"
     guidetolerance="10"
     inkscape:pageopacity="0"
     inkscape:pageshadow="2"
     inkscape:window-width="983"
     inkscape:window-height="740"
     id="namedview11"
     showgrid="false"
     inkscape:zoom="0.502"
     inkscape:cx="350"
     inkscape:cy="250"
     inkscape:window-x="0"
     inkscape:window-y="0"
     inkscape:window-maximized="0"
     inkscape:current-layer="svg2" />
  <title
     id="title4">Flag of Albania</title>
  <rect
     id="field"
     x="-350"
     y="-250"
     width="900"
     height="600"
     style="fill:#ce1126" />
  <g
     id="eagle"
     style="fill:#000000"
     transform="matrix(1.2857143,0,0,1.2,100,50)">
    <path
       id="righthalf"
       d="m 52.84375,-154.12159 c 1.43855,0.0418 2.62626,0.27337 3.4375,0.71875 0.69989,0.38176 1.83024,1.20636 2.59375,1.90625 1.01802,0.89077 2.57177,1.21537 7.34375,1.40625 6.808,0.19088 9.53547,1.29082 11.0625,4.28125 1.08164,2.09966 1.0774,2.26264 1.78125,4.03125 -3.15818,-0.90017 -6.93834,-2.19313 -8.65625,-1.875 -2.35417,0.509 -4.90625,1.95298 -4.90625,2.84375 0,0.31814 0.76548,1.08249 1.65625,1.71875 2.6365,0.64819 3.49861,0.64819 8.15625,0 6.10813,-0.9544 6.55771,-1.14696 8.59375,-3.4375 1.14528,-1.33615 2.79673,-3.16948 3.6875,-4.1875 1.78153,-1.9724 4.32798,-2.28041 5.21875,-0.5625 0.89077,1.59066 -1.40792,3.89358 -4.84375,6.375 -2.99043,2.16329 -5.09177,3.67736 -10.5,4.25 -1.6861,0.19086 -14.55124,0.13415 -15.1875,0.5 -0.63628,0.36586 6.61822,3.46683 13.84375,1.3125 -1.71791,3.49944 -8.90623,6.20749 -15.96875,6.84375 -7.88966,0.76354 -13.30713,2.46593 -18.90625,6.15625 -5.91724,3.8812 -9.0152,7.30602 -11.6875,12.96875 -2.73593,5.59915 -3.69313,10.30825 -3.375,15.84375 0.38176,6.80803 3.614,10.3125 9.53125,10.3125 4.07208,2e-5 5.68384,-0.76407 7.65625,-3.5 1.27254,-1.90877 1.43637,-2.77785 1.5,-10.03125 0,-6.80799 0.26098,-8.33557 1.40625,-10.5625 2.29054,-4.51743 5.54755,-6.62669 15.21875,-10.0625 4.83561,-1.71792 11.31867,-4.19397 14.5,-5.59375 6.36262,-2.67232 6.62922,-2.60783 8.15625,1.71875 0.50901,1.46342 1.3961,2.5915 1.96875,2.71875 1.84516,0.38177 11.70326,-2.97719 17.875,-6.03125 10.62559,-5.34462 16.15315,-10.0667 21.625,-18.65625 3.24495,-5.09009 5.59994,-6.54703 8.78125,-5.65625 3.6267,1.01801 5.65512,4.13654 5.71875,8.78125 0.0636,4.07211 -1.90878,7.44677 -7.0625,12.21875 -8.7168,8.08053 -25.00108,15.45946 -39.0625,17.75 -4.64471,0.69992 -6.875,2.47943 -6.875,5.40625 0,4.26297 4.64327,5.99887 15.96875,6.0625 10.62559,1e-5 17.31812,-2.62835 24.0625,-9.5 4.3266,-4.51743 5.8567,-5.20665 8.65625,-4.125 1.39978,0.57265 2.875,3.61456 2.875,5.96875 1e-5,4.83562 -6.38399,12.60332 -12.9375,15.59375 -4.89922,2.29056 -9.39836,3.06813 -16.90625,2.75 -5.59912,-0.19086 -7.69677,-0.65709 -12.46875,-2.375 -9.54393,-3.49941 -10.38598,-3.61402 -11.53125,-2.46875 -0.89077,0.89079 -0.89189,1.15259 0.0625,3.125 1.6543,3.18134 7.90456,9.09234 11.53125,10.9375 8.65318,4.39024 17.1565,3.43188 29.5,-3.3125 6.29901,-3.4358 9.62359,-3.55295 11.46875,-0.5625 0.69989,1.1453 1.28125,2.85811 1.28125,3.8125 1e-5,2.41783 -3.19453,5.85893 -8.09375,8.53125 -6.29901,3.56309 -10.74547,4.6875 -18.0625,4.6875 -6.55352,2e-5 -10.69057,-0.99718 -19.34375,-4.6875 -4.39021,-1.84514 -6.16721,-2.05377 -7.3125,-0.78125 -1.08164,1.3998 0.80518,5.08641 4.75,9.03125 5.91723,5.91726 17.70185,10.38851 25.71875,9.625 2.29056,-0.19085 5.08108,-1.1036 7.5625,-2.3125 5.09012,-2.54503 9.61571,-2.72917 11.90625,-0.375 2.92681,2.86321 1.76971,7.33643 -2.875,11.28125 -3.05406,2.67231 -6.22466,3.6875 -11.1875,3.6875 -5.59912,10e-6 -9.03938,-1.20551 -20.9375,-7.25 -10.8801,-5.47184 -13.42624,-6.31278 -14.0625,-4.53125 -0.76353,1.84518 1.27364,4.95889 7,10.8125 11.77086,11.89814 18.46112,14.24381 31.25,11.0625 9.03494,-2.29054 12.13401,-0.73538 11.625,5.5 -0.38176,4.39021 -1.83305,6.46284 -5.96875,8.5625 -2.67232,1.3998 -3.9389,1.59375 -9.15625,1.59375 -4.89923,-0.06362 -6.61008,-0.32348 -9.21875,-1.46875 -4.51746,-2.09965 -14.46338,-8.88203 -20.0625,-13.78125 -6.87165,-6.04448 -9.53125,-7.20918 -9.53125,-4.21875 0,2.92683 11.19423,18.32826 17.875,24.5000002 2.54505,2.3542 6.36456,5.10473 8.71875,6.25 3.8812,1.90880997 4.71901,2.09487997 10,2.03124997 3.11768,2e-5 7.73731,-0.12162 10.21875,-0.3125 5.47186,-0.31809997 7.25,0.74829 7.25,4.37500003 0,3.37222 -4.75476,7.8803298 -9.78125,9.3437498 C 116.59766,15.90121 105.27903,10.63069 91.28125,-3.6215898 80.91016,-14.18355 79.42314,-13.53209 85.53125,-0.93408983 92.02114,12.55471 100.25645,22.15119 108.71875,26.15966 c 4.39021,2.03601 5.51714,2.16526 16.90625,1.65625 5.02649,-0.25455 7.3125,1.06982 7.3125,4.1875 0,1.59066 -0.56222,2.68722 -2.34375,4.46875 -6.48989,6.48987 -17.24378,6.73199 -28.1875,0.6875 C 96.23449,33.72383 81.21005,17.25654 72.875,4.7221602 c -4.45383,-6.68073 -5.59797,-7.51042 -7.125,-5.15625003 -0.95441,1.39979 -1.01015,2.16468003 -0.4375,5.21875003 1.78154,9.4167198 6.28573,16.6086498 13.09375,21.0624998 4.39021,2.79951 5.42089,4.45383 4.59375,7.0625 -1.01802,3.24492 -7.24491,4.81616 -11.0625,2.84375 -4.51746,-2.29056 -10.24464,-10.9276 -15.84375,-23.84375 -4.00847,-9.2257998 -4.27759,-9.5624998 -6.25,-9.5624998 -5.15372,2e-5 -3.36149,10.8414898 2.9375,18.0312498 2.79957,3.18128 3.25368,5.34347 1.28125,7.125 -1.65428,1.52703 -4.14104,0.9558 -8.53125,-1.84375 C 41.45916,23.05097 39.24043,20.41839 36.25,14.62841 32.49604,7.4386102 30.94593,9.2989902 34,17.31591 c 4.26296,11.4527 14.46534,21.6216 28.78125,28.875 2.22693,1.08161 4,2.18412 4,2.375 0,0.19088 -1.28433,1.84459 -2.875,3.5625 -1.59066,1.7815 -2.84375,3.36937 -2.84375,3.6875 0,0.63625 8.69254,4.58643 19,8.53125 l 9.25,3.5625 4.75,-3 c 6.55351,-4.00849 10.17399,-6.99521 10.9375,-9.03125 1.52703,-3.94488 6.43581,-6.55377 10.0625,-5.28125 1.27253,0.44536 2.80094,0.38626 5.21875,-0.25 5.5991,-1.46342 9.00045,2.99776 9.875,5.3125 -1.93663,0.28802 -1.00703,0.21988 -2.375,0.15625 -5.72636,-0.25451 -6.29983,-0.0763 -8.78125,2.46875 -2.60869,2.67227 -6.1067,4.00901 -8.90625,3.5 -1.27252,-0.25455 -2.93018,0.45383 -6.875,3.0625 -2.9268,1.84517 -5.28125,3.558 -5.28125,3.8125 0,0.63622 2.99181,0.63851 12.28125,-0.125 6.61712,-0.50904 7.71959,-0.75647 9.4375,-2.15625 2.60868,-2.22693 5.60557,-2.6799 8.46875,-1.34375 1.27255,0.63624 3.53435,1.15512 5.125,1.21875 1.7179,0.06364 3.5121,0.61149 4.59375,1.375 1.84517,1.39978 3.08849,2.12063 3.9375,4.90625 -3.45569,-0.05766 -2.33106,-0.05687 -4.8125,-0.375 -4.26296,-0.63625 -4.72635,-0.5839 -6.0625,0.625 -0.82714,0.69987 -2.08022,1.68074 -2.84375,2.0625 -1.90879,0.9544 -6.30659,0.86402 -8.40625,-0.28125 -1.33615,-0.6363 -4.34599,-0.87387 -11.28125,-0.9375 -5.21737,-0.06365 -9.77562,-0.06363 -10.09375,0 -0.38175,-3e-5 1.69932,1.40708 4.5625,3.125 4.89924,2.99043 5.36317,3.09488 9.5625,3.03125 5.59912,-0.06365 8.76548,1.59318 9.65625,5.15625 0.31813,1.27248 0.89949,3.56897 1.28125,4.96875 0.89077,3.37217 1.22935,3.89319 -1.25,9.71875 -2.71016,-6.38271 -1.79786,-4.44735 -2.625,-5.65625 -1.33615,-1.97244 -1.84994,-2.27675 -5.03125,-2.53125 -4.39021,-0.38179 -6.43945,-1.71929 -8.09375,-5.21875 -1.08164,-2.41784 -2.27139,-3.43581 -8.125,-7.0625 -8.01692,-4.96285 -7.52756,-4.94935 -16.5625,-0.75 -4.45383,2.09965 -6.11147,3.1616 -6.875,4.625 -1.33615,2.67228 -4.19369,3.70439 -7.375,2.75 -2.99045,-0.89076 -4.30771,-0.39444 -6.34375,2.46875 -0.85894,1.2407 -0.91608,0.99633 -2.1875,2.15625 -0.35615,-1.78203 -0.375,-2.03095 -0.375,-3.8125 0,-2.60868 0.31531,-3.12669 3.6875,-6.5625 3.94484,-3.94487 6.35557,-5.01915 9.21875,-3.9375 1.33615,0.50904 2.43917,0.34067 5.875,-1.25 3.81757,-1.7179 5.28491,-3.125 3.3125,-3.125 -0.38176,0 -6.56249,-2.29532 -13.625,-5.03125 L 54.125,61.72216 52.21875,63.25341 C 48.71931,65.98933 43.1678,68.53466 40.75,68.53466 38.52308,68.53462 38.26239,68.35645 37.5625,66.06591 36.48085,62.43919 29.0397,48.11154 25.03125,42.00341 18.35048,31.69591 14.67795,29.00735 11.6875,32.31591 c -0.95439,1.08161 -1.21988,2.30518 -1.15625,6.25 0.12725,11.64361 6.75194,26.84795 15.46875,35.4375 4.58109,4.58106 9.61064,7.07798 15.71875,7.96875 4.70836,0.63626 7.875,1.82235 7.875,3.03125 0,1.2725 -3.12134,4.98198 -5.09375,6 -1.71792,0.89073 -3.37331,1.06475 -7,0.9375 -4.39021,-0.19087 -5.20692,-0.4237 -9.40625,-2.96875 -4.1357,-2.48144 -4.76661,-2.70216 -5.59375,-1.875 -0.82716,0.82713 -0.88626,1.42821 -0.25,3.71875 1.33616,4.96284 4.88483,7.23198 13.15625,8.25 8.4623,1.08164 11.3308,3.64893 8.53125,7.59375 -1.84517,2.54505 -5.01604,3.875 -9.40625,3.875 -4.96286,-3e-5 -9.2435,-2.18663 -14.90625,-7.53125 -2.4178,-2.22692 -4.64949,-3.8795 -5.03125,-3.625 -0.89077,0.50896 -0.82939,5.60105 0.125,8.71875 0.89077,2.99039 4.8947,7.70186 7.3125,8.65625 0.95441,0.38175 3.40259,1.14724 5.375,1.65625 6.93527,1.90877 7.93048,4.59881 3.03125,7.84375 -3.18131,2.09963 -8.46255,2.28266 -12.34375,0.4375 -2.54505,-1.1453 -9.53885,-7.70831 -10.875,-10.0625 -1.14527,-2.09967 -2.35051,-0.5552 -1.96875,2.5625 0.2545,2.60863 1.78294,5.53939 5.21875,10.375 2.79957,3.81758 1.83448,8.96985 -2.9375,15.96875 -3.16739,4.67056 -6.14032,8.0027 -7.53125,8.59375 -0.27311,-0.11605 -0.61542,-0.37071 -1,-0.6875 l 0,-260.03125 c 0.33068,0.0672 0.66394,0.12069 1,0.125 1.0478,-0.0134 2.11852,-0.33882 2.90625,-0.9375 1.14527,-0.82712 1.14415,-0.93496 0.0625,-2.84375 -1.33615,-2.48139 -0.88542,-3.38401 1.46875,-2.875 2.09966,0.4454 3.99409,-0.3947 6.09375,-2.8125 1.9088,-2.09966 1.91331,-2.33587 -0.25,-2.78125 -3.8812,-0.82713 -5.21932,-3.625 -1.65625,-3.625 2.86318,1e-5 9.21988,-4.15482 9.15625,-6 -0.06363,-0.38176 -1.25535,-1.26886 -2.71875,-1.96875 -3.30858,-1.59066 -3.39782,-2.79335 -0.34375,-3.875 2.99043,-1.01803 7.89837,-4.32008 8.34375,-5.65625 0.31813,-0.63627 -0.3747,-1.32798 -2.15625,-2.21875 -3.24494,-1.65427 -7.5625,-5.6036 -7.5625,-6.8125 0,-1.01805 0.94115,-0.96117 6.03125,0.375 1.39978,0.38176 4.57995,0.6875 7.125,0.6875 3.69032,0 5.28067,-0.37808 8.84375,-1.96875 6.48988,-2.86317 13.18435,-4.46901 17.5,-4.34375 z m -5,9.375 c -2.7942,-0.13097 -0.24965,2.46491 -1.59375,3.34375 -1.65428,1.08164 -5.72592,-4.5004 -3.34375,1.875 1.33616,1.08167 8.35248,0.58615 9.625,-0.75 1.27252,-1.27254 0.25479,-3.52449 -1.78125,-3.90625 -1.32531,-0.3777 -2.26144,-0.53228 -2.90625,-0.5625 z" />
    <use
       xlink:href="#righthalf"
       transform="scale(-1,1)"
       id="use9"
       x="0"
       y="0"
       width="700"
       height="500" />
  </g>
</svg>
