<?xml version="1.0" encoding="UTF-8" standalone="no"?>
<!-- Created with Inkscape (http://www.inkscape.org/) -->

<svg
   xmlns:dc="http://purl.org/dc/elements/1.1/"
   xmlns:cc="http://creativecommons.org/ns#"
   xmlns:rdf="http://www.w3.org/1999/02/22-rdf-syntax-ns#"
   xmlns:svg="http://www.w3.org/2000/svg"
   xmlns="http://www.w3.org/2000/svg"
   xmlns:xlink="http://www.w3.org/1999/xlink"
   xmlns:sodipodi="http://sodipodi.sourceforge.net/DTD/sodipodi-0.dtd"
   xmlns:inkscape="http://www.inkscape.org/namespaces/inkscape"
   version="1.0"
   width="900"
   height="600"
   id="svg3446"
   sodipodi:version="0.32"
   inkscape:version="0.47 r22583"
   sodipodi:docname="Flag_of_Tajikistan.svg">
  <metadata
     id="metadata20">
    <rdf:RDF>
      <cc:Work
         rdf:about="">
        <dc:format>image/svg+xml</dc:format>
        <dc:type
           rdf:resource="http://purl.org/dc/dcmitype/StillImage" />
      </cc:Work>
    </rdf:RDF>
  </metadata>
  <sodipodi:namedview
     inkscape:window-height="712"
     inkscape:window-width="1024"
     inkscape:pageshadow="2"
     inkscape:pageopacity="0.0"
     guidetolerance="10.0"
     gridtolerance="10.0"
     objecttolerance="10.0"
     borderopacity="1.0"
     bordercolor="#666666"
     pagecolor="#ffffff"
     id="base"
     inkscape:zoom="0.754"
     inkscape:cx="435.60271"
     inkscape:cy="295.2683"
     inkscape:window-x="-4"
     inkscape:window-y="-4"
     inkscape:current-layer="svg3446"
     showgrid="false"
     inkscape:window-maximized="0" />
  <defs
     id="defs3448">
    <inkscape:perspective
       sodipodi:type="inkscape:persp3d"
       inkscape:vp_x="0 : 250 : 1"
       inkscape:vp_y="0 : 1000 : 0"
       inkscape:vp_z="1000 : 250 : 1"
       inkscape:persp3d-origin="500 : 166.66667 : 1"
       id="perspective2896" />
  </defs>
  <rect
     width="900"
     height="257.33334"
     x="-3.3420532e-17"
     y="171.33307"
     style="font-size:12px;fill:#ffffff;fill-opacity:1;fill-rule:evenodd;stroke:none"
     id="rect3450" />
  <rect
     width="900"
     height="171.33333"
     x="-3.3420532e-17"
     y="428.66669"
     style="font-size:12px;fill:#006600;fill-opacity:1;fill-rule:evenodd;stroke-width:1pt"
     id="rect3449" />
  <rect
     width="900"
     height="171.3336"
     x="2.5546117e-14"
     y="0"
     style="font-size:12px;fill:#cc0000;fill-opacity:1;fill-rule:evenodd;stroke-width:1pt"
     id="rect3452" />
  <g
     id="g9911"
     style="fill:#ffcc00;fill-opacity:1"
     transform="scale(0.9,1.2)">
    <path
       id="polygon3941"
       style="font-size:12px;fill:#ffcc00;fill-opacity:1;fill-rule:evenodd;stroke:none"
       d="m 397.13817,260.19053 3.57094,11.75988 11.56028,-0.25998 -9.5883,7.18663 3.80869,11.42062 -9.49686,-7.3183 -9.20636,7.3183 3.71892,-11.70959 -9.49855,-6.89765 11.79527,0.0814 3.33597,-11.58128 z" />
    <path
       id="polygon3944"
       style="font-size:12px;fill:#ffcc00;fill-opacity:1;fill-rule:evenodd;stroke:none"
       d="m 552.70162,168.70879 3.57094,11.75988 11.56027,-0.25998 -9.58827,7.18663 3.80866,11.42061 -9.49684,-7.3183 -9.20637,7.3183 3.71892,-11.70959 -9.49854,-6.89764 11.79527,0.0814 3.33596,-11.58129 z" />
    <path
       id="polygon3945"
       style="font-size:12px;fill:#ffcc00;fill-opacity:1;fill-rule:evenodd;stroke:none"
       d="m 591.59233,210.0302 3.57095,11.75988 11.56028,-0.25998 -9.58828,7.18663 3.80866,11.42061 -9.49688,-7.3183 -9.20634,7.3183 3.71889,-11.70958 -9.4985,-6.89765 11.79522,0.0814 3.336,-11.58128 z" />
    <path
       id="polygon3946"
       style="font-size:12px;fill:#ffcc00;fill-opacity:1;fill-rule:evenodd;stroke:none"
       d="m 602.86183,260.19041 3.57095,11.75988 11.56028,-0.25998 -9.58834,7.18663 3.80872,11.42062 -9.49688,-7.3183 -9.20634,7.3183 3.71889,-11.70959 -9.4985,-6.89765 11.79522,0.0814 3.336,-11.58128 z" />
    <path
       id="path3952"
       style="fill:#ffcc00;fill-opacity:1;fill-rule:evenodd;stroke:none"
       d="m 498.72949,217.59982 c -10.4676,0.49745 -18.75001,7.10359 -18.75,15.125 0,6.82897 6.00337,12.59574 14.25,14.46875 l 0,38.53125 c -5.46851,8.92324 -12.87735,13.5377 -24.34375,13.28125 -11.235,0.21501 -15.07575,-3.33 -21.84375,-12.25 -2.496,6.20899 -6.82075,20.2665 -25.96875,19.8125 -10.71142,0.28684 -17.39275,-3.29269 -21.875,-13.5 5.12504,14.53201 10.35952,22.67363 26.09375,23.1875 14.47601,0.17399 21.113,-8.2035 24.25,-13.9375 10.429,5.53999 11.49525,6.75325 26.28125,6.40625 11.03699,-0.35501 17.38175,-7.54525 23.09375,-14.40625 5.712,6.86099 12.05675,14.05125 23.09374,14.40625 14.78598,0.34699 15.85225,-0.86625 26.28125,-6.40625 3.13699,5.73399 9.74274,14.1115 24.21874,13.9375 15.79828,-0.51598 21.0125,-8.72997 26.71878,-23.125 -4.95678,10.19573 -11.63622,13.81967 -22.40628,13.53125 -19.148,0.454 -23.47274,-13.6035 -25.96874,-19.8125 -6.76798,8.92 -10.60875,12.465 -21.84375,12.25 -11.44251,0.25591 -18.84734,-4.32316 -24.31249,-13.25 l 0,-38.65625 c 8.2952,-1.85021 14.37498,-7.6137 14.37499,-14.46875 0,-8.34471 -9.0009,-15.125 -20.06249,-15.125 -0.30247,0 -0.60704,-0.01 -0.90625,0 -0.12473,0.004 -0.25088,-0.006 -0.375,0 z m 0.59375,9.21875 c 0.2222,-0.008 0.43052,0 0.65625,0 5.77875,0 10.46875,2.66 10.46875,5.9375 0,3.2775 -4.69,5.9375 -10.46875,5.9375 -5.77875,0 -10.46875,-2.66 -10.46875,-5.9375 0,-3.14947 4.3465,-5.7408 9.8125,-5.9375 z m 101.03126,66 c -0.0189,0.0415 -0.0124,0.0836 -0.0313,0.125 0.0172,-0.0407 0.0141,-0.0841 0.0313,-0.125 z" />
    <path
       id="path4048"
       style="font-size:12px;fill:#ffcc00;fill-opacity:1;fill-rule:evenodd;stroke:none"
       d="m 451.60974,308.06507 5.225,7.241 10.019,-0.294 -7.732,8.762 -15.137,0.387 -4.735,-6.342 8.743,-1.413 3.671,-8.32" />
    <path
       id="path4053"
       style="fill:#ffcc00;fill-opacity:1;fill-rule:evenodd;stroke:none"
       d="m 487.36274,312.71707 c 0,-0.039 6.875,0.039 6.875,0.039 l 5.781,-4.609 5.644,4.551 6.817,0.098 -6.133,9.062 -12.891,0 -6.093,-9.141 z" />
    <path
       id="path4100"
       style="font-size:12px;fill:#ffcc00;fill-opacity:1;fill-rule:evenodd;stroke:none"
       d="m 574.33472,344.99107 c -26.73099,-5.519 -44.62199,-8.234 -74.41298,-8.234 -29.791,0 -47.682,2.715 -74.244,8.168 l -0.037,-11.525 c 26.599,-5.503 44.49,-8.219 74.281,-8.219 29.79099,0 47.68199,2.716 74.28098,8.219 l 0.132,11.591 z" />
    <use
       style="fill:#ffcc00;fill-opacity:1;stroke:none"
       xlink:href="#path4048"
       height="496.06299"
       width="992.12598"
       y="0"
       x="0"
       id="use1318"
       transform="matrix(-1,0,0,1,999.7067,0)" />
    <use
       style="fill:#ffcc00;fill-opacity:1;stroke:none"
       xlink:href="#polygon3941"
       height="496.06299"
       width="992.12598"
       y="0"
       x="0"
       id="use1320"
       transform="translate(11.4908,-50.38161)" />
    <use
       style="fill:#ffcc00;fill-opacity:1;stroke:none"
       xlink:href="#polygon3941"
       height="496.06299"
       width="992.12598"
       y="0"
       x="0"
       id="use1322"
       transform="translate(50.3818,-91.48161)" />
    <use
       style="fill:#ffcc00;fill-opacity:1;stroke:none"
       xlink:href="#polygon3941"
       height="496.06299"
       width="992.12598"
       y="0"
       x="0"
       id="use1324"
       transform="translate(102.7518,-105.1816)" />
  </g>
</svg>
