<?xml version="1.0" encoding="UTF-8" standalone="no"?>
<svg
   xmlns:dc="http://purl.org/dc/elements/1.1/"
   xmlns:cc="http://creativecommons.org/ns#"
   xmlns:rdf="http://www.w3.org/1999/02/22-rdf-syntax-ns#"
   xmlns:svg="http://www.w3.org/2000/svg"
   xmlns="http://www.w3.org/2000/svg"
   xmlns:sodipodi="http://sodipodi.sourceforge.net/DTD/sodipodi-0.dtd"
   xmlns:inkscape="http://www.inkscape.org/namespaces/inkscape"
   width="900"
   height="600"
   viewBox="0 0 225 150"
   id="svg2833"
   version="1.1"
   inkscape:version="0.47 r22583"
   sodipodi:docname="Flag_of_Malaysia.svg">
  <metadata
     id="metadata2854">
    <rdf:RDF>
      <cc:Work
         rdf:about="">
        <dc:format>image/svg+xml</dc:format>
        <dc:type
           rdf:resource="http://purl.org/dc/dcmitype/StillImage" />
      </cc:Work>
    </rdf:RDF>
  </metadata>
  <sodipodi:namedview
     pagecolor="#ffffff"
     bordercolor="#666666"
     borderopacity="1"
     objecttolerance="10"
     gridtolerance="10"
     guidetolerance="10"
     inkscape:pageopacity="0"
     inkscape:pageshadow="2"
     inkscape:window-width="804"
     inkscape:window-height="808"
     id="namedview2852"
     showgrid="false"
     inkscape:zoom="0.56026786"
     inkscape:cx="448"
     inkscape:cy="224"
     inkscape:window-x="0"
     inkscape:window-y="0"
     inkscape:window-maximized="0"
     inkscape:current-layer="svg2833" />
  <defs
     id="defs2835">
    <inkscape:perspective
       sodipodi:type="inkscape:persp3d"
       inkscape:vp_x="0 : 224 : 1"
       inkscape:vp_y="0 : 1000 : 0"
       inkscape:vp_z="896 : 224 : 1"
       inkscape:persp3d-origin="448 : 149.33333 : 1"
       id="perspective2856" />
    <pattern
       id="str"
       patternUnits="userSpaceOnUse"
       width="99"
       height="16"
       patternTransform="scale(1.0044643,1.3392857)">
      <rect
         fill="#fff"
         width="99"
         height="16"
         id="rect2838" />
      <rect
         fill="#dc241f"
         width="99"
         height="8"
         id="rect2840" />
    </pattern>
  </defs>
  <rect
     width="225"
     height="150"
     id="rect2842"
     x="0"
     y="0"
     style="fill:url(#str)" />
  <rect
     width="112.5"
     height="85.714287"
     id="rect2844"
     x="0"
     y="0"
     style="fill:#0035ad" />
  <circle
     cx="46"
     cy="32"
     r="24"
     id="circle2846"
     sodipodi:cx="46"
     sodipodi:cy="32"
     sodipodi:rx="24"
     sodipodi:ry="24"
     style="fill:#ffd100"
     transform="scale(1.0044643,1.3392857)" />
  <circle
     cx="51"
     cy="32"
     r="21"
     id="circle2848"
     sodipodi:cx="51"
     sodipodi:cy="32"
     sodipodi:rx="21"
     sodipodi:ry="21"
     style="fill:#0035ad"
     transform="scale(1.0044643,1.3392857)" />
  <polygon
     points="50.5014,27.5496 62.7922,28.5289 54.3634,19.5302 65.0121,25.7453 61.3223,13.9806 68.2198,24.2006 70,12 71.7802,24.2006 78.6777,13.9806 74.9879,25.7453 85.6366,19.5302 77.2078,28.5289 89.4986,27.5496 78,32 89.4986,36.4504 77.2078,35.4711 85.6366,44.4698 74.9879,38.2547 78.6777,50.0194 71.7802,39.7994 70,52 68.2198,39.7994 61.3223,50.0194 65.0121,38.2547 54.3634,44.4698 62.7922,35.4711 50.5014,36.4504 62,32 "
     id="polygon2850"
     style="fill:#ffd100"
     transform="scale(1.0044643,1.3392857)" />
</svg>
