<?xml version="1.0" encoding="UTF-8" standalone="no"?>
<!-- Created with Inkscape (http://www.inkscape.org/) -->

<svg
   xmlns:dc="http://purl.org/dc/elements/1.1/"
   xmlns:cc="http://creativecommons.org/ns#"
   xmlns:rdf="http://www.w3.org/1999/02/22-rdf-syntax-ns#"
   xmlns:svg="http://www.w3.org/2000/svg"
   xmlns="http://www.w3.org/2000/svg"
   xmlns:xlink="http://www.w3.org/1999/xlink"
   xmlns:sodipodi="http://sodipodi.sourceforge.net/DTD/sodipodi-0.dtd"
   xmlns:inkscape="http://www.inkscape.org/namespaces/inkscape"
   version="1.0"
   width="900"
   height="600"
   id="Kazakhstan_svg"
   sodipodi:version="0.32"
   inkscape:version="0.47 r22583"
   sodipodi:docname="Flag_of_Kazakhstan.svg"
   inkscape:output_extension="org.inkscape.output.svg.inkscape">
  <metadata
     id="metadata64">
    <rdf:RDF>
      <cc:Work
         rdf:about="">
        <dc:format>image/svg+xml</dc:format>
        <dc:type
           rdf:resource="http://purl.org/dc/dcmitype/StillImage" />
      </cc:Work>
    </rdf:RDF>
  </metadata>
  <sodipodi:namedview
     inkscape:window-height="721"
     inkscape:window-width="905"
     inkscape:pageshadow="2"
     inkscape:pageopacity="0.0"
     guidetolerance="10.0"
     gridtolerance="10.0"
     objecttolerance="10.0"
     borderopacity="1.0"
     bordercolor="#666666"
     pagecolor="#ffffff"
     id="base"
     showgrid="false"
     inkscape:zoom="0.272"
     inkscape:cx="1000"
     inkscape:cy="500"
     inkscape:window-x="46"
     inkscape:window-y="46"
     inkscape:current-layer="Kazakhstan_svg"
     inkscape:window-maximized="0" />
  <desc
     id="desc4286">Flag of the Republic of Kazakhstan</desc>
  <defs
     id="defs4288">
    <inkscape:perspective
       sodipodi:type="inkscape:persp3d"
       inkscape:vp_x="0 : 500 : 1"
       inkscape:vp_y="0 : 1000 : 0"
       inkscape:vp_z="2000 : 500 : 1"
       inkscape:persp3d-origin="1000 : 333.33333 : 1"
       id="perspective66" />
    <path
       d="M 0,-76.45 C 4,-76.5 5.5,-79 5.5,-82 5.5,-86 0,-105.05 0,-105.05 c 0,0 -5.5,19.05 -5.5,23.05 0,3 1.5,5.55 5.5,5.55 l 0,0 z"
       id="be" />
    <path
       d="M -1,15 C -1,5 8,-0.14 15.072121,-0.14 24.6,-0.14 29.67324,5.5429809 29.67324,12.982057 c 0,4.216943 -0.77453,6.862993 -2.723723,10.899372 0,0 -15.71719,32.605508 -21.8357613,45.217369 -0.7630925,1.572919 -1.0092938,3.36345 -1.0092938,5.988477 0,4.053949 3.9415746,7.36734 8.0743511,7.468774 3.767459,0.094 7.872492,-3.503851 7.872492,-7.603347 0,-4.979637 -2.58936,-7.19963 -5.248328,-7.19963 -3.271751,0 -4.575466,1.341771 -4.575466,3.633458 0,1.596848 0.773082,2.287733 1.884016,2.287733 2.806263,0 2.018587,-3.768031 2.018587,-3.768031 1.393782,0.304404 2.538849,1.725029 1.884016,3.498886 1.019574,0.226468 1.974662,0.760403 2.725094,1.61487 -0.752279,0.727562 -1.615181,1.289188 -2.725094,1.480298 0.65722,2.164411 -0.220997,3.221985 -2.119517,3.667102 0.383111,-0.832602 0.396293,-1.598469 0.269144,-2.321377 -2.98887,0.847877 -7.5697036,-0.501403 -7.5697036,-5.652046 0,-5.113755 3.5576406,-9.419601 10.2275116,-8.343496 -1.586867,-0.756873 -2.39395,-2.305515 -2.556878,-4.037175 1.211152,0.471004 2.556878,0.53829 2.556878,0.53829 -0.779889,-1.371856 -1.863139,-2.554394 -1.81673,-5.248329 1.236747,0.560857 2.385064,1.599431 3.96989,0.942008 -2.487297,-4.882597 0.568594,-11.598755 8.343496,-13.188106 -2.84552,3.327257 -4.239033,6.920106 -4.239033,10.496656 0,11.591668 3.229739,13.539642 3.229739,21.598889 0,3.371738 -1.737506,7.012976 -5.181042,9.487363 l 0,-0.134573 C 23.404326,84.912519 24.861687,86.031471 25.7,87.55 20.49988,89.02142 12.941391,88.993633 8.8817862,87.40066 4.2161824,86.86237 0.95971684,83.290648 0,81.479469 -0.95971684,79.66829 -2.8236958,73.114579 0,67.214782 3.0903362,60.75787 17.661431,29.937676 22.204465,20.248974 c 0.963601,-2.055024 1.547584,-4.234337 1.547584,-6.594054 0,-5.9349377 -5.450186,-8.0070646 -8.545354,-8.0070646 -3.700745,0 -7.4687752,2.8124651 -7.4687752,6.3249086 0,2.225615 1.2111527,3.566171 2.9605952,3.566171 4.183321,0 3.929247,-3.550005 3.095168,-5.7866178 2.60348,1.1675578 4.116765,3.2520238 3.700745,5.4501868 1.473954,0.201405 2.877041,0.898878 4.171747,2.355019 -1.018709,1.283201 -2.261159,2.253163 -4.171747,2.287733 0.83444,3.409984 -1.454254,4.852206 -3.700745,5.652046 0.710675,-2.502689 1.177186,-5.382901 -3.095168,-5.382901 -3.1149621,0 -5.5679378,-0.53829 -6.9977708,-2.556878 -0.084108,2.69145 -0.3364313,13.322679 -0.3364313,13.322679 -0.1794299,3.994995 5.3604723,3.880757 8.8817871,2.69145 -1.328946,4.601773 -4.0542681,7.089784 -10.3620847,6.459482 1.5307623,0.639219 3.1624541,2.076214 3.1624541,4.84461 C 5.0464694,48.622585 2,52.772886 0,54 L -1,15 z"
       id="orn" />
    <path
       d="m 0,-35.598637 c 0,0 4.7530782,-3.984418 6.3671251,-1.985935 2.5960642,3.214398 -7.9819954,19.224799 -7.9819954,24.863264 0,9.2549809 6.1901739,11.7717331 13.8339193,13.09294956 C 17.347761,1.258136 25.7,0 25.7,0 c -1.572542,-2.1078802 -2.595288,-2.7289755 -5.244977,-2.8975143 2.949871,-1.5277505 5.953844,-4.8440913 5.953844,-10.0073457 0,-7.961708 -3.285482,-11.242748 -3.285482,-20.218531 0,-4.979183 4.092917,-11.317617 4.092917,-11.317617 -7.234299,0.722275 -10.820126,7.404693 -8.779866,12.744974 -1.151593,0.165479 -2.197171,-0.09311 -3.095169,-0.942008 -0.529451,1.480298 0.306354,3.198489 1.425957,4.678787 -0.901733,0.480681 -1.563958,0.192421 -3.00001,-0.103321 0.136175,1.525155 1.052336,3.145468 3.293645,4.670623 -6.504082,-1.684464 -10.5062208,2.837568 -10.5062208,7.571515 0,3.575836 2.5119384,6.1385558 4.9670588,6.1385558 0.793466,0 1.959017,-0.3260038 2.616581,-0.8155988 0.463523,0.9841443 0.224671,2.3013385 -0.252819,3.2854828 1.799612,-0.4745368 2.941766,-1.5407253 2.128671,-3.7598648 1.382216,-0.126666 2.481735,-0.592568 3.229741,-1.480285 -0.757814,-0.96814 -1.907405,-1.525805 -3.229741,-1.480286 1.006389,-2.071813 -0.115154,-3.231681 -1.749443,-4.171775 0,0 1.039315,4.171748 -1.61487,4.171748 -1.193502,0 -2.28097,-0.387585 -2.28097,-2.142196 0,-1.527906 1.338962,-3.644423 4.43413,-3.50985 3.095168,0.134572 5.604467,2.128885 5.604467,7.057714 0,4.5467891 -3.676246,6.8081176 -8.520525,6.9541546 -4.3688247,0.1345725 -7.6661917,-2.2263345 -7.6661917,-6.7218636 0,-5.983486 8.6588197,-19.621698 8.6588197,-24.954459 0,-4.000561 -3.606408,-6.233713 -7.1351451,-6.233713 -4.5754658,0 -8.4358523,4.519724 -8.4358523,4.519724 L 0,-35.598637 z"
       id="uorn" />
  </defs>
  <rect
     width="899.79028"
     height="599.84741"
     x="0.10487032"
     y="0.076293945"
     id="rect4293"
     style="fill:#00afca;fill-opacity:1" />
  <use
     transform="matrix(0.88208104,0.23393744,-0.17545681,1.1760831,486.20378,252.01221)"
     id="use3938"
     style="fill:#fec50c;fill-opacity:1"
     x="0"
     y="0"
     width="1000"
     height="500"
     xlink:href="#be" />
  <use
     transform="matrix(0.83090209,0.45888485,-0.34417094,1.1078459,486.20378,252.01221)"
     id="use3940"
     style="fill:#fec50c;fill-opacity:1"
     x="0"
     y="0"
     width="1000"
     height="500"
     xlink:href="#be" />
  <use
     transform="matrix(0.74779211,0.66619746,-0.4996587,0.99703497,486.20378,252.01221)"
     id="use3942"
     style="fill:#fec50c;fill-opacity:1"
     x="0"
     y="0"
     width="1000"
     height="500"
     xlink:href="#be" />
  <use
     transform="matrix(0.6359449,0.84790852,-0.6359449,0.84790852,486.20378,252.01221)"
     id="use3944"
     style="fill:#fec50c;fill-opacity:1"
     x="0"
     y="0"
     width="1000"
     height="500"
     xlink:href="#be" />
  <use
     transform="matrix(0.4996587,0.99703497,-0.74779211,0.66619746,486.20378,252.01221)"
     id="use3946"
     style="fill:#fec50c;fill-opacity:1"
     x="0"
     y="0"
     width="1000"
     height="500"
     xlink:href="#be" />
  <use
     transform="matrix(0.34417094,1.1078459,-0.83090209,0.45888485,486.20378,252.01221)"
     id="use3948"
     style="fill:#fec50c;fill-opacity:1"
     x="0"
     y="0"
     width="1000"
     height="500"
     xlink:href="#be" />
  <use
     transform="matrix(0.17545681,1.1760831,-0.88208104,0.23393744,486.20378,252.01221)"
     id="use3950"
     style="fill:#fec50c;fill-opacity:1"
     x="0"
     y="0"
     width="1000"
     height="500"
     xlink:href="#be" />
  <use
     transform="matrix(0,1.1991239,-0.899362,0,486.20378,252.01221)"
     id="use3952"
     style="fill:#fec50c;fill-opacity:1"
     x="0"
     y="0"
     width="1000"
     height="500"
     xlink:href="#be" />
  <use
     transform="matrix(-0.17545681,1.1760831,-0.88208104,-0.23393744,486.20378,252.01221)"
     id="use3954"
     style="fill:#fec50c;fill-opacity:1"
     x="0"
     y="0"
     width="1000"
     height="500"
     xlink:href="#be" />
  <use
     transform="matrix(-0.34417094,1.1078459,-0.83090209,-0.45888485,486.20378,252.01221)"
     id="use3956"
     style="fill:#fec50c;fill-opacity:1"
     x="0"
     y="0"
     width="1000"
     height="500"
     xlink:href="#be" />
  <use
     transform="matrix(-0.4996587,0.99703497,-0.74779211,-0.66619746,486.20378,252.01221)"
     id="use3958"
     style="fill:#fec50c;fill-opacity:1"
     x="0"
     y="0"
     width="1000"
     height="500"
     xlink:href="#be" />
  <use
     transform="matrix(-0.6359449,0.84790852,-0.6359449,-0.84790852,486.20378,252.01221)"
     id="use3960"
     style="fill:#fec50c;fill-opacity:1"
     x="0"
     y="0"
     width="1000"
     height="500"
     xlink:href="#be" />
  <use
     transform="matrix(-0.74779211,0.66619746,-0.4996587,-0.99703497,486.20378,252.01221)"
     id="use3962"
     style="fill:#fec50c;fill-opacity:1"
     x="0"
     y="0"
     width="1000"
     height="500"
     xlink:href="#be" />
  <use
     transform="matrix(-0.83090209,0.45888485,-0.34417094,-1.1078459,486.20378,252.01221)"
     id="use3964"
     style="fill:#fec50c;fill-opacity:1"
     x="0"
     y="0"
     width="1000"
     height="500"
     xlink:href="#be" />
  <use
     transform="matrix(-0.74779211,-0.66619746,0.4996587,-0.99703497,486.20378,252.01221)"
     id="use3974"
     style="fill:#fec50c;fill-opacity:1"
     x="0"
     y="0"
     width="1000"
     height="500"
     xlink:href="#be" />
  <use
     transform="matrix(-0.6359449,-0.84790852,0.6359449,-0.84790852,486.20378,252.01221)"
     id="use3976"
     style="fill:#fec50c;fill-opacity:1"
     x="0"
     y="0"
     width="1000"
     height="500"
     xlink:href="#be" />
  <use
     transform="matrix(-0.4996587,-0.99703497,0.74779211,-0.66619746,486.20378,252.01221)"
     id="use3978"
     style="fill:#fec50c;fill-opacity:1"
     x="0"
     y="0"
     width="1000"
     height="500"
     xlink:href="#be" />
  <use
     transform="matrix(-0.34417094,-1.1078459,0.83090209,-0.45888485,486.20378,252.01221)"
     id="use3980"
     style="fill:#fec50c;fill-opacity:1"
     x="0"
     y="0"
     width="1000"
     height="500"
     xlink:href="#be" />
  <use
     transform="matrix(-0.17545681,-1.1760831,0.88208104,-0.23393744,486.20378,252.01221)"
     id="use3982"
     style="fill:#fec50c;fill-opacity:1"
     x="0"
     y="0"
     width="1000"
     height="500"
     xlink:href="#be" />
  <use
     transform="matrix(0,-1.1991239,0.899362,0,486.20378,252.01221)"
     id="use3984"
     style="fill:#fec50c;fill-opacity:1"
     x="0"
     y="0"
     width="1000"
     height="500"
     xlink:href="#be" />
  <use
     transform="matrix(0.17545681,-1.1760831,0.88208104,0.23393744,486.20378,252.01221)"
     id="use3986"
     style="fill:#fec50c;fill-opacity:1"
     x="0"
     y="0"
     width="1000"
     height="500"
     xlink:href="#be" />
  <use
     transform="matrix(0.34417094,-1.1078459,0.83090209,0.45888485,486.20378,252.01221)"
     id="use3988"
     style="fill:#fec50c;fill-opacity:1"
     x="0"
     y="0"
     width="1000"
     height="500"
     xlink:href="#be" />
  <use
     transform="matrix(0.4996587,-0.99703497,0.74779211,0.66619746,486.20378,252.01221)"
     id="use3990"
     style="fill:#fec50c;fill-opacity:1"
     x="0"
     y="0"
     width="1000"
     height="500"
     xlink:href="#be" />
  <use
     transform="matrix(0.6359449,-0.84790852,0.6359449,0.84790852,486.20378,252.01221)"
     id="use3992"
     style="fill:#fec50c;fill-opacity:1"
     x="0"
     y="0"
     width="1000"
     height="500"
     xlink:href="#be" />
  <circle
     cx="0"
     cy="0"
     r="68.699997"
     transform="matrix(0.88112443,0,0,1.1748076,486.1268,252.11482)"
     id="circle3934"
     style="fill:#fec50c;fill-opacity:1"
     sodipodi:cx="0"
     sodipodi:cy="0"
     sodipodi:rx="68.699997"
     sodipodi:ry="68.699997" />
  <use
     transform="matrix(0.899362,0,0,1.1991239,486.20378,252.01221)"
     id="use3936"
     style="fill:#fec50c;fill-opacity:1"
     x="0"
     y="0"
     width="1000"
     height="500"
     xlink:href="#be" />
  <use
     transform="matrix(-0.88208104,0.23393744,-0.17545681,-1.1760831,486.20378,252.01221)"
     id="use3966"
     style="fill:#fec50c;fill-opacity:1"
     x="0"
     y="0"
     width="1000"
     height="500"
     xlink:href="#be" />
  <use
     transform="matrix(-0.899362,0,0,-1.1991239,486.20378,252.01221)"
     id="use3968"
     style="fill:#fec50c;fill-opacity:1"
     x="0"
     y="0"
     width="1000"
     height="500"
     xlink:href="#be" />
  <use
     transform="matrix(-0.88208104,-0.23393744,0.17545681,-1.1760831,486.20378,252.01221)"
     id="use3970"
     style="fill:#fec50c;fill-opacity:1"
     x="0"
     y="0"
     width="1000"
     height="500"
     xlink:href="#be" />
  <use
     transform="matrix(-0.83090209,-0.45888485,0.34417094,-1.1078459,486.20378,252.01221)"
     id="use3972"
     style="fill:#fec50c;fill-opacity:1"
     x="0"
     y="0"
     width="1000"
     height="500"
     xlink:href="#be" />
  <use
     transform="matrix(0.74779211,-0.66619746,0.4996587,0.99703497,486.20378,252.01221)"
     id="use3994"
     style="fill:#fec50c;fill-opacity:1"
     x="0"
     y="0"
     width="1000"
     height="500"
     xlink:href="#be" />
  <use
     transform="matrix(0.83090209,-0.45888485,0.34417094,1.1078459,486.20378,252.01221)"
     id="use3996"
     style="fill:#fec50c;fill-opacity:1"
     x="0"
     y="0"
     width="1000"
     height="500"
     xlink:href="#be" />
  <use
     transform="matrix(0.88208104,-0.23393744,0.17545681,1.1760831,486.20378,252.01221)"
     id="use3998"
     style="fill:#fec50c;fill-opacity:1"
     x="0"
     y="0"
     width="1000"
     height="500"
     xlink:href="#be" />
  <path
     d="m 484.09584,392.94685 -1.04447,2.78523 -1.16055,3.55891 -0.69631,1.70209 -0.58027,1.54735 -0.4642,1.23788 -0.58028,0.77368 -1.39265,-1.54735 -1.50872,-1.39262 -1.62475,-1.08314 -1.74078,-0.92842 -1.8569,-0.61894 -1.85685,-0.61894 -1.85685,-0.4642 -1.97293,-0.30948 -4.06188,-0.4642 -4.06187,-0.15474 -3.94586,-0.30947 -3.71373,-0.61894 -2.08897,-0.46421 -1.97291,-0.61894 -1.04449,-0.46421 -1.04449,-0.4642 -0.92843,-0.61894 -0.81238,-0.61894 -1.27659,-1.08315 -1.2766,-1.23788 -1.39264,-1.39262 -1.2766,-1.54736 -2.66924,-3.40417 -2.66924,-3.40418 -2.66924,-3.24944 -2.43713,-2.93998 -1.16054,-1.08314 -1.16054,-1.08315 -1.04449,-0.61894 -1.04448,-0.4642 -1.97292,-0.61895 -1.74081,-0.77367 -1.74081,-0.77368 -1.74081,-1.08315 -1.5087,-0.92841 -1.5087,-1.23789 -1.39265,-1.23788 -1.2766,-1.23788 -1.39264,-1.39262 -1.16054,-1.39261 -1.16054,-1.54736 -1.16054,-1.54735 -2.20503,-3.24944 -2.08897,-3.40418 -4.17794,-7.27256 -4.41005,-7.4273 -2.55319,-3.55891 -2.66924,-3.55891 -1.5087,-1.85683 -1.5087,-1.70209 -1.62476,-1.54735 -1.74081,-1.70209 -0.34816,0.15473 -0.34817,0.46421 -0.34816,0.61894 -0.23211,0.77368 -0.34816,1.39262 -0.11605,0.61894 -0.81238,-0.4642 -0.69632,-0.46421 -0.81238,-0.46421 -0.69632,-0.30947 -1.5087,0 -0.81238,0.30947 -0.81238,0.46421 0.81238,1.39261 1.04448,1.85683 1.04449,2.1663 0.92843,2.32102 0.92843,2.47577 0.69633,2.32103 0.2321,1.23788 0.23211,0.92842 0.11606,1.08314 0,0.92842 -1.2766,0 -4.99032,0 0.92844,1.85682 1.04448,1.85683 1.16054,1.85682 1.27659,1.70209 1.2766,1.70208 1.27659,1.70209 1.27659,1.39262 1.16055,1.08315 -1.2766,0.15473 -1.74081,0.15474 -1.74081,0.30947 -1.27659,0.15473 1.04448,1.23789 1.2766,1.23788 1.39264,1.39262 1.5087,1.39262 1.50871,1.23788 1.5087,1.08315 1.39265,0.61894 1.27659,0.4642 0.58027,0.15474 0.46422,0.15474 0.34816,0.15473 0.23211,0.30947 0.11605,0.15474 0,0.61894 -0.11605,0.30947 -0.23211,0.92841 -0.11606,0.92841 -0.11605,0.61894 0,0.46421 0.11605,0.77367 0.11606,0.61895 0.23211,0.30947 0.34816,0.30947 0.46421,0.30947 0.58027,0.15474 0.58027,0.30947 0.58027,0.30947 0.58027,0.30947 0.46422,0.4642 0.11605,0.15474 0,0.30947 -0.11605,0.15473 -0.46422,0.46421 -0.46421,0.46421 -0.46422,0.61894 -0.46422,0.77368 0,0.61894 -0.11605,0.61894 0.11605,0.77367 0.11606,0.92842 1.97292,0.92841 2.08897,0.92841 0.92843,0.30947 0.92843,0.46421 0.69633,0.46421 0.58027,0.4642 -3.82978,4.02312 1.04448,1.23788 1.27659,0.92841 1.62476,1.08315 1.62475,0.77368 1.85687,0.77368 1.74081,0.4642 1.5087,0.46421 1.39265,0 -1.27659,1.23788 -1.62476,1.39262 -1.74081,1.23788 -1.2766,1.23788 1.16054,1.08315 1.62476,1.08315 1.85687,1.23788 2.20502,1.39262 5.10637,2.93997 5.5706,2.93997 5.8027,2.78524 5.68664,2.47577 2.55318,1.08314 2.32109,0.77368 2.08897,0.77367 1.85686,0.46421 -3.71372,-0.46421 -3.48163,-0.61894 -3.48161,-0.77367 -3.24951,-0.92842 -3.24952,-1.23788 -3.13345,-1.23788 -3.01741,-1.39262 -2.90135,-1.54735 -5.68664,-3.09471 -5.33849,-3.0947 -2.55318,-1.39263 -2.55319,-1.39262 -2.43713,-1.23788 -2.43714,-1.23788 0.58027,-0.4642 0.69633,-0.30947 0.92843,-0.46421 1.04449,-0.30947 2.20502,-0.92842 1.97292,-0.9284 -3.48162,-0.77368 -4.75822,-1.23788 -2.32107,-0.92842 -1.97292,-0.77367 -0.81238,-0.46421 -0.69632,-0.46421 -0.58027,-0.4642 -0.34816,-0.46421 0,-0.15473 0.11605,-0.15474 0.34816,-0.15474 0.34816,-0.30946 0.92844,-0.46421 1.27659,-0.46421 2.78529,-1.08315 2.32108,-1.08314 -5.68664,-1.39262 -4.41005,-0.92841 -1.62476,-0.46421 -1.27659,-0.61894 -0.46422,-0.30947 -0.46421,-0.4642 -0.34817,-0.30948 -0.2321,-0.4642 0.34816,-0.30948 1.04448,-0.30946 1.5087,-0.30948 1.74081,-0.4642 1.85687,-0.30947 1.62476,-0.61894 0.81237,-0.30947 0.69633,-0.30947 0.46421,-0.46421 0.46422,-0.46421 -0.92843,-0.4642 -0.92843,-0.46421 -1.16054,-0.30947 -1.16054,-0.30947 -2.66925,-0.46421 -2.66924,-0.4642 -1.39264,-0.46421 -1.2766,-0.30947 -1.27659,-0.61894 -1.27659,-0.61894 -1.16055,-0.77368 -1.04448,-1.08315 -0.92843,-1.08314 -0.69633,-1.39262 0.23211,-0.15474 0.46422,-0.15473 0.58026,0 0.92844,0.15473 2.08897,0.15474 2.32108,0.15473 2.55319,0.30948 3.24951,0 0.92843,-0.15474 0.69633,-0.30947 0.46421,-0.30947 -2.7853,-1.54736 -3.71372,-2.16629 -2.08897,-1.39262 -2.20503,-1.39262 -2.20503,-1.54735 -2.20502,-1.54736 -2.08897,-1.70208 -1.97292,-1.85683 -1.85686,-1.85682 -1.62476,-1.85682 -0.69632,-1.08315 -0.69633,-0.92841 -0.46421,-0.92841 -0.46422,-1.08315 -0.46422,-0.92841 -0.2321,-1.08315 -0.11606,-0.92842 -0.11605,-1.08314 0.81238,0 0.92843,0.15474 0.92843,0.4642 0.92843,0.4642 1.85687,1.54736 2.08897,1.54735 0.92843,0.77368 1.04449,0.77368 1.04448,0.61894 0.92843,0.4642 1.04449,0.30947 0.92843,0.15474 1.04449,0 0.92843,-0.46421 -2.7853,-2.78523 -3.13345,-3.55892 -3.59768,-4.17785 -3.59767,-4.64206 -3.59767,-4.95153 -3.36557,-4.95153 -1.5087,-2.6305 -1.5087,-2.47577 -1.2766,-2.47577 -1.16054,-2.32103 -0.2321,-0.61894 0,-1.08314 0.11605,-0.46421 0.11605,-0.46421 0.34817,-0.30946 0.34816,-0.46421 0.34816,-0.30947 0.46421,-0.15474 0.46422,-0.15473 0.92843,0 0.58027,0.15473 0.46422,0.15474 0.46422,0.4642 0.34816,0.46421 2.08897,2.78523 2.43713,3.24945 2.55319,3.55891 2.7853,3.55891 2.78529,3.24944 2.78529,3.09471 1.39265,1.23788 1.27659,1.08315 1.39265,0.92841 1.2766,0.61895 -0.92843,-0.77368 -1.04449,-1.39262 -1.39265,-1.85682 -1.5087,-2.32104 -3.36556,-5.41573 -3.71373,-6.34415 -1.85687,-3.40417 -1.7408,-3.40419 -1.62476,-3.40417 -1.62475,-3.24944 -1.39265,-3.09471 -1.16054,-2.78524 -0.81238,-2.6305 -0.69633,-2.16629 -0.11605,-0.77368 0,-1.23788 0.11605,-0.46421 0.23211,-0.4642 0.23211,-0.46421 0.23211,-0.30947 0.34816,-0.30947 0.81238,-0.30947 0.69632,-0.30947 1.62476,0 0.46422,0.15473 0.34816,0.15474 0.46421,0.30947 0.34816,0.46421 0.92844,1.08314 0.92843,1.54736 2.08897,3.55891 2.20503,4.48732 2.55318,4.7968 2.66924,4.95153 1.39265,2.32103 1.39265,2.32103 1.5087,2.01156 1.62476,1.85682 -1.97292,-5.10626 -2.20503,-5.87994 -1.16054,-3.24945 -1.04448,-3.24944 -1.04449,-3.40418 -0.92843,-3.40418 -0.81238,-3.55891 -0.81237,-3.40418 -0.58027,-3.40417 -0.46422,-3.40418 -0.23211,-3.24944 -0.11605,-3.09471 0.11605,-1.54735 0.11606,-1.39262 0.11605,-1.39262 0.23211,-1.39262 0.23211,-0.4642 0.11605,-0.46421 0.34816,-0.46421 0.23211,-0.30947 0.81238,-0.4642 0.81237,-0.30947 0.81238,0 0.69633,0.15473 0.34816,0.15474 0.23211,0.15473 0.11605,0.30947 0.11605,0.46421 1.16054,4.95153 1.04449,5.261 1.04448,5.41574 1.04449,5.261 1.04449,5.26101 1.39265,4.95153 0.69632,2.32102 0.81238,2.32103 0.92843,2.1663 1.04448,2.16629 -0.69632,-4.48732 -0.46422,-4.02312 -0.46421,-3.71365 -0.23211,-3.40418 -0.23211,-2.93997 -0.11605,-2.6305 0.11605,-2.16629 0.11606,-1.85683 0.2321,-1.54735 0.34817,-1.23788 0.2321,-0.46421 0.23211,-0.4642 0.23211,-0.30948 0.34816,-0.30947 0.34816,-0.15473 1.04449,0 0.92843,0.4642 0.92843,0.61894 0.81238,4.95154 0.81238,4.79679 0.92843,4.48733 1.04449,4.33259 1.16054,4.33259 1.27659,4.33259 1.39265,4.48732 1.62475,4.48732 1.16054,2.93998 1.16054,2.93997 1.2766,2.93997 1.27659,2.93997 1.39265,2.78524 1.39264,2.78523 1.50871,2.78524 1.5087,2.78523 2.78529,4.64207 2.90135,4.33259 3.01741,4.33259 3.13345,4.02311 3.24952,4.02312 3.36556,3.71365 3.48162,3.55891 3.59767,3.40418 2.43714,2.16629 2.55318,2.01157 2.66924,2.01156 2.55319,1.85682 4.06189,2.6305 3.94583,2.47577 4.17795,2.16629 4.17792,2.01156 3.94585,1.70209 4.06188,1.39262 4.17795,1.23788 4.06188,1.08315 4.29402,0.77368 4.17795,0.61894 4.29398,0.4642 4.29398,0.30948"
     id="path13"
     style="fill:#fec50c;fill-opacity:1;fill-rule:evenodd;stroke:none" />
  <path
     d="m 494.65677,439.98639 1.97293,0.30947 0.92844,0.46421 0.23211,0.15473 0,0.15473 -0.23211,0 -0.23214,0.15474 -1.85685,0.4642 -1.50868,0 -4.8743,-0.4642 -5.91873,-0.15474 -6.38298,-0.15473 -6.61508,0.15473 -3.13347,0.15474 -3.13343,0.30947 -2.7853,0.30947 -2.66923,0.30947 -2.20503,0.46421 -1.97292,0.61894 -0.69635,0.30947 -0.6963,0.30947 -0.58028,0.30947 -0.4642,0.46421 0.2321,-1.54736 0.46421,-1.54735 -0.81238,0.30947 -0.81238,0.30947 -0.6963,0.46421 -0.69634,0.4642 -0.58027,0.46421 -0.46422,0.61894 -0.34816,0.77368 -0.11605,0.77368 -0.34817,-1.08315 -0.2321,-0.92842 -0.11606,-1.08314 -0.11605,-0.92842 0.11605,-0.77367 0.11606,-0.92841 0.11605,-0.77368 0.34816,-0.77368 0.23211,-0.61894 0.46422,-0.77367 0.46421,-0.61894 0.46422,-0.61895 1.27657,-1.08314 1.39265,-1.08315 c 0.752,0.60815 1.59749,1.04888 2.43717,1.39262 0.72807,0.12879 1.59434,-0.0285 2.43713,-0.30947 1.41627,1.66289 3.31033,1.45824 4.52608,-0.30948 0.22189,-0.32263 0.48971,-0.81692 0.58028,-1.23788 0.19197,-0.89243 0.15498,-2.06147 0,-3.0947 l 1.39265,-0.15474 1.62475,-0.30947 1.74082,-0.61894 1.85685,-0.61894 1.85686,-0.46421 1.74082,-0.61894 1.62475,-0.30947 1.39265,-0.15474 -0.58027,0.61894 -1.39265,1.39262 -1.62476,1.70209 -1.16054,1.08315 1.50872,0.46421 1.27658,0.30946 -0.92841,1.39262 -0.92845,1.39262 -0.92844,1.39262 -0.69631,1.23788 0.92841,0.46421 0.92844,0.30947 1.04448,0.30947 2.089,0 1.04448,-0.30947 1.04447,-0.30947 0.81238,-0.61894 0.92845,0.61894 0.9284,0.4642 0.92845,0.30948 0.92845,0.30947 2.08895,0.30947 2.20503,0.30947 8.8201,0"
     id="path17"
     style="fill:#fec50c;fill-opacity:1;fill-rule:evenodd;stroke:none" />
  <path
     d="m 459.02823,431.16647 0.34812,0.15474 0.34818,0.15474 0.11607,0.4642 0.11603,0.4642 -0.11603,0.46421 -0.11607,0.46421 -0.34818,0.30947 -0.81237,0 -0.2321,-0.30947 -0.2321,-0.46421 -0.11608,-0.46421 0.11608,-0.4642 0.2321,-0.4642 0.2321,-0.15474 0.46425,-0.15474"
     id="path21"
     style="fill:#fec50c;fill-opacity:1;fill-rule:evenodd;stroke:none" />
  <path
     d="m 458.91215,431.78541 0.2321,0.15474 0.11608,0.30947 -0.11608,0.30947 -0.2321,0.15474 -0.2321,-0.15474 -0.11607,-0.30947 0.11607,-0.30947 0.2321,-0.15474"
     id="path25"
     style="fill:#fec50c;fill-opacity:1;fill-rule:evenodd;stroke:none" />
  <path
     d="m 458.98791,433.91683 c -0.58783,5.5e-4 -1.06458,-0.63465 -1.06458,-1.41841 0,-0.78375 0.47675,-1.41895 1.06458,-1.4184 0.58779,-5.5e-4 1.06455,0.63465 1.06455,1.4184 0,0.78376 -0.47676,1.41896 -1.06455,1.41841 z"
     id="path3166"
     style="fill:#fec50c;fill-opacity:1;stroke:none" />
  <path
     d="m 545.4884,447.56842 -0.81238,0.4642 -0.81237,0.15474 -0.69631,0.15474 -0.58027,-0.15474 -0.58028,-0.15474 -0.58027,-0.30946 -0.4642,-0.30948 -0.58028,-0.4642 -0.92845,-0.92842 -0.9284,-0.92841 -0.46425,-0.4642 -0.58027,-0.30947 -0.4642,-0.15474 -0.58028,0 -1.04447,2.93997 -1.39266,3.71365 -0.4642,0.92841 -0.46424,0.77368 -0.46421,0.4642 -0.4642,0.46421 -0.58027,0.30947 -0.58028,0 -0.58027,-0.30947 -0.6963,-0.46421 -0.23211,-0.4642 -0.23214,-0.4642 -0.2321,-0.61895 -0.2321,-0.77367 -0.2321,-1.39262 -0.11608,-0.92841 -0.6963,0.77367 -0.69635,1.08315 -0.58023,1.23788 -0.69634,1.39262 -0.81238,1.39262 -0.81238,1.08315 -0.4642,0.61894 -0.58027,0.46421 -0.58028,0.30946 -0.69634,0.30948 -0.34813,0 -0.58028,0.15473 -0.58027,-0.15473 -0.4642,-0.30948 -1.39266,-2.16629 -1.50872,-2.1663 -1.04448,2.1663 -1.16054,1.85683 -0.58028,0.77367 -0.58027,0.77367 -0.58028,0.61895 -0.58023,0.4642 -0.46425,0.30948 -0.58027,0.15473 -0.58027,0 -0.46421,-0.15473 -0.4642,-0.30948 -0.34817,-0.4642 -0.4642,-0.77368 -0.2321,-0.92841 -0.23215,-0.92841 -0.4642,-1.54736 -0.11603,-0.77367 -0.23215,-0.61895 -0.2321,-0.30946 -0.2321,0 -3.13347,6.80835 -0.4642,0.61894 -0.81238,0.46421 -0.92845,0.30947 -0.9284,0.30947 -1.04448,0 -0.81237,-0.30947 -0.23215,-0.15473 -0.34813,-0.46421 -0.11607,-0.30947 0,-0.61894 0.4642,-6.80836 -0.34813,0.15474 -0.46425,0.30946 -0.4642,0.30948 -0.4642,0.61894 -0.92845,1.39262 -1.04447,1.54735 -1.04448,1.70209 -1.27662,1.39262 -0.58028,0.61894 -0.58023,0.61894 -0.69635,0.4642 -0.58027,0.15474 -0.81238,0.15474 -0.58027,-0.15474 -0.2321,-0.15474 -0.2321,-0.30946 -0.11608,-0.46421 0,-0.46421 0.11608,-2.01156 0.2321,-2.01155 0.11607,-1.08315 -0.11607,-0.92842 -0.11603,-0.92841 -0.46425,-1.08315 -0.6963,1.39262 -1.16055,2.01156 -1.39265,2.01156 -1.50868,2.01156 -0.81242,0.77368 -0.81237,0.77368 -0.69631,0.30946 -0.58027,0.30948 -0.2321,-0.15474 -0.34818,0 -0.2321,-0.30947 -0.11607,-0.15473 -0.2321,-0.46421 -0.11603,-0.46421 0,-0.61894 -0.11607,-0.77368 0.11607,-5.87994 -2.90137,2.6305 -3.48161,2.93997 -0.81237,0.46421 -0.92845,0.61894 -0.81238,0.30947 -0.9284,0.30947 -0.81237,0.30948 -0.81243,0 -0.81237,-0.15474 -0.6963,-0.30947 0.34817,-1.23789 0.34813,-1.08315 0.34817,-1.08314 0.4642,-0.92841 0.46425,-0.92841 0.4642,-0.92842 0.58028,-0.77367 0.58027,-0.77368 1.27658,-1.23788 1.50872,-1.23788 1.50868,-0.92842 1.74083,-0.77367 1.74082,-0.61894 1.97288,-0.46421 1.97293,-0.46421 1.97292,-0.30947 4.29402,-0.30947 4.41001,-0.15474 8.82011,0 2.20502,-0.15473 2.089,-0.15473 2.08895,-0.15474 1.97293,-0.30947 1.97292,-0.46421 1.74083,-0.4642 1.74078,-0.61895 1.62475,-0.92841 1.50872,-0.92841 1.27658,-1.23788 1.27662,-1.23788 1.04448,-1.70209 -1.16055,-3.09471 0.92845,-0.15474 0.9284,-0.30947 0.92845,-0.61894 0.81237,-0.77367 0.34818,-0.30948 0.34813,-0.4642 0.23214,-0.61894 0.2321,-0.46421 0.11603,-0.61894 0,-1.08315 -0.2321,-0.61894 1.97293,-0.46421 2.08895,-0.30946 2.20503,-0.15474 2.32109,0 4.75823,0.30947 4.87425,0.46421 4.99033,0.77367 4.87425,0.61894 4.75823,0.61895 4.41005,0.30947 0,2.16629 -0.11607,0.92841 -0.2321,0.92842 -0.2321,0.92841 -0.2321,0.77368 -0.34818,0.61894 -0.4642,0.77367 -0.81237,1.08315 -1.04453,0.92841 -1.04447,0.61894 -1.16055,0.30948 -1.27658,0.30946 -1.27658,-0.15473 -1.16055,-0.15473 -1.27657,-0.46421 -1.16055,-0.77368 -1.16055,-0.77368 -0.92845,-1.08314 -0.92841,-1.23788 0,2.6305 -0.34817,3.40417 -0.2321,1.70209 -0.34817,1.54736 -0.2321,0.61894 -0.34818,0.4642 -0.2321,0.46421 -0.34817,0.30947 m -93.3074,-14.54513 2.66927,1.54736 0.69631,-0.77368 0.92845,-0.92841 1.04447,-0.77367 0.92845,-0.77368 3.4816,-1.85683 3.01741,-1.85682 1.50872,-0.77368 1.27658,-0.92841 1.27657,-0.92841 1.04448,-0.92841 2.66927,-2.32103 2.66923,-2.32104 2.5532,-2.16629 2.32105,-2.16629 1.74083,-1.85683 1.39265,-1.70208 1.50868,-1.85683 1.62479,-2.01156 0.58023,-0.77368 0.69635,-0.61894 0.81238,-0.61894 0.92845,-0.61894 1.97288,-1.23789 1.97292,-0.9284 2.66927,-0.92842 2.90133,-0.92841 3.0174,-0.77368 3.36558,-0.77368 4.06188,-0.61894 4.06188,-0.77367 4.17795,-0.61894 4.06188,-0.92841 1.39265,-0.30947 1.27662,-0.46421 1.39265,-0.46421 1.39265,-0.4642 1.3926,-2.32103 2.20503,-3.24944 1.50872,-2.01156 1.74083,-1.85683 1.97292,-2.01156 2.32106,-2.01156 3.4816,-2.78523 3.71375,-2.47577 3.82978,-2.6305 3.71375,-2.32103 3.4816,-2.32103 3.2495,-2.1663 2.66923,-1.85682 2.089,-1.85682 0.58027,-2.32103 0.81238,-2.32103 1.04448,-2.32104 1.27657,-2.32102 1.39265,-2.47577 1.74083,-2.47576 1.85685,-2.78524 2.3211,-2.93997 2.08895,-2.47577 2.20503,-2.47576 1.16055,-1.08315 1.16055,-1.08315 1.27657,-0.92841 1.27658,-0.92841 1.27662,-0.77368 1.27658,-0.61894 1.39265,-0.46421 1.27658,-0.46421 1.39265,-0.15473 1.27662,-0.15473 1.39265,0.15473 1.27658,0.30947 -0.11607,1.85683 -0.34813,1.85682 -0.46425,1.85682 -0.58023,2.01157 -0.81242,2.01156 -1.04448,2.01155 -1.27657,2.1663 -1.50873,2.16629 1.16055,-0.15473 1.04448,-0.30947 0.81237,-0.30947 0.81238,-0.46421 0.69635,-0.30947 0.81237,-0.30947 1.04448,-0.15473 1.16055,-0.15474 0.11607,1.08314 0,1.08315 -0.11607,1.08315 -0.2321,0.92841 -0.34818,0.92842 -0.4642,0.9284 -0.46424,0.77368 -0.58023,0.77368 -2.43718,3.09471 -2.43712,2.93997 1.39265,0.15474 1.50872,0.61894 1.50868,0.61894 1.16055,0.30946 -1.39265,1.39262 -1.62475,1.39263 -1.62475,1.39261 -1.85686,1.39262 -1.85689,1.39262 -1.85686,1.54735 -1.85685,1.70209 -1.74082,1.85683 0.81237,0.15473 1.04448,0.61894 0.46425,0.15473 0.4642,0.30948 0.34817,0.15473 0.34818,-0.15473 -2.3211,1.70208 -2.90133,1.85683 -1.39265,0.92841 -1.16055,0.92841 -0.58028,0.46421 -0.34817,0.46421 -0.2321,0.4642 -0.2321,0.46421 0.11603,0.61894 0.23214,0.4642 0.4642,0.46421 0.34818,0.46421 -0.11607,0.61894 -0.23211,0.4642 -0.4642,0.46421 -0.46424,0.46421 -1.04448,0.77367 -1.39265,0.77368 -1.39265,0.61894 -1.27658,0.61894 -0.92845,0.61894 -0.6963,0.46421 2.32105,3.09471 -0.81237,1.08315 -0.81238,0.77367 -0.6963,0.46421 -0.81238,0.4642 -1.62475,0.30947 -2.20502,0 0.2321,1.39262 0.34817,1.39262 0.2321,1.54735 0.2321,1.54736 -1.97292,2.01156 -2.43713,2.32103 -2.66923,2.32102 -3.0174,2.32104 -1.74082,1.23788 -1.74083,1.08315 -1.85685,0.92841 -1.97292,0.92841 -2.08896,0.92841 -2.20502,0.61894 -2.3211,0.61894 -2.43713,0.46421 4.29398,0.15474 3.71375,0 3.4816,-0.46421 3.13348,-0.4642 2.90133,-0.77368 2.5532,-0.92841 2.5532,-1.23788 2.43712,-1.23789 3.24951,-2.01156 3.13347,-2.32103 3.0174,-2.47576 3.13343,-2.47577 -1.85685,-1.23788 -1.85685,-0.77368 -0.92845,-0.4642 -0.9284,-0.61895 -1.04453,-0.61894 -1.04447,-0.77367 0.92845,-0.92842 1.04447,-0.61894 1.27658,-0.61894 1.39265,-0.46421 2.7853,-0.77367 2.90137,-0.46421 2.55316,-0.4642 2.3211,-0.30948 0.92845,-0.30946 0.81237,-0.30948 0.4642,-0.30946 0.34818,-0.46421 -0.11607,-0.15474 -0.23211,-0.30947 -0.34817,-0.15474 -0.4642,-0.30946 -1.27658,-0.30948 -1.62479,-0.30947 -1.62476,-0.15473 -1.62475,-0.30947 -1.39265,-0.46421 -0.9284,-0.46421 3.13343,-0.9284 3.13347,-0.92842 2.7853,-0.77368 2.32106,-0.77367 1.97292,-0.77368 1.74083,-0.92841 0.81237,-0.46421 0.58028,-0.4642 0.58027,-0.46421 0.4642,-0.61894 -0.11607,-0.15473 -0.2321,-0.30948 -0.4642,-0.15473 -0.58028,-0.15474 -1.50868,-0.15473 -1.74082,0 -1.85685,-0.15474 -1.74083,-0.15473 -1.50872,-0.30948 -0.9284,-0.30946 0.81237,-0.46421 0.81238,-0.46421 2.7853,-1.08314 2.43713,-0.92842 2.20502,-0.77367 2.08896,-0.92842 2.20502,-0.92841 2.20503,-1.23788 1.04447,-0.77367 0.92845,-0.77368 0.34818,-0.46421 0.34817,-0.61894 0.34813,-0.46421 0.11607,-0.46421 -0.11607,-0.4642 -0.34813,-0.30947 -0.34817,-0.15473 -3.24951,0 -1.50872,0.15473 -2.08895,0 -0.58028,-0.15473 -0.4642,-0.30948 -0.46425,-0.30946 4.64216,-4.02313 4.29402,-3.71365 3.82978,-3.24944 3.36557,-3.0947 1.39265,-1.54736 1.27658,-1.54735 1.04448,-1.54735 0.92845,-1.54736 0.6963,-1.70209 0.58027,-1.70208 0.34818,-1.85683 0,-2.01156 -0.81238,0 -0.81237,0.15474 -0.92845,0.4642 -0.92845,0.46421 -1.85685,1.54735 -1.97293,1.54736 -1.04447,0.77367 -0.92841,0.77368 -1.04452,0.61894 -1.04448,0.46421 -0.9284,0.30947 -0.92845,0.15473 -1.04447,0 -0.92845,-0.4642 2.7853,-2.78524 3.13347,-3.55891 3.59763,-4.17786 3.59768,-4.64205 3.59768,-4.95154 3.36557,-4.95153 1.50873,-2.6305 1.50867,-2.47576 1.27663,-2.47577 1.1605,-2.32103 0.2321,-0.61894 0.11607,-0.46421 -0.11607,-0.61894 -0.11603,-0.4642 -0.11607,-0.46421 -0.34813,-0.30947 -0.34817,-0.46421 -0.34818,-0.15473 -0.4642,-0.30947 -0.46424,-0.15474 -0.92841,0 -0.4642,0.15474 -0.58027,0.15473 -0.34818,0.46421 -0.4642,0.46421 -2.089,2.78523 -2.43713,3.24944 -2.5532,3.55891 -2.7853,3.55892 -2.78525,3.24944 -2.7853,3.09471 -1.39265,1.23788 -1.27663,1.08315 -1.39265,0.92841 -1.1605,0.77368 0.81238,-0.92841 1.04447,-1.39262 1.39265,-1.85683 1.50868,-2.32103 3.36558,-5.41574 3.71375,-6.34415 1.85685,-3.40417 1.74082,-3.40418 1.74078,-3.24944 1.50872,-3.40418 1.39265,-3.09471 1.16051,-2.78523 0.92845,-2.6305 0.58027,-2.1663 0.11608,-0.77367 0,-1.23789 -0.11608,-0.46421 -0.2321,-0.4642 -0.2321,-0.4642 -0.2321,-0.30948 -0.34817,-0.15473 -0.69635,-0.46421 -0.81238,-0.30947 -1.62475,0 -0.4642,0.15474 -0.34817,0.15473 -0.46421,0.30948 -0.34817,0.4642 -0.92845,1.08314 -0.9284,1.54736 -2.089,3.55891 -2.20503,4.48733 -2.43712,4.79679 -2.66923,4.95153 -1.50872,2.32103 -1.39261,2.32104 -1.50872,2.01155 -1.62475,1.85683 2.08895,-5.10627 2.089,-5.87994 1.16055,-3.24945 1.04447,-3.24943 1.04448,-3.40418 0.92845,-3.40418 0.81237,-3.55892 0.81238,-3.40417 0.58027,-3.40418 0.46421,-3.40417 0.2321,-3.24945 0.11607,-3.0947 -0.11607,-1.54736 -0.11608,-1.39262 -0.11602,-1.39261 -0.2321,-1.39262 -0.11608,-0.46421 -0.2321,-0.4642 -0.34817,-0.46421 -0.2321,-0.30947 -0.81238,-0.46421 -0.81237,-0.30947 -0.81238,0 -0.69635,0.15474 -0.2321,0.15473 -0.34813,0.15474 -0.11607,0.30947 -0.11607,0.4642 -1.16051,5.10627 -1.04452,5.10627 -1.04448,5.41574 -1.04447,5.261 -1.04448,5.261 -1.39265,4.95153 -0.69635,2.47576 -0.81237,2.1663 -0.92841,2.32103 -1.04452,2.01156 0.69635,-4.48732 0.4642,-4.02313 0.46425,-3.71365 0.2321,-3.40417 0.2321,-2.93997 0.11603,-2.6305 -0.11603,-2.1663 -0.11607,-1.85682 -0.2321,-1.54735 -0.34818,-1.23789 -0.2321,-0.46421 -0.2321,-0.4642 -0.2321,-0.30947 -0.34817,-0.15474 -0.34818,-0.15473 -0.34813,-0.15474 -0.34817,0 -0.34817,0.15474 -0.92841,0.30947 -0.92845,0.61894 -0.81237,4.95153 -0.81238,4.7968 -0.92845,4.48732 -1.04447,4.33259 -1.16055,4.33259 -1.27658,4.33259 -1.39265,4.48733 -1.62475,4.48732 -1.16055,2.93997 -1.16055,2.93997 -1.27658,2.93997 -1.27658,2.93998 -1.39265,2.78523 -1.39265,2.78524 -1.50872,2.78523 -1.50868,2.78524 -2.7853,4.64206 -2.90137,4.33259 -3.0174,4.33259 -3.13343,4.02312 -3.24951,4.02312 -3.36557,3.71364 -3.48165,3.55892 -3.59768,3.40418 -2.43712,2.16629 -2.55316,2.1663 -2.5532,2.01156 -2.5532,2.01156 -4.06188,2.47576 -4.06187,2.47577 -4.17796,2.01155 -4.17795,2.01156 -3.4816,1.39262 -3.48165,1.39262 -3.59767,1.08315 -3.59764,1.08314 -3.59767,0.77368 -3.71375,0.61895 -3.59768,0.61894 -3.7137,0.30947 -0.34818,0.15473 -0.34817,0.15474 -0.6963,0.4642 -0.81238,0.77368 -1.16055,1.39262 -1.50872,1.85682 -1.85685,2.47577 -2.20503,3.24944 -2.08895,3.24944 -2.43713,3.55892 -1.27662,1.70209 -1.27658,1.70208 -1.50872,1.54736 -1.50868,1.54735 -1.16055,1.08315 -1.16055,0.92841 -1.27658,0.77368 -1.27657,0.77367 -2.78531,1.54736 -2.7853,1.39262 -2.7853,1.39261 -2.43712,1.23788 -1.04448,0.61895 -1.04452,0.77367 -0.92841,0.61894 -0.69634,0.61894 -0.69631,0.92842 -0.58027,0.77367 -0.34817,0.77368 -0.23211,0.77368 -0.11607,1.08314 0,0.61894"
     id="path29"
     style="fill:#fec50c;fill-opacity:1;fill-rule:evenodd;stroke:none" />
  <path
     d="m 458.90509,432.84708 c -0.23979,2.2e-4 -0.43428,-0.25889 -0.43428,-0.5786 0,-0.31972 0.19449,-0.57883 0.43428,-0.57861 0.23979,-2.2e-4 0.43424,0.25889 0.43424,0.57861 0,0.31971 -0.19445,0.57882 -0.43424,0.5786 z"
     id="path3938"
     style="fill:#fec50c;fill-opacity:1;stroke:#00ff00;stroke-width:0.38127393;stroke-miterlimit:4;stroke-opacity:1;stroke-dasharray:none" />
  <use
     transform="matrix(0.90969866,0,0,1.2017016,54.092286,404.65786)"
     id="use4309"
     style="fill:#fec50c;fill-opacity:1"
     x="0"
     y="0"
     width="1000"
     height="500"
     xlink:href="#orn" />
  <use
     transform="matrix(0.90969866,0,0,-1.2831293,54.092286,509.90858)"
     id="use4325"
     style="fill:#fec50c;fill-opacity:1"
     x="0"
     y="0"
     width="1000"
     height="500"
     xlink:href="#uorn" />
  <use
     transform="matrix(0.90969866,0,0,-1.2017016,54.092286,405.2357)"
     id="use4315"
     style="fill:#fec50c;fill-opacity:1"
     x="0"
     y="0"
     width="1000"
     height="500"
     xlink:href="#orn" />
  <use
     transform="matrix(-1,0,0,1,108.18458,0)"
     id="use2526"
     x="0"
     y="0"
     width="2000"
     height="1000"
     xlink:href="#use4325" />
  <use
     transform="matrix(-1,0,0,1,108.18457,0)"
     id="use2528"
     x="0"
     y="0"
     width="2000"
     height="1000"
     xlink:href="#use4309" />
  <use
     transform="matrix(-1,0,0,1,108.18457,0)"
     id="use2530"
     x="0"
     y="0"
     width="2000"
     height="1000"
     xlink:href="#use4315" />
  <g
     transform="matrix(0.44989513,0,0,-0.60954037,0.10487032,609.0836)"
     id="use2633">
    <use
       transform="matrix(2.0220238,0,0,1.9714881,120,678.776)"
       id="use2673"
       style="fill:#fec50c;fill-opacity:1"
       x="0"
       y="0"
       width="1000"
       height="500"
       xlink:href="#orn" />
    <use
       transform="matrix(2.0220238,0,0,-2.1050769,120,851.44827)"
       id="use2675"
       style="fill:#fec50c;fill-opacity:1"
       x="0"
       y="0"
       width="1000"
       height="500"
       xlink:href="#uorn" />
    <use
       transform="matrix(2.0220238,0,0,-1.9714881,120,679.72399)"
       id="use2677"
       style="fill:#fec50c;fill-opacity:1"
       x="0"
       y="0"
       width="1000"
       height="500"
       xlink:href="#orn" />
    <use
       transform="matrix(-1,0,0,1,240.00001,400)"
       id="use2679"
       x="0"
       y="0"
       width="2000"
       height="1000"
       xlink:href="#use4325" />
    <use
       transform="matrix(-1,0,0,1,240,400)"
       id="use2681"
       x="0"
       y="0"
       width="2000"
       height="1000"
       xlink:href="#use4309" />
    <use
       transform="matrix(-1,0,0,1,240,400)"
       id="use2683"
       x="0"
       y="0"
       width="2000"
       height="1000"
       xlink:href="#use4315" />
  </g>
</svg>
