<?xml version="1.0" encoding="UTF-8" standalone="no"?>
<!-- Created with Inkscape (http://www.inkscape.org/) -->

<svg
   xmlns:dc="http://purl.org/dc/elements/1.1/"
   xmlns:cc="http://creativecommons.org/ns#"
   xmlns:rdf="http://www.w3.org/1999/02/22-rdf-syntax-ns#"
   xmlns:svg="http://www.w3.org/2000/svg"
   xmlns="http://www.w3.org/2000/svg"
   xmlns:xlink="http://www.w3.org/1999/xlink"
   xmlns:sodipodi="http://sodipodi.sourceforge.net/DTD/sodipodi-0.dtd"
   xmlns:inkscape="http://www.inkscape.org/namespaces/inkscape"
   version="1.0"
   width="900"
   height="600"
   id="svg3362"
   inkscape:version="0.47 r22583"
   sodipodi:docname="Flag_of_Papua_New_Guinea.svg">
  <metadata
     id="metadata15">
    <rdf:RDF>
      <cc:Work
         rdf:about="">
        <dc:format>image/svg+xml</dc:format>
        <dc:type
           rdf:resource="http://purl.org/dc/dcmitype/StillImage" />
      </cc:Work>
    </rdf:RDF>
  </metadata>
  <sodipodi:namedview
     pagecolor="#ffffff"
     bordercolor="#666666"
     borderopacity="1"
     objecttolerance="10"
     gridtolerance="10"
     guidetolerance="10"
     inkscape:pageopacity="0"
     inkscape:pageshadow="2"
     inkscape:window-width="986"
     inkscape:window-height="813"
     id="namedview13"
     showgrid="false"
     inkscape:zoom="0.43576389"
     inkscape:cx="384"
     inkscape:cy="288"
     inkscape:window-x="0"
     inkscape:window-y="0"
     inkscape:window-maximized="0"
     inkscape:current-layer="svg3362" />
  <defs
     id="defs3364">
    <inkscape:perspective
       sodipodi:type="inkscape:persp3d"
       inkscape:vp_x="0 : 288 : 1"
       inkscape:vp_y="0 : 1000 : 0"
       inkscape:vp_z="768 : 288 : 1"
       inkscape:persp3d-origin="384 : 192 : 1"
       id="perspective17" />
  </defs>
  <g
     id="layer1"
     transform="scale(1.171875,1.0416667)">
    <rect
       width="768"
       height="576"
       x="0"
       y="0"
       id="rect3372"
       style="fill:#000000;fill-opacity:1;stroke:none" />
    <path
       d="M 0,0 768,0 768,576 0,0 z"
       id="path4249"
       style="fill:#ce1126;fill-opacity:1;fill-rule:evenodd;stroke:none" />
    <path
       d="m 475.48467,167.35351 c -5.67222,7.32645 -19.095,-7.36966 -35.175,-7.70533 -16.08,-0.33567 -27.47067,15.40966 -32.16,20.77033 -4.68933,5.36067 -19.76433,33.49967 -19.42967,36.51467 0.33467,3.015 9.38067,-8.37467 12.73034,-10.38467 0.33466,4.02 -3.68534,8.71034 -2.68034,10.05 1.005,1.33967 11.72433,-8.04 15.40967,-8.37466 1.005,2.68033 -2.01,5.35966 -1.005,9.37966 1.34067,1.33967 7.37067,-6.70033 11.39067,-8.37466 0.66933,3.015 -3.68534,8.71033 -1.34067,12.39466 1.67533,0.33467 11.72433,-11.38966 15.075,-12.73033 3.35067,-1.34067 -1.67534,11.055 0,12.06 3.015,-2.01 12.39567,-12.73034 15.41067,-14.07 3.015,-1.33967 -0.33467,13.73533 1.005,13.73533 3.68433,-2.68033 13.065,-15.40966 14.07,-17.41966 1.005,-2.01 -1.005,19.42966 9.37966,30.82033 10.38467,11.39067 26.13101,24.45467 27.80534,24.45467 2.01,-3.68534 -0.66933,-11.38967 1.005,-11.055 4.68933,5.025 13.39966,12.39466 15.40966,12.39466 2.01,0 -1.34067,-8.04 1.33967,-8.04 5.36067,5.025 20.77033,24.79034 50.92033,33.83534 -2.01,-5.69534 -6.36567,-10.72034 -6.70033,-13.39967 2.01,0.33467 9.046,3.68534 10.38567,3.34967 1.33966,-0.33567 -14.74034,-20.1 -13.73534,-22.78034 3.68534,-0.33466 5.36067,2.01 6.70034,0.33467 -1.67534,-2.67933 -15.74534,-18.42467 -15.74534,-22.11 0,-3.68534 4.35567,0.67033 5.69534,0 1.33966,-0.67034 -5.35967,-14.74034 -4.02,-16.41467 1.33966,-1.67433 16.07899,9.045 19.76433,9.045 3.68533,0 1.005,-13.065 2.68033,-13.73533 1.67534,-0.67034 14.07101,7.035 16.75034,7.035 2.67933,0 2.34466,-5.69534 3.34966,-5.025 1.005,0.67033 30.15,29.81533 20.1,63.98533 -10.05,24.45567 -30.14899,37.52067 -59.62966,26.80034 1.67433,2.68033 17.41966,15.74533 34.50466,11.055 17.085,-4.69034 37.85433,-18.09 35.50967,-51.58967 -2.34467,-33.49966 -13.40067,-38.19 -15.075,-43.215 -1.67433,-5.025 2.68134,1.33967 6.36567,2.68034 3.68433,1.34067 -0.67034,-7.03601 -1.67534,-10.72134 -1.005,-3.68534 11.055,7.70533 14.07,8.71033 3.015,1.005 -7.035,-27.46966 -10.05,-29.47966 -3.015,-2.01 3.015,0.66933 5.025,1.33966 2.01,0.67034 -18.42567,-31.155 -22.78033,-31.155 -4.35467,0 3.68433,-1.67533 6.03,-1.67533 2.34567,0 -23.44866,-20.77034 -27.80433,-20.77034 -4.35567,0 9.37866,-5.36067 10.71933,-5.69533 2.34567,0.33466 -29.81433,-17.085 -58.62467,0.33466 -1.67533,-1.33866 13.56851,-11.89116 14.07,-16.41366 0.16784,-1.17283 -5.02399,-3.68533 -5.35966,-5.025 -0.33567,-1.33966 8.04,-5.35965 8.37466,-8.37465 -2.01,-2.68033 -5.69533,-1.67534 -7.70533,-2.34466 -0.5015,-2.512504 7.036,-8.710339 6.36567,-11.389669 -0.5025,-1.5075 -6.03101,-2.01 -7.37067,-1.005 -1.33967,1.005 3.5185,-7.035 2.68033,-9.379665 -0.66933,-1.005 -3.34966,-0.334665 -6.03,0.334665 -1.67533,-0.334665 8.71034,-14.740335 6.70034,-16.750335 -2.01,-2.01 -30.15101,14.73933 -40.53567,33.499665 -10.38467,18.760319 -2.34366,33.835319 -3.68433,40.199989 -1.34067,6.36466 -3.01601,12.73033 -7.37067,12.73033 -4.35467,0 -14.40366,-6.70033 -17.75433,-10.05 -3.35067,-3.34966 -4.02,-5.69533 -8.71034,-7.035 -4.69033,-1.33966 -15.40966,2.68034 -19.42966,3.015 -4.02,0.33467 -19.76534,-3.015 -20.77034,-2.01 -1.005,1.005 15.40967,7.035 19.095,9.045 3.68534,2.01 4.02101,4.69034 6.70034,6.36467 2.67933,1.67433 27.80433,9.045 19.76433,19.42966 z m 98.15533,47.235 c 8.04,8.04 62.31,44.22 62.31,88.44 0,44.22 -39.53067,42.88134 -50.92033,41.54067 C 597.76,355.28851 646,353.27851 646,303.02851 c 0,-44.22 -62.31,-88.44 -70.35,-92.46 -8.04,-4.02 -10.05,-4.02 -2.01,4.02 z"
       id="path3348"
       style="fill:#fcd116" />
    <use
       transform="translate(-87.582,-104.504)"
       id="use2392"
       x="0"
       y="0"
       width="768"
       height="576"
       xlink:href="#use2390" />
    <use
       transform="translate(-88,112.504)"
       id="use2394"
       x="0"
       y="0"
       width="768"
       height="576"
       xlink:href="#use2392" />
    <use
       transform="translate(87.582,-160)"
       id="use2390"
       x="0"
       y="0"
       width="768"
       height="576"
       xlink:href="#polygon5131" />
    <polygon
       points="155.122,205.234 183.376,205.234 192.54,176.394 192.54,176.394 200.94,205.234 229.958,205.234 207.048,222.86 215.449,250.898 192.54,233.273 169.631,250.096 178.031,222.86 "
       transform="translate(-0.122,266.606)"
       id="polygon5131"
       style="fill:#ffffff" />
    <polygon
       points="155.122,205.234 183.376,205.234 192.54,176.394 192.54,176.394 200.94,205.234 229.958,205.234 207.048,222.86 215.449,250.898 192.54,233.273 169.631,250.096 178.031,222.86 "
       transform="matrix(0.5,0,0,0.5,135.439,293.551)"
       id="polygon5133"
       style="fill:#ffffff" />
  </g>
</svg>
