<?xml version="1.0" encoding="UTF-8" standalone="no"?>
<svg
   xmlns:dc="http://purl.org/dc/elements/1.1/"
   xmlns:cc="http://creativecommons.org/ns#"
   xmlns:rdf="http://www.w3.org/1999/02/22-rdf-syntax-ns#"
   xmlns:svg="http://www.w3.org/2000/svg"
   xmlns="http://www.w3.org/2000/svg"
   xmlns:sodipodi="http://sodipodi.sourceforge.net/DTD/sodipodi-0.dtd"
   xmlns:inkscape="http://www.inkscape.org/namespaces/inkscape"
   width="900"
   height="600"
   version="1.1"
   id="svg2816"
   inkscape:version="0.47 r22583"
   sodipodi:docname="Flag_of_Ethiopia.svg">
  <metadata
     id="metadata2834">
    <rdf:RDF>
      <cc:Work
         rdf:about="">
        <dc:format>image/svg+xml</dc:format>
        <dc:type
           rdf:resource="http://purl.org/dc/dcmitype/StillImage" />
      </cc:Work>
    </rdf:RDF>
  </metadata>
  <defs
     id="defs2832">
    <inkscape:perspective
       sodipodi:type="inkscape:persp3d"
       inkscape:vp_x="0 : 150 : 1"
       inkscape:vp_y="0 : 1000 : 0"
       inkscape:vp_z="600 : 150 : 1"
       inkscape:persp3d-origin="300 : 100 : 1"
       id="perspective2836" />
  </defs>
  <sodipodi:namedview
     pagecolor="#ffffff"
     bordercolor="#666666"
     borderopacity="1"
     objecttolerance="10"
     gridtolerance="10"
     guidetolerance="10"
     inkscape:pageopacity="0"
     inkscape:pageshadow="2"
     inkscape:window-width="972"
     inkscape:window-height="706"
     id="namedview2830"
     showgrid="false"
     inkscape:zoom="0.29580634"
     inkscape:cx="300"
     inkscape:cy="150"
     inkscape:window-x="0"
     inkscape:window-y="0"
     inkscape:window-maximized="0"
     inkscape:current-layer="svg2816" />
  <rect
     width="901.25525"
     height="602.521"
     id="rect2818"
     x="-0.62761503"
     y="-1.2605042"
     style="fill:#e23d28" />
  <rect
     width="901.25525"
     height="401.68066"
     id="rect2820"
     x="-0.62761503"
     y="-1.2605042"
     style="fill:#f9dd16" />
  <rect
     width="901.25525"
     height="200.84033"
     id="rect2822"
     x="-0.62761503"
     y="-1.2605042"
     style="fill:#006b3f" />
  <path
     d="m 562.65717,300.00022 a 112.65694,150.63029 0 0 1 -225.31388,0 112.65694,150.63029 0 1 1 225.31388,0 z"
     id="path2824"
     style="fill:#00a5db" />
  <path
     d="m 364.28579,262.29395 65.48002,0 14.80528,-60.92491 3.94848,16.24832 -21.51514,88.53657 -6.38878,-6.20631 6.70986,-27.61165 -52.70246,0 -10.33726,-10.04202 m 32.74002,134.7278 20.23443,-83.26636 -38.76072,-37.65366 12.77756,0 56.32738,54.71861 -6.38877,6.2063 -17.56667,-17.06494 -16.28596,67.01803 -10.33725,10.04202 m 105.94889,0 -52.97444,-51.46144 -38.76072,37.65367 3.94849,-16.24833 56.32737,-54.71861 2.44029,10.04202 -17.56666,17.06494 42.6372,41.41942 3.94847,16.24833 m 32.74002,-134.7278 -52.97445,51.46144 14.80527,60.92492 -10.33726,-10.04202 -21.51514,-88.53656 7.89696,0 6.70988,27.61165 42.63718,-41.41943 12.77756,0 m -85.71446,-83.26635 20.23444,83.26635 47.91088,0 -10.33727,10.04202 -69.62446,0 2.44029,-10.04202 21.71359,0 -16.28596,-67.01803 3.94849,-16.24832 z"
     id="path2826"
     style="fill:#f9dd16" />
  <path
     d="m 450.00042,355.23107 0,65.27311 m -39.28579,-103.43685 -46.42868,20.1705 m 61.43452,-81.92075 -28.6945,-52.80705 m 77.2544,52.80705 28.6945,-52.80705 m -13.68866,114.5573 46.42868,20.1705 -46.42868,-20.1705 z"
     id="path2828"
     style="stroke:#f9dd16;stroke-width:2.5" />
</svg>
