<?xml version="1.0" encoding="UTF-8" standalone="no"?>
<svg
   xmlns:dc="http://purl.org/dc/elements/1.1/"
   xmlns:cc="http://creativecommons.org/ns#"
   xmlns:rdf="http://www.w3.org/1999/02/22-rdf-syntax-ns#"
   xmlns:svg="http://www.w3.org/2000/svg"
   xmlns="http://www.w3.org/2000/svg"
   xmlns:xlink="http://www.w3.org/1999/xlink"
   xmlns:sodipodi="http://sodipodi.sourceforge.net/DTD/sodipodi-0.dtd"
   xmlns:inkscape="http://www.inkscape.org/namespaces/inkscape"
   width="900"
   height="600"
   viewBox="0 0 180 120"
   id="svg3554"
   version="1.1"
   inkscape:version="0.47 r22583"
   sodipodi:docname="Flag_of_Bosnia_and_Herzegovina.svg">
  <metadata
     id="metadata3579">
    <rdf:RDF>
      <cc:Work
         rdf:about="">
        <dc:format>image/svg+xml</dc:format>
        <dc:type
           rdf:resource="http://purl.org/dc/dcmitype/StillImage" />
      </cc:Work>
    </rdf:RDF>
  </metadata>
  <defs
     id="defs3577">
    <inkscape:perspective
       sodipodi:type="inkscape:persp3d"
       inkscape:vp_x="0 : 250 : 1"
       inkscape:vp_y="0 : 1000 : 0"
       inkscape:vp_z="1000 : 250 : 1"
       inkscape:persp3d-origin="500 : 166.66667 : 1"
       id="perspective3581" />
  </defs>
  <sodipodi:namedview
     pagecolor="#ffffff"
     bordercolor="#666666"
     borderopacity="1"
     objecttolerance="10"
     gridtolerance="10"
     guidetolerance="10"
     inkscape:pageopacity="0"
     inkscape:pageshadow="2"
     inkscape:window-width="1039"
     inkscape:window-height="859"
     id="namedview3575"
     showgrid="false"
     inkscape:zoom="0.502"
     inkscape:cx="500"
     inkscape:cy="250"
     inkscape:window-x="0"
     inkscape:window-y="0"
     inkscape:window-maximized="0"
     inkscape:current-layer="svg3554" />
  <rect
     width="180"
     height="120"
     style="fill:#0d2b88"
     id="rect3556"
     x="0"
     y="3.5527137e-15" />
  <path
     d="M 105.22444,112.87279 110.25,92.25 l 5.02556,20.62279 -13.1571,-12.74558 16.26308,0 -13.1571,12.74558 z"
     id="star"
     style="fill:#ffffff" />
  <path
     d="m 47.7,0 90,0 0,120 -90,-120 z"
     style="fill:#ffd911"
     id="path3559" />
  <path
     d="M 28.378125,0 31.5,0 34.621875,0 36.525564,7.8727944 31.5,3 26.474436,7.8727932 28.378125,0 z"
     id="path11682"
     style="fill:#ffffff" />
  <path
     d="m 118.37812,120 -5.00966,-4.87279 6.21904,-0.002 1.9125,-7.875 1.9125,7.875 6.21904,0.002 -5.00966,4.87279 -3.12188,0 -3.12188,0 z"
     id="path11689"
     style="fill:#ffffff" />
  <use
     transform="translate(-67.5,-90)"
     xlink:href="#star"
     id="use3563"
     x="0"
     y="0"
     width="200"
     height="100" />
  <use
     transform="translate(-56.25,-75)"
     xlink:href="#star"
     id="use3565"
     x="0"
     y="0"
     width="200"
     height="100" />
  <use
     transform="translate(-45,-60)"
     xlink:href="#star"
     id="use3567"
     x="0"
     y="0"
     width="200"
     height="100" />
  <use
     transform="translate(-33.75,-45)"
     xlink:href="#star"
     id="use3569"
     x="0"
     y="0"
     width="200"
     height="100" />
  <use
     transform="translate(-22.499998,-30)"
     xlink:href="#star"
     id="use3571"
     x="0"
     y="0"
     width="200"
     height="100" />
  <use
     transform="translate(-11.25,-15)"
     xlink:href="#star"
     id="use3573"
     x="0"
     y="0"
     width="200"
     height="100" />
</svg>
