<?xml version="1.0" encoding="UTF-8" standalone="no"?>
<svg
   xmlns:dc="http://purl.org/dc/elements/1.1/"
   xmlns:cc="http://creativecommons.org/ns#"
   xmlns:rdf="http://www.w3.org/1999/02/22-rdf-syntax-ns#"
   xmlns:svg="http://www.w3.org/2000/svg"
   xmlns="http://www.w3.org/2000/svg"
   xmlns:xlink="http://www.w3.org/1999/xlink"
   xmlns:sodipodi="http://sodipodi.sourceforge.net/DTD/sodipodi-0.dtd"
   xmlns:inkscape="http://www.inkscape.org/namespaces/inkscape"
   width="900"
   height="600"
   viewBox="-19 -10 45 30"
   preserveAspectRatio="xMidYMid meet"
   zoomAndPan="magnify"
   id="svg4308"
   version="1.1"
   inkscape:version="0.47 r22583"
   sodipodi:docname="Flag_of_Federated_States_of_Micronesia.svg">
  <metadata
     id="metadata4335">
    <rdf:RDF>
      <cc:Work
         rdf:about="">
        <dc:format>image/svg+xml</dc:format>
        <dc:type
           rdf:resource="http://purl.org/dc/dcmitype/StillImage" />
      </cc:Work>
    </rdf:RDF>
  </metadata>
  <defs
     id="defs4333">
    <inkscape:perspective
       sodipodi:type="inkscape:persp3d"
       inkscape:vp_x="0 : 200 : 1"
       inkscape:vp_y="0 : 1000 : 0"
       inkscape:vp_z="760 : 200 : 1"
       inkscape:persp3d-origin="380 : 133.33333 : 1"
       id="perspective4337" />
  </defs>
  <sodipodi:namedview
     pagecolor="#ffffff"
     bordercolor="#666666"
     borderopacity="1"
     objecttolerance="10"
     gridtolerance="10"
     guidetolerance="10"
     inkscape:pageopacity="0"
     inkscape:pageshadow="2"
     inkscape:window-width="1145"
     inkscape:window-height="922"
     id="namedview4331"
     showgrid="false"
     inkscape:zoom="0.6275"
     inkscape:cx="380"
     inkscape:cy="200"
     inkscape:window-x="0"
     inkscape:window-y="0"
     inkscape:window-maximized="0"
     inkscape:current-layer="svg4308" />
  <rect
     x="-19"
     y="-10"
     width="45"
     height="30"
     id="rect4310"
     style="fill:#75b2dd" />
  <g
     id="star"
     transform="matrix(2.3684211,0,0,3,3.5,-4)"
     style="fill:#ffffff">
    <g
       id="cone">
      <polygon
         id="triangle"
         points="0.5,1 0,0 0,1 "
         transform="matrix(0.95105652,0.30901699,-0.30901699,0.95105652,0,-1)" />
      <use
         xlink:href="#triangle"
         transform="scale(-1,1)"
         id="use4315"
         x="0"
         y="0"
         width="38"
         height="20" />
    </g>
    <use
       xlink:href="#cone"
       transform="matrix(0.30901699,0.95105652,-0.95105652,0.30901699,0,0)"
       id="use4317"
       x="0"
       y="0"
       width="38"
       height="20" />
    <use
       xlink:href="#cone"
       transform="matrix(0.30901699,-0.95105652,0.95105652,0.30901699,0,0)"
       id="use4319"
       x="0"
       y="0"
       width="38"
       height="20" />
    <use
       xlink:href="#cone"
       transform="matrix(-0.80901699,0.58778525,-0.58778525,-0.80901699,0,0)"
       id="use4321"
       x="0"
       y="0"
       width="38"
       height="20" />
    <use
       xlink:href="#cone"
       transform="matrix(-0.80901699,-0.58778525,0.58778525,-0.80901699,0,0)"
       id="use4323"
       x="0"
       y="0"
       width="38"
       height="20" />
  </g>
  <use
     xlink:href="#star"
     transform="matrix(0,1.2666667,-0.78947367,0,7.4473683,0.5666666)"
     id="use4325"
     x="0"
     y="0"
     width="38"
     height="20" />
  <use
     xlink:href="#star"
     transform="matrix(0,-1.2666667,0.78947367,0,-0.44736863,9.433334)"
     id="use4327"
     x="0"
     y="0"
     width="38"
     height="20" />
  <use
     xlink:href="#star"
     transform="matrix(-1,0,0,-1,7,10)"
     id="use4329"
     x="0"
     y="0"
     width="38"
     height="20" />
</svg>
