<?xml version="1.0" encoding="UTF-8" standalone="no"?>
<!-- Created with Inkscape (http://www.inkscape.org/) -->

<svg
   xmlns:dc="http://purl.org/dc/elements/1.1/"
   xmlns:cc="http://creativecommons.org/ns#"
   xmlns:rdf="http://www.w3.org/1999/02/22-rdf-syntax-ns#"
   xmlns:svg="http://www.w3.org/2000/svg"
   xmlns="http://www.w3.org/2000/svg"
   xmlns:sodipodi="http://sodipodi.sourceforge.net/DTD/sodipodi-0.dtd"
   xmlns:inkscape="http://www.inkscape.org/namespaces/inkscape"
   version="1.0"
   width="900"
   height="600"
   id="Layer_1"
   xml:space="preserve"
   inkscape:version="0.47 r22583"
   sodipodi:docname="Flag_of_Slovenia.svg"><metadata
     id="metadata17"><rdf:RDF><cc:Work
         rdf:about=""><dc:format>image/svg+xml</dc:format><dc:type
           rdf:resource="http://purl.org/dc/dcmitype/StillImage" /></cc:Work></rdf:RDF></metadata><sodipodi:namedview
     pagecolor="#ffffff"
     bordercolor="#666666"
     borderopacity="1"
     objecttolerance="10"
     gridtolerance="10"
     guidetolerance="10"
     inkscape:pageopacity="0"
     inkscape:pageshadow="2"
     inkscape:window-width="815"
     inkscape:window-height="842"
     id="namedview15"
     showgrid="false"
     inkscape:zoom="0.41833333"
     inkscape:cx="600"
     inkscape:cy="300"
     inkscape:window-x="0"
     inkscape:window-y="0"
     inkscape:window-maximized="0"
     inkscape:current-layer="Layer_1" /><defs
     id="defs3"><inkscape:perspective
       sodipodi:type="inkscape:persp3d"
       inkscape:vp_x="0 : 300 : 1"
       inkscape:vp_y="0 : 1000 : 0"
       inkscape:vp_z="1200 : 300 : 1"
       inkscape:persp3d-origin="600 : 200 : 1"
       id="perspective19" /></defs><rect
     width="900"
     height="600"
     x="0"
     y="0"
     id="rect3212"
     style="fill:#ffffff" /><rect
     width="900"
     height="200"
     x="0"
     y="400"
     id="rect6123"
     style="fill:#ed1c24;fill-opacity:1;stroke:none" /><rect
     width="900"
     height="200"
     x="0"
     y="200"
     id="rect4183"
     style="fill:#005da4;fill-opacity:1" /><path
     d="m 170.56101,115.3367 c -1.38602,0.8149 -2.76168,1.66088 -4.12699,2.53724 l 4.30102,90.7426 c 1.17159,24.73842 9.06197,48.15024 22.2851,65.78039 9.04229,12.05569 20.11181,20.78825 32.14108,25.60306 l 7.5e-4,0 c 12.02928,-4.8155 23.09932,-13.54737 32.14108,-25.60306 13.22262,-17.63015 21.11352,-41.04197 22.28459,-65.78039 l 4.30154,-90.7426 c -1.36583,-0.87636 -2.74045,-1.72234 -4.12751,-2.53724 l 7.5e-4,6.9e-4 -4.40253,92.89102 c -1.10168,23.38143 -8.55697,45.51011 -21.05343,62.17206 -8.23533,10.98182 -18.25239,19.04241 -29.14426,23.68391 l -0.002,0 C 214.26832,289.44288 204.2523,281.38229 196.01697,270.40047 183.52,253.73852 176.0647,231.60984 174.96354,208.22841 l -4.40305,-92.89171 7.5e-4,0"
     id="path13"
     style="fill:#ed1c24;fill-opacity:1" /><path
     d="M 279.76299,115.33739 C 262.72104,105.31895 244.14702,100 225.16174,100 c -18.9858,0 -37.55982,5.31895 -54.60177,15.33739 l 4.40357,92.89102 c 1.10115,23.38143 8.55646,45.51011 21.05343,62.17206 8.23585,10.98182 18.25186,19.04241 29.14373,23.68391 l 0.002,0 c 10.89187,-4.6415 20.90893,-12.70209 29.14322,-23.68391 12.49749,-16.66195 19.95279,-38.79063 21.05343,-62.17206"
     id="path15"
     style="fill:#005da4;fill-opacity:1" /><polyline
     style="fill:#ffdd00;fill-opacity:1"
     id="polyline17"
     points="119.764,62.917 124.434,56.539 116.574,57.394 113.386,50.161 110.197,57.394 102.338,56.539    107.008,62.917 102.338,69.295 110.197,68.44 113.386,75.673 116.574,68.44 124.434,69.295  "
     transform="matrix(0.51794505,0,0,0.6905934,166.43402,100)" /><polyline
     style="fill:#ffdd00;fill-opacity:1"
     id="polyline19"
     points="90,23.232 94.669,16.854 86.811,17.709 83.622,10.476 80.433,17.709 72.575,16.854 77.244,23.232    72.575,29.61 80.433,28.755 83.622,35.988 86.811,28.755 94.669,29.61  "
     transform="matrix(0.51794505,0,0,0.6905934,166.43402,100)" /><polyline
     style="fill:#ffdd00;fill-opacity:1"
     id="polyline21"
     points="149.527,23.232 154.195,16.854 146.338,17.709 143.148,10.476 139.959,17.709 132.102,16.854    136.771,23.232 132.102,29.61 139.959,28.755 143.148,35.988 146.338,28.755 154.195,29.61  "
     transform="matrix(0.51794505,0,0,0.6905934,166.43402,100)" /><path
     d="m 269.20779,221.75438 -22.02355,-39.1525 -8.80921,15.66127 -13.21381,-35.23683 -13.21382,35.23683 -8.8092,-15.66127 -22.02303,39.1525 c 0,5.19188 1.5471,10.17037 4.3005,13.84156 2.7534,3.66981 6.48726,5.73401 10.38169,5.73401 2.60009,0 5.12921,-0.91987 7.34187,-2.62358 0.0145,-0.0124 -0.0176,0.0138 -0.004,0.003 1.1027,-0.84943 2.29243,-1.51104 3.54326,-1.95715 3.76132,-1.3432 7.76866,-0.64087 11.141,1.95437 2.25151,1.7334 4.78685,2.62358 7.34239,2.62358 0.0109,0 -0.0134,0 -0.002,0 2.55606,0 5.09088,-0.89018 7.3429,-2.62358 3.37183,-2.59524 7.37969,-3.29896 11.141,-1.95437 1.25032,0.44611 2.44004,1.10772 3.54275,1.95715 0.015,0.011 -0.0171,-0.0145 -0.003,-0.003 2.21318,1.70371 4.74127,2.62358 7.34135,2.62358 3.89495,0 7.62881,-2.0635 10.38221,-5.73401 2.7534,-3.67119 4.3005,-8.64968 4.3005,-13.84156"
     id="path23"
     style="fill:#ffffff" /><path
     d="m 186.33244,243.01153 c 1.01051,2.67744 2.1215,5.28996 3.32883,7.82719 0,0 -5.2e-4,0.001 0,0.003 3.09938,1.90051 6.61364,2.31072 9.93626,1.12359 1.25135,-0.44612 2.44055,-1.1084 3.54325,-1.95715 0.0145,-0.011 -0.0176,0.0138 -0.003,0.003 2.21267,-1.70508 4.74179,-2.62358 7.34187,-2.62358 0.005,0 -0.007,0 -0.001,0 2.55555,-0.001 5.09088,0.88879 7.34239,2.62358 3.37235,2.59523 7.37969,3.29757 11.14152,1.95437 1.25032,-0.44612 2.44004,-1.1084 3.54275,-1.95715 0.015,-0.011 -0.0171,0.0138 -0.003,0.003 2.21214,-1.70508 4.74127,-2.62358 7.34239,-2.62358 0.005,0 -0.007,0 -0.002,0 2.55554,-0.001 5.09141,0.88879 7.34239,2.62358 3.37286,2.59523 7.37968,3.29757 11.141,1.95437 0.80747,-0.28729 1.58802,-0.66643 2.33697,-1.12498 l 0,0 c 1.20785,-2.53861 2.31884,-5.15113 3.32935,-7.82718 0,-0.001 0,0 0,0 -0.73341,0.37223 -1.44455,0.82249 -2.12617,1.34734 -0.014,0.0111 0.0181,-0.0138 0.004,-0.003 -1.1027,0.84875 -2.29243,1.50965 -3.54378,1.95715 -3.76132,1.3432 -7.76814,0.64087 -11.141,-1.95576 -2.25098,-1.7334 -4.78685,-2.62219 -7.34239,-2.62219 -0.005,0 0.008,0 0.002,0 -2.60061,0 -5.12973,0.91987 -7.34239,2.62356 -0.0139,0.0111 0.0181,-0.0138 0.003,-0.003 -1.10271,0.84943 -2.29243,1.51101 -3.54275,1.95715 -3.76183,1.34459 -7.76917,0.64225 -11.14152,-1.95439 -2.25151,-1.73338 -4.78684,-2.62356 -7.34239,-2.62356 -0.006,0 0.007,0 0.002,0 -2.60008,0 -5.1292,0.91987 -7.34187,2.62495 -0.0145,0.011 0.0176,-0.0138 0.003,-0.003 -1.1027,0.84873 -2.2919,1.50962 -3.54325,1.95713 -3.76132,1.34322 -7.76866,0.64088 -11.141,-1.95576 -0.68421,-0.52623 -1.39483,-0.97511 -2.12409,-1.34459 -5.2e-4,0 0,-0.001 0,0"
     id="path25"
     style="fill:#ffffff" /><path
     d="m 256.85894,258.03471 c -1.71077,2.92258 -3.56294,5.72017 -5.55082,8.36929 -7.42733,9.90311 -16.39192,17.28348 -26.1469,21.72952 l -5.2e-4,0 c -9.75497,-4.44604 -18.72009,-11.82502 -26.14741,-21.72952 -1.98736,-2.64912 -3.83953,-5.44671 -5.5503,-8.36929 0,0 -5.2e-4,0 0,0 2.02464,0.43437 4.11507,0.30248 6.13402,-0.41781 1.25135,-0.44751 2.44055,-1.10841 3.54326,-1.95715 0.0145,-0.011 -0.0176,0.0138 -0.003,0.003 2.21265,-1.70507 4.74178,-2.62357 7.34187,-2.62357 0.005,0 -0.007,0 -0.001,0 2.55554,-10e-4 5.09088,0.88879 7.34238,2.62219 3.37235,2.59662 7.37969,3.29895 11.14101,1.95576 1.25135,-0.44751 2.44107,-1.10841 3.54378,-1.95715 0.0139,-0.011 -0.0181,0.0138 -0.003,0.003 2.21214,-1.70507 4.74127,-2.62357 7.34135,-2.62357 0.005,0 -0.006,0 -7.5e-4,0 2.55554,-0.001 5.09036,0.88879 7.34239,2.62219 2.93675,2.2617 6.35674,3.08627 9.67521,2.37287 7.5e-4,0 0,0 -7.5e-4,10e-4"
     id="path27"
     style="fill:#ffffff" /></svg>