<?xml version="1.0" encoding="UTF-8" standalone="no"?>
<!-- Created with Inkscape (http://www.inkscape.org/) -->

<svg
   xmlns:dc="http://purl.org/dc/elements/1.1/"
   xmlns:cc="http://creativecommons.org/ns#"
   xmlns:rdf="http://www.w3.org/1999/02/22-rdf-syntax-ns#"
   xmlns:svg="http://www.w3.org/2000/svg"
   xmlns="http://www.w3.org/2000/svg"
   xmlns:sodipodi="http://sodipodi.sourceforge.net/DTD/sodipodi-0.dtd"
   xmlns:inkscape="http://www.inkscape.org/namespaces/inkscape"
   width="900"
   height="600"
   id="svg2"
   sodipodi:version="0.32"
   inkscape:version="0.47 r22583"
   version="1.0"
   sodipodi:docname="Flag_of_Gibraltar.svg">
  <defs
     id="defs4">
    <inkscape:perspective
       sodipodi:type="inkscape:persp3d"
       inkscape:vp_x="0 : 250 : 1"
       inkscape:vp_y="0 : 1000 : 0"
       inkscape:vp_z="1000 : 250 : 1"
       inkscape:persp3d-origin="500 : 166.66667 : 1"
       id="perspective3018" />
  </defs>
  <sodipodi:namedview
     id="base"
     pagecolor="#ffffff"
     bordercolor="#666666"
     borderopacity="1.0"
     inkscape:pageopacity="0.0"
     inkscape:pageshadow="2"
     inkscape:zoom="0.3325"
     inkscape:cx="500"
     inkscape:cy="250"
     inkscape:document-units="px"
     inkscape:current-layer="layer1"
     inkscape:window-width="756"
     inkscape:window-height="540"
     inkscape:window-x="22"
     inkscape:window-y="31"
     showguides="true"
     inkscape:guide-bbox="true"
     showgrid="false"
     inkscape:window-maximized="0" />
  <metadata
     id="metadata7">
    <rdf:RDF>
      <cc:Work
         rdf:about="">
        <dc:format>image/svg+xml</dc:format>
        <dc:type
           rdf:resource="http://purl.org/dc/dcmitype/StillImage" />
      </cc:Work>
    </rdf:RDF>
  </metadata>
  <g
     inkscape:label="Layer 1"
     inkscape:groupmode="layer"
     id="layer1"
     transform="translate(0,100)">
    <g
       id="g3069"
       transform="matrix(1.7578125,0,0,2.3437499,0,-99.999985)">
      <rect
         y="0"
         x="0"
         height="256"
         width="512"
         id="rect2813"
         style="fill:#ffffff;fill-opacity:1;fill-rule:nonzero;stroke:none" />
      <rect
         y="171.50002"
         x="0"
         height="84.5"
         width="512"
         id="rect2943"
         style="fill:#da000c;fill-opacity:1;fill-rule:nonzero;stroke:none" />
      <g
         id="g2968">
        <path
           style="fill:#f8d80e;fill-opacity:1;fill-rule:nonzero;stroke:#000000;stroke-width:0.96225047;stroke-linecap:butt;stroke-linejoin:miter;stroke-miterlimit:4;stroke-opacity:1;stroke-dasharray:none;stroke-dashoffset:0.99999998"
           d="m 235.78125,227.5625 0,8.03125 5.03125,0 0,-4.03125 6.84375,0 0,4.03125 5.40625,0 0,-8.03125 -17.28125,0 z m 0,11.0625 0,8.0625 17.28125,0 0,-8.0625 -5.40625,0 0,4.03125 -6.84375,0 0,-4.03125 -5.03125,0 z"
           id="rect2744" />
        <rect
           style="fill:#000000;fill-opacity:1;fill-rule:nonzero;stroke:none"
           id="rect2578"
           width="118.85789"
           height="43.992859"
           x="196.57106"
           y="116.30338" />
        <path
           style="fill:#da000c;fill-opacity:1;fill-rule:nonzero;stroke:#000000;stroke-width:0.96225047;stroke-linecap:square;stroke-linejoin:miter;stroke-miterlimit:4;stroke-opacity:1;stroke-dashoffset:0.99999998"
           d="m 229.81889,153.86465 -39.06889,0 -8.66011,5.69979 0,6.03967 47.729,0"
           id="path2241" />
        <path
           id="path2429"
           d="m 282.18111,153.86465 39.06889,0 8.66011,5.69979 0,6.03967 -47.729,0"
           style="fill:#da000c;fill-opacity:1;fill-rule:nonzero;stroke:#000000;stroke-width:0.96225047;stroke-linecap:square;stroke-linejoin:miter;stroke-miterlimit:4;stroke-opacity:1;stroke-dashoffset:0.99999998" />
        <path
           id="path2239"
           style="fill:#da000c;fill-opacity:1;fill-rule:nonzero;stroke:#000000;stroke-width:0.96225047;stroke-linecap:square;stroke-linejoin:miter;stroke-miterlimit:4;stroke-opacity:1;stroke-dashoffset:0.99999998"
           d="m 182.08989,159.56444 147.82022,0"
           sodipodi:nodetypes="cc" />
        <path
           style="fill:#da000c;fill-opacity:1;fill-rule:evenodd;stroke:#000000;stroke-width:0.96225047px;stroke-linecap:butt;stroke-linejoin:miter;stroke-opacity:1"
           d="m 228.5625,156.8125 -9.78125,4.71875 0,7.03125 37.21875,0 37.21875,0 0,-7.03125 -9.78125,-4.71875 -27.4375,0 -27.4375,0 z"
           id="path2861" />
        <g
           id="g2731">
          <path
             id="path2659"
             d="m 273.29688,150.03125 c -1.34177,0.39513 -3.03997,1.25309 -5.125,2.40625 -2.08504,1.15316 -4.46995,2.60401 -6.71875,4.09375 -1.6672,1.10445 -3.0598,2.2073 -4.4375,3.28125 -0.48062,0.37465 -1.14314,0.76616 -1.5625,1.125 -0.49019,0.41944 -0.82607,0.81979 -1.21875,1.21875 -0.25679,0.2609 -0.59888,0.52432 -0.8125,0.78125 -0.5403,0.64982 -1.0625,1.21528 -1.0625,2.40625 0,0.21619 0.006,0.43298 0.0312,0.65625 0.77484,-0.92888 1.88738,-1.57486 3.125,-1.71875 0.006,1.5e-4 0.0275,1.7e-4 0.0312,0 0.0315,9e-5 0.0934,-6.2e-4 0.125,0 0.004,-7e-5 0.0253,-9e-5 0.0312,0 0.12206,-0.01 0.21933,0 0.34375,0 0.12441,0 0.22168,-0.01 0.34375,0 0.18759,0.0147 0.35356,0.0591 0.53125,0.0937 0.0683,-0.063 0.12149,-0.12616 0.1875,-0.1875 0.22719,-0.21114 0.34986,-0.35832 0.625,-0.59375 0.54971,-0.47037 1.45603,-1.06566 2.15625,-1.59375 1.13281,-0.85434 2.15926,-1.67431 3.5,-2.5625 2.16948,-1.4372 4.48036,-2.83779 6.46875,-3.9375 1.98838,-1.09971 3.75337,-1.89229 4.4375,-2.09375 l -1,-3.375 z"
             style="fill:#f8d80e;fill-opacity:1;fill-rule:evenodd;stroke:#000000;stroke-width:0.73900837;stroke-linecap:butt;stroke-linejoin:miter;stroke-miterlimit:4;stroke-opacity:1;stroke-dasharray:none" />
          <path
             style="fill:none;stroke:#000000;stroke-width:0.96225047;stroke-linecap:round;stroke-linejoin:miter;stroke-miterlimit:4;stroke-opacity:1;stroke-dasharray:none"
             d="m 260.40041,157.3913 0,3.9119"
             id="path2766"
             sodipodi:nodetypes="cc" />
          <path
             sodipodi:nodetypes="cc"
             id="path2770"
             d="m 262.81691,155.68544 0,3.88277"
             style="fill:none;stroke:#000000;stroke-width:0.96225047;stroke-linecap:round;stroke-linejoin:miter;stroke-miterlimit:4;stroke-opacity:1;stroke-dasharray:none" />
          <path
             style="fill:none;stroke:#000000;stroke-width:0.96225059;stroke-linecap:round;stroke-linejoin:miter;stroke-miterlimit:4;stroke-opacity:1;stroke-dasharray:none"
             d="m 265.23339,154.17984 0,3.85813"
             id="path2772"
             sodipodi:nodetypes="cc" />
          <path
             sodipodi:nodetypes="cc"
             id="path2774"
             d="m 267.64986,152.69367 0,3.98131"
             style="fill:none;stroke:#000000;stroke-width:0.96225035;stroke-linecap:round;stroke-linejoin:miter;stroke-miterlimit:4;stroke-opacity:1;stroke-dasharray:none" />
        </g>
        <path
           id="path2245"
           style="fill:#da000c;fill-opacity:1;fill-rule:evenodd;stroke:#000000;stroke-width:0.96225047px;stroke-linecap:butt;stroke-linejoin:miter;stroke-opacity:1"
           d="m 218.771,161.51923 74.458,0"
           sodipodi:nodetypes="cc" />
        <path
           style="fill:#da000c;fill-opacity:1;fill-rule:nonzero;stroke:#000000;stroke-width:0.96225047;stroke-linecap:square;stroke-linejoin:miter;stroke-miterlimit:4;stroke-opacity:1;stroke-dashoffset:0.99999998"
           d="m 213.46875,128.59375 c 5.62482,0 10.21875,4.68928 10.21875,10.46875 l 0,14.78125 7.34375,0 0,-56 -40.28125,0 0,56 12.5,0 0,-14.78125 c -1e-5,-5.55372 4.51491,-10.46875 10.21875,-10.46875 z"
           id="rect2994" />
        <rect
           style="fill:#000000;fill-opacity:1;fill-rule:nonzero;stroke:none"
           id="rect2574"
           width="18.523308"
           height="33.9594"
           x="204.5282"
           y="59.961655" />
        <path
           id="path2970"
           style="fill:#da000c;fill-opacity:1;fill-rule:evenodd;stroke:#000000;stroke-width:0.96225047px;stroke-linecap:butt;stroke-linejoin:miter;stroke-opacity:1"
           d="m 223,88.65625 -16.20892,0 0,-5.75 -11.88483,0 0,5.75 -8.0625,0 0,-5.75 -4.8125,0 0,10.4375 40.96875,0 m -36.15625,-0.03771 34.97039,0 0,4.537714 -34.97039,0 0,-4.537714 z" />
        <path
           style="fill:#da000c;fill-opacity:1;fill-rule:evenodd;stroke:#000000;stroke-width:0.96225047px;stroke-linecap:butt;stroke-linejoin:miter;stroke-opacity:1"
           d="m 200.71875,47.625 0,35.28125 6.07233,0 0,-9.6875 c 0,-3.629302 2.56206,-6.599364 6.14642,-6.78125 0.11562,-0.0059 0.22668,0 0.34375,0 3.74638,-3e-6 6.78125,3.034874 6.78125,6.78125 l 0,9.6875 5.78125,0 0,-35.28125 -25.125,0 z"
           id="path3017" />
        <rect
           style="fill:#000000;fill-opacity:1;fill-rule:nonzero;stroke:none"
           id="rect2572"
           width="29.328571"
           height="53.254513"
           x="240.80301"
           y="38.351128" />
        <path
           style="fill:#da000c;fill-opacity:1;fill-rule:evenodd;stroke:#000000;stroke-width:0.96225047px;stroke-linecap:butt;stroke-linejoin:miter;stroke-opacity:1"
           d="m 238.75,38.375 0,44.5625 9.3125,0 0,-13.21875 c 0,-3.048928 1.95251,-7.28125 7.9375,-7.28125 5.98499,0 7.9375,4.232322 7.9375,7.28125 l 0,13.21875 9.3125,0 0,-44.5625 -17.25,0 -17.25,0 z m 15.8125,5 1.4375,0 1.4375,0 0,15.25 -1.4375,0 -1.4375,0 0,-15.25 z m -8.25,3 2.90625,0 0,11.15625 -2.90625,0 0,-11.15625 z m 16.46875,0 2.90625,0 0,11.15625 -2.90625,0 0,-11.15625 z"
           id="path2937" />
        <path
           style="fill:#da000c;fill-opacity:1;fill-rule:nonzero;stroke:#000000;stroke-width:0.96225047;stroke-linecap:square;stroke-linejoin:miter;stroke-miterlimit:4;stroke-opacity:1;stroke-dashoffset:0.99999998"
           d="m 235.59375,31.96875 0,6.34375 20.40625,0 20.40625,0 0,-6.34375 -20.40625,0 -20.40625,0 z"
           id="rect2945" />
        <path
           style="fill:#da000c;fill-opacity:1;fill-rule:nonzero;stroke:#000000;stroke-width:0.96225047;stroke-linecap:square;stroke-linejoin:miter;stroke-miterlimit:4;stroke-opacity:1;stroke-dashoffset:0.99999998"
           d="m 231.75,24.59375 0,7.375 24.25,0 24.25,0 0,-7.375 -6.09375,0 0,4.0625 -6.875,0 0,-4.0625 -7.84375,0 0,4.0625 -3.4375,0 -3.4375,0 0,-4.0625 -7.84375,0 0,4.0625 -6.875,0 0,-4.0625 -6.09375,0 z"
           id="rect2954" />
        <path
           style="fill:#da000c;fill-opacity:1;fill-rule:nonzero;stroke:#000000;stroke-width:0.96225047;stroke-linecap:square;stroke-linejoin:miter;stroke-miterlimit:4;stroke-opacity:1;stroke-dasharray:none;stroke-dashoffset:0.99999998"
           d="m 198.53125,42.84375 0,4.78125 29.25,0 0,-4.78125 -29.25,0 z"
           id="rect3026" />
        <path
           style="fill:#da000c;fill-opacity:1;fill-rule:nonzero;stroke:#000000;stroke-width:0.96225047;stroke-linecap:square;stroke-linejoin:miter;stroke-miterlimit:4;stroke-opacity:1;stroke-dasharray:none;stroke-dashoffset:0.99999998"
           d="m 194.78125,33.6875 0,9.15625 35.09375,0 0,-9.15625 -5.40625,0 0,4.65625 -6.53125,0 0,-4.65625 -9.96875,0 0,4.65625 -6.53125,0 0,-4.65625 -6.65625,0 z"
           id="rect2982"
           sodipodi:nodetypes="ccccccccccccc" />
        <rect
           style="fill:#f8d80e;fill-opacity:1;fill-rule:nonzero;stroke:#000000;stroke-width:0.96225065;stroke-linecap:butt;stroke-linejoin:miter;stroke-miterlimit:4;stroke-opacity:1;stroke-dasharray:none;stroke-dashoffset:0.99999998"
           id="rect2581"
           width="4.9902272"
           height="58.115017"
           x="253.05186"
           y="193.65144" />
        <path
           style="fill:#f8d80e;fill-opacity:1;fill-rule:nonzero;stroke:#000000;stroke-width:0.98534459;stroke-linecap:butt;stroke-linejoin:miter;stroke-miterlimit:4;stroke-opacity:1;stroke-dasharray:none;stroke-dashoffset:0.99999998"
           d="m 255.54688,179.40625 10.625,6.1875 -10.625,6.15625 -10.625,-6.15625 10.625,-6.1875 z m -14.21875,3.96875 -2.78125,0 0,4.4375 2.78125,0 14.21875,8.25 14.21875,-8.25 2.78125,0 0,-4.4375 -2.78125,0 -14.21875,-8.25 -14.21875,8.25 z"
           id="path2617"
           sodipodi:nodetypes="cccccccccccccccc" />
        <g
           id="g2710">
          <path
             id="path2670"
             d="m 238.89063,150.15625 -1.1875,3.3125 c 3.84059,1.38796 9.28994,4.08623 13.65625,6.71875 2.18315,1.31626 4.0937,2.61029 5.40625,3.6875 0.65627,0.53861 1.16027,1.03845 1.4375,1.375 0.0341,0.0414 0.0742,0.0917 0.0937,0.125 0.003,0.006 -0.003,0.0252 0,0.0312 0.022,0.0461 0.0487,0.0946 0.0625,0.125 -0.0253,0.22369 -0.0654,0.46484 -0.125,0.625 -0.005,0.0128 -0.0257,0.0508 -0.0312,0.0625 -0.003,0.006 0.003,0.026 0,0.0312 -0.003,0.005 -0.0281,0.0266 -0.0312,0.0312 -0.0207,0.0267 -0.0405,0.0676 -0.0625,0.0937 -0.005,0.005 -0.0265,0.0262 -0.0312,0.0312 -0.005,0.005 -0.0259,0.0263 -0.0312,0.0312 -0.0115,0.01 -0.0493,0.022 -0.0625,0.0312 -0.0213,0.0135 -0.0672,0.0504 -0.0937,0.0625 -0.14286,0.058 -0.37638,0.0937 -0.75,0.0937 -0.22157,0 -0.40077,-0.0327 -0.53125,-0.0625 -0.0502,-0.0126 -0.11654,-0.0153 -0.15625,-0.0312 -0.0127,-0.005 -0.0508,-0.0254 -0.0625,-0.0312 -0.0339,-0.0179 -0.0669,-0.0424 -0.0937,-0.0625 -0.008,-0.008 -0.0268,-0.0274 -0.0312,-0.0312 -0.003,-0.003 -0.0286,-0.0273 -0.0312,-0.0312 -0.008,-0.0134 -0.0237,-0.0517 -0.0312,-0.0625 -0.002,1e-4 -0.0288,-4e-5 -0.0312,0 -0.003,1.9e-4 -0.028,-7.4e-4 -0.0312,0 -0.007,-2.3e-4 -0.0233,4e-5 -0.0312,0 -0.0164,1.2e-4 -0.0484,0 -0.0625,0 -0.0969,0 -0.18682,-0.01 -0.28125,0 -1.14744,0.11588 -2.11966,0.93411 -2.4375,2.0625 3.1e-4,0.003 -9e-5,0.0286 0,0.0312 0.004,0.004 0.0274,0.0274 0.0312,0.0312 0.0157,0.0143 0.0467,0.0458 0.0625,0.0625 0.80273,0.96876 2.18,1.625 3.71875,1.625 1.61838,0 3.02965,-0.67766 3.8125,-1.6875 0.78284,-1.00984 0.96875,-2.15809 0.96875,-3.09375 0,-1.09112 -0.48992,-1.72453 -1,-2.34375 -0.51009,-0.61922 -1.17229,-1.21574 -1.9375,-1.84375 -1.53042,-1.25603 -3.53496,-2.59558 -5.8125,-3.96875 -4.55511,-2.74634 -10.08076,-5.51323 -14.28125,-7.03125 z"
             style="fill:#f8d80e;fill-opacity:1;fill-rule:evenodd;stroke:#000000;stroke-width:0.73900837;stroke-linecap:butt;stroke-linejoin:miter;stroke-miterlimit:4;stroke-opacity:1;stroke-dasharray:none" />
          <path
             sodipodi:nodetypes="cc"
             id="path2693"
             d="m 254.04985,158.03521 -0.31238,3.33948"
             style="fill:none;stroke:#000000;stroke-width:0.96225047;stroke-linecap:round;stroke-linejoin:miter;stroke-miterlimit:4;stroke-opacity:1;stroke-dasharray:none" />
          <path
             sodipodi:nodetypes="cc"
             id="path2705"
             d="m 256.8319,159.73914 -0.86199,3.26968"
             style="fill:none;stroke:#000000;stroke-width:0.96225047;stroke-linecap:round;stroke-linejoin:miter;stroke-miterlimit:4;stroke-opacity:1;stroke-dasharray:none" />
          <path
             sodipodi:nodetypes="cc"
             id="path2709"
             d="m 259.80442,162.01152 -1.8089,2.53732"
             style="fill:none;stroke:#000000;stroke-width:0.96225047;stroke-linecap:round;stroke-linejoin:miter;stroke-miterlimit:4;stroke-opacity:1;stroke-dasharray:none" />
          <path
             sodipodi:nodetypes="cc"
             id="path2713"
             d="m 260.71528,168.18078 -2.61016,-1.40046"
             style="fill:none;stroke:#000000;stroke-width:0.96225059;stroke-linecap:round;stroke-linejoin:miter;stroke-miterlimit:4;stroke-opacity:1;stroke-dasharray:none" />
          <path
             id="path2715"
             d="m 261.52792,165.42898 -2.99541,0.28045"
             style="fill:none;stroke:#000000;stroke-width:0.96225047px;stroke-linecap:round;stroke-linejoin:miter;stroke-opacity:1"
             sodipodi:nodetypes="cc" />
          <path
             sodipodi:nodetypes="cc"
             id="path2719"
             d="m 257.66497,169.7646 -0.2051,-2.63232"
             style="fill:none;stroke:#000000;stroke-width:0.96225059;stroke-linecap:round;stroke-linejoin:miter;stroke-miterlimit:4;stroke-opacity:1;stroke-dasharray:none" />
          <path
             sodipodi:nodetypes="cc"
             id="path1881"
             d="m 256.56809,166.75559 -2.473,1.8222"
             style="fill:none;stroke:#000000;stroke-width:0.96225047px;stroke-linecap:round;stroke-linejoin:miter;stroke-opacity:1" />
          <path
             style="fill:none;stroke:#000000;stroke-width:0.96225047;stroke-linecap:round;stroke-linejoin:miter;stroke-miterlimit:4;stroke-opacity:1;stroke-dasharray:none"
             d="m 244.67669,152.9368 0,3.11504"
             id="path2760"
             sodipodi:nodetypes="cc" />
          <path
             sodipodi:nodetypes="cc"
             id="path2762"
             d="m 250.96338,156.24386 0,3.53419"
             style="fill:none;stroke:#000000;stroke-width:0.96225065;stroke-linecap:round;stroke-linejoin:miter;stroke-miterlimit:4;stroke-opacity:1;stroke-dasharray:none" />
          <path
             style="fill:none;stroke:#000000;stroke-width:0.96225059;stroke-linecap:round;stroke-linejoin:miter;stroke-miterlimit:4;stroke-opacity:1;stroke-dasharray:none"
             d="m 247.82004,154.59318 0,3.31892"
             id="path2764"
             sodipodi:nodetypes="cc" />
        </g>
        <path
           style="fill:#f8d80e;fill-opacity:1;fill-rule:nonzero;stroke:#000000;stroke-width:0.98534459;stroke-linecap:butt;stroke-linejoin:miter;stroke-miterlimit:4;stroke-opacity:1;stroke-dasharray:none;stroke-dashoffset:0.99999998"
           d="m 255.34375,164.28125 c -2.31969,0.35626 -4.09375,2.46714 -4.09375,4.9375 l 0,11.03125 c 0,2.7174 2.15846,4.96876 4.8125,4.96875 0.0691,0 0.11905,0.003 0.1875,0 0.0684,0.003 0.11838,0 0.1875,0 1.88686,1e-5 3.52413,-1.14695 4.3125,-2.78125 l -1.71875,-1.03125 c -0.4275,1.05953 -1.43051,1.78127 -2.59375,1.78125 -0.045,0 -0.0883,-2.6e-4 -0.125,0 -0.0115,-1.9e-4 -0.046,1.3e-4 -0.0625,0 -0.0176,0.001 -0.0472,-2.5e-4 -0.0625,0 -0.0367,-2.6e-4 -0.08,0 -0.125,0 -1.55099,2e-5 -2.8125,-1.27813 -2.8125,-2.9375 l 0,-11.03125 c 0,-1.65936 1.2615,-2.90625 2.8125,-2.90625 0.044,0 0.0879,2.8e-4 0.125,0 0.0153,2.7e-4 0.0453,-0.001 0.0625,0 0.0164,-1.4e-4 0.051,2e-4 0.0625,0 0.0371,2.8e-4 0.081,0 0.125,0 0.43622,0 0.84996,0.10255 1.21875,0.28125 0.003,9e-5 0.0291,-2.9e-4 0.0312,0 0.0817,-0.0148 0.16518,-0.0408 0.21875,-0.0625 0.0251,-0.0161 0.0778,-0.0524 0.0937,-0.0625 0.005,-0.006 0.0261,-0.0257 0.0312,-0.0312 0.003,3e-5 0.0276,-1.6e-4 0.0312,0 0.005,-0.005 0.0262,-0.0262 0.0312,-0.0312 0.007,-0.007 0.029,-0.0287 0.0312,-0.0312 0.0188,-0.0257 0.0444,-0.0704 0.0625,-0.0937 -6e-5,-0.003 4e-4,-0.0277 0,-0.0312 0,0 0.0312,-0.0312 0.0312,-0.0312 0.004,-0.009 0.023,-0.0459 0.0312,-0.0625 0.0596,-0.16016 0.0997,-0.40131 0.125,-0.625 -0.0138,-0.0304 -0.0405,-0.0789 -0.0625,-0.125 2e-4,-0.002 6e-5,-0.0242 0,-0.0312 -0.0213,-0.0325 -0.0639,-0.0887 -0.0937,-0.125 -0.20307,-0.24652 -0.55161,-0.56469 -0.96875,-0.9375 -0.003,6.4e-4 -0.0285,-1.6e-4 -0.0312,0 -0.0299,-0.007 -0.095,-0.0249 -0.125,-0.0312 -0.004,-2.5e-4 -0.0274,-5e-5 -0.0312,0 -0.0161,2.4e-4 -0.0531,3.7e-4 -0.0625,0 -0.006,10e-5 -0.0273,9e-5 -0.0312,0 -0.0177,2.2e-4 -0.0504,-3.8e-4 -0.0625,0 -0.0324,10e-4 -0.0959,0.002 -0.125,0 -0.12206,-0.01 -0.21934,0 -0.34375,0 -0.0778,0 -0.11827,4.7e-4 -0.1875,0 -0.0692,4.7e-4 -0.10974,0 -0.1875,0 -0.12441,0 -0.22169,-0.01 -0.34375,0 -0.0291,0.002 -0.0926,10e-4 -0.125,0 -0.012,-3.8e-4 -0.0448,2.2e-4 -0.0625,0 -0.008,1.8e-4 -0.0258,-6.3e-4 -0.0312,0 -0.0125,4.9e-4 -0.0519,9e-4 -0.0625,0 -0.004,-5e-5 -0.0271,-2.5e-4 -0.0312,0 -0.0183,0.003 -0.0442,-0.003 -0.0625,0 z m 5.78125,3.90625 c -0.0507,0.0754 -0.10115,0.17474 -0.15625,0.25 -0.41589,0.53648 -1.01132,0.98407 -1.71875,1.28125 l 0,7.5625 2,1.15625 0,-9.21875 c 0,-0.35013 -0.0257,-0.69981 -0.0937,-1.03125 -0.003,-0.001 -0.0285,2.5e-4 -0.0312,0 z"
           id="path2671" />
        <path
           id="path2437"
           d="m 298.53125,128.59375 c -5.62482,0 -10.21875,4.68928 -10.21875,10.46875 l 0,14.78125 -7.34375,0 0,-56 40.28125,0 0,56 -12.5,0 0,-14.78125 c 10e-6,-5.55372 -4.51491,-10.46875 -10.21875,-10.46875 z"
           style="fill:#da000c;fill-opacity:1;fill-rule:nonzero;stroke:#000000;stroke-width:0.96225047;stroke-linecap:square;stroke-linejoin:miter;stroke-miterlimit:4;stroke-opacity:1;stroke-dashoffset:0.99999998" />
        <path
           style="fill:#da000c;fill-opacity:1;fill-rule:nonzero;stroke:#000000;stroke-width:0.96225047;stroke-linecap:round;stroke-linejoin:miter;stroke-miterlimit:4;stroke-opacity:1;stroke-dasharray:none;stroke-dashoffset:0.99999998"
           d="m 222.75,97.84375 0,4.59375 33.25,0 33.25,0 0,-4.59375 -33.25,0 -33.25,0 z"
           id="path2846" />
        <rect
           y="59.961655"
           x="-307.4718"
           height="33.9594"
           width="18.523308"
           id="rect2576"
           style="fill:#000000;fill-opacity:1;fill-rule:nonzero;stroke:none"
           transform="scale(-1,1)" />
        <path
           d="m 289,88.65625 16.20892,0 0,-5.75 11.88483,0 0,5.75 8.0625,0 0,-5.75 4.8125,0 0,10.4375 -40.96875,0 m 36.15625,-0.03771 -34.97039,0 0,4.537714 34.97039,0 0,-4.537714 z"
           style="fill:#da000c;fill-opacity:1;fill-rule:evenodd;stroke:#000000;stroke-width:0.96225047px;stroke-linecap:butt;stroke-linejoin:miter;stroke-opacity:1"
           id="path2443" />
        <path
           id="path2445"
           d="m 311.28125,47.625 0,35.28125 -6.07233,0 0,-9.6875 c 0,-3.629302 -2.56206,-6.599364 -6.14642,-6.78125 -0.11562,-0.0059 -0.22668,0 -0.34375,0 -3.74638,-3e-6 -6.78125,3.034874 -6.78125,6.78125 l 0,9.6875 -5.78125,0 0,-35.28125 25.125,0 z"
           style="fill:#da000c;fill-opacity:1;fill-rule:evenodd;stroke:#000000;stroke-width:0.96225047px;stroke-linecap:butt;stroke-linejoin:miter;stroke-opacity:1" />
        <path
           style="fill:#da000c;fill-opacity:1;fill-rule:evenodd;stroke:#000000;stroke-width:0.96225047px;stroke-linecap:butt;stroke-linejoin:miter;stroke-opacity:1"
           d="m 220.03125,82.90625 0,14.9375 35.96875,0 35.96875,0 0,-14.9375 -6.8125,0 0,5.75 -9.0625,0 0,-5.75 -12.15625,0 0,5.75 -7.9375,0 -7.9375,0 0,-5.75 -12.15625,0 0,5.75 -9.0625,0 0,-5.75 -6.8125,0 z"
           id="path2851" />
        <path
           id="path2455"
           d="m 313.46875,42.84375 0,4.78125 -29.25,0 0,-4.78125 29.25,0 z"
           style="fill:#da000c;fill-opacity:1;fill-rule:nonzero;stroke:#000000;stroke-width:0.96225047;stroke-linecap:square;stroke-linejoin:miter;stroke-miterlimit:4;stroke-opacity:1;stroke-dasharray:none;stroke-dashoffset:0.99999998" />
        <path
           sodipodi:nodetypes="ccccccccccccc"
           id="path2457"
           d="m 317.21875,33.6875 0,9.15625 -35.09375,0 0,-9.15625 5.40625,0 0,4.65625 6.53125,0 0,-4.65625 9.96875,0 0,4.65625 6.53125,0 0,-4.65625 6.65625,0 z"
           style="fill:#da000c;fill-opacity:1;fill-rule:nonzero;stroke:#000000;stroke-width:0.96225047;stroke-linecap:square;stroke-linejoin:miter;stroke-miterlimit:4;stroke-opacity:1;stroke-dasharray:none;stroke-dashoffset:0.99999998" />
        <rect
           y="198.6788"
           x="253.05186"
           height="50.060368"
           width="4.9902272"
           id="rect2635"
           style="fill:#f8d80e;fill-opacity:1;fill-rule:nonzero;stroke:#000000;stroke-width:0.96225089;stroke-linecap:butt;stroke-linejoin:miter;stroke-miterlimit:4;stroke-opacity:1;stroke-dasharray:none;stroke-dashoffset:0.99999998" />
        <path
           sodipodi:nodetypes="cccszsccccc"
           style="fill:#da000c;fill-opacity:1;fill-rule:evenodd;stroke:#000000;stroke-width:0.96225047;stroke-linecap:butt;stroke-linejoin:round;stroke-miterlimit:4;stroke-opacity:1;stroke-dasharray:none"
           d="m 228.6875,102.4375 0,54.34375 12.84375,0 c 0,0 0,-11.24873 0,-20.34375 0,-9.58273 6.3963,-14.09375 14.46875,-14.09375 7.75894,0 14.46875,4.51102 14.46875,14.09375 0,9.09502 0,20.34375 0,20.34375 l 12.84375,0 0,-54.34375 -27.3125,0 -27.3125,0 z"
           id="path2849" />
      </g>
    </g>
  </g>
</svg>
