<?xml version="1.0" encoding="UTF-8" standalone="no"?>
<svg
   xmlns:dc="http://purl.org/dc/elements/1.1/"
   xmlns:cc="http://creativecommons.org/ns#"
   xmlns:rdf="http://www.w3.org/1999/02/22-rdf-syntax-ns#"
   xmlns:svg="http://www.w3.org/2000/svg"
   xmlns="http://www.w3.org/2000/svg"
   xmlns:xlink="http://www.w3.org/1999/xlink"
   xmlns:sodipodi="http://sodipodi.sourceforge.net/DTD/sodipodi-0.dtd"
   xmlns:inkscape="http://www.inkscape.org/namespaces/inkscape"
   width="900"
   height="600"
   id="svg2948"
   version="1.1"
   inkscape:version="0.47 r22583"
   sodipodi:docname="Flag_of_Kosovo.svg">
  <metadata
     id="metadata2969">
    <rdf:RDF>
      <cc:Work
         rdf:about="">
        <dc:format>image/svg+xml</dc:format>
        <dc:type
           rdf:resource="http://purl.org/dc/dcmitype/StillImage" />
      </cc:Work>
    </rdf:RDF>
  </metadata>
  <defs
     id="defs2967">
    <inkscape:perspective
       sodipodi:type="inkscape:persp3d"
       inkscape:vp_x="0 : 300 : 1"
       inkscape:vp_y="0 : 1000 : 0"
       inkscape:vp_z="840 : 300 : 1"
       inkscape:persp3d-origin="420 : 200 : 1"
       id="perspective2971" />
  </defs>
  <sodipodi:namedview
     pagecolor="#ffffff"
     bordercolor="#666666"
     borderopacity="1"
     objecttolerance="10"
     gridtolerance="10"
     guidetolerance="10"
     inkscape:pageopacity="0"
     inkscape:pageshadow="2"
     inkscape:window-width="1037"
     inkscape:window-height="730"
     id="namedview2965"
     showgrid="false"
     inkscape:zoom="0.41833333"
     inkscape:cx="420"
     inkscape:cy="300"
     inkscape:window-x="0"
     inkscape:window-y="0"
     inkscape:window-maximized="0"
     inkscape:current-layer="svg2948" />
  <rect
     width="900"
     height="600"
     style="fill:#244aa5"
     id="rect2950"
     x="0"
     y="0" />
  <path
     d="m 454.86551,190.13476 c 3.76547,4.1016 6.28648,8.2 6.28648,13.18502 -3.16158,1.45883 -7.52979,2.05455 -10.0508,4.69091 15.69786,-2.05561 18.82506,14.93369 36.40565,8.48663 0.63828,2.35294 3.15929,4.40642 6.28533,3.51872 l 1.88273,-4.67914 c 6.89153,-1.75722 5.00879,8.78395 12.56952,6.72941 3.76777,2.93369 1.24676,7.90695 3.76777,11.43636 0,4.09412 1.88388,7.60856 3.76432,11.12193 1.88388,-2.03958 3.1272,-4.97327 7.5298,-4.09412 3.12719,3.21604 5.6482,6.14973 6.28418,9.6631 -1.2754,6.74545 -3.15813,12.59679 4.37166,16.11016 l 0,2.05454 c 5.04201,2.05455 16.33728,-2.05454 16.33728,6.14974 -0.64057,2.93369 3.12605,0.29839 4.4026,2.05454 3.1272,-1.17647 7.52979,-0.57968 11.29412,-0.57968 3.12719,6.14974 -3.76433,10.54118 -5.64706,16.11016 3.12605,2.91872 1.88273,8.20428 1.24446,11.70161 l -1.88388,0.87914 c 5.00878,0.87808 11.29411,-0.5647 15.699,2.07059 l 8.16807,2.91765 c 3.76432,-2.03851 8.13599,-2.35187 13.17685,-2.03851 3.76547,2.63637 -1.27654,7.02781 1.88389,9.06738 4.40374,0 8.16806,0.5968 8.7731,4.11123 l 0.63828,1.16043 c 3.12719,-5.27166 11.93353,-1.75829 15.699,-5.55294 6.28533,0 7.52865,6.43209 10.6547,9.94652 1.27769,9.09733 -10.6547,13.20856 -6.89037,22.27487 -2.52101,4.39144 -7.5298,7.90695 -11.29413,12.01604 1.24332,0.59573 0.6039,2.03958 0.6039,2.91765 -3.76432,2.07166 -0.6039,8.22032 -5.64706,8.78717 -0.60503,3.82566 -8.13483,2.35187 -5.64706,6.46096 5.04088,6.14973 -2.48777,9.94652 -2.48777,15.53048 -3.16042,3.23102 -9.44576,-2.94973 -9.44576,3.23102 -3.76547,0.87807 -7.52979,-3.23102 -10.01757,0.28342 -1.27655,4.11016 2.48778,5.55294 1.88273,9.6631 6.25325,-0.59679 8.13599,5.27059 10.657,8.78503 l 6.28533,5.86631 c -6.28533,4.67486 -14.45455,-0.5968 -21.98549,2.0385 -1.88273,-0.87808 0,-3.2 -1.88273,-4.07808 -1.88274,-2.07165 -5.64707,-2.07165 -8.77311,-2.63743 0.60504,2.63743 -5.04202,3.51444 -2.52101,6.71444 0,0.87807 1.24331,3.51444 -1.24446,3.51444 -5.04201,1.47486 -4.4026,-4.07808 -8.80749,-2.03957 -5.64706,2.03957 -1.24331,9.94652 -9.41138,9.06737 1.24332,7.0599 -12.53858,11.73476 -3.1272,17.8845 1.24332,1.16149 0.60505,3.51337 0.60505,5.27058 -5.64821,4.70589 -15.66693,2.94974 -21.95111,1.19145 -5.04202,-1.19145 -1.88274,-7.05882 -3.76433,-10.25882 -1.88273,-2.94867 -7.52979,-4.98824 -7.52979,-9.0984 -3.76776,-1.44492 -6.92475,-2.3508 -9.44576,-5.27166 -8.7731,7.90695 -19.4599,15.53048 -32.00191,15.81284 -5.64706,2.63529 -8.80634,13.20962 -17.58059,8.81497 -3.44577,5.27273 -13.81628,0 -14.43851,7.59465 -4.08403,1.4738 -2.2013,6.46203 -4.70511,8.78396 -0.94195,5.86631 0,10.85454 5.32734,14.37005 2.2013,4.39145 -4.70626,4.39145 -1.88273,8.50268 0.63942,1.44385 0,3.51336 -0.9408,4.10909 -1.88273,0.87807 -2.50381,1.75828 -1.88273,3.51443 -1.56303,0 -2.20015,0.87808 -3.44576,2.03851 -1.58021,2.91871 -6.589,4.39251 -10.05081,6.43208 -3.44575,0.87808 -5.96676,-1.44385 -8.15202,-3.51337 -0.63941,3.23102 -3.4618,4.98824 -6.90756,4.98824 -5.02597,0 -4.08403,-4.11016 -7.8495,-5.86631 1.56302,-5.27166 -3.46181,-7.59358 -1.88274,-12.29947 4.08289,-2.91764 10.97556,-4.98823 9.09282,-11.13689 -4.38655,-4.95829 -2.82353,-12.29947 -7.21008,-18.16578 -2.82354,-2.32192 -7.5298,-5.83529 -5.96677,-11.42032 4.08403,-4.39144 0,-9.6631 -2.2013,-14.33797 -0.9408,-3.82674 -3.44577,-7.3401 -3.44577,-11.73369 -6.90755,-3.79572 -7.22726,-13.77326 -16.95835,-14.65133 -6.90757,0 -8.15203,-8.18931 -15.0596,-7.6246 -0.63827,-1.16043 -2.20129,-2.03851 -3.46179,-3.2 -5.00879,3.2 -11.29412,-0.87808 -17.56456,0.5647 -4.08403,-6.43208 3.44577,-15.21711 -7.54584,-19.04492 l 0,-4.07807 c 1.26051,0.56364 1.88274,-0.59786 2.20131,-1.19251 0.62223,-4.39252 -7.8495,-4.95722 -4.38656,-9.94653 -1.88274,-1.4738 -4.08403,-2.07059 -2.82353,-4.98823 -4.72231,-9.06738 -18.8411,-8.18824 -21.98434,-17.28663 2.52101,-2.03851 2.52101,-4.11016 3.46295,-5.86631 -2.20245,-3.51444 -2.82353,-7.31123 -2.20245,-11.10696 2.20245,-0.59679 3.44576,-3.23101 4.70626,-5.30267 -2.82352,-1.75615 -6.27042,-4.39144 -9.41252,-3.51337 -5.64706,-0.87807 -9.73223,-4.95722 -14.75706,-7.31016 -1.2605,-1.1615 -0.62109,-3.23102 -0.62109,-4.67487 6.90642,-2.07165 -0.9408,-11.15401 7.52979,-9.97647 2.20245,-2.63529 6.90756,-3.51443 10.35448,-5.56898 3.46179,-0.57968 6.28533,0.59572 9.73109,1.47487 2.82352,3.49839 7.8495,2.03957 10.67189,4.97219 2.82352,-0.59572 6.28647,-2.05562 9.73223,-0.59572 0,-4.97326 2.50497,-7.90695 6.28533,-11.42139 0.62224,-2.03958 4.06799,-3.51337 6.89152,-4.67487 5.34569,1.1615 11.61498,1.1615 15.39649,-2.35294 2.50496,1.4738 4.70626,-1.45882 7.52979,-1.45882 3.44462,-0.59573 6.26929,0.28235 8.7903,1.75722 0.30253,-5.86738 11.29412,-0.87915 13.49656,-7.90696 2.50497,-4.69091 -6.90757,-6.44706 -6.28648,-10.55722 -1.56302,-4.6909 2.20245,-7.0278 4.08404,-10.24385 2.20129,-0.87914 4.70626,-2.05454 7.52979,-1.47486 7.22727,-2.33797 1.57907,-16.11016 13.19404,-11.12193 0,1.4599 -0.63827,3.21605 0.30253,3.51444 4.08402,0 4.71084,-4.39679 7.54698,-5.86631 1.24332,-4.09412 -1.57907,-9.08235 2.18525,-12.29946 1.88274,-0.29733 3.46181,-0.87808 4.70626,-2.35294 0,-3.21605 -1.88273,-4.9722 -4.70626,-7.02781 -0.9408,1.46417 -3.44576,0.29839 -5.02139,0.87914 0,-3.51444 -2.18984,-5.85133 -2.82811,-9.08342 -1.88273,-0.87808 -2.82353,-2.3369 -2.18526,-4.39251 2.82353,-2.6353 0,-9.08236 6.589,-7.62032 2.50496,-2.04278 6.90757,-0.58396 9.41253,-4.0984 6.589,-3.51337 15.37815,-3.51337 20.40412,-9.96043 2.2013,0.29733 4.70627,-1.75722 6.90756,0 0.62338,3.8107 6.59015,2.33583 6.59015,5.85776"
     id="path2952"
     style="fill:#d0a650" />
  <path
     id="star"
     d="m 260.62798,188.08075 -23.2815,-15.28226 -23.27562,15.28951 8.96094,-24.64284 -23.35555,-15.19057 28.81969,0.0522 8.84112,-24.67781 8.85059,24.67507 28.81967,-0.0611 -23.34973,15.19782 8.97039,24.63994 z"
     style="fill:#ffffff" />
  <use
     xlink:href="#star"
     transform="translate(78.474643,-23.437)"
     id="use2955"
     x="0"
     y="0"
     width="840"
     height="600" />
  <use
     xlink:href="#star"
     transform="translate(253.94571,-39.556)"
     id="use2957"
     x="0"
     y="0"
     width="840"
     height="600" />
  <use
     xlink:href="#star"
     transform="translate(338.68929,-23.437)"
     id="use2959"
     x="0"
     y="0"
     width="840"
     height="600" />
  <use
     xlink:href="#star"
     transform="translate(161.95929,-39.556)"
     id="use2961"
     x="0"
     y="0"
     width="840"
     height="600" />
  <use
     xlink:href="#star"
     transform="translate(425.31643,0)"
     id="use2963"
     x="0"
     y="0"
     width="840"
     height="600" />
</svg>
