<?xml version="1.0" encoding="UTF-8" standalone="no"?>
<svg
   xmlns:dc="http://purl.org/dc/elements/1.1/"
   xmlns:cc="http://creativecommons.org/ns#"
   xmlns:rdf="http://www.w3.org/1999/02/22-rdf-syntax-ns#"
   xmlns:svg="http://www.w3.org/2000/svg"
   xmlns="http://www.w3.org/2000/svg"
   xmlns:xlink="http://www.w3.org/1999/xlink"
   xmlns:sodipodi="http://sodipodi.sourceforge.net/DTD/sodipodi-0.dtd"
   xmlns:inkscape="http://www.inkscape.org/namespaces/inkscape"
   width="900"
   height="600"
   viewBox="-2100 -1470 5250 3500"
   id="svg2"
   version="1.1"
   inkscape:version="0.47 r22583"
   sodipodi:docname="Flag_of_Brazil.svg">
  <metadata
     id="metadata124">
    <rdf:RDF>
      <cc:Work
         rdf:about="">
        <dc:format>image/svg+xml</dc:format>
        <dc:type
           rdf:resource="http://purl.org/dc/dcmitype/StillImage" />
      </cc:Work>
    </rdf:RDF>
  </metadata>
  <sodipodi:namedview
     pagecolor="#ffffff"
     bordercolor="#666666"
     borderopacity="1"
     objecttolerance="10"
     gridtolerance="10"
     guidetolerance="10"
     inkscape:pageopacity="0"
     inkscape:pageshadow="2"
     inkscape:window-width="1045"
     inkscape:window-height="816"
     id="namedview122"
     showgrid="false"
     inkscape:zoom="0.24900794"
     inkscape:cx="383.12287"
     inkscape:cy="252"
     inkscape:window-x="97"
     inkscape:window-y="135"
     inkscape:window-maximized="0"
     inkscape:current-layer="svg2" />
  <title
     id="title4">Flag of Brazil</title>
  <defs
     id="defs6">
    <inkscape:perspective
       sodipodi:type="inkscape:persp3d"
       inkscape:vp_x="0 : 252 : 1"
       inkscape:vp_y="0 : 1000 : 0"
       inkscape:vp_z="720 : 252 : 1"
       inkscape:persp3d-origin="360 : 168 : 1"
       id="perspective126" />
    <path
       id="O"
       d="M 0,0 A 31.5,35 0 0 0 0,-70 31.5,35 0 0 0 0,0 m 0,-13 a 18.5,22 0 0 0 0,-44 18.5,22 0 0 0 0,44"
       style="fill-rule:evenodd" />
    <g
       id="R">
      <use
         xlink:href="#P"
         id="use10"
         x="0"
         y="0"
         width="4200"
         height="2940" />
      <path
         d="m 28,0 c 0,-10 0,-32 -15,-32 H -6 c 22,0 22,22 22,32"
         id="path12" />
    </g>
    <path
       id="D"
       d="m -31.5,0 h 33 a 30,30 0 0 0 30,-30 v -10 a 30,30 0 0 0 -30,-30 h -33 z m 13,-13 h 19 a 19,19 0 0 0 19,-19 v -6 a 19,19 0 0 0 -19,-19 h -19 z"
       style="fill-rule:evenodd" />
    <path
       id="E"
       d="M 0,0 H 63 V -13 H 12 V -31 H 52 V -43 H 12 V -57 H 60 V -70 H 0 z"
       transform="translate(-31.5,0)" />
    <path
       id="M"
       d="m -31.5,0 h 12 v -48 l 14,48 h 11 l 14,-48 V 0 h 12 V -70 H 14 L 0,-22 -14,-70 h -17.5 z" />
    <path
       id="E_"
       d="m -26.25,0 h 52.5 v -12 h -40.5 v -16 h 33 v -12 h -33 V -51 H 25 v -12 h -51.25 z" />
    <path
       id="P"
       d="m -31.5,0 h 13 v -26 h 28 a 22,22 0 0 0 0,-44 h -40 z m 13,-39 h 27 a 9,9 0 0 0 0,-18 h -27 z"
       style="fill-rule:evenodd" />
    <g
       id="G">
      <clipPath
         id="gcut">
        <path
           d="m -31.5,0 v -70 h 63 V 0 z M 0,-47 v 12 h 31.5 v -12 z"
           id="path21" />
      </clipPath>
      <use
         xlink:href="#O"
         clip-path="url(#gcut)"
         id="use23"
         x="0"
         y="0"
         width="4200"
         height="2940" />
      <rect
         x="5"
         y="-35"
         width="26.5"
         height="10"
         id="rect25" />
      <rect
         x="21.5"
         y="-35"
         width="10"
         height="35"
         id="rect27" />
    </g>
    <path
       id="S"
       d="m -15.75,-22 c 0,7 6.75,10.5 16.75,10.5 10,0 14.74,-3.25 14.75,-7.75 C 15.75,-33.5 -31,-24.5 -30.75,-49.5 -30.5,-71 -6,-70 3,-70 c 9,0 26,4 25.75,21.25 l -15.25,0 c 0,-7.5 -7,-10.25 -15,-10.25 -7.75,0 -13.25,1.25 -13.25,8.5 -0.25,11.75 46.25,4 46.25,28.75 C 31.5,-3.5 13.5,0 0,0 -11.5,0 -31.55,-4.5 -31.5,-22 z" />
    <g
       id="star">
      <g
         id="cone">
        <polygon
           id="triangle"
           points="0,1 0.5,1 0,0 "
           transform="matrix(0.95105652,0.30901699,-0.30901699,0.95105652,0,-1)" />
        <use
           xlink:href="#triangle"
           transform="scale(-1,1)"
           id="use33"
           x="0"
           y="0"
           width="4200"
           height="2940" />
      </g>
      <use
         xlink:href="#cone"
         transform="matrix(0.30901699,0.95105652,-0.95105652,0.30901699,0,0)"
         id="use35"
         x="0"
         y="0"
         width="4200"
         height="2940" />
      <use
         xlink:href="#cone"
         transform="matrix(0.30901699,-0.95105652,0.95105652,0.30901699,0,0)"
         id="use37"
         x="0"
         y="0"
         width="4200"
         height="2940" />
      <use
         xlink:href="#cone"
         transform="matrix(-0.80901699,0.58778525,-0.58778525,-0.80901699,0,0)"
         id="use39"
         x="0"
         y="0"
         width="4200"
         height="2940" />
      <use
         xlink:href="#cone"
         transform="matrix(-0.80901699,-0.58778525,0.58778525,-0.80901699,0,0)"
         id="use41"
         x="0"
         y="0"
         width="4200"
         height="2940" />
    </g>
    <use
       id="star1"
       xlink:href="#star"
       transform="scale(31.5,31.5)"
       x="0"
       y="0"
       width="4200"
       height="2940" />
    <use
       id="star2"
       xlink:href="#star"
       transform="scale(26.25,26.25)"
       x="0"
       y="0"
       width="4200"
       height="2940" />
    <use
       id="star3"
       xlink:href="#star"
       transform="scale(21,21)"
       x="0"
       y="0"
       width="4200"
       height="2940" />
    <use
       id="star4"
       xlink:href="#star"
       transform="scale(15,15)"
       x="0"
       y="0"
       width="4200"
       height="2940" />
    <use
       id="star5"
       xlink:href="#star"
       transform="scale(10.5,10.5)"
       x="0"
       y="0"
       width="4200"
       height="2940" />
  </defs>
  <rect
     id="field"
     x="-2100"
     y="-1470"
     width="5250"
     height="3500"
     style="fill:#00923f" />
  <path
     id="rhombus"
     d="M -1653.75,280 525,1605 2703.75,280 525,-1045 z"
     style="fill:#f8c300" />
  <circle
     id="circle"
     r="735"
     cx="0"
     cy="0"
     sodipodi:cx="0"
     sodipodi:cy="0"
     sodipodi:rx="735"
     sodipodi:ry="735"
     style="fill:#28166f"
     transform="matrix(1.25,0,0,1.1904762,525,280)" />
  <clipPath
     id="clipcircle">
    <use
       xlink:href="#circle"
       id="use52"
       x="0"
       y="0"
       width="4200"
       height="2940"
       transform="translate(0,-560)" />
  </clipPath>
  <path
     style="fill:#ffffff;stroke:none;stroke-width:1px;stroke-linecap:butt;stroke-linejoin:miter;stroke-opacity:1;fill-opacity:1"
     d="m 298.16806,258.52659 9.22901,-24.84735 c 155.29915,-18.15791 246.07279,51.76987 298.87797,85.19088 l -6.38931,26.26719 C 508.66226,282.6576 410.15045,245.51929 298.16806,258.52659 z"
     id="path2932"
     transform="matrix(5.8333333,0,0,5.8333333,-2100,-1470)"
     sodipodi:nodetypes="ccccc" />
  <g
     transform="matrix(1.25,0,0,1.1904762,0,2030)"
     id="g55"
     style="fill:#00923f">
    <g
       id="ORDEM"
       transform="matrix(0.99254615,-0.12186934,0.12186934,0.99254615,0,0)">
      <use
         xlink:href="#O"
         transform="translate(0,-1697.5)"
         id="use58"
         x="0"
         y="0"
         width="4200"
         height="2940" />
      <use
         xlink:href="#R"
         transform="matrix(0.99862953,0.05233596,-0.05233596,0.99862953,88.840286,-1695.1736)"
         id="use60"
         x="0"
         y="0"
         width="4200"
         height="2940" />
      <use
         xlink:href="#D"
         transform="matrix(0.9945219,0.10452846,-0.10452846,0.9945219,177.43707,-1688.2009)"
         id="use62"
         x="0"
         y="0"
         width="4200"
         height="2940" />
      <use
         xlink:href="#E"
         transform="matrix(0.98768834,0.15643447,-0.15643447,0.98768834,265.5475,-1676.601)"
         id="use64"
         x="0"
         y="0"
         width="4200"
         height="2940" />
      <use
         xlink:href="#M"
         transform="matrix(0.9781476,0.20791169,-0.20791169,0.9781476,352.9301,-1660.4056)"
         id="use66"
         x="0"
         y="0"
         width="4200"
         height="2940" />
    </g>
    <use
       xlink:href="#E_"
       transform="matrix(0.98555606,0.1693495,-0.1693495,0.98555606,287.47078,-1672.9814)"
       id="use68"
       x="0"
       y="0"
       width="4200"
       height="2940" />
    <g
       id="PROGRESSO"
       transform="matrix(0.96814764,0.25038,-0.25038,0.96814764,0,0)">
      <use
         xlink:href="#P"
         transform="translate(0,-1697.5)"
         id="use71"
         x="0"
         y="0"
         width="4200"
         height="2940" />
      <use
         xlink:href="#R"
         transform="matrix(0.99862953,0.05233596,-0.05233596,0.99862953,88.840286,-1695.1736)"
         id="use73"
         x="0"
         y="0"
         width="4200"
         height="2940" />
      <use
         xlink:href="#O"
         transform="matrix(0.9945219,0.10452846,-0.10452846,0.9945219,177.43707,-1688.2009)"
         id="use75"
         x="0"
         y="0"
         width="4200"
         height="2940" />
      <use
         xlink:href="#G"
         transform="matrix(0.98768834,0.15643447,-0.15643447,0.98768834,265.5475,-1676.601)"
         id="use77"
         x="0"
         y="0"
         width="4200"
         height="2940" />
      <use
         xlink:href="#R"
         transform="matrix(0.9781476,0.20791169,-0.20791169,0.9781476,352.9301,-1660.4056)"
         id="use79"
         x="0"
         y="0"
         width="4200"
         height="2940" />
      <use
         xlink:href="#E"
         transform="matrix(0.96592583,0.25881905,-0.25881905,0.96592583,439.34533,-1639.6591)"
         id="use81"
         x="0"
         y="0"
         width="4200"
         height="2940" />
      <use
         xlink:href="#S"
         transform="matrix(0.95105652,0.30901699,-0.30901699,0.95105652,524.55635,-1614.4184)"
         id="use83"
         x="0"
         y="0"
         width="4200"
         height="2940" />
      <use
         xlink:href="#S"
         transform="matrix(0.93358043,0.35836795,-0.35836795,0.93358043,608.32959,-1584.7528)"
         id="use85"
         x="0"
         y="0"
         width="4200"
         height="2940" />
      <use
         xlink:href="#O"
         transform="matrix(0.91354546,0.40673664,-0.40673664,0.91354546,690.43545,-1550.7434)"
         id="use87"
         x="0"
         y="0"
         width="4200"
         height="2940" />
    </g>
  </g>
  <g
     id="stars"
     style="fill:#ffffff"
     transform="matrix(1.25,0,0,1.1904762,525,280)">
    <use
       id="Alpha_Canis_Minoris"
       xlink:href="#star1"
       transform="translate(-600,-132)"
       x="0"
       y="0"
       width="4200"
       height="2940" />
    <g
       id="Canis_Majoris">
      <use
         id="Alpha_Canis_Majoris"
         xlink:href="#star1"
         transform="translate(-535,177)"
         x="0"
         y="0"
         width="4200"
         height="2940" />
      <use
         id="Beta_Canis_Majoris"
         xlink:href="#star3"
         transform="translate(-625,243)"
         x="0"
         y="0"
         width="4200"
         height="2940" />
      <use
         id="Gamma_Canis_Majoris"
         xlink:href="#star4"
         transform="translate(-463,132)"
         x="0"
         y="0"
         width="4200"
         height="2940" />
      <use
         id="Delta_Canis_Majoris"
         xlink:href="#star2"
         transform="translate(-382,250)"
         x="0"
         y="0"
         width="4200"
         height="2940" />
      <use
         id="Epsilon_Canis_Majoris"
         xlink:href="#star2"
         transform="translate(-404,323)"
         x="0"
         y="0"
         width="4200"
         height="2940" />
    </g>
    <use
       id="Alpha_Virginis"
       xlink:href="#star1"
       transform="translate(228,-228)"
       x="0"
       y="0"
       width="4200"
       height="2940" />
    <g
       id="Scorpio">
      <use
         id="Alpha_Scorpii"
         xlink:href="#star1"
         transform="translate(515,258)"
         x="0"
         y="0"
         width="4200"
         height="2940" />
      <use
         id="Beta_Scorpii"
         xlink:href="#star3"
         transform="translate(617,265)"
         x="0"
         y="0"
         width="4200"
         height="2940" />
      <use
         id="Epsilon_Scorpii"
         xlink:href="#star2"
         transform="translate(545,323)"
         x="0"
         y="0"
         width="4200"
         height="2940" />
      <use
         id="Theta_Scorpii"
         xlink:href="#star2"
         transform="translate(368,477)"
         x="0"
         y="0"
         width="4200"
         height="2940" />
      <use
         id="Iota_Scorpii"
         xlink:href="#star3"
         transform="translate(367,551)"
         x="0"
         y="0"
         width="4200"
         height="2940" />
      <use
         id="Kappa_Scorpii"
         xlink:href="#star3"
         transform="translate(441,419)"
         x="0"
         y="0"
         width="4200"
         height="2940" />
      <use
         id="Lambda_Scorpii"
         xlink:href="#star2"
         transform="translate(500,382)"
         x="0"
         y="0"
         width="4200"
         height="2940" />
      <use
         id="Mu_Scorpii"
         xlink:href="#star3"
         transform="translate(365,405)"
         x="0"
         y="0"
         width="4200"
         height="2940" />
    </g>
    <g
       id="Hydra">
      <use
         id="Alpha_Hydrae"
         xlink:href="#star2"
         transform="translate(-280,30)"
         x="0"
         y="0"
         width="4200"
         height="2940" />
      <use
         id="Gamma_Hydrae"
         xlink:href="#star3"
         transform="translate(200,-37)"
         x="0"
         y="0"
         width="4200"
         height="2940" />
    </g>
    <g
       id="Crux">
      <use
         id="Alpha_Crucis"
         xlink:href="#star1"
         transform="translate(0,330)"
         x="0"
         y="0"
         width="4200"
         height="2940" />
      <use
         id="Beta_Crucis"
         xlink:href="#star2"
         transform="translate(85,184)"
         x="0"
         y="0"
         width="4200"
         height="2940" />
      <use
         id="Gamma_Crucis"
         xlink:href="#star2"
         transform="translate(0,118)"
         x="0"
         y="0"
         width="4200"
         height="2940" />
      <use
         id="Delta_Crucis"
         xlink:href="#star3"
         transform="translate(-74,184)"
         x="0"
         y="0"
         width="4200"
         height="2940" />
      <use
         id="Epsilon_Crucis"
         xlink:href="#star4"
         transform="translate(-37,235)"
         x="0"
         y="0"
         width="4200"
         height="2940" />
    </g>
    <g
       id="Triangulum_Australe">
      <use
         id="Alpha_Trianguli_Australe"
         xlink:href="#star2"
         transform="translate(220,495)"
         x="0"
         y="0"
         width="4200"
         height="2940" />
      <use
         id="Beta_Trianguli_Australe"
         xlink:href="#star3"
         transform="translate(283,430)"
         x="0"
         y="0"
         width="4200"
         height="2940" />
      <use
         id="Gamma_Trianguli_Australe"
         xlink:href="#star3"
         transform="translate(162,412)"
         x="0"
         y="0"
         width="4200"
         height="2940" />
    </g>
    <use
       id="Alpha_Carinae"
       xlink:href="#star1"
       transform="translate(-295,390)"
       x="0"
       y="0"
       width="4200"
       height="2940" />
    <use
       id="Sigma_Octantis"
       xlink:href="#star5"
       transform="translate(0,575)"
       x="0"
       y="0"
       width="4200"
       height="2940" />
  </g>
</svg>
