<?xml version="1.0" encoding="UTF-8" standalone="no"?>
<!-- Created with Inkscape (http://www.inkscape.org/) -->

<svg
   xmlns:dc="http://purl.org/dc/elements/1.1/"
   xmlns:cc="http://creativecommons.org/ns#"
   xmlns:rdf="http://www.w3.org/1999/02/22-rdf-syntax-ns#"
   xmlns:svg="http://www.w3.org/2000/svg"
   xmlns="http://www.w3.org/2000/svg"
   xmlns:xlink="http://www.w3.org/1999/xlink"
   xmlns:sodipodi="http://sodipodi.sourceforge.net/DTD/sodipodi-0.dtd"
   xmlns:inkscape="http://www.inkscape.org/namespaces/inkscape"
   version="1.0"
   width="900"
   height="600"
   id="svg3005"
   inkscape:version="0.47 r22583"
   sodipodi:docname="Flag_of_Kiribati.svg">
  <metadata
     id="metadata23">
    <rdf:RDF>
      <cc:Work
         rdf:about="">
        <dc:format>image/svg+xml</dc:format>
        <dc:type
           rdf:resource="http://purl.org/dc/dcmitype/StillImage" />
      </cc:Work>
    </rdf:RDF>
  </metadata>
  <sodipodi:namedview
     pagecolor="#ffffff"
     bordercolor="#666666"
     borderopacity="1"
     objecttolerance="10"
     gridtolerance="10"
     guidetolerance="10"
     inkscape:pageopacity="0"
     inkscape:pageshadow="2"
     inkscape:window-width="1071"
     inkscape:window-height="850"
     id="namedview21"
     showgrid="false"
     inkscape:zoom="0.83666667"
     inkscape:cx="300"
     inkscape:cy="150"
     inkscape:window-x="0"
     inkscape:window-y="0"
     inkscape:window-maximized="0"
     inkscape:current-layer="svg3005" />
  <defs
     id="defs3">
    <inkscape:perspective
       sodipodi:type="inkscape:persp3d"
       inkscape:vp_x="0 : 150 : 1"
       inkscape:vp_y="0 : 1000 : 0"
       inkscape:vp_z="600 : 150 : 1"
       inkscape:persp3d-origin="300 : 100 : 1"
       id="perspective25" />
  </defs>
  <rect
     width="899.99823"
     height="599.99463"
     x="0.0008901658"
     y="0.0026756218"
     id="rect3015"
     style="fill:#ce1126" />
  <path
     d="m 524.08539,282.58225 c 13.13718,4.69338 33.01928,3.52613 41.94469,17.41752 -13.13718,-4.69337 -29.32634,23.61987 -41.94469,17.41751 11.14094,10.40136 -162.06465,0 -148.17123,0 -13.13718,-4.69338 -33.01929,-3.52611 -41.94469,-17.41751 13.13716,4.69336 29.32633,-23.61987 41.94469,-17.41752 -11.14095,-10.40136 -30.46916,-18.45454 -34.94718,-35.495 11.14097,10.40117 33.80435,-8.89576 43.88306,2.76057 -7.80095,-14.8545 -24.10436,-31.1571 -23.73459,-49.29122 7.80094,14.85451 34.05681,6.90143 40.52837,22.60597 -3.52005,-17.51611 -14.12192,-40.10166 -9.6592,-57.14211 3.52006,17.51612 29.96386,21.86588 32.28549,39.72443 1.18542,-18.06491 -3.59669,-44.20937 5.58118,-58.10079 -1.18528,18.06508 22.69861,34.19325 20.14849,52.05178 5.74784,-16.43505 8.92542,-42.98482 20.14846,-52.05178 -5.74783,16.43505 13.00304,42.39624 5.58119,58.10079 9.61713,-12.82257 18.89738,-36.57556 32.2855,-39.72443 -9.61712,12.82274 0.63751,45.48577 -9.65922,57.14211 12.32637,-7.6639 26.87251,-25.75482 40.52838,-22.60597 -12.32624,7.66392 -11.10577,43.08904 -23.73457,49.29122 13.5489,-1.58054 31.75468,-11.82769 43.88304,-2.76057 -13.54877,1.58039 -21.05376,35.495 -34.94717,35.495 z"
     id="path6046"
     style="fill:#fcd116;fill-opacity:1;fill-rule:evenodd;stroke:#bd9c08;stroke-width:1.87500095;stroke-linecap:butt;stroke-linejoin:miter;stroke-miterlimit:4;stroke-opacity:1" />
  <path
     d="m 387.53874,300.00368 -47.38,-25.82313 51.1467,-2.65936 -37.89856,-45.87218 48.74434,20.82508 -23.84601,-60.38837 40.4627,41.79774 -6.91726,-67.62087 27.30065,57.729 10.84579,-66.69726 10.84577,66.69726 27.30068,-57.729 -6.91728,67.62087 40.46272,-41.79774 -23.846,60.38837 48.74431,-20.82508 -37.89856,45.87218 51.1467,2.65936 -47.38,25.82313 47.38,25.82311 -219.67669,0 47.38,-25.82311 z"
     id="path4182"
     style="fill:#fcd116;fill-opacity:1;fill-rule:evenodd;stroke:#bd9c08;stroke-width:1.87499928;stroke-linecap:butt;stroke-linejoin:miter;stroke-miterlimit:4;stroke-opacity:1" />
  <path
     d="m 512.03605,299.99995 c 0,45.6819 -27.77456,82.71439 -62.03623,82.71439 -34.26165,0 -62.03621,-37.03249 -62.03621,-82.71439 0,-45.68191 27.77456,-82.7144 62.03621,-82.7144 34.26167,0 62.03623,37.03249 62.03623,82.7144 z"
     id="path1076"
     style="fill:#fcd116;fill-opacity:1;fill-rule:nonzero;stroke:#bd9c08;stroke-width:1.87383008;stroke-linecap:round;stroke-linejoin:miter;stroke-miterlimit:4;stroke-opacity:1" />
  <rect
     width="899.99786"
     height="269.99759"
     x="0.0008901658"
     y="329.99976"
     id="rect4894"
     style="fill:#003f87;fill-opacity:1;fill-rule:nonzero;stroke:none" />
  <path
     d="M 8.9018238e-4,514.28347 C 30.000821,514.28347 60.000731,539.99752 90.000663,539.99752 c 29.999937,0 59.999837,-25.71405 89.999767,-25.71405 29.99994,0 59.99985,25.71405 89.99977,25.71405 29.99994,0 59.99985,-25.71405 89.99978,-25.71405 29.99994,0 59.99985,25.71405 89.99977,25.71405 29.99993,0 59.99984,-25.71405 89.99978,-25.71405 29.99993,0 59.99983,25.71405 89.99979,25.71405 29.99991,0 59.99983,-25.71405 89.99976,-25.71405 29.99992,0 59.99985,25.71405 89.99977,25.71405 29.99994,0 59.99987,-25.71405 89.99988,-25.71405 l 0,-42.85673 c -30.00001,0 -59.99994,25.71404 -89.99988,25.71404 -29.99992,0 -59.99985,-25.71404 -89.99977,-25.71404 -29.99993,0 -59.99985,25.71404 -89.99976,25.71404 -29.99996,0 -59.99986,-25.71404 -89.99979,-25.71404 -29.99994,0 -59.99985,25.71404 -89.99978,25.71404 -29.99992,0 -59.99983,-25.71404 -89.99977,-25.71404 -29.99993,0 -59.99984,25.71404 -89.99978,25.71404 -29.99992,0 -59.99983,-25.71404 -89.99977,-25.71404 -29.99993,0 -59.99983,25.71404 -89.999767,25.71404 -29.999932,0 -59.999842,-25.71404 -89.99977281762,-25.71404 l 0,42.85673 z"
     id="path6138"
     style="fill:#ffffff;fill-opacity:1;fill-rule:evenodd;stroke:none" />
  <path
     d="m 470.40011,99.726471 33.2668,0.293359 c 0.21251,-1.875245 -2.85443,-5.609591 -5.46619,-6.156466 -8.42323,-1.763745 -14.73834,1.871983 -24.96032,2.011841 l -2.84029,3.851266 z"
     id="path18554"
     style="fill:#fcd116;fill-opacity:1;fill-rule:evenodd;stroke:#bd9c08;stroke-width:1.87499893;stroke-linecap:butt;stroke-linejoin:miter;stroke-miterlimit:4;stroke-opacity:1" />
  <path
     d="m 404.14586,89.288205 c 7.81202,13.160275 22.95772,22.305025 37.42764,22.424555 19.5006,0.16101 41.11979,-20.880349 67.27633,-27.322952 L 423.47308,82.04633 C 412.42665,71.95586 404.04529,73.236249 398.32897,79.491413 l -16.32295,0.657814 c -2.31083,1.677825 1.90774,8.685742 5.32682,8.942219 l 16.81302,0.196799 z"
     id="path18555"
     style="fill:#fcd116;fill-opacity:1;fill-rule:evenodd;stroke:#bd9c08;stroke-width:1.87499893;stroke-linecap:butt;stroke-linejoin:miter;stroke-miterlimit:4;stroke-opacity:1" />
  <path
     d="M 442.74031,81.737312 C 439.6349,62.702464 428.18069,54.497917 414.40349,52.063659 398.49437,49.252724 361.87035,46.37045 337.54468,37.054294 c 10.52387,13.801696 32.56503,20.692334 47.87501,23.807945 16.21532,3.299872 32.00293,8.108508 44.51082,20.702575 l 12.8098,0.172598 z"
     id="path18556"
     style="fill:#fcd116;fill-opacity:1;fill-rule:evenodd;stroke:#bd9c08;stroke-width:1.87499893;stroke-linecap:butt;stroke-linejoin:miter;stroke-miterlimit:4;stroke-opacity:1" />
  <path
     d="m 432.40051,94.444558 c 5.09116,8.707102 12.98464,8.214482 21.46978,0.617835 8.45863,-7.572932 17.64761,-28.895001 22.08761,-29.244017 31.03991,-2.404879 68.58653,-19.871282 86.49696,-33.362882 -22.70546,4.286502 -45.21481,9.145939 -68.11635,9.267478 -39.07478,0.207338 -43.69869,23.934165 -59.62112,40.570915"
     id="path18557"
     style="fill:#fcd116;fill-opacity:1;fill-rule:evenodd;stroke:#bd9c08;stroke-width:1.87499893;stroke-linecap:round;stroke-linejoin:miter;stroke-miterlimit:4;stroke-opacity:1" />
  <path
     d="m 438.46288,84.208291 c 8.32959,-7.073117 15.09755,-16.301875 22.89472,-24.011386 12.91046,-12.765304 27.82481,-13.138562 43.83504,-13.401699 14.19034,-0.233218 39.06864,-8.138687 52.56349,-12.357749"
     id="path18558"
     style="fill:none;stroke:#bd9c08;stroke-width:1.87499893;stroke-linecap:round;stroke-linejoin:miter;stroke-miterlimit:4;stroke-opacity:1" />
  <path
     d="M 429.80112,80.87472 C 427.34268,63.852613 415.39467,58.743998 400.29977,55.686586 383.87462,52.359756 367.12402,50.509113 350.74265,44.472707 346.68008,42.97568 342.89287,40.332184 338.96798,38.261923"
     id="path18559"
     style="fill:none;stroke:#bd9c08;stroke-width:1.87499893;stroke-linecap:butt;stroke-linejoin:miter;stroke-miterlimit:4;stroke-opacity:1" />
  <path
     d="m 435.03389,105.96794 c 15.40882,1.50696 26.86183,-4.67161 40.0102,-13.411984"
     id="path18560"
     style="fill:none;stroke:#bd9c08;stroke-width:1.87499893;stroke-linecap:round;stroke-linejoin:miter;stroke-miterlimit:4;stroke-opacity:1" />
  <path
     d="m 381.94708,83.664855 19.43998,0"
     id="path18561"
     style="fill:none;stroke:#bd9c08;stroke-width:1.87499893;stroke-linecap:round;stroke-linejoin:miter;stroke-miterlimit:4;stroke-opacity:1" />
  <path
     d="m 410.05554,80.87672 c 7.6e-4,1.790104 -1.0874,3.241831 -2.43,3.241831 -1.3426,0 -2.43076,-1.451727 -2.43,-3.241831 -7.6e-4,-1.790124 1.0874,-3.24183 2.43,-3.24183 1.3426,0 2.43076,1.451706 2.43,3.24183 z"
     id="path18562"
     style="fill:#bd9c08;fill-opacity:1;fill-rule:nonzero;stroke:#bd9c08;stroke-width:0.81439286;stroke-linecap:round;stroke-linejoin:round;stroke-miterlimit:4;stroke-opacity:1" />
  <use
     transform="translate(0,-171.42696)"
     id="use2426"
     x="0"
     y="0"
     width="600"
     height="300"
     xlink:href="#path6138" />
  <use
     transform="translate(0,85.713493)"
     id="use2428"
     x="0"
     y="0"
     width="600"
     height="300"
     xlink:href="#use2426" />
</svg>
