<?xml version="1.0" encoding="UTF-8" standalone="no"?>
<svg
   xmlns:dc="http://purl.org/dc/elements/1.1/"
   xmlns:cc="http://creativecommons.org/ns#"
   xmlns:rdf="http://www.w3.org/1999/02/22-rdf-syntax-ns#"
   xmlns:svg="http://www.w3.org/2000/svg"
   xmlns="http://www.w3.org/2000/svg"
   xmlns:xlink="http://www.w3.org/1999/xlink"
   xmlns:sodipodi="http://sodipodi.sourceforge.net/DTD/sodipodi-0.dtd"
   xmlns:inkscape="http://www.inkscape.org/namespaces/inkscape"
   version="1.1"
   height="600"
   width="900"
   id="svg2822"
   inkscape:version="0.47 r22583"
   sodipodi:docname="Flag_of_New_Zealand.svg">
  <metadata
     id="metadata2881">
    <rdf:RDF>
      <cc:Work
         rdf:about="">
        <dc:format>image/svg+xml</dc:format>
        <dc:type
           rdf:resource="http://purl.org/dc/dcmitype/StillImage" />
      </cc:Work>
    </rdf:RDF>
  </metadata>
  <sodipodi:namedview
     pagecolor="#ffffff"
     bordercolor="#666666"
     borderopacity="1"
     objecttolerance="10"
     gridtolerance="10"
     guidetolerance="10"
     inkscape:pageopacity="0"
     inkscape:pageshadow="2"
     inkscape:window-width="790"
     inkscape:window-height="762"
     id="namedview2879"
     showgrid="false"
     inkscape:zoom="0.41833333"
     inkscape:cx="600"
     inkscape:cy="300"
     inkscape:window-x="0"
     inkscape:window-y="0"
     inkscape:window-maximized="0"
     inkscape:current-layer="svg2822" />
  <defs
     id="defs2824">
    <inkscape:perspective
       sodipodi:type="inkscape:persp3d"
       inkscape:vp_x="0 : 300 : 1"
       inkscape:vp_y="0 : 1000 : 0"
       inkscape:vp_z="1200 : 300 : 1"
       inkscape:persp3d-origin="600 : 200 : 1"
       id="perspective2883" />
    <clipPath
       id="Canton">
      <path
         d="m 0,0 600,0 0,300 -600,0 z"
         id="path2827" />
    </clipPath>
    <clipPath
       id="Diagonals">
      <path
         d="M 0,0 300,150 0,150 z M 300,0 600,0 300,150 z m 0,150 300,0 0,150 z m 0,0 0,150 -300,0 z"
         id="path2830" />
    </clipPath>
    <g
       id="Pentagram">
      <g
         id="Arm"
         transform="translate(0,-0.324925)">
        <path
           d="M 0,0 0,0.5 1,0 z"
           id="path2834" />
        <path
           d="M 0,0 0,-0.5 1,0 z"
           transform="matrix(0.80901699,-0.58778525,0.58778525,0.80901699,0.19098301,0.58778525)"
           id="path2836" />
      </g>
      <use
         xlink:href="#Arm"
         transform="scale(-1,1)"
         id="use2838"
         x="0"
         y="0"
         width="1200"
         height="600" />
      <use
         xlink:href="#Arm"
         transform="matrix(0.30901699,0.95105652,-0.95105652,0.30901699,0,0)"
         id="use2840"
         x="0"
         y="0"
         width="1200"
         height="600" />
      <use
         xlink:href="#Arm"
         transform="matrix(0.30901699,-0.95105652,0.95105652,0.30901699,0,0)"
         id="use2842"
         x="0"
         y="0"
         width="1200"
         height="600" />
      <use
         xlink:href="#Arm"
         transform="matrix(-0.30901699,0.95105652,0.95105652,0.30901699,0,0)"
         id="use2844"
         x="0"
         y="0"
         width="1200"
         height="600" />
    </g>
  </defs>
  <rect
     x="0"
     y="0"
     width="900"
     height="600"
     id="rect2846"
     style="fill:#00247d" />
  <g
     id="Flag_of_the_United_Kingdom"
     transform="scale(0.75,1)">
    <path
       id="Saint_Andrews_Cross"
       d="M 0,0 600,300 M 0,300 600,0"
       clip-path="url(#Canton)"
       style="stroke:#ffffff;stroke-width:69.28203583" />
    <path
       id="Saint_Patricks_Cross"
       d="M 0,0 600,300 M 0,300 600,0"
       clip-path="url(#Diagonals)"
       style="stroke:#cc142b;stroke-width:46.18802261" />
    <g
       id="Saint_Georges_Cross">
      <path
         d="m 300,0 0,300 M 0,150 l 600,0"
         clip-path="url(#Canton)"
         id="path2852"
         style="stroke:#ffffff;stroke-width:115.47005463" />
      <path
         d="m 300,0 0,300 M 0,150 l 600,0"
         clip-path="url(#Canton)"
         id="path2854"
         style="stroke:#cc142b;stroke-width:69.28203583" />
    </g>
  </g>
  <g
     id="Southern_Cross"
     transform="scale(0.75,1)">
    <g
       id="Gamma_Crucis">
      <use
         xlink:href="#Pentagram"
         transform="matrix(40,0,0,40,900,120)"
         id="use2858"
         style="fill:#ffffff"
         x="0"
         y="0"
         width="1200"
         height="600" />
      <use
         xlink:href="#Pentagram"
         transform="matrix(30,0,0,30,900,120)"
         id="use2860"
         style="fill:#cc142b"
         x="0"
         y="0"
         width="1200"
         height="600" />
    </g>
    <g
       transform="matrix(0.1391731,0.99026807,-0.99026807,0.1391731,1012.4085,-684.64281)"
       id="g2862">
      <g
         id="Delta_Crucis">
        <use
           xlink:href="#Pentagram"
           transform="matrix(4.8710585,-34.659382,34.659382,4.8710585,900,120)"
           id="use2865"
           style="fill:#ffffff"
           x="0"
           y="0"
           width="1200"
           height="600" />
        <use
           xlink:href="#Pentagram"
           transform="matrix(3.4793275,-24.756702,24.756702,3.4793275,900,120)"
           id="use2867"
           style="fill:#cc142b"
           x="0"
           y="0"
           width="1200"
           height="600" />
      </g>
      <g
         id="Beta_Crucis">
        <use
           xlink:href="#Pentagram"
           transform="matrix(5.566924,-39.610723,39.610723,5.566924,900,380)"
           id="use2870"
           style="fill:#ffffff"
           x="0"
           y="0"
           width="1200"
           height="600" />
        <use
           xlink:href="#Pentagram"
           transform="matrix(4.175193,-29.708042,29.708042,4.175193,900,380)"
           id="use2872"
           style="fill:#cc142b"
           x="0"
           y="0"
           width="1200"
           height="600" />
      </g>
    </g>
    <g
       id="Alpha_Crucis">
      <use
         xlink:href="#Pentagram"
         transform="matrix(45,0,0,45,900,480)"
         id="use2875"
         style="fill:#ffffff"
         x="0"
         y="0"
         width="1200"
         height="600" />
      <use
         xlink:href="#Pentagram"
         transform="matrix(35,0,0,35,900,480)"
         id="use2877"
         style="fill:#cc142b"
         x="0"
         y="0"
         width="1200"
         height="600" />
    </g>
  </g>
</svg>
