<?xml version="1.0" encoding="UTF-8" standalone="no"?>
<svg
   xmlns:dc="http://purl.org/dc/elements/1.1/"
   xmlns:cc="http://creativecommons.org/ns#"
   xmlns:rdf="http://www.w3.org/1999/02/22-rdf-syntax-ns#"
   xmlns:svg="http://www.w3.org/2000/svg"
   xmlns="http://www.w3.org/2000/svg"
   xmlns:xlink="http://www.w3.org/1999/xlink"
   xmlns:sodipodi="http://sodipodi.sourceforge.net/DTD/sodipodi-0.dtd"
   xmlns:inkscape="http://www.inkscape.org/namespaces/inkscape"
   width="900"
   height="600"
   id="svg2"
   version="1.1"
   inkscape:version="0.47 r22583"
   sodipodi:docname="Flag_of_the_United_States.svg">
  <metadata
     id="metadata73">
    <rdf:RDF>
      <cc:Work
         rdf:about="">
        <dc:format>image/svg+xml</dc:format>
        <dc:type
           rdf:resource="http://purl.org/dc/dcmitype/StillImage" />
      </cc:Work>
    </rdf:RDF>
  </metadata>
  <sodipodi:namedview
     pagecolor="#ffffff"
     bordercolor="#666666"
     borderopacity="1"
     objecttolerance="10"
     gridtolerance="10"
     guidetolerance="10"
     inkscape:pageopacity="0"
     inkscape:pageshadow="2"
     inkscape:window-width="1088"
     inkscape:window-height="727"
     id="namedview71"
     showgrid="false"
     inkscape:zoom="0.38615385"
     inkscape:cx="617.5"
     inkscape:cy="325"
     inkscape:window-x="0"
     inkscape:window-y="0"
     inkscape:window-maximized="0"
     inkscape:current-layer="svg2" />
  <defs
     id="defs4">
    <inkscape:perspective
       sodipodi:type="inkscape:persp3d"
       inkscape:vp_x="0 : 325 : 1"
       inkscape:vp_y="0 : 1000 : 0"
       inkscape:vp_z="1235 : 325 : 1"
       inkscape:persp3d-origin="617.5 : 216.66667 : 1"
       id="perspective75" />
    <polygon
       id="pt"
       points="0,-0.5 0.16245985,0 -0.16245985,0 "
       transform="scale(0.0616,0.0616)"
       style="fill:#ffffff" />
    <g
       id="star">
      <use
         xlink:href="#pt"
         transform="matrix(-0.80901699,-0.58778525,0.58778525,-0.80901699,0,0)"
         id="use8"
         x="0"
         y="0"
         width="1235"
         height="650" />
      <use
         xlink:href="#pt"
         transform="matrix(0.30901699,-0.95105652,0.95105652,0.30901699,0,0)"
         id="use10"
         x="0"
         y="0"
         width="1235"
         height="650" />
      <use
         xlink:href="#pt"
         id="use12"
         x="0"
         y="0"
         width="1235"
         height="650" />
      <use
         xlink:href="#pt"
         transform="matrix(0.30901699,0.95105652,-0.95105652,0.30901699,0,0)"
         id="use14"
         x="0"
         y="0"
         width="1235"
         height="650" />
      <use
         xlink:href="#pt"
         transform="matrix(-0.80901699,0.58778525,-0.58778525,-0.80901699,0,0)"
         id="use16"
         x="0"
         y="0"
         width="1235"
         height="650" />
    </g>
    <g
       id="s5">
      <use
         xlink:href="#star"
         x="-0.252"
         id="use19"
         y="0"
         width="1235"
         height="650" />
      <use
         xlink:href="#star"
         x="-0.126"
         id="use21"
         y="0"
         width="1235"
         height="650" />
      <use
         xlink:href="#star"
         id="use23"
         x="0"
         y="0"
         width="1235"
         height="650" />
      <use
         xlink:href="#star"
         x="0.126"
         id="use25"
         y="0"
         width="1235"
         height="650" />
      <use
         xlink:href="#star"
         x="0.252"
         id="use27"
         y="0"
         width="1235"
         height="650" />
    </g>
    <g
       id="s6">
      <use
         xlink:href="#s5"
         x="-0.063000001"
         id="use30"
         y="0"
         width="1235"
         height="650" />
      <use
         xlink:href="#star"
         x="0.315"
         id="use32"
         y="0"
         width="1235"
         height="650" />
    </g>
    <g
       id="x4">
      <use
         xlink:href="#s6"
         id="use35"
         x="0"
         y="0"
         width="1235"
         height="650" />
      <use
         xlink:href="#s5"
         y="0.054000001"
         id="use37"
         x="0"
         width="1235"
         height="650" />
      <use
         xlink:href="#s6"
         y="0.108"
         id="use39"
         x="0"
         width="1235"
         height="650" />
      <use
         xlink:href="#s5"
         y="0.162"
         id="use41"
         x="0"
         width="1235"
         height="650" />
    </g>
    <g
       id="u">
      <use
         xlink:href="#x4"
         y="-0.21600001"
         id="use44"
         x="0"
         width="1235"
         height="650" />
      <use
         xlink:href="#x4"
         id="use46"
         x="0"
         y="0"
         width="1235"
         height="650" />
      <use
         xlink:href="#s6"
         y="0.21600001"
         id="use48"
         x="0"
         width="1235"
         height="650" />
    </g>
    <rect
       id="stripe"
       width="1235"
       height="50"
       x="0"
       y="0"
       style="fill:#bb133e" />
  </defs>
  <rect
     width="900"
     height="600"
     id="rect51"
     x="0"
     y="-7.8159701e-14"
     style="fill:#ffffff" />
  <use
     xlink:href="#stripe"
     id="use53"
     x="0"
     y="0"
     width="1235"
     height="650"
     transform="scale(0.72874494,0.92307692)" />
  <use
     xlink:href="#stripe"
     y="100"
     id="use55"
     x="0"
     width="1235"
     height="650"
     transform="scale(0.72874494,0.92307692)" />
  <use
     xlink:href="#stripe"
     y="200"
     id="use57"
     x="0"
     width="1235"
     height="650"
     transform="scale(0.72874494,0.92307692)" />
  <use
     xlink:href="#stripe"
     y="300"
     id="use59"
     x="0"
     width="1235"
     height="650"
     transform="scale(0.72874494,0.92307692)" />
  <use
     xlink:href="#stripe"
     y="400"
     id="use61"
     x="0"
     width="1235"
     height="650"
     transform="scale(0.72874494,0.92307692)" />
  <use
     xlink:href="#stripe"
     y="500"
     id="use63"
     x="0"
     width="1235"
     height="650"
     transform="scale(0.72874494,0.92307692)" />
  <use
     xlink:href="#stripe"
     y="600"
     id="use65"
     x="0"
     width="1235"
     height="650"
     transform="scale(0.72874494,0.92307692)" />
  <rect
     width="360"
     height="323.07693"
     id="rect67"
     x="0"
     y="-7.8159701e-14"
     style="fill:#002664" />
  <use
     xlink:href="#u"
     transform="matrix(473.68421,0,0,600,180,161.53846)"
     id="use69"
     x="0"
     y="0"
     width="1235"
     height="650" />
</svg>
