<?xml version="1.0" encoding="UTF-8" standalone="no"?>
<svg
   xmlns:dc="http://purl.org/dc/elements/1.1/"
   xmlns:cc="http://creativecommons.org/ns#"
   xmlns:rdf="http://www.w3.org/1999/02/22-rdf-syntax-ns#"
   xmlns:svg="http://www.w3.org/2000/svg"
   xmlns="http://www.w3.org/2000/svg"
   xmlns:xlink="http://www.w3.org/1999/xlink"
   xmlns:sodipodi="http://sodipodi.sourceforge.net/DTD/sodipodi-0.dtd"
   xmlns:inkscape="http://www.inkscape.org/namespaces/inkscape"
   width="900"
   height="600"
   viewBox="-18 -5 102.85714 68.571429"
   id="svg2"
   version="1.1"
   inkscape:version="0.47 r22583"
   sodipodi:docname="Flag_of_Nepal.svg">
  <metadata
     id="metadata54">
    <rdf:RDF>
      <cc:Work
         rdf:about="">
        <dc:format>image/svg+xml</dc:format>
        <dc:type
           rdf:resource="http://purl.org/dc/dcmitype/StillImage" />
      </cc:Work>
    </rdf:RDF>
  </metadata>
  <sodipodi:namedview
     pagecolor="#ffffff"
     bordercolor="#666666"
     borderopacity="1"
     objecttolerance="10"
     gridtolerance="10"
     guidetolerance="10"
     inkscape:pageopacity="0"
     inkscape:pageshadow="2"
     inkscape:window-width="971"
     inkscape:window-height="829"
     id="namedview52"
     showgrid="false"
     inkscape:zoom="0.32597403"
     inkscape:cx="315"
     inkscape:cy="385"
     inkscape:window-x="0"
     inkscape:window-y="0"
     inkscape:window-maximized="0"
     inkscape:current-layer="svg2" />
  <defs
     id="defs4">
    <inkscape:perspective
       sodipodi:type="inkscape:persp3d"
       inkscape:vp_x="0 : 385 : 1"
       inkscape:vp_y="0 : 1000 : 0"
       inkscape:vp_z="630 : 385 : 1"
       inkscape:persp3d-origin="315 : 256.66667 : 1"
       id="perspective56" />
    <clipPath
       id="helper1">
      <rect
         width="50"
         height="30"
         x="-20"
         y="21"
         id="rect7" />
    </clipPath>
    <clipPath
       id="helper2">
      <rect
         width="50"
         height="30"
         x="-20"
         y="20"
         id="rect10" />
    </clipPath>
  </defs>
  <path
     d="m -14.542858,0.59324666 0,59.97818234 44.68009,0 -31.5935941,-31.808234 31.5935941,0 z"
     id="path12"
     style="stroke:#003893;stroke-width:5.16467524" />
  <!--E 2TN-->
  <path
     d="m -14.542858,0.59324663 0,59.97818237 44.680089,0 -31.5935931,-31.808234 31.5935931,0 z"
     id="path14"
     style="fill:#ce1126;stroke:none" />
  <!--E-->
  <g
     id="g16"
     style="fill:#ffffff"
     transform="matrix(0.74466816,0,0,0.74972728,-3.372835,0.59324663)">
    <circle
       clip-path="url(#helper1)"
       cy="23.483496"
       r="11.950277"
       id="circle18"
       cx="0"
       sodipodi:cx="0"
       sodipodi:cy="23.483496"
       sodipodi:rx="11.950277"
       sodipodi:ry="11.950277"
       d="m 11.950277,23.483496 c 0,6.599956 -5.3503211,11.950277 -11.950277,11.950277 -6.5999559,0 -11.950277,-5.350321 -11.950277,-11.950277 0,-6.599956 5.3503211,-11.950278 11.950277,-11.950278 6.5999559,0 11.950277,5.350322 11.950277,11.950278 z" />
    <!--MQ-->
    <circle
       clip-path="url(#helper2)"
       cy="18.786797"
       r="12.840097"
       id="circle20"
       cx="0"
       sodipodi:cx="0"
       sodipodi:cy="18.786797"
       sodipodi:rx="12.840097"
       sodipodi:ry="12.840097"
       style="fill:#ce1126"
       d="m 12.840097,18.786797 c 0,7.09139 -5.748707,12.840097 -12.840097,12.840097 -7.09139,0 -12.840097,-5.748707 -12.840097,-12.840097 0,-7.09139 5.748707,-12.8400979 12.840097,-12.8400979 7.09139,0 12.840097,5.7487079 12.840097,12.8400979 z" />
    <!--LN-->
    <g
       transform="matrix(5.5610606,0,0,5.5610606,0,29.044556)"
       id="g22">
      <!--TM-->
      <circle
         r="1"
         id="circle24"
         d="M 1,0 C 1,0.55228475 0.55228475,1 0,1 -0.55228475,1 -1,0.55228475 -1,0 c 0,-0.55228475 0.44771525,-1 1,-1 0.55228475,0 1,0.44771525 1,1 z"
         cx="0"
         cy="0"
         sodipodi:cx="0"
         sodipodi:cy="0"
         sodipodi:rx="1"
         sodipodi:ry="1" />
      <g
         id="6jags">
        <g
           id="3jags">
          <path
             id="jag"
             d="M 0.19509032,-0.98078528 0,-1.3887841 -0.19509032,-0.98078528"
             transform="matrix(0.98078528,0.19509032,-0.19509032,0.98078528,0,0)" />
          <!--sin(Pi/16) cos(Pi/16) TS/TM-->
          <use
             xlink:href="#jag"
             transform="matrix(0.92387953,0.38268343,-0.38268343,0.92387953,0,0)"
             id="use29"
             x="0"
             y="0"
             width="72"
             height="88" />
          <use
             xlink:href="#jag"
             transform="matrix(0.70710678,0.70710678,-0.70710678,0.70710678,0,0)"
             id="use31"
             x="0"
             y="0"
             width="72"
             height="88" />
        </g>
        <use
           xlink:href="#3jags"
           transform="matrix(0.38268343,0.92387953,-0.92387953,0.38268343,0,0)"
           id="use33"
           x="0"
           y="0"
           width="72"
           height="88" />
      </g>
      <use
         xlink:href="#6jags"
         transform="scale(-1,1)"
         id="use35"
         x="0"
         y="0"
         width="72"
         height="88" />
    </g>
    <g
       transform="matrix(8.1433983,0,0,8.1433983,0,58.786797)"
       id="g37">
      <!--W NM-->
      <circle
         r="1"
         id="circle39"
         d="M 1,0 C 1,0.55228475 0.55228475,1 0,1 -0.55228475,1 -1,0.55228475 -1,0 c 0,-0.55228475 0.44771525,-1 1,-1 0.55228475,0 1,0.44771525 1,1 z"
         cx="0"
         cy="0"
         sodipodi:cx="0"
         sodipodi:cy="0"
         sodipodi:rx="1"
         sodipodi:ry="1" />
      <g
         id="4rays">
        <g
           id="2rays">
          <path
             id="ray"
             d="M 0.25881905,0.96592583 0,1.5767493 -0.25881905,0.96592583" />
          <!--sin(Pi/12) cos(Pi/12) LN/NM-->
          <use
             xlink:href="#ray"
             transform="scale(-1,-1)"
             id="use44"
             x="0"
             y="0"
             width="72"
             height="88" />
        </g>
        <use
           xlink:href="#2rays"
           transform="matrix(0,1,-1,0,0,0)"
           id="use46"
           x="0"
           y="0"
           width="72"
           height="88" />
      </g>
      <use
         xlink:href="#4rays"
         transform="matrix(0.8660254,0.5,-0.5,0.8660254,0,0)"
         id="use48"
         x="0"
         y="0"
         width="72"
         height="88" />
      <use
         xlink:href="#4rays"
         transform="matrix(0.5,0.8660254,-0.8660254,0.5,0,0)"
         id="use50"
         x="0"
         y="0"
         width="72"
         height="88" />
    </g>
  </g>
</svg>
