<?xml version="1.0" encoding="UTF-8" standalone="no"?>
<svg
   xmlns:dc="http://purl.org/dc/elements/1.1/"
   xmlns:cc="http://creativecommons.org/ns#"
   xmlns:rdf="http://www.w3.org/1999/02/22-rdf-syntax-ns#"
   xmlns:svg="http://www.w3.org/2000/svg"
   xmlns="http://www.w3.org/2000/svg"
   xmlns:xlink="http://www.w3.org/1999/xlink"
   xmlns:sodipodi="http://sodipodi.sourceforge.net/DTD/sodipodi-0.dtd"
   xmlns:inkscape="http://www.inkscape.org/namespaces/inkscape"
   width="900"
   height="600"
   viewBox="0 0 21262.5 14175"
   id="svg2968"
   version="1.1"
   inkscape:version="0.47 r22583"
   sodipodi:docname="Flag_of_Australia.svg">
  <metadata
     id="metadata2989">
    <rdf:RDF>
      <cc:Work
         rdf:about="">
        <dc:format>image/svg+xml</dc:format>
        <dc:type
           rdf:resource="http://purl.org/dc/dcmitype/StillImage" />
      </cc:Work>
    </rdf:RDF>
  </metadata>
  <sodipodi:namedview
     pagecolor="#ffffff"
     bordercolor="#666666"
     borderopacity="1"
     objecttolerance="10"
     gridtolerance="10"
     guidetolerance="10"
     inkscape:pageopacity="0"
     inkscape:pageshadow="2"
     inkscape:window-width="1056"
     inkscape:window-height="900"
     id="namedview2987"
     showgrid="false"
     inkscape:zoom="0.3921875"
     inkscape:cx="640"
     inkscape:cy="320"
     inkscape:window-x="0"
     inkscape:window-y="0"
     inkscape:window-maximized="0"
     inkscape:current-layer="svg2968" />
  <defs
     id="defs6">
    <inkscape:perspective
       sodipodi:type="inkscape:persp3d"
       inkscape:vp_x="0 : 320 : 1"
       inkscape:vp_y="0 : 1000 : 0"
       inkscape:vp_z="1280 : 320 : 1"
       inkscape:persp3d-origin="640 : 213.33333 : 1"
       id="perspective2991" />
    <polygon
       points="8.7743512,2.0026884 3.1273259,2.4939592 3.9049537,8.1087198 0,4 -3.9049537,8.1087198 -3.1273259,2.4939592 -8.7743512,2.0026884 -3.8997116,-0.89008374 -7.0364833,-5.6114082 -1.735535,-3.6038755 0,-9 0,-9 1.735535,-3.6038755 7.0364833,-5.6114082 3.8997116,-0.89008374 "
       id="Star7" />
    <polygon
       points="5.2900673,7.2811529 0,4 -5.2900673,7.2811529 -3.8042261,1.236068 -8.5595086,-2.7811529 -2.351141,-3.236068 0,-9 0,-9 2.351141,-3.236068 8.5595086,-2.7811529 3.8042261,1.236068 "
       id="Star5" />
  </defs>
  <path
     d="m 0,0 21262.5,0 0,14175 L 0,14175 0,0 z"
     style="fill:#00008b"
     id="path2973" />
  <use
     transform="matrix(177.1875,0,0,236.25,5315.625,10631.25)"
     id="Commonwealth_Star"
     style="fill:#ffffff"
     xlink:href="#Star7"
     x="0"
     y="0"
     width="30240"
     height="15120" />
  <use
     transform="matrix(84.375,0,0,112.5,15946.875,11812.5)"
     id="Star_Alpha_Crucis"
     style="fill:#ffffff"
     xlink:href="#Star7"
     x="0"
     y="0"
     width="30240"
     height="15120" />
  <use
     transform="matrix(84.375,0,0,112.5,13289.063,6201.5625)"
     id="Star_Beta_Crucis"
     style="fill:#ffffff"
     xlink:href="#Star7"
     x="0"
     y="0"
     width="30240"
     height="15120" />
  <use
     transform="matrix(84.375,0,0,112.5,15946.875,2362.5)"
     id="Star_Gamma_Crucis"
     style="fill:#ffffff"
     xlink:href="#Star7"
     x="0"
     y="0"
     width="30240"
     height="15120" />
  <use
     transform="matrix(84.375,0,0,112.5,18309.375,5256.5625)"
     id="Star_Delta_Crucis"
     style="fill:#ffffff"
     xlink:href="#Star7"
     x="0"
     y="0"
     width="30240"
     height="15120" />
  <use
     transform="matrix(49.21875,0,0,65.625,17010,7678.125)"
     id="Star_Epsilon_Crucis"
     style="fill:#ffffff"
     xlink:href="#Star5"
     x="0"
     y="0"
     width="30240"
     height="15120" />
  <path
     d="m 4429.6875,0 1771.875,0 0,2362.5 4429.6875,0 0,2362.5 -4429.6875,0 0,2362.5 -1771.875,0 0,-2362.5 L 0,4725 0,2362.5 l 4429.6875,0 0,-2362.5 z"
     id="White_Cross"
     style="fill:#ffffff" />
  <path
     d="m 0,0 1188.6099,0 9442.6401,6295.0934 0,792.4066 -1188.6096,0 L 0,792.40659 0,0 z"
     id="White_Diagonal"
     style="fill:#ffffff" />
  <use
     transform="matrix(-1,0,0,1,10631.25,0)"
     id="White_Diagonal_Flipped"
     style="fill:#ffffff"
     xlink:href="#White_Diagonal"
     x="0"
     y="0"
     width="30240"
     height="15120" />
  <path
     d="m 4784.0625,0 1063.125,0 0,2835 4784.0625,0 0,1417.5 -4784.0625,0 0,2835 -1063.125,0 0,-2835 L 0,4252.5 0,2835 l 4784.0625,0 0,-2835 z"
     id="Red_Cross"
     style="fill:#ff0000" />
  <path
     d="m 0,0 3543.75,2362.5 -792.4066,0 L 0,528.27106 0,0 z M 10631.25,0 9838.8436,0 6295.0934,2362.5 7087.5,2362.5 10631.25,0 z"
     id="Red_Diagonals"
     style="fill:#ff0000" />
  <use
     transform="matrix(-1,0,0,-1,10631.25,7087.5)"
     id="Red_Diagonals_Rotated"
     style="fill:#ff0000"
     xlink:href="#Red_Diagonals"
     x="0"
     y="0"
     width="30240"
     height="15120" />
</svg>
