<?xml version="1.0" encoding="UTF-8" standalone="no"?>
<!-- Created with Sodipodi ("http://www.sodipodi.com/") -->

<svg
   xmlns:dc="http://purl.org/dc/elements/1.1/"
   xmlns:cc="http://creativecommons.org/ns#"
   xmlns:rdf="http://www.w3.org/1999/02/22-rdf-syntax-ns#"
   xmlns:svg="http://www.w3.org/2000/svg"
   xmlns="http://www.w3.org/2000/svg"
   xmlns:sodipodi="http://sodipodi.sourceforge.net/DTD/sodipodi-0.dtd"
   xmlns:inkscape="http://www.inkscape.org/namespaces/inkscape"
   height="600"
   id="svg571"
   sodipodi:docname="Flag_of_Norfolk_Island.svg"
   sodipodi:version="0.32"
   width="900"
   inkscape:version="0.47 r22583"
   version="1.0"
   inkscape:output_extension="org.inkscape.output.svg.inkscape">
  <metadata
     id="metadata14809">
    <rdf:RDF>
      <cc:Work
         rdf:about="">
        <dc:title>Australia - Norfolk Islands</dc:title>
        <dc:description />
        <dc:subject>
          <rdf:Bag>
            <rdf:li />
            <rdf:li>oceania</rdf:li>
            <rdf:li>australia</rdf:li>
            <rdf:li>flag</rdf:li>
            <rdf:li>sign</rdf:li>
          </rdf:Bag>
        </dc:subject>
        <dc:publisher>
          <cc:Agent
             rdf:about="http://www.openclipart.org">
            <dc:title>Tobias Jakobs</dc:title>
          </cc:Agent>
        </dc:publisher>
        <dc:creator>
          <cc:Agent>
            <dc:title>Tobias Jakobs</dc:title>
          </cc:Agent>
        </dc:creator>
        <dc:rights>
          <cc:Agent>
            <dc:title>Tobias Jakobs</dc:title>
          </cc:Agent>
        </dc:rights>
        <dc:date />
        <dc:format>image/svg+xml</dc:format>
        <dc:type
           rdf:resource="http://purl.org/dc/dcmitype/StillImage" />
        <cc:license
           rdf:resource="http://web.resource.org/cc/PublicDomain" />
        <dc:language>en</dc:language>
      </cc:Work>
      <cc:License
         rdf:about="http://web.resource.org/cc/PublicDomain">
        <cc:permits
           rdf:resource="http://web.resource.org/cc/Reproduction" />
        <cc:permits
           rdf:resource="http://web.resource.org/cc/Distribution" />
        <cc:permits
           rdf:resource="http://web.resource.org/cc/DerivativeWorks" />
      </cc:License>
    </rdf:RDF>
  </metadata>
  <defs
     id="defs573">
    <inkscape:perspective
       sodipodi:type="inkscape:persp3d"
       inkscape:vp_x="0 : 250 : 1"
       inkscape:vp_y="0 : 1000 : 0"
       inkscape:vp_z="1000 : 250 : 1"
       inkscape:persp3d-origin="500 : 166.66667 : 1"
       id="perspective10" />
  </defs>
  <sodipodi:namedview
     id="base"
     inkscape:zoom="0.5"
     inkscape:cx="499.42081"
     inkscape:cy="272.22819"
     inkscape:window-width="756"
     inkscape:window-height="573"
     inkscape:window-x="22"
     inkscape:window-y="29"
     inkscape:current-layer="svg571"
     showgrid="false"
     inkscape:window-maximized="0" />
  <rect
     height="600.25049"
     id="rect609"
     style="font-size:12px;fill:#ffffff;fill-opacity:1;fill-rule:evenodd;stroke-width:1pt"
     width="352.14032"
     x="273.94592"
     y="-0.12525539" />
  <path
     style="fill:#007a3d;fill-opacity:1;fill-rule:evenodd;stroke:#198200;stroke-width:1.25;stroke-linecap:round;stroke-linejoin:round;stroke-opacity:1;stroke-dasharray:none"
     d="m 449.74445,27.062578 c -0.78366,11.38007 -1.56892,22.76541 -2.35257,34.145492 -2.87252,0.580694 -5.74414,1.158844 -8.61667,1.739418 -1e-5,0 5.9845,4.508628 7.02938,9.0374 0.1672,0.725331 0.10038,1.325665 -0.14172,1.777234 -0.0794,0.141299 -0.2013,0.298036 -0.31179,0.415938 -1.73358,1.787426 -6.85931,0.945335 -6.85931,0.945335 -10e-6,0 6.79038,7.687255 7.31282,10.474315 0.0122,0.06531 0.0274,0.126029 0.0283,0.189067 -6.7e-4,0.05222 0.008,0.138406 0,0.189067 -0.007,0.04034 -0.0445,0.112007 -0.0567,0.151251 -0.0464,0.136713 -0.12989,0.29093 -0.22675,0.41595 -1.59645,1.978439 -9.12686,2.533502 -9.12686,2.533502 -10e-6,0 8.34931,7.987453 8.87175,12.516223 0.47346,4.10432 0.0763,6.50827 0,6.91986 -0.58346,-0.66864 -14.04754,-15.849476 -22.7321,-11.41965 -0.43257,0.301494 -0.68856,0.588786 -0.79364,0.869716 -0.0462,0.140242 -0.0559,0.314771 -0.0283,0.453753 0.60843,2.525071 12.89013,5.111891 21.45661,15.049741 -0.21252,2.48703 -24.41609,-7.9111 -25.31143,-1.3991 0.75705,1.8362 26.04801,6.72691 27.91911,11.15495 -9.31416,0.46465 -28.55584,-2.75028 -27.91911,1.36128 -1.94646,4.74694 18.17366,2.06583 26.61527,5.93671 2.47435,3.75109 2.23557,6.9023 -2.06913,7.29798 -8.13595,-5.18981 -26.34498,-9.04617 -26.38852,-2.42005 4.3e-4,0.007 -9e-4,0.031 0,0.0378 0.002,0.007 0.0262,0.0312 0.0284,0.0378 0.008,0.0197 0.0154,0.0567 0.0283,0.0756 0.0292,0.0375 0.0936,0.0788 0.14172,0.11345 2.05627,1.3761 19.01294,0.70486 25.39647,6.35266 -9.05111,2.74676 -39.74297,-5.57219 -39.93707,-1.51254 0.87435,1.89611 5.73075,10.21778 14.0871,9.8693 8.35635,-0.34849 27.69008,4.53276 28.99619,8.01643 0.0408,0.10889 0.0403,0.22059 0.0283,0.30252 -0.56584,2.4296 -25.4596,-7.41122 -35.03352,-1.36129 -9.92277,6.27159 28.45425,2.46966 34.72174,10.13399 6.26749,7.66432 -12.52818,-0.71846 -12.52818,-0.71846 1e-5,0 -26.10008,-4.85826 -30.01658,-2.42005 -3.91741,2.43942 -8.36156,8.01643 -8.36156,8.01643 0,0 2.60405,6.95131 5.21535,5.55858 0.39781,-0.21236 0.66972,-0.25583 0.82199,-0.18907 0.004,0.002 0.0248,-0.002 0.0283,0 0.004,0.002 0.0251,0.0353 0.0283,0.0378 0.005,0.006 0.0232,0.0315 0.0283,0.0378 0.005,0.007 0.0239,0.0306 0.0283,0.0378 0.002,0.004 0.0266,0.0337 0.0283,0.0378 0.0116,0.0349 0.024,0.10853 0.0283,0.15125 0.0616,1.04509 -1.78568,4.08386 -1.78568,4.08386 -10e-6,1e-5 36.57545,11.82107 44.67057,22.27209 8.09512,10.45222 -46.4846,-16.3732 -46.4846,-16.3732 0,-1e-5 -21.93666,10.7983 1.30384,11.49527 -2.59033,5.05577 1.07291,8.16756 1.30382,8.35676 0,0 38.6566,10.81009 42.5731,19.17139 3.9174,8.3613 -26.37287,-8.02612 -33.16279,-12.55404 -6.55036,-4.36991 -24.7833,2.31111 -25.82164,4.34854 -0.007,0.0162 -0.0233,0.06 -0.0283,0.0756 -0.002,0.007 0.002,0.0304 0,0.0378 -0.002,0.0146 -8.5e-4,0.0617 0,0.0756 9e-4,0.007 -9e-4,0.031 0,0.0378 0.002,0.007 -0.002,0.031 0,0.0378 0.002,0.007 0.026,0.0309 0.0283,0.0378 0.003,0.007 -0.003,0.0309 0,0.0378 0.0125,0.0279 0.0402,0.0852 0.0567,0.11345 0.004,0.007 0.0238,0.0307 0.0283,0.0378 1.16804,1.71712 9.30696,4.08182 9.55202,7.0333 9e-4,0.0122 -6.6e-4,0.0257 0,0.0378 0.004,0.15756 -0.0324,0.34413 -0.085,0.49157 -1.02519,2.65195 -10.73546,3.78002 -11.13931,6.27703 -0.005,0.0427 -0.0283,0.10768 -0.0283,0.15125 -1e-5,2.78791 48.84738,16.37532 61.90388,31.00699 13.0565,14.63166 -38.37814,-17.43198 -38.37814,-17.43198 10e-6,0 2.87252,5.22339 0,6.61734 -2.87252,1.39275 -13.07714,-19.50778 -29.78983,-6.61734 -3.04395,5.30355 14.59231,9.51294 19.07569,10.09618 -1.53104,5.25152 -2.86617,6.98881 3.40132,12.21372 0.6854,0.57161 1.07021,0.91693 1.2188,1.09659 0.005,0.006 0.0242,0.0323 0.0283,0.0378 0.004,0.005 0.0255,0.0331 0.0283,0.0378 0.002,0.004 -9e-4,0.0344 0,0.0378 -5.6e-4,0.002 9e-4,0.0361 0,0.0378 -0.003,5.3e-4 -0.025,-1.4e-4 -0.0283,0 -0.004,-2.6e-4 -0.024,6.4e-4 -0.0283,0 -0.97077,-0.20255 -12.23051,-7.92216 -13.40684,-8.24333 -0.0108,-0.002 -0.048,9.6e-4 -0.0567,0 -0.004,3e-4 -0.0256,-6.8e-4 -0.0283,0 0,0.69697 1.30384,9.07522 1.30384,9.07522 -5.78587,-6.27037 -12.77942,-8.16104 -19.3308,-1.73942 -0.009,0.37149 -0.0577,6.38377 6.51918,10.09618 -3.70697,10.10495 4.18906,6.96765 16.72312,16.3732 -18.62921,-6.49545 -20.12034,5.57006 -6.80262,8.35676 13.31771,2.7867 49.88501,4.53277 58.50257,19.51171 1.81778,3.15988 2.3111,4.74882 1.95576,5.25606 -1.43727,1.73775 -14.66097,-11.02139 -16.5814,-11.49527 -0.005,0.004 -0.0243,-0.005 -0.0284,0 -0.004,0.005 -0.0243,0.0318 -0.0283,0.0378 -0.0245,0.0408 -0.0608,0.12154 -0.085,0.18907 -0.4693,1.38595 -0.90701,7.41142 -0.90701,7.41142 -5.57091,-4.30167 -10.68285,-8.16044 -17.3467,-9.98274 -0.52244,1.39274 -0.41292,3.37175 -0.93536,4.76449 -6.04708,-5.81784 -11.31526,-9.90802 -20.09609,-10.4743 -0.34828,1.8586 -0.70044,3.73777 -1.04874,5.59637 2e-5,-1e-5 -7.32075,-12.19345 -21.68336,0 -8.01984,7.67037 30.29662,2.77732 36.56411,11.83559 6.26748,9.05709 1.30383,10.4365 1.30383,10.4365 -5.22259,-2.55438 -10.42343,-5.08393 -15.64604,-7.6383 0,1e-5 -18.55823,-4.55243 -23.78084,1.02096 -5.22261,5.5746 76.24858,19.16534 78.59866,34.1455 1.58456,8.12413 -19.14168,-8.50711 -37.0743,-15.65475 -0.69367,2.6593 -1.40382,5.31931 -2.09748,7.97862 -0.42526,-0.5613 -7.36223,-9.56278 -15.13584,-11.11713 -0.003,0.005 -0.0263,0.0289 -0.0283,0.0378 -9e-4,0.0131 2.4e-4,0.0585 0,0.0756 0.0122,1.14334 1.58728,9.30209 1.58728,9.30209 -1e-5,2e-5 -20.0877,-12.55555 -30.27169,-5.93669 -10.18488,6.61885 35.50427,10.10162 39.68198,16.37319 0.45694,0.68583 0.64712,1.18577 0.62358,1.51254 -0.007,0.0563 -0.0365,0.14255 -0.0567,0.18907 -1.00918,1.97187 -14.63391,-5.31069 -15.98617,-1.70161 -1.56733,4.18064 -23.75862,-7.65312 -23.4974,-2.07973 0.26123,5.57459 3.14622,8.69708 3.14622,8.69708 -1e-5,-10e-6 46.22111,5.91885 47.78843,13.23469 1.56643,7.31582 -25.59487,-4.15948 -25.59487,-4.15948 0,0 -2.6274,5.20009 -0.53854,7.63831 0.0816,0.0953 0.1467,0.18626 0.17007,0.22687 6.7e-4,0.002 -1.5e-4,0.0358 0,0.0378 -0.003,-8.5e-4 -0.0248,10e-4 -0.0284,0 -0.94407,-0.41547 -15.66064,-13.27463 -14.22883,-3.40321 -5.75865,-3.05896 -20.62601,-12.53407 -18.53715,-5.21824 2.05814,7.20826 40.83661,17.47233 41.97787,17.7723 -1.0255,0.10768 -17.42561,1.93812 -16.66644,7.67611 -21.98009,-17.86448 -21.92834,-7.15141 -21.42826,-6.31483 9e-4,10e-4 -9e-4,0.0367 0,0.0378 -1.23482,-0.26057 -28.27628,-9.24779 -6.77429,6.27702 11.53178,8.32518 14.34157,11.5708 14.3989,12.81874 3.7e-4,0.0275 0.003,0.088 0,0.11345 -0.005,0.0331 -0.0198,0.0837 -0.0283,0.11345 -0.003,0.007 -0.0256,0.0307 -0.0283,0.0378 -0.009,0.0205 -0.0174,0.0568 -0.0283,0.0756 -0.004,0.006 -0.0242,0.0319 -0.0283,0.0378 -0.005,0.006 -0.0238,0.0323 -0.0283,0.0378 -0.005,0.005 -0.0234,0.0326 -0.0283,0.0378 -0.005,0.005 -0.023,0.0329 -0.0283,0.0378 -0.44703,0.38149 -1.52726,0.22178 -1.84237,0.22688 -0.0137,6.6e-4 -0.047,-10e-4 -0.0567,0 -0.005,0.002 -0.0274,0.0339 -0.0283,0.0378 0.005,0.006 0.0234,0.0288 0.0283,0.0378 0.30679,0.60845 1.99384,6.75268 1.89906,7.82738 -0.002,0.0173 -0.025,0.0616 -0.0283,0.0756 -0.002,0.006 0.002,0.0324 0,0.0378 -9e-4,0.002 -0.0269,-0.002 -0.0284,0 -0.002,10e-4 0.002,0.0365 0,0.0378 -0.002,6.9e-4 -0.0264,-4.5e-4 -0.0283,0 -0.003,-3.1e-4 -0.0255,6.3e-4 -0.0284,0 -0.94232,-0.31667 -15.18388,-10.47005 -20.06774,-11.15495 -4.9623,-0.69699 -28.47035,8.6992 -3.40131,23.33087 25.06904,14.63165 40.46745,-3.49002 54.30761,-1.3991 13.84018,2.0897 20.3809,5.23186 19.0757,11.15495 -1.30609,5.9219 -14.15763,-19.41552 -27.66401,2.49569 -15.36395,-4.056 -25.78784,-6.40318 -17.85689,8.65926 -25.09081,-12.50926 -40.4128,3.81644 -8.81507,10.4365 31.04992,1.22091 50.14102,-10.09618 50.14102,-10.09618 0,1e-5 5.23802,12.91525 12.81161,3.85697 7.21771,-8.63253 7.78549,2.35412 8.04977,3.40321 0.005,0.0145 0.0242,0.0289 0.0284,0.0378 0.002,0.002 -0.002,0.0362 0,0.0378 0.002,0 0.0255,5.2e-4 0.0283,0 0.55766,-0.18689 7.28448,-4.19728 7.28448,-4.19728 0.60953,2e-5 1.23286,0 1.84237,0 0,27.86939 0,55.73604 0,83.60541 8.44342,0.11621 16.86802,0.22416 25.31144,0.34033 0,0 -8.09535,-72.79261 -3.6564,-82.54665 4.30109,-9.44922 8.3674,-8.42922 8.61665,-8.35676 -10e-6,0 16.45442,6.60404 18.28206,5.55857 0.0214,-0.0122 0.0647,-0.0239 0.085,-0.0378 0.0134,-0.01 0.0437,-0.0274 0.0567,-0.0378 0.0318,-0.0269 0.0842,-0.0822 0.11337,-0.11345 0.005,-0.006 0.0227,-0.0312 0.0284,-0.0378 1.33723,-1.62866 -0.0253,-8.05531 8.33321,-7.0711 2.58078,-1.25239 1.59606,-6.7412 3.25959,-8.09208 0.0293,-0.0229 0.0823,-0.0553 0.11338,-0.0756 0.0628,-0.0394 0.15679,-0.085 0.22676,-0.11344 0.0975,-0.0372 0.22792,-0.0606 0.34013,-0.0756 2.61133,-0.34849 53.00538,18.79598 63.97302,0.68064 -2.87251,-10.10252 -12.80799,-0.68881 -15.41928,-0.34032 -2.35011,1e-5 -12.28101,-6.27037 -18.02696,0 -5.2226,-5.22489 -28.96785,-8.69708 -28.96785,-8.69708 -3.13376,-4.18064 56.66655,2.07641 60.06151,-1.05877 7.05026,-9.40676 -13.05084,-8.35344 -16.18457,-5.21826 -5.57091,-4.52912 -12.5708,-4.19395 -16.83651,-1.05877 -2.04532,-6.52691 -21.46227,-3.69997 -32.25577,-5.55857 -3.45486,-2.70319 -2.87955,-4.25476 -0.53854,-5.9367 22.54482,1.27779 44.97487,5.20493 67.62943,3.85696 6.12326,-10.64945 -7.70851,-14.66554 -16.18458,-5.59637 -4.97592,-10.91688 -15.14855,-0.35485 -21.93847,-1.3991 -6.78901,-1.04547 -3.65641,-12.17774 4.96025,-10.4365 8.6176,1.74244 24.02619,-0.71059 26.89871,-5.9367 2.87161,-5.2249 -1.71472,-10.51848 -15.92948,-5.55857 -4.81082,-6.27279 -15.3898,-0.01 -20.35118,2.07973 -6.60129,-4.9127 -21.95956,-0.68366 -27.18216,1.05878 -5.11286,-4.23994 26.89871,-11.15495 26.89871,-11.15495 12.3563,-0.29161 19.32581,-3.14365 23.24231,-4.5376 18.67911,-13.35632 -0.26009,-14.77507 -10.06222,-5.06701 -6.08426,-6.33692 -11.86288,0.54785 -17.3467,2.98727 -5.14106,2.28583 -14.64837,3.95084 -15.8161,3.28976 -0.0138,-0.008 -0.0456,-0.0286 -0.0567,-0.0378 -0.003,-0.004 -0.0256,-0.0344 -0.0283,-0.0378 -0.002,-0.004 -0.0267,-0.0341 -0.0283,-0.0378 -9e-4,-0.004 6.3e-4,-0.034 0,-0.0378 0,-0.004 -4.6e-4,-0.0334 0,-0.0378 0.004,-0.0152 0.0203,-0.0574 0.0283,-0.0756 0.77014,-1.59289 14.85241,-13.12126 14.85241,-13.12126 0,-10e-6 18.28228,-1.76089 21.93846,-2.45787 2.22798,-0.42472 10.03622,-5.35611 10.03387,-7.18454 -0.0655,-1.13498 -3.31881,-1.03074 -13.18008,2.30662 -8.87879,1.04546 -14.09345,0.36995 -17.48842,0.71845 -5.46001,-0.75308 -7.76036,-1.5209 -8.21984,-2.19317 -0.0173,-0.0283 -0.0458,-0.0854 -0.0567,-0.11345 -0.0382,-0.12137 -0.0134,-0.26165 0.0567,-0.37814 0.0179,-0.0268 0.0619,-0.0869 0.085,-0.11344 1.33842,-1.42613 9.97718,-2.45787 9.97718,-2.45787 -10e-6,10e-6 26.37327,-3.22663 28.11752,-5.067 0.006,-0.007 0.0229,-0.0305 0.0283,-0.0378 0.009,-0.0145 0.0224,-0.0614 0.0284,-0.0756 0.002,-0.007 0.0271,-0.0307 0.0283,-0.0378 0.54268,-14.38527 -22.37423,-7.74255 -22.9872,-7.6383 0.0655,-10.11509 -20.68316,-0.1485 -21.65503,0 -0.002,-3.7e-4 -0.027,6.9e-4 -0.0283,0 -0.89268,-0.70164 -1.28172,-1.44197 -1.36053,-2.11755 -0.0256,-0.25753 -9e-4,-0.54741 0.0567,-0.79408 0.51973,-2.08566 3.65641,-3.70571 3.65641,-3.70571 5.74503,-1.85739 14.33472,-2.43731 16.5814,-4.87793 -1e-5,-10e-6 16.21474,-0.19028 18.14034,-5.93671 -3.97905,-14.64496 -34.31562,2.59249 -38.37815,5.21825 -0.814,0 -1.3125,-0.27283 -1.55893,-0.71845 -1.33387,-2.6 5.24901,-11.16206 5.47044,-11.45746 0.002,-0.002 0.0233,-0.0349 0.0283,-0.0378 1.00321,-0.37969 25.22406,-2.03305 36.79086,-22.95274 0.81635,-12.93521 -13.832,7.29799 -13.832,7.29799 -1.09387,-16.77584 -15.92858,1.06392 -24.54615,2.45787 -8.61666,1.39274 -8.86903,-5.23155 -2.86277,-6.27702 6.00536,-1.04426 12.78962,-0.3606 16.18458,-12.55406 3.39409,-12.19347 13.59165,0.70999 15.41928,-3.81914 1.77054,-4.3876 -3.33648,-8.12771 -3.6564,-8.35676 0,1e-5 7.56769,-10.48248 -4.70516,-10.134 -12.14934,0.34498 -27.85658,-2.03134 -28.1742,-2.07974 0.76193,-0.38796 13.13663,-6.61462 24.77289,-6.27701 12.01254,0.34847 5.48111,-11.49528 -6.00898,-11.49528 -11.48917,-1e-5 -17.48842,-5.21825 -17.48842,-5.21825 6.52872,-3.25135 13.05719,-6.50451 19.5859,-9.75585 -0.43538,-2.43822 -0.86847,-4.85978 -1.30384,-7.29799 -10e-6,0 11.4851,-12.20223 -4.70515,-9.41553 -16.19024,2.7879 -18.02695,3.1385 -18.02695,3.1385 -10e-6,0 -31.87105,6.51553 -32.62426,6.61735 -0.002,0 -0.0253,4.3e-4 -0.0283,0 -0.30849,-0.0645 -3.46529,-1.37299 -4.05322,-2.98726 -0.0181,-0.0529 -0.0444,-0.13551 -0.0567,-0.18907 -0.0134,-0.0645 -0.0239,-0.16163 -0.0283,-0.22688 -0.004,-0.0762 -0.01,-0.18748 0,-0.26468 0.13147,-0.85072 1.11463,-1.77059 3.62807,-2.60913 8.35636,-2.78668 37.87905,-10.78802 42.31799,-8.69708 0.57233,0.26937 0.99008,0.20852 1.24715,-0.0756 1.6645,-2.00936 -3.87314,-14.82467 -17.46007,-16.63789 -15.66782,-2.08972 -25.31143,5.21824 -25.31143,5.21824 0,1e-5 -10.19487,-4.89456 -0.79364,-9.07521 9.40033,-4.17944 24.29103,1.3991 24.29103,1.3991 0,0 16.70295,-6.62885 2.86278,-9.41554 -13.84017,-2.78791 -18.20428,2.50658 -24.54614,2.79819 -2.5315,-4.21573 21.72849,-5.21099 23.2423,-8.69708 -2.5587,-6.27279 -17.56845,0 -26.36017,0 -3.73963,-2.11634 -3.98702,-5.55977 0.25509,-7.67611 8.96588,-0.46466 17.39432,0.23775 26.36018,-0.22689 -0.26121,-6.38653 0.006,-13.95708 -0.2551,-20.34361 -11.37217,-2.77218 -24.70917,2.03013 -31.09366,1.62598 1.70791,-6.96856 26.26244,-8.76726 28.99619,-10.66338 5.64164,-9.40771 -23.5509,-0.14527 -24.2627,0 -5.18179,-1.02127 -4.86796,-5.39067 -1.58728,-8.01643 7.57267,-1.16163 24.55498,1.48047 23.27064,-5.36951 -0.98408,-6.41884 -11.77398,-2.98212 -16.21291,-1.58817 -4.43893,1.39275 -10.96924,0.34033 -10.96924,0.34033 -2.8426,-5.10572 25.60009,-3.0189 25.33978,-6.95767 -0.37095,-4.52224 -18.02968,-1.40727 -24.03594,-1.05877 -4.61958,-4.25219 21.71825,-7.07936 22.95886,-7.63831 0.006,-0.005 0.0249,-0.034 0.0283,-0.0378 0.98412,-11.580937 -18.28228,0 -21.93847,0 -0.6284,0 -1.10406,-0.20926 -1.44555,-0.5672 -0.0763,-0.0828 -0.16281,-0.20609 -0.22676,-0.3025 -1.25513,-1.95354 -0.14172,-6.42828 -0.14172,-6.42828 0,0 6.86572,-4.115836 7.28448,-5.104809 0.003,-0.0084 0.0262,-0.03037 0.0283,-0.03782 8.2e-4,-0.0036 -6.1e-4,-0.03433 0,-0.03781 -8e-5,-0.0036 3e-4,-0.03469 0,-0.03782 -0.002,-0.0048 -0.0256,-0.03217 -0.0283,-0.03782 -0.0165,-0.02929 -0.0537,-0.07923 -0.085,-0.113447 -0.80596,-0.827962 -5.52843,-2.917951 -6.1507,-2.987256 -0.005,-3e-4 -0.0243,0 -0.0283,0 -0.004,-0.0024 -0.0247,-0.03494 -0.0283,-0.03782 -0.007,-0.0072 -0.0217,-0.02665 -0.0283,-0.03782 -0.004,-0.006 -0.0253,-0.03049 -0.0283,-0.03782 -0.3557,-0.973907 0.085,-7.902997 0.085,-7.902997 0,0 5.44025,-5.438692 5.78222,-7.600495 0.003,-0.01789 -0.002,-0.05822 0,-0.07563 0.002,-0.01729 -6.6e-4,-0.05882 0,-0.07563 2.9e-4,-0.01645 4.9e-4,-0.05967 0,-0.07563 -8.6e-4,-0.01573 0.002,-0.06038 0,-0.07563 -9e-4,-0.0072 9e-4,-0.03049 0,-0.03781 -0.004,-0.02161 -0.0222,-0.05522 -0.0283,-0.07563 -0.002,-0.0072 0.002,-0.03109 0,-0.03782 -0.003,-0.006 -0.0257,-0.03145 -0.0283,-0.03782 -0.005,-0.01248 -0.022,-0.02593 -0.0283,-0.03782 -0.01,-0.01741 -0.0167,-0.05954 -0.0283,-0.07563 -0.005,-0.0048 -0.0241,-0.03277 -0.0283,-0.03782 -0.022,-0.02473 -0.0589,-0.05426 -0.085,-0.07563 -0.0108,-0.0084 -0.0453,-0.03001 -0.0567,-0.03782 -1.37392,-0.8801 -7.05772,1.739407 -7.05772,1.739407 -1e-5,-2.322527 0,-4.635125 0,-6.957663 -1e-5,0 4.97635,-0.721657 5.49879,-3.856959 0.0306,-0.183725 0.0151,-0.364316 0,-0.529385 -0.007,-0.06555 -0.0146,-0.164205 -0.0283,-0.226883 -0.0322,-0.134792 -0.0812,-0.294087 -0.14172,-0.41595 -0.01,-0.01861 -0.0464,-0.05738 -0.0567,-0.07563 -1.13864,-1.960888 -5.78223,-2.230988 -5.78223,-2.230988 -0.87073,-12.192978 -1.73694,-24.372582 -2.60768,-36.565559 z m -4.64846,119.414702 0,4.8023 c 1e-5,0 -5.85617,-0.40016 -6.94435,-1.62598 -0.005,-0.006 -0.0236,-0.0318 -0.0283,-0.0378 -0.004,-0.006 -0.024,-0.0317 -0.0283,-0.0378 -0.005,-0.006 -0.0245,-0.0317 -0.0283,-0.0378 -0.004,-0.006 -0.0249,-0.0316 -0.0283,-0.0378 -0.009,-0.0189 -0.0211,-0.0564 -0.0283,-0.0756 -0.002,-0.006 0.002,-0.0313 0,-0.0378 -0.002,-0.006 -0.027,-0.0312 -0.0283,-0.0378 -9e-4,-0.006 8.6e-4,-0.0312 0,-0.0378 -9e-4,-0.0135 1e-4,-0.0621 0,-0.0756 2.3e-4,-0.007 -4.9e-4,-0.031 0,-0.0378 7.9e-4,-0.007 -9e-4,-0.0309 0,-0.0378 0.005,-0.028 0.0184,-0.0849 0.0283,-0.11345 0.003,-0.007 0.0253,-0.0306 0.0283,-0.0378 0.0136,-0.0292 0.0382,-0.0837 0.0567,-0.11344 0.005,-0.007 0.0231,-0.0303 0.0283,-0.0378 0.0112,-0.0151 0.0443,-0.0603 0.0567,-0.0756 0.0392,-0.0463 0.0905,-0.10337 0.14172,-0.15125 1.96471,-1.83509 5.88754,-1.79184 6.6609,-2.07974 0.006,-0.002 0.0226,0.002 0.0283,0 0.005,-0.002 0.0236,-0.0351 0.0283,-0.0378 0.004,-0.002 0.0246,0.002 0.0283,0 0.004,-0.002 0.0256,-0.0348 0.0283,-0.0378 z m 8.30487,6.39046 c 0.20236,0 11.66537,0.13166 12.66989,2.11755 0.008,0.0169 0.0221,0.0585 0.0283,0.0756 0.008,0.0259 0.0237,0.0869 0.0283,0.11345 0.003,0.0179 -7.1e-4,0.0575 0,0.0756 -1.4e-4,0.0274 0.004,0.0855 0,0.11345 -0.005,0.0282 -0.0193,0.0846 -0.0283,0.11345 -0.87527,2.48055 -12.47147,3.97042 -12.47147,3.9704 l -0.22676,-6.57954 z m -0.65192,9.49116 c 0.004,0.002 0.0242,-0.002 0.0283,0 0.005,0.002 0.0228,-0.002 0.0283,0 0.68052,0.23972 5.4281,0.44517 6.00899,1.51254 0.005,0.01 0.024,0.0277 0.0283,0.0378 0.002,0.005 -0.002,0.0327 0,0.0378 0.004,0.0108 0.0259,0.0273 0.0283,0.0378 9e-4,0.005 -8.2e-4,0.0325 0,0.0378 4.4e-4,0.006 -2.4e-4,0.0324 0,0.0378 4e-5,0.006 1.7e-4,0.0323 0,0.0378 -3.7e-4,0.006 5.7e-4,0.0322 0,0.0378 -7.8e-4,0.006 9e-4,0.0321 0,0.0378 -0.002,0.006 -0.0267,0.0319 -0.0283,0.0378 -0.002,0.006 0.002,0.0319 0,0.0378 -0.007,0.0179 -0.0195,0.0574 -0.0283,0.0756 -0.004,0.006 -0.0249,0.0316 -0.0283,0.0378 -0.004,0.006 0.004,0.0316 0,0.0378 -0.98412,1.60451 -5.36524,2.04195 -5.58382,2.04193 -0.002,-5e-4 -0.0266,9.8e-4 -0.0283,0 -0.002,-10e-4 0.002,-0.0359 0,-0.0378 -0.004,-0.007 -0.0249,-0.0295 -0.0283,-0.0378 -0.20029,-0.54246 -0.39683,-4.00822 -0.39682,-4.00822 z m -34.94849,12.62968 c 3.74259,-0.25932 11.16973,0.91645 25.11303,6.05014 0,0.39588 0.28233,5.21913 0.17006,6.01234 -9e-4,0.006 -0.0273,0.0322 -0.0283,0.0378 -9e-4,0.005 9e-4,0.0341 0,0.0378 -0.003,0.004 -0.0252,0.0372 -0.0283,0.0378 -0.21859,-0.14642 -25.36744,-9.78762 -27.664,-9.64242 -0.0628,0.004 -0.1387,0.007 -0.19841,0 -0.0508,-0.007 -0.12253,-0.0226 -0.17007,-0.0378 -0.0625,-0.0219 -0.14332,-0.0798 -0.19841,-0.11345 -0.0202,-0.0131 -0.066,-0.0233 -0.085,-0.0378 -0.006,-0.005 -0.0223,-0.0326 -0.0283,-0.0378 -0.0765,-0.0692 -0.1521,-0.17412 -0.19841,-0.26469 -0.004,-0.007 -0.0252,-0.0306 -0.0283,-0.0378 -0.006,-0.0145 -0.0233,-0.0607 -0.0283,-0.0756 -0.003,-0.007 0.002,-0.0301 0,-0.0378 -0.004,-0.0154 -0.0256,-0.0599 -0.0283,-0.0756 -9e-4,-0.008 8.9e-4,-0.0298 0,-0.0378 -9e-4,-0.0162 2.9e-4,-0.0593 0,-0.0756 2.2e-4,-0.0164 -9e-4,-0.0589 0,-0.0756 0.005,-0.042 0.0169,-0.10841 0.0283,-0.15126 0.0309,-0.10324 0.0945,-0.23631 0.17007,-0.34033 0.38457,-0.50176 1.3476,-1.00584 3.2029,-1.1344 z m 13.03836,14.25565 c 4.00871,-0.19187 13.61336,2.89087 14.1438,2.72257 -1e-5,1.02172 0.42499,5.85099 -0.0567,6.84422 -0.005,0.008 -0.0238,0.0301 -0.0284,0.0378 -0.004,0.007 -0.0235,0.0315 -0.0283,0.0378 -0.005,0.006 -0.0231,0.0328 -0.0283,0.0378 -0.0107,0.008 -0.0454,0.0319 -0.0567,0.0378 -0.005,0.002 -0.0223,-0.001 -0.0284,0 -0.0123,0.001 -0.0437,0.001 -0.0567,0 -0.006,-0.001 -0.0215,0.002 -0.0283,0 -0.81632,-0.27225 -14.99014,-6.27801 -15.53267,-8.7349 -0.007,-0.0406 -6.5e-4,-0.11272 0,-0.15125 0.006,-0.0856 0.0371,-0.19027 0.085,-0.2647 0.006,-0.008 0.022,-0.0299 0.0283,-0.0378 0.006,-0.008 0.0216,-0.03 0.0283,-0.0378 0.2721,-0.28772 0.83355,-0.45685 1.55893,-0.49157 z m 39.45523,13.23469 c 3.82816,-0.0999 6.53094,0.33737 5.52714,1.89067 -2.73375,4.23026 -21.62668,7.71393 -21.62668,7.71393 l -0.34013,-7.71393 c 0.40574,-0.0797 10.0051,-1.72288 16.43967,-1.89067 z m -54.08086,24.04932 c 3.21263,-0.22819 10.6939,2.12559 27.35222,11.53309 l 0.11337,5.55856 c 1e-5,0 -28.21048,-11.4142 -29.1946,-13.31031 -0.48437,-0.93324 -1.38479,-3.56017 1.72901,-3.78134 z m 55.27133,8.28113 c 0.85827,-0.0582 1.46239,0.0576 1.67231,0.34032 0.005,0.007 0.0239,0.0298 0.0283,0.0378 0.0116,0.0248 0.0218,0.0859 0.0283,0.11345 0.005,0.0283 0.0288,0.0825 0.0283,0.11344 -0.0111,0.15932 -0.10134,0.37424 -0.25509,0.60502 -2.62491,3.93984 -16.72313,7.86518 -16.72312,7.86518 0,0 -10e-6,-4.95839 0,-5.10481 0.003,2.7e-4 0.0255,-5e-5 0.0283,0 0.64269,-0.0293 10.9915,-3.68544 15.19254,-3.9704 z m -61.84721,0.68064 c 4.21158,-0.29792 13.72133,2.6821 35.03352,16.14633 -10e-6,0.13954 0.18972,4.78315 0.11338,5.21824 -0.002,-5.4e-4 -0.0256,10e-4 -0.0283,0 -1.26354,-0.54331 -38.34979,-17.92355 -38.34979,-17.92355 -0.0394,-0.19054 -0.59747,-3.17017 3.23124,-3.44102 z m 70.60558,21.7427 c 1.07773,-0.0601 1.78477,0.0639 1.95576,0.37814 0.0157,0.0362 0.0263,0.10948 0.0283,0.15126 -0.005,0.15104 -0.098,0.3438 -0.28344,0.5672 -3.36304,4.05193 -24.8046,8.96087 -25.56654,9.0374 -0.004,0 -0.0251,5.6e-4 -0.0283,0 -0.003,-0.001 -0.0255,0.002 -0.0283,0 -0.003,-0.004 -0.0258,-0.0341 -0.0283,-0.0378 -0.007,-0.0143 -0.0225,-0.057 -0.0283,-0.0756 -0.002,-0.007 0.002,-0.0307 0,-0.0378 -0.004,-0.0151 -0.0256,-0.0587 -0.0283,-0.0756 -0.13611,-0.93917 0.3076,-4.22816 0.34014,-4.68886 3.1e-4,-0.007 0,-0.0333 0,-0.0378 9e-4,10e-4 0.0262,-0.001 0.0283,0 0.004,9e-4 0.0237,0.0372 0.0283,0.0378 0.005,3.6e-4 0.0221,-1e-4 0.0284,0 1.37239,-0.0305 17.80464,-4.89592 23.58243,-5.21826 z m -63.03765,12.66749 c 6.3831,-0.4399 25.72417,11.3917 26.67195,11.75997 0.003,6.8e-4 0.0265,-8e-5 0.0283,0 -0.0995,0.52856 -0.11585,4.80023 -0.1984,5.48294 -0.003,0.0192 0.003,0.0654 0,0.0756 -7.9e-4,0.002 -0.0275,-10e-4 -0.0283,0 -0.52142,-0.37256 -27.02898,-15.04934 -28.20255,-13.87752 -0.7312,-2.31171 0.0268,-3.32371 1.72901,-3.44102 z m 57.02867,3.1007 c 1.3282,-0.0781 2.30038,8.4e-4 2.60767,0.22689 0.0372,0.0312 0.0715,0.0755 0.085,0.11344 0.002,0.006 -9e-4,0.0311 0,0.0378 2.3e-4,0.007 4.7e-4,0.0307 0,0.0378 -0.003,0.0145 0.005,0.0603 0,0.0756 -0.004,0.008 -0.0243,0.0298 -0.0283,0.0378 -0.0189,0.0331 -0.0543,0.077 -0.085,0.11345 -1.96823,2.33414 -20.23782,7.14673 -20.23781,7.14673 0,0 -0.085,-4.51553 -0.085,-4.95356 0.51888,-0.14785 12.31261,-2.51634 17.74352,-2.836 z m -1.4739,15.61693 c 1.28542,-0.0569 2.1968,0.0407 2.40926,0.34033 0.004,0.006 0.0252,0.0315 0.0283,0.0378 0.005,0.0131 -0.003,0.0618 0,0.0756 8.9e-4,0.007 0.028,0.0306 0.0283,0.0378 -2.6e-4,0.007 -0.0274,0.0303 -0.0283,0.0378 -0.003,0.0156 0.005,0.0593 0,0.0756 -0.004,0.008 -0.0245,0.0293 -0.0283,0.0378 -0.0154,0.0342 -0.0338,0.078 -0.0567,0.11345 -0.0185,0.0268 -0.0625,0.0861 -0.085,0.11344 -1.97188,2.27058 -17.46007,6.61735 -17.46007,6.61735 0,0 -0.42517,-4.9584 -0.42517,-5.10481 0.42965,0.0122 10.78451,-2.1682 15.6177,-2.38225 z m -65.36189,1.24785 c 3.73694,-0.3152 12.99663,1.73908 35.8555,12.81874 l 0.76529,5.97451 c 1e-5,10e-6 -38.05942,-16.39016 -39.14343,-16.90258 0.002,0 -8e-4,-0.0337 0,-0.0378 9e-4,-0.0315 -0.005,-0.10829 0,-0.18907 0.0135,-0.14999 0.0705,-0.38635 0.1984,-0.60502 0.26822,-0.43866 0.881,-0.93704 2.32424,-1.05877 z m 50.14101,12.96999 c 0.45864,0.13068 6.84043,0.41335 8.02143,1.73942 0.005,0.006 0.0233,0.0315 0.0283,0.0378 0.005,0.006 0.0238,0.0315 0.0283,0.0378 0.005,0.006 0.0242,0.0313 0.0283,0.0378 0.0117,0.0197 0.0189,0.0556 0.0283,0.0756 0.003,0.007 0.0257,0.031 0.0283,0.0378 0.01,0.0274 0.023,0.0852 0.0283,0.11344 9e-4,0.007 -7.9e-4,0.0306 0,0.0378 5.3e-4,0.007 -2.4e-4,0.0306 0,0.0378 -5e-5,0.0147 9e-4,0.0609 0,0.0756 -8.7e-4,0.007 9e-4,0.0302 0,0.0378 -0.003,0.0151 -0.0243,0.0603 -0.0283,0.0756 -0.003,0.007 0.003,0.03 0,0.0378 -0.006,0.0156 -0.0212,0.0598 -0.0283,0.0756 -0.98411,2.04253 -7.65294,2.79819 -7.65295,2.79819 0,0 -0.32766,-4.00247 -0.48186,-5.25606 z m 15.44763,11.64653 c 1.48606,-0.0475 2.55259,0.1793 2.77773,0.75627 0.12682,0.39099 -0.11718,0.96856 -0.82198,1.73941 -5.4675,5.98117 -17.37503,7.14674 -17.37503,7.14674 0,0 0,-6.43434 0,-6.57954 0.003,3.1e-4 0.0229,5e-4 0.0283,0 0.67643,-0.1072 10.45719,-2.90512 15.39094,-3.06288 z m 15.16418,6.12577 c 1.88744,-0.0954 2.7007,0.3267 2.94781,0.90752 0.0199,0.0515 0.0452,0.13491 0.0567,0.18906 0.0178,0.0983 0.0345,0.23552 0.0283,0.34033 -0.0608,0.74944 -0.66917,1.64745 -1.13378,2.23099 -1.85938,2.33415 -31.49047,14.86067 -31.49048,14.86066 0,0 -0.22312,-8.30895 -0.11338,-9.0374 17.32432,-7.00419 25.79746,-9.29367 29.70479,-9.49116 z m -19.16073,23.51994 c 1.88384,-0.0938 3.35687,0.0547 3.79814,0.64282 0.0269,0.039 0.067,0.10828 0.085,0.15126 0.01,0.0263 0.022,0.0857 0.0283,0.11345 0.005,0.0282 -0.002,0.0837 0,0.11344 9e-4,0.0504 0.009,0.13428 0,0.18907 -0.0215,0.11141 -0.0786,0.24848 -0.14172,0.37813 -2.53512,3.31912 -14.85242,3.81916 -14.85241,3.81916 l 0,-4.12166 c 2.313,-0.1042 7.46173,-1.10552 11.08261,-1.28565 z m 12.32976,6.76859 c 0.58561,-0.0191 0.94271,0.10853 0.99205,0.34032 0.002,0.0179 0.002,0.0561 0,0.0756 -0.0296,0.19286 -0.20168,0.48541 -0.56688,0.83189 -4.92057,4.66708 -23.41236,9.45335 -23.41237,9.45335 0,0 0.22913,-3.2616 0.34013,-4.04603 0.51435,-0.0108 18.22257,-6.51063 22.64707,-6.65516 z m 10.37401,5.18044 c 2.17897,-0.0274 3.84209,0.40152 4.79018,1.32347 0.002,0 0.0268,-6.2e-4 0.0283,0 7.1e-4,0.004 -5.2e-4,0.0336 0,0.0378 3.5e-4,0.005 -1.5e-4,0.0325 0,0.0378 -4.4e-4,0.0127 9e-4,0.0607 0,0.0756 -0.0927,0.90422 -1.47802,5.15802 -6.34911,6.99548 -6.07544,-0.72395 -31.8596,9.44529 -32.36916,9.6046 -0.002,-0.002 -0.0272,0.004 -0.0283,0 -0.002,-0.012 9e-4,-0.0565 0,-0.0756 -0.0137,-0.65142 0.34015,-4.15949 0.34014,-4.15947 8.88801,-7.09103 25.03968,-13.73216 33.58796,-13.8397 z m -66.01381,19.96547 c 0.057,-0.001 0.10951,-2.6e-4 0.17007,0 11.15358,1.60449 15.31904,7.17453 16.49636,9.41553 -2.22393,5.2064 -19.85057,-6.4699 -17.99861,-8.96177 0.21201,-0.25271 0.64843,-0.43476 1.33218,-0.45376 z m 63.91633,0.98315 c 0.44298,-0.0226 0.84751,0.0984 1.13377,0.34032 0.11699,0.10444 0.23233,0.25412 0.31179,0.41595 0.10746,0.23225 0.17899,0.5465 0.19841,0.90752 -1.16512,2.40186 -7.19098,1.35337 -7.56792,1.28565 0.30358,-0.14443 3.78287,-2.84058 5.92395,-2.94944 z m -23.89422,16.18413 c 0.82698,-0.0454 1.51406,0.066 1.89907,0.37813 0.0465,0.0402 0.10488,0.10385 0.14172,0.15125 0.0117,0.0162 0.0461,0.0586 0.0567,0.0756 0.015,0.0262 0.0443,0.0854 0.0567,0.11344 0.0114,0.0288 0.0196,0.0827 0.0283,0.11345 0.0702,0.28261 0.0428,0.6728 -0.14172,1.1344 -1.74964,4.37667 -9.41029,2.76036 -9.4103,2.76038 l 0,-3.06289 c 0.002,8.6e-4 0.0265,-7.1e-4 0.0283,0 0.43148,0.0489 4.65349,-1.51633 7.34117,-1.66379 z m -45.12408,11.53308 c 2.35689,-0.15867 4.41691,1.9039 6.57587,3.55446 4.81082,-1.31288 14.68233,1.02097 14.68234,1.02097 0,0 -1e-5,5.38524 0,5.82326 0,0.005 -0.0224,0.0337 -0.0284,0.0378 -0.005,0.002 -0.0225,-0.002 -0.0283,0 -0.89853,0.20874 -12.46653,-0.4656 -15.05081,-2.64693 -2.10733,0 -8.0729,-4.20022 -8.53161,-6.35265 -0.004,-0.0181 -0.0256,-0.0577 -0.0283,-0.0756 -0.004,-0.0265 0.002,-0.0875 0,-0.11345 -6.2e-4,-0.017 -2.3e-4,-0.0588 0,-0.0756 6.7e-4,-0.0166 -0.002,-0.0594 0,-0.0756 9e-4,-0.008 -9e-4,-0.0299 0,-0.0378 0.003,-0.0157 0.0246,-0.0603 0.0283,-0.0756 0.002,-0.007 -0.003,-0.0304 0,-0.0378 0.82441,-0.5861 1.62768,-0.89463 2.38091,-0.94534 z m 50.59453,2.87382 c 1.80958,-0.13007 2.57676,0.61629 1.16211,3.28978 -3.93645,7.43925 -14.11545,4.38635 -14.11545,4.38634 l -0.42516,-4.61323 c 3.59036,0.18681 10.15271,-2.83101 13.3785,-3.06289 z m -38.03802,15.08755 c 4.11599,-0.25597 8.58831,1.9285 8.58832,1.92848 0.10546,0.28024 2.21209,5.82049 0.34013,7.67612 -0.0697,0.0668 -0.14602,0.13265 -0.22675,0.18906 -2.29658,1.60451 -13.27307,-1.25388 -13.91704,-7.14672 1.29164,-1.81885 3.20521,-2.52193 5.21534,-2.64694 z m -42.43137,2.87382 c 3.76426,-0.30135 7.96892,2.79224 8.44659,3.1007 0.006,0.004 0.0247,-10e-4 0.0283,0 -1e-5,0.17425 -0.14172,5.59638 -0.14172,5.59638 0,0 -7.4516,-2.77127 -9.80712,-8.35676 0.47231,-0.1718 0.97674,-0.30053 1.4739,-0.34032 z m 71.68266,0.75627 c 4.19831,-0.0355 9.27037,1.28017 10.00553,3.17632 0.13881,0.38779 0.0977,0.81531 -0.17007,1.24785 -2.07797,3.35419 -13.88868,0.30249 -13.88869,0.3025 l 0,-4.08384 c 1.0508,-0.41009 2.4983,-0.62966 4.05323,-0.64283 z"
     id="path575" />
  <rect
     height="600.25049"
     id="rect608"
     style="font-size:12px;fill:#007a3d;fill-opacity:1;fill-rule:evenodd;stroke-width:1pt"
     width="273.88333"
     x="0.062577948"
     y="-0.12534699" />
  <rect
     height="600.25049"
     id="rect610"
     style="font-size:12px;fill:#007a3d;fill-opacity:1;fill-rule:evenodd;stroke-width:1pt"
     width="273.8512"
     x="626.08624"
     y="-0.12542026" />
</svg>
