<?xml version="1.0" encoding="UTF-8" standalone="no"?>
<!-- Created with Inkscape (http://www.inkscape.org/) -->

<svg
   xmlns:dc="http://purl.org/dc/elements/1.1/"
   xmlns:cc="http://creativecommons.org/ns#"
   xmlns:rdf="http://www.w3.org/1999/02/22-rdf-syntax-ns#"
   xmlns:svg="http://www.w3.org/2000/svg"
   xmlns="http://www.w3.org/2000/svg"
   xmlns:xlink="http://www.w3.org/1999/xlink"
   xmlns:sodipodi="http://sodipodi.sourceforge.net/DTD/sodipodi-0.dtd"
   xmlns:inkscape="http://www.inkscape.org/namespaces/inkscape"
   version="1.0"
   width="900"
   height="600"
   id="svg557"
   inkscape:version="0.47 r22583"
   sodipodi:docname="Flag_of_Croatia.svg">
  <metadata
     id="metadata124">
    <rdf:RDF>
      <cc:Work
         rdf:about="">
        <dc:format>image/svg+xml</dc:format>
        <dc:type
           rdf:resource="http://purl.org/dc/dcmitype/StillImage" />
      </cc:Work>
    </rdf:RDF>
  </metadata>
  <sodipodi:namedview
     pagecolor="#ffffff"
     bordercolor="#666666"
     borderopacity="1"
     objecttolerance="10"
     gridtolerance="10"
     guidetolerance="10"
     inkscape:pageopacity="0"
     inkscape:pageshadow="2"
     inkscape:window-width="1075"
     inkscape:window-height="849"
     id="namedview122"
     showgrid="false"
     inkscape:zoom="0.41833333"
     inkscape:cx="600"
     inkscape:cy="300"
     inkscape:window-x="0"
     inkscape:window-y="0"
     inkscape:window-maximized="0"
     inkscape:current-layer="svg557" />
  <defs
     id="defs559">
    <inkscape:perspective
       sodipodi:type="inkscape:persp3d"
       inkscape:vp_x="0 : 300 : 1"
       inkscape:vp_y="0 : 1000 : 0"
       inkscape:vp_z="1200 : 300 : 1"
       inkscape:persp3d-origin="600 : 200 : 1"
       id="perspective126" />
    <linearGradient
       x1="0"
       y1="0"
       x2="1"
       y2="0"
       id="linearGradient684"
       gradientUnits="objectBoundingBox"
       spreadMethod="pad">
      <stop
         id="stop685"
         style="stop-color:#000000;stop-opacity:1"
         offset="0" />
      <stop
         id="stop686"
         style="stop-color:#ffffff;stop-opacity:1"
         offset="1" />
    </linearGradient>
    <linearGradient
       x1="0"
       y1="0"
       x2="1"
       y2="0"
       id="linearGradient687"
       xlink:href="#linearGradient684"
       gradientUnits="objectBoundingBox"
       spreadMethod="pad" />
  </defs>
  <rect
     width="899.86829"
     height="200"
     x="0.065870933"
     y="200"
     id="rect675"
     style="fill:#ffffff" />
  <rect
     width="899.86829"
     height="200"
     x="0.065870933"
     y="400"
     id="rect714"
     style="fill:#00298c" />
  <rect
     width="899.86829"
     height="200"
     x="0.065870933"
     y="0"
     id="rect713"
     style="fill:#de1818" />
  <path
     d="m 360.59631,197.11385 c 27.61998,-13.10288 58.24395,-20.17273 88.17507,-20.27341 29.93114,-0.10065 60.45576,6.16225 90.61797,20.57581 l 22.45152,-60.40165 -15.78071,-36.65805 c 0,0 -28.15497,15.42156 -28.3861,15.42156 -0.23118,0 -19.85189,-28.796169 -19.85189,-28.796169 l -25.19643,20.301449 -23.66043,-24.130021 -22.25579,23.757791 -25.98228,-20.026877 -18.95245,30.033297 -28.4074,-16.19823 -15.20824,36.32299 22.43716,60.07151 z"
     id="path3501"
     style="font-size:12px;fill:#ffffff;fill-opacity:1;fill-rule:evenodd;stroke:#de1818;stroke-width:1.60056734;stroke-linecap:round;stroke-opacity:1" />
  <path
     d="m 504.52727,180.35909 12.85606,-60.60697 27.53152,-14.90002 14.50448,32.47838 -20.82502,56.80501 c -11.97108,-6.37844 -18.38422,-9.11109 -34.06704,-13.7764 z"
     id="path3503"
     style="font-size:12px;fill:#087ba5;fill-opacity:1;fill-rule:evenodd;stroke:#3477d9;stroke-width:0.40014129pt;stroke-opacity:1" />
  <path
     d="m 395.54374,180.51717 -12.0168,-59.58397 18.08048,-29.593044 25.72699,19.807244 4.34191,62.63379 c -12.57057,1.24389 -21.65631,2.83604 -36.13258,6.73598 z"
     id="path3505"
     style="font-size:12px;fill:none;stroke-width:1pt;stroke-opacity:0.99607801" />
  <path
     d="m 432.03395,173.79607 -4.34143,-62.76815 21.8791,-23.193582 22.85942,23.137512 -4.03943,62.88059 c -12.59537,-0.88826 -21.59056,-0.86151 -36.35766,-0.0564 z"
     id="path3507"
     style="font-size:12px;fill:#087ba5;fill-opacity:1;fill-rule:evenodd;stroke:#3477d9;stroke-width:0.40014153pt;stroke-opacity:1" />
  <path
     d="m 361.67843,194.09972 -20.3948,-57.52981 13.62977,-31.75839 28.25434,16.39997 11.93839,59.35215 c -12.90024,3.55751 -19.73162,6.46426 -33.4277,13.53608 z"
     id="path3509"
     style="font-size:12px;fill:#087ba5;fill-opacity:1;fill-rule:evenodd;stroke:#3477d9;stroke-width:0.40014186pt;stroke-opacity:1" />
  <path
     d="m 357.33644,165.22549 c 6.26115,0.80458 10.65228,0.36663 16.04741,-2.06689 6.37034,-3.977 8.39628,-8.59709 10.29993,-12.34245 1.51447,7.28934 0.93804,14.11343 -6.26573,19.68992 -6.50204,4.49401 -15.78791,3.16768 -20.08161,-5.28058 z"
     id="path3511"
     style="font-size:12px;fill:#ffffff;fill-rule:evenodd;stroke:#ffffff;stroke-width:0.36516166pt" />
  <path
     d="m 455.53047,120.77339 -1.23085,0.40268 0.0472,2.97251 -1.51472,0.4336 -1.05939,2.62136 0.65406,0.81011 c 0.0336,0.0876 -0.51591,1.93887 -0.49229,1.93887 0.0236,0 0.4008,0.69834 0.4008,0.69834 l 0.40231,1.61031 1.01758,0.18549 0.26054,1.88893 1.60923,0.34045 1.49108,1.39352 0.0945,0.86718 1.70406,0.0618 1.15996,0.49542 4.04703,-0.61947 0.54439,-1.11449 0.0472,-1.51717 2.17755,-0.0931 0.19904,-2.41963 1.15391,0 -0.14359,-2.7248 0.96244,0.11335 -0.24841,-1.30593 -0.59831,-1.06336 -0.11815,-1.67175 -1.70405,-2.22938 -0.37868,-2.91069 c 0,0 -1.08878,-0.65038 -1.08878,-0.6813 0,-0.0309 -0.0709,-1.95076 -0.0709,-1.95076 l 1.23056,-2.2603 -0.11815,-0.8977 -1.13604,-0.0313 -0.85218,0.92901 c 0,0 -1.13604,0.15497 -1.13604,0.18588 0,0.0309 0,0.6813 0,0.6813 0,0 0.28417,1.26946 0.28417,1.30038 0,0.0309 -1.30175,0 -1.30175,0 l -0.0476,-2.01259 -1.84583,-1.20763 c 0,0 -1.72769,1.54808 -1.72769,1.57899 0,0.0309 -0.0948,1.7962 -0.0948,1.7962 l -0.82825,0.30953 -0.85217,-1.67213 -1.49109,-0.74313 -0.80462,-0.0618 -0.0236,1.30037 1.56198,2.69389 -0.14178,1.579 z"
     id="path3515"
     style="font-size:12px;fill:#fffa00;fill-opacity:1;fill-rule:evenodd;stroke:#cca300;stroke-width:0.40014119pt;stroke-opacity:1" />
  <path
     d="m 467.13199,131.66231 -0.33475,-1.62022"
     id="path3517"
     style="font-size:12px;fill:none;stroke:#cca300;stroke-width:0.40014119pt;stroke-opacity:1" />
  <path
     d="m 468.06901,128.99101 -0.56894,-1.09468"
     id="path3519"
     style="font-size:12px;fill:none;stroke:#cca300;stroke-width:0.40014119pt;stroke-opacity:1" />
  <path
     d="m 452.47166,127.76514 1.77403,-0.13158 0.33475,2.10177 0.60226,0.70072 0.10057,3.85356 0.56893,0.30637 0.16753,-1.53263 1.37233,-0.13118 0.2675,3.10885 -0.33445,0.39435 0.1339,0.48155 1.63984,-0.0436 c 0,0 0.36837,-0.8323 0.4017,-0.8323 0.0336,0 0.93731,-0.13119 0.93731,-0.0876 0,0.044 0.36808,0.91989 0.36808,0.91989 l 0.2678,-1.18266 c 0,0 0.87035,-0.48155 0.87035,-0.43756 0,0.0436 0.70283,1.48864 0.70283,1.48864 l 1.20481,-0.21878 -0.73615,-0.9195 -0.30144,-2.01457 1.67346,-1.18226 0.66951,1.48903 c 0,0 0.63588,0.0436 0.60256,0 -0.0336,-0.044 -0.73646,-1.70781 -0.73646,-1.70781 l 0,-3.50321 1.27206,-2.27694 1.77374,-0.26277 0,-0.9635 -1.77374,-2.14575 -0.46865,-2.97767 -1.00426,-0.65673 -0.26781,0.39396 -1.10452,0.13158 1.10452,2.14576 0,1.40105 0.50229,0.35036 -0.10058,3.85356 c 0,0 -1.23843,0.21878 -1.23843,0.26277 0,0.0436 -0.10028,2.14537 -0.10028,2.14537 l -0.76978,1.00748 c 0,0 -0.43533,2.01418 -0.46865,2.01418 -0.0336,0 -0.73646,1.22586 -0.73646,1.22586 l -1.37233,0.044 c 0,0 -0.80311,-1.00708 -0.80311,-1.05108 0,-0.0436 -0.1339,-1.48863 -0.1339,-1.48863 0,0 -0.5356,-0.21918 -0.56922,-0.21918 -0.0333,0 -0.30113,-1.62021 -0.30113,-1.62021 l -0.93731,-0.70033 -0.0667,-0.96349 -0.90398,-0.52554 c 0,0 -0.10028,-0.8759 -0.1339,-0.9195 -0.0333,-0.044 -0.43503,-0.39395 -0.46835,-0.39395 -0.0336,0 -0.0336,-2.40853 -0.0336,-2.40853 l 0.80341,-0.17518 -0.44987,-0.76889 -0.15268,-0.67615 0,-0.70072 0.6695,-0.8759 c 0,0 -1.20511,-0.21878 -1.20511,-0.17518 0,0.044 -1.17118,0.70072 -1.17118,0.65712 0.0333,0 -0.0336,2.84608 -0.0336,2.84608 l -1.37234,0.56954 -1.10453,2.32054 0.56893,0.65712 z"
     id="path3521"
     style="font-size:12px;fill:#cca300;fill-opacity:1;fill-rule:evenodd;stroke:#cca300;stroke-width:0.40014119pt;stroke-opacity:1" />
  <path
     d="m 459.40027,131.66231 0.90368,-0.70072 -0.0336,-1.35745 -0.87006,-0.26277 -0.33505,-0.43795 0.97093,0.21917 1.20481,-0.13158 0.4017,-0.26277 c -0.16722,0.56953 -0.30112,0.52554 -0.33475,0.52554 -0.0333,0 -0.6692,0.43795 -0.6692,0.43795 l 0.0333,1.31385 c 0,0 2.07515,0.34996 2.04183,0.34996 -0.0336,0 0,0.52554 -0.067,0.52554 -0.067,0 -2.14211,-0.61313 -2.14211,-0.61313 l -1.30538,1.05109 0.20085,-0.65673 z"
     id="path3523"
     style="font-size:12px;fill:#663d19;fill-opacity:1;fill-rule:evenodd;stroke:#cca300;stroke-width:0.2;stroke-miterlimit:4;stroke-opacity:1;stroke-dasharray:none" />
  <path
     d="m 464.6215,123.51762 -1.2048,1.22586 -0.76978,1.7954 -0.4017,0.0876 -1.17148,-2.05817 -1.33871,0.044 c 0,0 -0.73646,2.40813 -0.73646,2.45212 0,0.0436 -0.5356,-0.0876 -0.5356,-0.0876 l -1.40566,-2.01417 c 0,0 -0.43533,-1.00749 -0.36838,-1.00749 0.067,0 3.51445,0.044 3.51445,0.044 l -0.0333,-2.18936 c 0,0 -0.5356,-0.21917 -0.8034,-0.43795 0.20085,-0.0876 1.90794,-0.0876 1.90794,-0.0876 l -0.73646,0.65673 0,1.88299 3.0458,0.0436 1.03757,-0.34996 z"
     id="path3525"
     style="font-size:12px;fill:#cca300;fill-opacity:1;fill-rule:evenodd;stroke:#cca300;stroke-width:0.40014119pt;stroke-opacity:1" />
  <rect
     width="0.8032881"
     height="1.0509208"
     rx="0.33799267"
     ry="0.33157584"
     x="458.1283"
     y="124.56834"
     id="rect3527"
     style="font-size:12px;fill:#663d19;fill-opacity:1;fill-rule:evenodd;stroke-width:1pt" />
  <rect
     width="0.8032881"
     height="1.0509208"
     rx="0.33799267"
     ry="0.33157584"
     x="461.94397"
     y="124.34943"
     id="rect3529"
     style="font-size:12px;fill:#663d19;fill-opacity:1;fill-rule:evenodd;stroke-width:1pt" />
  <path
     d="m 456.32086,121.0651 c 1.27175,-0.67139 2.17543,-1.2112 3.74862,-1.40105 1.48381,-0.20451 2.63318,0.0729 3.94947,0.39396"
     id="path3531"
     style="font-size:12px;fill:none;stroke:#cca300;stroke-width:0.40014119pt;stroke-opacity:1" />
  <path
     d="m 457.02368,117.51829 -1.03757,0 -1.47292,-2.05817 0.83703,0.13159 0.97064,0.56914 0.70282,1.35744 z"
     id="path3533"
     style="font-size:12px;fill:#cca300;fill-opacity:1;fill-rule:evenodd;stroke:#cca300;stroke-width:0.40014119pt;stroke-opacity:1" />
  <path
     d="m 463.2828,116.72998 2.34297,-2.36414 -0.76979,-0.13158 -0.87035,1.05068 -1.03759,0.21918 0.33476,1.22586 z"
     id="path3535"
     style="font-size:12px;fill:#cca300;fill-opacity:1;fill-rule:evenodd;stroke:#cca300;stroke-width:0.40014119pt;stroke-opacity:1" />
  <path
     d="m 461.90138,117.16437 -3.67258,0.17874 0.0333,-0.52554 1.33901,-0.17518 0.16723,-0.70032 c 0,0 0.4017,-0.0436 0.4017,0 0,0.044 0.30113,0.65673 0.30113,0.65673 l 1.30538,0.30636 0.12481,0.25921 z"
     id="path3537"
     style="font-size:12px;fill:#cca300;fill-opacity:1;fill-rule:evenodd;stroke:#cca300;stroke-width:0.40014119pt;stroke-opacity:1" />
  <path
     d="m 461.70961,115.32894 -1.27175,0.0436 -0.10058,-0.91949 1.37233,0.8759 z"
     id="path3539"
     style="font-size:12px;fill:#cca300;fill-opacity:1;fill-rule:evenodd;stroke:#cca300;stroke-width:0.40014119pt;stroke-opacity:1" />
  <path
     d="m 459.5675,114.49703 -0.10058,0.9191 -1.23812,0.26277 1.3387,-1.18187 z"
     id="path3541"
     style="font-size:12px;fill:#cca300;fill-opacity:1;fill-rule:evenodd;stroke:#cca300;stroke-width:0.40014119pt;stroke-opacity:1" />
  <path
     d="m 452.53861,131.26795 0.63587,-2.10176 -0.56892,-1.44504 -0.56893,2.14576 0.50198,1.40104 z"
     id="path3543"
     style="font-size:12px;fill:#cca300;fill-opacity:1;fill-rule:evenodd;stroke:#cca300;stroke-width:0.40014119pt;stroke-opacity:1" />
  <path
     d="m 453.81053,132.4068 0.76977,-2.49612 -1.47261,2.01418 0.70284,0.48194 z"
     id="path3545"
     style="font-size:12px;fill:#cca300;fill-opacity:1;fill-rule:evenodd;stroke:#cca300;stroke-width:0.40014119pt;stroke-opacity:1" />
  <path
     d="m 435.21225,121.6486 -1.23085,0.40268 0.0472,2.97251 -1.51472,0.43359 -1.05939,2.62136 0.65405,0.81011 c 0.0336,0.0876 -0.51591,1.93887 -0.49228,1.93887 0.0236,0 0.4008,0.69835 0.4008,0.69835 l 0.4023,1.61031 1.01759,0.18548 0.26053,1.88894 1.60924,0.34045 1.49108,1.39351 0.0945,0.86718 1.70406,0.0618 1.15997,0.49542 4.04702,-0.61947 0.54439,-1.1145 0.0473,-1.51717 2.17755,-0.0931 0.19904,-2.41962 1.1539,0 -0.14358,-2.72481 0.96244,0.11336 -0.24841,-1.30593 -0.59831,-1.06337 -0.11815,-1.67174 -1.70406,-2.22938 -0.37867,-2.91069 c 0,0 -1.08879,-0.65039 -1.08879,-0.6813 0,-0.0309 -0.0709,-1.95076 -0.0709,-1.95076 l 1.23056,-2.2603 -0.11816,-0.8977 -1.13603,-0.0313 -0.85218,0.92901 c 0,0 -1.13604,0.15497 -1.13604,0.18588 0,0.0309 0,0.6813 0,0.6813 0,0 0.28416,1.26946 0.28416,1.30038 0,0.0309 -1.30175,0 -1.30175,0 l -0.0475,-2.01259 -1.84583,-1.20764 c 0,0 -1.72769,1.54809 -1.72769,1.579 0,0.0309 -0.0948,1.79619 -0.0948,1.79619 l -0.82825,0.30954 -0.85217,-1.67214 -1.49109,-0.74313 -0.80462,-0.0618 -0.0236,1.30037 1.56197,2.69389 -0.14178,1.579 z"
     id="path3549"
     style="font-size:12px;fill:#fffa00;fill-opacity:1;fill-rule:evenodd;stroke:#cca300;stroke-width:0.40014119pt;stroke-opacity:1" />
  <path
     d="m 446.81377,132.53751 -0.33475,-1.62021"
     id="path3551"
     style="font-size:12px;fill:none;stroke:#cca300;stroke-width:0.40014119pt;stroke-opacity:1" />
  <path
     d="m 447.75078,129.86622 -0.56893,-1.09468"
     id="path3553"
     style="font-size:12px;fill:none;stroke:#cca300;stroke-width:0.40014119pt;stroke-opacity:1" />
  <path
     d="m 432.15343,128.64035 1.77404,-0.13158 0.33475,2.10176 0.60225,0.70072 0.10058,3.85357 0.56893,0.30637 0.16753,-1.53263 1.37233,-0.13119 0.2675,3.10886 -0.33445,0.39435 0.1339,0.48155 1.63984,-0.0436 c 0,0 0.36837,-0.8323 0.4017,-0.8323 0.0336,0 0.93731,-0.13119 0.93731,-0.0876 0,0.044 0.36807,0.91989 0.36807,0.91989 l 0.2678,-1.18266 c 0,0 0.87036,-0.48155 0.87036,-0.43756 0,0.0436 0.70282,1.48864 0.70282,1.48864 l 1.20481,-0.21878 -0.73615,-0.9195 -0.30143,-2.01457 1.67346,-1.18227 0.6695,1.48903 c 0,0 0.63589,0.0436 0.60256,0 -0.0336,-0.044 -0.73646,-1.7078 -0.73646,-1.7078 l 0,-3.50321 1.27206,-2.27695 1.77374,-0.26277 0,-0.96349 -1.77374,-2.14576 -0.46865,-2.97766 -1.00426,-0.65673 -0.2678,0.39396 -1.10453,0.13158 1.10453,2.14576 0,1.40104 0.50229,0.35036 -0.10059,3.85357 c 0,0 -1.23843,0.21878 -1.23843,0.26277 0,0.0436 -0.10027,2.14536 -0.10027,2.14536 l -0.76978,1.00749 c 0,0 -0.43533,2.01417 -0.46866,2.01417 -0.0336,0 -0.73645,1.22587 -0.73645,1.22587 l -1.37234,0.044 c 0,0 -0.8031,-1.00709 -0.8031,-1.05108 0,-0.0436 -0.1339,-1.48864 -0.1339,-1.48864 0,0 -0.5356,-0.21917 -0.56923,-0.21917 -0.0333,0 -0.30112,-1.62022 -0.30112,-1.62022 l -0.93731,-0.70032 -0.0667,-0.96349 -0.90397,-0.52554 c 0,0 -0.10028,-0.8759 -0.13391,-0.9195 -0.0333,-0.044 -0.43502,-0.39396 -0.46835,-0.39396 -0.0336,0 -0.0336,-2.40853 -0.0336,-2.40853 l 0.80341,-0.17518 -0.44988,-0.76889 -0.15267,-0.67614 0,-0.70073 0.6695,-0.8759 c 0,0 -1.20511,-0.21877 -1.20511,-0.17518 0,0.044 -1.17118,0.70072 -1.17118,0.65713 0.0333,0 -0.0336,2.84608 -0.0336,2.84608 l -1.37233,0.56953 -1.10453,2.32055 0.56893,0.65712 z"
     id="path3555"
     style="font-size:12px;fill:#cca300;fill-opacity:1;fill-rule:evenodd;stroke:#cca300;stroke-width:0.40014119pt;stroke-opacity:1" />
  <path
     d="m 439.08205,132.53751 0.90368,-0.70072 -0.0336,-1.35744 -0.87005,-0.26277 -0.33505,-0.43795 0.97093,0.21917 1.20481,-0.13158 0.4017,-0.26277 c -0.16723,0.56953 -0.30113,0.52554 -0.33475,0.52554 -0.0333,0 -0.6692,0.43795 -0.6692,0.43795 l 0.0333,1.31385 c 0,0 2.07516,0.34996 2.04184,0.34996 -0.0336,0 0,0.52554 -0.067,0.52554 -0.067,0 -2.14211,-0.61313 -2.14211,-0.61313 l -1.30539,1.05108 0.20085,-0.65673 z"
     id="path3557"
     style="font-size:12px;fill:#663d19;fill-opacity:1;fill-rule:evenodd;stroke:#cca300;stroke-width:0.2;stroke-miterlimit:4;stroke-opacity:1;stroke-dasharray:none" />
  <path
     d="m 444.30328,124.39283 -1.2048,1.22586 -0.76979,1.7954 -0.4017,0.0876 -1.17148,-2.05817 -1.33871,0.044 c 0,0 -0.73645,2.40814 -0.73645,2.45213 0,0.0436 -0.5356,-0.0876 -0.5356,-0.0876 l -1.40566,-2.01418 c 0,0 -0.43533,-1.00748 -0.36838,-1.00748 0.067,0 3.51444,0.044 3.51444,0.044 l -0.0333,-2.18935 c 0,0 -0.5356,-0.21918 -0.8034,-0.43795 0.20085,-0.0876 1.90793,-0.0876 1.90793,-0.0876 l -0.73646,0.65672 0,1.88299 3.0458,0.0436 1.03758,-0.34996 z"
     id="path3559"
     style="font-size:12px;fill:#cca300;fill-opacity:1;fill-rule:evenodd;stroke:#cca300;stroke-width:0.40014119pt;stroke-opacity:1" />
  <rect
     width="0.8032881"
     height="1.0509208"
     rx="0.33799267"
     ry="0.33157584"
     x="437.81006"
     y="125.44355"
     id="rect3561"
     style="font-size:12px;fill:#663d19;fill-opacity:1;fill-rule:evenodd;stroke-width:1pt" />
  <rect
     width="0.8032881"
     height="1.0509208"
     rx="0.33799267"
     ry="0.33157584"
     x="441.62576"
     y="125.22464"
     id="rect3563"
     style="font-size:12px;fill:#663d19;fill-opacity:1;fill-rule:evenodd;stroke-width:1pt" />
  <path
     d="m 436.00263,121.9403 c 1.27176,-0.67139 2.17544,-1.2112 3.74862,-1.40104 1.48382,-0.20451 2.63319,0.0729 3.94948,0.39396"
     id="path3565"
     style="font-size:12px;fill:none;stroke:#cca300;stroke-width:0.40014119pt;stroke-opacity:1" />
  <path
     d="m 436.70546,118.3935 -1.03758,0 -1.47291,-2.05817 0.83703,0.13158 0.97063,0.56914 0.70283,1.35745 z"
     id="path3567"
     style="font-size:12px;fill:#cca300;fill-opacity:1;fill-rule:evenodd;stroke:#cca300;stroke-width:0.40014119pt;stroke-opacity:1" />
  <path
     d="m 442.96458,117.60519 2.34296,-2.36414 -0.76978,-0.13158 -0.87036,1.05068 -1.03758,0.21917 0.33476,1.22587 z"
     id="path3569"
     style="font-size:12px;fill:#cca300;fill-opacity:1;fill-rule:evenodd;stroke:#cca300;stroke-width:0.40014119pt;stroke-opacity:1" />
  <path
     d="m 441.58315,118.03957 -3.67258,0.17875 0.0333,-0.52554 1.33901,-0.17518 0.16722,-0.70032 c 0,0 0.40171,-0.0436 0.40171,0 0,0.044 0.30112,0.65672 0.30112,0.65672 l 1.30539,0.30637 0.12481,0.2592 z"
     id="path3571"
     style="font-size:12px;fill:#cca300;fill-opacity:1;fill-rule:evenodd;stroke:#cca300;stroke-width:0.40014119pt;stroke-opacity:1" />
  <path
     d="m 441.39139,116.20414 -1.27175,0.0436 -0.10059,-0.9195 1.37234,0.8759 z"
     id="path3573"
     style="font-size:12px;fill:#cca300;fill-opacity:1;fill-rule:evenodd;stroke:#cca300;stroke-width:0.40014119pt;stroke-opacity:1" />
  <path
     d="m 439.24928,115.37224 -0.10058,0.9191 -1.23813,0.26277 1.33871,-1.18187 z"
     id="path3575"
     style="font-size:12px;fill:#cca300;fill-opacity:1;fill-rule:evenodd;stroke:#cca300;stroke-width:0.40014119pt;stroke-opacity:1" />
  <path
     d="m 432.22038,132.14316 0.63588,-2.10176 -0.56893,-1.44504 -0.56892,2.14576 0.50197,1.40104 z"
     id="path3577"
     style="font-size:12px;fill:#cca300;fill-opacity:1;fill-rule:evenodd;stroke:#cca300;stroke-width:0.40014119pt;stroke-opacity:1" />
  <path
     d="m 433.4923,133.28201 0.76978,-2.49612 -1.47261,2.01417 0.70283,0.48195 z"
     id="path3579"
     style="font-size:12px;fill:#cca300;fill-opacity:1;fill-rule:evenodd;stroke:#cca300;stroke-width:0.40014119pt;stroke-opacity:1" />
  <path
     d="m 468.71596,173.76693 4.06757,-62.95385 24.99823,-19.180727 19.32374,27.930017 -12.87843,60.65141 c -12.48285,-3.39949 -19.60506,-4.85622 -35.51111,-6.44685 z"
     id="path3581"
     style="font-size:12px;fill:#00298c;fill-opacity:1;fill-rule:evenodd;stroke:#000082;stroke-width:0.400141pt;stroke-opacity:1" />
  <path
     d="m 445.7476,145.16779 -1.23085,0.40267 0.0472,2.97252 -1.51472,0.43359 -1.05939,2.62136 0.65405,0.81011 c 0.0336,0.0876 -0.51591,1.93887 -0.49228,1.93887 0.0236,0 0.4008,0.69834 0.4008,0.69834 l 0.4023,1.61031 1.01759,0.18549 0.26053,1.88893 1.60924,0.34045 1.49108,1.39352 0.0945,0.86718 1.70406,0.0618 1.15997,0.49542 4.04702,-0.61947 0.54439,-1.1145 0.0473,-1.51717 2.17755,-0.0931 0.19904,-2.41963 1.1539,0 -0.14358,-2.7248 0.96244,0.11335 -0.24841,-1.30592 -0.59831,-1.06337 -0.11815,-1.67174 -1.70405,-2.22939 -0.37868,-2.91068 c 0,0 -1.08879,-0.65039 -1.08879,-0.6813 0,-0.0309 -0.0709,-1.95076 -0.0709,-1.95076 l 1.23056,-2.2603 -0.11816,-0.8977 -1.13603,-0.0313 -0.85218,0.92901 c 0,0 -1.13604,0.15496 -1.13604,0.18588 0,0.0309 0,0.6813 0,0.6813 0,0 0.28416,1.26946 0.28416,1.30037 0,0.0309 -1.30175,0 -1.30175,0 l -0.0475,-2.01259 -1.84583,-1.20763 c 0,0 -1.72769,1.54808 -1.72769,1.579 0,0.0309 -0.0948,1.79619 -0.0948,1.79619 l -0.82825,0.30954 -0.85217,-1.67214 -1.49109,-0.74313 -0.80462,-0.0618 -0.0236,1.30038 1.56197,2.69389 -0.14178,1.579 z"
     id="path3585"
     style="font-size:12px;fill:#fffa00;fill-opacity:1;fill-rule:evenodd;stroke:#cca300;stroke-width:0.40014119pt;stroke-opacity:1" />
  <path
     d="m 457.34912,156.0567 -0.33475,-1.62022"
     id="path3587"
     style="font-size:12px;fill:none;stroke:#cca300;stroke-width:0.40014119pt;stroke-opacity:1" />
  <path
     d="m 458.28613,153.3854 -0.56893,-1.09468"
     id="path3589"
     style="font-size:12px;fill:none;stroke:#cca300;stroke-width:0.40014119pt;stroke-opacity:1" />
  <path
     d="m 442.68878,152.15954 1.77404,-0.13159 0.33475,2.10177 0.60225,0.70072 0.10058,3.85357 0.56893,0.30636 0.16753,-1.53262 1.37233,-0.13119 0.2675,3.10885 -0.33445,0.39436 0.1339,0.48154 1.63984,-0.0436 c 0,0 0.36837,-0.83231 0.4017,-0.83231 0.0336,0 0.93731,-0.13118 0.93731,-0.0876 0,0.044 0.36807,0.9199 0.36807,0.9199 l 0.2678,-1.18267 c 0,0 0.87036,-0.48154 0.87036,-0.43755 0,0.0436 0.70282,1.48863 0.70282,1.48863 l 1.20481,-0.21877 -0.73615,-0.9195 -0.30143,-2.01457 1.67346,-1.18227 0.6695,1.48903 c 0,0 0.63589,0.0436 0.60256,0 -0.0336,-0.044 -0.73646,-1.70781 -0.73646,-1.70781 l 0,-3.5032 1.27206,-2.27695 1.77374,-0.26277 0,-0.96349 -1.77374,-2.14576 -0.46865,-2.97767 -1.00426,-0.65672 -0.2678,0.39395 -1.10453,0.13159 1.10453,2.14576 0,1.40104 0.50229,0.35036 -0.10059,3.85357 c 0,0 -1.23843,0.21877 -1.23843,0.26277 0,0.0436 -0.10027,2.14536 -0.10027,2.14536 l -0.76978,1.00748 c 0,0 -0.43533,2.01418 -0.46866,2.01418 -0.0336,0 -0.73645,1.22586 -0.73645,1.22586 l -1.37234,0.044 c 0,0 -0.8031,-1.00709 -0.8031,-1.05108 0,-0.0436 -0.1339,-1.48864 -0.1339,-1.48864 0,0 -0.5356,-0.21917 -0.56923,-0.21917 -0.0333,0 -0.30112,-1.62022 -0.30112,-1.62022 l -0.93731,-0.70032 -0.0667,-0.9635 -0.90397,-0.52554 c 0,0 -0.10028,-0.8759 -0.1339,-0.91949 -0.0333,-0.044 -0.43503,-0.39396 -0.46836,-0.39396 -0.0336,0 -0.0336,-2.40853 -0.0336,-2.40853 l 0.80341,-0.17518 -0.44988,-0.76889 -0.15267,-0.67615 0,-0.70072 0.6695,-0.8759 c 0,0 -1.20511,-0.21878 -1.20511,-0.17518 0,0.044 -1.17118,0.70072 -1.17118,0.65712 0.0333,0 -0.0336,2.84609 -0.0336,2.84609 l -1.37233,0.56953 -1.10453,2.32054 0.56893,0.65713 z"
     id="path3591"
     style="font-size:12px;fill:#cca300;fill-opacity:1;fill-rule:evenodd;stroke:#cca300;stroke-width:0.40014119pt;stroke-opacity:1" />
  <path
     d="m 449.6174,156.0567 0.90368,-0.70072 -0.0336,-1.35745 -0.87005,-0.26277 -0.33505,-0.43795 0.97093,0.21918 1.20481,-0.13159 0.4017,-0.26277 c -0.16722,0.56954 -0.30113,0.52554 -0.33475,0.52554 -0.0333,0 -0.6692,0.43795 -0.6692,0.43795 l 0.0333,1.31385 c 0,0 2.07516,0.34997 2.04184,0.34997 -0.0337,0 0,0.52554 -0.067,0.52554 -0.067,0 -2.14211,-0.61313 -2.14211,-0.61313 l -1.30539,1.05108 0.20085,-0.65673 z"
     id="path3593"
     style="font-size:12px;fill:#663d19;fill-opacity:1;fill-rule:evenodd;stroke:#cca300;stroke-width:0.2;stroke-miterlimit:4;stroke-opacity:1;stroke-dasharray:none" />
  <path
     d="m 454.83863,147.91201 -1.2048,1.22587 -0.76979,1.7954 -0.4017,0.0876 -1.17148,-2.05817 -1.33871,0.044 c 0,0 -0.73645,2.40813 -0.73645,2.45213 0,0.0436 -0.5356,-0.0876 -0.5356,-0.0876 l -1.40566,-2.01418 c 0,0 -0.43533,-1.00748 -0.36838,-1.00748 0.067,0 3.51444,0.044 3.51444,0.044 l -0.0333,-2.18936 c 0,0 -0.5356,-0.21917 -0.8034,-0.43795 0.20085,-0.0876 1.90793,-0.0876 1.90793,-0.0876 l -0.73646,0.65673 0,1.88299 3.0458,0.0436 1.03758,-0.34997 z"
     id="path3595"
     style="font-size:12px;fill:#cca300;fill-opacity:1;fill-rule:evenodd;stroke:#cca300;stroke-width:0.40014119pt;stroke-opacity:1" />
  <rect
     width="0.8032881"
     height="1.0509208"
     rx="0.33799267"
     ry="0.33157584"
     x="448.34543"
     y="148.96274"
     id="rect3597"
     style="font-size:12px;fill:#663d19;fill-opacity:1;fill-rule:evenodd;stroke-width:1pt" />
  <rect
     width="0.8032881"
     height="1.0509208"
     rx="0.33799267"
     ry="0.33157584"
     x="452.1611"
     y="148.74384"
     id="rect3599"
     style="font-size:12px;fill:#663d19;fill-opacity:1;fill-rule:evenodd;stroke-width:1pt" />
  <path
     d="m 446.53798,145.45949 c 1.27176,-0.67139 2.17544,-1.2112 3.74862,-1.40104 1.48382,-0.20451 2.63319,0.0729 3.94948,0.39395"
     id="path3601"
     style="font-size:12px;fill:none;stroke:#cca300;stroke-width:0.40014119pt;stroke-opacity:1" />
  <path
     d="m 447.24081,141.91269 -1.03758,0 -1.47291,-2.05817 0.83703,0.13158 0.97063,0.56914 0.70283,1.35745 z"
     id="path3603"
     style="font-size:12px;fill:#cca300;fill-opacity:1;fill-rule:evenodd;stroke:#cca300;stroke-width:0.40014119pt;stroke-opacity:1" />
  <path
     d="m 453.49993,141.12438 2.34296,-2.36414 -0.76978,-0.13159 -0.87035,1.05069 -1.03759,0.21917 0.33476,1.22587 z"
     id="path3605"
     style="font-size:12px;fill:#cca300;fill-opacity:1;fill-rule:evenodd;stroke:#cca300;stroke-width:0.40014119pt;stroke-opacity:1" />
  <path
     d="m 452.1185,141.55876 -3.67258,0.17875 0.0333,-0.52554 1.33901,-0.17518 0.16723,-0.70033 c 0,0 0.4017,-0.0436 0.4017,0 0,0.044 0.30112,0.65673 0.30112,0.65673 l 1.30539,0.30637 0.12481,0.2592 z"
     id="path3607"
     style="font-size:12px;fill:#cca300;fill-opacity:1;fill-rule:evenodd;stroke:#cca300;stroke-width:0.40014119pt;stroke-opacity:1" />
  <path
     d="m 451.92674,139.72333 -1.27175,0.0436 -0.10059,-0.9195 1.37234,0.8759 z"
     id="path3609"
     style="font-size:12px;fill:#cca300;fill-opacity:1;fill-rule:evenodd;stroke:#cca300;stroke-width:0.40014119pt;stroke-opacity:1" />
  <path
     d="m 449.78463,138.89142 -0.10058,0.91911 -1.23813,0.26277 1.33871,-1.18188 z"
     id="path3611"
     style="font-size:12px;fill:#cca300;fill-opacity:1;fill-rule:evenodd;stroke:#cca300;stroke-width:0.40014119pt;stroke-opacity:1" />
  <path
     d="m 442.75573,155.66235 0.63588,-2.10177 -0.56893,-1.44504 -0.56892,2.14576 0.50197,1.40105 z"
     id="path3613"
     style="font-size:12px;fill:#cca300;fill-opacity:1;fill-rule:evenodd;stroke:#cca300;stroke-width:0.40014119pt;stroke-opacity:1" />
  <path
     d="m 444.02765,156.80119 0.76978,-2.49611 -1.47261,2.01417 0.70283,0.48194 z"
     id="path3615"
     style="font-size:12px;fill:#cca300;fill-opacity:1;fill-rule:evenodd;stroke:#cca300;stroke-width:0.40014119pt;stroke-opacity:1" />
  <path
     d="m 474.91266,162.4915 -1.25295,1.95433 0.0963,1.63925 2.60228,-0.063 c 0.83524,-0.26276 1.04399,-0.65158 1.2048,-1.10339 0.25692,-0.55685 0.0803,-0.86164 0.14455,-1.60754 l -2.795,-0.81962 z"
     id="path3617"
     style="font-size:12px;fill:#de1818;fill-opacity:1;fill-rule:evenodd;stroke:#e61717;stroke-width:0.40014186pt;stroke-opacity:1" />
  <path
     d="m 481.09143,167.11811 -1.14883,1.18529 -0.10646,1.50651 2.30758,0.22666 c 0.84995,-0.15711 0.97561,-0.34197 1.16753,-0.77126 0.29499,-0.52267 0.2146,-0.52201 0.33107,-1.2566 l -2.55089,-0.8906 z"
     id="path3619"
     style="font-size:12px;fill:#de1818;fill-opacity:1;fill-rule:evenodd;stroke:#e61717;stroke-width:0.40014186pt;stroke-opacity:1" />
  <path
     d="m 491.34543,163.18498 -1.20479,1.63924 0.0481,1.26075 2.45773,0.12603 c 0.83524,-0.26277 0.70647,-0.21005 0.96366,-0.78791 0.25692,-0.55686 0.17693,-0.6726 0.24121,-1.41851 l -2.50597,-0.8196 z"
     id="path3621"
     style="font-size:12px;fill:#de1818;fill-opacity:1;fill-rule:evenodd;stroke:#e61717;stroke-width:0.40014186pt;stroke-opacity:1" />
  <path
     d="m 498.52554,166.14821 -1.39742,1.57582 0,1.57623 2.60222,0.3155 c 0.83523,-0.26277 0.89951,-0.58857 1.10847,-0.97739 0.25685,-0.55684 0.12843,-0.60955 0.19264,-1.35546 l -2.50591,-1.1347 z"
     id="path3623"
     style="font-size:12px;fill:#de1818;fill-opacity:1;fill-rule:evenodd;stroke:#e61717;stroke-width:0.40014186pt;stroke-opacity:1" />
  <path
     d="m 481.03273,124.91603 4.91529,4.3502 c 0.924,-1.02215 2.84617,-0.40269 3.59894,-0.1193 1.35173,0.47045 2.30448,1.53778 3.48513,1.82156 2.15932,0.72371 4.74645,1.22349 6.70587,0.9397 1.95982,-0.28338 3.60566,-1.64914 5.0522,-2.64196 l 0,-0.63019 -0.96365,0 c -1.56441,0.75066 -3.75646,0.79189 -5.43509,0.49781 -1.67862,-0.29408 -2.13091,-1.29759 -4.63655,-2.26307 l -0.19269,-0.63058 c 3.04161,0.19261 3.65923,0.0876 4.93256,-0.65275 1.24478,-0.44074 1.80561,-1.40424 2.50837,-2.06969 l -0.0197,-0.74509 -0.91577,-0.063 c -1.17969,1.04792 -1.93164,1.23736 -3.73902,1.01661 -1.64461,-0.22197 -3.126,-1.47042 -4.22941,-1.49657 -1.17021,0.0119 -1.11506,-0.73361 -2.24686,-0.80693 -1.79922,-0.21006 -3.74376,0.10978 -5.44633,0.65633 -2.04002,0.81961 -2.34544,1.51281 -3.37331,2.83696 z"
     id="path3625"
     style="font-size:12px;fill:#de1818;fill-opacity:1;fill-rule:evenodd;stroke:#cc0000;stroke-width:0.40014186pt;stroke-opacity:1" />
  <path
     d="m 481.98734,123.95136 c 0.47047,0.14268 0.99823,0.3234 1.38294,0.6155 0.38507,0.2921 0.28532,0.28616 0.69886,0.69003 -0.0664,-0.52197 -0.0476,-0.48472 -0.31358,-0.89492 -0.26632,-0.41061 -0.70366,-0.78355 -1.0551,-1.11967 l -0.71312,0.70906 z"
     id="path3627"
     style="font-size:12px;fill:#8e3737;fill-opacity:1;fill-rule:evenodd;stroke:#8f3636;stroke-width:0.40014186pt;stroke-opacity:1" />
  <path
     d="m 486.09407,128.6523 c 0.009,-0.56556 -0.20911,-1.05702 -0.3708,-1.54808 -0.16149,-0.49107 -0.29478,-0.90801 -0.5989,-1.39907 0.38013,0.14269 0.58944,0.36028 0.91269,0.87629 0.32292,0.51644 0.30418,1.03247 0.37052,1.77202 l -0.31351,0.29884 z"
     id="path3629"
     style="font-size:12px;fill:#8e3737;fill-opacity:1;fill-rule:evenodd;stroke:#8f3636;stroke-width:0.40014186pt;stroke-opacity:1" />
  <path
     d="m 487.03529,121.75011 c 0.11416,0.39198 0.33807,0.66109 0.52769,1.49734 0.16395,0.7598 0.24209,1.82316 0.24209,1.82316 -0.0618,-0.56598 0.0476,-1.20644 -0.0142,-1.7724 -0.0618,-0.56559 -0.29479,-1.05704 -0.35653,-1.62301 l -0.399,0.0749 z"
     id="path3631"
     style="font-size:12px;fill:#8e3737;fill-opacity:1;fill-rule:evenodd;stroke:#8f3636;stroke-width:0.40014186pt;stroke-opacity:1" />
  <path
     d="m 491.02766,122.08581 0.19963,3.13422 0.22838,-2.94755 -0.42801,-0.18667 z"
     id="path3633"
     style="font-size:12px;fill:#8e3737;fill-opacity:1;fill-rule:evenodd;stroke:#8f3636;stroke-width:0.40014186pt;stroke-opacity:1" />
  <path
     d="m 490.05811,128.57773 c 0.0951,-0.50969 0.0761,-1.01977 0.0285,-1.52986 -0.0475,-0.50969 -0.18084,-0.94487 -0.31379,-1.52945 0.38019,0.43516 0.53255,0.98253 0.74158,1.5671 0,0.58419 -0.11387,1.0939 -0.45627,1.49221 z"
     id="path3635"
     style="font-size:12px;fill:#8e3737;fill-opacity:1;fill-rule:evenodd;stroke:#8f3636;stroke-width:0.40014186pt;stroke-opacity:1" />
  <path
     d="m 494.19331,127.19718 c 0.0142,0 0.1215,1.06337 -0.0603,1.82831 -0.18173,0.76492 -0.31015,0.8208 -0.65254,1.23139 0.4562,-0.44745 0.85554,-0.59687 0.99816,-1.08199 0.1427,-0.7463 -0.22837,-1.86554 -0.28532,-1.97771 z"
     id="path3637"
     style="font-size:12px;fill:#8e3737;fill-opacity:1;fill-rule:evenodd;stroke:#8f3636;stroke-width:0.40014186pt;stroke-opacity:1" />
  <path
     d="m 494.90609,126.19009 c -0.28504,0.0622 -0.34205,-1.51756 -0.51314,-2.27616 0.12362,-0.0872 0.24724,-0.0622 0.37079,0.29844 0.13295,0.21165 0.0949,1.31862 0.14235,1.97772 z"
     id="path3639"
     style="font-size:12px;fill:#8e3737;fill-opacity:1;fill-rule:evenodd;stroke:#8f3636;stroke-width:0.40014186pt;stroke-opacity:1" />
  <path
     d="m 497.72942,125.55551 0.11428,-1.30595 0.31353,-0.0372 c 0,0 0,1.08199 0,1.11926 0,0.0376 -0.399,0.26118 -0.42781,0.22393 z"
     id="path3641"
     style="font-size:12px;fill:#8e3737;fill-opacity:1;fill-rule:evenodd;stroke:#8f3636;stroke-width:0.40014186pt;stroke-opacity:1" />
  <path
     d="m 497.50131,129.0627 c 0.18084,0.3979 0.50382,0.87073 0.54196,1.30591 0.0382,0.43518 -0.0666,0.64682 -0.31358,1.30593 l 0.45627,0.0373 c 0.2469,-0.52833 0.32326,-0.90763 0.28539,-1.32417 -0.0382,-0.41694 -0.19057,-0.8335 -0.51348,-1.17554 l -0.45656,-0.1494 z"
     id="path3643"
     style="font-size:12px;fill:#8e3737;fill-opacity:1;fill-rule:evenodd;stroke:#8f3636;stroke-width:0.40014186pt;stroke-opacity:1" />
  <path
     d="m 500.89534,129.39878 0.11395,1.82789 0.37073,-0.26119 -0.0854,-1.5667 -0.39926,0 z"
     id="path3645"
     style="font-size:12px;fill:#8e3737;fill-opacity:1;fill-rule:evenodd;stroke:#8f3636;stroke-width:0.40014186pt;stroke-opacity:1" />
  <path
     d="m 480.72793,125.23866 c -1.11231,0.42923 -1.51466,1.24884 -2.05902,1.95711 l -3.13431,-2.11685 c -0.50826,0.56241 -0.70405,1.36579 -0.45955,2.18818 0.24449,0.82201 1.22776,2.10892 1.9271,2.74504 -0.17515,1.13549 -0.43322,1.99238 -0.73892,2.98837 -0.34081,1.11965 -1.07245,2.53416 -1.09365,2.98837 -0.0418,0.52 -0.16903,1.63408 0.41408,1.93095 0.58353,0.29685 2.45932,-0.20569 3.08525,-0.1506 -0.1018,0.44666 -0.34542,1.22785 -0.26241,1.56313 0.083,0.33532 0.25116,0.44709 0.76046,0.46651 -0.14674,0.41495 -0.46321,0.94089 -0.31145,1.18861 0.39323,0.39674 0.84373,0.32815 1.22269,0.29725 -0.22297,0.34474 -0.57052,0.80835 -0.94381,1.29545 -0.62754,0.81882 -1.32786,1.70396 -1.63159,2.20221 -0.51252,0.92427 -0.5565,1.92264 0.43694,1.82474 -0.36963,0.54615 -0.72499,1.07368 -0.66833,1.54529 0.0855,0.5648 0.29842,0.94369 1.00845,0.61632 -0.42012,1.26708 -0.14413,2.40418 0.004,3.72675 -0.35872,1.00075 -0.20635,1.92739 -0.29539,3.07677 -0.7307,0.5517 -0.82159,1.27065 -1.29659,2.37999 -0.42836,1.20092 -1.22572,1.52867 -1.668,4.10526 l 2.86737,0.95359 c 0.10537,-0.52992 0.48042,-0.87393 0.58593,-1.40344 0.1051,-0.5299 0.0969,-1.1898 0.0457,-1.77558 0.569,-1.09865 1.72014,-3.36807 2.09004,-4.57808 0.62613,-0.44588 1.08152,-0.72492 1.55138,-0.72492 0.46985,0 0.76882,0.37179 1.26715,0.72492 -0.22049,1.01977 -0.83881,2.13188 -0.87455,3.56067 l 0,3.94237 c -0.12485,0.97935 -0.96002,0.99241 -1.31236,3.94196 l 2.57594,0.89017 c 0.43741,-0.99204 1.13023,-1.12875 1.31202,-1.5259 l 0.18605,-4.09572 c 0.32779,-1.93335 2.36047,-3.53175 2.3899,-5.63234 0.72952,-0.0131 1.00489,0.086 1.29411,-0.11297 0.38877,-0.18032 0.52199,-0.47203 0.82562,-0.83825 0.1169,0.63216 0.48983,0.68766 0.80581,0.68766 0.31571,0 0.94396,-0.59452 1.20328,-0.83628 0.18242,0.34282 0.27901,0.66702 0.66009,0.78673 0.38116,0.1197 1.45808,-0.0951 1.89617,-0.23583 l -2.11672,4.61812 c -0.079,0.44507 0.0267,0.72291 -0.13748,1.24251 -0.15394,0.46649 -0.4641,0.69121 -0.60384,1.12085 l 2.39964,0.76451 0.38294,-1.34754 c 0.50868,-0.28576 0.91824,-0.44152 1.18545,-0.8759 0.26713,-0.43437 0.2648,-1.25956 0.41833,-1.73118 0.8198,-0.79348 2.10822,-2.51635 3.01308,-3.94197 0.61433,0.13831 1.48441,0.81565 1.81466,1.82791 0.0463,1.08596 0.10634,3.0831 -0.25939,4.4667 l -1.55527,3.24281 -0.17631,0.53188 2.44842,1.16327 1.55527,-1.58971 0.0607,-2.26743 c 0.78124,-1.83979 1.89911,-2.84531 2.96458,-4.0054 0,-0.0638 0.1136,-2.43508 0.0709,-2.52782 -0.26323,-0.26713 -0.44105,-0.1066 -0.53407,-0.59687 -0.0927,-0.48987 -0.0294,-1.83503 0.0199,-2.36218 0.15387,-0.25445 0.47836,-0.54655 0.46169,-0.76375 -0.42376,-0.62026 -0.2941,-2.22582 -0.16424,-3.47783 -0.0318,-1.42563 1.42851,-3.11123 1.65235,-3.94197 l 0.0912,-1.49655 c -0.14935,-0.36781 -0.36929,-0.58699 -0.37656,-0.8993 -0.007,-0.31193 0.28381,-0.82872 0.46169,-1.15967 l 0.30954,-0.7043 -0.0485,-3.6879 c -0.0867,-0.39833 -0.34384,-1.01939 -0.58682,-1.08319 -0.24327,-0.0634 -0.59979,0.30083 -0.87126,0.70151 l -1.40709,1.3852 c -0.67471,0.27505 -1.26427,0.38325 -2.45027,-0.0107 l -1.80918,0.048 c -0.94999,0.35392 -1.44565,0.411 -2.33906,-0.10859 l -1.07122,0.023 c -0.33382,0.24258 -0.79585,0.63296 -1.15807,0.72651 -0.36201,0.0931 -0.85218,0.11216 -1.21453,-0.0361 -2.76536,0.24812 -2.07852,0.51446 -2.86895,0.74393 -0.63464,-0.16053 -0.43103,-0.58104 -2.8979,-0.61193 l -0.97792,-0.38168 c -1.23388,-1.09034 -2.18388,-2.83104 -3.0058,-4.83214 2.57024,-0.98173 3.64867,-2.00109 4.42847,-4.33949 l -3.63441,0.18113 -5.13954,-4.5543 z"
     id="path3647"
     style="font-size:12px;fill:#fffa00;fill-opacity:1;fill-rule:evenodd;stroke:#efd608;stroke-width:0.40014186pt;stroke-opacity:1" />
  <path
     d="m 479.44165,131.21997 1.02902,0.58142 c 0.12575,0.19936 0.3693,0.42923 0.53051,0.44272 0.1608,0.0131 0.298,-0.20572 0.43556,-0.36266 l 0.94739,-0.66148 c -0.56137,-0.10819 -0.73254,-0.57271 -1.32931,-0.57271 -0.59683,0 -1.0164,0.41774 -1.61317,0.57271 z"
     id="path3649"
     style="font-size:12px;fill:#664c00;fill-opacity:1;fill-rule:evenodd;stroke:#664c00;stroke-width:0.40014186pt;stroke-opacity:1" />
  <path
     d="m 481.33129,147.40627 c -4.1e-4,0.11337 -0.14269,0.19621 -0.21424,0.0618 -0.0882,-1.60832 -0.35385,-2.73669 -0.72582,-3.98912 0.41978,0.95279 0.76856,2.49415 0.94006,3.92728 z"
     id="path3653"
     style="font-size:12px;fill:#cca300;fill-opacity:1;fill-rule:evenodd;stroke:#cca300;stroke-width:0.40014186pt;stroke-opacity:1" />
  <path
     d="m 487.37453,147.58053 c 0.21089,0.0773 0.50477,0.0777 0.57351,-0.1082 0.0893,-0.34481 -0.17664,-0.72054 -0.27625,-1.14263 -0.34686,-0.90642 -0.53929,-1.88974 -0.68445,-2.31581 -0.15257,-0.1284 -0.31715,-0.11692 -0.28079,0.0955 0.19908,0.80615 0.54018,3.16038 0.66798,3.47111 z"
     id="path3657"
     style="font-size:12px;fill:#cca300;fill-opacity:1;fill-rule:evenodd;stroke:#cca300;stroke-width:0.40014186pt;stroke-opacity:1" />
  <path
     d="m 490.68932,147.09264 c 0.0228,0.1954 -0.4752,-0.0888 -0.55917,-0.31114 -0.007,-0.4316 -0.67773,-3.58843 -0.56679,-3.71049 0.1409,-0.0919 0.57769,1.05505 0.71853,1.58298 0.0331,0.3123 0.32689,1.4605 0.40743,2.43865 z"
     id="path3659"
     style="font-size:12px;fill:#cca300;fill-opacity:1;fill-rule:evenodd;stroke:#cca300;stroke-width:0.40014186pt;stroke-opacity:1" />
  <path
     d="m 490.21953,153.59771 c -0.0118,0.22075 0.37868,0.0392 0.53256,-0.12682 0.44619,-0.93021 0.99906,-1.90678 1.1615,-2.27933 0.0978,-0.39833 0.58622,-2.93289 0.43556,-2.91268 -0.0532,-0.0733 -0.47795,1.25718 -1.02629,2.57022 -0.57049,1.33725 -1.10943,2.6206 -1.10333,2.74861 z"
     id="path3661"
     style="font-size:12px;fill:#cca300;fill-opacity:1;fill-rule:evenodd;stroke:#cca300;stroke-width:0.40014186pt;stroke-opacity:1" />
  <path
     d="m 493.54407,152.2355 c -0.16245,0.10423 0.32593,-2.19134 0.36468,-2.59799 0.0894,-0.64285 0.21383,-1.79659 0.40962,-3.29076 0.23902,2.0867 -0.043,4.32838 -0.7743,5.88875 z"
     id="path3663"
     style="font-size:12px;fill:#cca300;fill-opacity:1;fill-rule:evenodd;stroke:#cca300;stroke-width:0.40014186pt;stroke-opacity:1" />
  <path
     d="m 495.53799,145.20965 c -0.10661,0.12406 -1.53471,-3.02405 -1.40354,-3.0395 0.0367,-0.13952 1.1969,1.97019 1.36264,2.34155 0.0691,0.17598 0.13756,0.44469 0.0409,0.69795 z"
     id="path3665"
     style="font-size:12px;fill:#cca300;fill-opacity:1;fill-rule:evenodd;stroke:#cca300;stroke-width:0.40014186pt;stroke-opacity:1" />
  <path
     d="m 498.88008,147.54685 c -0.1066,-0.1074 -0.064,-1.11252 -0.27544,-2.21633 -0.21109,-1.10379 -0.57043,-2.16755 -0.49921,-2.46956 0.0667,-0.15893 0.29903,-0.0856 0.48412,0.12683 0.0882,0.60044 0.29444,2.90433 0.53654,4.4029 -0.003,0.14505 -0.12458,0.24374 -0.24601,0.15616 z"
     id="path3667"
     style="font-size:12px;fill:#cca300;fill-opacity:1;fill-rule:evenodd;stroke:#cca300;stroke-width:0.40014186pt;stroke-opacity:1" />
  <path
     d="m 501.21578,144.7499 c -0.11422,-0.16211 0.31015,1.08081 0.6192,2.55756 0.30899,1.47714 0.46719,4.08623 0.54231,3.90073 0.21232,-0.18786 0.17623,-0.42209 0.50704,-0.51722 0.33059,-0.0947 1.56076,0.0579 1.48928,-0.0523 -0.761,-0.90407 -1.46288,-1.65355 -1.98727,-2.63486 -0.52412,-0.98133 -0.87098,-2.27261 -1.17056,-3.25392 z"
     id="path3669"
     style="font-size:12px;fill:#cca300;fill-opacity:1;fill-rule:evenodd;stroke:#cca300;stroke-width:0.40014186pt;stroke-opacity:1" />
  <path
     d="m 504.50642,180.34202 12.95985,-60.91643 27.50859,-14.77792 14.58915,32.89623 -20.88141,56.54994 c -11.81138,-5.95293 -18.56637,-9.13307 -34.17618,-13.75182 z"
     id="path3673"
     style="font-size:12px;fill:none;stroke-width:1pt;stroke-opacity:0.99607801" />
  <path
     d="m 513.09899,140.0545 c 7.05656,1.98802 13.58887,4.2503 20.1213,7.06073 6.53203,2.8104 12.74993,6.16937 19.07273,9.80259 l -10.58458,28.51758 c -5.90802,-2.99827 -11.74154,-5.41514 -17.57533,-7.92832 -5.83346,-2.51356 -11.5188,-4.7366 -17.42648,-7.15307 l 6.39236,-30.29951 z"
     id="path3677"
     style="font-size:12px;fill:#ffffff;fill-opacity:1;fill-rule:evenodd;stroke:#ffffff;stroke-width:0.40014186pt;stroke-opacity:1" />
  <path
     d="m 511.6934,146.79102 c 0,0 9.85539,2.9325 19.4053,7.02864 9.55004,4.09573 18.86828,9.35471 18.83124,9.35471 -0.0742,0 -6.00249,16.28745 -6.00249,16.28745 -5.75503,-3.05379 -11.80692,-5.91414 -17.7843,-8.48318 -5.97765,-2.56906 -11.9551,-5.04099 -18.08086,-6.93154 l 3.63111,-17.25608 z"
     id="path3679"
     style="font-size:12px;fill:#de1818;fill-opacity:1;fill-rule:evenodd;stroke:#e61717;stroke-width:0.40014186pt;stroke-opacity:1" />
  <path
     d="m 512.51223,154.7562 c 0.96942,-0.72212 1.62594,-0.91712 2.14787,-2.10731 l 3.48993,4e-4 0.0451,1.6971 c 0.85759,0.54654 1.35722,1.15176 2.21482,1.6979 0.85766,0.54654 2.07344,1.03405 2.93103,1.5806 l 7.51723,0.87826 c 1.00666,0.21443 2.4611,0.78039 3.33358,1.46327 0.87249,0.68329 1.43201,1.54177 1.90193,2.63445 1.54348,0.72214 3.08758,1.15137 4.67586,1.46368 1.58875,0.31192 3.57966,0.44864 5.12341,0.52674 0.76067,0.35154 0.76067,0.87827 0.40263,1.40501 0,0 -0.85038,1.53659 -3.17154,1.55125 -2.32109,0.0147 -4.95007,-1.72683 -6.09099,-1.4926 0.0449,0.93654 1.25309,2.86869 2.64016,3.62964 l -0.0445,4.44849 -0.62675,0.76135 -0.67107,-0.58538 c 0.53716,-1.05347 0.35776,-2.28329 0.13419,-3.33675 -0.51466,-0.99521 -0.58161,-1.40503 -1.54342,-1.46328 -1.14125,-0.29329 -1.96922,-0.70309 -3.42331,-2.04945 l -0.53709,0.11732 c -0.31324,0.74156 -0.62654,1.24886 -1.34234,1.6975 l -1.47659,-0.11691 c 0,0 -3.40089,-0.99521 -3.40089,-1.05387 0,-0.0583 -0.0447,-0.70231 0.0449,-0.76096 0.0894,-0.0587 1.16328,-0.0582 1.25261,-0.0582 0.71619,0.29248 2.23765,0.29248 2.23765,0.29248 l -0.045,-1.69793 2.28212,-0.17556 c -0.46232,-2.10732 -0.61166,-3.45405 -2.72955,-3.92214 l -6.62258,0.23424 0.0896,1.22941 c -1.65557,-0.29288 -4.6535,-0.34519 -6.18476,0.33135 -0.89498,0.11734 -2.18279,0.72214 -2.76439,0.72214 l -0.67134,-0.23385 c -0.44743,-0.17557 -0.44743,-0.35115 -0.26845,-0.87828 2.86373,-0.29289 3.31143,-0.5854 4.16155,-1.11211 0.0448,-0.35116 -0.31331,-1.11253 -0.44742,-1.17118 -1.78977,-0.11691 -3.22177,0.0587 -3.71378,-0.0583 -0.76074,-0.29289 -1.79011,-0.81964 -1.79011,-0.87829 0,-0.0586 -0.13419,-0.93653 -0.0894,-0.93653 0.0445,0 1.16364,0.40981 1.20782,0.40981 1.20843,0.2925 3.3115,0.17558 3.80379,-0.17557 l 0.0448,-1.2881 c -0.0448,-0.5854 -0.35811,-1.11213 -0.44777,-1.17079 -0.0894,-0.0586 -1.96888,-0.35114 -2.64015,-0.35114 -1.08886,-0.25366 -0.92463,-0.97577 -0.93944,-1.6979 z"
     id="path3681"
     style="font-size:12px;fill:#000000;fill-opacity:1;fill-rule:evenodd;stroke:#000000;stroke-width:0.40014186pt;stroke-opacity:1" />
  <path
     d="m 526.96501,165.17666 c 1.01428,0.42925 1.76013,0.56559 3.26663,0.7023 l 2.28212,-0.17556 c -0.46231,-2.10732 -0.61165,-3.45405 -2.72955,-3.92214 l -6.62258,0.23424 0.0896,1.22941 c 2.01376,0.99482 2.99799,1.54137 3.71379,1.93175 z"
     id="path3683"
     style="font-size:12px;fill:#ffffff;fill-opacity:1;fill-rule:evenodd;stroke:#000000;stroke-width:0.40014186pt;stroke-opacity:1" />
  <path
     d="m 395.44667,180.33062 -11.96814,-59.48022 18.26254,-29.502828 25.60803,19.494878 4.34074,63.02914 c -13.06661,1.29138 -21.53186,2.96831 -36.24317,6.45903 z"
     id="path3685"
     style="font-size:12px;fill:#00298c;fill-opacity:1;fill-rule:evenodd;stroke:#000082;stroke-width:0.40014143pt;stroke-opacity:1" />
  <path
     d="m 352.6181,130.76003 4.38185,4.54376 -0.82074,7.94661 5.64218,-3.12865 4.47623,4.53605 0.61291,-7.30904 4.63098,-2.42585 -3.82912,-4.89901 0.85192,-7.26621 c 0,0 -5.56742,2.68776 -5.57027,2.62605 -0.003,-0.0617 -4.00075,-4.51255 -4.04538,-4.44694 -0.0443,0.0656 -0.91625,6.89941 -0.91625,6.89941 l -5.41431,2.92382 z"
     id="path3687"
     style="font-size:12px;fill:#fffa00;fill-opacity:1;fill-rule:evenodd;stroke:#ffc700;stroke-width:0.5;stroke-miterlimit:4;stroke-opacity:1;stroke-dasharray:none" />
  <path
     d="m 352.71541,130.81403 18.77612,4.05142 -4.67282,2.55276 -4.51204,-4.28494 c 0,0 4.0296,11.33514 3.97961,11.27729 -0.05,-0.0579 -4.27023,-4.18081 -4.42055,-4.35438 l 0.39378,-6.91907 c 0,0 -5.98864,10.04388 -5.99148,9.98216 -0.003,-0.0621 0.87083,-7.88878 0.87083,-7.88878 l -4.42345,-4.41646 z"
     id="path3689"
     style="font-size:12px;fill:#ffc500;fill-rule:evenodd;stroke-width:1pt" />
  <path
     d="m 357.97294,127.98351 4.3517,4.91868 -3.39383,-11.94537 -0.95787,7.02669 z"
     id="path3691"
     style="font-size:12px;fill:#ffc700;fill-opacity:1;fill-rule:evenodd;stroke-width:1pt" />
  <path
     d="m 362.93234,125.63292 c 0.05,0.0585 -0.66607,7.26028 -0.61891,7.25639 0.43826,-0.78805 6.23316,-9.9754 6.1863,-9.97154 -0.0475,0.004 -5.47023,2.76972 -5.56739,2.71515 z"
     id="path3693"
     style="font-size:12px;fill:#ffc700;fill-opacity:1;fill-rule:evenodd;stroke-width:1pt" />
  <path
     d="m 531.53336,120.65856 1.1034,7.17776 -4.54236,5.38864 5.84601,2.37019 1.1792,7.25152 4.06969,-5.07617 4.72821,2.05414 -0.50664,-6.98284 4.23084,-4.84158 c 0,0 -5.57173,-2.64449 -5.54353,-2.69409 0.0283,-0.0497 -0.82803,-6.83204 -0.89444,-6.81956 -0.0662,0.0127 -4.09919,4.50652 -4.09919,4.50652 l -5.57119,-2.33453 z"
     id="path3695"
     style="font-size:12px;fill:#fffa00;fill-opacity:1;fill-rule:evenodd;stroke:#ffc700;stroke-width:0.40014157pt;stroke-opacity:1" />
  <path
     d="m 531.58097,120.78208 12.32672,18.95637 -4.82267,-1.99234 -1.33033,-7.08961 c 0,0 -2.51228,12.07787 -2.52189,11.99137 -0.01,-0.0865 -1.19711,-6.80569 -1.22626,-7.06547 l 3.71028,-4.96276 c 0,0 -9.51828,2.62959 -9.49009,2.57997 0.0285,-0.0499 4.55217,-5.30207 4.55217,-5.30207 l -1.19793,-7.11546 z"
     id="path3697"
     style="font-size:12px;fill:#ffc700;fill-opacity:1;fill-rule:evenodd;stroke:none" />
  <path
     d="m 537.06668,122.95613 0.89553,7.43921 3.29805,-12.00802 -4.19358,4.56881 z"
     id="path3699"
     style="font-size:12px;fill:#ffc700;fill-opacity:1;fill-rule:evenodd;stroke-width:1pt" />
  <path
     d="m 542.03211,125.3194 c 0.01,0.0865 -4.05103,4.93948 -4.01309,4.97638 0.7188,-0.2271 9.6229,-2.29587 9.58523,-2.33252 -0.0382,-0.0371 -5.52453,-2.52046 -5.57214,-2.64386 z"
     id="path3701"
     style="font-size:12px;fill:#ffc700;fill-opacity:1;fill-rule:evenodd;stroke-width:1pt" />
  <path
     d="m 383.5658,121.08095 c 6.49995,-4.14337 13.79543,-7.37592 21.48926,-8.78558 7.39482,-1.41026 14.79576,-1.53243 22.38994,-1.51075 0,0 0.99485,15.50978 0.99485,15.64015 -5.96921,0.065 -10.41766,-0.0828 -20.94762,1.73361 -10.47091,1.93653 -14.78421,3.59601 -21.15148,6.84996 l -2.77495,-13.92739 z"
     id="path3703"
     style="font-size:12px;fill:#de1818;fill-opacity:1;fill-rule:evenodd;stroke:#e61717;stroke-width:0.40014367pt;stroke-opacity:1" />
  <path
     d="m 389.13178,148.53727 c -0.0997,0 3.28846,16.40715 3.28846,16.40715 6.25125,-2.10415 12.60185,-3.68791 18.95247,-4.88088 6.35056,-1.19296 13.10443,-1.87269 19.25599,-2.41487 l -1.08906,-16.00248 c -6.48332,-0.52079 -13.87242,-0.52079 -20.55474,0.65038 -6.68233,1.17156 -13.17078,3.2472 -19.85312,6.2407 z"
     id="path3705"
     style="font-size:12px;fill:#de1818;fill-opacity:1;fill-rule:evenodd;stroke:#e61717;stroke-width:0.40014186pt;stroke-opacity:1" />
  <path
     d="m 359.29354,199.20216 181.4245,0 0,155.13432 c -4.61138,60.41632 -48.15588,105.57725 -87.94537,105.23283 -42.95168,2.4989 -90.44898,-44.38568 -93.87441,-105.75003 l 0.39528,-154.61712 z"
     id="path3707"
     style="font-size:12px;fill:#ffffff;fill-rule:evenodd;stroke:#de1818;stroke-width:1.60056734;stroke-opacity:1" />
  <path
     d="m 363.06631,204.63068 173.86241,0 0,148.66849 c -4.41928,57.89822 -46.14864,101.17688 -84.27974,100.84683 -41.16127,2.39473 -86.6788,-42.53575 -89.96147,-101.3425 l 0.3788,-148.17282 z"
     id="path3709"
     style="font-size:12px;fill:#de1818;fill-opacity:1;fill-rule:evenodd;stroke:#de1818;stroke-width:1.53385484;stroke-opacity:1" />
  <rect
     width="34.574722"
     height="49.556583"
     ry="0"
     x="398.08081"
     y="205.42212"
     id="rect3711"
     style="font-size:12px;fill:#ffffff;fill-rule:evenodd;stroke-width:1pt" />
  <use
     transform="matrix(-1,0,0,1,899.75899,0.06595481)"
     id="use2942"
     x="0"
     y="0"
     width="1200"
     height="600"
     xlink:href="#path3719" />
  <use
     transform="matrix(-1,0,0,1,899.99753,0)"
     id="use2944"
     x="0"
     y="0"
     width="1200"
     height="600"
     xlink:href="#path3717" />
  <path
     d="m 398.32097,403.87674 0.072,26.28432 c 11.7782,11.08711 25.22935,17.81845 34.18756,20.31338 l -0.11553,-46.58027 -34.144,-0.0174 z"
     id="path3717"
     style="font-size:12px;fill:#ffffff;fill-rule:evenodd;stroke:#ffffff;stroke-width:0.4067615pt" />
  <path
     d="m 363.69503,354.36922 c 1.09835,19.18815 7.56798,36.37859 14.02927,48.41583 l 20.16394,0.5602 0.004,-48.99694 -34.19691,0.0209 z"
     id="path3719"
     style="font-size:12px;fill:#ffffff;fill-rule:evenodd;stroke:#ffffff;stroke-width:0.41002474pt" />
  <use
     transform="translate(-34.574772,49.556686)"
     id="use2781"
     x="0"
     y="0"
     width="1200"
     height="600"
     xlink:href="#rect3711" />
  <use
     transform="translate(34.574723,49.556583)"
     id="use2783"
     x="0"
     y="0"
     width="1200"
     height="600"
     xlink:href="#rect3711" />
  <use
     transform="translate(69.149499,0)"
     id="use2779"
     x="0"
     y="0"
     width="1200"
     height="600"
     xlink:href="#rect3711" />
  <use
     transform="translate(103.72422,49.556583)"
     id="use2785"
     x="0"
     y="0"
     width="1200"
     height="600"
     xlink:href="#rect3711" />
  <use
     transform="translate(0,99.113312)"
     id="use2936"
     x="0"
     y="0"
     width="1200"
     height="600"
     xlink:href="#rect3711" />
  <use
     transform="translate(69.149499,99.113312)"
     id="use2938"
     x="0"
     y="0"
     width="1200"
     height="600"
     xlink:href="#rect3711" />
  <use
     transform="translate(34.574863,148.66998)"
     id="use2940"
     x="0"
     y="0"
     width="1200"
     height="600"
     xlink:href="#rect3711" />
  <path
     d="m 484.16802,146.8484 c -0.11521,0.18489 -0.38716,-2.17356 -0.47875,-2.56485 -0.11924,-0.63419 -0.36596,-1.75241 -0.65399,-3.21977 0.86826,1.76501 1.31104,3.95999 1.13274,5.78462 z"
     id="path7132"
     style="font-size:12px;fill:#cca300;fill-opacity:1;fill-rule:evenodd;stroke:#cca300;stroke-width:0.40014186pt;stroke-opacity:1" />
</svg>
