<?xml version="1.0" encoding="UTF-8" standalone="no"?>
<svg
   xmlns:dc="http://purl.org/dc/elements/1.1/"
   xmlns:cc="http://creativecommons.org/ns#"
   xmlns:rdf="http://www.w3.org/1999/02/22-rdf-syntax-ns#"
   xmlns:svg="http://www.w3.org/2000/svg"
   xmlns="http://www.w3.org/2000/svg"
   xmlns:sodipodi="http://sodipodi.sourceforge.net/DTD/sodipodi-0.dtd"
   xmlns:inkscape="http://www.inkscape.org/namespaces/inkscape"
   width="900"
   height="600"
   id="svg2"
   sodipodi:version="0.32"
   inkscape:version="0.47 r22583"
   sodipodi:docname="Flag_of_Guam.svg"
   version="1.0">
  <metadata
     id="metadata39209">
    <rdf:RDF>
      <cc:Work
         rdf:about="">
        <dc:format>image/svg+xml</dc:format>
        <dc:type
           rdf:resource="http://purl.org/dc/dcmitype/StillImage" />
      </cc:Work>
    </rdf:RDF>
  </metadata>
  <sodipodi:namedview
     inkscape:cy="225"
     inkscape:cx="375"
     inkscape:zoom="0.82888889"
     inkscape:window-height="801"
     inkscape:window-width="1121"
     inkscape:pageshadow="2"
     inkscape:pageopacity="0.0"
     borderopacity="1.0"
     bordercolor="#666666"
     pagecolor="#ffffff"
     id="base"
     inkscape:window-x="95"
     inkscape:window-y="153"
     inkscape:current-layer="svg2"
     showgrid="false"
     inkscape:window-maximized="0" />
  <defs
     id="defs4">
    <inkscape:perspective
       sodipodi:type="inkscape:persp3d"
       inkscape:vp_x="0 : 225 : 1"
       inkscape:vp_y="0 : 1000 : 0"
       inkscape:vp_z="750 : 225 : 1"
       inkscape:persp3d-origin="375 : 150 : 1"
       id="perspective2865" />
    <marker
       id="ArrowEnd"
       viewBox="0 0 10 10"
       refX="0"
       refY="5"
       markerUnits="strokeWidth"
       markerWidth="4"
       markerHeight="3"
       orient="auto">
      <path
         d="M 0,0 10,5 0,10 0,0 z"
         id="path7" />
    </marker>
    <marker
       id="ArrowStart"
       viewBox="0 0 10 10"
       refX="10"
       refY="5"
       markerUnits="strokeWidth"
       markerWidth="4"
       markerHeight="3"
       orient="auto">
      <path
         d="M 10,0 0,5 10,10 10,0 z"
         id="path10" />
    </marker>
  </defs>
  <path
     id="path14"
     d="m -749.11111,2980.1133 0,0 0,0 0,0"
     style="fill:#000000;stroke:none" />
  <path
     id="path18"
     d="m 23.737128,573.62521 851.354762,0 0,-547.250877 -851.354762,0 0,547.250877 z"
     style="fill:#d53848;stroke:none" />
  <path
     style="fill:#d53848;fill-opacity:1;stroke:none"
     d="M 0,0 0,600 900,600 900,0 0,0 z"
     id="path20"
     sodipodi:nodetypes="ccccc" />
  <path
     id="path22"
     d="m 43.375368,551.57295 813.249262,0 0,-503.145897 -813.249262,0 0,503.145897 z"
     style="fill:#0050c8;fill-opacity:1;stroke:none" />
  <g
     id="g1654"
     transform="matrix(1.2079584,0,0,1.342176,-1.5792852,-0.4472)">
    <path
       style="fill:#d53848;stroke:none"
       d="m 374.05801,112.24122 c 0,0 -68.99355,50.8848 -68.99355,110.8848 0,60.0096 68.99355,112.3344 68.99355,112.3344 0,0 68.5511,-48.0096 68.5511,-112.3344 0,-64.32 -68.5511,-110.8848 -68.5511,-110.8848"
       id="path24" />
    <path
       style="fill:#66afeb;fill-opacity:1;stroke:none"
       d="m 432.22639,242.97402 c 1.51341,-6.384 2.37319,-13.0128 2.37319,-19.848 0,-57.6 -60.54157,-100.32 -60.54157,-100.32 0,0 -61.42649,44.1648 -61.42649,100.32 0,6.744 0.87487,13.3152 2.41845,19.68 l 117.17642,0.168"
       id="path26" />
    <path
       style="fill:#013a76;stroke:none"
       d="m 373.55522,324.41562 c 0,0 47.48398,-34.0224 58.65106,-81.6096 l -117.20156,0 c 11.33803,46.6704 58.5505,81.6096 58.5505,81.6096"
       id="path28" />
    <path
       style="fill:#e7dede;fill-opacity:1;stroke:none"
       d="m 434.30293,229.85082 c -10.38774,8.0064 -68.84774,4.1616 -68.84774,4.1616 l -3.26817,8.9616 70.03434,0 c 0.29162,-1.2288 0.55811,-2.4576 0.79945,-3.7008 l 1.28212,-9.4224"
       id="path30" />
    <path
       style="fill:#fff100;stroke:none"
       d="m 370.46303,286.49562 c -0.88995,-6.7056 -28.23195,-13.8864 -42.74262,-13.296 4.53018,7.6896 9.66372,14.7264 14.82743,20.9808 7.37098,-8.5584 28.20681,-5.472 27.91519,-7.6848"
       id="path32" />
    <path
       style="fill:#fff100;stroke:none"
       d="m 425.8057,261.56442 c -3.47432,0.1344 -9.77937,0.7344 -14.09838,3.168 -6.22963,3.5184 -20.17717,7.3632 -26.41183,5.4384 -6.22964,-1.92 -16.02409,4.1616 -14.83246,5.4384 1.97598,2.136 16.3157,-0.3168 16.3157,13.4448 0,11.52 -16.61235,6.4032 -23.14366,11.2032 -3.93689,2.8848 -6.68215,6.0192 -8.24081,8.0352 10.19668,10.2096 18.18107,16.1232 18.18107,16.1232 0,0 18.93024,-13.5648 35.69343,-35.5296 l 7.88383,-11.3184 c 3.17767,-5.0352 6.12405,-10.3776 8.65311,-16.0032"
       id="path34" />
    <path
       style="fill:#000000;stroke:none"
       d="m 352.03558,258.41562 2.51398,0 0,-29.28 -2.51398,0 0,29.28 z"
       id="path36" />
    <path
       style="fill:#7b4800;stroke:none"
       d="m 360.20098,263.93562 c 0,0 -1.03073,0.1968 -2.66984,0.4224 l 0,-2.2848 -1.66928,0 0,2.4816 c -1.70951,0.1872 -3.78102,0.3408 -5.9531,0.3408 -2.30783,0 -4.63577,-0.1824 -6.55645,-0.3936 l 0,-2.3664 -1.84023,0 0,2.1408 c -1.58883,-0.216 -2.61453,-0.4032 -2.61453,-0.4032 0,0 -0.5028,3 10.85032,3 11.34808,0 10.45814,-2.9376 10.45814,-2.9376"
       id="path38" />
    <path
       style="fill:#009270;stroke:none"
       d="m 370.27699,172.85082 c 0,0 -9.4626,-6 -22.36935,-3.1248 -12.90676,2.88 -15.69224,11.6352 -15.69224,11.6352 l 4.33912,-2.1552 0.11062,1.92 3.89666,-2.64 0.11061,1.92 3.33856,-3.3552 0.54805,2.1552 3.00671,-2.88 0.22626,1.56 4.8922,-3.36 0,2.16 3.89666,-1.9248 -0.33184,2.0448 7.34584,-1.4352 c 0,0 -17.36152,6.2352 -19.58388,21.2352 l 3.33354,-4.3104 0.33687,2.0304 2.11174,-4.5552 0.5581,1.8 1.89051,-4.2 0.55308,2.5152 2.89107,-4.56 0.22626,2.6448 3.33353,-4.92 0,2.3904 3.56482,-4.2 -0.11062,3.1296 c 0,0 3.44918,-3.1296 4.55533,-3.1296 l -4.11287,5.7648 1.33744,0.48 c 0,0 -2.8961,2.52 -3.11733,3 -0.22123,0.4752 1.89553,0 1.89553,0 0,0 -2.56425,2.8752 -2.67487,3.72 -0.11061,0.8448 1.66928,0 1.66928,0 0,0 -2.33799,3.2352 -2.66984,4.4448 -0.33687,1.2 1.22179,0.2352 1.22179,0.2352 0,0 -1.44302,3.84 -1.55866,4.92 -0.11062,1.0704 1.66928,-0.2448 1.66928,-0.2448 l 1.00559,6.6 1.77989,-7.9104 1.11118,1.8 0,-5.6448 1.00056,0.9552 -0.11061,-3.7104 1.33241,1.4352 -0.66369,-4.56 1.44302,1.7904 -0.22123,-3.8304 1.44302,1.5648 0,-5.0448 1.33744,1.3104 0.22123,-3.4656 1.55866,0.8352 c 0,0 0.22123,-4.2 2.00615,-4.08 1.77487,0.1104 4.00225,2.1552 3.11231,3.1104 l 1.55866,-0.4656 -0.33184,4.0656 1.44302,-0.9552 -0.22123,3 1.22179,-0.6 -0.44246,3.8352 1.44805,-0.9456 0.10559,4.6656 1.66425,-1.3104 -0.11062,5.5104 1.66928,-1.4304 0,4.5552 1.55867,-1.1904 1.67431,4.4352 -0.33687,-6.6 1.22682,1.0752 -2.23242,-4.6752 1.67431,-0.2448 -1.78492,-3.1248 1.66928,0.1344 -2.44358,-3.1248 1.66425,-0.3552 -3.67544,-2.8848 2.00616,-0.8352 -3.78605,-2.6448 1.44805,-0.6 -2.66481,-3 2.78045,1.2 0.88492,-1.92 3.33856,2.8848 0,-2.8848 2.89107,4.32 0.33688,-2.6448 2.22738,3.3648 0.44246,-1.5552 1.55867,3.3552 0.7743,-2.5104 1.55866,3.6 0.44246,-2.5296 1.44805,3.9648 1.33744,-1.5648 0.66872,4.0848 1.32738,-1.5648 1.22179,3.6 1.55866,-1.32 1.33744,4.0848 c 0,0 3.6704,-21.8448 -27.81966,-22.2096 l -9.34696,-1.9104"
       id="path40" />
    <path
       style="fill:#009270;stroke:none"
       d="m 355.81158,153.40602 1.77486,2.3904 -0.88994,0.7296 3.00671,1.8 -0.66872,1.3152 3.00672,1.2 -1.11621,0.9648 2.67487,1.6704 -1.77989,0.6096 3.22292,1.6752 -0.44246,1.5552 2.78045,0.7248 -1.22179,1.0752 3.22292,2.7696 3.67543,2.7552 2.55923,-0.9552 -1.00559,-5.2896 c 0,0 -10.56876,-15.6 -18.79951,-15"
       id="path42" />
    <path
       style="fill:#009270;stroke:none"
       d="m 365.49038,138.28602 1.22682,3.1104 -1.6743,0.3648 3.78604,4.08 -3.00671,0.12 3.67543,3.1152 -1.78492,0.6096 3.34359,3.6 -1.78493,0.9552 3.44918,3.72 -2.33297,0.9552 3.89666,3.8448 -2.22738,0.1248 2.33297,3.2304 -2.11174,0.7248 c 0,0 2.55923,5.1552 2.44358,7.32 l 4.33913,0.2352 c 0,0 0.66871,-13.92 0.11564,-15.72 l -1.11621,0.84 0.33185,-5.04 -1.66928,1.0848 -0.32682,-6 -1.67431,1.9152 -0.43743,-5.88 -1.22682,2.0448 -1.22682,-5.7648 -1.33241,1.8 -1.22682,-3.7152 -1.00056,1.4352 -2.78046,-3.12"
       id="path44" />
    <path
       style="fill:#009270;stroke:none"
       d="m 376.72786,173.32602 c 1.22682,-8.4 9.35199,-20.64 24.59674,-21.12 l -3.45421,1.92 2.00616,0.96 -4.00728,1.5648 2.00112,1.3104 -4.78158,0.3648 2.44359,1.8 -3.55477,0.48 -2.78548,0.6 2.00112,2.0352 -4.00727,0.4752 2.56425,1.4448 c 0,0 -6.34527,2.4 -6.78773,3.1248 0,0 21.36879,-5.88 26.59786,5.0304 l -4.12292,-1.92 0.33688,2.0448 -2.89108,-2.28 0.44246,1.68 -3.00168,-1.68 0.44246,2.0352 -3.11734,-1.92 0.66872,1.8096 -4.00728,-2.0448 0.66872,1.92 -3.44917,-1.2 0.33687,2.0352 -3.4542,-0.2352 0.33687,2.4 -10.6844,-0.2448 -1.33743,-2.4"
       id="path46" />
    <path
       style="fill:#7b4800;stroke:none"
       d="m 373.46472,180.56442 2.22738,-0.1584 c -1.04079,22.8864 -0.0654,55.6992 2.81565,67.848 4.8922,20.6352 19.1565,28.584 22.55037,30.5616 1.9257,1.1136 1.18659,5.7552 -2.67487,5.4384 -3.85142,-0.3216 -17.31124,-11.0448 -21.95707,-30.2448 -6.22461,-25.7616 -3.20281,-70.7616 -2.96146,-73.4448"
       id="path48" />
    <path
       style="fill:#d53848;stroke:none"
       d="m 343.72438,215.62842 -2.63968,0 c -0.20614,-1.2288 -0.70391,-2.0928 -1.4933,-2.568 -0.44246,-0.2736 -0.93017,-0.4032 -1.46816,-0.4032 -1.04078,0 -1.88548,0.5328 -2.54917,1.632 -0.66872,1.0848 -1.00056,2.736 -1.00056,4.92 0,2.2128 0.36201,3.768 1.08101,4.6992 0.71899,0.9072 1.53855,1.368 2.45867,1.368 0.9,0 1.63408,-0.36 2.21229,-1.0896 0.57319,-0.72 0.92515,-1.6752 1.06593,-2.8608 l -2.97655,0 0,-2.9904 5.34974,0 0,9.6288 -1.77486,0 -0.27151,-2.2416 c -0.51788,0.8544 -0.98045,1.4544 -1.39275,1.8096 -0.70894,0.6096 -1.57877,0.912 -2.61453,0.912 -1.69945,0 -3.09722,-0.8256 -4.17823,-2.4768 -1.13129,-1.6512 -1.69945,-3.9168 -1.69945,-6.7872 0,-2.904 0.57319,-5.2416 1.71956,-6.9936 1.13632,-1.752 2.64973,-2.6256 4.53522,-2.6256 1.62905,0 2.94135,0.5808 3.93185,1.7376 0.98548,1.152 1.55867,2.5968 1.70448,4.3296"
       id="path50" />
    <path
       style="fill:#d53848;stroke:none"
       d="m 356.28923,221.05722 0,-11.0352 2.72515,0 0,11.0352 c 0,1.2288 0.11062,2.1264 0.31676,2.6976 0.32682,1.0032 1.03073,1.512 2.12683,1.512 1.08101,0 1.78995,-0.5088 2.11676,-1.512 0.21118,-0.5712 0.30671,-1.4688 0.30671,-2.6976 l 0,-11.0352 2.73018,0 0,11.0352 c 0,1.9008 -0.21118,3.384 -0.63352,4.4544 -0.79442,1.9392 -2.29778,2.9136 -4.52516,2.9136 -2.22236,0 -3.73577,-0.9648 -4.53019,-2.9136 -0.42234,-1.0608 -0.63352,-2.5536 -0.63352,-4.4544"
       id="path52" />
    <path
       style="fill:#d53848;stroke:none"
       d="m 383.33961,227.96442 0.88995,-3.6816 4.7313,0 0.82459,3.6816 2.90615,0 -4.55029,-17.9424 -3.0218,0 -4.58549,17.9424 2.80559,0"
       id="path54" />
    <path
       style="fill:#d53848;stroke:none"
       d="m 409.64586,224.12922 2.31788,-14.1072 3.85644,0 0,17.9424 -2.49889,0 0,-12.1296 c 0,-0.3552 0.005,-0.8448 0.0101,-1.4736 0.005,-0.6288 0.0101,-1.1136 0.0101,-1.4496 l -2.43353,15.0528 -2.60447,0 -2.41342,-15.0528 c 0,0.336 0.005,0.8208 0.0101,1.4496 0.005,0.6288 0.0101,1.1184 0.0101,1.4736 l 0,12.1296 -2.49889,0 0,-17.9424 3.90169,0 2.33297,14.1072"
       id="path56" />
    <path
       style="fill:#7b4800;stroke:none"
       d="m 349.42608,258.32922 c 9.20115,0 16.91906,-1.5936 16.91906,-1.5936 0,0 1.18156,6.3936 -16.91906,6.3936 -18.10063,0 -16.61738,-5.4336 -16.61738,-5.4336 0,0 7.42125,0.6336 16.61738,0.6336"
       id="path58" />
    <path
       style="fill:#ffffff;stroke:none"
       d="m 341.70817,230.80602 c 0,0 14.24419,5.7648 19.88555,25.9296 0,0 -13.05759,-2.8752 -20.47885,0.3216 l -4.15309,0 c 0,-0.01 7.12461,-11.2032 4.74639,-26.2512"
       id="path60" />
    <path
       style="fill:#7b4800;stroke:none"
       d="m 377.06473,172.88922 c 1.38771,0 2.519,1.2192 2.519,2.7168 0,1.5024 -1.13129,2.7168 -2.519,2.7168 -1.39274,0 -2.519,-1.2144 -2.519,-2.7168 0,-1.4976 1.12626,-2.7168 2.519,-2.7168"
       id="path62" />
    <path
       style="fill:#7b4800;stroke:none"
       d="m 373.05745,172.10202 c 1.30224,0 2.35811,1.1328 2.35811,2.5392 0,1.4064 -1.05587,2.5488 -2.35811,2.5488 -1.30224,0 -2.35811,-1.1424 -2.35811,-2.5488 0,-1.4064 1.05587,-2.5392 2.35811,-2.5392"
       id="path64" />
    <path
       style="fill:#7b4800;stroke:none"
       d="m 373.05745,176.71482 c 1.21677,0 2.20224,1.056 2.20224,2.3712 0,1.3104 -0.98547,2.3808 -2.20224,2.3808 -1.21676,0 -2.20224,-1.0704 -2.20224,-2.3808 0,-1.3152 0.98548,-2.3712 2.20224,-2.3712"
       id="path66" />
    <path
       style="fill:#7b4800;stroke:none"
       d="m 376.05914,175.34202 c 1.30727,0 2.36314,1.1376 2.36314,2.544 0,1.4064 -1.05587,2.5392 -2.36314,2.5392 -1.30224,0 -2.35811,-1.1328 -2.35811,-2.5392 0,-1.4064 1.05587,-2.544 2.35811,-2.544"
       id="path68" />
    <path
       style="fill:#3796d2;stroke:none"
       d="m 388.2117,221.18682 -3.25811,0 1.65419,-7.0608 1.60392,7.0608"
       id="path70" />
  </g>
</svg>
