<?xml version="1.0" encoding="UTF-8" standalone="no"?>
<!-- Created with Inkscape (http://www.inkscape.org/) -->

<svg
   xmlns:dc="http://purl.org/dc/elements/1.1/"
   xmlns:cc="http://creativecommons.org/ns#"
   xmlns:rdf="http://www.w3.org/1999/02/22-rdf-syntax-ns#"
   xmlns:svg="http://www.w3.org/2000/svg"
   xmlns="http://www.w3.org/2000/svg"
   xmlns:sodipodi="http://sodipodi.sourceforge.net/DTD/sodipodi-0.dtd"
   xmlns:inkscape="http://www.inkscape.org/namespaces/inkscape"
   version="1.0"
   width="900"
   height="600"
   viewBox="-15 -7.5 22.5 15"
   id="Flag_of_New_Zealand"
   inkscape:version="0.47 r22583"
   sodipodi:docname="Flag_of_Tokelau.svg">
  <metadata
     id="metadata2844">
    <rdf:RDF>
      <cc:Work
         rdf:about="">
        <dc:format>image/svg+xml</dc:format>
        <dc:type
           rdf:resource="http://purl.org/dc/dcmitype/StillImage" />
      </cc:Work>
    </rdf:RDF>
  </metadata>
  <sodipodi:namedview
     pagecolor="#ffffff"
     bordercolor="#666666"
     borderopacity="1"
     objecttolerance="10"
     gridtolerance="10"
     guidetolerance="10"
     inkscape:pageopacity="0"
     inkscape:pageshadow="2"
     inkscape:window-width="797"
     inkscape:window-height="756"
     id="namedview2842"
     showgrid="false"
     inkscape:zoom="0.41833333"
     inkscape:cx="600"
     inkscape:cy="300"
     inkscape:window-x="0"
     inkscape:window-y="0"
     inkscape:window-maximized="0"
     inkscape:current-layer="Flag_of_New_Zealand" />
  <defs
     id="defs3">
    <inkscape:perspective
       sodipodi:type="inkscape:persp3d"
       inkscape:vp_x="0 : 300 : 1"
       inkscape:vp_y="0 : 1000 : 0"
       inkscape:vp_z="1200 : 300 : 1"
       inkscape:persp3d-origin="600 : 200 : 1"
       id="perspective2846" />
    <clipPath
       id="border">
      <rect
         width="30"
         height="15"
         x="-15"
         y="-7.5"
         id="rect6" />
    </clipPath>
  </defs>
  <rect
     width="22.5"
     height="15"
     x="-15"
     y="-7.5"
     style="fill:#020266;fill-opacity:1"
     id="rect8" />
  <comment
     id="comment10">The above line is the ensign field color: #CF142B red and #00247D blue</comment>
  <g
     transform="matrix(0.53117512,0,0,0.7082335,-15.714152,-2.4349284)"
     id="g3240">
    <path
       d="m 6.3655002,-4.8686952 0.8667576,0 0.2677424,-0.8243104 0.2677416,0.8243104 0.8667584,0 -0.7011208,0.5093792 0.2677416,0.8243104 -0.7011208,-0.50938 -0.7011208,0.50938 L 7.066621,-4.359316 6.3655002,-4.8686952 z"
       style="fill:#ffffff"
       id="path11001" />
    <path
       d="m 2.8995002,-1.3816942 0.8667576,0 0.2677424,-0.8243104 0.2677416,0.8243104 0.8667584,0 -0.7011208,0.5093792 0.2677416,0.8243104 -0.7011208,-0.50938 -0.7011208,0.50938 L 3.600621,-0.872315 2.8995002,-1.3816942 z"
       style="fill:#ffffff"
       id="path2185" />
    <path
       d="m 9.4619979,-2.246605 0.7712571,0 0.238243,-0.7333997 0.238241,0.7333997 0.771258,0 -0.62387,0.4532013 0.238241,0.7333997 -0.62387,-0.453202 -0.6238711,0.453202 0.2382411,-0.7333997 -0.6238701,-0.4532013 z"
       style="fill:#ffffff"
       id="path2191" />
    <path
       d="m 6.2410005,4.0917423 0.9622578,0 0.2972426,-0.9167494 0.2972416,0.9167494 0.9622587,0 L 7.9816302,4.6582438 8.2788719,5.5749932 7.5005009,5.0084908 6.7221299,5.5749932 7.0193715,4.6582438 6.2410005,4.0917423 z"
       style="fill:#ffffff"
       id="path2197" />
  </g>
  <path
     d="M -15,7.5 C -7.7775346,2.6967347 -4.7539615,-3.2543654 3.0208329,-7.5 l 0,0 C 0.910488,-3.93968 1.34624,4.1169188 7.5,7.4525317 L -15,7.5 z"
     style="fill:#ffcc01;fill-opacity:1;fill-rule:evenodd;stroke:none"
     id="path3248" />
  <rect
     width="22.5"
     height="0.75"
     x="-15"
     y="6"
     style="fill:#020266;fill-opacity:1;stroke:none"
     id="rect5209" />
</svg>
